<?xml version="1.0" encoding="utf-8"?>
<!-- Generator: Adobe Illustrator 23.0.2, SVG Export Plug-In . SVG Version: 6.00 Build 0)  -->
<svg version="1.1" id="Layer_1" xmlns="http://www.w3.org/2000/svg" xmlns:xlink="http://www.w3.org/1999/xlink" x="0px" y="0px"
	 viewBox="0 0 490.1 606.6" style="enable-background:new 0 0 490.1 606.6;" xml:space="preserve">
<style type="text/css">
	.st0{fill:#FFE175;}
	.st1{fill:url(#SVGID_1_);}
	.st2{fill:url(#SVGID_2_);}
	.st3{fill:url(#SVGID_3_);}
	.st4{fill:url(#SVGID_4_);}
	.st5{fill:url(#SVGID_5_);}
	.st6{fill:url(#SVGID_6_);}
	.st7{fill:url(#SVGID_7_);}
	.st8{fill:url(#SVGID_8_);}
	.st9{fill:url(#SVGID_9_);}
	.st10{fill:url(#SVGID_10_);}
	.st11{opacity:0.5;fill:#FFFFFF;enable-background:new    ;}
</style>
<g>
	<polygon class="st0" points="378,51.6 402.6,6 427.8,51.8 479.7,61.6 443.2,99.5 450.2,151.8 402.7,128.6 354.9,151.8 362.2,99.3 
		326.1,61 	"/>
	
		<linearGradient id="SVGID_1_" gradientUnits="userSpaceOnUse" x1="390.95" y1="481.8898" x2="390.95" y2="556.9039" gradientTransform="matrix(1 0 0 -1 0 565.6142)">
		<stop  offset="0" style="stop-color:#FFD073"/>
		<stop  offset="0.6265" style="stop-color:#F7EBCA"/>
		<stop  offset="1" style="stop-color:#F7DD97"/>
	</linearGradient>
	<polygon class="st1" points="402.9,85.7 402.6,8.9 379,52.8 	"/>
	
		<linearGradient id="SVGID_2_" gradientUnits="userSpaceOnUse" x1="415.1328" y1="484.1283" x2="413.4367" y2="556.6798" gradientTransform="matrix(1 0 0 -1 0 565.6142)">
		<stop  offset="0" style="stop-color:#FFD173"/>
		<stop  offset="0.7169" style="stop-color:#FFE49B"/>
		<stop  offset="1" style="stop-color:#FFD973"/>
	</linearGradient>
	<polygon class="st2" points="402.6,8.9 426.8,53 402.9,85.7 	"/>
	
		<linearGradient id="SVGID_3_" gradientUnits="userSpaceOnUse" x1="401.2123" y1="491.2908" x2="472.6105" y2="514.7889" gradientTransform="matrix(1 0 0 -1 0 565.6142)">
		<stop  offset="0" style="stop-color:#FDEAAB"/>
		<stop  offset="0.7349" style="stop-color:#FDF5DB"/>
		<stop  offset="1" style="stop-color:#FDEAAB"/>
	</linearGradient>
	<polygon class="st3" points="476.4,62.4 426.8,53 402.9,85.7 	"/>
	
		<linearGradient id="SVGID_4_" gradientUnits="userSpaceOnUse" x1="439.7407" y1="491.2187" x2="446.4707" y2="468.5493" gradientTransform="matrix(1 0 0 -1 0 565.6142)">
		<stop  offset="0" style="stop-color:#FFD373"/>
		<stop  offset="1" style="stop-color:#FFCB73"/>
	</linearGradient>
	<polygon class="st4" points="441.5,98.7 476.4,62.4 402.9,85.7 	"/>
	
		<linearGradient id="SVGID_5_" gradientUnits="userSpaceOnUse" x1="415.2106" y1="482.0373" x2="455.8807" y2="426.9068" gradientTransform="matrix(1 0 0 -1 0 565.6142)">
		<stop  offset="0" style="stop-color:#FFDB73"/>
		<stop  offset="0.5904" style="stop-color:#FDF5DB"/>
		<stop  offset="1" style="stop-color:#FFDB73"/>
	</linearGradient>
	<polygon class="st5" points="448.4,149 441.5,98.7 402.9,85.7 	"/>
	
		<linearGradient id="SVGID_6_" gradientUnits="userSpaceOnUse" x1="384.7891" y1="504.1293" x2="345.9691" y2="478.5009" gradientTransform="matrix(1 0 0 -1 0 565.6142)">
		<stop  offset="0" style="stop-color:#FDEAAB"/>
		<stop  offset="0.753" style="stop-color:#FDF5DB"/>
		<stop  offset="1" style="stop-color:#FDEBAB"/>
	</linearGradient>
	<polygon class="st6" points="329.4,61.8 379,52.8 402.9,85.7 	"/>
	
		<linearGradient id="SVGID_7_" gradientUnits="userSpaceOnUse" x1="402.6" y1="448.224" x2="448.4" y2="448.224" gradientTransform="matrix(1 0 0 -1 0 565.6142)">
		<stop  offset="0" style="stop-color:#FFD073"/>
		<stop  offset="1" style="stop-color:#FFD98C"/>
	</linearGradient>
	<polygon class="st7" points="402.6,126.7 402.9,85.7 448.4,149 	"/>
	
		<linearGradient id="SVGID_8_" gradientUnits="userSpaceOnUse" x1="366.1187" y1="491.7208" x2="359.0355" y2="468.3457" gradientTransform="matrix(1 0 0 -1 0 565.6142)">
		<stop  offset="0" style="stop-color:#FFD373"/>
		<stop  offset="1" style="stop-color:#FFCB73"/>
	</linearGradient>
	<polygon class="st8" points="364,98.5 402.9,85.7 329.4,61.8 	"/>
	
		<linearGradient id="SVGID_9_" gradientUnits="userSpaceOnUse" x1="368.1133" y1="413.4274" x2="412.3988" y2="472.1734" gradientTransform="matrix(1 0 0 -1 0 565.6142)">
		<stop  offset="0" style="stop-color:#FFCB73"/>
		<stop  offset="1" style="stop-color:#FFCB73"/>
	</linearGradient>
	<polygon class="st9" points="402.6,126.7 402.9,85.7 356.9,149 	"/>
	
		<linearGradient id="SVGID_10_" gradientUnits="userSpaceOnUse" x1="348.62" y1="425.1385" x2="392.9054" y2="486.5958" gradientTransform="matrix(1 0 0 -1 0 565.6142)">
		<stop  offset="0" style="stop-color:#FFDB73"/>
		<stop  offset="0.3735" style="stop-color:#FDF5DB"/>
		<stop  offset="1" style="stop-color:#FFDB73"/>
	</linearGradient>
	<polygon class="st10" points="364,98.5 402.9,85.7 356.9,149 	"/>
	<polygon class="st11" points="379.3,52.3 379,52.8 378.4,52.9 401.5,84.6 330.6,61.6 329.4,61.8 330.2,62.6 401.3,85.8 363.6,98.2 
		364,98.5 363.9,99.1 401.6,86.7 357,148 356.9,149 358,148.4 402.4,87.2 402.1,126.9 402.6,126.7 403.2,126.9 403.3,87.3 
		447.4,148.5 448.4,149 448.3,147.7 404.3,86.8 441.6,99.2 441.5,98.7 441.9,98.3 404.6,85.8 475.8,63 476.4,62.4 475.6,62.2 
		404.3,84.8 427.4,53.1 426.8,53 426.6,52.5 403.5,84 403.2,9.9 402.6,8.9 402.1,9.8 402.4,84 	"/>
</g>
</svg>
