<?xml version="1.0" encoding="utf-8"?>
<!-- Generator: Adobe Illustrator 25.0.0, SVG Export Plug-In . SVG Version: 6.00 Build 0)  -->
<svg version="1.1" id="Layer_1" xmlns="http://www.w3.org/2000/svg" xmlns:xlink="http://www.w3.org/1999/xlink" x="0px" y="0px"
	 viewBox="0 0 866.9 625.2" style="enable-background:new 0 0 866.9 625.2;" xml:space="preserve">
<style type="text/css">
	.st0{fill:none;stroke:#000000;stroke-width:5;stroke-miterlimit:10;}
	.st1{fill:none;stroke:#000000;stroke-miterlimit:10;}
	.st2{font-family:'SharpSansNo1-Medium';}
	.st3{font-size:21px;}
	.st4{fill:#CCCCCC;stroke:#000000;stroke-width:0.5;stroke-miterlimit:10;}
	.st5{fill:#6A8DBB;stroke:#000000;stroke-width:0.5;stroke-miterlimit:10;}
	.st6{fill:#1F6FA7;stroke:#000000;stroke-width:0.5;stroke-miterlimit:10;}
	.st7{font-family:'SharpSansNo1-Bold';}
	.st8{font-size:36px;}
</style>
<g>
	<g>
		<line class="st0" x1="54.4" y1="531.7" x2="810.9" y2="531.7"/>
		<g>
			<g>
				<line class="st1" x1="57.4" y1="531.7" x2="57.4" y2="520"/>
				<line class="st1" x1="810.9" y1="531.7" x2="810.9" y2="520"/>
			</g>
			<g>
			</g>
		</g>
	</g>
	<g>
		<g>
			<text transform="matrix(1.815 0 0 1 22.4116 539.498)" class="st2 st3">0</text>
			<text transform="matrix(1.815 0 0 1 22.4116 445.9473)" class="st2 st3">5</text>
			<text transform="matrix(1.815 0 0 1 0 352.3975)" class="st2 st3">10</text>
			<text transform="matrix(1.815 0 0 1 0 258.8477)" class="st2 st3">15</text>
			<text transform="matrix(1.815 0 0 1 0 165.2979)" class="st2 st3">20</text>
			<text transform="matrix(1.815 0 0 1 0 71.7476)" class="st2 st3">25</text>
		</g>
		<line class="st1" x1="57.4" y1="531.7" x2="57.4" y2="63.9"/>
		<g>
			<g>
				<line class="st1" x1="57.4" y1="531.7" x2="77.6" y2="531.7"/>
				<line class="st1" x1="57.4" y1="438.1" x2="77.6" y2="438.1"/>
				<line class="st1" x1="57.4" y1="344.6" x2="77.6" y2="344.6"/>
				<line class="st1" x1="57.4" y1="251" x2="77.6" y2="251"/>
				<line class="st1" x1="57.4" y1="157.5" x2="77.6" y2="157.5"/>
				<line class="st1" x1="57.4" y1="63.9" x2="77.6" y2="63.9"/>
			</g>
			<g>
			</g>
		</g>
	</g>
	<g>
		<g>
			<g>
				<rect x="578.9" y="307.2" class="st4" width="193.5" height="224.5"/>
			</g>
		</g>
		<g>
			<g>
				<rect x="363.9" y="288.5" class="st5" width="193.5" height="243.2"/>
			</g>
		</g>
		<g>
			<g>
				<rect x="148.8" y="194.9" class="st6" width="193.5" height="336.8"/>
			</g>
		</g>
	</g>
	<g>
		<g>
		</g>
		<g>
		</g>
		<g>
		</g>
	</g>
</g>
<text transform="matrix(1 0 0 1 139.7514 573.5566)" class="st7 st8">Förskolechef</text>
<text transform="matrix(1 0 0 1 218.4477 182.9483)" class="st7 st8">18%</text>
<text transform="matrix(1 0 0 1 426.2603 273.5733)" class="st7 st8">13%</text>
<text transform="matrix(1 0 0 1 652.3188 297.9619)" class="st7 st8">12%</text>
<text transform="matrix(1 0 0 1 368.832 572.4727)" class="st7 st8">Barnskötare</text>
<text transform="matrix(1 0 0 1 587.3833 572.4727)"><tspan x="0" y="0" class="st7 st8">Hela arbets-</tspan><tspan x="0" y="43.2" class="st7 st8">marknaden</tspan></text>
<line class="st0" x1="57.4" y1="531.7" x2="810.9" y2="531.7"/>
</svg>
