<?xml version="1.0" encoding="utf-8"?>
<!-- Generator: Adobe Illustrator 23.0.2, SVG Export Plug-In . SVG Version: 6.00 Build 0)  -->
<svg version="1.1" id="Layer_1" xmlns="http://www.w3.org/2000/svg" xmlns:xlink="http://www.w3.org/1999/xlink" x="0px" y="0px"
	 viewBox="0 0 490.1 606.6" style="enable-background:new 0 0 490.1 606.6;" xml:space="preserve">
<style type="text/css">
	.st0{fill:url(#SVGID_1_);}
	.st1{fill:url(#SVGID_2_);}
	.st2{fill:url(#SVGID_3_);}
	.st3{fill:url(#SVGID_4_);}
	.st4{fill:url(#SVGID_5_);}
	.st5{fill:url(#SVGID_6_);}
	.st6{fill:url(#SVGID_7_);}
	.st7{fill:url(#SVGID_8_);}
	.st8{fill:url(#SVGID_9_);}
	.st9{fill:url(#SVGID_10_);}
	.st10{fill:url(#SVGID_11_);}
	.st11{fill:url(#SVGID_12_);}
	.st12{fill:url(#SVGID_13_);}
	.st13{fill:url(#SVGID_14_);}
	.st14{fill:url(#SVGID_15_);}
	.st15{fill:url(#SVGID_16_);}
	.st16{fill:url(#SVGID_17_);}
	.st17{fill:url(#SVGID_18_);}
	.st18{enable-background:new    ;}
	.st19{clip-path:url(#SVGID_20_);enable-background:new    ;}
	.st20{fill:#DFE0E0;}
	.st21{fill:#DEDFE0;}
	.st22{fill:#DEDFDF;}
	.st23{fill:#DDDEDF;}
	.st24{fill:#DDDEDE;}
	.st25{fill:#DFE0E1;}
	.st26{fill:#E0E1E1;}
	.st27{fill:#E0E1E2;}
	.st28{fill:#E1E2E2;}
	.st29{fill:#E1E3E3;}
	.st30{fill:#E2E3E3;}
	.st31{fill:#E3E4E4;}
	.st32{fill:#E4E5E5;}
	.st33{fill:#E5E6E6;}
	.st34{fill:#EAEAEA;}
	.st35{fill:#EBECEC;}
	.st36{fill:#EDEEEE;}
	.st37{fill:#EEEFEF;}
	.st38{fill:#EFF0F0;}
	.st39{fill:#F0F1F1;}
	.st40{fill:#F1F2F2;}
	.st41{fill:#F2F2F2;}
	.st42{fill:#F3F3F3;}
	.st43{fill:#F3F4F4;}
	.st44{fill:#F4F5F5;}
	.st45{fill:#F5F5F5;}
	.st46{fill:#F5F6F6;}
	.st47{fill:#F6F6F6;}
	.st48{fill:#F7F7F7;}
	.st49{fill:#F7F8F8;}
	.st50{fill:#F8F8F8;}
	.st51{fill:#F8F9F9;}
	.st52{fill:#F9F9F9;}
	.st53{clip-path:url(#SVGID_22_);enable-background:new    ;}
	.st54{fill:url(#SVGID_23_);}
	.st55{fill:url(#SVGID_24_);}
	.st56{fill:url(#SVGID_25_);}
	.st57{fill:url(#SVGID_26_);}
	.st58{fill:url(#SVGID_27_);}
	.st59{fill:url(#SVGID_28_);}
	.st60{fill:url(#SVGID_29_);}
	.st61{fill:url(#SVGID_30_);}
	.st62{fill:url(#SVGID_31_);}
	.st63{fill:url(#SVGID_32_);}
	.st64{fill:url(#SVGID_33_);}
	.st65{fill:url(#SVGID_34_);}
	.st66{fill:url(#SVGID_35_);}
	.st67{fill:url(#SVGID_36_);}
	.st68{fill:url(#SVGID_37_);}
	.st69{fill:url(#SVGID_38_);}
	.st70{fill:url(#SVGID_39_);}
	.st71{fill:url(#SVGID_40_);}
	.st72{fill:url(#SVGID_41_);}
	.st73{fill:url(#SVGID_42_);}
	.st74{fill:url(#SVGID_43_);}
	.st75{fill:url(#SVGID_44_);}
	.st76{fill:url(#SVGID_45_);}
	.st77{fill:url(#SVGID_46_);}
	.st78{fill:url(#SVGID_47_);}
	.st79{fill:url(#SVGID_48_);}
	.st80{fill:url(#SVGID_49_);}
	.st81{fill:url(#SVGID_50_);}
	.st82{fill:url(#SVGID_51_);}
	.st83{fill:url(#SVGID_52_);}
	.st84{fill:url(#SVGID_53_);}
	.st85{fill:url(#SVGID_54_);}
	.st86{fill:url(#SVGID_55_);}
	.st87{fill:url(#SVGID_56_);}
	.st88{fill:url(#SVGID_57_);}
	.st89{fill:url(#SVGID_58_);}
	.st90{fill:url(#SVGID_59_);}
	.st91{fill:url(#SVGID_60_);}
	.st92{fill:url(#SVGID_61_);}
	.st93{fill:url(#SVGID_62_);}
	.st94{fill:url(#SVGID_63_);}
	.st95{fill:url(#SVGID_64_);}
	.st96{fill:url(#SVGID_65_);}
	.st97{fill:url(#SVGID_66_);}
	.st98{fill:url(#SVGID_67_);}
	.st99{fill:url(#SVGID_68_);}
	.st100{fill:url(#SVGID_69_);}
	.st101{fill:url(#SVGID_70_);}
	.st102{fill:url(#SVGID_71_);}
	.st103{fill:url(#SVGID_72_);}
	.st104{fill:url(#SVGID_73_);}
	.st105{fill:url(#SVGID_74_);}
</style>
<g id="Vrstva_1">
	<g>
		
			<linearGradient id="SVGID_1_" gradientUnits="userSpaceOnUse" x1="-15.4423" y1="234.7458" x2="8.1614" y2="234.7458" gradientTransform="matrix(-1 0 0 -1 385.4035 321.798)">
			<stop  offset="0" style="stop-color:#F2F2F2"/>
			<stop  offset="1" style="stop-color:#FFFFFF"/>
		</linearGradient>
		<polygon class="st0" points="378,79.7 381.9,82 381.5,77.9 382.9,78.1 383,82.8 388.4,86 388.3,79.6 384.4,77.2 384.9,75.9 
			388.3,78.2 388.2,73.7 389.7,73.7 389.7,78.2 393.1,75.9 393.5,77.2 389.7,79.6 389.7,86 395,82.8 395.2,78.1 396.5,77.9 
			396.3,82 400.1,79.7 400.8,81 396.9,83.3 400.6,85.1 399.8,86.1 395.7,83.9 390.2,87.1 395.7,90.1 399.8,88 400.6,89 396.9,90.9 
			400.8,93.1 400.1,94.4 396.3,92 396.5,96.2 395.2,95.9 395,91.3 389.7,88.1 389.7,94.4 393.5,97 393.1,98.2 389.7,95.8 
			389.7,100.4 388.2,100.4 388.3,95.8 384.9,98.2 384.4,97 388.3,94.4 388.4,88.1 383,91.3 382.9,95.9 381.5,96.2 381.9,92 
			378,94.4 377.2,93.1 381.2,90.9 377.5,89 378.3,88 382.4,90.1 387.8,87.1 382.4,83.9 378.3,86.1 377.5,85.1 381.2,83.3 377.2,81 
					"/>
		
			<linearGradient id="SVGID_2_" gradientUnits="userSpaceOnUse" x1="-15.4423" y1="193.9918" x2="8.1614" y2="193.9918" gradientTransform="matrix(-1 0 0 -1 385.4035 321.798)">
			<stop  offset="0" style="stop-color:#F2F2F2"/>
			<stop  offset="1" style="stop-color:#FFFFFF"/>
		</linearGradient>
		<polygon class="st1" points="378,120.5 381.9,122.8 381.5,118.7 382.9,118.9 383,123.6 388.4,126.7 388.3,120.4 384.4,117.8 
			384.9,116.7 388.3,119 388.2,114.5 389.7,114.5 389.7,119 393.1,116.7 393.5,117.8 389.7,120.4 389.7,126.7 395,123.6 
			395.2,118.9 396.5,118.7 396.3,122.8 400.1,120.5 400.8,121.7 396.9,124 400.6,125.9 399.8,126.8 395.7,124.6 390.2,127.8 
			395.7,130.9 399.8,128.9 400.6,129.8 396.9,131.6 400.8,133.8 400.1,135.1 396.3,132.8 396.5,137 395.2,136.7 395,132.1 
			389.7,128.9 389.7,135.1 393.5,137.7 393.1,138.9 389.7,136.6 389.7,141.2 388.2,141.2 388.3,136.6 384.9,138.9 384.4,137.7 
			388.3,135.1 388.4,128.9 383,132.1 382.9,136.7 381.5,137 381.9,132.8 378,135.1 377.2,133.8 381.2,131.6 377.5,129.8 
			378.3,128.9 382.4,130.9 387.8,127.8 382.4,124.6 378.3,126.8 377.5,125.9 381.2,124 377.2,121.7 		"/>
		
			<linearGradient id="SVGID_3_" gradientUnits="userSpaceOnUse" x1="-44.6541" y1="256.4046" x2="-21.0504" y2="256.4046" gradientTransform="matrix(-1 0 0 -1 385.4035 321.798)">
			<stop  offset="0" style="stop-color:#F2F2F2"/>
			<stop  offset="1" style="stop-color:#FFFFFF"/>
		</linearGradient>
		<polygon class="st2" points="407.2,58.1 411.1,60.4 410.8,56.3 412.1,56.6 412.3,61.2 417.7,64.3 417.6,58 413.7,55.5 414.1,54.3 
			417.6,56.6 417.5,52 419,52 418.9,56.6 422.4,54.3 422.8,55.5 418.9,58 418.8,64.3 424.2,61.2 424.5,56.6 425.7,56.3 425.5,60.4 
			429.4,58.1 430.1,59.4 426.2,61.6 429.9,63.4 429.1,64.4 424.9,62.3 419.4,65.4 424.9,68.5 429.1,66.5 429.9,67.4 426.2,69.2 
			430.1,71.4 429.4,72.7 425.5,70.4 425.7,74.6 424.5,74.3 424.2,69.7 418.8,66.5 418.9,72.8 422.8,75.3 422.4,76.5 418.9,74.2 
			419,78.7 417.5,78.7 417.6,74.2 414.1,76.5 413.7,75.3 417.6,72.8 417.7,66.5 412.3,69.7 412.1,74.3 410.8,74.6 411.1,70.4 
			407.2,72.7 406.5,71.4 410.3,69.2 406.7,67.4 407.5,66.5 411.7,68.5 417.1,65.4 411.7,62.3 407.5,64.4 406.7,63.4 410.3,61.6 
			406.5,59.4 		"/>
		
			<linearGradient id="SVGID_4_" gradientUnits="userSpaceOnUse" x1="-44.6541" y1="215.5623" x2="-21.0504" y2="215.5623" gradientTransform="matrix(-1 0 0 -1 385.4035 321.798)">
			<stop  offset="0" style="stop-color:#F2F2F2"/>
			<stop  offset="1" style="stop-color:#FFFFFF"/>
		</linearGradient>
		<polygon class="st3" points="407.2,98.9 411.1,101.2 410.8,97 412.1,97.2 412.3,101.9 417.7,105.2 417.6,98.8 413.7,96.3 
			414.1,95.1 417.6,97.4 417.5,92.9 419,92.9 418.9,97.4 422.4,95.1 422.8,96.3 418.9,98.8 418.8,105.2 424.2,101.9 424.5,97.2 
			425.7,97 425.5,101.2 429.4,98.9 430.1,100.1 426.2,102.4 429.9,104.2 429.1,105.2 424.9,103.1 419.4,106.2 424.9,109.2 
			429.1,107.2 429.9,108.2 426.2,110 430.1,112.2 429.4,113.6 425.5,111.2 425.7,115.4 424.5,115.1 424.2,110.5 418.8,107.3 
			418.9,113.6 422.8,116.1 422.4,117.4 418.9,115 419,119.6 417.5,119.6 417.6,115 414.1,117.4 413.7,116.1 417.6,113.6 
			417.7,107.3 412.3,110.5 412.1,115.1 410.8,115.4 411.1,111.2 407.2,113.6 406.5,112.2 410.3,110 406.7,108.2 407.5,107.2 
			411.7,109.2 417.1,106.2 411.7,103.1 407.5,105.2 406.7,104.2 410.3,102.4 406.5,100.1 		"/>
		
			<linearGradient id="SVGID_5_" gradientUnits="userSpaceOnUse" x1="-44.6541" y1="174.8083" x2="-21.0504" y2="174.8083" gradientTransform="matrix(-1 0 0 -1 385.4035 321.798)">
			<stop  offset="0" style="stop-color:#F2F2F2"/>
			<stop  offset="1" style="stop-color:#FFFFFF"/>
		</linearGradient>
		<polygon class="st4" points="407.2,139.7 411.1,142 410.8,137.8 412.1,138 412.3,142.7 417.7,145.9 417.6,139.6 413.7,137 
			414.1,135.9 417.6,138.1 417.5,133.6 419,133.6 418.9,138.1 422.4,135.9 422.8,137 418.9,139.6 418.8,145.9 424.2,142.7 
			424.5,138 425.7,137.8 425.5,142 429.4,139.7 430.1,140.9 426.2,143.2 429.9,145 429.1,146 424.9,143.8 419.4,147 424.9,150.1 
			429.1,148.1 429.9,148.9 426.2,150.8 430.1,153 429.4,154.2 425.5,151.9 425.7,156.2 424.5,155.9 424.2,151.2 418.8,148.1 
			418.9,154.3 422.8,156.9 422.4,158.1 418.9,155.7 419,160.3 417.5,160.3 417.6,155.7 414.1,158.1 413.7,156.9 417.6,154.3 
			417.7,148.1 412.3,151.2 412.1,155.9 410.8,156.2 411.1,151.9 407.2,154.2 406.5,153 410.3,150.8 406.7,148.9 407.5,148.1 
			411.7,150.1 417.1,147 411.7,143.8 407.5,146 406.7,145 410.3,143.2 406.5,140.9 		"/>
		
			<linearGradient id="SVGID_6_" gradientUnits="userSpaceOnUse" x1="-78.6894" y1="234.7458" x2="-55.0814" y2="234.7458" gradientTransform="matrix(-1 0 0 -1 385.4035 321.798)">
			<stop  offset="0" style="stop-color:#F2F2F2"/>
			<stop  offset="1" style="stop-color:#FFFFFF"/>
		</linearGradient>
		<polygon class="st5" points="441.2,79.7 445.1,82 444.7,77.9 446.1,78.1 446.2,82.8 451.7,86 451.6,79.6 447.7,77.2 448.2,75.9 
			451.5,78.2 451.5,73.7 453,73.7 453,78.2 456.3,75.9 456.8,77.2 452.9,79.6 452.9,86 458.3,82.8 458.5,78.1 459.8,77.9 459.5,82 
			463.3,79.7 464.1,81 460.1,83.3 463.9,85.1 463,86.1 458.9,83.9 453.5,87.1 458.9,90.1 463,88 463.9,89 460.1,90.9 464.1,93.1 
			463.3,94.4 459.5,92 459.8,96.2 458.5,95.9 458.3,91.3 452.9,88.1 452.9,94.4 456.8,97 456.3,98.2 453,95.8 453,100.4 
			451.5,100.4 451.5,95.8 448.2,98.2 447.7,97 451.6,94.4 451.7,88.1 446.2,91.3 446.1,95.9 444.7,96.2 445.1,92 441.2,94.4 
			440.4,93.1 444.4,90.9 440.7,89 441.5,88 445.6,90.1 451,87.1 445.6,83.9 441.5,86.1 440.7,85.1 444.4,83.3 440.4,81 		"/>
		
			<linearGradient id="SVGID_7_" gradientUnits="userSpaceOnUse" x1="-78.6894" y1="193.9918" x2="-55.0814" y2="193.9918" gradientTransform="matrix(-1 0 0 -1 385.4035 321.798)">
			<stop  offset="0" style="stop-color:#F2F2F2"/>
			<stop  offset="1" style="stop-color:#FFFFFF"/>
		</linearGradient>
		<polygon class="st6" points="441.2,120.5 445.1,122.8 444.7,118.7 446.1,118.9 446.2,123.6 451.7,126.7 451.6,120.4 447.7,117.8 
			448.2,116.7 451.5,119 451.5,114.5 453,114.5 453,119 456.3,116.7 456.8,117.8 452.9,120.4 452.9,126.7 458.3,123.6 458.5,118.9 
			459.8,118.7 459.5,122.8 463.3,120.5 464.1,121.7 460.1,124 463.9,125.9 463,126.8 458.9,124.6 453.5,127.8 458.9,130.9 
			463,128.9 463.9,129.8 460.1,131.6 464.1,133.8 463.3,135.1 459.5,132.8 459.8,137 458.5,136.7 458.3,132.1 452.9,128.9 
			452.9,135.1 456.8,137.7 456.3,138.9 453,136.6 453,141.2 451.5,141.2 451.5,136.6 448.2,138.9 447.7,137.7 451.6,135.1 
			451.7,128.9 446.2,132.1 446.1,136.7 444.7,137 445.1,132.8 441.2,135.1 440.4,133.8 444.4,131.6 440.7,129.8 441.5,128.9 
			445.6,130.9 451,127.8 445.6,124.6 441.5,126.8 440.7,125.9 444.4,124 440.4,121.7 		"/>
	</g>
	<g>
		<g>
			
				<linearGradient id="SVGID_8_" gradientUnits="userSpaceOnUse" x1="-49.2016" y1="290.4842" x2="-35.6403" y2="290.4842" gradientTransform="matrix(-1 0 0 -1 385.4035 321.798)">
				<stop  offset="0" style="stop-color:#F2F2F2"/>
				<stop  offset="1" style="stop-color:#CCCCCC"/>
			</linearGradient>
			<path class="st7" d="M421.7,31.6c0.1-0.3,0.1-0.4,0.2-0.6c0,0.2,0.1,0.3,0.1,0.5C421.9,31.5,421.8,31.5,421.7,31.6z"/>
			
				<linearGradient id="SVGID_9_" gradientUnits="userSpaceOnUse" x1="-35.6369" y1="284.1633" x2="-35.6369" y2="284.1633" gradientTransform="matrix(-1 0 0 -1 385.4035 321.798)">
				<stop  offset="0" style="stop-color:#F2F2F2"/>
				<stop  offset="1" style="stop-color:#CCCCCC"/>
			</linearGradient>
			<path class="st8" d="M421,38c0-0.4,0-0.9,0-1.2c0,0.5,0,1.1,0,1.8C421,38.3,421,38.3,421,38z"/>
			
				<linearGradient id="SVGID_10_" gradientUnits="userSpaceOnUse" x1="-48.8138" y1="285.8626" x2="-35.642" y2="285.8626" gradientTransform="matrix(-1 0 0 -1 385.4035 321.798)">
				<stop  offset="0" style="stop-color:#F2F2F2"/>
				<stop  offset="1" style="stop-color:#CCCCCC"/>
			</linearGradient>
			<path class="st9" d="M421,35.2C421.1,35.2,421.1,35.2,421,35.2c0,0.4,0,0.9,0,1.4C421,36.2,421,35.7,421,35.2z"/>
			
				<linearGradient id="SVGID_11_" gradientUnits="userSpaceOnUse" x1="-49.1892" y1="286.4618" x2="-35.6411" y2="286.4618" gradientTransform="matrix(-1 0 0 -1 385.4035 321.798)">
				<stop  offset="0" style="stop-color:#F2F2F2"/>
				<stop  offset="1" style="stop-color:#CCCCCC"/>
			</linearGradient>
			<path class="st10" d="M421.7,36.9c-0.3-0.8-0.4-1.5-0.5-2.2c0.1-0.3,0.1-0.7,0.2-1c0.2,0.7,0.4,1.3,0.7,2.1
				C421.9,36.3,421.7,36.6,421.7,36.9z"/>
			
				<linearGradient id="SVGID_12_" gradientUnits="userSpaceOnUse" x1="-35.6369" y1="267.8529" x2="-35.6369" y2="267.8529" gradientTransform="matrix(-1 0 0 -1 385.4035 321.798)">
				<stop  offset="0" style="stop-color:#F2F2F2"/>
				<stop  offset="1" style="stop-color:#CCCCCC"/>
			</linearGradient>
			<path class="st11" d="M421,54.3L421,54.3c0-0.3,0-0.6,0-0.8C421,53.8,421,54.2,421,54.3z"/>
			
				<linearGradient id="SVGID_13_" gradientUnits="userSpaceOnUse" x1="-48.3733" y1="259.8966" x2="-35.6233" y2="259.8966" gradientTransform="matrix(-1 0 0 -1 385.4035 321.798)">
				<stop  offset="0" style="stop-color:#F2F2F2"/>
				<stop  offset="1" style="stop-color:#CCCCCC"/>
			</linearGradient>
			<path class="st12" d="M421.2,50.3c0-0.6,0.1-0.9,0.1-1.5c0.3,1.2,0.5,1.9,1.1,3.3c0-2.5,0-3.7,0-6.2c0.3,0,0.4,0,0.7,0
				c0,2.6,0,3.8,0,6.4c0.7-1.2,1.2-1.8,2.1-3.1c0.2,0.7,0.3,1.1,0.4,1.8c-1.2,1.4-1.7,2.1-2.6,3.3c0,3.6,0.1,5.3,0.2,8.8
				c1.1-1.2,1.9-1.9,3.7-3.5c0-2.7,0-4.2,0.1-7c0.4-0.1,0.7-0.2,1.2-0.3c-0.1,2.6-0.1,3.8-0.2,6.4c1.4-1.2,2.2-1.8,4-3.1
				c0.4,0.8,0.5,1.2,0.9,2.1c-1.8,1.2-2.7,1.9-4.2,3c1.5,1.3,2.3,2.1,4.1,3.5c-0.4,0.5-0.5,0.8-0.9,1.3c-1.9-1.7-2.8-2.5-4.4-4.1
				c-1.9,1.5-2.7,2.1-4.1,3.2c1.3,2.3,2.2,3.6,4.3,6c1.5-0.7,2.3-1.1,4.2-2c0.4,0.7,0.6,1,1.1,1.7c-1.7,0.7-2.5,1.1-4,1.8
				c1.7,1.8,2.6,2.7,4.5,4.4c-0.3,0.7-0.4,1-0.6,1.5c-2.1-1.7-3-2.7-4.5-4.4c0.2,1.4,0.3,2.4,0.6,3.4c-0.5-0.9-1.1-1.9-1.6-2.7
				c-0.1-0.6-0.2-1.2-0.3-2c-0.9-1.1-1.5-1.9-2.1-2.7c-1.1-2.6-2-5.1-2.7-7.9c-0.1-2.7-0.1-4.4-0.2-7.4
				C421.7,52.4,421.5,51.6,421.2,50.3z"/>
			
				<linearGradient id="SVGID_14_" gradientUnits="userSpaceOnUse" x1="-48.3938" y1="263.3443" x2="-35.622" y2="263.3443" gradientTransform="matrix(-1 0 0 -1 385.4035 321.798)">
				<stop  offset="0" style="stop-color:#F2F2F2"/>
				<stop  offset="1" style="stop-color:#CCCCCC"/>
			</linearGradient>
			<path class="st13" d="M421.8,58.8c-0.1-0.3-0.1-0.4-0.2-0.6c0.1,0.1,0.2,0.1,0.3,0.2C421.9,58.4,421.9,58.6,421.8,58.8z"/>
			
				<linearGradient id="SVGID_15_" gradientUnits="userSpaceOnUse" x1="-35.6369" y1="269.5768" x2="-35.6369" y2="269.5768" gradientTransform="matrix(-1 0 0 -1 385.4035 321.798)">
				<stop  offset="0" style="stop-color:#F2F2F2"/>
				<stop  offset="1" style="stop-color:#CCCCCC"/>
			</linearGradient>
			<path class="st14" d="M421,50.9c0,1.1,0,1.8,0,2.7c0-0.7,0-1.3,0-2.2C421,51.2,421,51.1,421,50.9z"/>
			
				<linearGradient id="SVGID_16_" gradientUnits="userSpaceOnUse" x1="-48.371" y1="267.5876" x2="-35.6235" y2="267.5876" gradientTransform="matrix(-1 0 0 -1 385.4035 321.798)">
				<stop  offset="0" style="stop-color:#F2F2F2"/>
				<stop  offset="1" style="stop-color:#CCCCCC"/>
			</linearGradient>
			<path class="st15" d="M422.1,53.8c-0.4,0.8-0.7,1.3-0.8,2c-0.1-0.3-0.2-0.7-0.2-1c0.1-0.7,0.3-1.4,0.7-2.3
				C421.9,53.1,421.9,53.3,422.1,53.8z"/>
			
				<linearGradient id="SVGID_17_" gradientUnits="userSpaceOnUse" x1="-94.5651" y1="223.2534" x2="-58.4538" y2="223.2534" gradientTransform="matrix(-1 0 0 -1 385.4035 321.798)">
				<stop  offset="0" style="stop-color:#F2F2F2"/>
				<stop  offset="1" style="stop-color:#CCCCCC"/>
			</linearGradient>
			<path class="st16" d="M452.3,97.2c0.2-0.4,0.3-0.7,0.3-1.2c2.2,1.5,3.6,1.9,6,3c-0.4-1.9-0.7-3-1.1-5.1c1,0.1,1.5,0.1,2.5,0.2
				c0.3,2.2,0.4,3.3,0.8,5.1c2-0.8,3.1-1.3,5.2-2.2c0.4,0.5,0.6,0.8,1,1.3c-2.5,1-3.6,1.5-5.9,2.4c0.3,1.1,0.4,1.9,0.6,2.6
				c-0.7-0.3-1.4-0.5-2.1-0.8c-0.2-0.5-0.3-1.1-0.5-1.9C456.2,99.3,454.8,98.9,452.3,97.2z"/>
			
				<linearGradient id="SVGID_18_" gradientUnits="userSpaceOnUse" x1="-94.5647" y1="219.0984" x2="-58.4541" y2="219.0984" gradientTransform="matrix(-1 0 0 -1 385.4035 321.798)">
				<stop  offset="0" style="stop-color:#F2F2F2"/>
				<stop  offset="1" style="stop-color:#CCCCCC"/>
			</linearGradient>
			<path class="st17" d="M469.9,99.3c0.8-0.1,1.2-0.1,2.1-0.2c0,1.7,0,2.6,0,4c2.4-0.7,3.6-1.1,6.1-2c0.5,0.5,0.8,0.7,1.3,1.2
				c-2.6,0.8-3.8,1.1-6.2,1.8c2.5,0.6,3.6,0.9,6,1.4c-0.5,0.3-0.7,0.4-1.2,0.7c-2.7-0.6-4-0.9-6.7-1.6c-0.8,0.3-1.6,0.4-2.2,0.6
				c-0.7-0.2-1.6-0.4-2.3-0.5c1-0.3,2-0.6,3.4-1C470.1,102.2,470,101.3,469.9,99.3z"/>
		</g>
	</g>
	<g>
		<g class="st18">
			<g class="st18">
				<g>
					<g>
						<g>
							<defs>
								<path id="SVGID_19_" d="M355.1,110.2c0-1.7,0.1-3.9,0.3-5.5c0.3-1.5,0.4-3.5,0.7-5c0.3-1.7,0.7-3.7,1.1-5.3
									c0.4-1.4,1-3.3,1.4-4.7c0.5-1.6,1.4-3.5,2-5c0.6-1.6,1.7-3.5,2.6-5c1.4-2.5,3.6-5.5,5.2-7.9c1.1-1.4,2.6-3.1,3.7-4.4
									c1-1,2.2-2.3,3.2-3.2c1.4-1.2,3.4-2.9,5-4.1c2.3-1.8,4.6-3.1,7.1-4.5c1.9-1.1,4.5-2.3,6.5-3.1c1.2-0.5,3.1-1.2,4.4-1.6
									c1.3-0.4,3.2-1,4.5-1.2c1.2-0.3,3.1-0.7,4.3-0.9c1.3-0.3,2.5-0.4,3.6-0.5c1-0.2,3.6-0.4,7.2-0.4c4.2,0,7.4,0.5,8.7,0.7
									c1.4,0.3,3,0.5,3.7,0.7c1.2,0.3,2.9,0.7,4.2,1.1c0.7,0.3,3.5,1,7.4,2.7c1.9,0.8,4.5,2.1,6.5,3.1
									c15.2,8.7,25.3,25.7,25.2,46.7c-0.1,33.2-25.2,63.3-56.1,67.5c30.9-4.2,56-34.4,56.1-67.5c0.1-21-10-38.1-25.2-46.7
									c1.5,0.9,3.4,2,4.9,3.1c1.1,0.7,2.5,1.8,3.4,2.6c1.2,1.1,2.9,2.4,4.1,3.6c1,1,2.3,2.2,3.2,3.3c1.1,1.2,2.5,2.8,3.4,4.1
									c3.1,4,5,7.4,5.4,8.4c1,1.9,2.5,4.8,4.1,9.3c1,2.8,1.9,6.6,2.4,9.5c0.3,1.7,0.5,3.8,0.7,5.5c0.2,1.5,0.2,3.6,0.3,5
									c0.1,1.9-0.1,4.3-0.3,6.2c-0.2,1.5-0.4,3.5-0.7,5c-0.3,1.6-0.7,3.7-1.2,5.3c-0.4,1.4-1,3.3-1.5,4.6c-0.5,1.5-1.4,3.5-2.1,5
									c-0.5,1.3-1.5,3-2.1,4.2c-0.8,1.4-2,3.3-2.9,4.7c-1,1.5-2.4,3.4-3.6,4.7c-1.8,2.1-4.2,4.8-6.4,6.5c-1.4,1.2-3.4,2.9-5,4.1
									c-1,0.7-2.4,1.7-3.5,2.4c0,0-3.9,2.4-7,3.8c-2.5,1.1-5,2.2-9.3,3.4c-9.1,2.6-18.5,3.1-27.8,1.4c-6.8-1.2-11.8-3.3-13.5-4.1
									c-5.7-2.4-10.5-5.7-11.9-6.7c-1.3-1-3.1-2.3-4.3-3.4c-1-0.9-2.4-2.1-3.4-3.1c-1.1-1.1-2.7-2.7-3.6-4c-1.9-2.1-4-5.2-5.5-7.6
									c-0.9-1.3-1.9-3.3-2.7-4.7c-0.7-1.4-1.7-3.4-2.1-4.9c-1-2.7-2.2-6.5-2.9-9.4c-0.6-2.7-1.1-6.2-1.3-8.8
									C355.1,113.8,355.1,111.6,355.1,110.2z"/>
							</defs>
							<clipPath id="SVGID_20_">
								<use xlink:href="#SVGID_19_"  style="overflow:visible;"/>
							</clipPath>
							<g class="st19">
								<path class="st20" d="M355.1,110.2c0.3,17.4,5.9,27.9,11.8,36.7c2.2,3.3,11,14.7,27.8,21.5c19.1,7.8,47.5,6.1,67.7-14.9
									c7.9-8.2,20.6-26.1,16.6-53.3c-1.2-8.7-6.8-30.2-30.9-44.3c15.2,8.7,25.3,25.7,25.2,46.7c-0.1,33.2-25.2,63.3-56.1,67.5
									c30.9-4.2,56-34.4,56.1-67.5c0.1-21-10-38.1-25.2-46.7c-4.5-2.4-15.1-8-30.3-8.1c-15.8-0.1-27.5,5.9-30.6,7.8
									c-10.9,6.4-17.9,13.3-24.2,24C358,88.1,354.8,100.1,355.1,110.2"/>
								<path class="st20" d="M473.5,102.7c-0.1,33.2-25.2,63.3-56.1,67.5c-0.1,0-0.2,0-0.3,0c-54.3,2.7-75-55.9-50.9-83.4
									c26.2-30,81.6-5,84.6,38.2c2.3,33.1-21.8,41.3-33.6,45.2C448.3,166,473.5,135.9,473.5,102.7c0.1-21-10-38.1-25.2-46.7
									c-1-0.5-2.2-1.2-3.2-1.7c-1.4-0.7-3.4-1.6-4.9-2.1l-2.7-1c-0.9-0.3-2.1-0.7-3.1-1l-2.1-0.6c-0.7-0.2-1.6-0.4-2.2-0.5
									l-1.8-0.4c-0.5-0.1-1.2-0.3-1.8-0.3l-1.6-0.3c-0.4-0.1-1.1-0.2-1.6-0.2l-1.4-0.2c-0.4,0-1-0.1-1.4-0.1l-1.3-0.1
									c-0.4,0-1,0-1.3,0h-1.3c-0.4,0-1,0-1.3,0l-1.4,0.1c-0.4,0-1.1,0.1-1.5,0.1l-1.6,0.2c-0.5,0.1-1.1,0.2-1.7,0.3l-2,0.3
									c-5.9,1.1-8.8,2-13.3,3.8l-3.2,1.4c-4.2,2.1-4.4,2.3-6.9,3.8l-3.5,2.4c-1.5,1.2-3.5,2.7-5,4.1l-3.2,3.2
									c-1.1,1.2-2.7,3-3.7,4.4l-2.7,3.8c-0.9,1.4-2.1,3.3-2.8,4.7l-2.1,4.2c-0.6,1.5-1.5,3.5-2,5l-1.4,4.7
									c-0.4,1.6-0.9,3.7-1.1,5.3l-0.7,5c-0.1,1.7-0.3,3.9-0.3,5.5l0.3,5c0.3,2.7,0.8,6.2,1.3,8.8l1.2,4.8c0.5,1.5,1.2,3.6,1.8,5
									l2,4.4c0.7,1.4,1.8,3.3,2.7,4.7l2.7,3.9c1.1,1.2,2.3,3.1,3.4,4.3l3.1,3.4c1.2,1.2,3,2.7,4.3,3.9l3.4,2.7
									c1.7,1.1,3.8,2.6,5.5,3.5l3.2,1.7c1.4,0.7,3.4,1.6,4.9,2.1l2.7,1c0.9,0.3,2.1,0.7,3.1,1l2.1,0.6c0.7,0.2,1.6,0.4,2.2,0.5
									l1.8,0.4c0.5,0.1,1.2,0.3,1.8,0.3l1.6,0.3c0.4,0.1,1.1,0.2,1.6,0.2l1.4,0.2c0.4,0,1,0.1,1.4,0.1l1.3,0.1c0.4,0,1,0,1.3,0
									h1.3c0.4,0,1,0,1.3,0l1.4-0.1c0.4,0,1.1-0.1,1.5-0.1l1.6-0.2c0.5-0.1,1.1-0.2,1.7-0.3l2-0.3c4.6-0.9,7.5-1.6,12.6-3.5
									l3.2-1.3c4.1-2,4.4-2.2,7-3.8l3.5-2.4c1.5-1.2,3.5-2.7,5-4.1l3.3-3.1c1.2-1.2,2.7-3,3.8-4.3l2.7-3.7
									c0.9-1.4,2.1-3.3,2.9-4.7l2.1-4.2c0.6-1.5,1.5-3.5,2.1-5l1.5-4.6c0.4-1.6,0.9-3.7,1.2-5.3l0.7-5c0.1-1.9,0.3-4.3,0.3-6.2
									l-0.3-5c-0.3-1.7-0.4-3.8-0.7-5.5l-1.1-4.9c-0.4-1.6-1.1-3.6-1.6-5.1l-1.8-4.5c-0.7-1.4-1.6-3.4-2.4-4.8l-2.3-4.3
									c-1-1.3-2.1-3.1-3.1-4.4l-3-3.6c-1.2-1.2-2.7-2.8-4-4.1l-3.3-2.8c-4.3-3.3-4.8-3.6-8.3-5.6
									C463.5,64.7,473.5,81.7,473.5,102.7"/>
								<path class="st20" d="M473.5,102.7c-0.1,27.5-17.4,53-40.9,63.2l0,0c-41.5,21.8-87-27.1-74.7-66.2
									c12-38.2,65.2-37.6,87.6,0.9c14.2,24.7,8.6,53.3-12.9,65.2C456.1,155.7,473.5,130.2,473.5,102.7c0.1-21-10-38.1-25.2-46.7
									c-1-0.5-2.2-1.2-3.2-1.7c-1.4-0.7-3.4-1.6-4.9-2.1l-2.7-1c-0.9-0.3-2.1-0.7-3.1-1l-2.1-0.6c-0.7-0.2-1.6-0.4-2.2-0.5
									l-1.8-0.4c-0.5-0.1-1.2-0.3-1.8-0.3l-1.6-0.3c-0.4-0.1-1.1-0.2-1.6-0.2l-1.4-0.2c-0.4,0-1-0.1-1.4-0.1l-1.3-0.1
									c-0.4,0-1,0-1.3,0h-1.3c-0.4,0-1,0-1.3,0l-1.4,0.1c-0.4,0-1.1,0.1-1.5,0.1l-1.6,0.2c-0.5,0.1-1.1,0.2-1.7,0.3l-2,0.3
									c-5.9,1.1-8.8,2-13.3,3.8l-3.2,1.4c-4.2,2.1-4.4,2.3-6.9,3.8l-3.5,2.4c-1.5,1.2-3.5,2.7-5,4.1l-3.2,3.2
									c-1.1,1.2-2.7,3-3.7,4.4l-2.7,3.8c-0.9,1.4-2.1,3.3-2.8,4.7l-2.1,4.2c-0.6,1.5-1.5,3.5-2,5l-1.4,4.7
									c-0.4,1.6-0.9,3.7-1.1,5.3l-0.7,5c-0.1,1.7-0.3,3.9-0.3,5.5l0.3,5c0.3,2.7,0.8,6.2,1.3,8.8l1.2,4.8c0.5,1.5,1.2,3.6,1.8,5
									l2,4.4c0.7,1.4,1.8,3.3,2.7,4.7l2.7,3.9c1.1,1.2,2.3,3.1,3.4,4.3l3.1,3.4c1.2,1.2,3,2.7,4.3,3.9l3.4,2.7
									c1.7,1.1,3.8,2.6,5.5,3.5l3.2,1.7c1.4,0.7,3.4,1.6,4.9,2.1l2.7,1c0.9,0.3,2.1,0.7,3.1,1l2.1,0.6c0.7,0.2,1.6,0.4,2.2,0.5
									l1.8,0.4c0.5,0.1,1.2,0.3,1.8,0.3l1.6,0.3c0.4,0.1,1.1,0.2,1.6,0.2l1.4,0.2c0.4,0,1,0.1,1.4,0.1l1.3,0.1c0.4,0,1,0,1.3,0
									h1.3c0.4,0,1,0,1.3,0l1.4-0.1c0.4,0,1.1-0.1,1.5-0.1l1.6-0.2c0.5-0.1,1.1-0.2,1.7-0.3l2-0.3c4.6-0.9,7.5-1.6,12.6-3.5
									l3.2-1.3c4.1-2,4.4-2.2,7-3.8l3.5-2.4c1.5-1.2,3.5-2.7,5-4.1l3.3-3.1c1.2-1.2,2.7-3,3.8-4.3l2.7-3.7
									c0.9-1.4,2.1-3.3,2.9-4.7l2.1-4.2c0.6-1.5,1.5-3.5,2.1-5l1.5-4.6c0.4-1.6,0.9-3.7,1.2-5.3l0.7-5c0.1-1.9,0.3-4.3,0.3-6.2
									l-0.3-5c-0.3-1.7-0.4-3.8-0.7-5.5l-1.1-4.9c-0.4-1.6-1.1-3.6-1.6-5.1l-1.8-4.5c-0.7-1.4-1.6-3.4-2.4-4.8l-2.3-4.3
									c-1-1.3-2.1-3.1-3.1-4.4l-3-3.6c-1.2-1.2-2.7-2.8-4-4.1l-3.3-2.8c-4.3-3.3-4.8-3.6-8.3-5.6
									C463.5,64.7,473.5,81.7,473.5,102.7"/>
								<g>
									<path class="st21" d="M357.6,128.1c-12.2-43.3,27.7-73.5,67.7-51.1c29.3,16.4,42.5,60.1,16.3,84.1
										c18.8-12.2,31.8-34.5,31.8-58.3c0.1-21-10-38.1-25.2-46.7c-1-0.5-2.2-1.2-3.2-1.7c-1.4-0.7-3.4-1.6-4.9-2.1l-2.7-1
										c-0.9-0.3-2.1-0.7-3.1-1l-2.1-0.6c-0.7-0.2-1.6-0.4-2.2-0.5l-1.8-0.4c-0.5-0.1-1.2-0.3-1.8-0.3l-1.6-0.3
										c-0.4-0.1-1.1-0.2-1.6-0.2l-1.4-0.2c-0.4,0-1-0.1-1.4-0.1l-1.3-0.1c-0.4,0-1,0-1.3,0h-1.3c-0.4,0-1,0-1.3,0l-1.4,0.1
										c-0.4,0-1.1,0.1-1.5,0.1l-1.6,0.2c-0.5,0.1-1.1,0.2-1.7,0.3l-2,0.3c-5.9,1.1-8.8,2-13.3,3.8l-3.2,1.4
										c-4.2,2.1-4.4,2.3-6.9,3.8l-3.5,2.4c-1.5,1.2-3.5,2.7-5,4.1l-3.2,3.2c-1.1,1.2-2.7,3-3.7,4.4l-2.7,3.8
										c-0.9,1.4-2.1,3.3-2.8,4.7l-2.1,4.2c-0.6,1.5-1.5,3.5-2,5l-1.4,4.7c-0.4,1.6-0.9,3.7-1.1,5.3l-0.7,5
										c-0.1,1.7-0.3,3.9-0.3,5.5l0.3,5c0.3,2.7,0.8,6.2,1.3,8.8l1.2,4.8l1.3,3.9L357.6,128.1
										C357.7,128.2,357.7,128.2,357.6,128.1"/>
									<path class="st21" d="M473.5,102.7c-0.1,23.8-13.1,46.1-31.8,58.3c-0.7,0.7-1.8,1.5-2.6,2.1c-7.2,5.4-27,16.1-54.6,0
										c1.6,1,3.7,2.1,5.4,3c1.4,0.7,3.4,1.6,4.9,2.1l2.7,1c0.9,0.3,2.1,0.7,3.1,1l2.1,0.6c0.7,0.2,1.6,0.4,2.2,0.5l1.8,0.4
										c0.5,0.1,1.2,0.3,1.8,0.3l1.6,0.3c0.4,0.1,1.1,0.2,1.6,0.2l1.4,0.2c0.4,0,1,0.1,1.4,0.1l1.3,0.1c0.4,0,1,0,1.3,0h1.3
										c0.4,0,1,0,1.3,0l1.4-0.1c0.4,0,1.1-0.1,1.5-0.1l1.6-0.2c0.5-0.1,1.1-0.2,1.7-0.3l2-0.3c4.6-0.9,7.5-1.6,12.6-3.5l3.2-1.3
										c4.1-2,4.4-2.2,7-3.8l3.5-2.4c1.5-1.2,3.5-2.7,5-4.1l3.3-3.1c1.2-1.2,2.7-3,3.8-4.3l2.7-3.7c0.9-1.4,2.1-3.3,2.9-4.7
										l2.1-4.2c0.6-1.5,1.5-3.5,2.1-5l1.5-4.6c0.4-1.6,0.9-3.7,1.2-5.3l0.7-5c0.1-1.9,0.3-4.3,0.3-6.2l-0.3-5
										c-0.3-1.7-0.4-3.8-0.7-5.5l-1.1-4.9c-0.4-1.6-1.1-3.6-1.6-5.1l-1.8-4.5c-0.7-1.4-1.6-3.4-2.4-4.8l-2.2-4.4
										c-1-1.3-2.1-3.1-3.1-4.4l-3-3.6c-1.2-1.2-2.7-2.8-4-4.1l-3.3-2.8c-4.3-3.3-4.8-3.6-8.3-5.6
										C463.5,64.7,473.5,81.7,473.5,102.7"/>
								</g>
								<g>
									<path class="st22" d="M355.8,120c-5.9-49.8,44.9-67.5,79.4-39.3c17.8,14.5,33.6,47.4,13.2,75.3c15.1-12.7,25-32.4,25-53.2
										c0.1-21-10-38.1-25.2-46.7c-1-0.5-2.2-1.2-3.2-1.7c-1.4-0.7-3.4-1.6-4.9-2.1l-2.7-1c-0.9-0.3-2.1-0.7-3.1-1l-2.1-0.6
										c-0.7-0.2-1.6-0.4-2.2-0.5l-1.8-0.4c-0.5-0.1-1.2-0.3-1.8-0.3l-1.6-0.3c-0.4-0.1-1.1-0.2-1.6-0.2l-1.4-0.2
										c-0.4,0-1-0.1-1.4-0.1l-1.3-0.1c-0.4,0-1,0-1.3,0h-1.3c-0.4,0-1,0-1.3,0l-1.4,0.1c-0.4,0-1.1,0.1-1.5,0.1l-1.6,0.2
										c-0.5,0.1-1.1,0.2-1.7,0.3l-2,0.3c-5.9,1.1-8.8,2-13.3,3.8l-3.2,1.4c-4.2,2.1-4.4,2.3-6.9,3.8l-3.5,2.4
										c-1.5,1.2-3.5,2.7-5,4.1l-3.2,3.2c-1.1,1.2-2.7,3-3.7,4.4l-2.7,3.8c-0.9,1.4-2.1,3.3-2.8,4.7l-2.1,4.2
										c-0.6,1.5-1.5,3.5-2,5l-1.4,4.7c-0.4,1.6-0.9,3.7-1.1,5.3l-0.7,5c-0.1,1.7-0.3,3.9-0.3,5.5l0.3,5c0.3,1.7,0.4,4.1,0.7,5.7
										L355.8,120"/>
									<path class="st22" d="M473.5,102.7c-0.1,20.9-10,40.5-25,53.2c-0.3,0.4-0.7,1-1.1,1.3c-18.1,20.4-41.8,15-51.1,11.8
										l2.7,0.9l1.5,0.4l2.1,0.6c0.7,0.2,1.6,0.4,2.2,0.5l1.8,0.4c0.5,0.1,1.2,0.3,1.8,0.3l1.6,0.3c0.4,0.1,1.1,0.2,1.6,0.2
										l1.4,0.2c0.4,0,1,0.1,1.4,0.1l1.3,0.1c0.4,0,1,0,1.3,0h1.3c0.4,0,1,0,1.3,0l1.4-0.1c0.4,0,1.1-0.1,1.5-0.1l1.6-0.2
										c0.5-0.1,1.1-0.2,1.7-0.3l2-0.3c4.6-0.9,7.5-1.6,12.6-3.5l3.2-1.3c4.1-2,4.4-2.2,7-3.8l3.5-2.4c1.5-1.2,3.5-2.7,5-4.1
										l3.3-3.1c1.2-1.2,2.7-3,3.8-4.3l2.7-3.7c0.9-1.4,2.1-3.3,2.9-4.7l2.1-4.2c0.6-1.5,1.5-3.5,2.1-5l1.5-4.6
										c0.4-1.6,0.9-3.7,1.2-5.3l0.7-5c0.1-1.9,0.3-4.3,0.3-6.2l-0.3-5c-0.3-1.7-0.4-3.8-0.7-5.5l-1.1-4.9
										c-0.4-1.6-1.1-3.6-1.6-5.1l-1.8-4.5c-0.7-1.4-1.6-3.4-2.4-4.8l-2.3-4.4c-1-1.3-2.1-3.1-3.1-4.4l-3-3.6
										c-1.2-1.2-2.7-2.8-4-4.1l-3.3-2.8c-4.3-3.3-4.8-3.6-8.3-5.6C463.5,64.7,473.5,81.7,473.5,102.7"/>
								</g>
								<g>
									<path class="st22" d="M355.1,110.1c2.6-53.1,60-56.2,88-25.8c18,19.5,22.5,46.1,11.2,66.1c11.8-12.6,19.2-29.7,19.2-47.6
										c0.1-21-10-38.1-25.2-46.7c-1-0.5-2.2-1.2-3.2-1.7c-1.4-0.7-3.4-1.6-4.9-2.1l-2.7-1c-0.9-0.3-2.1-0.7-3.1-1l-2.1-0.6
										c-0.7-0.2-1.6-0.4-2.2-0.5l-1.8-0.4c-0.5-0.1-1.2-0.3-1.8-0.3l-1.6-0.3c-0.4-0.1-1.1-0.2-1.6-0.2l-1.4-0.2
										c-0.4,0-1-0.1-1.4-0.1l-1.3-0.1c-0.4,0-1,0-1.3,0h-1.3c-0.4,0-1,0-1.3,0l-1.4,0.1c-0.4,0-1.1,0.1-1.5,0.1l-1.6,0.2
										c-0.5,0.1-1.1,0.2-1.7,0.3l-2,0.3c-5.9,1.1-8.8,2-13.3,3.8l-3.2,1.4c-4.2,2.1-4.4,2.3-6.9,3.8l-3.5,2.4
										c-1.5,1.2-3.5,2.7-5,4.1l-3.2,3.2c-1.1,1.2-2.7,3-3.7,4.4l-2.7,3.8c-0.9,1.4-2.1,3.3-2.8,4.7l-2.1,4.2
										c-0.6,1.5-1.5,3.5-2,5l-1.4,4.7c-0.4,1.6-0.9,3.7-1.1,5.3l-0.7,5C355.2,106.3,355.1,108.4,355.1,110.1L355.1,110.1"/>
									<path class="st22" d="M473.5,102.7c0,17.9-7.4,35.1-19.2,47.6l0,0c-9.7,17-27.7,24.9-48.2,21.3l1.7,0.3l0.4,0.1l1.6,0.3
										c0.4,0.1,1.1,0.2,1.6,0.2l1.4,0.2c0.4,0,1,0.1,1.4,0.1l1.3,0.1c0.4,0,1,0,1.3,0h1.3c0.4,0,1,0,1.3,0l1.4-0.1
										c0.4,0,1.1-0.1,1.5-0.1l1.6-0.2c0.5-0.1,1.1-0.2,1.7-0.3l2-0.3c4.6-0.9,7.5-1.6,12.6-3.5l3.2-1.3c4.1-2,4.4-2.2,7-3.8
										l3.5-2.4c1.5-1.2,3.5-2.7,5-4.1l3.3-3.1c1.2-1.2,2.7-3,3.8-4.3l2.7-3.7c0.9-1.4,2.1-3.3,2.9-4.7l2.1-4.2
										c0.6-1.5,1.5-3.5,2.1-5l1.5-4.6c0.4-1.6,0.9-3.7,1.2-5.3l0.7-5c0.1-1.9,0.3-4.3,0.3-6.2l-0.3-5c-0.3-1.7-0.4-3.8-0.7-5.5
										l-1.1-4.9c-0.4-1.6-1.1-3.6-1.6-5.1l-1.8-4.5c-0.7-1.4-1.6-3.4-2.4-4.8l-2.1-4.4c-1-1.3-2.1-3.1-3.1-4.4l-3-3.6
										c-1.2-1.2-2.7-2.8-4-4.1l-3.3-2.8c-4.3-3.3-4.8-3.6-8.3-5.6C463.5,64.7,473.5,81.7,473.5,102.7"/>
								</g>
								<g>
									<path class="st23" d="M356.4,97.2c10.7-45.4,71.1-47.2,98-2.9c9.5,15.6,11.5,34.7,5.1,49.9c8.8-11.8,14.1-26.3,14.1-41.5
										c0.1-21-10-38.1-25.2-46.7c-1-0.5-2.2-1.2-3.2-1.7c-1.4-0.7-3.4-1.6-4.9-2.1l-2.7-1c-0.9-0.3-2.1-0.7-3.1-1l-2.1-0.6
										c-0.7-0.2-1.6-0.4-2.2-0.5l-1.8-0.4c-0.5-0.1-1.2-0.3-1.8-0.3l-1.6-0.3c-0.4-0.1-1.1-0.2-1.6-0.2l-1.4-0.2
										c-0.4,0-1-0.1-1.4-0.1l-1.3-0.1c-0.4,0-1,0-1.3,0h-1.3c-0.4,0-1,0-1.3,0l-1.4,0.1c-0.4,0-1.1,0.1-1.5,0.1l-1.6,0.2
										c-0.5,0.1-1.1,0.2-1.7,0.3l-2,0.3c-5.9,1.1-8.8,2-13.3,3.8l-3.2,1.4c-4.2,2.1-4.4,2.3-6.9,3.8l-3.5,2.4
										c-1.5,1.2-3.5,2.7-5,4.1l-3.2,3.2c-1.1,1.2-2.7,3-3.7,4.4l-2.7,3.8c-0.9,1.4-2.1,3.3-2.8,4.7l-2.1,4.2
										c-0.6,1.5-1.5,3.5-2,5l-1.4,4.7c-0.4,1.6-0.9,3.7-1.1,5.3c-0.1,0.4-0.2,1.1-0.3,1.6C355.9,100,356.2,98.5,356.4,97.2"/>
									<path class="st23" d="M473.5,102.7c0,15.1-5.3,29.8-14.1,41.5c-0.2,0.3-0.3,0.7-0.4,1.1c-7.6,17.7-23.4,27.7-43.2,27.3
										c0.7,0,1.7,0,2.5,0c0.4,0,1,0,1.3,0l1.4-0.1c0.4,0,1.1-0.1,1.5-0.1l1.6-0.2c0.5-0.1,1.1-0.2,1.7-0.3l2-0.3
										c4.6-0.9,7.5-1.6,12.6-3.5l3.2-1.3c4.1-2,4.4-2.2,7-3.8l3.5-2.4c1.5-1.2,3.5-2.7,5-4.1l3.3-3.1c1.2-1.2,2.7-3,3.8-4.3
										l2.7-3.7c0.9-1.4,2.1-3.3,2.9-4.7l2.1-4.2c0.6-1.5,1.5-3.5,2.1-5l1.5-4.6c0.4-1.6,0.9-3.7,1.2-5.3l0.7-5
										c0.1-1.9,0.3-4.3,0.3-6.2l-0.3-5c-0.3-1.7-0.4-3.8-0.7-5.5l-1.1-4.9c-0.4-1.6-1.1-3.6-1.6-5.1l-1.8-4.5
										c-0.7-1.4-1.6-3.4-2.4-4.8l-2.2-4.2c-1-1.3-2.1-3.1-3.1-4.4l-3-3.6c-1.2-1.2-2.7-2.8-4-4.1l-3.3-2.8
										c-4.3-3.3-4.8-3.6-8.3-5.6C463.5,64.7,473.5,81.7,473.5,102.7"/>
								</g>
								<g>
									<path class="st24" d="M358.1,90.9c18.3-48.4,80.6-37.3,101.8,6.6c4.3,9,8.6,23.2,4.3,39.3c5.9-10.3,9.3-22,9.4-34.2
										c0.1-21-10-38.1-25.2-46.7c-1-0.5-2.2-1.2-3.2-1.7c-1.4-0.7-3.4-1.6-4.9-2.1l-2.7-1c-0.9-0.3-2.1-0.7-3.1-1l-2.1-0.6
										c-0.7-0.2-1.6-0.4-2.2-0.5l-1.8-0.4c-0.5-0.1-1.2-0.3-1.8-0.3l-1.6-0.3c-0.4-0.1-1.1-0.2-1.6-0.2l-1.4-0.2
										c-0.4,0-1-0.1-1.4-0.1l-1.3-0.1c-0.4,0-1,0-1.3,0h-1.3c-0.4,0-1,0-1.3,0l-1.4,0.1c-0.4,0-1.1,0.1-1.5,0.1l-1.6,0.2
										c-0.5,0.1-1.1,0.2-1.7,0.3l-2,0.3c-5.9,1.1-8.8,2-13.3,3.8l-3.2,1.4c-4.2,2.1-4.4,2.3-6.9,3.8l-3.5,2.4
										c-1.5,1.2-3.5,2.7-5,4.1l-3.2,3.2c-1.1,1.2-2.7,3-3.7,4.4l-2.7,3.8c-0.9,1.4-2.1,3.3-2.8,4.7l-2.1,4.2
										c-0.6,1.5-1.5,3.5-2,5c-0.3,0.6-0.4,1.3-0.7,1.9C358,91.4,358,91.1,358.1,90.9"/>
									<path class="st24" d="M473.5,102.7c0,12.2-3.4,24-9.4,34.2c-0.3,1.1-0.6,2.7-0.8,3.8c-8.2,22.5-24.8,29.4-37.1,31.3l2-0.3
										c3.1-0.6,6.6-1.2,12.2-3.4l3.2-1.3c4.1-2,4.4-2.2,7-3.8l3.5-2.4c1.5-1.2,3.5-2.7,5-4.1l3.3-3.1c1.2-1.2,2.7-3,3.8-4.3
										l2.7-3.7c0.9-1.4,2.1-3.3,2.9-4.7l2.1-4.2c0.6-1.5,1.5-3.5,2.1-5l1.5-4.6c0.4-1.6,0.9-3.7,1.2-5.3l0.7-5
										c0.1-1.9,0.3-4.3,0.3-6.2l-0.3-5c-0.3-1.7-0.4-3.8-0.7-5.5l-1.1-4.9c-0.4-1.6-1.1-3.6-1.6-5.1l-1.8-4.5
										c-0.7-1.4-1.6-3.4-2.4-4.8l-2.1-4.3c-1-1.3-2.1-3.1-3.1-4.4l-3-3.6c-1.2-1.2-2.7-2.8-4-4.1l-3.3-2.8
										c-4.3-3.3-4.8-3.6-8.3-5.6C463.5,64.7,473.5,81.7,473.5,102.7"/>
								</g>
								<g>
									<path class="st24" d="M365.1,76.4c29.5-42.3,94.6-13.2,102.9,34.1c1.2,6.5,1.6,8.8,0.7,17.1c3.1-7.9,4.9-16.3,4.9-24.9
										c0.1-21-10-38.1-25.2-46.7c-1-0.5-2.2-1.2-3.2-1.7c-1.4-0.7-3.4-1.6-4.9-2.1l-2.7-1c-0.9-0.3-2.1-0.7-3.1-1l-2.1-0.6
										c-0.7-0.2-1.6-0.4-2.2-0.5l-1.8-0.4c-0.5-0.1-1.2-0.3-1.8-0.3l-1.6-0.3c-0.4-0.1-1.1-0.2-1.6-0.2l-1.4-0.2
										c-0.4,0-1-0.1-1.4-0.1l-1.3-0.1c-0.4,0-1,0-1.3,0h-1.3c-0.4,0-1,0-1.3,0l-1.4,0.1c-0.4,0-1.1,0.1-1.5,0.1l-1.6,0.2
										c-0.5,0.1-1.1,0.2-1.7,0.3l-2,0.3c-5.9,1.1-8.8,2-13.3,3.8l-3.2,1.4c-4.2,2.1-4.4,2.3-6.9,3.8l-3.5,2.4
										c-1.5,1.2-3.5,2.7-5,4.1l-3.2,3.2c-1.1,1.2-2.7,3-3.7,4.4l-2.7,3.8c-0.9,1.4-2.1,3.3-2.8,4.7l1.7-2.8
										C364.6,77.2,364.8,76.7,365.1,76.4"/>
									<path class="st24" d="M473.5,102.7c0,8.7-1.7,17.1-4.9,24.9l0,0c-0.4,19.2-13.5,36.2-32.6,42.2l2.3-0.7l2.1-0.8l3.2-1.3
										c4.1-2,4.4-2.2,7-3.8l3.5-2.4c1.5-1.2,3.5-2.7,5-4.1l3.3-3.1c1.2-1.2,2.7-3,3.8-4.3l2.7-3.7c0.9-1.4,2.1-3.3,2.9-4.7
										l2.1-4.2c0.6-1.5,1.5-3.5,2.1-5l1.5-4.6c0.4-1.6,0.9-3.7,1.2-5.3l0.7-5c0.1-1.9,0.3-4.3,0.3-6.2l-0.3-5
										c-0.3-1.7-0.4-3.8-0.7-5.5l-1.1-4.9c-0.4-1.6-1.1-3.6-1.6-5.1l-1.8-4.5c-0.7-1.4-1.6-3.4-2.4-4.8l-2.1-4.3
										c-1-1.3-2.1-3.1-3.1-4.4l-3-3.6c-1.2-1.2-2.7-2.8-4-4.1l-3.3-2.8c-4.3-3.3-4.8-3.6-8.3-5.6
										C463.5,64.7,473.5,81.7,473.5,102.7"/>
								</g>
								<path class="st25" d="M400.2,168.7c39.1,7.7,62.8-34.1,39.1-68.9c-24.6-35.8-75.9-30-81.9,9.4
									C353.2,135.1,373.7,163.5,400.2,168.7"/>
								<path class="st26" d="M394.5,166.7c40.7,12.6,64.1-28,45.7-60.7c-22.4-40-72.3-34.8-81.1-1.1
									C351.8,133,371.4,159.5,394.5,166.7"/>
								<path class="st26" d="M386.7,162.7c35.1,18.1,65.3-12.6,55.9-44.9c-12.6-42.9-63.7-49.4-79.8-19.1
									C351.3,120.3,362.5,150.3,386.7,162.7"/>
								<path class="st27" d="M384.3,160.7c32.8,18.6,65.9-6.9,56-43.1c-9.3-34.2-61.1-50.8-77.6-15.7
									C352.3,123.8,365.4,150.1,384.3,160.7"/>
								<path class="st28" d="M380.6,157.5c30,20.3,63.6,0.8,58.9-34.3c-4.8-35.8-52.1-52.7-72.4-25.7
									C352.6,116.7,362.3,145,380.6,157.5"/>
								<path class="st28" d="M380.1,156.2c30.9,22.2,62.7-1.9,57.5-33.3c-6.2-37.3-54.7-47.4-70.5-22.6
									C354.5,120,364,144.7,380.1,156.2"/>
								<path class="st29" d="M380.6,155.6c31.8,22.5,60.2-5.5,55-32.8c-7-37-52.7-44.8-68.4-19.4C357,119.6,363,142.6,380.6,155.6"
									/>
								<path class="st30" d="M376.9,151.2c27.7,25.1,57.8,3.5,57.3-23.1c-0.8-36.5-43.8-46.7-61.7-28.6
									C357.7,114.6,362.8,138.4,376.9,151.2"/>
								<path class="st30" d="M377.7,150.5c26.2,23.7,58.2,1.9,54.5-28c-3.6-29.1-44.9-41.1-61.5-17.9
									C359.6,120.2,366.1,139.9,377.7,150.5"/>
								<path class="st31" d="M378.8,149.8c26.6,23.3,55.8-2,52.2-27.5c-3.7-27.3-41.9-38.5-58.2-17
									C360.4,121.5,368.8,141.1,378.8,149.8"/>
								<path class="st31" d="M376,145c21.7,25.3,52.3,6.9,53.8-17.2c1.7-27.8-34-41.2-51.5-25.2C361.3,118.3,369.4,137.1,376,145"
									/>
								<path class="st31" d="M377.5,144.2c20.2,23,49.4,5.7,51-16.5c1.7-23.7-28.4-42.1-49.2-23.3
									C365.1,117,369.7,135.3,377.5,144.2"/>
								<path class="st32" d="M379.2,143.5c18.7,20.9,46.2,4.5,48-15.8c1.9-21.2-25.8-41.5-47.8-20.9
									C370.8,114.6,368.6,131.7,379.2,143.5"/>
								<path class="st32" d="M381.3,142.7c16.9,17.2,42.5,5.3,44.6-15.1c2.4-23.3-25.1-37-43.2-21.7
									C370.5,116.3,372.1,133.3,381.3,142.7"/>
								<path class="st32" d="M379.8,137.4c8.8,13.3,23.3,11.1,23.5,11.1c4.9-1.1,19.6-4.3,21.7-21c2.5-20-21-33.9-38.5-22.9
									C375.9,111.2,372.8,126.8,379.8,137.4"/>
								<path class="st33" d="M382,136.8c12,17.4,39.2,11.4,42.2-9.4c1.3-9.4-3.4-17.9-13.2-23.6c-2.7-1.5-12.2-5.8-24.3,2.1
									C379.2,110.8,373.4,124.5,382,136.8"/>
								<path class="st33" d="M383.6,136.3c12.1,15.3,36.4,9.8,39.5-8.8c0.7-4.2,0.8-14.8-12.2-22.5c-4-2.3-12.2-5.2-23,1.7
									C378.4,112.7,376.3,127.1,383.6,136.3"/>
								<path class="st34" d="M385.4,135.9c12.5,14.9,33.8,7.4,36.7-8.4c3.1-16.5-17-30-31.6-21.1
									C375.4,115.5,381.5,131.3,385.4,135.9"/>
								<path class="st35" d="M385.7,133.2c3.4,5.1,9.8,10.9,21.3,9c5.6-0.9,12.7-7.1,14.2-14.9c1.5-7.2-1.7-14-9.5-19.9
									c-4.2-3.3-14.1-4.1-18.5-1.6c-8.6,5-9,6.5-11,13.4C382.1,120.4,380.9,125.9,385.7,133.2"/>
								<path class="st36" d="M388.4,135.2c5.4,5.5,15.4,7.2,18.4,6c7.4-3.1,7.6-3.1,11.4-8.5c1.7-2.2,3-6.7,2.4-10.8
									c-0.8-6-5-10.3-6.2-11.4c-3.2-3-3.2-3-11.8-5.2c-5.4-1.4-14.8,5.1-16.4,7.6C378.6,124.9,388.1,134.8,388.4,135.2"/>
								<path class="st37" d="M386.3,130.1c2.2,4.2,7.8,11.1,20.3,10.1c3.6-0.3,11.4-6.1,12.8-12.8c2.1-10.1-5.8-16.6-6.1-17
									c-4.2-3.4-10.3-4.4-10.6-4.5c-2.4-0.4-5.8,0.4-8,1.3c-2.4,1.1-5,3.3-6.8,5.3c-0.6,0.7-3.2,6.4-3.2,6.5
									C384.5,119,383.5,124.9,386.3,130.1"/>
								<path class="st38" d="M387.3,129.9c1.3,2.4,6.8,10.3,19.1,9.3l6-2.6c3.1-3,5-5,6.2-9.3c1.9-7.2-2.1-13.4-6.4-16.9
									c-2.8-2.2-9.4-3.7-9.5-3.7c-2.5-0.3-5.8,0.4-8,1.4c-1.1,0.4-6.5,3.2-8.9,10.5C385.3,119.8,384.9,125.5,387.3,129.9"/>
								<path class="st39" d="M388.3,129.8c0,0,3.8,4.5,4.3,4.8c1.9,1.4,5,2.5,7.2,3.5c1.7,0.8,4.4,0.3,6.4,0.1
									c1.9-0.2,4.6-1.2,6-2.7c3.6-3.4,5-6.5,5.4-8.2c0.8-2.8,1.7-10.2-6.6-16.9c-2.1-1.7-5.7-2.7-8.3-3c-2.5-0.3-5.7,0.5-8,1.6
									C389.7,111.5,382.9,120.6,388.3,129.8"/>
								<path class="st40" d="M389.5,129.5c1.9,3.2,6.7,8.5,16.5,7.8c2-0.2,4.6-1.4,6.1-2.7c2.8-2.7,4.5-7.1,4.5-7.2
									c1.7-5.5-0.6-11.8-5.7-15.8c-0.7-0.6-7.2-3.1-8.3-3.2c-2.5-0.3-5.7,0.7-8,1.7C394.7,110.1,382.5,118.1,389.5,129.5"/>
								<path class="st41" d="M390.6,129.3c2.2,3.6,7.1,5.9,8.7,6.6c1.8,0.8,4.6,0.6,6.6,0.4c2.1-0.2,4.7-1.6,6.2-3
									c1.2-1.2,3.8-6,3.8-6c1.9-5.7-1.1-11.8-4.8-14.7c-2.1-1.7-5.6-3.2-8.4-3.5c-2.5-0.3-5.7,0.7-7.9,1.8
									C394.8,111,384.2,118.8,390.6,129.3"/>
								<path class="st42" d="M391.6,129.2c0,0,3.3,3.9,7.4,5.8c1.9,0.8,4.7,0.7,6.7,0.6c0,0,5.7-2.7,6.3-3.3c1.2-1.1,2.5-3.3,3-5
									c2.4-7-2.5-12.6-4-13.7c-1.1-0.9-7.2-3.6-8.3-3.7c-0.4-0.1-7.5,1.8-7.9,2c-1.9,1.3-4.4,3.8-4.9,6.1
									C389.6,121.2,388.7,125.2,391.6,129.2"/>
								<path class="st43" d="M392.7,129c0,0,5.5,4.6,6.2,5c1.9,0.8,4.8,0.9,6.8,0.7c0.5-0.1,5.1-2.7,6.4-3.6c1-0.8,1.8-2.5,2.2-3.6
									c2.7-7.9-3-12.7-3-12.7c-0.1,0-7.8-3.9-8.2-4c-0.3,0-7.5,2.1-7.9,2.3C391.1,115.8,388.3,123.3,392.7,129"/>
								<path class="st44" d="M393.7,128.9c1.1,1.5,3.1,3.2,4.9,3.9c1.9,0.8,4.9,1.2,7,1.1c0.7-0.1,6.4-4.1,6.5-4.1
									c0.7-0.5,1.1-1.6,1.4-2.3c2-5.9-1.3-11.1-2.1-11.8c-2.2-1.7-5.5-3.8-8.2-4.1c-2.5-0.3-5.7,1.1-7.8,2.5
									C391.9,116.4,389.6,123.6,393.7,128.9"/>
								<path class="st45" d="M394.8,128.8c0.8,1.1,2.2,2.3,3.5,2.8c2,0.8,5,1.8,7.1,1.3c2.3-0.5,4.6-3,6.5-4.5
									c0.3-0.3,0.5-0.7,0.6-1.1c2.1-6.8-0.7-10.1-1.9-11.1c-1.9-1.6-5-3.6-7.4-3.7c-2.5-0.2-5.5,1.7-7.7,2.7c-2.7,1.1-3,8.2-3,8.3
									C392.6,125.2,393.7,127.4,394.8,128.8"/>
								<path class="st46" d="M395.8,128.6c0.5,0.7,1.3,1.5,2.1,1.8c2.1,0.7,5,2,7.2,1.6s4.4-3,6.2-4.5c0.3-0.2,0.3-0.6,0.3-0.9
									c0.3-1.3,1.1-3.3,0.7-4.6c-0.5-1.9-1.9-4.3-3.4-5.6c-1.5-1.2-3.9-2.7-5.7-2.9c-2.5-0.2-5.4,1.7-7.6,2.7
									c-0.4,0.3-0.8,0.8-1,1.2C391.8,123.1,394.9,127.4,395.8,128.6"/>
								<path class="st47" d="M396.9,128.4c0.3,0.3,0.5,0.6,0.8,0.7c2.1,0.7,5,2.2,7.3,1.8c1.7-0.3,3.6-2,4.7-3.4
									c1-1.2,1.5-3.5,1.8-5c0-0.3,0.1-0.6,0-0.7c-1.1-1.7-2.6-4-4.1-5.2c-1.1-0.9-2.7-2-4.1-2c-2.4-0.2-6,1.1-7.5,2.9
									c-1.2,1.3-1.6,4.1-1.3,5.9C394.5,125,395.8,127.1,396.9,128.4"/>
								<path class="st48" d="M397.3,127c0.4,0.4,0.9,1.1,1.4,1.2c1.8,0.7,4.2,1.9,6.2,1.7c1.1-0.3,2.6-1.3,3.1-2.3
									c1-1.5,2.3-3.8,2.1-5.6c-0.3-2.1-2.9-4.1-4.4-5.5c-0.6-0.6-1.7-1.2-2.5-1.2C401.1,115.2,391.2,119.3,397.3,127"/>
								<path class="st49" d="M396.6,123.7c1.2,1.6,3.3,3.2,5,4.2c0.8,0.5,2.2,1.1,3.2,0.8c0.6-0.2,1.3-0.7,1.7-1.2
									c0.9-1.6,2.5-3.9,2.2-5.7c0-0.1-4.1-5.7-5.2-5.8c-0.8-0.1-1.4-0.1-7,6.1C396.1,122.7,396.4,123.4,396.6,123.7"/>
								<path class="st50" d="M404.4,127.8c0.1,0,0.2,0.1,0.3,0.1c0.3-0.1,2.5-5.7,2.5-5.7c-0.3-1.7-1.9-4.2-3.6-4.3
									c-2.1-0.1-5,2.8-5,5C398.6,125.1,402.4,126.7,404.4,127.8"/>
								<path class="st51" d="M404.2,125.2c1-0.3,1.4-2.1,1.2-3.1c-0.2-0.9-1-2.2-1.9-2.2c-1.1-0.1-2.7,1.5-2.7,2.6
									C401.1,123.7,403.1,125.5,404.2,125.2"/>
								<path class="st52" d="M404,122.5c0.1,0,0.1-0.2,0.1-0.3s-0.1-0.2-0.2-0.2s-0.3,0.1-0.3,0.3
									C403.7,122.4,403.9,122.6,404,122.5"/>
							</g>
						</g>
					</g>
				</g>
			</g>
			<g class="st18">
				<g>
					<g>
						<g>
							<defs>
								<path id="SVGID_21_" d="M386.7,164.5c-1.1-0.6-2.6-1.5-3.6-2.1c-1.7-1.1-3.8-2.7-5.4-4c-2.1-1.7-4.7-4.3-6.5-6.3
									c-1.2-1.2-2.7-3.1-3.8-4.6c-1-1.3-2.2-3.1-3.1-4.5c-0.7-1.2-1.7-2.9-2.3-4.2c-0.7-1.4-1.7-3.4-2.2-5
									c-0.5-1.3-1.2-3.2-1.7-4.5c-0.5-1.5-1.1-3.6-1.4-5.2c-0.6-2.9-1.2-7-1.4-9.9c-0.3-2.7-0.3-6.5,0.1-9.2
									c0.3-1.7,0.4-3.8,0.7-5.5c0.3-1.4,0.7-3.4,1.1-4.9c0.4-1.6,1-3.6,1.6-5.1c0.5-1.3,1.2-3.2,1.8-4.5c0.7-1.5,1.6-3.4,2.4-4.9
									c2.7-4.9,5.6-8.5,5.6-8.5c1.7-2.1,4.2-4.9,6.1-6.8c1.2-1.1,2.8-2.6,4.1-3.6c1-0.8,2.4-1.9,3.4-2.6c1.4-1,3.4-2.1,4.9-3.1
									c1-0.5,2.2-1.2,3.2-1.7c3.1-1.4,3.1-1.4,6-2.6c1.3-0.5,3.2-1.1,4.6-1.5c8-2.2,16.2-2.8,24.3-1.9c4.1,0.5,8.1,1.4,12.1,2.7
									c2.7,0.9,4.5,1.7,6.4,2.5c1.5,0.7,3.4,1.7,4.9,2.5c-8.8-5-19.4-7.2-30.7-5.7c11.3-1.5,21.8,0.7,30.7,5.7
									c2.1,1.3,5,3.1,7.1,4.7c1.3,1.1,3.2,2.7,4.5,3.7c1.1,0.9,2.3,2.2,3.3,3.2c1.1,1.2,2.7,3,3.7,4.3c0.9,1.1,1.9,2.7,2.7,3.8
									c0.9,1.3,2,3.3,2.8,4.7c0.7,1.2,1.5,3,2.1,4.3c0.7,1.5,1.4,3.5,2,5c0.5,1.4,1,3.3,1.4,4.7c0.4,1.6,0.9,3.7,1.1,5.3
									c0.3,1.5,0.5,3.5,0.6,5c0.2,1.7,0.3,3.9,0.3,5.5c0,3.1-0.4,7.1-0.8,10.1c-0.3,1.8-0.7,4.2-1.2,5.9c-1.4,4.7-2.1,6.9-3.4,9.6
									c-0.6,1.2-1.4,3.1-2.1,4.2c-0.7,1.4-1.9,3.2-2.7,4.5c-2.4,3.6-4.7,6.3-6.2,7.9c-1.6,1.7-3.9,4.1-7.4,6.8
									c-1,0.7-2.4,1.8-3.4,2.5c-1.4,1-3.4,2.1-5,3c-2.4,1.4-6.5,3.1-7.1,3.4c-1.3,0.5-3.1,1.2-4.5,1.6c-1.3,0.4-3.1,0.9-4.5,1.2
									c-7.5,1.7-15.3,2.1-23.1,0.9c-5.3-0.7-9.4-2.1-10.5-2.5c-2.4-0.8-3.4-1.2-6.4-2.5C390,166.4,388.1,165.3,386.7,164.5z"/>
							</defs>
							<clipPath id="SVGID_22_">
								<use xlink:href="#SVGID_21_"  style="overflow:visible;"/>
							</clipPath>
							<g class="st53">
								<path class="st20" d="M386.7,164.5c-10.8-6.3-18.9-14.7-24.7-25.7c-8.7-16.4-6.8-33.1-6.7-33.8c1.2-9.8,2-12.2,5-19.9
									c1.1-2.8,4.8-9.5,8-13.3c3.7-4.5,13.6-16.4,32.4-21.7c11.2-3.1,28.5-4.6,47.6,5.8c-8.8-5-19.4-7.2-30.7-5.7
									c11.3-1.5,21.8,0.7,30.7,5.7c3.8,2.3,9.5,5.8,14.8,11.7c5.7,6.3,8.4,10.8,11.4,17.2c2.7,5.8,7.1,18.3,4.5,35.6
									c-0.6,4.2-3.6,19.3-15.8,32.3c-8.8,9.4-19.5,15.6-31.8,18.5C409.7,176.1,392.9,168.1,386.7,164.5"/>
								<path class="st20" d="M448.2,56c4.1,2.4,7.2,4.5,11.6,8.4l3.3,3.2c1.1,1.2,2.7,3,3.7,4.3l2.7,3.8c0.8,1.4,2,3.3,2.8,4.7
									l2.1,4.3c0.6,1.5,1.4,3.5,2,5l1.4,4.7c0.4,1.6,0.8,3.7,1.1,5.3l0.6,5c0.1,1.7,0.3,3.9,0.3,5.5l-0.3,5
									c-0.3,1.8-0.5,4.2-0.8,6l-1.1,4.9c-0.4,1.6-1.1,3.6-1.7,5.1l-1.8,4.5c-0.7,1.4-1.7,3.4-2.4,4.8l-2.5,4.1
									c-1,1.3-2.2,3.1-3.2,4.4l-3,3.5c-1.2,1.2-2.8,2.8-4.1,4.1l-3.3,2.7c-1.6,1.1-3.6,2.7-5.2,3.6l-3.1,1.9
									c-4.1,2.1-4.3,2.2-7.1,3.4l-2.2,0.8c-3.1,1.1-6.5,2.1-12.4,3l-1.7,0.3c-0.4,0.1-1.1,0.1-1.6,0.2l-1.4,0.1
									c-0.4,0-1,0.1-1.4,0.1h-1.3c-0.4,0-1,0-1.3,0h-1.3c-0.4,0-1,0-1.3-0.1l-1.4-0.1c-0.4,0-1-0.1-1.4-0.2l-1.5-0.2
									c-0.4-0.1-1.1-0.2-1.6-0.3l-1.7-0.3c-0.5-0.1-1.2-0.3-1.9-0.4l-2.1-0.4c-0.7-0.2-1.7-0.4-2.3-0.6l-2.6-0.8
									c-1-0.4-2.2-0.7-3.1-1.1l-3.2-1.3c-1.5-0.7-3.4-1.7-4.9-2.5l-3.6-2.1c-1.7-1.1-3.8-2.7-5.4-4l-3.4-3
									c-1.2-1.2-2.9-2.9-4.1-4.2l-2.9-3.6c-1-1.3-2.2-3.1-3.1-4.5l-2.3-4.2c-0.7-1.5-1.7-3.4-2.2-5l-1.7-4.5
									c-0.4-1.6-1.1-3.6-1.4-5.2l-0.9-5c-0.3-2.7-0.5-6.4-0.7-9.1l0.3-5c0.3-1.7,0.4-3.8,0.7-5.5l1.1-4.9c0.4-1.6,1.1-3.6,1.6-5.1
									l1.8-4.5c0.7-1.4,1.7-3.4,2.4-4.9l2.5-4.1c1-1.3,2.1-3.1,3.2-4.5l3-3.5c1.2-1.2,2.7-2.9,4.1-4.1l3.3-2.8
									c1.5-1.1,3.5-2.7,5.1-3.6l3.1-1.9c4.2-2.2,4.3-2.3,7-3.4l2.3-0.9c4.1-1.4,7-2.3,13.1-3.2l1.7-0.3c0.4-0.1,1.1-0.1,1.6-0.2
									l1.4-0.1c0.4,0,1-0.1,1.4-0.1h1.3c0.4,0,1,0,1.3,0h1.3c0.4,0,1,0,1.3,0.1l1.4,0.1c0.4,0,1,0.1,1.4,0.2l1.5,0.2
									c0.4,0.1,1.1,0.2,1.6,0.3l1.7,0.3c0.5,0.1,1.2,0.3,1.9,0.4l2.1,0.4c0.7,0.2,1.7,0.4,2.3,0.6l2.6,0.8c1,0.4,2.2,0.7,3.1,1.1
									l3.2,1.3C444.8,54.2,446.9,55.1,448.2,56c-8.8-5-19.4-7.2-30.7-5.7l0,0c-54.4,16.1-35.2,74.7-1.9,91.1
									c37.8,18.7,72.8-11.2,60.4-51.6c-4.5-14.9-18.3-39.7-58.5-39.4C428.9,48.8,439.4,51,448.2,56"/>
								<path class="st20" d="M448.2,56c4.1,2.4,7.2,4.5,11.6,8.4l3.3,3.2c1.1,1.2,2.7,3,3.7,4.3l2.7,3.8c0.8,1.4,2,3.3,2.8,4.7
									l2.1,4.3c0.6,1.5,1.4,3.5,2,5l1.4,4.7c0.4,1.6,0.8,3.7,1.1,5.3l0.6,5c0.1,1.7,0.3,3.9,0.3,5.5l-0.3,5
									c-0.3,1.8-0.5,4.2-0.8,6l-1.1,4.9c-0.4,1.6-1.1,3.6-1.7,5.1l-1.8,4.5c-0.7,1.4-1.7,3.4-2.4,4.8l-2.5,4.1
									c-1,1.3-2.2,3.1-3.2,4.4l-3,3.5c-1.2,1.2-2.8,2.8-4.1,4.1l-3.3,2.7c-1.6,1.1-3.6,2.7-5.2,3.6l-3.1,1.9
									c-4.1,2.1-4.3,2.2-7.1,3.4l-2.2,0.8c-3.1,1.1-6.5,2.1-12.4,3l-1.7,0.3c-0.4,0.1-1.1,0.1-1.6,0.2l-1.4,0.1
									c-0.4,0-1,0.1-1.4,0.1h-1.3c-0.4,0-1,0-1.3,0h-1.3c-0.4,0-1,0-1.3-0.1l-1.4-0.1c-0.4,0-1-0.1-1.4-0.2l-1.5-0.2
									c-0.4-0.1-1.1-0.2-1.6-0.3l-1.7-0.3c-0.5-0.1-1.2-0.3-1.9-0.4l-2.1-0.4c-0.7-0.2-1.7-0.4-2.3-0.6l-2.6-0.8
									c-1-0.4-2.2-0.7-3.1-1.1l-3.2-1.3c-1.5-0.7-3.4-1.7-4.9-2.5l-3.6-2.1c-1.7-1.1-3.8-2.7-5.4-4l-3.4-3
									c-1.2-1.2-2.9-2.9-4.1-4.2l-2.9-3.6c-1-1.3-2.2-3.1-3.1-4.5l-2.3-4.2c-0.7-1.5-1.7-3.4-2.2-5l-1.7-4.5
									c-0.4-1.6-1.1-3.6-1.4-5.2l-0.9-5c-0.3-2.7-0.5-6.4-0.7-9.1l0.3-5c0.3-1.7,0.4-3.8,0.7-5.5l1.1-4.9c0.4-1.6,1.1-3.6,1.6-5.1
									l1.8-4.5c0.7-1.4,1.7-3.4,2.4-4.9l2.5-4.1c1-1.3,2.1-3.1,3.2-4.5l3-3.5c1.2-1.2,2.7-2.9,4.1-4.1l3.3-2.8
									c1.5-1.1,3.5-2.7,5.1-3.6l3.1-1.9c4.2-2.2,4.3-2.3,7-3.4l2.3-0.9c4.1-1.4,7-2.3,13.1-3.2l1.7-0.3c0.4-0.1,1.1-0.1,1.6-0.2
									l1.4-0.1c0.4,0,1-0.1,1.4-0.1h1.3c0.4,0,1,0,1.3,0h1.3c0.4,0,1,0,1.3,0.1l1.4,0.1c0.4,0,1,0.1,1.4,0.2l1.5,0.2
									c0.4,0.1,1.1,0.2,1.6,0.3l1.7,0.3c0.5,0.1,1.2,0.3,1.9,0.4l2.1,0.4c0.7,0.2,1.7,0.4,2.3,0.6l2.6,0.8c1,0.4,2.2,0.7,3.1,1.1
									l3.2,1.3C444.8,54.2,446.9,55.1,448.2,56c-3.1-1.7-6.4-3.1-9.8-4.2c-0.1,0-0.3-0.1-0.4-0.2c-45.7-12.7-70,31.8-48.6,68.2
									c23.9,40.7,79.4,38.7,88.7-3.1c5.9-26.6-11.8-55.7-39.6-64.9C441.9,52.8,445.2,54.2,448.2,56"/>
								<g>
									<path class="st21" d="M476.4,89.8c0.7,2,1.7,5.1,2.6,10l0.6,5c0.1,1.7,0.3,3.9,0.3,5.5l-0.3,5c-0.3,1.8-0.5,4.2-0.8,6
										l-1.1,4.9c-0.4,1.6-1.1,3.6-1.7,5.1l-1.8,4.5c-0.7,1.4-1.7,3.4-2.4,4.8l-2.5,4.1c-1,1.3-2.2,3.1-3.2,4.4l-3,3.5
										c-1.2,1.2-2.8,2.8-4.1,4.1l-3.3,2.7c-1.6,1.1-3.6,2.7-5.2,3.6l-3.1,1.9c-4.1,2.1-4.3,2.2-7.1,3.4l-2.2,0.8
										c-3.1,1.1-6.5,2.1-12.4,3l-1.7,0.3c-0.4,0.1-1.1,0.1-1.6,0.2l-1.4,0.1c-0.4,0-1,0.1-1.4,0.1h-1.3c-0.4,0-1,0-1.3,0h-1.3
										c-0.4,0-1,0-1.3-0.1l-1.4-0.1c-0.4,0-1-0.1-1.4-0.2l-1.5-0.2c-0.4-0.1-1.1-0.2-1.6-0.3l-1.7-0.3c-0.5-0.1-1.2-0.3-1.9-0.4
										l-2.1-0.4c-0.7-0.2-1.7-0.4-2.3-0.6l-2.6-0.8c-1-0.4-2.2-0.7-3.1-1.1l-3.2-1.3c-1.5-0.7-3.4-1.7-4.9-2.5l-3.6-2.1
										c-1.7-1.1-3.8-2.7-5.4-4l-3.4-3c-1.2-1.2-2.9-2.9-4.1-4.2l-2.9-3.6c-1-1.3-2.2-3.1-3.1-4.5l-2.3-4.2
										c-0.7-1.5-1.7-3.4-2.2-5l-1.7-4.5c-0.4-1.6-1.1-3.6-1.4-5.2l-0.9-5c-0.3-2.7-0.5-6.4-0.7-9.1l0.3-5
										c0.3-1.7,0.4-3.8,0.7-5.5l1.1-4.9c0.4-1.6,1.1-3.6,1.6-5.1l1.8-4.5c0.7-1.4,1.7-3.4,2.4-4.9l2.5-4.1c1-1.3,2.1-3.1,3.2-4.5
										l3-3.5c1.2-1.2,2.7-2.9,4.1-4.1l3.3-2.8c1.5-1.1,3.5-2.7,5.1-3.6l3.1-1.9c4.2-2.2,4.3-2.3,7-3.4l2.3-0.9
										c4.1-1.4,7-2.3,13.1-3.2l1.7-0.3c0.4-0.1,1.1-0.1,1.6-0.2l1.4-0.1c0.4,0,1-0.1,1.4-0.1h1.3c0.4,0,1,0,1.3,0h1.3
										c0.4,0,1,0,1.3,0.1l1.4,0.1c0.4,0,1,0.1,1.4,0.2l1.5,0.2c0.4,0.1,1.1,0.2,1.6,0.3l1.7,0.3c0.5,0.1,1.2,0.3,1.9,0.4l2.1,0.4
										c0.7,0.2,1.7,0.4,2.3,0.6l2.6,0.8c1,0.4,2.2,0.7,3.1,1.1l3.2,1.3c1.5,0.7,3.4,1.7,4.9,2.5c-0.4-0.3-0.7-0.4-1.1-0.6
										c-1.1-0.5-2.7-1.2-3.7-1.9c-44.4-19.3-75.9,20.9-60.1,59.4c19.2,46.8,76.9,49.4,92.2,14.2c7.1-16.3,3.1-31.7,0.2-39.5
										C475.9,88.3,476.3,89.2,476.4,89.8"/>
									<path class="st21" d="M448.2,56c1,0.5,2.1,1.3,3.1,1.9c-1.1-0.7-2.7-1.6-3.7-2.2c-0.2-0.1-0.3-0.2-0.4-0.3
										C447.6,55.6,447.9,55.8,448.2,56"/>
								</g>
								<path class="st22" d="M479,99.8c0.4,3,0.8,5.7,0.9,10.5l-0.3,5c-0.3,1.8-0.5,4.2-0.8,6l-1.1,4.9c-0.4,1.6-1.1,3.6-1.7,5.1
									l-1.8,4.5c-0.7,1.4-1.7,3.4-2.4,4.8l-2.5,4.1c-1,1.3-2.2,3.1-3.2,4.4l-3,3.5c-1.2,1.2-2.8,2.8-4.1,4.1l-3.3,2.7
									c-1.6,1.1-3.6,2.7-5.2,3.6l-3.1,1.9c-4.1,2.1-4.3,2.2-7.1,3.4l-2.2,0.8c-3.1,1.1-6.5,2.1-12.4,3l-1.7,0.3
									c-0.4,0.1-1.1,0.1-1.6,0.2l-1.4,0.1c-0.4,0-1,0.1-1.4,0.1h-1.3c-0.4,0-1,0-1.3,0h-1.3c-0.4,0-1,0-1.3-0.1l-1.4-0.1
									c-0.4,0-1-0.1-1.4-0.2l-1.5-0.2c-0.4-0.1-1.1-0.2-1.6-0.3l-1.7-0.3c-0.5-0.1-1.2-0.3-1.9-0.4l-2.1-0.4
									c-0.7-0.2-1.7-0.4-2.3-0.6l-2.6-0.8c-1-0.4-2.2-0.7-3.1-1.1l-3.2-1.3c-1.5-0.7-3.4-1.7-4.9-2.5l-3.6-2.1
									c-1.7-1.1-3.8-2.7-5.4-4l-3.4-3c-1.2-1.2-2.9-2.9-4.1-4.2l-2.9-3.6c-1-1.3-2.2-3.1-3.1-4.5l-2.3-4.2c-0.7-1.5-1.7-3.4-2.2-5
									l-1.7-4.5c-0.4-1.6-1.1-3.6-1.4-5.2l-0.9-5c-0.3-2.7-0.5-6.4-0.7-9.1l0.3-5c0.3-1.7,0.4-3.8,0.7-5.5l1.1-4.9
									c0.4-1.6,1.1-3.6,1.6-5.1l1.8-4.5c0.7-1.4,1.7-3.4,2.4-4.9l2.5-4.1c1-1.3,2.1-3.1,3.2-4.5l3-3.5c1.2-1.2,2.7-2.9,4.1-4.1
									l3.3-2.8c1.5-1.1,3.5-2.7,5.1-3.6l3.1-1.9c4.2-2.2,4.3-2.3,7-3.4l2.3-0.9c4.1-1.4,7-2.3,13.1-3.2l1.7-0.3
									c0.4-0.1,1.1-0.1,1.6-0.2l1.4-0.1c0.4,0,1-0.1,1.4-0.1h1.3c0.4,0,1,0,1.3,0h1.3c0.4,0,1,0,1.3,0.1l1.4,0.1
									c0.4,0,1,0.1,1.4,0.2l1.5,0.2c0.4,0.1,1.1,0.2,1.6,0.3l1.7,0.3c0.5,0.1,1.2,0.3,1.9,0.4l2.1,0.4c0.7,0.2,1.7,0.4,2.3,0.6
									l2.6,0.8l1.5,0.5l-3.3-1.1c-46.2-13.2-72,33-51.1,70.5c24.7,44.5,81.4,40.5,93.2,3.6c3.4-10.7,2.6-19.4,1.7-24.9
									C478.9,99.6,479,99.7,479,99.8"/>
								<path class="st22" d="M479.8,110.3c-0.1,3.2-0.2,6-1.1,11.1l-1.1,4.9c-0.4,1.6-1.1,3.6-1.7,5.1l-1.8,4.5
									c-0.7,1.4-1.7,3.4-2.4,4.8l-2.5,4.1c-1,1.3-2.2,3.1-3.2,4.4l-3,3.5c-1.2,1.2-2.8,2.8-4.1,4.1l-3.3,2.7
									c-1.6,1.1-3.6,2.7-5.2,3.6l-3.1,1.9c-4.1,2.1-4.3,2.2-7.1,3.4l-2.2,0.8c-3.1,1.1-6.5,2.1-12.4,3l-1.7,0.3
									c-0.4,0.1-1.1,0.1-1.6,0.2l-1.4,0.1c-0.4,0-1,0.1-1.4,0.1h-1.3c-0.4,0-1,0-1.3,0h-1.3c-0.4,0-1,0-1.3-0.1l-1.4-0.1
									c-0.4,0-1-0.1-1.4-0.2l-1.5-0.2c-0.4-0.1-1.1-0.2-1.6-0.3l-1.7-0.3c-0.5-0.1-1.2-0.3-1.9-0.4l-2.1-0.4
									c-0.7-0.2-1.7-0.4-2.3-0.6l-2.6-0.8c-1-0.4-2.2-0.7-3.1-1.1l-3.2-1.3c-1.5-0.7-3.4-1.7-4.9-2.5l-3.6-2.1
									c-1.7-1.1-3.8-2.7-5.4-4l-3.4-3c-1.2-1.2-2.9-2.9-4.1-4.2l-2.9-3.6c-1-1.3-2.2-3.1-3.1-4.5l-2.3-4.2c-0.7-1.5-1.7-3.4-2.2-5
									l-1.7-4.5c-0.4-1.6-1.1-3.6-1.4-5.2l-0.9-5c-0.3-2.7-0.5-6.4-0.7-9.1l0.3-5c0.3-1.7,0.4-3.8,0.7-5.5l1.1-4.9
									c0.4-1.6,1.1-3.6,1.6-5.1l1.8-4.5c0.7-1.4,1.7-3.4,2.4-4.9l2.5-4.1c1-1.3,2.1-3.1,3.2-4.5l3-3.5c1.2-1.2,2.7-2.9,4.1-4.1
									l3.3-2.8c1.5-1.1,3.5-2.7,5.1-3.6l3.1-1.9c4.2-2.2,4.3-2.3,7-3.4l2.3-0.9c4.1-1.4,7-2.3,13.1-3.2l1.7-0.3
									c0.4-0.1,1.1-0.1,1.6-0.2l1.4-0.1c0.4,0,1-0.1,1.4-0.1h1.3c0.4,0,1,0,1.3,0h1.3c0.4,0,1,0,1.3,0.1l1.4,0.1
									c0.4,0,1,0.1,1.4,0.2l1.5,0.2c0.4,0.1,1.1,0.2,1.6,0.3l1.7,0.3l0.4,0.1l-0.5-0.1c-49.2-7.7-68.7,46.7-40.9,82.3
									c29.9,38.3,86.5,30,92-13.5c0.5-4.1,0.5-6,0.5-7.6C479.8,110,479.8,110.2,479.8,110.3"/>
								<path class="st23" d="M478.9,121.5c-0.4,2.1-1.1,5.3-2.7,9.9l-1.8,4.5c-0.7,1.4-1.7,3.4-2.4,4.8l-2.5,4.1
									c-1,1.3-2.2,3.1-3.2,4.4l-3,3.5c-1.2,1.2-2.8,2.8-4.1,4.1l-3.3,2.7c-1.6,1.1-3.6,2.7-5.2,3.6l-3.1,1.9
									c-4.1,2.1-4.3,2.2-7.1,3.4l-2.2,0.8c-3.1,1.1-6.5,2.1-12.4,3l-1.7,0.3c-0.4,0.1-1.1,0.1-1.6,0.2l-1.4,0.1
									c-0.4,0-1,0.1-1.4,0.1h-1.3c-0.4,0-1,0-1.3,0H416c-0.4,0-1,0-1.3-0.1l-1.4-0.1c-0.4,0-1-0.1-1.4-0.2l-1.5-0.2
									c-0.4-0.1-1.1-0.2-1.6-0.3l-1.7-0.3c-0.5-0.1-1.2-0.3-1.9-0.4l-2.1-0.4c-0.7-0.2-1.7-0.4-2.3-0.6l-2.6-0.8
									c-1-0.4-2.2-0.7-3.1-1.1l-3.2-1.3c-1.5-0.7-3.4-1.7-4.9-2.5l-3.6-2.1c-1.7-1.1-3.8-2.7-5.4-4l-3.4-3
									c-1.2-1.2-2.9-2.9-4.1-4.2l-2.9-3.6c-1-1.3-2.2-3.1-3.1-4.5l-2.3-4.2c-0.7-1.5-1.7-3.4-2.2-5l-1.7-4.5
									c-0.4-1.6-1.1-3.6-1.4-5.2l-0.9-5c-0.3-2.7-0.5-6.4-0.7-9.1l0.3-5c0.3-1.7,0.4-3.8,0.7-5.5l1.1-4.9c0.4-1.6,1.1-3.6,1.6-5.1
									l1.8-4.5c0.7-1.4,1.7-3.4,2.4-4.9l2.5-4.1c1-1.3,2.1-3.1,3.2-4.5l3-3.5c1.2-1.2,2.7-2.9,4.1-4.1l3.3-2.8
									c1.5-1.1,3.5-2.7,5.1-3.6l3.1-1.9c4.2-2.2,4.3-2.3,7-3.4l2.3-0.9c4.1-1.4,7-2.3,13.1-3.2l1.7-0.3c0.4-0.1,1.1-0.1,1.6-0.2
									l1.4-0.1c0.4,0,1-0.1,1.4-0.1h1.3c0.4,0,1,0,1.3,0c0.4,0,0.8,0,1.1,0c-0.3,0-0.7,0-1.1,0c-46.4,0.3-62.6,56.2-26.6,92.1
									c29.4,29.4,79.1,24.5,87.9-20.7C479.1,119.9,478.9,120.8,478.9,121.5"/>
								<path class="st24" d="M476.2,131.4c-0.7,1.9-1.8,5-4.2,9.3l-2.5,4.1c-1,1.3-2.2,3.1-3.2,4.4l-3,3.5
									c-1.2,1.2-2.8,2.8-4.1,4.1l-3.3,2.7c-1.6,1.1-3.6,2.7-5.2,3.6l-3.1,1.9c-4.1,2.1-4.3,2.2-7.1,3.4l-2.2,0.8
									c-3.1,1.1-6.5,2.1-12.4,3l-1.7,0.3c-0.4,0.1-1.1,0.1-1.6,0.2l-1.4,0.1c-0.4,0-1,0.1-1.4,0.1h-1.3c-0.4,0-1,0-1.3,0h-1.3
									c-0.4,0-1,0-1.3-0.1l-1.4-0.1c-0.4,0-1-0.1-1.4-0.2l-1.5-0.2c-0.4-0.1-1.1-0.2-1.6-0.3l-1.7-0.3c-0.5-0.1-1.2-0.3-1.9-0.4
									l-2.1-0.4c-0.7-0.2-1.7-0.4-2.3-0.6l-2.6-0.8c-1-0.4-2.2-0.7-3.1-1.1l-3.2-1.3c-1.5-0.7-3.4-1.7-4.9-2.5l-3.6-2.1
									c-1.7-1.1-3.8-2.7-5.4-4l-3.4-3c-1.2-1.2-2.9-2.9-4.1-4.2l-2.9-3.6c-1-1.3-2.2-3.1-3.1-4.5l-2.3-4.2c-0.7-1.5-1.7-3.4-2.2-5
									l-1.7-4.5c-0.4-1.6-1.1-3.6-1.4-5.2l-0.9-5c-0.3-2.7-0.5-6.4-0.7-9.1l0.3-5c0.3-1.7,0.4-3.8,0.7-5.5l1.1-4.9
									c0.4-1.6,1.1-3.6,1.6-5.1l1.8-4.5c0.7-1.4,1.7-3.4,2.4-4.9l2.5-4.1c1-1.3,2.1-3.1,3.2-4.5l3-3.5c1.2-1.2,2.7-2.9,4.1-4.1
									l3.3-2.8c1.5-1.1,3.5-2.7,5.1-3.6l3.1-1.9c4.2-2.2,4.3-2.3,7-3.4l2.3-0.9c3.4-1.1,6.5-2.2,12.7-3.2l-1,0.2
									c-47.6,8.3-53.5,70.6-9.5,101.1c30.9,21.3,68.2,11.4,78.7-20.9C476.8,129.8,476.4,130.7,476.2,131.4"/>
								<path class="st24" d="M472,140.8c-1.2,2.1-2.7,4.7-5.7,8.4l-3,3.5c-1.2,1.2-2.8,2.8-4.1,4.1l-3.3,2.7
									c-1.6,1.1-3.6,2.7-5.2,3.6l-3.1,1.9c-4.1,2.1-4.3,2.2-7.1,3.4l-2.2,0.8c-3.1,1.1-6.5,2.1-12.4,3l-1.7,0.3
									c-0.4,0.1-1.1,0.1-1.6,0.2l-1.4,0.1c-0.4,0-1,0.1-1.4,0.1h-1.3c-0.4,0-1,0-1.3,0h-1.3c-0.4,0-1,0-1.3-0.1l-1.4-0.1
									c-0.4,0-1-0.1-1.4-0.2l-1.5-0.2c-0.4-0.1-1.1-0.2-1.6-0.3l-1.7-0.3c-0.5-0.1-1.2-0.3-1.9-0.4l-2.1-0.4
									c-0.7-0.2-1.7-0.4-2.3-0.6l-2.6-0.8c-1-0.4-2.2-0.7-3.1-1.1l-3.2-1.3c-1.5-0.7-3.4-1.7-4.9-2.5l-3.6-2.1
									c-1.7-1.1-3.8-2.7-5.4-4l-3.4-3c-1.2-1.2-2.9-2.9-4.1-4.2l-2.9-3.6c-1-1.3-2.2-3.1-3.1-4.5l-2.3-4.2c-0.7-1.5-1.7-3.4-2.2-5
									l-1.7-4.5c-0.4-1.6-1.1-3.6-1.4-5.2l-0.9-5c-0.3-2.7-0.5-6.4-0.7-9.1l0.3-5c0.3-1.7,0.4-3.8,0.7-5.5l1.1-4.9
									c0.4-1.6,1.1-3.6,1.6-5.1l1.8-4.5c0.7-1.4,1.7-3.4,2.4-4.9l2.5-4.1c1-1.3,2.1-3.1,3.2-4.5l3-3.5c1.2-1.2,2.7-2.9,4.1-4.1
									l3.3-2.8c1.5-1.1,3.5-2.7,5.1-3.6l3.1-1.9c4.2-2.2,4.3-2.3,7-3.4l2.3-0.9c1-0.3,2.2-0.7,3.2-1.1h-0.1
									c-46.8,14.8-45,81.1,2.8,105.8c32.6,16.9,59.3,3.2,70.4-16.6C472.3,140,472,140.4,472,140.8"/>
								<path class="st25" d="M445.1,55.1c39.2,18.5,44.8,72.8,9,86.9c-37.6,14.7-80.6-30-64.9-67.4
									C399.3,50.7,425.5,45.9,445.1,55.1"/>
								<path class="st26" d="M450.5,58.4c37.7,23,35.9,76-2.9,83.5c-40.9,7.9-75.6-42.9-51.5-75.4
									C409.8,47.8,433.8,48.3,450.5,58.4"/>
								<path class="st26" d="M455.3,62.2c34,26.2,24.6,71.3-7.4,77.5c-35.6,7-73.1-37.1-50.2-72.2C407.9,51.8,433.4,46,455.3,62.2"
									/>
								<path class="st27" d="M459.6,66.5c30.9,29.6,14.1,71.8-19.3,71.8c-39.1,0-63.2-49-37-74.8C419.5,47.5,445.2,52.7,459.6,66.5
									"/>
								<path class="st28" d="M459.5,67.2c28,26.2,16.4,68.8-18.9,69c-38,0.3-60.6-46.3-34.9-72.3C418.9,50.3,443.1,51.8,459.5,67.2
									"/>
								<path class="st28" d="M462.9,71.9c22.9,28,6.8,64.9-27,61.6c-39.2-3.8-51.3-51.7-26.1-71.1
									C427.2,49.3,450.9,57.1,462.9,71.9"/>
								<path class="st29" d="M462.5,72.6c22.7,28.1,4,64.9-30,58.7c-36.7-6.6-43.9-51.5-19-69C427.8,52.3,449.8,57,462.5,72.6"/>
								<path class="st30" d="M465.2,77.9c17.9,29.6-4.9,56.8-32.6,51.5c-37-7-40-49.7-18.8-65C433.4,50.3,456.2,63.3,465.2,77.9"/>
								<path class="st30" d="M464.4,78.7c16.6,28-5.4,53.9-31.8,49c-34.4-6.5-39.5-45-15.8-62.9C429.4,55.4,452.9,59.4,464.4,78.7"
									/>
								<path class="st31" d="M463.4,79.4c15,25.7-5.8,50.2-30.8,46.7c-31.2-4.4-37.2-42.7-15.9-58.7
									C434.5,54.2,455.6,66.1,463.4,79.4"/>
								<path class="st31" d="M464.6,85.3c10.2,27-17.5,47.1-40.5,37.1c-27.2-11.8-23-47.6,0.5-57C439.4,59.4,458.4,68.8,464.6,85.3
									"/>
								<path class="st31" d="M463.1,86c8.4,24.2-15.3,45.4-39,35c-25.7-11.3-21.3-44.4,1.1-53.7C440.9,60.9,458.2,71.8,463.1,86"/>
								<path class="st32" d="M461.4,86.7c8,24-17.2,41.9-37.3,33.2c-24.2-10.8-19.7-42.3,1.7-50.6C441.4,63.3,457,73.7,461.4,86.7"
									/>
								<path class="st32" d="M459.6,87.5c7.5,22.7-16.4,39.7-35.4,31.4c-21-9.3-19.5-39.1,2.2-47.6
									C436.6,67.2,454.2,71.4,459.6,87.5"/>
								<path class="st32" d="M458.8,93.7c1.2,17-10.6,22.4-14.5,24.2c-13.5,6.3-23.4-2.3-26.7-5.1c-15.6-13.3-7-38.1,14.1-40.8
									C446.1,70.1,458,81.9,458.8,93.7"/>
								<path class="st33" d="M457,94.2c1.6,12.2-8.5,20.2-8.6,20.2c-6.5,4.1-6.6,4.1-16,4.6c-0.1,0-7.4-1.7-9.5-3.2
									c-23.5-17-8.3-37.7,4.2-41.5C439.3,70.7,455,78.6,457,94.2"/>
								<path class="st33" d="M455.5,94.6c1.8,16.2-17.3,32.3-35.3,17.9c-18.5-14.6-4.5-37.6,12.6-37.5
									C440,75.1,454,80.9,455.5,94.6"/>
								<path class="st34" d="M454,94.9c0.5,5.6-0.5,15.7-13.5,21.3c-3.8,1.7-14.3,2.2-22.3-6.1c-11.3-11.8-4.3-33.9,15-33.4
									C445.2,77,453.4,87.5,454,94.9"/>
								<path class="st35" d="M452.5,95.4c2,21.1-22.3,26.1-33.2,14.8c-13.3-13.9-1.8-33.5,14.2-32.2C446.7,79,452,90.1,452.5,95.4"
									/>
								<path class="st36" d="M451.4,95.5c1.6,10.7-5,14.9-11,18.6c-0.8,0.5-8.2,3-16.4-1.3c-1.1-0.6-11.1-6.2-9.4-19.6
									c0.4-3.1,5-11.8,13.6-13.8C435.2,77.6,449.4,82.5,451.4,95.5"/>
								<path class="st37" d="M450.3,101.6c0,0-2.5,5.5-3.2,6.5c-1.7,1.9-4.7,3.7-6.8,5.3c-2,1.4-5.7,1.1-8,1.3
									c-0.7,0.1-10.6-1.4-15.2-10.3c-5.7-10.9,3-26.1,17.3-24.1C444.3,81.6,452.5,92.5,450.3,101.6"/>
								<path class="st38" d="M449.2,101.7c-2.9,10.8-13.2,11.7-17,11.9c-2.7,0.3-6.1-1.3-8.3-2.8c-1.9-1.2-6-6.5-6-6.5
									c-5.4-9.7,1.7-25.3,16.8-22.9c0.6,0.1,7.3,3.1,7.3,3.1c1.4,1.1,2.7,1.9,5.5,6C450.5,94.6,449.2,101.6,449.2,101.7"/>
								<path class="st39" d="M448.1,102c-1.4,5-5.7,8-7.9,9.4c-2,1.4-5.6,1.3-8,1.6c-2.7,0.3-6-1.5-8.3-2.9c-1.9-1.2-4-3.6-5-5.7
									c-1.5-2.6-4.2-9.2,1.2-16.5c4.5-6.2,12.4-5.9,15-5.3c2.3,0.5,5.3,2.1,7.2,3.5c0.4,0.3,4.2,4.8,4.3,4.8
									C449.7,95.5,448.2,101.3,448.1,102"/>
								<path class="st40" d="M446.9,102.1c0,0.1-1.7,4.9-6.8,8.3c-2,1.3-5.5,1.5-8,1.7c0,0-6-1.8-8.3-3.2c-1.6-1-3.2-3-4.2-4.6
									c-4.9-8.3-0.2-14.5,1.3-16.5c1.9-2.7,6.5-4.1,7.8-4.5c1.9-0.5,4.5-0.3,6.5,0.3C435.5,83.5,450.9,88.6,446.9,102.1"/>
								<path class="st41" d="M446.1,99.3c-0.1,0.9,0.1,2.2-0.3,3c-1.1,2.1-2.9,4.9-4.8,6.5c-1.1,0.9-1.2,1.1-8.9,2.7
									c-0.1,0-7.9-1.2-11.4-7c-5-8-0.4-14.1,1.5-16.6c1.1-1.6,6.8-3.6,6.9-3.6c1.9-0.4,4.6-0.1,6.5,0.4c4.3,1.1,8.8,6.6,8.8,6.6
									C446.7,94.4,446.4,96.9,446.1,99.3"/>
								<path class="st42" d="M444.7,102.5c-0.9,2.1-2.8,4.9-4.9,6.1c-0.4,0.3-7.1,1.9-7.9,2c-0.1,0-7.8-1.7-10.6-6.3
									c-4.9-7.9-0.3-13.9,1.4-16.1c0.2-0.3,5.8-3.1,6.3-3.3c1.9-0.4,4.8,0.1,6.7,0.6C439.8,86.6,448.1,94.4,444.7,102.5"/>
								<path class="st43" d="M443.7,102.6c-0.7,1.7-2.3,3.9-3.9,4.9c-0.4,0.3-7.4,2.3-7.9,2.3c-0.4-0.1-8.2-4-8.2-4
									c-1.6-1.3-2.5-4.1-3.2-6c-1.6-4.1,0.7-8.9,2.4-10.3c1.1-1,5.5-3.4,6.4-3.6c2-0.4,4.9,0.2,6.8,0.7c0.6,0.2,6.1,4.9,6.2,5
									c0.7,1.6,1.9,3.6,2.1,5.3C444.7,98.5,444.4,101,443.7,102.6"/>
								<path class="st44" d="M442.6,102.8c-0.6,1.2-1.7,2.9-2.8,3.6c-2.1,1.2-5.4,3-7.8,2.6c-2.7-0.5-6.2-2.2-8.2-4.1
									c-1.2-1.2-2.7-6.1-2.7-6.1c0-0.1-0.1-6.4,2.1-7.9c0.3-0.2,5.5-3.8,6.5-4.1c2.1-0.4,5,0.2,7,1.1c1.7,0.7,3.6,2.5,4.9,3.9
									c1.1,1.3,1.7,3.7,2.3,5.3C444.2,98.5,443.3,101.1,442.6,102.8"/>
								<path class="st45" d="M441.5,103c-0.4,0.8-1.1,2-1.9,2.5c-2.1,1.1-5.3,3.1-7.7,2.7c-2.5-0.5-5.6-2.1-7.4-3.7
									c-1.4-1.3-2.7-5.5-2.7-5.6s-0.1-4.5,1.3-6.5c1.3-1.9,4.2-4,6.5-4.4c2.1-0.4,5,0.5,7.1,1.3c1.2,0.5,2.7,1.8,3.5,2.8
									c1.1,1.3,2.1,3.6,2.4,5.3C442.8,98.8,442.3,101.3,441.5,103"/>
								<path class="st46" d="M440.4,103c-0.3,0.4-0.6,1.1-1,1.2c-2.2,1.1-5.1,2.9-7.6,2.7c-1.9-0.2-4.2-1.7-5.7-2.9
									c-1-0.7-1.9-2.1-2.5-3.1c-2.2-3.8-0.1-7.9-0.1-8c1.4-1.9,4-4,6.3-4.5c2.1-0.4,5.1,0.8,7.2,1.6c0.7,0.3,1.7,1.1,2.1,1.8
									c1.1,1.4,2.3,3.5,2.5,5.3C441.8,99,441.2,101.5,440.4,103"/>
								<path class="st47" d="M439.3,103.1c-1.6,1.9-5.1,3.1-7.5,3c-1.3-0.1-3.1-1.1-4.1-2c-1.5-1.3-3.2-3.4-4.1-5.2
									c-0.4-0.8,1.7-5.8,1.7-5.8c1.1-1.4,3-3.1,4.7-3.4c2.2-0.4,5.1,1.1,7.3,1.8c0.3,0.1,0.6,0.4,0.8,0.7c1,1.4,2.4,3.5,2.7,5.3
									C440.8,99.2,440,101.6,439.3,103.1"/>
								<path class="st48" d="M438.9,100.7c-1.9,3.6-7.2,4.5-7.2,4.5c-0.8-0.1-1.9-0.7-2.5-1.2c-1.5-1.5-4.1-3.4-4.4-5.5
									c-0.3-1.8,1.1-4.1,2.1-5.6c0.7-1,2-2.1,3.1-2.3c1.9-0.4,4.4,1,6.2,1.7c0.5,0.3,1.1,0.8,1.4,1.2
									C439.1,95.1,440,98.7,438.9,100.7"/>
								<path class="st49" d="M438.5,98.2c-1.1,2.1-3.6,4.1-5.4,5.6c-0.4,0.3-1.1,0.6-1.6,0.6c-1.2-0.1-5.2-5.7-5.3-5.8
									c-0.3-1.8,1.3-4.1,2.2-5.7c0.3-0.5,1.1-1.1,1.7-1.2c1-0.2,2.4,0.3,3.2,0.9c1.6,1.2,3.6,2.8,5,4.2
									C438.5,97.1,438.7,97.7,438.5,98.2"/>
								<path class="st50" d="M431.4,102.8c-1.7-0.1-3.4-2.7-3.6-4.3c0-0.1,2.3-5.7,2.5-5.7c0.1,0,0.2,0,0.3,0.1
									c1.8,1.5,5.8,2.7,5.9,5C436.6,99.9,433.6,102.9,431.4,102.8"/>
								<path class="st51" d="M431.3,100.6c-0.9-0.1-1.8-1.3-1.9-2.2c-0.2-1,0.3-2.8,1.2-3.1c1.2-0.3,3.1,1.5,3.2,2.7
									C433.9,99.2,432.3,100.6,431.3,100.6"/>
								<path class="st52" d="M431,98.4c-0.1,0-0.2-0.1-0.2-0.2s0-0.3,0.1-0.3s0.3,0.2,0.3,0.3C431.2,98.3,431.1,98.4,431,98.4"/>
							</g>
						</g>
					</g>
				</g>
			</g>
		</g>
	</g>
	<g>
		<g>
			<g>
				
					<linearGradient id="SVGID_23_" gradientUnits="userSpaceOnUse" x1="-72.0215" y1="263.6095" x2="-35.9144" y2="263.6095" gradientTransform="matrix(-1 0 0 -1 385.4035 321.798)">
					<stop  offset="0" style="stop-color:#F2F2F2"/>
					<stop  offset="1" style="stop-color:#CCCCCC"/>
				</linearGradient>
				<path class="st54" d="M451,59.6c-0.5-1.6-0.9-2.5-1.3-3.5c0.7,0.4,1.2,0.7,1.9,1.2c0.4,1,0.7,1.7,1.2,3.1
					C452.2,60,451.8,59.9,451,59.6z"/>
				
					<linearGradient id="SVGID_24_" gradientUnits="userSpaceOnUse" x1="-72.0221" y1="266.1732" x2="-35.9121" y2="266.1732" gradientTransform="matrix(-1 0 0 -1 385.4035 321.798)">
					<stop  offset="0" style="stop-color:#F2F2F2"/>
					<stop  offset="1" style="stop-color:#CCCCCC"/>
				</linearGradient>
				<path class="st55" d="M449.1,60.1c-0.2,0.4-0.3,0.7-0.3,1.2c-2.2-1.5-3.6-1.9-6-3c0.4,1.9,0.7,3,1.1,5.2c-1-0.1-1.5-0.1-2.5-0.2
					c-0.3-2.2-0.4-3.3-0.8-5.1c-2,0.8-3.1,1.3-5.2,2.2c-0.4-0.5-0.6-0.8-0.9-1.3c2.5-1,3.6-1.5,5.9-2.4c-0.5-2.5-0.8-3.6-1.4-5.3
					c-2.9,0.7-4.5,1.2-7.8,2.1c0.2,1.5,0.2,2.4,0.3,4.3c-0.8,0.1-1.2,0.2-2.1,0.3c0-1.7,0-2.6,0-4c-2.4,0.7-3.6,1.1-6.1,2
					c-0.5-0.5-0.8-0.7-1.3-1.2c2.6-0.8,3.8-1.1,6.2-1.8c-2.5-0.6-3.6-0.9-6-1.4c0.5-0.3,0.7-0.4,1.2-0.7c2.7,0.6,4,0.9,6.7,1.6
					c3.3-0.9,4.9-1.2,7.8-1.9c-3.6-0.9-5.3-1.2-8.7-1.8c-2.2,0.3-3.4,0.5-5.9,1c-0.5-0.3-0.7-0.3-1.2-0.5c2.1-0.4,3.2-0.5,5.3-0.7
					c-2.4-0.4-3.5-0.5-5.7-0.7c0.4-0.2,0.6-0.2,1-0.3c2.1,0.2,3.3,0.3,5.6,0.6c0,0,0,0-0.1-0.1c4.4,0.7,8.8,1.8,12.7,3.4
					c0.7,1.7,1.1,2.7,1.7,5.2C445.1,58.1,446.5,58.4,449.1,60.1z"/>
				
					<linearGradient id="SVGID_25_" gradientUnits="userSpaceOnUse" x1="-31.0827" y1="265.5544" x2="4.703" y2="265.5544" gradientTransform="matrix(-1 0 0 -1 385.4035 321.798)">
					<stop  offset="0" style="stop-color:#F2F2F2"/>
					<stop  offset="1" style="stop-color:#CCCCCC"/>
				</linearGradient>
				<path class="st56" d="M414.6,50.5c0.4,0.3,0.7,0.4,1.2,0.6c-2.3,0.5-3.5,0.7-6,1.3c2.4,0.6,3.6,1,6.1,1.7
					c-0.5,0.4-0.7,0.7-1.3,1.1c-2.5-0.8-3.7-1.2-6-1.9c-0.1,1.3-0.1,2.1-0.1,3.7c-0.8-0.1-1.2-0.2-2.1-0.3c0.1-1.9,0.2-2.7,0.3-4.1
					c-3.2-0.9-4.8-1.3-7.6-2c-0.6,1.6-0.9,2.7-1.4,5c2.2,0.8,3.4,1.2,5.8,2.2c-0.4,0.5-0.5,0.7-0.9,1.2c-2.1-0.9-3.2-1.3-5.1-2.1
					c-0.4,1.8-0.5,2.8-0.9,5c-1,0.1-1.5,0.1-2.5,0.2c0.4-2.1,0.6-3.2,1.1-5c-2.4,1.1-3.7,1.3-5.9,2.8c-0.2-0.4-0.3-0.7-0.3-1.1
					c2.5-1.7,4-2,6.6-3.1c0.6-2.1,1-3.2,1.7-4.6c1.1-0.4,2.1-0.7,3.2-1.1c2.8,0.6,4.3,0.9,7.5,1.7C410.7,51.3,412,51.1,414.6,50.5z"
					/>
				
					<linearGradient id="SVGID_26_" gradientUnits="userSpaceOnUse" x1="-31.0815" y1="264.4052" x2="4.7026" y2="264.4052" gradientTransform="matrix(-1 0 0 -1 385.4035 321.798)">
					<stop  offset="0" style="stop-color:#F2F2F2"/>
					<stop  offset="1" style="stop-color:#CCCCCC"/>
				</linearGradient>
				<path class="st57" d="M385.1,59.3c0.4-1.1,0.7-1.9,1.1-2.7c0.6-0.4,1.2-0.7,1.9-1.1c-0.4,0.9-0.7,1.7-1.2,3
					C386.3,58.9,385.9,59,385.1,59.3z"/>
				
					<linearGradient id="SVGID_27_" gradientUnits="userSpaceOnUse" x1="-31.0827" y1="272.8477" x2="4.7029" y2="272.8477" gradientTransform="matrix(-1 0 0 -1 385.4035 321.798)">
					<stop  offset="0" style="stop-color:#F2F2F2"/>
					<stop  offset="1" style="stop-color:#CCCCCC"/>
				</linearGradient>
				<path class="st58" d="M410.8,48.4c2,0.3,3.1,0.4,5.1,0.7c-0.5,0.2-0.7,0.3-1.2,0.4c-2.4-0.4-3.6-0.5-5.8-0.8
					c-3.1,0.4-4.8,0.7-7.9,1.4c4.6-1.3,9.5-2.1,14.6-2.5c0.3,0,0.4,0.1,0.8,0.2C414.3,48,413.1,48.1,410.8,48.4z"/>
				
					<linearGradient id="SVGID_28_" gradientUnits="userSpaceOnUse" x1="-94.8521" y1="222.8113" x2="-82.1092" y2="222.8113" gradientTransform="matrix(-1 0 0 -1 385.4035 321.798)">
					<stop  offset="0" style="stop-color:#F2F2F2"/>
					<stop  offset="1" style="stop-color:#CCCCCC"/>
				</linearGradient>
				<path class="st59" d="M479.3,98.8c0,0.2,0.1,0.3,0.1,0.4c-0.1,0-0.1-0.1-0.2-0.1C479.3,99,479.3,98.9,479.3,98.8z"/>
				
					<linearGradient id="SVGID_29_" gradientUnits="userSpaceOnUse" x1="-94.8521" y1="222.8113" x2="-82.1092" y2="222.8113" gradientTransform="matrix(-1 0 0 -1 385.4035 321.798)">
					<stop  offset="0" style="stop-color:#F2F2F2"/>
					<stop  offset="1" style="stop-color:#CCCCCC"/>
				</linearGradient>
				<path class="st60" d="M479.3,98.8c0,0.2,0.1,0.3,0.1,0.4c-0.1,0-0.1-0.1-0.2-0.1C479.3,99,479.3,98.9,479.3,98.8z"/>
				
					<linearGradient id="SVGID_30_" gradientUnits="userSpaceOnUse" x1="-94.8523" y1="226.7453" x2="-82.1027" y2="226.7453" gradientTransform="matrix(-1 0 0 -1 385.4035 321.798)">
					<stop  offset="0" style="stop-color:#F2F2F2"/>
					<stop  offset="1" style="stop-color:#CCCCCC"/>
				</linearGradient>
				<path class="st61" d="M480.1,107.2c0,0.6-0.1,0.9-0.1,1.5c-0.3-1.2-0.5-1.9-1.1-3.3c0,2.5,0,3.7,0.1,6.3c-0.3,0-0.4,0-0.7,0
					c0-2.6,0-3.8,0-6.5c-0.7,1.2-1.2,1.8-2.1,3.1c-0.2-0.7-0.3-1.1-0.4-1.8c1.2-1.4,1.7-2.1,2.6-3.3c0-3.6-0.1-5.3-0.2-8.8
					c-1.1,1.2-1.9,1.9-3.7,3.5c0,2.7,0,4.2-0.1,7c-0.4,0.1-0.7,0.2-1.2,0.3c0.1-2.6,0.1-3.8,0.2-6.4c-1.4,1.2-2.2,1.8-4,3.1
					c-0.4-0.8-0.5-1.2-0.9-2.1c1.8-1.2,2.7-1.9,4.2-3c-1.5-1.3-2.3-2.1-4.1-3.5c0.4-0.5,0.5-0.8,0.9-1.3c1.9,1.7,2.8,2.5,4.4,4.1
					c1.9-1.5,2.7-2.1,4.1-3.2c-1.3-2.3-2.2-3.6-4.3-6c-1.5,0.7-2.3,1.2-4.2,2.1c-0.4-0.7-0.6-1-1.1-1.7c1.7-0.7,2.5-1.1,4-1.8
					c-1.7-1.8-2.6-2.7-4.5-4.4c0.3-0.7,0.4-1,0.6-1.6c2.1,1.7,3,2.7,4.5,4.4c-0.3-2.4-0.6-3.5-1.2-5.6c0.3,0.2,0.5,0.3,0.7,0.4
					c0.3,0.5,0.6,1.1,0.9,1.6c0.4,1.7,0.7,2.8,0.8,5c1.6,2,2.5,3.2,3.4,4.8c0.6,1.7,1.1,3.5,1.5,5.3c0.1,3,0.2,4.8,0.2,8
					C479.6,105,479.7,105.8,480.1,107.2z"/>
				
					<linearGradient id="SVGID_31_" gradientUnits="userSpaceOnUse" x1="-94.8523" y1="226.7453" x2="-82.1027" y2="226.7453" gradientTransform="matrix(-1 0 0 -1 385.4035 321.798)">
					<stop  offset="0" style="stop-color:#F2F2F2"/>
					<stop  offset="1" style="stop-color:#CCCCCC"/>
				</linearGradient>
				<path class="st62" d="M480.1,107.2c0,0.6-0.1,0.9-0.1,1.5c-0.3-1.2-0.5-1.9-1.1-3.3c0,2.5,0,3.7,0.1,6.3c-0.3,0-0.4,0-0.7,0
					c0-2.6,0-3.8,0-6.5c-0.7,1.2-1.2,1.8-2.1,3.1c-0.2-0.7-0.3-1.1-0.4-1.8c1.2-1.4,1.7-2.1,2.6-3.3c0-3.6-0.1-5.3-0.2-8.8
					c-1.1,1.2-1.9,1.9-3.7,3.5c0,2.7,0,4.2-0.1,7c-0.4,0.1-0.7,0.2-1.2,0.3c0.1-2.6,0.1-3.8,0.2-6.4c-1.4,1.2-2.2,1.8-4,3.1
					c-0.4-0.8-0.5-1.2-0.9-2.1c1.8-1.2,2.7-1.9,4.2-3c-1.5-1.3-2.3-2.1-4.1-3.5c0.4-0.5,0.5-0.8,0.9-1.3c1.9,1.7,2.8,2.5,4.4,4.1
					c1.9-1.5,2.7-2.1,4.1-3.2c-1.3-2.3-2.2-3.6-4.3-6c-1.5,0.7-2.3,1.2-4.2,2.1c-0.4-0.7-0.6-1-1.1-1.7c1.7-0.7,2.5-1.1,4-1.8
					c-1.7-1.8-2.6-2.7-4.5-4.4c0.3-0.7,0.4-1,0.6-1.6c2.1,1.7,3,2.7,4.5,4.4c-0.3-2.4-0.6-3.5-1.2-5.6c0.3,0.2,0.5,0.3,0.7,0.4
					c0.3,0.5,0.6,1.1,0.9,1.6c0.4,1.7,0.7,2.8,0.8,5c1.6,2,2.5,3.2,3.4,4.8c0.6,1.7,1.1,3.5,1.5,5.3c0.1,3,0.2,4.8,0.2,8
					C479.6,105,479.7,105.8,480.1,107.2z"/>
				
					<linearGradient id="SVGID_32_" gradientUnits="userSpaceOnUse" x1="-94.8522" y1="218.3912" x2="-82.1016" y2="218.3912" gradientTransform="matrix(-1 0 0 -1 385.4035 321.798)">
					<stop  offset="0" style="stop-color:#F2F2F2"/>
					<stop  offset="1" style="stop-color:#CCCCCC"/>
				</linearGradient>
				<path class="st63" d="M479.2,103.6c0.3-0.6,0.5-1.1,0.7-1.5c0.1,0.4,0.1,0.9,0.2,1.3c-0.1,0.4-0.3,0.8-0.5,1.3
					C479.4,104.4,479.3,104,479.2,103.6z"/>
				
					<linearGradient id="SVGID_33_" gradientUnits="userSpaceOnUse" x1="-94.8522" y1="218.3912" x2="-82.1016" y2="218.3912" gradientTransform="matrix(-1 0 0 -1 385.4035 321.798)">
					<stop  offset="0" style="stop-color:#F2F2F2"/>
					<stop  offset="1" style="stop-color:#CCCCCC"/>
				</linearGradient>
				<path class="st64" d="M479.2,103.6c0.3-0.6,0.5-1.1,0.7-1.5c0.1,0.4,0.1,0.9,0.2,1.3c-0.1,0.4-0.3,0.8-0.5,1.3
					C479.4,104.4,479.3,104,479.2,103.6z"/>
				
					<linearGradient id="SVGID_34_" gradientUnits="userSpaceOnUse" x1="-78.4903" y1="233.6408" x2="-36.8056" y2="233.6408" gradientTransform="matrix(-1 0 0 -1 385.4035 321.798)">
					<stop  offset="0" style="stop-color:#F2F2F2"/>
					<stop  offset="1" style="stop-color:#CCCCCC"/>
				</linearGradient>
				<path class="st65" d="M462.9,99.9c-2.1-1.7-3.3-2.6-5.7-4.2c0.3,2.8,0.4,4.3,0.6,7.2c-0.7-0.3-1.1-0.3-1.9-0.5
					c-0.3-3.3-0.3-4.9-0.6-8c-3.5-2.5-5.5-3.6-9.5-6.1c0.3,4.3,0.4,6.6,0.5,11.2c2.9,1.9,4.4,2.8,7,4.7c-0.3,0.8-0.4,1.2-0.7,2.1
					c-2.2-1.7-3.6-2.6-6.1-4.2c0.1,3.3,0.2,5,0.2,8.3c-1.1,0-1.7,0-2.7,0c0-3.4,0-5,0-8.3c-2.5,1.7-3.8,2.5-6.5,4.2
					c-0.4-0.9-0.5-1.3-0.9-2.1c3-1.9,4.5-2.7,7.3-4.5c-0.1-4.5-0.1-6.9-0.3-11.2c-3.9,2-5.9,3.1-10,5.4c-0.1,3.4-0.2,5-0.3,8.4
					c-1,0.2-1.5,0.3-2.5,0.4c0.2-3.1,0.3-4.6,0.4-7.6c-3,1.7-4.5,2.5-7.5,4.1c-0.6-0.9-0.9-1.4-1.5-2.3c3.1-1.7,4.6-2.5,7.7-4.1
					c-2.9-1.3-4.4-2-7.3-3.4c0.6-0.7,1-1.1,1.6-1.7c3.3,1.5,5,2.3,8.1,3.9c4.2-2.1,6.2-3.2,10.1-5.1c-4.1-2.3-6.2-3.5-10.3-5.7
					c-3.1,1.3-4.7,2-7.9,3.4c-0.6-0.7-1-1-1.6-1.7c2.8-1.2,4.2-1.9,7.1-3c-3.1-1.6-4.5-2.4-7.5-3.7c0.6-0.7,0.8-1.1,1.4-1.9
					c2.9,1.4,4.4,2.1,7.3,3.6c-0.3-2.7-0.4-3.8-0.7-6.2c1,0.2,1.4,0.3,2.3,0.4c0.3,2.7,0.5,4.1,0.8,7.1c4.2,2.3,6.2,3.5,10.3,5.9
					c-0.3-4.3-0.4-6.5-0.8-10.2c-2.9-1.7-4.3-2.6-7.2-4.1c0.3-0.7,0.4-1,0.7-1.7c2.6,1.3,3.8,2.1,6.4,3.6c-0.3-2.7-0.4-3.9-0.8-6.2
					c1,0.1,1.5,0.1,2.5,0.2c0.3,2.4,0.4,3.6,0.7,6.3c2.1-1.2,3.4-1.9,5.3-2.7c0.4,0.7,0.6,1.1,1,1.8c-2.2,1.1-3.5,1.8-6,3.1
					c0.3,3.8,0.4,5.9,0.7,10.2c3.7-1.9,5.5-2.8,8.8-4.5c-0.2-2.9-0.3-4.2-0.5-7c0.7,0,1.1,0,1.9,0c0.3,2.3,0.4,3.4,0.5,6
					c2.2-1.1,3.3-1.6,5.1-2.5c0.6,0.8,0.8,1.2,1.4,2c-1.9,0.8-3.1,1.3-5.3,2.5c2.3,1.5,3.4,2.1,5.6,3.6c-0.4,0.5-0.6,0.8-1.1,1.3
					c-2.4-1.7-3.6-2.6-6.5-4.2c-3.3,1.6-5,2.5-8.8,4.3c4,2.3,5.9,3.6,9.4,6c2.5-1.2,3.6-1.8,6-2.8c0.4,0.7,0.7,1.1,1.2,1.7
					c-1.9,1-3,1.4-5.1,2.5c2.4,1.7,3.6,2.6,5.7,4.2C463.5,98.7,463.3,99.1,462.9,99.9z"/>
				
					<linearGradient id="SVGID_35_" gradientUnits="userSpaceOnUse" x1="-30.1664" y1="235.4972" x2="11.4772" y2="235.4972" gradientTransform="matrix(-1 0 0 -1 385.4035 321.798)">
					<stop  offset="0" style="stop-color:#F2F2F2"/>
					<stop  offset="1" style="stop-color:#CCCCCC"/>
				</linearGradient>
				<path class="st66" d="M415,80.5c-0.6,0.7-1,1-1.6,1.7c-3.2-1.4-4.8-2.1-7.9-3.4c-4.2,2.2-6.3,3.4-10.3,5.7
					c3.9,1.9,5.9,2.9,10.1,5c3.2-1.6,4.9-2.3,8.1-3.8c0.6,0.7,0.9,1,1.6,1.7c-2.9,1.3-4.4,2-7.2,3.4c3.1,1.6,4.5,2.3,7.7,4
					c-0.6,0.9-0.9,1.4-1.5,2.3c-3.1-1.7-4.5-2.5-7.4-4.1c0.2,3,0.3,4.5,0.4,7.5c-1-0.2-1.5-0.3-2.5-0.4c-0.2-3.4-0.3-5-0.3-8.4
					c-4.1-2.2-6.1-3.3-9.9-5.3c-0.2,4.3-0.3,6.5-0.3,11.1c2.8,1.7,4.2,2.7,7.2,4.5c-0.4,0.9-0.5,1.3-0.9,2.1
					c-2.7-1.7-3.9-2.6-6.4-4.1c0,3.3-0.1,5,0,8.3c-1.1,0-1.7,0-2.7,0c0.1-3.3,0.1-5,0.2-8.2c-2.6,1.7-3.9,2.6-6.1,4.2
					c-0.3-0.8-0.4-1.2-0.7-2.1c2.6-1.9,4.1-2.8,7-4.7c0.2-4.5,0.3-6.8,0.6-11.1c-4,2.4-6,3.6-9.5,6.1c-0.3,3.2-0.4,4.8-0.7,8
					c-0.8,0.3-1.2,0.3-1.9,0.5c0.3-2.9,0.4-4.3,0.6-7.2c-2.4,1.7-3.5,2.7-5.7,4.3c-0.4-0.8-0.6-1.2-1-2c2.1-1.7,3.3-2.6,5.7-4.2
					c-2.1-1.1-3.2-1.5-5.1-2.5c0.4-0.7,0.7-1.1,1.2-1.7c2.2,1.1,3.4,1.6,6,2.7c3.5-2.4,5.4-3.6,9.4-6c-3.7-1.9-5.5-2.7-8.8-4.2
					c-2.7,1.7-4.1,2.6-6.5,4.2c-0.4-0.5-0.6-0.8-1.1-1.3c2.1-1.5,3.2-2.2,5.6-3.6c-2.3-1.1-3.3-1.5-5.2-2.3c0.5-0.8,0.8-1.2,1.4-2
					c1.9,0.8,2.8,1.2,5,2.3c0.3-2.5,0.3-3.6,0.5-5.9c0.7,0,1.1,0,1.9-0.1c-0.3,2.7-0.4,3.9-0.6,6.8c3.3,1.6,5,2.5,8.8,4.3
					c0.3-4.2,0.4-6.3,0.7-9.9c-2.6-1.2-3.8-2-6-3c0.4-0.7,0.6-1.1,1-1.8c1.9,0.9,3.1,1.6,5.2,2.7c0.3-2.6,0.4-3.8,0.7-6.1
					c1-0.1,1.5-0.1,2.5-0.2c-0.4,2.3-0.5,3.5-0.8,6.1c2.6-1.5,3.8-2.1,6.3-3.5c0.3,0.6,0.4,1,0.7,1.6c-2.9,1.5-4.3,2.3-7.2,4
					c-0.4,3.7-0.6,5.7-0.9,10c4.1-2.4,6.1-3.6,10.3-5.8c0.3-3.1,0.4-4.2,0.8-6.9c0.9-0.2,1.4-0.3,2.3-0.4c-0.3,2.3-0.4,3.5-0.8,6
					c2.9-1.5,4.4-2.2,7.3-3.6c0.5,0.7,0.8,1.1,1.4,1.9c-3,1.3-4.5,2-7.5,3.6C410.8,78.7,412.2,79.3,415,80.5z"/>
				
					<linearGradient id="SVGID_36_" gradientUnits="userSpaceOnUse" x1="14.3371" y1="224.27" x2="27.8835" y2="224.27" gradientTransform="matrix(-1 0 0 -1 385.4035 321.798)">
					<stop  offset="0" style="stop-color:#F2F2F2"/>
					<stop  offset="1" style="stop-color:#CCCCCC"/>
				</linearGradient>
				<path class="st67" d="M368.6,87.6c0.4,0.5,0.5,0.7,0.9,1.2c-1.8,1.5-2.7,2.2-4.2,3.6c1.5,1,2.3,1.6,4.2,2.7
					c-0.4,0.8-0.6,1.2-1,2.1c-1.7-1.2-2.6-1.8-4-2.9c0,2.5,0.1,3.7,0.1,6.3c-0.4-0.1-0.7-0.2-1.2-0.3c0-2.7,0-4.2,0-6.9
					c-1.9-1.4-2.7-2.1-3.8-3.1c-0.1,3.4-0.2,5.1-0.2,8.8c0.8,1.1,1.3,1.7,2.6,3.1c-0.2,0.7-0.3,1.1-0.4,1.8
					c-1.1-1.2-1.5-1.8-2.1-2.9c0,2.6,0,3.8-0.1,6.4c-0.3,0-0.4,0.1-0.7,0.1c0-2.5,0-3.7,0.1-6.2c-0.6,1.5-0.9,2.1-1.1,3.6
					c0-0.6-0.1-0.9-0.1-1.5c0.2-0.8,0.3-1.4,0.5-2c0,0.1,0.1,0.2,0.1,0.3c0.1-0.4,0.2-0.7,0.3-1.2l0,0c0.2-0.3,0.3-0.6,0.4-1
					c0.1-2.8,0.1-4.5,0.2-7c0.4-1.2,0.7-2.4,1.1-3.6c1.2,0.9,2,1.5,4,2.8C365.8,90.1,366.7,89.2,368.6,87.6z"/>
				
					<linearGradient id="SVGID_37_" gradientUnits="userSpaceOnUse" x1="14.3362" y1="240.0058" x2="27.8838" y2="240.0058" gradientTransform="matrix(-1 0 0 -1 385.4035 321.798)">
					<stop  offset="0" style="stop-color:#F2F2F2"/>
					<stop  offset="1" style="stop-color:#CCCCCC"/>
				</linearGradient>
				<path class="st68" d="M370.6,75.7c0.3,0.5,0.3,0.8,0.5,1.4c-2.1,1.7-3.2,2.6-5,4.2c1.2,0.4,2.1,0.8,3.9,1.5
					c-0.4,0.7-0.6,1-1.1,1.7c-1.9-0.8-2.7-1.2-4.2-1.9c-2,2.3-3,3.6-4.2,5.7c0.6-1.7,1.3-3.4,2.1-5c0.4-0.6,1.1-1.2,1.8-1.9
					c0.4-1.2,0.6-2.1,0.9-3.1c0.7-1.1,1.3-2.1,2-3.3c-0.6,1.9-0.9,2.9-1.5,5C367.6,78.3,368.5,77.4,370.6,75.7z"/>
				
					<linearGradient id="SVGID_38_" gradientUnits="userSpaceOnUse" x1="14.3027" y1="226.0381" x2="27.8855" y2="226.0381" gradientTransform="matrix(-1 0 0 -1 385.4035 321.798)">
					<stop  offset="0" style="stop-color:#F2F2F2"/>
					<stop  offset="1" style="stop-color:#CCCCCC"/>
				</linearGradient>
				<path class="st69" d="M358.3,96.1c0.1-0.3,0.1-0.4,0.2-0.6c0,0.2,0.1,0.3,0.1,0.5C358.4,96,358.3,96,358.3,96.1z"/>
				
					<linearGradient id="SVGID_39_" gradientUnits="userSpaceOnUse" x1="27.8367" y1="219.6288" x2="27.8367" y2="219.6288" gradientTransform="matrix(-1 0 0 -1 385.4035 321.798)">
					<stop  offset="0" style="stop-color:#F2F2F2"/>
					<stop  offset="1" style="stop-color:#CCCCCC"/>
				</linearGradient>
				<path class="st70" d="M357.6,102.5c0-0.4,0-0.9,0-1.2c0,0.5,0,1.1,0,1.8C357.6,102.8,357.6,102.6,357.6,102.5z"/>
				
					<linearGradient id="SVGID_40_" gradientUnits="userSpaceOnUse" x1="27.8367" y1="221.4165" x2="27.8367" y2="221.4165" gradientTransform="matrix(-1 0 0 -1 385.4035 321.798)">
					<stop  offset="0" style="stop-color:#F2F2F2"/>
					<stop  offset="1" style="stop-color:#CCCCCC"/>
				</linearGradient>
				<path class="st71" d="M357.6,99.7C357.6,99.7,357.6,99.6,357.6,99.7c0,0.4,0,0.9,0,1.4C357.6,100.7,357.6,100.1,357.6,99.7z"/>
				
					<linearGradient id="SVGID_41_" gradientUnits="userSpaceOnUse" x1="14.3366" y1="221.9273" x2="27.8835" y2="221.9273" gradientTransform="matrix(-1 0 0 -1 385.4035 321.798)">
					<stop  offset="0" style="stop-color:#F2F2F2"/>
					<stop  offset="1" style="stop-color:#CCCCCC"/>
				</linearGradient>
				<path class="st72" d="M358.2,101.5c-0.3-0.8-0.4-1.5-0.5-2.2c0.1-0.3,0.1-0.7,0.2-1c0.2,0.7,0.4,1.3,0.7,2.1
					C358.5,100.8,358.3,101.1,358.2,101.5z"/>
				
					<linearGradient id="SVGID_42_" gradientUnits="userSpaceOnUse" x1="-94.8346" y1="193.9476" x2="-81.2891" y2="193.9476" gradientTransform="matrix(-1 0 0 -1 385.4035 321.798)">
					<stop  offset="0" style="stop-color:#F2F2F2"/>
					<stop  offset="1" style="stop-color:#CCCCCC"/>
				</linearGradient>
				<path class="st73" d="M469.1,134.3c-0.4-0.5-0.5-0.7-0.9-1.2c1.8-1.5,2.7-2.2,4.2-3.6c-1.5-1-2.3-1.6-4.2-2.7
					c0.4-0.9,0.6-1.2,1-2.1c1.7,1.2,2.6,1.8,4,2.9c0-2.5-0.1-3.7-0.1-6.3c0.4,0.1,0.7,0.1,1.2,0.2c0,2.8,0,4.2,0,7
					c1.1,0.8,1.8,1.4,2.5,1.9c-0.3,0.5-0.4,1.1-0.6,1.7c-0.7-0.4-1.4-1-2.5-1.7C472,131.8,471.1,132.7,469.1,134.3z"/>
				
					<linearGradient id="SVGID_43_" gradientUnits="userSpaceOnUse" x1="-94.8346" y1="193.9476" x2="-81.2891" y2="193.9476" gradientTransform="matrix(-1 0 0 -1 385.4035 321.798)">
					<stop  offset="0" style="stop-color:#F2F2F2"/>
					<stop  offset="1" style="stop-color:#CCCCCC"/>
				</linearGradient>
				<path class="st74" d="M469.1,134.3c-0.4-0.5-0.5-0.7-0.9-1.2c1.8-1.5,2.7-2.2,4.2-3.6c-1.5-1-2.3-1.6-4.2-2.7
					c0.4-0.9,0.6-1.2,1-2.1c1.7,1.2,2.6,1.8,4,2.9c0-2.5-0.1-3.7-0.1-6.3c0.4,0.1,0.7,0.1,1.2,0.2c0,2.8,0,4.2,0,7
					c1.1,0.8,1.8,1.4,2.5,1.9c-0.3,0.5-0.4,1.1-0.6,1.7c-0.7-0.4-1.4-1-2.5-1.7C472,131.8,471.1,132.7,469.1,134.3z"/>
				
					<linearGradient id="SVGID_44_" gradientUnits="userSpaceOnUse" x1="-94.8344" y1="180.0241" x2="-81.289" y2="180.0241" gradientTransform="matrix(-1 0 0 -1 385.4035 321.798)">
					<stop  offset="0" style="stop-color:#F2F2F2"/>
					<stop  offset="1" style="stop-color:#CCCCCC"/>
				</linearGradient>
				<path class="st75" d="M466.7,144.8c2.1-1.7,3.2-2.6,5-4.2c-1.2-0.4-2.1-0.8-3.9-1.5c0.4-0.7,0.6-1,1.1-1.7
					c1.7,0.7,2.6,1.1,3.7,1.7c-1,1.9-2.1,3.6-3.3,5.3c-0.6,0.5-1.3,1.1-2.1,1.9C467,145.7,466.9,145.3,466.7,144.8z"/>
				
					<linearGradient id="SVGID_45_" gradientUnits="userSpaceOnUse" x1="-94.8344" y1="180.0241" x2="-81.289" y2="180.0241" gradientTransform="matrix(-1 0 0 -1 385.4035 321.798)">
					<stop  offset="0" style="stop-color:#F2F2F2"/>
					<stop  offset="1" style="stop-color:#CCCCCC"/>
				</linearGradient>
				<path class="st76" d="M466.7,144.8c2.1-1.7,3.2-2.6,5-4.2c-1.2-0.4-2.1-0.8-3.9-1.5c0.4-0.7,0.6-1,1.1-1.7
					c1.7,0.7,2.6,1.1,3.7,1.7c-1,1.9-2.1,3.6-3.3,5.3c-0.6,0.5-1.3,1.1-2.1,1.9C467,145.7,466.9,145.3,466.7,144.8z"/>
				
					<linearGradient id="SVGID_46_" gradientUnits="userSpaceOnUse" x1="-94.8349" y1="201.7713" x2="-81.2876" y2="201.7713" gradientTransform="matrix(-1 0 0 -1 385.4035 321.798)">
					<stop  offset="0" style="stop-color:#F2F2F2"/>
					<stop  offset="1" style="stop-color:#CCCCCC"/>
				</linearGradient>
				<path class="st77" d="M475.6,119.7c0.2-0.7,0.3-1.1,0.4-1.8c1.1,1.2,1.5,1.8,2.1,2.9c0-2.6,0-3.8,0.1-6.4c0.3,0,0.4-0.1,0.7-0.1
					c0,2.5,0,3.7-0.1,6.2c0.4-0.8,0.5-1.3,0.7-1.9c-0.2,1.2-0.4,2.4-0.7,3.6c-0.1,0.1-0.1,0.3-0.2,0.3c0,0.2,0,0.3,0,0.4
					c-0.3,1-0.4,1.9-0.7,2.8c0-0.9,0-1.8,0.1-2.9C477.3,121.6,476.8,121,475.6,119.7z"/>
				
					<linearGradient id="SVGID_47_" gradientUnits="userSpaceOnUse" x1="-94.8349" y1="201.7713" x2="-81.2876" y2="201.7713" gradientTransform="matrix(-1 0 0 -1 385.4035 321.798)">
					<stop  offset="0" style="stop-color:#F2F2F2"/>
					<stop  offset="1" style="stop-color:#CCCCCC"/>
				</linearGradient>
				<path class="st78" d="M475.6,119.7c0.2-0.7,0.3-1.1,0.4-1.8c1.1,1.2,1.5,1.8,2.1,2.9c0-2.6,0-3.8,0.1-6.4c0.3,0,0.4-0.1,0.7-0.1
					c0,2.5,0,3.7-0.1,6.2c0.4-0.8,0.5-1.3,0.7-1.9c-0.2,1.2-0.4,2.4-0.7,3.6c-0.1,0.1-0.1,0.3-0.2,0.3c0,0.2,0,0.3,0,0.4
					c-0.3,1-0.4,1.9-0.7,2.8c0-0.9,0-1.8,0.1-2.9C477.3,121.6,476.8,121,475.6,119.7z"/>
				
					<linearGradient id="SVGID_48_" gradientUnits="userSpaceOnUse" x1="-78.44" y1="186.5217" x2="-36.802" y2="186.5217" gradientTransform="matrix(-1 0 0 -1 385.4035 321.798)">
					<stop  offset="0" style="stop-color:#F2F2F2"/>
					<stop  offset="1" style="stop-color:#CCCCCC"/>
				</linearGradient>
				<path class="st79" d="M422.7,141.3c0.6-0.7,1-1,1.6-1.7c3.2,1.4,4.8,2.1,7.9,3.4c4.2-2.2,6.3-3.4,10.3-5.7
					c-3.9-1.9-5.9-2.9-10.1-5c-3.2,1.6-4.9,2.4-8.1,3.9c-0.6-0.7-0.9-1-1.6-1.7c2.9-1.3,4.4-2,7.2-3.4c-3.1-1.6-4.5-2.3-7.7-4
					c0.6-1,0.9-1.4,1.5-2.3c3.1,1.7,4.5,2.6,7.4,4.1c-0.2-3-0.3-4.5-0.4-7.5c1,0.2,1.5,0.3,2.5,0.4c0.2,3.4,0.3,5.1,0.3,8.4
					c4.1,2.2,6.1,3.3,9.9,5.3c0.2-4.3,0.3-6.5,0.3-11.1c-2.8-1.7-4.2-2.7-7.2-4.5c0.4-0.9,0.5-1.3,0.9-2.2c2.7,1.7,3.9,2.6,6.4,4.1
					c0-3.3,0.1-5,0-8.3c1.1,0,1.7,0,2.7,0c-0.1,3.3-0.1,5-0.2,8.2c2.6-1.7,3.9-2.6,6.1-4.2c0.3,0.8,0.4,1.2,0.7,2.1
					c-2.6,1.9-4.1,2.8-7,4.7c-0.2,4.5-0.3,6.8-0.6,11.1c4-2.4,6-3.6,9.5-6.1c0.3-3.2,0.4-4.8,0.7-8c0.8-0.3,1.2-0.3,1.9-0.4
					c-0.3,2.9-0.4,4.3-0.6,7.2c2.4-1.8,3.5-2.7,5.7-4.3c0.4,0.8,0.6,1.2,1,2c-2.1,1.7-3.3,2.6-5.7,4.2c2.1,1.1,3.2,1.5,5.1,2.5
					c-0.4,0.7-0.7,1.1-1.2,1.7c-2.2-1.1-3.4-1.7-5.9-2.8c-3.5,2.4-5.4,3.6-9.4,6c3.7,1.9,5.5,2.7,8.8,4.2c2.7-1.7,4.1-2.5,6.5-4.2
					c0.4,0.5,0.6,0.8,1.1,1.3c-2.1,1.5-3.2,2.2-5.6,3.6c2.3,1.1,3.3,1.5,5.2,2.3c-0.5,0.8-0.8,1.2-1.4,1.9c-1.9-0.8-2.8-1.2-5-2.3
					c-0.3,2.5-0.3,3.6-0.5,5.9c-0.7,0-1.1,0-1.9,0c0.3-2.6,0.4-3.9,0.6-6.7c-3.3-1.6-5-2.5-8.8-4.3c-0.3,4.2-0.4,6.3-0.7,9.9
					c2.6,1.2,3.8,2,6,3c-0.4,0.7-0.6,1.1-1,1.7c-1.9-0.9-3.1-1.6-5.2-2.7c-0.3,2.7-0.4,3.8-0.7,6.1c-1,0.1-1.5,0.1-2.5,0.2
					c0.4-2.3,0.5-3.5,0.8-6.1c-2.6,1.5-3.8,2.1-6.3,3.5c-0.3-0.6-0.4-0.9-0.7-1.6c2.9-1.5,4.3-2.3,7.2-4c0.4-3.7,0.6-5.7,0.9-10
					c-4.1,2.4-6.1,3.6-10.3,5.8c-0.3,3.1-0.4,4.2-0.8,6.9c-0.9,0.2-1.4,0.3-2.3,0.4c0.3-2.3,0.4-3.5,0.8-6c-2.9,1.5-4.4,2.1-7.3,3.5
					c-0.5-0.7-0.8-1.1-1.4-1.8c3-1.3,4.5-2,7.5-3.6C427,143.2,425.5,142.6,422.7,141.3z"/>
				
					<linearGradient id="SVGID_49_" gradientUnits="userSpaceOnUse" x1="-30.1117" y1="187.9362" x2="11.5727" y2="187.9362" gradientTransform="matrix(-1 0 0 -1 385.4035 321.798)">
					<stop  offset="0" style="stop-color:#F2F2F2"/>
					<stop  offset="1" style="stop-color:#CCCCCC"/>
				</linearGradient>
				<path class="st80" d="M374.8,122c2.1,1.7,3.3,2.6,5.7,4.3c-0.3-2.8-0.4-4.3-0.6-7.2c0.7,0.3,1.1,0.3,1.9,0.4
					c0.3,3.3,0.3,5,0.6,8.1c3.5,2.5,5.5,3.6,9.5,6.1c-0.3-4.3-0.4-6.6-0.5-11.2c-2.9-1.9-4.4-2.8-7-4.7c0.3-0.8,0.4-1.2,0.7-2.1
					c2.2,1.7,3.6,2.6,6.1,4.2c-0.1-3.3-0.2-5-0.2-8.2c1.1,0,1.7,0,2.7,0c0,3.3,0,5,0,8.3c2.5-1.7,3.8-2.5,6.5-4.2
					c0.4,0.9,0.5,1.3,0.9,2.2c-3,1.9-4.5,2.7-7.3,4.5c0.1,4.5,0.1,6.9,0.3,11.2c3.9-2,5.9-3.1,10-5.4c0.1-3.4,0.2-5,0.3-8.5
					c1-0.2,1.5-0.3,2.5-0.4c-0.2,3.1-0.3,4.6-0.4,7.6c3-1.7,4.5-2.5,7.5-4.2c0.6,1,0.9,1.4,1.5,2.4c-3.1,1.7-4.6,2.5-7.7,4.1
					c2.9,1.3,4.4,2,7.3,3.4c-0.6,0.7-1,1.1-1.6,1.7c-3.3-1.6-5-2.3-8.1-3.9c-4.2,2.1-6.2,3.2-10.1,5.1c4.1,2.3,6.2,3.5,10.3,5.7
					c3.1-1.3,4.7-2,7.9-3.4c0.6,0.7,1,1,1.6,1.7c-2.8,1.2-4.2,1.9-7.1,3c3.1,1.6,4.5,2.4,7.5,3.7c-0.6,0.7-0.8,1.1-1.4,1.9
					c-2.9-1.4-4.4-2.1-7.3-3.6c0.3,2.7,0.4,3.8,0.7,6.2c-1-0.2-1.4-0.3-2.3-0.4c-0.3-2.7-0.5-4-0.8-7.1c-4.2-2.3-6.2-3.5-10.3-5.9
					c0.3,4.3,0.4,6.5,0.8,10.2c2.9,1.7,4.3,2.6,7.2,4.1c-0.3,0.7-0.4,1-0.7,1.6c-2.6-1.3-3.8-2.1-6.4-3.6c0.3,2.7,0.4,3.9,0.8,6.3
					c-1-0.1-1.5-0.1-2.5-0.2c-0.3-2.4-0.4-3.6-0.7-6.3c-2.1,1.2-3.4,1.9-5.3,2.7c-0.4-0.7-0.6-1.1-1-1.8c2.2-1.1,3.5-1.8,6-3.1
					c-0.3-3.8-0.4-5.9-0.7-10.2c-3.7,1.9-5.5,2.8-8.8,4.5c0.1,2.9,0.3,4.2,0.5,6.9c-0.7,0-1.1,0-1.9,0c-0.3-2.3-0.4-3.4-0.5-6
					c-2.2,1.1-3.3,1.6-5.1,2.4c-0.6-0.8-0.8-1.2-1.4-1.9c1.9-0.8,3.1-1.3,5.3-2.5c-2.3-1.5-3.4-2.1-5.6-3.6c0.4-0.5,0.6-0.8,1.1-1.3
					c2.4,1.7,3.6,2.6,6.5,4.2c3.3-1.6,5-2.5,8.8-4.3c-4-2.3-5.9-3.6-9.4-6c-2.5,1.2-3.6,1.8-6,2.9c-0.4-0.7-0.7-1.1-1.2-1.7
					c1.9-1,3-1.4,5.1-2.5c-2.4-1.7-3.6-2.6-5.7-4.2C374.3,123.2,374.5,122.8,374.8,122z"/>
				
					<linearGradient id="SVGID_50_" gradientUnits="userSpaceOnUse" x1="27.8367" y1="203.4068" x2="27.8367" y2="203.4068" gradientTransform="matrix(-1 0 0 -1 385.4035 321.798)">
					<stop  offset="0" style="stop-color:#F2F2F2"/>
					<stop  offset="1" style="stop-color:#CCCCCC"/>
				</linearGradient>
				<path class="st81" d="M357.6,118.8L357.6,118.8c0-0.3,0-0.6,0-0.8C357.6,118.3,357.6,118.5,357.6,118.8z"/>
				
					<linearGradient id="SVGID_51_" gradientUnits="userSpaceOnUse" x1="15.1514" y1="195.5389" x2="27.9006" y2="195.5389" gradientTransform="matrix(-1 0 0 -1 385.4035 321.798)">
					<stop  offset="0" style="stop-color:#F2F2F2"/>
					<stop  offset="1" style="stop-color:#CCCCCC"/>
				</linearGradient>
				<path class="st82" d="M357.7,114.6c0-0.6,0.1-0.9,0.1-1.5c0.3,1.2,0.5,1.9,1.1,3.3c0-2.5,0-3.7,0-6.2c0.3,0,0.4,0,0.7,0
					c0,2.6,0,3.8,0,6.4c0.7-1.2,1.2-1.8,2.1-3.1c0.2,0.7,0.3,1.1,0.4,1.8c-1.2,1.4-1.7,2.1-2.6,3.3c0,3.6,0.1,5.3,0.2,8.8
					c1.1-1.2,1.9-1.9,3.7-3.5c0-2.7,0-4.2,0.1-7c0.4-0.1,0.7-0.2,1.2-0.3c-0.1,2.6-0.1,3.8-0.2,6.4c1.4-1.2,2.2-1.8,4-3.1
					c0.4,0.8,0.5,1.2,0.9,2.1c-1.8,1.2-2.7,1.9-4.2,3c1.5,1.3,2.3,2.1,4.1,3.5c-0.4,0.5-0.5,0.8-0.9,1.3c-1.9-1.7-2.8-2.5-4.4-4.1
					c-1.9,1.5-2.7,2.1-4.1,3.2c1.3,2.3,2.2,3.6,4.3,6c1.5-0.7,2.3-1.1,4.2-2c0.4,0.7,0.6,1,1.1,1.7c-1.7,0.7-2.5,1.1-4,1.8
					c1.7,1.8,2.6,2.7,4.5,4.4c-0.3,0.7-0.4,1-0.6,1.5c-2.1-1.7-3-2.7-4.5-4.4c0.2,1.4,0.3,2.4,0.6,3.4c-0.5-0.9-1.1-1.9-1.6-2.7
					c-0.1-0.6-0.2-1.2-0.3-2c-0.9-1.1-1.5-1.9-2.1-2.7c-1.1-2.6-2-5.1-2.7-7.9c-0.1-2.7-0.1-4.4-0.2-7.4
					C358.2,116.9,358,116,357.7,114.6z"/>
				
					<linearGradient id="SVGID_52_" gradientUnits="userSpaceOnUse" x1="15.1645" y1="198.9866" x2="27.8997" y2="198.9866" gradientTransform="matrix(-1 0 0 -1 385.4035 321.798)">
					<stop  offset="0" style="stop-color:#F2F2F2"/>
					<stop  offset="1" style="stop-color:#CCCCCC"/>
				</linearGradient>
				<path class="st83" d="M358.4,123.1c-0.1-0.3-0.1-0.4-0.2-0.6c0.1,0.1,0.2,0.1,0.3,0.2C358.5,122.9,358.5,123.1,358.4,123.1z"/>
				
					<linearGradient id="SVGID_53_" gradientUnits="userSpaceOnUse" x1="14.9986" y1="205.0422" x2="27.9016" y2="205.0422" gradientTransform="matrix(-1 0 0 -1 385.4035 321.798)">
					<stop  offset="0" style="stop-color:#F2F2F2"/>
					<stop  offset="1" style="stop-color:#CCCCCC"/>
				</linearGradient>
				<path class="st84" d="M357.6,115.4c0,1.1,0,1.8,0,2.7c0-0.7,0-1.3,0-2.2C357.5,115.6,357.6,115.5,357.6,115.4z"/>
				
					<linearGradient id="SVGID_54_" gradientUnits="userSpaceOnUse" x1="15.1488" y1="203.0532" x2="27.9013" y2="203.0532" gradientTransform="matrix(-1 0 0 -1 385.4035 321.798)">
					<stop  offset="0" style="stop-color:#F2F2F2"/>
					<stop  offset="1" style="stop-color:#CCCCCC"/>
				</linearGradient>
				<path class="st85" d="M358.5,118.3c-0.4,0.8-0.7,1.3-0.8,2c-0.1-0.3-0.2-0.7-0.2-1c0.1-0.7,0.3-1.4,0.7-2.3
					C358.4,117.6,358.5,117.8,358.5,118.3z"/>
				
					<linearGradient id="SVGID_55_" gradientUnits="userSpaceOnUse" x1="-71.6543" y1="154.0334" x2="-35.8695" y2="154.0334" gradientTransform="matrix(-1 0 0 -1 385.4035 321.798)">
					<stop  offset="0" style="stop-color:#F2F2F2"/>
					<stop  offset="1" style="stop-color:#CCCCCC"/>
				</linearGradient>
				<path class="st86" d="M427.9,169.4c-2.4-0.6-3.6-1-6.1-1.7c0.5-0.4,0.7-0.7,1.3-1.1c2.6,0.8,3.7,1.2,6,1.9
					c0.1-1.3,0.1-2.1,0.1-3.7c0.8,0.1,1.2,0.1,2.1,0.2c-0.1,1.9-0.2,2.7-0.3,4.1c0.6,0.2,1.2,0.4,1.7,0.4c-0.8,0.3-1.7,0.4-2.4,0.5
					c-0.2-0.1-0.3-0.1-0.4-0.2c-1.1,0.3-1.9,0.4-2.7,0.7c-1.5,0.3-3.1,0.4-4.5,0.4c-0.2-0.1-0.3-0.2-0.4-0.3
					C424.2,170.2,425.5,170,427.9,169.4z"/>
				
					<linearGradient id="SVGID_56_" gradientUnits="userSpaceOnUse" x1="-71.6547" y1="158.4094" x2="-35.8691" y2="158.4094" gradientTransform="matrix(-1 0 0 -1 385.4035 321.798)">
					<stop  offset="0" style="stop-color:#F2F2F2"/>
					<stop  offset="1" style="stop-color:#CCCCCC"/>
				</linearGradient>
				<path class="st87" d="M434.2,163.8c0.4-0.5,0.5-0.7,1-1.3c2.1,0.9,3.2,1.3,5.1,2.1c0.4-1.8,0.5-2.8,0.9-5c1-0.1,1.5-0.1,2.5-0.2
					c-0.4,2.1-0.6,3.2-1.1,5c2.4-1.1,3.7-1.3,5.9-2.8c0.2,0.4,0.3,0.7,0.3,1.2c-2.5,1.7-4,2-6.6,3.1c-0.1,0.3-0.1,0.4-0.2,0.6
					c-0.7,0.3-1.5,0.6-2.2,0.9c0.1-0.4,0.3-0.8,0.3-1.3C437.7,165.2,436.6,164.8,434.2,163.8z"/>
				
					<linearGradient id="SVGID_57_" gradientUnits="userSpaceOnUse" x1="-31.0398" y1="158.7189" x2="5.0698" y2="158.7189" gradientTransform="matrix(-1 0 0 -1 385.4035 321.798)">
					<stop  offset="0" style="stop-color:#F2F2F2"/>
					<stop  offset="1" style="stop-color:#CCCCCC"/>
				</linearGradient>
				<path class="st88" d="M388.7,161.8c0.2-0.4,0.3-0.7,0.3-1.2c2.2,1.5,3.6,1.9,6,3c-0.4-1.9-0.7-3-1.1-5.1c1,0.1,1.5,0.1,2.5,0.2
					c0.3,2.2,0.4,3.3,0.8,5.1c2-0.8,3.1-1.3,5.2-2.2c0.4,0.5,0.6,0.8,1,1.3c-2.5,1-3.6,1.5-5.9,2.4c0.3,1.1,0.4,1.9,0.6,2.6
					c-0.7-0.3-1.4-0.5-2.1-0.8c-0.2-0.5-0.3-1.1-0.5-1.9C392.7,163.9,391.2,163.3,388.7,161.8z"/>
				
					<linearGradient id="SVGID_58_" gradientUnits="userSpaceOnUse" x1="-31.0404" y1="154.5639" x2="5.0701" y2="154.5639" gradientTransform="matrix(-1 0 0 -1 385.4035 321.798)">
					<stop  offset="0" style="stop-color:#F2F2F2"/>
					<stop  offset="1" style="stop-color:#CCCCCC"/>
				</linearGradient>
				<path class="st89" d="M406.5,163.9c0.8-0.1,1.2-0.1,2.1-0.2c0,1.7,0,2.6,0,4c2.4-0.7,3.6-1.1,6.1-2c0.5,0.5,0.8,0.7,1.3,1.2
					c-2.6,0.8-3.8,1.1-6.2,1.8c2.5,0.6,3.6,0.9,6,1.4c-0.5,0.3-0.7,0.4-1.2,0.7c-2.7-0.6-4-0.9-6.7-1.6c-0.8,0.3-1.6,0.4-2.2,0.6
					c-0.7-0.2-1.6-0.4-2.3-0.5c1-0.3,2-0.6,3.4-1C406.5,166.7,406.5,165.7,406.5,163.9z"/>
			</g>
			<g>
				<g>
					
						<linearGradient id="SVGID_59_" gradientUnits="userSpaceOnUse" x1="-44.8455" y1="291.5008" x2="-21.4116" y2="291.5008" gradientTransform="matrix(-1 0 0 -1 385.4035 321.798)">
						<stop  offset="0" style="stop-color:#CCCCCC"/>
						<stop  offset="0.2424" style="stop-color:#E6E6E6"/>
						<stop  offset="0.5697" style="stop-color:#999999"/>
						<stop  offset="1" style="stop-color:#B3B3B3"/>
					</linearGradient>
					<path class="st90" d="M406.8,30.3c0-6.5,5.2-11.8,11.8-11.8c6.5,0,11.8,5.2,11.8,11.8s-5.2,11.8-11.8,11.8
						C412.1,42.1,406.8,36.8,406.8,30.3z M408,30.3c0,5.7,4.7,10.4,10.4,10.4c5.7,0,10.4-4.7,10.4-10.4s-4.7-10.4-10.4-10.4
						C412.7,19.9,408,24.6,408,30.3z"/>
				</g>
				
					<linearGradient id="SVGID_60_" gradientUnits="userSpaceOnUse" x1="-42.0904" y1="279.3453" x2="-24.1357" y2="279.3453" gradientTransform="matrix(-1 0 0 -1 385.4035 321.798)">
					<stop  offset="0" style="stop-color:#CCCCCC"/>
					<stop  offset="0.2424" style="stop-color:#E6E6E6"/>
					<stop  offset="0.5697" style="stop-color:#999999"/>
					<stop  offset="1" style="stop-color:#B3B3B3"/>
				</linearGradient>
				<path class="st91" d="M425.3,50.5c-1.1,0-1.1-2.1-2.2-2.1c-1.1,0-1.1,2.1-2.2,2.1s-1.1-2.1-2.2-2.1s-1.1,2.1-2.2,2.1
					c-1.1,0-1.1-2.1-2.2-2.1s-1.1,2.1-2.2,2.1c-1.1,0-1.1-2.1-2.2-2.1l1.9-13.3c0-0.4,0.4-0.7,0.7-0.7h12.4c0.4,0,0.7,0.4,0.7,0.7
					l1.9,13.3C426.4,48.3,426.4,50.5,425.3,50.5z"/>
			</g>
		</g>
		<g>
			
				<linearGradient id="SVGID_61_" gradientUnits="userSpaceOnUse" x1="-38.1113" y1="312.376" x2="-28.0886" y2="322.3987" gradientTransform="matrix(-1 0 0 -1 385.4035 321.798)">
				<stop  offset="0" style="stop-color:#666666"/>
				<stop  offset="0.2424" style="stop-color:#E6E6E6"/>
				<stop  offset="0.4909" style="stop-color:#999999"/>
				<stop  offset="0.7273" style="stop-color:#F2F2F2"/>
				<stop  offset="1" style="stop-color:#4D4D4D"/>
			</linearGradient>
			<path class="st92" d="M413.2,6.9v-5c0-2.9,2.4-5.3,5.3-5.3c2.9,0,5.3,2.4,5.3,5.3v5c0,2.9-2.4,5.3-5.3,5.3
				C415.6,12.3,413.2,9.9,413.2,6.9z M414.1,1.9v5c0,2.4,1.9,4.3,4.3,4.3c2.4,0,4.3-1.9,4.3-4.3v-5c0-2.4-1.9-4.3-4.3-4.3
				C416.1-2.4,414.1-0.5,414.1,1.9z"/>
			
				<linearGradient id="SVGID_62_" gradientUnits="userSpaceOnUse" x1="-38.0981" y1="336.1697" x2="-28.0757" y2="346.1921" gradientTransform="matrix(-1 0 0 -1 385.4035 321.798)">
				<stop  offset="0" style="stop-color:#666666"/>
				<stop  offset="0.2424" style="stop-color:#E6E6E6"/>
				<stop  offset="0.4909" style="stop-color:#999999"/>
				<stop  offset="0.7273" style="stop-color:#F2F2F2"/>
				<stop  offset="1" style="stop-color:#4D4D4D"/>
			</linearGradient>
			<path class="st93" d="M413.2-16.9v-5c0-2.9,2.4-5.3,5.3-5.3c2.9,0,5.3,2.4,5.3,5.3v5c0,2.9-2.4,5.3-5.3,5.3
				C415.6-11.5,413.2-13.9,413.2-16.9z M414.1-21.9v5c0,2.4,1.9,4.3,4.3,4.3c2.4,0,4.3-1.9,4.3-4.3v-5c0-2.4-1.9-4.3-4.3-4.3
				C416.1-26.3,414.1-24.3,414.1-21.9z"/>
			
				<linearGradient id="SVGID_63_" gradientUnits="userSpaceOnUse" x1="-38.1057" y1="360.0089" x2="-28.0831" y2="370.0315" gradientTransform="matrix(-1 0 0 -1 385.4035 321.798)">
				<stop  offset="0" style="stop-color:#666666"/>
				<stop  offset="0.2424" style="stop-color:#E6E6E6"/>
				<stop  offset="0.4909" style="stop-color:#999999"/>
				<stop  offset="0.7273" style="stop-color:#F2F2F2"/>
				<stop  offset="1" style="stop-color:#4D4D4D"/>
			</linearGradient>
			<path class="st94" d="M413.2-40.7v-5c0-2.9,2.4-5.3,5.3-5.3c2.9,0,5.3,2.4,5.3,5.3v5c0,2.9-2.4,5.3-5.3,5.3
				C415.6-35.5,413.2-37.9,413.2-40.7z M414.1-45.7v5c0,2.4,1.9,4.3,4.3,4.3c2.4,0,4.3-1.9,4.3-4.3v-5c0-2.4-1.9-4.3-4.3-4.3
				C416.1-50.1,414.1-48.1,414.1-45.7z"/>
			
				<linearGradient id="SVGID_64_" gradientUnits="userSpaceOnUse" x1="-36.4156" y1="302.524" x2="-29.8307" y2="309.109" gradientTransform="matrix(-1 0 0 -1 385.4035 321.798)">
				<stop  offset="0" style="stop-color:#666666"/>
				<stop  offset="0.2424" style="stop-color:#E6E6E6"/>
				<stop  offset="0.4909" style="stop-color:#999999"/>
				<stop  offset="0.7273" style="stop-color:#F2F2F2"/>
				<stop  offset="1" style="stop-color:#4D4D4D"/>
			</linearGradient>
			<path class="st95" d="M417.9,20.7c0,0.8-0.3,1.6,0.6,1.6l0,0c0.8,0,0.6-0.7,0.6-1.6v-9.5c0-0.8,0.3-1.6-0.6-1.6l0,0
				c-0.8,0-0.6,0.7-0.6,1.6V20.7z"/>
			
				<linearGradient id="SVGID_65_" gradientUnits="userSpaceOnUse" x1="-36.4026" y1="326.3176" x2="-29.8174" y2="332.9026" gradientTransform="matrix(-1 0 0 -1 385.4035 321.798)">
				<stop  offset="0" style="stop-color:#666666"/>
				<stop  offset="0.2424" style="stop-color:#E6E6E6"/>
				<stop  offset="0.4909" style="stop-color:#999999"/>
				<stop  offset="0.7273" style="stop-color:#F2F2F2"/>
				<stop  offset="1" style="stop-color:#4D4D4D"/>
			</linearGradient>
			<path class="st96" d="M417.9-3c0,0.8-0.3,1.6,0.6,1.6l0,0c0.8,0,0.6-0.7,0.6-1.6v-9.5c0-0.8,0.3-1.6-0.6-1.6l0,0
				c-0.8,0-0.6,0.7-0.6,1.6V-3z"/>
			
				<linearGradient id="SVGID_66_" gradientUnits="userSpaceOnUse" x1="-36.3897" y1="350.1109" x2="-29.8044" y2="356.6963" gradientTransform="matrix(-1 0 0 -1 385.4035 321.798)">
				<stop  offset="0" style="stop-color:#666666"/>
				<stop  offset="0.2424" style="stop-color:#E6E6E6"/>
				<stop  offset="0.4909" style="stop-color:#999999"/>
				<stop  offset="0.7273" style="stop-color:#F2F2F2"/>
				<stop  offset="1" style="stop-color:#4D4D4D"/>
			</linearGradient>
			<path class="st97" d="M417.9-26.8c0,0.8-0.3,1.6,0.6,1.6l0,0c0.8,0,0.6-0.7,0.6-1.6v-9.5c0-0.8,0.3-1.6-0.6-1.6l0,0
				c-0.8,0-0.6,0.7-0.6,1.6V-26.8z"/>
		</g>
	</g>
	<g>
		<g>
			<g>
				
					<linearGradient id="SVGID_67_" gradientUnits="userSpaceOnUse" x1="-77.7162" y1="201.1083" x2="-41.9308" y2="201.1083" gradientTransform="matrix(-1 0 0 -1 385.4035 321.798)">
					<stop  offset="0" style="stop-color:#F2F2F2"/>
					<stop  offset="1" style="stop-color:#CCCCCC"/>
				</linearGradient>
				<path class="st98" d="M461.3,115c0.4,0.3,0.7,0.4,1.2,0.6c-2.3,0.5-3.5,0.7-6,1.3c2.4,0.6,3.6,1,6.1,1.7
					c-0.5,0.4-0.7,0.7-1.3,1.1c-2.5-0.8-3.7-1.2-6-1.9c-0.1,1.3-0.1,2.1-0.1,3.7c-0.8-0.1-1.2-0.2-2.1-0.3c0.1-1.9,0.2-2.7,0.3-4.1
					c-3.2-0.9-4.8-1.3-7.6-2c-0.6,1.6-0.9,2.7-1.4,5c2.2,0.8,3.4,1.2,5.8,2.2c-0.4,0.5-0.5,0.7-0.9,1.2c-2.1-0.9-3.2-1.3-5.1-2.1
					c-0.4,1.8-0.5,2.8-0.9,5c-1,0.1-1.5,0.1-2.5,0.2c0.4-2.1,0.6-3.2,1.1-5c-2.4,1.1-3.7,1.3-5.9,2.8c-0.2-0.4-0.3-0.7-0.3-1.1
					c2.5-1.7,4-2,6.6-3.1c0.6-2.1,1-3.2,1.7-4.6c1.1-0.4,2.1-0.7,3.2-1.1c2.8,0.6,4.3,0.9,7.5,1.7
					C457.3,115.9,458.6,115.5,461.3,115z"/>
				
					<linearGradient id="SVGID_68_" gradientUnits="userSpaceOnUse" x1="-77.7153" y1="199.959" x2="-41.9311" y2="199.959" gradientTransform="matrix(-1 0 0 -1 385.4035 321.798)">
					<stop  offset="0" style="stop-color:#F2F2F2"/>
					<stop  offset="1" style="stop-color:#CCCCCC"/>
				</linearGradient>
				<path class="st99" d="M431.8,123.7c0.4-1.1,0.7-1.9,1.1-2.7c0.6-0.4,1.2-0.7,1.9-1.1c-0.4,0.9-0.7,1.7-1.2,3
					C432.9,123.3,432.5,123.5,431.8,123.7z"/>
				
					<linearGradient id="SVGID_69_" gradientUnits="userSpaceOnUse" x1="-77.7163" y1="208.4016" x2="-41.9308" y2="208.4016" gradientTransform="matrix(-1 0 0 -1 385.4035 321.798)">
					<stop  offset="0" style="stop-color:#F2F2F2"/>
					<stop  offset="1" style="stop-color:#CCCCCC"/>
				</linearGradient>
				<path class="st100" d="M457.5,112.9c2,0.3,3.1,0.4,5.1,0.7c-0.5,0.2-0.7,0.3-1.2,0.4c-2.4-0.4-3.6-0.5-5.8-0.8
					c-3.1,0.4-4.8,0.7-7.9,1.4c4.6-1.3,9.5-2.1,14.6-2.5c0.3,0,0.4,0.1,0.8,0.2C460.9,112.4,459.8,112.6,457.5,112.9z"/>
				
					<linearGradient id="SVGID_70_" gradientUnits="userSpaceOnUse" x1="-32.2976" y1="175.5597" x2="-18.7499" y2="175.5597" gradientTransform="matrix(-1 0 0 -1 385.4035 321.798)">
					<stop  offset="0" style="stop-color:#F2F2F2"/>
					<stop  offset="1" style="stop-color:#CCCCCC"/>
				</linearGradient>
				<path class="st101" d="M417.2,140.2c0.3,0.5,0.3,0.8,0.5,1.4c-2.1,1.7-3.2,2.6-5,4.2c1.2,0.4,2.1,0.8,3.9,1.5
					c-0.4,0.7-0.6,1-1.1,1.7c-1.9-0.8-2.7-1.2-4.2-1.9c-2,2.3-3,3.6-4.2,5.7c0.6-1.7,1.3-3.4,2.1-5c0.4-0.6,1.1-1.2,1.8-1.9
					c0.4-1.2,0.6-2.1,0.9-3.1c0.7-1.1,1.3-2.1,2-3.3c-0.6,1.9-0.9,2.9-1.5,5C414.1,142.7,415.1,141.9,417.2,140.2z"/>
				
					<linearGradient id="SVGID_71_" gradientUnits="userSpaceOnUse" x1="-32.327" y1="161.592" x2="-18.7485" y2="161.592" gradientTransform="matrix(-1 0 0 -1 385.4035 321.798)">
					<stop  offset="0" style="stop-color:#F2F2F2"/>
					<stop  offset="1" style="stop-color:#CCCCCC"/>
				</linearGradient>
				<path class="st102" d="M404.9,160.5c0.1-0.3,0.1-0.4,0.2-0.6c0,0.2,0.1,0.3,0.1,0.5C405,160.5,405,160.5,404.9,160.5z"/>
				
					<linearGradient id="SVGID_72_" gradientUnits="userSpaceOnUse" x1="-18.7519" y1="155.2711" x2="-18.7519" y2="155.2711" gradientTransform="matrix(-1 0 0 -1 385.4035 321.798)">
					<stop  offset="0" style="stop-color:#F2F2F2"/>
					<stop  offset="1" style="stop-color:#CCCCCC"/>
				</linearGradient>
				<path class="st103" d="M404.2,166.9c0-0.4,0-0.9,0-1.2c0,0.5,0,1.1,0,1.8C404.2,167.2,404.2,167.1,404.2,166.9z"/>
				
					<linearGradient id="SVGID_73_" gradientUnits="userSpaceOnUse" x1="-18.7519" y1="156.9508" x2="-18.7519" y2="156.9508" gradientTransform="matrix(-1 0 0 -1 385.4035 321.798)">
					<stop  offset="0" style="stop-color:#F2F2F2"/>
					<stop  offset="1" style="stop-color:#CCCCCC"/>
				</linearGradient>
				<path class="st104" d="M404.2,164.1L404.2,164.1c0,0.4,0,0.9,0,1.4C404.2,165.1,404.2,164.7,404.2,164.1z"/>
				
					<linearGradient id="SVGID_74_" gradientUnits="userSpaceOnUse" x1="-32.2982" y1="157.5696" x2="-18.7502" y2="157.5696" gradientTransform="matrix(-1 0 0 -1 385.4035 321.798)">
					<stop  offset="0" style="stop-color:#F2F2F2"/>
					<stop  offset="1" style="stop-color:#CCCCCC"/>
				</linearGradient>
				<path class="st105" d="M404.9,165.8c-0.3-0.8-0.4-1.5-0.5-2.2c0.1-0.3,0.1-0.7,0.2-1c0.2,0.7,0.4,1.3,0.7,2.1
					C405,165.3,405,165.6,404.9,165.8z"/>
			</g>
		</g>
	</g>
</g>
</svg>
