<?xml version="1.0" encoding="utf-8"?>
<!-- Generator: Adobe Illustrator 23.0.2, SVG Export Plug-In . SVG Version: 6.00 Build 0)  -->
<svg version="1.1" id="Layer_1" xmlns="http://www.w3.org/2000/svg" xmlns:xlink="http://www.w3.org/1999/xlink" x="0px" y="0px"
	 viewBox="0 0 490.1 606.6" style="enable-background:new 0 0 490.1 606.6;" xml:space="preserve">
<style type="text/css">
	.st0{clip-path:url(#SVGID_2_);}
	.st1{fill:url(#SVGID_3_);}
	.st2{fill:#FFD737;}
</style>
<g>
	<g>
		<g>
			<g>
				<defs>
					<path id="SVGID_1_" d="M453.1,97.3L453.1,97.3c0,0.8,0,1.5-0.1,2.3c-0.1,2.3-0.3,4.6-0.5,6.9c0,0.1,0,0.3,0,0.4
						c-0.1,1-0.3,1.9-0.4,2.9c-0.1,0.4-0.1,0.8-0.2,1.3c-0.1,0.8-0.3,1.7-0.5,2.5c-0.2,0.8-0.3,1.5-0.5,2.3
						c-0.1,0.5-0.3,1.1-0.4,1.6c-0.2,0.6-0.4,1.2-0.5,1.9c-0.3,1.1-0.7,2.1-1.1,3.1c-0.1,0.2-0.2,0.5-0.3,0.7
						c-0.3,0.8-0.6,1.6-1,2.4c-1,2.3-2.1,4.5-3.3,6.6c-1.1,1.9-2.3,3.7-3.6,5.4c-1.1,1.4-2.2,2.7-3.4,4c-3.5,3.8-7.5,6.9-12,9.3
						c-3.5,1.9-7.2,3.3-11.2,4.2c-2,0.4-4,0.8-6.1,1c-0.8,0.1-1.6,0.1-2.5,0.2c0,0,0,0,0,0c-0.6,0-1.1,0.1-1.7,0.1
						c-1.2,0-2.5,0-3.7-0.1c0,0,0,0-0.1,0h0c-0.6,0-1.2-0.1-1.8-0.1c-2.4-0.2-4.8-0.5-7-1c0,0,0,0,0,0c-9.5-2.1-17.4-6.7-23.5-13.2
						c-1.2-1.3-2.3-2.6-3.3-4c-2.5-3.3-4.6-7-6.3-11c-0.5-1.1-1-2.3-1.4-3.4c0-0.1,0-0.1-0.1-0.2c-0.3-0.7-0.5-1.4-0.7-2.2
						c-0.3-1-0.6-2-0.9-3.1c-0.2-0.7-0.4-1.4-0.5-2c-0.1-0.6-0.3-1.1-0.4-1.7c0-0.1-0.1-0.3-0.1-0.4c-0.1-0.4-0.2-0.8-0.2-1.2v0
						c-0.3-1.8-0.6-3.6-0.8-5.5c0-0.3-0.1-0.5-0.1-0.8c-0.2-1.8-0.4-3.6-0.4-5.4v-0.1c0-1-0.1-1.9-0.1-2.9v0c0-1.5,0-3,0-4.6v0
						c0-0.9,0.1-1.7,0.1-2.6c0,0,0,0,0,0c0.1-1.6,0.2-3.2,0.4-4.8c0.1-0.6,0.1-1.2,0.2-1.8c0.1-1.2,0.3-2.4,0.5-3.7
						c0.1-0.4,0.1-0.8,0.2-1.2c0.3-2.1,0.7-4.1,1.2-6.1c0.3-1.4,0.6-2.7,1-4.1l0.6-2.1c0.3-1.1,0.6-2.2,1-3.2c2-6.4,4.6-12.4,7.5-18
						c0,0,0,0,0,0c0-0.1,0.1-0.2,0.2-0.3c1.5-2.9,3.2-5.6,4.9-8.2c1.6-2.4,3.3-4.7,5-6.9c0.9-1.1,1.8-2.2,2.8-3.2
						c2.3-2.6,4.6-4.9,7-6.8c4.3-3.6,8.6-6.1,12.6-7.3c0.7-0.2,1.3-0.4,2-0.5c0.3-0.1,0.6-0.1,1-0.2c1-0.1,1.9-0.2,2.9-0.2
						c0.6,0,1.2,0.1,1.8,0.1c0.4,0,0.7,0.1,1,0.2c1,0.2,1.9,0.5,2.9,0.8c3.2,1.1,6.5,2.9,9.9,5.4c0,0,0.1,0.1,0.1,0.1
						c2.8,2.2,5.7,4.8,8.5,7.9c1,1.1,2,2.3,3.1,3.6c1.7,2.1,3.3,4.3,4.9,6.7c1.8,2.7,3.4,5.5,5,8.6v0c2.7,5.2,5.2,11,7.2,17.2
						c0.3,0.8,0.5,1.6,0.8,2.4c0.2,0.7,0.4,1.4,0.6,2.1c0.4,1.3,0.7,2.7,1.1,4.1c0.2,0.9,0.4,1.8,0.6,2.8c0.1,0.4,0.2,0.9,0.3,1.3
						c0.2,1.1,0.4,2.1,0.6,3.2c0,0,0,0.1,0,0.1c0.2,1,0.3,1.9,0.5,2.9c0.1,0.8,0.2,1.7,0.4,2.5c0,0.2,0,0.4,0.1,0.6v0
						c0.2,1.8,0.4,3.5,0.5,5.2c0,0.1,0,0.1,0,0.2c0,0.2,0,0.4,0,0.6C453,93,453.1,95.2,453.1,97.3z"/>
				</defs>
				<clipPath id="SVGID_2_">
					<use xlink:href="#SVGID_1_"  style="overflow:visible;"/>
				</clipPath>
				<g class="st0">
					
						<radialGradient id="SVGID_3_" cx="427.6009" cy="503.146" r="90.9039" gradientTransform="matrix(1 0 0 -1 0 563.3701)" gradientUnits="userSpaceOnUse">
						<stop  offset="0" style="stop-color:#FDFAD7"/>
						<stop  offset="9.910000e-02" style="stop-color:#F9F1C9"/>
						<stop  offset="0.2949" style="stop-color:#F1E1A9"/>
						<stop  offset="0.3708" style="stop-color:#EEDB9C"/>
						<stop  offset="0.6854" style="stop-color:#EAC448"/>
						<stop  offset="1" style="stop-color:#C29C4C"/>
					</radialGradient>
					<path class="st1" d="M453.1,97.3L453.1,97.3c0,0.8,0,1.5-0.1,2.3c-0.1,2.3-0.3,4.6-0.5,6.9c0,0.1,0,0.3,0,0.4
						c-0.1,1-0.3,1.9-0.4,2.9c-0.1,0.4-0.1,0.8-0.2,1.3c-0.1,0.8-0.3,1.7-0.5,2.5c-0.2,0.8-0.3,1.5-0.5,2.3
						c-0.1,0.5-0.3,1.1-0.4,1.6c-0.2,0.6-0.4,1.2-0.5,1.9c-0.3,1.1-0.7,2.1-1.1,3.1c-0.1,0.2-0.2,0.5-0.3,0.7
						c-0.3,0.8-0.6,1.6-1,2.4c-1,2.3-2.1,4.5-3.3,6.6c-1.1,1.9-2.3,3.7-3.6,5.4c-1.1,1.4-2.2,2.7-3.4,4c-3.5,3.8-7.5,6.9-12,9.3
						c-3.5,1.9-7.2,3.3-11.2,4.2c-2,0.4-4,0.8-6.1,1c-0.8,0.1-1.6,0.1-2.5,0.2c0,0,0,0,0,0c-0.6,0-1.1,0.1-1.7,0.1
						c-1.2,0-2.5,0-3.7-0.1c0,0,0,0-0.1,0h0c-0.6,0-1.2-0.1-1.8-0.1c-2.4-0.2-4.8-0.5-7-1c0,0,0,0,0,0c-9.5-2.1-17.4-6.7-23.5-13.2
						c-1.2-1.3-2.3-2.6-3.3-4c-2.5-3.3-4.6-7-6.3-11c-0.5-1.1-1-2.3-1.4-3.4c0-0.1,0-0.1-0.1-0.2c-0.3-0.7-0.5-1.4-0.7-2.2
						c-0.3-1-0.6-2-0.9-3.1c-0.2-0.7-0.4-1.4-0.5-2c-0.1-0.6-0.3-1.1-0.4-1.7c0-0.1-0.1-0.3-0.1-0.4c-0.1-0.4-0.2-0.8-0.2-1.2v0
						c-0.3-1.8-0.6-3.6-0.8-5.5c0-0.3-0.1-0.5-0.1-0.8c-0.2-1.8-0.4-3.6-0.4-5.4v-0.1c0-1-0.1-1.9-0.1-2.9v0c0-1.5,0-3,0-4.6v0
						c0-0.9,0.1-1.7,0.1-2.6c0,0,0,0,0,0c0.1-1.6,0.2-3.2,0.4-4.8c0.1-0.6,0.1-1.2,0.2-1.8c0.1-1.2,0.3-2.4,0.5-3.7
						c0.1-0.4,0.1-0.8,0.2-1.2c0.3-2.1,0.7-4.1,1.2-6.1c0.3-1.4,0.6-2.7,1-4.1l0.6-2.1c0.3-1.1,0.6-2.2,1-3.2c2-6.4,4.6-12.4,7.5-18
						c0,0,0,0,0,0c0-0.1,0.1-0.2,0.2-0.3c1.5-2.9,3.2-5.6,4.9-8.2c1.6-2.4,3.3-4.7,5-6.9c0.9-1.1,1.8-2.2,2.8-3.2
						c2.3-2.6,4.6-4.9,7-6.8c4.3-3.6,8.6-6.1,12.6-7.3c0.7-0.2,1.3-0.4,2-0.5c0.3-0.1,0.6-0.1,1-0.2c1-0.1,1.9-0.2,2.9-0.2
						c0.6,0,1.2,0.1,1.8,0.1c0.4,0,0.7,0.1,1,0.2c1,0.2,1.9,0.5,2.9,0.8c3.2,1.1,6.5,2.9,9.9,5.4c0,0,0.1,0.1,0.1,0.1
						c2.8,2.2,5.7,4.8,8.5,7.9c1,1.1,2,2.3,3.1,3.6c1.7,2.1,3.3,4.3,4.9,6.7c1.8,2.7,3.4,5.5,5,8.6v0c2.7,5.2,5.2,11,7.2,17.2
						c0.3,0.8,0.5,1.6,0.8,2.4c0.2,0.7,0.4,1.4,0.6,2.1c0.4,1.3,0.7,2.7,1.1,4.1c0.2,0.9,0.4,1.8,0.6,2.8c0.1,0.4,0.2,0.9,0.3,1.3
						c0.2,1.1,0.4,2.1,0.6,3.2c0,0,0,0.1,0,0.1c0.2,1,0.3,1.9,0.5,2.9c0.1,0.8,0.2,1.7,0.4,2.5c0,0.2,0,0.4,0.1,0.6v0
						c0.2,1.8,0.4,3.5,0.5,5.2c0,0.1,0,0.1,0,0.2c0,0.2,0,0.4,0,0.6C453,93,453.1,95.2,453.1,97.3z"/>
					<g>
						<path class="st2" d="M472.5,98.9c-0.7-0.7-1.8-1.2-2.9-1.3c1.1-1.7,1.1-3.8-0.2-5.7c-0.3-0.4-0.8-0.6-1.3-0.6
							c-2.9,0.4-4.5,2.7-4.8,5.3c-2.1-2.2-5.9-3.6-8-0.9c-1.2,1.5-0.5,3.5,0.9,4.6c0.5,0.4,1.3,0.7,2.1,0.8
							c-0.3,0.2-0.6,0.4-0.9,0.6c-1.4,1.2-2.1,3.1-1.2,4.4c1.2,1.7,3.5,1.1,5.5-0.3c0.1,1.3,1.1,2.2,2.8,2.2
							c1.7,0.1,3.8-0.9,4.7-2.5c0.5-0.8,0.4-2.1-0.1-3c0.9,0,1.9-0.1,2.8-0.4c0.2-0.1,0.5-0.1,0.8-0.2c0.3-0.1,0.5-0.4,0.5-0.6
							C473.5,100.4,473.1,99.6,472.5,98.9z M462.9,101.4c-0.7,1-0.9,2.1-2,3c-0.8,0.7-2.3,1.2-2.9,0.5c-0.8-0.8,0.4-2.3,1.3-2.8
							c0.8-0.5,1.7-0.8,2.5-1.1c0.4-0.1,0.7-0.2,1-0.4c0,0,0,0,0.1,0c0.1,0.1,0.1,0.3,0.2,0.4c0,0.1,0.1,0.1,0.1,0.2
							C463.1,101.2,463,101.3,462.9,101.4z M463.4,98c-0.1,0.1-0.2,0.3-0.3,0.5c-0.2,0.2-0.3,0.5-0.4,0.8c-1.3-0.3-2.6,0.3-4,0.1
							c-1.7-0.3-3-2.1-1.3-3.2C459.5,94.7,461.8,96.5,463.4,98C463.4,98,463.4,98,463.4,98z M468.1,93.1c0.7,1.8,0.2,3.6-1.2,5
							c0,0,0,0-0.1-0.1c-0.5-0.4-1.2-0.7-1.9-0.7C465,95.4,466.1,93.7,468.1,93.1z M465.2,106.2c-1.1-0.1-1.5-0.9-1.5-1.8
							c0-0.1,0-0.1,0-0.2c0.5-0.6,0.8-1.2,1-1.8c0.2,0.1,0.5,0.1,0.8,0.1c0.2,0,0.4-0.1,0.6-0.1c0.1,0.9,1.1,1.5,1.1,2.4
							C467.2,105.8,466.1,106.3,465.2,106.2z M469.2,101c-0.4-0.1-0.8-0.3-1.2-0.4c0.1-0.4,0-0.7-0.1-0.9c0.3-0.2,0.6-0.5,0.9-0.8
							c1.4-0.1,2.8,0.7,2.9,2C470.8,101,470,101.1,469.2,101z"/>
						<path class="st2" d="M442.7,96.4c-1.2-0.1-2.1,0.3-2.9,0.9c0.3-1,0.3-2.1-0.2-3.1c-0.6-1.5-2.2-2.8-4-2.7
							c-3.1,0.2-3.5,3.1-2.9,5.6c-0.8-0.5-1.7-0.9-2.6-0.9c-2.5-0.3-5,1.2-5.6,3.7c-0.6,2.3,0.5,4.8,2.8,5.4c0.4,0.1,1,0.1,1.6,0.1
							c-0.1,0.1-0.2,0.3-0.2,0.4c-0.6,1.6-0.5,3.5,0.9,4.3c1.2,0.8,2.9,0.2,4.1-0.9c0.1,0.1,0.2,0.2,0.3,0.4c1.7,1.5,5,0.7,6.8-1.3
							c1.3-1.5,1.4-3.8,0.4-5.1c2-0.2,4.4-1.5,4.8-3.5C446.1,97.9,444.4,96.6,442.7,96.4z M428.3,103.5c-2-0.1-2.6-2.5-1.8-4.1
							c0.8-1.5,2.8-2.1,4.5-1.7c1,0.3,1.7,0.9,2.4,1.6c-0.5,0.4-0.9,1-1,1.7c-0.1,0.4-0.2,0.9-0.1,1.3c0,0-0.1,0.1-0.1,0.1
							c-0.1-0.2-0.4-0.4-0.7-0.3C430.3,102.5,429.6,103.6,428.3,103.5z M433.7,104.3c-0.7,1-1,2.2-0.8,3.3c-0.6,0.9-1.5,1.7-2.5,0.9
							c-0.9-0.7-0.5-2.3,0.2-3.2c0.2-0.3,0.4-0.5,0.6-0.8c0.2-0.2,0.5-0.4,0.6-0.6c0.2-0.2,0.5-0.4,0.7-0.6c0.2,0.3,0.5,0.4,1.1,0.4
							c0,0,0.1,0,0.1,0C433.7,103.9,433.7,104.1,433.7,104.3z M434.9,98.6c-0.1,0-0.2,0.1-0.3,0.1c-0.4-1.8-1.1-4.2,0.7-5.1
							c1.1-0.5,2.2,0.4,2.5,1.5c0.2,0.9,0,1.8-0.4,2.7c-0.7,0.1-1.4,0.5-1.9,1C435.4,98.6,435.2,98.5,434.9,98.6z M435.7,108.5
							c-0.4-0.1-0.6-0.4-0.8-0.7c0.7-1.3,1.2-3.2,0.7-4.4c0.7-0.2,1.3-0.6,1.8-1.1c0.1,0.1,0.2,0.1,0.3,0.2c-0.1,0.2,0,0.4,0.1,0.6
							c0.3,0.5,1,0.8,1.4,1.2c0.4,0.5,0.7,1.3,0.5,2C439.3,108,437,109,435.7,108.5z M443.5,100.5c-1,0.8-2.4,1.1-3.6,0.9
							c-0.5-0.1-0.9-0.3-1.3-0.5c0.4-0.7,0.7-1.5,0.6-2.3c0,0,0,0,0,0c0.7-0.5,1.5-0.8,2.3-0.9C443.3,97.4,445.4,98.9,443.5,100.5z"
							/>
						<path class="st2" d="M416,101.4c0.2-2.6-1.9-5.1-4.5-5.7c-0.3-0.1-0.6-0.1-0.9-0.1c0-0.1,0.1-0.2,0.1-0.3
							c0.5-2.1-0.9-3.9-2.9-4.5c-1.9-0.6-4,0.3-4.9,2.1c-0.3,0.6-0.4,1.3-0.4,2c-0.6-0.6-1.3-1.1-1.9-1.3c-1.8-0.7-4.1-0.1-5.1,1.6
							c-1.1,1.7-0.2,3.8,1.4,4.9c0.5,0.4,1.3,0.7,2.1,0.9c-1.9,1.4-2.9,3.9-2.4,6.3c0.1,0.6,0.8,0.8,1.2,0.7c1.8-0.4,3.4-1.1,5-2.1
							c0.5,1.9,2.5,2.9,4.3,3.2c1.9,0.3,5.2,0.6,5.3-2.4c0-0.3,0-0.6-0.1-0.8C414.2,105.3,415.8,103.4,416,101.4z M406.9,92.7
							c1,0.1,2,0.9,1.9,2c0,0.6-0.4,1.1-0.8,1.4c0,0,0,0,0,0c-0.7,0.3-1.3,0.7-1.7,1.2c-0.2,0-0.5,0-0.7,0.1c0,0,0-0.1,0-0.1
							C403.7,95.8,404.2,92.3,406.9,92.7z M397.1,95.9c1-1.4,2.9-1.2,4.1-0.3c0.8,0.6,1.3,1.7,2.1,2.4c-0.3,0.2-0.5,0.6-0.7,1
							c-0.9-0.1-1.9,0.3-2.8,0.2C398.2,99.1,395.8,97.7,397.1,95.9z M398.4,105.7c0-2.3,1.9-4.4,4.3-4.6c0.2,0.3,0.5,0.5,0.8,0.6
							c0.1,0.1,0.3,0.1,0.5,0.1c0,0,0.1,0.1,0.2,0.1C402.5,103.7,400.5,104.9,398.4,105.7z M410.1,107.2c-0.5,0.6-1.9,0.3-2.6,0.2
							c-1.5-0.1-3.3-0.8-3.5-2.3c0.6-0.5,1.2-1,1.7-1.5c0.4-0.4,0.4-1,0.1-1.4c0.2,0,0.3,0.1,0.5,0.1c0.2,0.7,0.7,1.2,1.2,1.7
							c0.5,1,1.4,1.7,2.5,2C410.4,106.3,410.5,106.8,410.1,107.2z M412,104.3c-0.2,0.1-0.4,0.1-0.6,0.2c-1-1.1-2.6-1.8-3.3-3.2
							c0.4-0.6,0.6-1.2,0.5-1.9c0-0.2,0-0.4-0.1-0.6c0-0.2,0-0.4-0.1-0.5c1.9-0.9,3.9-1.1,5.3,1.3
							C414.7,101.3,413.8,103.5,412,104.3z"/>
						<path class="st2" d="M386.4,96.6c-0.6-1.6-2.4-2.5-4.1-2.4c-0.7,0-1.4,0.3-2,0.6c0.2-0.5,0.4-1,0.5-1.5
							c0.4-1.9-0.3-4.2-2.2-4.7c-1.9-0.5-4.2,0.8-5.2,2.6c-0.5,0.9-0.7,1.9-0.6,2.9c-0.7-0.9-1.7-1.5-2.8-1.6
							c-2.2-0.2-4.2,1.5-4.8,3.5c-0.6,2.1,0.7,4.1,2.9,4.8c0.5,0.1,1.2,0.2,1.9,0.2c-1.1,1.6-1.3,3.6-0.6,5.6
							c0.1,0.3,0.5,0.6,0.8,0.6c1.5-0.1,2.8-0.6,3.9-1.4c1,2.6,3.9,4,6.3,3.2c2.3-0.8,3.8-3.3,2.7-5.9c-0.3-0.6-0.7-1.1-1.2-1.6
							c0.8,0.1,1.7-0.1,2.5-0.5C385.9,100.1,387,98.4,386.4,96.6z M369.2,99.3c-1.5-0.1-2.7-1.2-2.6-2.8c0.2-1.3,1.3-2.6,2.7-2.7
							c2-0.2,3.1,1.5,3.4,3.2c0,0.1,0.1,0.2,0.3,0.3c-0.3,0.3-0.6,0.7-0.7,1.2c0,0,0,0,0,0c-0.6-0.1-0.9,0.3-1.4,0.6
							C370.4,99.3,369.8,99.4,369.2,99.3z M373.8,103.4c-0.8,1-1.9,1.8-3.2,2.1c-0.5-1.8-0.1-3.4,0.9-4.8c0.4-0.1,0.8-0.3,1-0.6
							c0.1,0.3,0.3,0.5,0.5,0.7c0.4,0.3,0.8,0.6,1.3,0.7C374,102.1,373.9,102.7,373.8,103.4z M375.7,96.5c-0.3-0.1-0.6-0.1-1-0.1
							c-0.2-1.2-0.5-2.5-0.1-3.7c0.4-1.3,2.2-3.1,3.6-2.2c1.2,0.8,0.8,2.7,0,3.7C377.7,95.2,376.7,95.8,375.7,96.5
							C375.8,96.5,375.7,96.5,375.7,96.5z M379.3,106.9c-1.4,0.2-2.7-0.7-3-2.1c-0.3-1.4,0.5-2.4,1.2-3.6c0.2-0.1,0.3-0.2,0.5-0.4
							c1.6,0.2,3.3,1.2,3.7,2.9C382.1,105.3,380.9,106.7,379.3,106.9z M382.8,99.3c-1.4,0.1-2.9-0.6-4.1-1.2c0,0-0.1,0-0.1,0
							c-0.1-0.2-0.2-0.4-0.4-0.6c0.1-0.1,0.3-0.2,0.4-0.4c1.7-1.3,4-2.4,5.7-0.8C385.7,97.5,384.4,99.1,382.8,99.3z"/>
						<path class="st2" d="M356.7,92.3c-0.3-3.5-3.3-2.8-6.4-1.2c0.1-0.1,0.2-0.3,0.3-0.4c1-1.8,1.1-4-0.8-4.5
							c-1.5-0.4-3.9,0.5-5.3,1.9c-1,1-1.5,2.1-1.6,3.1c-1.1-1-2.5-1.8-4.3-1.8c-2,0-4.6,1.1-5.9,2.8c-1.3,1.5-0.9,3.1,0.5,4.1
							c0.9,0.6,2,0.9,3.2,0.9c-1.1,0.4-2.2,1-2.9,1.9c-1.3,1.6-1.1,3.8,1.1,5.2c3.3,2.1,5.9,1.1,7.5-1c0.3,0.6,0.7,1.2,1.2,1.7
							c2.4,2.1,6.3,2.2,7.6,0.1c0.7-1.1,0.7-2.5,0.2-3.8c-0.4-1-1.3-2.5-2.5-2.9c1.9,0.1,4-0.5,5.2-1.2
							C355.7,96.2,356.8,94.2,356.7,92.3z M336.2,103.4c-2.5-0.8-2.1-3.2-0.8-4.3c1.3-1.1,3.1-1.5,4.9-1.9c0,0.4,0.1,0.9,0.5,1.3
							c0.2,0.3,0.6,0.6,0.9,0.8C340.4,101.6,339.7,104.6,336.2,103.4z M342,94.8c-0.1,0.1-0.2,0.2-0.3,0.2c-0.2-0.4-0.6-0.6-1.2-0.4
							c-1.4,0.4-3,1-4.5,0.7c-1.9-0.3-2.6-1.9-0.6-3.2c3.2-2.1,5.9,0.3,7.8,1.9c0,0,0,0.1,0,0.1C342.8,94.4,342.4,94.5,342,94.8z
							 M344.9,89.9c0.7-1.1,2.3-2.2,3.6-2c1.5,0.2,0.6,2.2-0.4,3.1c-0.6,0.6-1.4,0.9-2.1,1.3c-0.5,0.3-1,0.7-1.4,1.1
							c0-0.1-0.1-0.2-0.1-0.3c-0.1-0.1-0.2-0.2-0.3-0.3C344.2,91.8,344.3,90.8,344.9,89.9z M349.1,103.7c-0.7,1.3-3,1.3-4.3,0.3
							c-1.4-1.1-1.3-2.8-0.6-4c0.4,0,0.8,0,1.1-0.1c0.8-0.2,1.4-0.6,1.9-1.1c-0.3,0.4-0.1,1,0.5,1.6c0.5,0.5,1,0.8,1.3,1.4
							C349.3,102.4,349.4,103.1,349.1,103.7z M351.5,96.4c-0.8,0.1-1.7,0.1-2.5,0c0,0,0,0,0,0c0.4-0.7,0.2-1.4-0.4-1.8
							c-0.1-0.4-0.3-0.7-0.8-0.8c0,0,0,0-0.1,0c0.7-0.5,1.4-0.9,2.1-1.3c1.8-1,5.6-2.3,5.1,0.7C354.9,94.9,353.3,96.1,351.5,96.4z"
							/>
						<path class="st2" d="M333.6,110.4C333.5,110.3,333.5,110.3,333.6,110.4c1,1.4,2.2,2.9,3.5,4.4c0,0,0,0,0,0
							C335.8,113.3,334.6,111.8,333.6,110.4z M466.6,110.5c-11.6,9.4-23.9,12.6-26.5,2.6c-0.2-0.6-1-0.7-1.7-0.2
							c-6.8,4.5-20.8,14.6-21.6,2.4c-0.1-0.9-1.4-1.4-2-0.6c-7.7,9.1-17.6,8.5-24-1.9c-0.2-0.4-0.7-0.7-1.2-0.7
							c-5,0.6-7.3,4.6-10.9,6.5c-5.9,3.2-11.9-6.1-18.3-9c-0.6-0.3-1.1-0.2-1.4,0.1c-3.9,3.8-7,8.1-15,4.5
							c-3.6-1.6-6.9-4.2-10.4-5.5c-0.4-0.1-0.7-0.2-1.1-0.4c0.4,0.6,0.8,1.2,1.2,1.8c0.5,0.2,1,0.4,1.6,0.6c2.9,1.4,5.8,3.5,8.8,4.9
							c0.2,0.1,0.5,0.2,0.7,0.3c-2.5-0.5-5-1-7.5-1.4c0.4,0.4,0.8,0.9,1.2,1.3c25,5.4,46.9,9.8,67.8,10c17.1,0.3,34.2-1.9,52.6-5.4
							c0.8-0.8,1.6-1.5,2.4-2.3c-2.2,0.4-4.3,0.8-6.5,1.1c3.6-1.5,7.9-3.8,11.7-6.9c0,0,0,0,0,0.1c0.7-0.8,1.3-1.7,2-2.5
							C468.1,109.9,467.2,109.9,466.6,110.5z M352.8,117.7c0.6-0.1,1.2-0.2,1.7-0.5c1.8-0.7,3.1-2.1,4.6-3.4
							c1.6-1.4,1.4-2.1,4.4,0.1c0.9,0.6,1.7,1.4,2.6,2.1c2.2,1.8,4.5,3.9,6.8,5.1C366.4,120.2,359.6,119,352.8,117.7z M378.9,121.9
							c2.1-0.8,3.6-2.7,5.5-4.2c0.7-0.6,1.6-1.5,2.5-1.8c2.1-0.7,2.3,0.2,3.8,1.4c1.7,1.3,2.9,3,4.6,4.2c1.8,1.2,3.6,1.9,5.3,2.3
							C393.5,123.5,386.3,122.9,378.9,121.9z M407.3,123.9c-0.8,0-1.6,0-2.4,0c3.4-0.6,6.8-2.6,9.9-5.6c1,2.9,3.1,4.7,5.7,5.2
							C416.1,123.8,411.7,123.9,407.3,123.9z M425.4,123.2c4.2-1.2,8.8-4.6,12.9-7.7c1.5,3.1,3.4,4.9,6,5.6
							C437.9,122,431.6,122.7,425.4,123.2z M466.4,112.7c-1.5,1.9-3.3,3.8-5.3,5.7c0,0,0.1,0,0.1,0
							C463.2,116.5,464.9,114.7,466.4,112.7C466.4,112.8,466.4,112.8,466.4,112.7z"/>
						<path class="st2" d="M465.7,82.2c-2.9-1.2-5.7-2.5-8.3-3.7c1.8,0.2,3.6,0.3,5.4,0.5c-0.6-0.6-1.2-1.2-1.8-1.8
							c-8.7-0.9-17.6-1.6-26.6-2.2c-0.2-0.1-0.5-0.1-0.6,0c-17.3-1-34.8-1.5-51.9-1.2c-0.2-0.6-1-0.6-1.5,0
							c-8.9,0.1-17.6,0.5-26.1,1.1c-0.3-0.5-0.5-1-0.7-1.5c-0.1-0.3-0.5-0.2-1.1,0.2c-0.9,0.6-1.7,1.1-2.6,1.7
							c-2.5,0.2-4.9,0.4-7.3,0.7c-0.3,0.3-0.7,0.6-1,0.9c2.1-0.1,4.2-0.3,6.4-0.4c-2.9,1.8-5.8,3.4-8.7,4.6
							c-0.9,0.3-1.8,0.6-2.6,0.8c-0.5,0.6-1,1.2-1.5,1.8c1.8-0.3,3.8-1.1,5.8-2c2.4-1.1,6.6-4.1,9.3-5.3c0.8,0,1.5-0.1,2.3-0.1
							c0.4,0.6,0.8,1.8,1.2,2.2c1,1.1,2.3,2.1,3.9,2.9c2.2,1.1,5,1.8,8,1.8c5.2-0.1,10.6-2.3,14.6-6.6c0.9,4.7,5.2,7.8,10.5,8.3
							c6.5,0.6,12.5-2.8,16.5-7.3c1.7,4.7,6.2,7.6,11.1,8.2c7,0.8,12.6-3.3,16-7.3c2.4,5.1,8.2,8.7,13.5,8.4
							c4.6-0.2,6.7-2.9,8.9-4.9c2-1.9,5.8,0.4,10.2,2.2c0.1,0,0.2,0.1,0.2,0.1C466.8,83.5,466.2,82.9,465.7,82.2z M355.1,76
							c7.6-0.3,15.5-0.4,23.6-0.4C370.3,84.6,359.1,80.6,355.1,76z M382.1,75.6c7.8,0,15.7,0.1,23.6,0.3
							C399.4,82.5,384.1,86.9,382.1,75.6z M421.7,83.3c-5.2,0.8-11.1-1.7-12.9-7.3c7.8,0.2,15.5,0.5,23.3,0.9
							C429.8,79.8,426.4,82.6,421.7,83.3z M450.8,83.4c-3.8,1.8-12.8,0.6-14.9-6.3c6.6,0.4,13.1,0.8,19.5,1.3
							C454.6,80.2,453.2,82.2,450.8,83.4z M462.9,79C462.8,79,462.8,79,462.9,79c1,1.1,2,2.2,2.9,3.2c0,0,0,0,0,0
							C464.9,81.2,463.9,80.1,462.9,79z M341.5,76.7c-1.8,1.7-3.5,3.3-4.9,5c0,0,0,0,0,0C338.1,80.1,339.7,78.4,341.5,76.7
							C341.5,76.7,341.5,76.7,341.5,76.7z"/>
					</g>
				</g>
			</g>
		</g>
	</g>
</g>
</svg>
