<?xml version="1.0" encoding="utf-8"?>
<!-- Generator: Adobe Illustrator 27.0.1, SVG Export Plug-In . SVG Version: 6.00 Build 0)  -->
<svg version="1.1" id="Lager_1" xmlns="http://www.w3.org/2000/svg" xmlns:xlink="http://www.w3.org/1999/xlink" x="0px" y="0px"
	 viewBox="0 0 1600 900" style="enable-background:new 0 0 1600 900;" xml:space="preserve">
<style type="text/css">
	.st0{fill:#500B00;}
	.st1{fill-rule:evenodd;clip-rule:evenodd;fill:#6B410C;}
	.st2{fill-rule:evenodd;clip-rule:evenodd;fill:#454545;}
	.st3{fill-rule:evenodd;clip-rule:evenodd;fill:#7D7B7B;}
	.st4{fill-rule:evenodd;clip-rule:evenodd;fill:#BE6500;}
	.st5{fill-rule:evenodd;clip-rule:evenodd;fill:#FFDFB9;}
	.st6{fill-rule:evenodd;clip-rule:evenodd;fill:#E5BB86;}
	.st7{fill-rule:evenodd;clip-rule:evenodd;fill:#D3A472;}
	.st8{fill-rule:evenodd;clip-rule:evenodd;fill:#FFFFFF;}
	.st9{fill-rule:evenodd;clip-rule:evenodd;fill:#F28000;}
	.st10{fill-rule:evenodd;clip-rule:evenodd;}
	.st11{fill-rule:evenodd;clip-rule:evenodd;fill:#F3F3F3;}
	.st12{fill-rule:evenodd;clip-rule:evenodd;fill:#191919;}
	.st13{fill-rule:evenodd;clip-rule:evenodd;fill:#CBD0DB;}
	.st14{fill-rule:evenodd;clip-rule:evenodd;fill:#106B7A;}
	.st15{fill-rule:evenodd;clip-rule:evenodd;fill:#E1A076;}
	.st16{fill-rule:evenodd;clip-rule:evenodd;fill:#4B2E08;}
	.st17{fill-rule:evenodd;clip-rule:evenodd;fill:#ED492E;}
	.st18{fill-rule:evenodd;clip-rule:evenodd;fill:#CECECE;}
	.st19{fill:#FFDA00;}
	.st20{fill:#FFD000;}
	.st21{fill:#FCC200;}
	.st22{fill:#FAB700;}
	.st23{fill:#F7A900;}
	.st24{fill:#F49D00;}
	.st25{fill:#C01C1C;}
	.st26{fill:#D41317;}
	.st27{fill:#E20613;}
	.st28{fill:#E64011;}
	.st29{fill:#E95B0B;}
	.st30{fill:#ED7601;}
	.st31{fill:#F39300;}
	.st32{fill:#CECECE;}
	.st33{fill-rule:evenodd;clip-rule:evenodd;fill:#A2A1A1;}
	.st34{fill:#B98A50;}
	.st35{fill:#E5BB86;}
	.st36{fill:#6B410C;}
	.st37{fill:#BE6500;}
	.st38{clip-path:url(#SVGID_00000142170247856231430800000017744010127415445411_);fill:#FFDFB9;}
	.st39{clip-path:url(#SVGID_00000142170247856231430800000017744010127415445411_);}
</style>
<ellipse class="st0" cx="800.4" cy="808.6" rx="781.9" ry="82.4"/>
<g>
	<path class="st1" d="M695.4,157h190.3c8.3,0,15.1,6.8,15.1,15.1v332.9c0,8.3-6.8,15.1-15.1,15.1H695.4c-8.3,0-15.1-6.8-15.1-15.1
		V172.2C680.3,163.8,687.1,157,695.4,157L695.4,157L695.4,157z"/>
	<polygon class="st1" points="680.3,218.2 900.9,218.2 900.9,227.2 680.3,227.2 680.3,218.2 	"/>
	<polygon class="st1" points="680.3,286.2 900.9,286.2 900.9,295.2 680.3,295.2 680.3,286.2 	"/>
	<polygon class="st1" points="680.3,354.2 900.9,354.2 900.9,363.3 680.3,363.3 680.3,354.2 	"/>
	<polygon class="st1" points="680.3,422.2 900.9,422.2 900.9,431.3 680.3,431.3 680.3,422.2 	"/>
	<path class="st1" d="M683.8,421.7c8,0,8.8,15.7,8.8,23.7l0,0c0,8-6.5,14.5-14.5,14.5h-11.8c-8,0-14.5-6.5-14.5-14.5l0,0
		c0-8,5.4-12.2,10.1-14.6C666.3,428.3,683.8,421.7,683.8,421.7z"/>
	<polygon class="st2" points="689,732.9 765.9,732.9 778.7,703.7 803.4,732.9 892,732.9 892,751.5 689,751.5 689,732.9 	"/>
	<path class="st2" d="M689,750.4c8.6,0,15.6,7,15.6,15.6c0,8.6-7,15.6-15.6,15.6c-8.6,0-15.6-7-15.6-15.6
		C673.4,757.4,680.4,750.4,689,750.4L689,750.4L689,750.4z"/>
	<path class="st2" d="M891.1,750.5c8.6,0,15.6,7,15.6,15.6c0,8.6-7,15.6-15.6,15.6c-8.6,0-15.6-7-15.6-15.6
		C875.5,757.5,882.5,750.5,891.1,750.5L891.1,750.5L891.1,750.5z"/>
	<path class="st2" d="M788.6,750.1c8.6,0,15.6,7,15.6,15.6c0,8.6-7,15.6-15.6,15.6c-8.6,0-15.6-7-15.6-15.6
		C773,757,780,750.1,788.6,750.1L788.6,750.1L788.6,750.1z"/>
	<polygon class="st3" points="776,559.2 805.6,559.2 805.6,732.9 776,732.9 776,559.2 	"/>
	<polygon class="st3" points="879.9,559.2 701.7,559.2 728.3,588.7 856.2,588.7 879.9,559.2 879.9,559.2 	"/>
	<path class="st1" d="M861.9,506.1l37.2-45c0,0,2.9,21.5,7.3,40.7c3.1,13.6,8,25.1,8,31.3l0,0c0,14.8-9.4,27-21,27L784,559.5
		l-99.7,0.5c-11.5,0-21-12.1-21-27l0,0c0-7.1,5.6-15.7,9.8-31.7c4.6-17.2,7.8-41.5,7.8-41.5l179.6,46.2
		C861,506.1,861.5,506.1,861.9,506.1L861.9,506.1L861.9,506.1z"/>
	<path class="st1" d="M896.1,423.8c0,0,9.4,2.7,17.2,6.5c7.8,3.8,12.2,8.4,12.2,16.4v0c0,8-6.5,14.5-14.5,14.5l-10.1,0.3
		c-8,0-16.3-6.8-16.3-14.8v0c0-8,6.5-14.5,14.5-14.5l0,0L896.1,423.8z"/>
	<path class="st4" d="M743.7,393.4c0,0-31.7,31.4-28,59c3.7,27.5,20,42.5,31.5,58.5c22.5,31.1,72.8,17.1,93.3,2.6
		c20.5-14.4,51.8-43.3,44.6-71.5c-7.2-28.2-22.6-45.2-22.6-45.2L743.7,393.4L743.7,393.4z"/>
	<path class="st5" d="M851.5,275.9c27.5-26.7,21-108.7,17-145c-4.7-42.5-24.5-83.2-50.6-78.1C778.5,42,758.1,86.9,756.7,133
		c-1.1,38.2-8.2,123.4,36.7,146c8.6,1.5,17.5,2.1,26.6,1.8C830.9,280.5,841.4,278.8,851.5,275.9L851.5,275.9L851.5,275.9z"/>
	<path class="st6" d="M789.3,140.2c0,0,3.7,33.9-2.2,43.2c-9.7,11.5-25.2,14.4-47.6,24.4c14.5,37.2,31.2,59.6,48.3,69.9
		c6.1,1.1,18.5,27.5,24.9,27.7c9.7,0.3,24.2-3,33.1-19.4c13.7-22.5,24.2-41.5,37.6-72c-33.5-20.5-35.3-19.3-43.5-28.7
		c-4.5-5.2-5.8-18-5.6-45.4L789.3,140.2L789.3,140.2L789.3,140.2z"/>
	<path class="st7" d="M789.7,144.6l44.5,7.8c0.3,18.9,1.8,28.5,5.6,32.8c0.1,0.1,0.2,0.2,0.3,0.4c-31.2,8.7-45.5-12.3-49.7-29.4
		C790.2,151.6,790,147.5,789.7,144.6L789.7,144.6L789.7,144.6z"/>
	<path class="st8" d="M857.6,230.1c-28.2,20-57.3,17.6-84.7,1.7c-6.7,10.7,30.8,99.1,32.6,90.6C807.3,313.9,857.6,230.1,857.6,230.1
		L857.6,230.1L857.6,230.1z"/>
	<path class="st6" d="M849.4,108.3c3.4-0.1,5.6,7.4,4,14.8c-1.7,7.4-2.5,14-5.9,14.2c-3.4,0.1-2-4.7-2.4-13.3
		C844.8,115.5,846,108.4,849.4,108.3L849.4,108.3L849.4,108.3z"/>
	<path class="st7" d="M848.4,111.1c1.5-0.2,2.6,3.7,3.1,5.8c0.4,2,0.6,7.5-0.5,10.3c-0.9,2.3-2.1,8.4-3,1.2c-0.2-1.9,0.7-2.3,1-4.6
		c0.3-2.3-0.9-3.7-1.5-4.4C845.3,117,847,111.3,848.4,111.1L848.4,111.1L848.4,111.1z"/>
	<path class="st6" d="M773.1,111c-3.4,0.1-5.1,7.8-2.9,15.1c2.2,7.3,3.5,13.8,6.9,13.7c3.4-0.1,1.7-4.8,1.4-13.4
		C778.1,117.8,776.5,110.8,773.1,111L773.1,111L773.1,111z"/>
	<path class="st7" d="M774.3,113.7c-1.5-0.1-2.3,3.9-2.6,6c-0.3,2.1,0,7.5,1.2,10.3c1,2.2,2.7,8.2,3.1,0.9c0.1-1.9-0.9-2.2-1.3-4.5
		c-0.5-2.3,0.6-3.8,1.1-4.5C777.8,119.4,775.7,113.8,774.3,113.7L774.3,113.7L774.3,113.7z"/>
	<path class="st6" d="M809.9,65.2c-38.5,1.3-34.4,24.1-33.3,55.4c1.1,31.3,23.2,51.5,37.4,49.7c12.9-0.9,33.7-19.8,32.6-51.1
		c-0.9-23.9,1.3-43.6-15.6-51C825.9,66,819,64.9,809.9,65.2L809.9,65.2L809.9,65.2z"/>
	<path class="st5" d="M846.7,112.4c-5.4-18.6-5.3-24.6-23.2-38c-19.9,23-44,16.2-47.3,43.6c-5.2-3.6-3.9-13-3.8-17.3
		c0-20.7,18.3-43.8,37.6-42.1c27.5,4.5,32.7,12.5,42.3,45.1L846.7,112.4L846.7,112.4L846.7,112.4z"/>
	<path class="st9" d="M725,210.2c0,0-11.9,5.7-19.1,26.8c-26.9,78.9-13.4,41.5-37.5,127.3c-5.4,28.7,31.5,42.9,46.2,9.9l24.1-82.9
		L725,210.2L725,210.2z"/>
	<path class="st9" d="M847.1,190.4c16.8,8,31.8,11.7,48.6,22.6c-2.9,8.2-8.2,48.1-10.8,70.8c-2.8,23.9-10.4,34.6-23.6,57.3
		c-2.5,3.3-9.9,21,3.9,39.2c10.8,14.2,23,62.6,23,62.6s-14.8,7-33.4,13c-11.7,3.8-24.4,7.3-35.8,9.4c-2-5.2-26.2-83.2-26.1-99.4
		c0.1-16.2,8.7-54,8.7-54C818.1,288.6,839.3,232.2,847.1,190.4L847.1,190.4z"/>
	<path class="st4" d="M864.7,252.6l-66.1,103c2.2-10.1,0.7-38.4,2.2-41.5c9.9-11.1,22.5-42.5,46.3-123.7
		C856.1,215.3,857.9,224.6,864.7,252.6L864.7,252.6z"/>
	<path class="st9" d="M777.4,190.8l-53,19.6c0,0-1.6,69.8,9.5,92.2c21.9,46-21.3,144-21.3,144s11,6.4,23.9,11.2
		c12.9,4.8,43,7.5,43,7.5s23.3-72.7,24-78.5c0.7-5.7-2-77.5-2-77.5C781.3,274.2,780.2,230.6,777.4,190.8L777.4,190.8z"/>
	<path class="st4" d="M753,246l49.7,92.4c-0.5-21.1-0.4-27.5-0.4-27.5c-12.7-46-17.9-68.3-24.9-120.1L753,246L753,246z"/>
	<path class="st9" d="M894.1,212.3c0,0,9.4,5.3,15,26.9c20.8,80.8,6.4,29.9,23.8,117.3c3.1,29-31.6,37-40.4,14.4L873.4,281
		L894.1,212.3L894.1,212.3z"/>
	<path class="st7" d="M819.8,591.4c-10,28.5-45.5,91.5-45.5,91.5l-26,71.6c-7.2,20-26.8,1.1-24-38.3c9.2-11.9,14.6-23.7,17.4-40
		c1.1-6.3,7.2-10.3,10.9-19.2c4.2-10.2,13.3-78.7,38-130.8c5.8-12.1,4.4-21.3,9.2-37.7s29.2-12.8,33.3-11.7
		c15.9,4.6,15.8,19.5,11.9,34.1c-3.4,12.5-9.6,24.8-11.2,30.2C830.4,553,829.9,562.9,819.8,591.4z"/>
	<path class="st10" d="M725.6,714.6c6.2,7.8,16,18.8,27.7,26.4l-4.9,13.6c-7.2,20-26.8,1.1-24-38.3
		C724.8,715.7,725.2,715.1,725.6,714.6L725.6,714.6L725.6,714.6z"/>
	<path class="st6" d="M749.1,491.1c-0.7,11.4-2.4,24.8-2.4,24.8s-6.7,27.3-7.6,52.1c-0.8,24.8,15,156.4,15,156.4l-2.7,18l-15.6,59.1
		c-5,18.9,12.7,29.6,17,30.1c12.2,1.2,27.2-16.2,24.5-32.9c-2.7-16.7,3.5-43,4.4-54c0.9-11-3.2,3.1-3.3-46.3
		c-0.1-49.5,10.1-86.1,18.5-130.4c3.2-16.6,1.2-51.8,3.8-72.5C805,461.7,750.8,457.9,749.1,491.1L749.1,491.1z"/>
	<path class="st10" d="M736.6,798.5c11.1,3.5,26.6,7.1,41,5.7c-0.9,14.7-13.9,28.4-24.7,27.3c-0.1,0-0.1,0-0.2,0c-0.1,0-0.2,0-0.2,0
		c-0.1,0-0.2,0-0.2-0.1c-0.1,0-0.2,0-0.3-0.1l0,0c-0.1,0-0.2-0.1-0.3-0.1c-0.1,0-0.2-0.1-0.3-0.1l0,0c-0.1,0-0.2-0.1-0.3-0.1
		c-0.1,0-0.2-0.1-0.3-0.1c-0.1,0-0.2-0.1-0.3-0.1c-0.1-0.1-0.2-0.1-0.4-0.2c-0.1-0.1-0.2-0.1-0.4-0.2l-0.4-0.2l0,0
		c-0.1-0.1-0.3-0.1-0.4-0.2c-0.1-0.1-0.3-0.1-0.4-0.2l-0.4-0.2l0,0c-0.1-0.1-0.3-0.2-0.4-0.2h0c-0.1-0.1-0.3-0.2-0.4-0.3
		c-0.1-0.1-0.3-0.2-0.4-0.3c-0.1-0.1-0.3-0.2-0.4-0.3l0,0c-0.1-0.1-0.3-0.2-0.4-0.3c-0.1-0.1-0.3-0.2-0.4-0.3h0
		c-0.1-0.1-0.3-0.2-0.4-0.3l0,0c-0.1-0.1-0.3-0.2-0.4-0.3c-0.1-0.1-0.3-0.2-0.4-0.4c-0.2-0.1-0.3-0.2-0.4-0.4l0,0
		c-0.1-0.1-0.3-0.3-0.4-0.4l0,0c-0.1-0.1-0.3-0.3-0.4-0.4c-0.1-0.1-0.3-0.3-0.4-0.4c-0.1-0.1-0.3-0.3-0.4-0.4
		c-0.1-0.1-0.3-0.3-0.4-0.4c-0.1-0.2-0.3-0.3-0.4-0.5c-0.1-0.2-0.3-0.3-0.4-0.5l0,0c-0.1-0.2-0.3-0.3-0.4-0.5l0,0
		c-0.1-0.2-0.3-0.3-0.4-0.5c-0.1-0.2-0.3-0.3-0.4-0.5c-0.1-0.2-0.3-0.3-0.4-0.5l0,0c-0.1-0.2-0.3-0.4-0.4-0.5
		c-0.1-0.2-0.2-0.4-0.4-0.6l0,0c-0.1-0.2-0.2-0.4-0.3-0.6c-0.1-0.2-0.2-0.4-0.3-0.6l0,0c-0.1-0.2-0.2-0.4-0.3-0.6l0,0
		c-0.1-0.2-0.2-0.4-0.3-0.6l0,0c-0.1-0.2-0.2-0.4-0.3-0.6l0,0c-0.1-0.2-0.2-0.4-0.3-0.6c-0.1-0.2-0.2-0.4-0.3-0.6
		c-0.1-0.2-0.2-0.4-0.2-0.7l0,0c-0.1-0.2-0.1-0.4-0.2-0.7c-0.1-0.2-0.1-0.5-0.2-0.7c-0.1-0.2-0.1-0.5-0.2-0.7
		c-0.1-0.2-0.1-0.5-0.2-0.7c0-0.2-0.1-0.5-0.1-0.7c0-0.2-0.1-0.5-0.1-0.7c0-0.2-0.1-0.5-0.1-0.7c0-0.2,0-0.5-0.1-0.8
		c0-0.3,0-0.5,0-0.8c0-0.3,0-0.5,0-0.8c0-0.3,0-0.5,0-0.8c0-0.3,0-0.5,0-0.8c0-0.3,0-0.5,0.1-0.8c0-0.3,0.1-0.6,0.1-0.8
		c0-0.3,0.1-0.6,0.1-0.8c0-0.3,0.1-0.6,0.2-0.9c0.1-0.3,0.1-0.6,0.2-0.9c0.1-0.3,0.1-0.6,0.2-0.9L736.6,798.5L736.6,798.5
		L736.6,798.5z"/>
	<polygon class="st11" points="1341.6,808.4 1316.4,808.4 1316.4,417.4 1341.6,417.4 1341.6,808.4 	"/>
	<polygon class="st2" points="347.5,732.9 424.5,732.9 436.6,703.7 461.4,732.9 550.6,732.9 550.6,751.5 347.5,751.5 347.5,732.9 	
		"/>
	<path class="st2" d="M347.6,750.4c8.6,0,15.6,7,15.6,15.6c0,8.6-7,15.6-15.6,15.6c-8.6,0-15.6-7-15.6-15.6
		C332,757.4,339,750.4,347.6,750.4L347.6,750.4L347.6,750.4z"/>
	<path class="st2" d="M549.7,750.5c8.6,0,15.6,7,15.6,15.6c0,8.6-7,15.6-15.6,15.6c-8.6,0-15.6-7-15.6-15.6
		C534.1,757.5,541.1,750.5,549.7,750.5L549.7,750.5L549.7,750.5z"/>
	<path class="st2" d="M447.2,750.1c8.6,0,15.6,7,15.6,15.6c0,8.6-7,15.6-15.6,15.6c-8.6,0-15.6-7-15.6-15.6
		C431.6,757,438.6,750.1,447.2,750.1L447.2,750.1L447.2,750.1z"/>
	<polygon class="st3" points="434.6,559.2 464.2,559.2 464.2,732.9 434.6,732.9 434.6,559.2 	"/>
	<polygon class="st3" points="538.5,559.2 360.3,559.2 386.9,588.7 514.8,588.7 538.5,559.2 538.5,559.2 	"/>
	<path class="st1" d="M354,157h190.3c8.3,0,15.1,6.8,15.1,15.1v332.9c0,8.3-6.8,15.1-15.1,15.1H354c-8.3,0-15.1-6.8-15.1-15.1V172.2
		C338.9,163.8,345.7,157,354,157L354,157L354,157z"/>
	<path class="st1" d="M520.5,506.1H552c11.5,0,21,12.1,21,27l0,0c0,14.8-9.4,27-21,27l-109.4-0.6l-99.7,0.5c-11.5,0-21-12.1-21-27
		l0,0c0-14.8,9.4-27,21-27h176.2C519.5,506.1,520,506.1,520.5,506.1L520.5,506.1L520.5,506.1z"/>
	<polygon class="st1" points="338.9,218.2 559.5,218.2 559.5,227.2 338.9,227.2 338.9,218.2 	"/>
	<polygon class="st1" points="338.9,286.2 559.5,286.2 559.5,295.2 338.9,295.2 338.9,286.2 	"/>
	<polygon class="st1" points="338.9,354.2 559.5,354.2 559.5,363.3 338.9,363.3 338.9,354.2 	"/>
	<polygon class="st1" points="338.9,422.2 559.5,422.2 559.5,431.3 338.9,431.3 338.9,422.2 	"/>
	<path class="st1" d="M341.3,423.4c8,0,9.8,13.9,9.8,21.9l0,0c0,8-6.5,14.5-14.5,14.5h-11.8c-8,0-14.5-6.5-14.5-14.5l0,0
		c0-8,5.2-12.6,11.3-15.3C327.7,427.3,341.3,423.4,341.3,423.4z"/>
	<path class="st1" d="M554.5,423c0,0,11,5.5,17.3,8.3s12.4,7.2,12.4,15.2v0c0,8-6.5,14.5-14.5,14.5h-11.8c-8,0-14.5-6.5-14.5-14.5v0
		c0-8,6.5-14.5,14.5-14.5l0,0L554.5,423z"/>
	<path class="st4" d="M495.2,766.2c1.7,6.8,25.3,27.8,31,33.8c10.5,11.1,14.9,15.2,17.1,17.8c2.2,2.7,4,7.6,0.8,11.9
		c-3.2,4.3-12.6,2.7-19.6,2.7s-24.2-5.7-27.9-6.8c-10.1-7.1-16.5-13.8-16.5-13.8c-4.8-0.5-14.8,1.3-23.7-4.2
		c-4-2.4,0.2-31.8,2.7-34.6S495.2,766.2,495.2,766.2L495.2,766.2L495.2,766.2z"/>
	<path class="st4" d="M437,730c0,0,12.5,24.6,11.6,32c-0.9,7.5-7.9,17.3-7.9,17.3s-2.9,25.5-6.7,28.3c-3.8,2.8-16.9,16.3-19.6,17.4
		s-18.2,4.6-22,0.7c-3.8-3.8-3.1-23.2-1.3-26.2c1.9-3.1,9.4-27.1,9.8-29.2c0.5-2.1,3.4-28.8,3.4-28.8L437,730L437,730L437,730z"/>
	<path class="st12" d="M534.4,421.2H369.3l-50.9,109.2l81.8,226.9l16.9,11.3c13-6.4,19.3-12.7,27.6-31.8
		c-1.9-28.5-62.1-192.8-60.2-195.7c3.9-5.9,59.5-34.3,59.5-34.3l74,33.2l-58.4,236.1c8,6.7,46.1,11.4,47,3.9
		c0.9-7.5,73.3-238,72.4-243.6C572,494.7,540.1,435,534.4,421.2L534.4,421.2L534.4,421.2z"/>
	<path class="st5" d="M510.9,182.1c-5.7-2.6-17.7-6.4-18.9-15.3c-0.7-5.1-0.8-10-0.8-11.1c0-4.8,0.1-9.8,0.5-15
		c-6.5,12.1-17.2,19.8-32.7,19.5c-10.9-0.2-20.5-9.3-26.7-21.3c0.8,6.3,1.3,12.4,1.4,18.4c0,0.3-0.1,2.2-0.1,4.3
		c-0.3,8.9-10.1,15.2-18.8,18.3C437.1,218.7,486.9,219.5,510.9,182.1L510.9,182.1L510.9,182.1z"/>
	<path class="st13" d="M495.7,72.4c0,0-0.1,0.1-0.1,0.1C495.6,72.5,495.7,72.5,495.7,72.4L495.7,72.4L495.7,72.4L495.7,72.4z"/>
	<path class="st13" d="M492.5,76.1c0.1,0.1,0.3,0.1,0.4,0.2C492.9,76.2,492.7,76.1,492.5,76.1L492.5,76.1L492.5,76.1z"/>
	<path class="st13" d="M427.1,89.6c-0.1,0-0.1,0-0.1,0C426.9,89.6,427,89.6,427.1,89.6L427.1,89.6L427.1,89.6z"/>
	<path class="st5" d="M424.4,103.6c-0.2-0.7-0.3-1.3-0.5-1.9c-1.2-3.5-2.8-5.7-5.1-5.6c-0.6,0-1.1,0.2-1.6,0.5
		c-3.2,2.1-4.4,9.9-1.8,17.3c2.9,8.5,4.7,16.2,9,15.9c3-0.2,2.8-2.9,2.2-7.9c-0.2-2.2-0.6-4.9-0.7-7.9
		C425.7,110.2,425.2,106.6,424.4,103.6L424.4,103.6L424.4,103.6z M421,114.2c0.6,2.7,1.9,3,1.8,5.2c-0.4,8.6-2.6,1.6-3.9-1
		c-1.7-3.2-2.1-9.6-1.8-12c0.3-2.4,1.3-7.2,3.2-7.1c1.8,0.1,4.6,6.6,2,9.6C421.7,109.8,420.4,111.6,421,114.2L421,114.2L421,114.2z"
		/>
	<path class="st6" d="M420.3,99.3c-1.9-0.1-2.9,4.7-3.2,7.1c-0.3,2.4,0.1,8.8,1.8,12c1.3,2.6,3.6,9.6,3.9,1c0.1-2.2-1.2-2.6-1.8-5.2
		c-0.6-2.7,0.7-4.5,1.4-5.3C424.9,105.9,422.2,99.4,420.3,99.3L420.3,99.3L420.3,99.3z"/>
	<path class="st5" d="M500.1,103.1C500.1,103.1,500.1,103.2,500.1,103.1c-0.9,3.2-1.5,7.1-1.8,11.5c-0.4,5.7-1.2,9.9-1.2,12.5
		c0.1,2.1,0.7,3.2,2.5,3.3c4.3,0.3,6.1-7.4,9.1-15.9c2.8-8,1.3-16.5-2.5-17.7c-0.2-0.1-0.5-0.1-0.7-0.1
		C503.1,96.5,501.3,99.1,500.1,103.1L500.1,103.1L500.1,103.1z M505.2,119c-1.4,2.6-3.6,9.5-3.9,1c-0.1-2.2,1.2-2.6,1.8-5.2
		c0.7-2.7-0.6-4.5-1.3-5.3c-2.6-3.1,0.3-9.6,2.1-9.6c1.9-0.1,2.9,4.7,3.2,7.1C507.4,109.4,506.9,115.8,505.2,119L505.2,119
		L505.2,119z"/>
	<path class="st6" d="M504,99.8c-1.8,0.1-4.7,6.6-2.1,9.6c0.7,0.8,2,2.6,1.3,5.3c-0.7,2.7-1.9,3-1.8,5.2c0.3,8.6,2.5,1.6,3.9-1
		c1.7-3.2,2.2-9.6,1.9-12C506.8,104.5,505.9,99.7,504,99.8L504,99.8L504,99.8z"/>
	<path class="st6" d="M494.7,172.7c-39.7,5.4-57.3-10.2-62.3-34.5c3.3,7.9,6.6,13.5,11.5,18.3c4.9,3.8,10,5.3,17,5.9
		c7.8,0.2,15.1-1.2,21-6.6c4.2-3.8,7.1-10,9.8-15c-0.4,5.2-0.6,10.1-0.5,15c0,1.1,0.1,6,0.8,11.1
		C492.3,169.1,493.3,171.1,494.7,172.7L494.7,172.7L494.7,172.7z"/>
	<path class="st8" d="M472.4,302.2c-4.9-19.5-5.8-85.9-5.8-85.9l6.9-11.3l-5.2-7.3l-11.7,0.3l-5.9,6.9l6.8,11.6
		c-2.8,15.5-6.4,68.4-10.3,85.6c-5.3-0.7-21.2-120.1-21.5-128.5c0,0,0-0.1,0-0.1c4.3-5.5,1.8-1.8,6.8-10.8l0,0c0,0,0,0,0,0
		c0,0,0,0,0,0c0.4,1.7,1,3.3,1.6,5c4.5,12.4,13.3,22.6,21.8,29.1c4.4-0.1,8.7-0.2,13.1-0.2c9.8-8.4,16.5-17.2,23.5-30.4
		c0.3-0.6,0.6-1.2,0.9-1.8c1.2,1.8,5,8,6.3,9.9c0.1,0.1,0.1,0.2,0.2,0.2C494.1,236.6,490,250.2,472.4,302.2L472.4,302.2L472.4,302.2
		z"/>
	<path class="st14" d="M450.7,204.9l5.9-6.9l11.7-0.3l5.2,7.3l-6.9,11.3c0,0,11.6,70.4,14,98.7c-4.9,6.4-18.3,54.5-23.9,67
		c-4.1-15.3-12-63.2-15.6-70c3.8-17.2,13.5-79.9,16.3-95.4L450.7,204.9L450.7,204.9L450.7,204.9z"/>
	<path class="st12" d="M427.5,171.8c0,0-31.8,10.1-39.3,12.7s-28.7,12.1-28.7,12.1c20.8,123.8,9.2,216.1-6.9,314.3
		c22.6,1.5,55.9,11.2,78.2-7.2c19.6-16.1,35.6-56.5,29.6-112.3c-12.1-113.2-20.3-105.9-33.7-219.4l0,0L427.5,171.8L427.5,171.8
		L427.5,171.8z"/>
	<path class="st12" d="M498.9,173.3c0,0,19.5,9.6,26.2,13c6.7,3.5,39.6,22.5,39.6,22.5c-46.3,178-42.5,149.4-12.5,314.3
		c0,0-18.4-0.1-48.2-0.9c-29.8-0.8-47.3-33.5-48.2-79.9c-0.9-46.4,2.3-96.5,6-106.6C465.5,325.6,498.9,173.3,498.9,173.3
		L498.9,173.3L498.9,173.3z"/>
	<path class="st10" d="M519,183.2l9.6,25.2l-23.4,15.9l10.8,17.5L458.4,358c1-10.9,2.2-18.9,3.4-22.3
		c3.7-10.1,37.2-162.4,37.2-162.4L519,183.2L519,183.2L519,183.2z"/>
	<path class="st10" d="M401.7,180.1l-8.4,15.9l22.8,16.8l-11.5,17.1l49.8,111.8c-9.1-64.6-16.6-76.1-27.7-169.6L401.7,180.1
		L401.7,180.1L401.7,180.1z"/>
	<path class="st5" d="M459.6,160.5c15.6,0.3,25.8-7.4,32.3-19.5c2.2-4.2,4-8.9,5.2-13.9c-0.1-2.7,0.8-6.9,1.2-12.5
		c0.3-4.3,0.9-8.3,1.8-11.4c0,0,0,0,0-0.1c-0.1,0.2-0.2,0.3-0.4,0.5c-0.7-10.9-4.4-30-6-34.6c-3.5-2.9-7.9-8.9-44.9-7.8
		c-4.3-1.2-16.1,7.7-16.3,7.9c-1.3,2.1-3.1,6.2-4.2,12.4c-3.6,20.4-1.8,14.7-3,22.1c-0.2-0.1-0.7-0.7-1.4-1.4c0,0.5,0.1,0.9,0.1,1.4
		c0.7,3,1.2,6.6,1.4,10.5c0.2,3.1,0.5,5.7,0.7,7.9c1.3,5.9,2.8,12.5,5.5,17.8c6.2,12,16.4,20.4,27.3,20.6L459.6,160.5L459.6,160.5
		L459.6,160.5z"/>
	<path class="st10" d="M425.4,103.6c1.2-7.5-0.6-1.7,3-22.1c1.1-6.1,3.8-9.8,5.1-11.9c2.5-3.9,59.2,6.5,59.4,6.6
		c1.6,4.7,4.6,18,6.8,27.4c0.1-0.2,0.3-0.3,0.4-0.5c0,0,0,0,0,0c1.2-4,3-6.6,5.4-6.4c0.2,0,0.5,0.1,0.7,0.1
		c3.2-34.6-14.8-56.6-49.5-64.3c2.6,3.1,2.5,4.6,2.2,8.7c-10.6-6.5-15.3-7.4-21.4-7c6.3,7.5,7.4,10.6,5.7,11.7
		c-4.9-2.5-5.7-4.6-9.9-9.8c6.2,9.3-16.4,37.5-14.6,60C423.5,96.2,422.2,101.5,425.4,103.6L425.4,103.6L425.4,103.6z"/>
	<path class="st10" d="M359.6,196.6c-25.5,29.5-68.7,116.3-84.8,165.3c-13.5,36.6,22.3,63.6,46.1,19.8l48.3-93.5
		C375.3,234,362.6,203.3,359.6,196.6L359.6,196.6L359.6,196.6z"/>
	<path class="st10" d="M564.8,208.9c24.9,30,59.7,116.4,74.8,165.7c12.8,36.9-26,58.2-49,14l-46.8-98.7
		C544.9,239.4,561.7,215.5,564.8,208.9L564.8,208.9L564.8,208.9z"/>
	<path class="st6" d="M431.3,384.8l13,0.4l13.3-6.2c0,0,10-5.9,16.6-7.7s17-2.3,20.1-1.1s4,3.6,4,3.6l-5.1,4.8l-6.5,2.2l-12.3,2.7
		l9.3,1.1l-1.6,37.7c-8.7,1.4-14.8,2-27.6-2.7l-22.5-2.6L431.3,384.8L431.3,384.8L431.3,384.8z"/>
	<path class="st15" d="M483.7,384.6c0.7-0.3,8.5-3.3,8.5-3.3l6.8,4.5l-1.2,5.6l3.4,5.4l-4,4.9l0.5,5.6l-5.6,3.5l-0.9,4.9l-9,6.6
		L483.7,384.6L483.7,384.6L483.7,384.6z"/>
	<path class="st8" d="M430.2,383.1c0,0,11.2,0.2,14.7,1c1.4,4.9,1.2,28.6,1.2,36.1c-11.7-0.9-11.7-0.7-16-1.6L430.2,383.1
		L430.2,383.1L430.2,383.1z"/>
	<path class="st10" d="M293.2,406.3c27.7,11.7,124.5,13.9,148.4,20l-4-48.5l-132-20.3C276.1,356.2,264.3,394.1,293.2,406.3
		L293.2,406.3L293.2,406.3z"/>
	<path class="st5" d="M474.8,380l-15.8-6.5c0,0-11.1-5.9-16.8-6.8c-5.7-0.9-10.1,1.6-12.4,2.5c-1.8,0.8-2.9,1.4-3.2,2.7
		c-3-0.4-5.8,1-6.4,4c-1.2,4,0.7,5.7,0.7,5.7s-3.5,1.8-3.8,5.1s3.6,5.2,3.6,5.2s-1.5,2.6-1,5.5c0.6,2.9,5.3,4,5.3,4l0.5,4.9l8.4,7.3
		c8.5,2.1,14.5,3.3,27.8-0.4l22.7-0.7l3.3-32L474.8,380z"/>
	<path class="st8" d="M489,379.2c0,0-11.2-0.8-14.7-0.2c-1.8,4.8-3.6,28.4-4.2,35.9c11.8,0.1,11.7,0.3,16-0.2L489,379.2L489,379.2
		L489,379.2z"/>
	<path class="st10" d="M623.6,413.8c-28.6,9.4-125.2,3.3-149.5,7.4l8-48l133.2-9.1C644.8,365.4,653.4,404,623.6,413.8L623.6,413.8
		L623.6,413.8z"/>
	<polygon class="st2" points="1251.6,732.9 1174.7,732.9 1149.9,703.7 1140.1,732.9 1048.5,732.9 1048.5,751.5 1251.6,751.5 
		1251.6,732.9 	"/>
	<path class="st2" d="M1251.6,750.4c-8.6,0-15.6,7-15.6,15.6c0,8.6,7,15.6,15.6,15.6c8.6,0,15.6-7,15.6-15.6
		C1267.2,757.4,1260.2,750.4,1251.6,750.4L1251.6,750.4L1251.6,750.4z"/>
	<path class="st2" d="M1049.5,750.5c-8.6,0-15.6,7-15.6,15.6c0,8.6,7,15.6,15.6,15.6c8.6,0,15.6-7,15.6-15.6
		C1065.1,757.5,1058.1,750.5,1049.5,750.5L1049.5,750.5L1049.5,750.5z"/>
	<path class="st2" d="M1152,750.1c-8.6,0-15.6,7-15.6,15.6c0,8.6,7,15.6,15.6,15.6c8.6,0,15.6-7,15.6-15.6
		C1167.6,757,1160.6,750.1,1152,750.1L1152,750.1L1152,750.1z"/>
	<polygon class="st3" points="1164.6,559.2 1135,559.2 1135,732.9 1164.6,732.9 1164.6,559.2 	"/>
	<polygon class="st3" points="1060.7,559.2 1238.9,559.2 1212.3,588.7 1084.4,588.7 1060.7,559.2 1060.7,559.2 	"/>
	<path class="st1" d="M1245.2,157h-190.3c-8.3,0-15.1,6.8-15.1,15.1v332.9c0,8.3,6.8,15.1,15.1,15.1h190.3c8.3,0,15.1-6.8,15.1-15.1
		V172.2C1260.3,163.8,1253.5,157,1245.2,157L1245.2,157L1245.2,157z"/>
	<path class="st16" d="M1078.7,506.1h-31.5c-11.5,0-21,12.1-21,27l0,0c0,14.8,9.4,27,21,27l109.4-0.6l99.7,0.5c11.5,0,21-12.1,21-27
		l0,0c0-14.8-9.4-27-21-27h-176.2C1079.6,506.1,1079.1,506.1,1078.7,506.1L1078.7,506.1L1078.7,506.1z"/>
	<polygon class="st1" points="1260.3,218.2 1039.7,218.2 1039.7,227.2 1260.3,227.2 1260.3,218.2 	"/>
	<polygon class="st1" points="1260.3,286.2 1039.7,286.2 1039.7,295.2 1260.3,295.2 1260.3,286.2 	"/>
	<polygon class="st1" points="1260.3,354.2 1039.7,354.2 1039.7,363.3 1260.3,363.3 1260.3,354.2 	"/>
	<polygon class="st1" points="1260.3,422.2 1039.7,422.2 1039.7,431.3 1260.3,431.3 1260.3,422.2 	"/>
	<path class="st16" d="M1255.6,423.4c-8,0-7.5,13.9-7.5,21.9l0,0c0,8,6.5,14.5,14.5,14.5h11.8c8,0,14.5-6.5,14.5-14.5l0,0
		c0-8-6.3-12.6-13.1-15.9C1269,426.2,1255.6,423.4,1255.6,423.4z"/>
	<path class="st16" d="M1043.6,424.7c0,0-7.2,1.5-14.7,4.5c-7.5,3-13.8,9.5-13.8,17.4v0c0,8,6.5,14.5,14.5,14.5h11.8
		c8,0,14.5-6.5,14.5-14.5v0c0-8-6.5-14.5-14.5-14.5l0,0L1043.6,424.7z"/>
	<path class="st10" d="M1103.9,766.2c-1.7,6.8-25.3,27.8-31,33.8c-10.5,11.1-9.2,10.2-17.1,17.8c-1.6,5.3-1.5,6.2-3.5,12.6
		c8.5,1.2,13,2,22.3,2c17.2-3.8,24.2-5.7,27.9-6.8c10.1-7.1,16.5-13.8,16.5-13.8c4.8-0.5,15.9-1.8,23.1-5.3
		c2.2-22.2-3.8-42.9-3.8-42.9L1103.9,766.2L1103.9,766.2L1103.9,766.2z"/>
	<path class="st10" d="M1162.1,730c0,0-12.9,22.7-12.1,30.7c0.8,8,8.4,18.7,8.4,18.7s2.9,25.5,6.7,28.3c3.8,2.8,19.6,17.4,19.6,17.4
		s20.3,4.5,21,1.7c0.7-2.8,4.2-24.1,2.3-27.1c-1.9-3.1-9.4-27.1-9.8-29.2c-0.5-2.1-3.4-28.8-3.4-28.8L1162.1,730L1162.1,730
		L1162.1,730z"/>
	<path class="st12" d="M1064.8,421.2h165.1l50.9,109.2L1199,757.3l-16.9,11.3c-13-6.4-19.3-12.7-27.6-31.8
		c1.9-28.5,62.1-192.8,60.2-195.7c-3.9-5.9-59.5-34.3-59.5-34.3l-74,33.2l58.4,236.1c-8,6.7-46.1,11.4-47,3.9
		c-0.9-7.5-73.3-238-72.4-243.6C1027.2,494.7,1059,435,1064.8,421.2L1064.8,421.2L1064.8,421.2z"/>
	<path class="st5" d="M1088.3,182.1c5.7-2.6,17.7-6.4,18.9-15.3c0.7-5.1,0.8-10,0.8-11.1c0-4.8-0.1-9.8-0.5-15
		c6.5,12.1,17.2,19.8,32.7,19.5c10.9-0.2,20.5-9.3,26.7-21.3c-0.8,6.3-1.3,12.4-1.4,18.4c0,0.3,0.1,2.2,0.1,4.3
		c0.3,8.9,10.1,15.2,18.8,18.3C1162,218.7,1112.3,219.5,1088.3,182.1L1088.3,182.1L1088.3,182.1z"/>
	<path class="st13" d="M1103.5,72.4c0,0,0.1,0.1,0.1,0.1C1103.5,72.5,1103.5,72.5,1103.5,72.4L1103.5,72.4L1103.5,72.4L1103.5,72.4z
		"/>
	<path class="st13" d="M1106.7,76.1c-0.1,0.1-0.3,0.1-0.4,0.2C1106.3,76.2,1106.5,76.1,1106.7,76.1L1106.7,76.1L1106.7,76.1z"/>
	<path class="st13" d="M1172.1,89.6c0.1,0,0.1,0,0.1,0C1172.2,89.6,1172.2,89.6,1172.1,89.6L1172.1,89.6L1172.1,89.6z"/>
	<path class="st6" d="M1169.4,173.1c-44.8,8.8-57.3-10.2-62.3-34.5c3.3,7.9,6.6,16.4,11.5,21.1c4.9,3.8,10,5.3,17,5.9
		c7.8,0.2,15.1-1.2,21-6.6c4.2-3.8,7.7-12.6,9.8-17.8c-0.4,5.2-0.7,10.2-0.6,15c0,1.1,0.1,6,0.8,11.1
		C1167,169.5,1168,171.5,1169.4,173.1L1169.4,173.1L1169.4,173.1z"/>
	<path class="st8" d="M1126.8,302.2c4.9-19.5,5.8-85.9,5.8-85.9l-6.9-11.3l5.2-7.3l11.7,0.3l5.9,6.9l-6.8,11.6
		c2.8,15.5,6.4,68.4,10.3,85.6c5.3-0.7,21.2-120.1,21.5-128.5c0,0,0-0.1,0-0.1c-4.3-5.5-1.8-1.8-6.8-10.8l0,0c0,0,0,0,0,0
		c0,0,0,0,0,0c-0.4,1.7-1,3.3-1.6,5c-4.5,12.4-13.3,22.6-21.8,29.1c-4.4-0.1-8.7-0.2-13.1-0.2c-9.8-8.4-15.5-16.7-22.5-29.9
		c-0.3-0.6-0.6-1.2-0.9-1.8c-1.2,1.8-6,7.5-7.3,9.5c-0.1,0.1-0.1,0.2-0.2,0.2C1105.1,236.6,1109.2,250.2,1126.8,302.2L1126.8,302.2
		L1126.8,302.2z"/>
	<path class="st17" d="M1148.5,204.9l-5.9-6.9l-11.7-0.3l-5.2,7.3l6.9,11.3c0,0-11.6,70.4-14,98.7c4.9,6.4,18.3,54.5,23.9,67
		c4.1-15.3,12-63.2,15.6-70c-3.8-17.2-13.5-79.9-16.3-95.4L1148.5,204.9L1148.5,204.9L1148.5,204.9z"/>
	<path class="st12" d="M1171.6,171.8l68.5,21.9c-20.8,123.8-9.8,218.9,6.3,317.2c-22.6,1.5-55.9,11.2-78.2-7.2
		c-19.6-16.1-35.6-56.5-29.6-112.3c12.1-113.2,20.3-105.9,33.7-219.4l0,0L1171.6,171.8L1171.6,171.8L1171.6,171.8z"/>
	<path class="st12" d="M1100.2,173.3l-66.4,32.7c-2.7,12.1-26.5,95.6-26.5,95.6l42.8-32.9c28.6,111.8,22.6,112.1-3.2,254.4
		c0,0,18.4-0.1,48.2-0.9c29.8-0.8,47.3-33.5,48.2-79.9c0.9-46.4-2.3-96.5-6-106.6C1133.7,325.6,1100.2,173.3,1100.2,173.3
		L1100.2,173.3L1100.2,173.3z"/>
	<path class="st10" d="M1080.2,183.2l-9.6,25.2l23.4,15.9l-10.8,17.5l57.6,116.3c-1-10.9-2.2-18.9-3.4-22.3
		c-3.7-10.1-37.2-162.4-37.2-162.4L1080.2,183.2L1080.2,183.2L1080.2,183.2z"/>
	<path class="st10" d="M1197.4,180.1l8.4,15.9l-22.8,16.8l11.5,17.1l-49.8,111.8c9.1-64.6,16.6-76.1,27.7-169.6L1197.4,180.1
		L1197.4,180.1L1197.4,180.1z"/>
	<path class="st5" d="M1139.6,160.5c-15.6,0.3-25.8-7.4-32.3-19.5c-2.2-4.2-4-8.9-5.2-13.9c0.1-2.7-0.8-6.9-1.2-12.5
		c-0.3-4.3-0.9-8.3-1.8-11.4c0,0,0,0,0-0.1c0.1,0.2,0.2,0.3,0.4,0.5c0.7-10.9,4.4-30,6-34.6c3.5-2.9,7.9-8.9,44.9-7.8
		c4.3-1.2,16.1,7.7,16.3,7.9c1.3,2.1,3.1,6.2,4.2,12.4c3.6,20.4,1.8,14.7,3,22.1c0.2-0.1,0.7-0.7,1.4-1.4c0,0.5-0.1,0.9-0.1,1.4
		c-0.7,3-1.2,6.6-1.4,10.5c-0.2,3.1-0.5,5.7-0.7,7.9c-1.3,5.9-2.8,12.5-5.5,17.8c-6.2,12-16.4,20.4-27.3,20.6L1139.6,160.5
		L1139.6,160.5L1139.6,160.5z"/>
	<path class="st5" d="M1173.8,103.6c-1.2-7.5,0.6-1.7-3-22.1c-1.1-6.1-3.8-9.8-5.1-11.9c-2.5-3.9-59.2,6.5-59.4,6.6
		c-1.6,4.7-4.6,18-6.8,27.4c-0.1-0.2-0.3-0.3-0.4-0.5c0,0,0,0,0,0c-1.2-4-3.6-5.2-3.6-5.2s-0.7-0.1-0.7,0.1
		c-0.8-35.3,17.6-52.8,43.6-52c28.3,0.8,41.9,29.1,40,51.6C1176.5,100.4,1177,101.5,1173.8,103.6L1173.8,103.6L1173.8,103.6z"/>
	<path class="st18" d="M1094.8,97.2c0,0,4.4,0.5,4.7-3.1c0,0,2.4-1.4,2.4-6.5c0-5-1.3-5.8-1.3-5.8s3.9-3.1,3.9-7.1c0-4-2-5.3-3-5.7
		c-1-0.4-3.8-0.6-5.8,2.7c-1.8,3-2.9,7.7-2.5,9.6c0,0-1.3,1.2-2.3,3.5c0,0-1.9,3.6-0.7,6.8c0,0-1.8,4.2-0.5,6.3
		S1094.9,98.5,1094.8,97.2"/>
	<path class="st10" d="M1240.1,193.7c25.5,29.5,68.2,119.2,84.2,168.2c13.5,36.6-22.3,63.6-46.1,19.8l-48.3-93.5
		C1223.8,234,1237.2,200.5,1240.1,193.7L1240.1,193.7L1240.1,193.7z"/>
	<path class="st5" d="M1152.5,384.9c-6.7-0.3-21.4-8.9-21.4-8.9s-5.5-3.5-11.2-4.4c-5.7-0.9-10.1,1.6-12.4,2.5
		c-1.8,0.8-2.9,1.4-3.2,2.7c-3-0.4-5.8,1-6.4,4c-1.2,4,0.7,5.7,0.7,5.7s-3.5,1.8-3.8,5.1s3.6,5.2,3.6,5.2s-1.5,2.6-1,5.5
		c0.6,2.9,5.3,4,5.3,4l0.5,4.9l8.4,7.3c8.5,2.1,14.5,3.3,27.8-0.4l22.7-0.7l3.3-32C1165.5,385.5,1159.2,385.2,1152.5,384.9z"/>
	<path class="st8" d="M1168.9,383.1c0,0-11.2,0.2-14.7,1c-1.4,4.9-1.2,28.6-1.2,36.1c11.7-0.9,11.7-0.7,16-1.6L1168.9,383.1
		L1168.9,383.1L1168.9,383.1z"/>
	<path class="st10" d="M1306,406.3c-27.7,11.7-124.5,13.9-148.4,20l4-48.5l132-20.3C1323.1,356.2,1334.9,394.1,1306,406.3
		L1306,406.3L1306,406.3z"/>
	<polygon class="st11" points="280.5,813 255.3,813 255.3,422 280.5,422 280.5,813 	"/>
	<path class="st1" d="M726.9,389.7l16.6-130.1c0.5-3.8,4-6.4,7.9-5.9l85.4,10.9c3.9,0.5,6.6,4,6.1,7.7l-16.6,130.1
		c-0.5,3.8-4,6.4-7.9,5.9L733,397.4C729.1,396.9,726.4,393.4,726.9,389.7L726.9,389.7L726.9,389.7z"/>
	<path class="st3" d="M724.1,390.8l16.6-130.1c0.5-3.8,4-6.4,7.9-5.9l85.4,10.9c3.9,0.5,6.6,4,6.1,7.7l-16.6,130.1
		c-0.5,3.8-4,6.4-7.9,5.9l-85.4-10.9C726.4,398,723.7,394.6,724.1,390.8L724.1,390.8L724.1,390.8z"/>
	<path class="st6" d="M807.8,372.1l-12.6-0.3l-13.2-6l-16.1-6.4l-12.8,0.4l-9.9,2.1c1.1,1.8,2.2,2.8,5.5,3.6l17.5,3.3l-10.2,1.6
		l0.9,31.6c8.5,1.2,27.6-3.2,40.4-7.2l14.4-2.3L807.8,372.1L807.8,372.1L807.8,372.1z"/>
	<path class="st7" d="M756.1,370.4c-0.6-0.3-4.3-1.1-4.3-1.1l-6.2,2.6l1.4,5.7l-3.6,2.7l3.4,4.8c0,0-3.9,1.2-2.9,4
		c1,2.8,4.6,3.6,4.6,3.6s-1.8,1.3-0.4,3.6c1.4,2.3,8.8,5.6,8.8,5.6L756.1,370.4L756.1,370.4L756.1,370.4z"/>
	<path class="st9" d="M913.7,385c-80.4,12.2-30.5,3.7-113.7,12.6l-4.8-37.9l111.3-16C944.6,343.4,935.8,381.7,913.7,385L913.7,385z"
		/>
	<path class="st6" d="M791,353.7l12-3.5l11.2-9.3c0,0,10.3-8.4,13.8-9.8c3.5-1.5,6.7-1.8,9-2.2c2.3-0.3,10.1-0.6,10.1-0.6
		c-0.6,2-1.4,3.3-4.4,4.9l-12.5,6.4l10.2-1.1l7.5,30.7c-7.9,3.4-27.5,4.2-40.9,3.7l-14.5,1.6L791,353.7L791,353.7L791,353.7z"/>
	<path class="st7" d="M840.4,338.5c0.5-0.4,3.8-2.1,3.8-2.1s5-1.9,6.6,0.9c1.6,2.8,0.2,5.9,0.2,5.9s3.2-1.4,4,2.4
		c0.9,3.8-1.9,4.8-1.9,4.8s2.4,0.4,2.7,3.3c0.3,2.9-2.4,4.4-2.4,4.4s2.1,0.4,1.3,3.4c-0.8,3-7,7.7-7,7.7L840.4,338.5L840.4,338.5
		L840.4,338.5z"/>
	<g>
		<g>
			<circle class="st8" cx="780.8" cy="330.9" r="13.3"/>
		</g>
		<g>
			<path class="st19" d="M775.9,337.3c-0.6,0.9-1.1,2.2-1.4,3c-0.3,0.8-0.2,0.9,0.3,0.1c0.2-0.3,1.2-2,2.4-4
				c0.3-0.7,1.4-3.1,2.3-5.2C778.1,333.5,776.3,336.7,775.9,337.3"/>
			<path class="st20" d="M779.5,331.2c-0.9,2-2,4.4-2.3,5.2c0,0.1-0.1,0.1-0.1,0.2c-0.5,1.1-0.8,2.3-1,3.2c-0.2,0.9,0,0.9,0.3,0.1
				c0.1-0.3,0.9-2.1,1.8-4.1c0.1-0.5,1-3.2,1.6-5.4C779.8,330.6,779.7,330.9,779.5,331.2"/>
			<path class="st21" d="M779.9,330.4c-0.7,2.2-1.5,4.9-1.6,5.4c0,0,0,0,0,0c-0.2,0.8-0.5,2.1-0.6,3.2c-0.1,0.9,0.1,0.9,0.3,0.1
				c0.1-0.3,0.7-2.2,1.3-4.2c0,0,0-0.1,0-0.1c0.1-0.6,0.6-3.3,0.9-5.4C780.1,329.6,780,330,779.9,330.4"/>
			<path class="st22" d="M780.2,329.3c-0.4,2.1-0.8,4.8-0.9,5.4c0,0,0,0.1,0,0.1c-0.1,0.9-0.2,2.1-0.1,3c0,0.8,0.2,0.8,0.3,0
				c0.1-0.4,0.4-2.4,0.8-4.4c0-0.1,0-0.1,0-0.2c0-0.7,0.2-3.6,0.2-5.3C780.4,328.2,780.3,328.7,780.2,329.3"/>
			<path class="st23" d="M780.5,327.8c-0.1,1.8-0.2,4.7-0.2,5.3c0,0.1,0,0.1,0,0.2c0,0.9,0.1,2,0.2,2.7c0.2,0.8,0.3,0.7,0.3,0
				c0-0.4,0.1-2.1,0.2-3.8c0-0.2-0.1-0.4-0.1-0.5c0-0.5-0.3-3.3-0.4-4.8C780.5,327.1,780.5,327.4,780.5,327.8"/>
			<path class="st24" d="M780.5,326.9c0.1,1.5,0.4,4.3,0.4,4.8c0,0.2,0,0.3,0.1,0.5c0.1,0.7,0.3,1.5,0.5,2.1
				c0.3,0.7,0.4,0.6,0.3-0.1c-0.1-0.6-0.3-3.1-0.3-3.5c-0.1-0.3-0.2-0.6-0.2-0.8c-0.1-0.3-0.4-2-0.9-4
				C780.4,325.9,780.5,326.3,780.5,326.9"/>
			<path class="st25" d="M781.8,328.7c0.1-0.1,0.7-1.1,0.9-1.5c0.5-0.8,1-1.9,1.3-2.9c0.4-1,0.2-1-0.3-0.3c-0.3,0.6-2.1,3.5-2.2,3.7
				c0,0.1,0,0.2,0.1,0.3C781.7,328.3,781.8,328.5,781.8,328.7"/>
			<path class="st26" d="M781.7,328.1c0.1-0.1,0.7-1.5,1.1-2.4c0.4-1,0.8-2.1,1-3.1c0.2-1,0.1-1-0.3-0.2c-0.3,0.8-1.9,4.3-2,4.5
				c0,0.2,0.1,0.3,0.1,0.5C781.6,327.6,781.6,327.9,781.7,328.1"/>
			<path class="st27" d="M782.6,321.4c-0.2,0.8-1.3,4.4-1.4,4.7c0,0.1,0,0.1,0,0.2c0,0.2,0.1,0.4,0.1,0.6c0,0.2,0.1,0.4,0.1,0.7
				c0.1-0.2,0.6-2,0.9-2.8c0.3-0.8,0.5-2.1,0.6-3.1C783,320.5,782.9,320.5,782.6,321.4"/>
			<path class="st28" d="M781.7,320.4c-0.1,0.8-0.7,4.2-0.8,4.5c0.1,0.2,0.1,0.5,0.2,0.7c0,0.2,0.1,0.4,0.1,0.5
				c0,0.2,0.1,0.4,0.1,0.6c0-0.2,0.4-2.5,0.5-3.2c0.1-0.7,0.2-1.9,0.2-3C782.1,319.6,781.9,319.6,781.7,320.4"/>
			<path class="st29" d="M780.9,319.7l-0.2,3.8c0.1,0.6,0.3,1.3,0.5,2.1c0,0.2,0.1,0.4,0.1,0.5l0.2-3.7c0-0.8-0.1-2-0.2-2.7l0-0.1
				C781,319,780.9,319,780.9,319.7"/>
			<path class="st30" d="M779.9,319.3c0.1,0.6,0.1,1.3,0.1,1.4c0.1,0.2,0.1,0.4,0.2,0.6c0.1,0.2,0.5,2.1,0.9,4.3
				c0-0.5-0.3-3.2-0.3-3.8c-0.1-0.8-0.3-1.7-0.6-2.5C780,318.5,779.8,318.6,779.9,319.3"/>
			<path class="st31" d="M779,319.3c0,0,0.8,3.6,1.4,6.6c0.4,2,0.8,3.7,0.9,4c0.1,0.3,0.1,0.5,0.2,0.8c0.2,0.5,0.4,1.1,0.6,1.3
				c0.3,0.5,0.5,0.5,0.3-0.1s-2.2-10.1-2.3-10.6c-0.3-1.1-0.6-1.8-0.8-2.2C779,318.6,778.9,318.7,779,319.3"/>
		</g>
	</g>
	<path class="st32" d="M782.7,341.1c0,0,4.9-15.2,5.2-16.2s1.6-0.6,1.3,0.4s-5,15.5-5.3,16.3S782.5,342,782.7,341.1z"/>
	<path class="st9" d="M692.2,394c80.8-9.4,30.4-4.4,113-17.8l-5.3-37.8l-111.6,13.8C651.5,362,670,396.6,692.2,394L692.2,394z"/>
	<polygon class="st18" points="29.2,400.9 1570.2,400.9 1570.2,426.2 29.2,426.2 29.2,400.9 	"/>
</g>
<polygon class="st33" points="1148.5,204.9 1165.8,221.2 1145.7,209.6 "/>
<polygon class="st33" points="1125.7,205 1110.6,220.1 1128.5,209.6 "/>
<polygon class="st33" points="450.7,204.9 433.4,221.3 453.4,209.6 "/>
<polygon class="st33" points="473.5,205 488.5,220.5 470.7,209.6 "/>
<g>
	<path d="M832.2,121.1c0-2.7-1.4-4.5-3.1-4.5c-1.7,0-3.1,1.8-3.1,4.5s1.4,4.9,3.1,4.9C830.8,126,832.2,123.8,832.2,121.1
		L832.2,121.1z"/>
</g>
<g>
	<path class="st34" d="M836.1,113.6c0.2,0,0.3,0,0.5-0.1c0.5-0.3,0.4-1.2,0-1.5c-1.9-1.8-3.4-2.3-6.3-2.8c-3.3-0.5-6.1,0.3-8.7,2.4
		c-0.4,0.3-0.5,1.2-0.2,1.6c0.4,0.4,1.6,0.3,2.1,0.1c3.8-1.4,4.3-2,6.1-2c2.3,0,4,0.6,5.6,1.9C835.6,113.4,835.8,113.6,836.1,113.6z
		"/>
</g>
<g>
	<path d="M793.5,121.3c0-2.7,1.4-4.5,3.1-4.5c1.7,0,3.1,1.8,3.1,4.5s-1.4,4.9-3.1,4.9C794.9,126.2,793.5,124,793.5,121.3
		L793.5,121.3z"/>
</g>
<g>
	<path class="st34" d="M818.8,135.3c0,0-2.9-5.5-3.2-6.3c-2.1-4.8-2.6-7.9-1.7-9.9c0.1-0.3,0.5-0.5,0.8-0.3c0.3,0.1,0.5,0.5,0.3,0.8
		c-0.7,1.6-0.1,4.5,1.7,8.9c0.3,0.7,4.3,7.4,4.2,7.6s-7.8,2.2-8.7,2.5c-0.6,0.2-1.1-1-0.3-1.3C812.8,137,818.8,135.3,818.8,135.3z"
		/>
</g>
<g>
	<path class="st0" d="M814,148.5c2.9,0,4.1,0.1,6.4,0.4c0.3,0,0.3,0.9,0.2,1.1c-0.1,0.2-0.4,0.2-0.6,0.2c-1.9-0.2-3.3-0.3-6-0.2
		c-2.3,0-3.7,0.2-5.9,0.6c-0.2,0-0.5,0.1-0.6-0.1c-0.2-0.2-0.1-1,0.1-1.1C810,148.8,811.5,148.5,814,148.5z"/>
</g>
<g>
	<path class="st35" d="M463.8,142c2.9,0,4.3-0.1,6.6-0.1c0.3,0,0.4,0.8,0.3,1c-0.1,0.2-0.3,0.2-0.6,0.3c-1.9,0.1-3.7,0.3-6.3,0.3
		c-2.3,0-6.5-0.5-8.6-1.4c-0.2-0.1-0.5-0.2-0.5-0.4c0-0.2,0.4-1,0.7-0.9C457.7,141.6,461.3,142,463.8,142z"/>
</g>
<g>
	<path class="st34" d="M789.5,113.4c-0.2,0-0.3,0-0.5-0.1c-0.5-0.3-0.4-1.2,0-1.5c1.9-1.8,3.4-2.3,6.3-2.8c3.3-0.5,6.1,0.3,8.7,2.4
		c0.4,0.3,0.5,1.2,0.2,1.6c-0.4,0.4-1.6,0.3-2.1,0.1c-3.8-1.4-4.3-2-6.1-2c-2.3,0-4,0.6-5.6,1.9
		C790.1,113.2,789.9,113.4,789.5,113.4z"/>
</g>
<g>
	<path d="M488.7,98.6c0.2,0,0.3,0,0.5-0.1c0.5-0.3,0.4-1.2,0-1.5c-1.9-1.8-3.4-2.3-6.3-2.8c-3.3-0.5-6.1,0.3-8.7,2.4
		c-0.4,0.3-0.5,1.2-0.2,1.6c0.4,0.4,1.6,0.3,2.1,0.1c3.8-1.4,4.3-2,6.1-2c2.3,0,4,0.6,5.6,1.9C488.2,98.3,488.4,98.6,488.7,98.6z"/>
</g>
<g>
	<path d="M438.7,98.6c-0.2,0-0.3,0-0.5-0.1c-0.5-0.3-0.4-1.2,0-1.5c1.9-1.8,3.4-2.3,6.3-2.8c3.3-0.5,6.1,0.3,8.7,2.4
		c0.4,0.3,0.5,1.2,0.2,1.6c-0.4,0.4-1.6,0.3-2.1,0.1c-3.8-1.4-4.3-2-6.1-2c-2.3,0-4,0.6-5.6,1.9C439.3,98.4,439.1,98.6,438.7,98.6z"
		/>
</g>
<path class="st18" d="M1178,97.2c0,0-4.4,0.5-4.7-3.1c0,0-2.4-1.4-2.4-6.5c0-5,1.3-5.8,1.3-5.8s-3.9-3.1-3.9-7.1c0-4,2-5.3,3-5.7
	c1-0.4,3.8-0.6,5.8,2.7c1.8,3,2.9,7.7,2.5,9.6c0,0,1.3,1.2,2.3,3.5c0,0,1.9,3.6,0.7,6.8c0,0,1.8,4.2,0.5,6.3S1177.9,98.5,1178,97.2"
	/>
<g>
	<path d="M1156.8,109.4c0-2.8-1.5-4.7-3.3-4.7c-1.8,0-3.3,1.9-3.3,4.7s1.5,5.1,3.3,5.1C1155.3,114.6,1156.8,112.3,1156.8,109.4
		L1156.8,109.4z"/>
</g>
<g>
	<path d="M1116.8,109.6c0-2.8,1.5-4.7,3.3-4.7c1.8,0,3.3,1.9,3.3,4.7c0,2.8-1.5,5.1-3.3,5.1C1118.2,114.7,1116.8,112.4,1116.8,109.6
		L1116.8,109.6z"/>
</g>
<g>
	<path class="st35" d="M1143.1,124.7c0.1-2.8-3.1-5.9-4-7.8c-2.2-5.1-2.7-8.3-1.8-10.4c0.1-0.3,0.5-0.5,0.9-0.3
		c0.3,0.1,0.5,0.5,0.3,0.9c-0.7,1.7-0.1,4.7,1.8,9.3c0.7,1.6,4.8,4.8,4.5,9.1c-0.3,3.2-7,3-7.9,3c-0.6,0-1.2-1.1-0.3-1.4
		C1137.4,126.7,1143,126.7,1143.1,124.7z"/>
</g>
<g>
	<path d="M483.4,107.7c0-2.8-1.5-4.7-3.3-4.7c-1.8,0-3.3,1.9-3.3,4.7c0,2.8,1.5,5.1,3.3,5.1C481.9,112.9,483.4,110.6,483.4,107.7
		L483.4,107.7z"/>
</g>
<g>
	<path d="M442.8,107.9c0-2.8,1.5-4.7,3.3-4.7c1.8,0,3.3,1.9,3.3,4.7s-1.5,5.1-3.3,5.1C444.2,113,442.8,110.7,442.8,107.9
		L442.8,107.9z"/>
</g>
<g>
	<path class="st35" d="M469.3,122.7c0.1-2.5-3.1-5.9-4-7.8c-2.2-5.1-2.7-7.7-1.8-9.8c0.1-0.3,0.5-0.5,0.9-0.3
		c0.3,0.1,0.5,0.5,0.3,0.9c-0.7,1.7-0.1,4.1,1.8,8.7c0.7,1.6,4.8,4.8,4.5,9.1c-0.3,3.2-4.8,3.7-5.7,3.7c-0.6,0-1.2-1.1-0.3-1.4
		C466,125.5,469.3,124.7,469.3,122.7z"/>
</g>
<path class="st35" d="M1119.9,80.5c1-0.4,7.3-3.1,16.9-1c0,0,6.5-2.4,15.1,0.5c0.8,0.3,1.3-0.7,0.2-1.1c0,0-8.1-3-15.4-0.4
	c0,0-9.1-2.5-17.3,1.1C1118.8,79.9,1119.2,80.8,1119.9,80.5z"/>
<path class="st35" d="M1125.9,73.3c1-0.4,6.2-1,11,0.3c0,0,4.8-1.6,9.3-0.3c0.8,0.3,1.2-0.8,0.2-1.2c0,0-5.2-1.3-9.6,0.3
	c0,0-5.9-1.7-11.3-0.1C1124.7,72.6,1125.1,73.6,1125.9,73.3z"/>
<path class="st32" d="M1138.4,138.8c-0.4,0-4.1,2.1-6.5,3.5c-2.4,1.4-7.4,2.6-7.4,2.6l0.8-6.2c0,0,3.7-0.9,6-2.4
	c2.4-1.5,5.7-4.7,7.2-4.8c0.7,0,3.6,2.6,6.4,4.5c3.7,2.5,6.7,2.7,6.7,2.7l1.2,6.1c0,0-4.9-0.9-8.8-3
	C1141.3,140.3,1138.9,138.8,1138.4,138.8z"/>
<path class="st32" d="M1146.5,101.9l0.1-4.6c0,0,8.5,0.1,14.4-1.4c5.9-1.6,2.4,2.1-2.5,3.6C1156.3,100.1,1146.5,101.9,1146.5,101.9z
	"/>
<path class="st32" d="M1127.8,102.7l-0.1-4.6c0,0-8.5,0.1-14.4-1.4s-2.4,2.1,2.5,3.6C1118.1,100.9,1127.8,102.7,1127.8,102.7z"/>
<path class="st36" d="M406.2,769.8c1.5-0.1,18.5,1.8,19.5,1.9c1,0.1,0.9,1.6-0.3,1.5c-1.1-0.2-18.8-2.1-19.4-2.2
	C405.5,770.9,405.4,769.9,406.2,769.8z"/>
<path class="st36" d="M404.8,775.7c1.5-0.1,18.1,1.8,19,1.9c0.9,0.1,0.9,1.6-0.2,1.4c-1.1-0.2-18.4-2.1-18.9-2.2
	C404.1,776.7,404.1,775.7,404.8,775.7z"/>
<path class="st36" d="M403.7,781.6c1.4-0.1,16.9,1.7,17.8,1.7c0.9,0.1,0.8,1.5-0.2,1.3c-1-0.1-17.2-1.9-17.7-2
	C403.1,782.5,403,781.6,403.7,781.6z"/>
<path class="st36" d="M509.3,784.3c-1,0.1-3.4,0.6-9.7,6.7c-1.6,1.7,0,2.2,1.1,0.9c6-6.3,8.3-6,9.6-6.5S510.2,784.2,509.3,784.3z"/>
<path class="st36" d="M513.8,788.7c-1,0.1-3.3,0.6-9.3,6.4c-1.6,1.6,0,2.1,1.1,0.9c5.8-6,8-5.8,9.2-6.2
	C516,789.4,514.6,788.6,513.8,788.7z"/>
<path class="st36" d="M518.6,793.1c-0.9,0.1-3.1,0.5-8.6,5.9c-1.4,1.5,0,2,1,0.8c5.4-5.6,7.4-5.4,8.6-5.8
	C520.6,793.7,519.4,793,518.6,793.1z"/>
<g>
	<path class="st37" d="M1109.6,117.8c0,0-11-19.2-12.5-19.9c-1.6-0.7-2.6-0.8-3-0.2l-0.8-0.6c1.1-1.4,3.4-0.4,4.2-0.1
		c1.5,0.7,12.7,19.7,12.7,19.7L1109.6,117.8z"/>
</g>
<g>
	<path class="st37" d="M1165.5,118l-0.7-1.1c0,0,10.7-19.3,12.3-20c0.8-0.3,3.1-1.4,4.2,0.1l-0.8,0.6c-0.4-0.5-1.5-0.5-3,0.2
		C1175.9,98.6,1165.5,118,1165.5,118z"/>
</g>
<path class="st5" d="M1174.7,103.6L1174.7,103.6c-0.7,3-1.2,6.6-1.4,10.5c-0.2,3.1-0.5,5.7-0.7,7.9c-0.6,5-0.4,7.7,2.5,7.9
	c4.3,0.2,5.8-7.4,8.7-15.9c2.5-7.4,1-15.2-2.1-17.3c-0.5-0.3-1-0.5-1.6-0.5c-2.2-0.1-3.6,2-4.8,5.6
	C1175.1,102.4,1174.9,103,1174.7,103.6L1174.7,103.6z M1178.2,114.2L1178.2,114.2c0.6-2.7-0.7-4.5-1.4-5.3c-2.6-3,0.2-9.5,2-9.6
	c1.9-0.1,2.9,4.7,3.2,7.1c0.3,2.4-0.1,8.8-1.8,12c-1.3,2.6-3.6,9.6-3.9,1C1176.3,117.3,1177.6,116.9,1178.2,114.2L1178.2,114.2z"/>
<path class="st6" d="M1178.8,99.3c1.9-0.1,2.9,4.7,3.2,7.1c0.3,2.4-0.1,8.8-1.8,12c-1.3,2.6-3.6,9.6-3.9,1c-0.1-2.2,1.2-2.6,1.8-5.2
	c0.6-2.7-0.7-4.5-1.4-5.3C1174.2,105.9,1177,99.4,1178.8,99.3L1178.8,99.3L1178.8,99.3z"/>
<path class="st5" d="M1099.1,103.1L1099.1,103.1c-1.2-4-3-6.6-5.4-6.4c-0.2,0-0.5,0.1-0.7,0.1c-3.8,1.2-5.4,9.7-2.5,17.7
	c3,8.5,4.6,16.1,8.8,15.9c1.9-0.1,2.8-1.2,2.8-3.3c0.1-2.7-0.8-6.9-1.2-12.5C1100.6,110.2,1100,106.3,1099.1,103.1
	C1099.1,103.2,1099.1,103.1,1099.1,103.1L1099.1,103.1z M1093.9,119L1093.9,119c-1.7-3.2-2.2-9.6-1.9-12c0.3-2.4,1.2-7.2,3.2-7.1
	c1.8,0.1,4.7,6.6,2.1,9.6c-0.7,0.8-2,2.6-1.3,5.3c0.7,2.7,1.9,3,1.8,5.2C1097.6,128.5,1095.3,121.5,1093.9,119L1093.9,119z"/>
<path class="st6" d="M1095.2,99.8c1.8,0.1,4.7,6.6,2.1,9.6c-0.7,0.8-2,2.6-1.3,5.3c0.7,2.7,1.9,3,1.8,5.2c-0.3,8.6-2.5,1.6-3.9-1
	c-1.7-3.2-2.2-9.6-1.9-12C1092.4,104.5,1093.3,99.7,1095.2,99.8L1095.2,99.8L1095.2,99.8z"/>
<g>
	<path class="st6" d="M1083.6,126.6l-1.4,2.3c0,0,1.7,1.2,3.9,4l2.2,0.6c0.9-0.1,6.9-4.8,7.6-6.2c0.6-1.4,1.4-3.7,4-5.7
		c0,0,4.8-4.7,9.4-3c0,0,2.8,0.9,1.4,3.8c-0.6,1-4.2,3.7-5.5,6.1c0,0-1,2.7-1.7,3.7s-4.9,6.2-7.2,9.6c-2.3,3.4-3.7,5.4-4.8,7.5
		c0,0-1.5,4.5-3.9,7.2c-2.4,2.7-8.3,10.2-8.3,10.2s-9.8-24.1-9.9-28.5c-0.1-4.4,0.4-19.3,4.5-20.7c4.1-1.3,10.5-2,13.9,5.3
		c0,0-2,1.6-2.6,1.9C1085.1,125,1083.6,126.6,1083.6,126.6z"/>
</g>
<g>
	<g>
		<path class="st37" d="M1120,136.3c-6.8,0-12.4-5.6-12.4-12.4c0-6.8,5.6-12.4,12.4-12.4s12.4,5.6,12.4,12.4
			C1132.4,130.7,1126.9,136.3,1120,136.3z M1120,112.4c-6.3,0-11.4,5.1-11.4,11.4c0,6.3,5.1,11.4,11.4,11.4s11.4-5.1,11.4-11.4
			C1131.4,117.6,1126.3,112.4,1120,112.4z"/>
	</g>
	<g>
		<path class="st37" d="M1155,136.3c-6.8,0-12.4-5.6-12.4-12.4c0-6.8,5.6-12.4,12.4-12.4s12.4,5.6,12.4,12.4
			C1167.4,130.7,1161.9,136.3,1155,136.3z M1155,112.4c-6.3,0-11.4,5.1-11.4,11.4c0,6.3,5.1,11.4,11.4,11.4s11.4-5.1,11.4-11.4
			C1166.4,117.6,1161.3,112.4,1155,112.4z"/>
	</g>
	<g>
		<path class="st37" d="M1130.5,118.7l-0.7-0.8c8-6.9,14.8,0,14.9,0l-0.7,0.7C1143.7,118.4,1137.8,112.4,1130.5,118.7z"/>
	</g>
</g>
<g>
	<path class="st5" d="M1081,164.3c-2.2,3.8-6.1,9.6-9.8,14s-11.7,16-16.9,25.7l-16.6-20.7c0,0,12.5-14.4,15.7-23
		c2.3-6.4,2.4-26,4.4-31.1c1.9-5.2,4.7-7.4,6.8-10.9c2-3.5,3.3-7.3,6.9-7.8c0,0,2.7-4.3,4.4-4.7c1.7-0.3,12.7,2.6,14.6,3.8
		c0,0,5.6,1.1,7.5,3.1c0,0,6.5,0.1,12.6,2.5c0,0-0.2,3.3-1,3.7c-0.7,0.3-3.4,0.8-3.4,0.8s1.7,2.1,1.6,3s0.2,2.2-4.1,3
		c-3,0.3-4.5-3-4.5-3s-0.7,1-3.1,1.2c-2.4,0.2-3.6-1.2-5.3-3.7c0,0-1.5,3.1-4.6,2.4c-3-0.7-4.5-1.4-4.5-1.4s-2.9,1.4-4.4,1.4
		c0,0-1.6,2.5-2.4,2.8c0,0,0.4-0.3-0.4,2.6s-1.3,4.6-3.9,6.3c0,0,1.2,7.1,3.2,12.3S1077.1,157.9,1081,164.3z"/>
</g>
<polygon class="st8" points="1038.8,179.8 1046.7,170.4 1071,187.6 1063,199.2 "/>
<path class="st10" d="M1014.5,296.1l59.8-100.7l-32.9-21.9c0,0-71.2,74.6-77.6,90.5s-0.4,36.9,6.5,41.5S1002.6,309.7,1014.5,296.1z"
	/>
<g>
	<defs>
		<rect id="SVGID_1_" x="1134.5" y="119.8" width="13.4" height="11"/>
	</defs>
	<clipPath id="SVGID_00000111883587465141753620000001498648082097975704_">
		<use xlink:href="#SVGID_1_"  style="overflow:visible;"/>
	</clipPath>
	<polygon style="clip-path:url(#SVGID_00000111883587465141753620000001498648082097975704_);fill:#FFDFB9;" points="1143.6,126.5 
		1139.6,126.8 1139.6,120.9 1143.4,121.3 	"/>
	<g style="clip-path:url(#SVGID_00000111883587465141753620000001498648082097975704_);">
		<path class="st35" d="M1143.1,124.7c0.1-2.8-3.1-5.9-4-7.8c-2.2-5.1-2.7-8.3-1.8-10.4c0.1-0.3,0.5-0.5,0.9-0.3
			c0.3,0.1,0.5,0.5,0.3,0.9c-0.7,1.7-0.1,4.7,1.8,9.3c0.7,1.6,4.8,4.8,4.5,9.1c-0.3,3.2-7,3-7.9,3c-0.6,0-1.2-1.1-0.3-1.4
			C1137.4,126.7,1143,126.7,1143.1,124.7z"/>
	</g>
</g>
</svg>
