<?xml version="1.0" encoding="utf-8"?>
<!-- Generator: Adobe Illustrator 27.0.1, SVG Export Plug-In . SVG Version: 6.00 Build 0)  -->
<svg version="1.1" id="Lager_1" xmlns="http://www.w3.org/2000/svg" xmlns:xlink="http://www.w3.org/1999/xlink" x="0px" y="0px"
	 viewBox="0 0 1600 900" style="enable-background:new 0 0 1600 900;" xml:space="preserve">
<style type="text/css">
	.st0{fill:#500B00;}
	.st1{fill:#BA8B50;}
	.st2{fill:#454545;}
	.st3{fill:#CFCFCF;}
	.st4{fill:#002B33;}
	.st5{fill:#E6BC87;}
	.st6{fill:#F38000;}
	.st7{fill:#A3A2A2;}
	.st8{fill:#BF6500;}
	.st9{fill:#EAE5DD;}
	.st10{fill:#5D4528;}
	.st11{fill:#106B7A;}
	.st12{fill:#013F4B;}
	.st13{fill:#97672C;}
	.st14{fill:#D4A572;}
	.st15{fill:#EE492E;}
	.st16{fill:#FFE0BA;}
	.st17{fill:#CFC6B5;}
	.st18{fill:#7D7B7B;}
	.st19{fill:#F4F4F4;}
	.st20{fill:#2B2D34;}
	.st21{fill:none;stroke:#FFFFFF;stroke-width:3;stroke-miterlimit:10;}
	.st22{fill:#FFFFFF;}
	.st23{fill:#F6DFD5;}
	.st24{fill:#A07C7F;}
	.st25{fill:#B28B8D;}
	.st26{fill:#C3ABAC;}
	.st27{fill:#87261C;}
	.st28{fill:#947E2C;}
</style>
<g>
	<g>
		<ellipse class="st0" cx="205.5" cy="857" rx="162.5" ry="23.3"/>
	</g>
	<g>
		<ellipse class="st0" cx="568.7" cy="856.4" rx="116.7" ry="23"/>
	</g>
	<g>
		<ellipse class="st0" cx="1119" cy="860" rx="116.7" ry="23"/>
	</g>
	<g>
		<ellipse class="st0" cx="1387.5" cy="869.3" rx="165.4" ry="25.1"/>
	</g>
	<g>
		<path class="st1" d="M632.6,567.1c-2.8-0.7-4.4-1.7-6.8-3.3s-4.4-4.2-4.7-7.1c-0.2-1.6,0.3-3.4,1.6-4.3c0.7-0.5,1.6-0.7,2.5-0.9
			c9.5-1.6,19.6,0.7,27.4,6.3c-0.7,3.2-3,6.2-5.8,7.8c-2.8,1.6-6.1,2.3-9.4,2.5C636.3,568.2,633.6,567.4,632.6,567.1z"/>
	</g>
	<path class="st2" d="M270.5,851.5c0,0,2.4-3.7-5-5.2c-7.4-1.5-21.9,8.9-15.7,10.2C256.1,857.9,270.5,851.5,270.5,851.5z"/>
	<g>
		<path class="st2" d="M270.9,849.9c0,0-20.3,12.9-39.2-2.6c0,0-7.6-11-12-15.5l0.2,5.5c0,0,10.1,17,20.3,20.3
			c12.3,4,23.5,2,30.3-3.7L270.9,849.9z"/>
	</g>
	<path class="st3" d="M253.1,853.3c0,0,4.7,0.5,7.7-0.6c3-1.2,2.5-1.8,3-1.9c0.5-0.2,2.7,0,3.7-0.9s2.6-1.9,0.9-4.6
		c-1.7-2.6-16.4-1.5-16.5-1.3C251.8,844.3,253.1,853.3,253.1,853.3z"/>
	<g>
		<path d="M218.9,819.9c1.3,3.8-0.6,8.2,0.8,12c1.3,3.5,4.1,6.7,6.7,10c3.7,4.5,8,8.4,13.1,11.3c13.8,5.1,16.6-1.8,24.1-5.3
			c5.6-2.6,7.8-3.7,7.8-3.7s0.9-4.2-1.2-7.4c-2.1-3.2-11.1-1.4-14-3.9c-6.4-5.6-8.3-11.3-11.6-19.2
			C236.4,812.8,226.8,817.3,218.9,819.9z"/>
	</g>
	<g>
		<path d="M70.4,818c-1.2,9.4-5.8,18-10.5,26.3c-1.8,3.1-3.7,6.3-4.6,9.7c-0.9,3.5-0.7,7.4,1.3,10.4c3.9,5.6,10.8,7,17.5,6
			c6.7-1,12.7-5.2,16.6-10.7c2-2.7,2.4-5,2.5-8.4c0.2-9.6,0.3-19.2,0.5-28.8C86.7,819.8,77.9,819.1,70.4,818z"/>
	</g>
	<g>
		<path class="st4" d="M44.3,593.2c-6.2,36.1,18.6,70.5,20,107c0.7,18.2-3.7,36.3-5.9,54.4c-1.8,14.5-2.2,44.2,1.5,58.2
			c2.8,2,5.3,4.3,8.1,6.3c5.7,4.1,12.1,8.4,19.1,8.1c7.4-0.3,13.5-5.7,18.9-10.7c1.1-33.6,1.9-66.3,7.1-99.5
			c3.1-20.1,5.7-39,14.5-57.3c9.8,29.4,36.7,50,55.2,74.8c17.7,23.6,13.3,57.9,24,85.4c4.8,2.8,9.3,5.8,14.9,6
			c4.8,0.1,9.4-1.5,13.8-3.2c5.2-2.1,10.3-4.4,15.3-6.9C245.8,782.3,232.7,743,217,713c-5-9.5-5.6-20.8-8-31.2
			c-5.6-24.2-11.5-49.2-26.1-69.3c-20-4.1-42.4-7-62.7-8.8C96.1,601.6,67.2,601.1,44.3,593.2z"/>
	</g>
	<g>
		<path class="st5" d="M388,562.5c2.8-0.9,5.4-2.4,7.9-3.8c2.6-1.4,5.3-2.8,8.2-3.1c3-0.4,6.3,0.3,8.4,2.5c-0.6,3-0.5,5.7-0.4,8.8
			c0,2.4,0.2,4.7-0.3,7c-0.5,2.3-1.9,4.5-4.2,5.5c-1.9,0.8-4.1,0.6-6.2,0.4c-4.8-0.5-9.7-1-14-3.1c-9.1-0.6-20.8-1.8-20.8-1.8
			l1-15.8C367.6,559.1,369.2,561,388,562.5z"/>
	</g>
	<g>
		<path class="st6" d="M220.3,488.6c28.4,4.7,47.8,31.6,74.5,42.4c10.3,4.2,21.5,5.9,32.3,8.3c18.2,4.1,35.8,10.4,53.3,16.7
			c-2,9.8-4.3,19.4-8.5,28.4c-0.2,0.5-0.4,1.2-0.8,1.2c-0.6,0-0.9,0.1-1.7,0c-45.8-2.4-89.2-17-129.7-38.5
			c-4.7,29.7-14.2,59.8-28.7,86.2c-11.1-5.2-22.2-17.3-32.9-22.7c10.5-23.5,15.9-43.5,14.3-69.1c-0.2-3.5-0.6-7.1-2-10.4
			c-1.4-3.2-4.1-6.1-7.6-6.9c-38.7,38.4-70.2,86.2-87.6,137.9c-27.6-15.6-49.8-44.8-53.3-76.2c-2.8-25.4,20.2-46.3,37.7-65
			c10.3-11,21.4-21.9,35.2-27.8c6.8-2.9,14.2-4.6,21.5-5.9c18.1-3.3,36.5-4.9,54.9-4.8C200.8,482.6,210.9,487.1,220.3,488.6z"/>
	</g>
	<path class="st7" d="M213.7,569.1c0,0,16.3,0.9,23.9-9.8l-2,9.3c0,0-3.7,7.7-23.8,9C191.7,578.8,213.7,569.1,213.7,569.1z"/>
	<g>
		<path class="st8" d="M214,613.3c-0.4,4.7-1.9,15.4-2.9,20.1c0,0-2.2-0.8-5.8-3.3c-4.5-2.9-21.8-16.3-21.8-16.3
			c5.7-20.7,20.2-52.4,24.9-71.4C208.4,542.4,216.3,589.4,214,613.3z"/>
	</g>
	<g>
		<path class="st9" d="M208.2,532.9c0.9,12.2-1.1,24.4-3.5,36.3c-1.9,9.2-4,18.4-8,26.9c-4,8.5-9.9,16.3-18,21.1
			c-20.7,12.2-45.5,16-68.3,8.4c4.7-15.4,14.2-32.3,22.6-46.1c6.9-11.3,12.2-20.4,19.2-31.6c7-11.2,13.2-23.1,15.7-36.1
			c5.6,0.4,11.4,1.6,16.9,2.9c5.3,1.3,10.6,3,14.8,6.6c2.9,2.4,5,5.6,7.1,8.7C207.4,531.1,209.3,532.5,208.2,532.9z"/>
	</g>
	<g>
		<path class="st10" d="M645.1,799.7c-6.3,2.4-14.3,3.8-21,4c4.2,7.7,8.6,13.5,8.6,21.7l0,0l0,0c0,0.8,0,1.7-0.1,2.6
			c0.2,0,0.3,0,0.4,0c3.3,0,6.1,3.5,8.4,6.6c4.6,5.8,12.2,9.6,19.2,12c2.1-4,10.3-7.6,14.8-8c-3.7-2.8-7.5-5.6-11.2-8.4
			c-1.4-1.1-5.1-3.6-6.3-4.9c-2.7-2.7-3.7-3.7-5.7-5.9C646.5,813.4,648.3,807.2,645.1,799.7"/>
		<path class="st10" d="M499.7,802.3c-2.9,7.3-5.9,14.7-11,20.7c-1.2,1.5-2,2.2-2.7,3.9c-0.2,0.5-1,3-1.3,4.2
			c-0.3,1.1-1.4,2.6-1.4,4.4c0,0.1,0,0.2,0,0.3c0,0.4,2.1,8.4,2.1,11.9c0,0.3,0,0.5,0,0.7l0.1-0.1c3.1-1.9,7-3,10.8-3
			c4.1,0,8,1.2,11,3.7c-0.3-3.3-0.6-6.7-0.6-10l0,0l0,0c0-5.3,0.7-10.5,3.2-15.1c1.3-2.4,3-4.5,3.7-7.1
			C508.1,813.3,505.2,805.9,499.7,802.3"/>
	</g>
	<g>
		<path class="st11" d="M465.3,614.1c-3.1,19.5,1,40.1,11.4,56.9c5.4,8.8,12.3,16.4,19.4,23.9c9.5,10,14.2,20.3,24.3,29.7
			c-12.1,31.6-33.2,75.5-32,80.6c1.2,5.2,20.5,16.2,32.5,15.1c4.2-0.4,9.7-0.4,12.3-3.1c9.8-20.1,12.1-30.1,20.7-48.2
			c3.2-6.7,8.3-20.4,11.4-27.1s5.1-14.2,3.7-21.4c-1.8-9.3-7-17.9-15.7-27c15.8,13.3,23.1,24.3,39.1,38.7
			c6.4,31.9,9.8,53.2,20.6,80.4c2.6,3.8,18.9,4.4,25.2,2.4c8.1-2.7,15-7.5,15.4-11.2c-3.9-31.5-13.2-63.9-25.8-93.1
			c-11.7-26.9-47.2-59.6-75.8-84.9c-7.1-6.3-11.3-16-16.5-23.9C513.9,608,487.6,611.9,465.3,614.1z"/>
	</g>
	<path class="st1" d="M564.5,521.4c4.7,8.4,10.3,19,19.6,21.6c7.2,2,15,3.7,22.4,4.6c2.9,0.3,25.5,3.5,28.4,3.8
		c0.1,4,3.8,8.3,3.5,12.3c-15.6,0.4-63.2-6.2-69.9-9.2c-6.8-3-14-8.3-16.7-12.2L564.5,521.4z"/>
	<g>
		<path class="st11" d="M459.9,475.6c-7.3,2.4-12.6,9-14.8,16.3c-2.3,7.3-1.8,15.2-0.3,22.7c4.8,24.6,7.7,68.2,8.1,83.9
			c0.4,15.7-0.1,50.3,3.5,52.6c3.6,2.3,25.4-1.7,26.4-1.7c4.1,0.2,48.9-16.4,66.3-23.7c1.1-5.4-4.4-19.6-6.5-24.7
			c-0.8-1.9-4.6-9.8-5.3-11.7c-0.8-2.3-1.7-7.4-1.9-9.8c-1-13,1.2-39.9,1.2-39.9s3.3,4.1,7.1,6.7c3.8,2.6,10.4,5.3,10.4,5.3
			s5.6-7.4,8.4-10.5c2.8-3.1,9.6-9.6,9.6-9.6s-12-18.4-19-27.4c-7-8.9-11.7-15.5-17.7-21.4c-6-5.9-14.4-10.1-22.8-8.9
			c-13.1,1.9-26.6-0.4-39.9-0.2C470,473.6,462.5,474.7,459.9,475.6z"/>
	</g>
	<g>
		<path class="st12" d="M516.3,507.4l-0.7-0.5c2-3.1,3.5-6.4,4.4-10l0.8,0.2C519.8,500.8,518.3,504.2,516.3,507.4z"/>
	</g>
	<g>
		<path d="M513.8,451.7c5.9,19.4,12,22.5,15.6,36.9c2.1,8.5,3.9,18.8-2.3,25.1c0.5-1.8,0-3.8-1.2-5.2c-0.9,5.7-4.6,11-9.8,13.6
			c4.8-5.7,5.3-14.1,2.6-21c-2.6-6.9-8-12.5-13.8-17c-3-2.3-6.3-4.5-8.5-7.7c-3.5-5.1-3.4-11.9-2.3-18c2.5-14.9,9.8-29.1,20.4-39.8
			C513.8,427.8,511.1,442.9,513.8,451.7z"/>
	</g>
	<g>
		<path class="st13" d="M503.4,461.1c-2.1,1.9-2.9,5-2.7,7.9c0.2,2.9,1.3,5.6,2.3,8.3c1.6,4.2,5.3,7,7.8,10.8
			c3.2,4.9,3.3,11.7,3,17.6c-14.3-9.9-28.9-20.2-43.2-30.2c7.8-6.6,8.2-18,7.2-29.8c1.2-1.4,2.6-2.9,4.4-3c1.9-0.2,3.7,0.1,5.6,0.1
			c3.4,0,6.8-0.6,10.2-0.2c3.4,0.4,7,2,8.2,5.2c0.5,1.3,0.6,2.7,0.5,4.2C506.6,455,505.7,459.1,503.4,461.1z"/>
	</g>
	<g>
		<path class="st5" d="M1284.4,564.9c-2.7-1.5-4.9-3.7-7.2-5.8s-4.8-4.1-7.7-5.1s-6.4-0.9-8.9,1c0,3.4-0.6,6.4-1.2,9.7
			c-0.5,2.6-1.1,5.2-1,7.8c0.1,2.6,1.1,5.4,3.2,6.9c1.8,1.2,4,1.5,6.2,1.7c4.9,0.5,10,0.9,14.7-0.6
			C1285,576.1,1285.7,569.9,1284.4,564.9z"/>
	</g>
	<g>
		<path class="st9" d="M1290.4,564.8l-7.3-1.7c0,0,1.3,12.9-5.6,20.2l10.3,2.6L1290.4,564.8z"/>
	</g>
	<g>
		<path d="M1523,834.7c0.7,5.2,4.3,9.2,8.8,11.9c4.5,2.7,9.6,4.5,13.9,7.7c4.2,3.2,7.6,8.3,6.7,13.5c-0.5,2.6-4.9,3.2-7.5,3.3
			c-2.6,0.1-5.3-0.5-7.8-1.2c-6.7-1.9-13.3-4.2-19.7-7c-3.7-1.6-7.7-3.9-11.7-4.5c-2-0.3-4-0.2-6-0.6c-4.7-0.8-8.7-3.7-12.6-6.5
			c0.9-8.1,7.1-17.4,14.9-19.8C1508.8,829.4,1515.9,833.7,1523,834.7z"/>
	</g>
	<g>
		<path d="M1234.5,833.6c-6.3,2-10.6,8.1-13,14.4c-2.5,6.6-3.3,13.7-5.9,20.2c-1.2,3.2-2.4,6.3-2.1,9.5c0.1,1.3,1.1,2.8,1.8,3.9
			c2.8,4.1,6.5,7.6,10.7,10.3c2.1,1.4,4.8,1.7,7.2,1c3.6-1,7.3-2.5,10.1-4.5c1.1-0.8,2.2-1.6,2.8-2.8c0.7-1.5,0.6-3.2,0.5-4.8
			c-0.6-8.8-0.2-17.8,1.2-26.5c0.7-4.5,1.6-9.1,0.4-13.4C1246.6,834.9,1240.3,831.7,1234.5,833.6z"/>
	</g>
	<g>
		<path class="st2" d="M1501.8,817.8c0.3,5.8-1,11.6-3.8,16.7c-2,3.5,3.1,7.4,7.2,7.2c3.9-0.1,6.8-3.6,10.5-4.6
			c2.7-0.7,5.5,0.1,8.1,0.8c-0.6-4.8-0.2-9.9,2.1-14.2C1518.2,823.7,1509,820.8,1501.8,817.8z"/>
	</g>
	<g>
		<path class="st2" d="M1242.8,820.9c-0.8,4.3-4.5,7.4-7.7,10.5c-3.2,3.1-6.2,7.3-4.9,11.6c1.6,0.8,2.8-0.3,4.5-0.6
			c4.5-0.6,9.3,2.1,11,6.4c3,0.5,5.1-2.7,6.5-5.4c2.4-4.4,5.6-8.4,9.5-11.6C1255.9,827,1249.7,823.8,1242.8,820.9z"/>
	</g>
	<g>
		<path d="M1366.4,648c-16.3,26.8-33.9,52.8-52.5,78c-11.8,16-27.4,29.8-41.6,43.7c-14.2,13.9-27.9,33.2-35.1,51.7
			c7.7,11.5,20.5,20.6,34.3,20.9c4.9,0.1,7.3-6.4,10.4-10.3c14.9-18.4,28.3-38.1,39.9-58.7c28.5-15.7,47.1-44.5,74.6-61.9
			c7.1-4.5,14.1-10.8,21.9-13.9c5.8-2.3,12.8-1.9,18.4,0.8c31.3,15,47.4,37.4,69.7,58.1c-6,19.9-8.8,41.6-7.4,62.4
			c1.9,2.6,3.9,5.1,6.7,6.8c3.1,2,6.3,4,9.9,4.9c7.2,2,14.9-0.6,21.9-3.1c3.4-21.2,7.8-43.1,11.2-64.3c1.4-8.6,2.7-17.8-1.1-25.6
			c-15.2-31.2-36.3-59.5-59-85.8c-4.1-4.8-7.3-11.3-12.3-15.2c-3.3-2.6-7.2-4.3-11.1-5.8c-15.1-5.8-31.3-8.7-47.4-8.6
			c-5.4,0-10.8,0.4-16,2.1c-4.8,1.5-9.2,4.2-13.5,6.7C1381.4,635.1,1370.7,641.1,1366.4,648z"/>
	</g>
	<g>
		<path class="st9" d="M1423.1,490.6c-10.2,46.1-15.3,93.4-15.1,140.7c10.2,3.1,21.2,4.6,31.7,3.2c8.3-49,23.4-96.8,32.6-145.7
			c-1.2-3.3-4.7-7.2-8-8.3c-1.6-0.5-3.3-0.7-4.9-0.8c-5.3-0.5-10.7-0.7-16-0.9c-2.5-0.1-5-0.1-7.3,0.8
			C1431.3,481.4,1427.7,488.4,1423.1,490.6z"/>
	</g>
	<g>
		<path class="st14" d="M1430.2,491.8c0.8,5.3,4.7,10,9.7,11.9c8.4-4.2,16.3-8.6,24.1-13.8c2.1-1.4,1.3-5.3,1.1-7.9
			c-0.2-2.5-1.1-5-1.9-7.3c-1.6-4.5-6.7-7.6-11.5-7.8c-6-0.3-11.6,3.8-15,8.7C1433.2,480.5,1432.7,486.3,1430.2,491.8z"/>
	</g>
	<g>
		<path class="st14" d="M1111.3,558.1c-3,1.3-5.3,3.7-7.8,5.8c-2.5,2.1-5.4,4-8.6,4.1c-4-0.1-8.4-0.4-11.9-2.4
			c-1.2-0.6-2.2-1.5-3.1-2.5c-0.4-0.5-0.8-1-1.4-1.2c-0.3-0.1-0.7-0.2-1-0.3c-0.6-0.3-0.8-1.1-0.7-1.7c0.1-0.7,0.5-1.2,1-1.7
			c2-2.3,4.8-4,7.5-5.5c5.7-3.3,11.4-6.6,17.5-8.9c1.3-0.5,2.7-0.9,4.1-1c1.4-0.1,2.9,0.3,3.9,1.3c0.7,0.7,1.1,1.7,1.5,2.6
			c0.8,1.9,1.5,3.8,1.5,5.8C1113.8,554.5,1113.1,557.3,1111.3,558.1z"/>
	</g>
	<g>
		<polygon class="st9" points="1115.1,535 1103.9,538 1110.4,559.9 1121.9,556.9 		"/>
	</g>
	<g>
		<path class="st15" d="M1020.2,848.3c-3.8,1.8-10.3,3.1-14,5c-3,1.6-3.8,5.5-1.4,8c1.3,1.4,3.1,2.4,5,3c4.1,1.3,12.8,0.8,17.1,0.3
			c4.1-0.4,7.9-2.3,11.5-4.2c4.6-2.4,9.5-3.5,13.1-4.1c0.8,1.8,1,6.1,0.8,8.1l13.1-0.2c0.3-1.5,1-5.8,1.3-7.3c0.5-2.2,1-4.4,0.7-6.5
			c-1-7-4.2-14.6-6.6-17.6c-3-0.3-5.3,7.7-8.2,8.4C1041.8,843.9,1030.1,843.5,1020.2,848.3z"/>
	</g>
	<g>
		<path class="st15" d="M1155.2,839.8c-2.4,3-6.8,9.3-8.2,12.8c-1.2,2.9,0.6,6.2,3.7,6.6c1.7,0.2,3.6,0,5.3-0.7
			c3.7-1.4,9.5-6.8,12.3-9.6c2.7-2.7,4.2-6.2,5.7-9.7c1.9-4.4,4.7-8.1,6.9-10.5c1.6,0.9,4.4,3.9,5.4,5.4l9.2-7.7
			c-0.7-1.3-2.8-4.8-3.4-6.1c-1-1.8-2.1-3.5-3.4-5.1c-4.5-5.6-11.6-8.2-15.1-9c-2.3,1.5,0.8,8.6-0.8,10.8
			C1166.7,825.2,1163.1,830,1155.2,839.8z"/>
	</g>
	<g>
		<path class="st14" d="M1120.6,680c-12.8,14.3-28.8,38.8-38.2,55.5c-1.9,3.3-3.7,6.8-3.9,10.7c-0.3,5.7,3.1,10.9,6.4,15.6
			c17.9,25.6,51.7,35.1,75,56c2.3,8.3-0.7,15.6-5.5,22.7c7,2.2,13.9-2.3,16.1-9.3c0.9-2.8,0.9-5.9,1.5-8.8c1.1-5.5,4.4-10.6,9-13.8
			c-11.2-4.2-20.8-9.5-28.1-17.3c-7-7.5-12-14.2-18.6-22.6s-12.9-17.5-24.3-21.9c23.7-20.5,44.4-27,54.1-50.7
			C1150.8,695.3,1133.9,679.3,1120.6,680z"/>
	</g>
	<g>
		<path class="st5" d="M1081.2,673.9c-2.8,1.4-6.7,4.7-8.7,7.1c-6.4,7.9-12.4,16.1-17.9,24.6c-2.8,4.3-4.3,9.3-4.3,14.4
			c-0.3,39-0.8,84.6-7.1,115.8c-5.7,4.4-12.9,8-19.5,10.8c2.6,4.2,7.9,6.6,12.7,5.6s9-3.8,13.3-6.1c4.3-2.4,9-8.4,13.8-7.7
			c-1.4-14.2,0.9-25.3,5.6-38.8c3-8.7,7.8-17.1,10.1-26c3.8-14.5,2.2-29.9,0.6-44.8c3.8-4.8,42.8-29,56.2-39.4
			c2.5-2,1.2-7.2-0.1-10.1c-1.3-3-3.5-5.4-6-7.5c-7.1-5.8-16.4-8.9-25.5-8.4C1096,663.9,1088.9,670,1081.2,673.9z"/>
	</g>
	<g>
		<path d="M1129,613.4c-20.1,21.3-51.3,58.6-68.6,82.2c33.9,5.2,71.3,32,105.6,30c9.9-10.6,23.1-38.5,29.3-51.6
			c6.3-13.1,9.7-27.8,8-42.2c-20.1-8.1-41.1-14.6-62.3-18.9C1136.7,612.2,1132,610.3,1129,613.4z"/>
	</g>
	<g>
		<path class="st14" d="M1188.8,449.1c2.4,6.8,10.1,18.5,14.5,24.2c-7.5,2.8-15.2,5.5-22.9,7.7c-1,0.3-2,0.6-3,0.3
			c-1.3-0.3-2.2-1.3-3-2.3c-1.1-1.2-2.2-2.5-3.2-3.7C1176.9,467.7,1180.4,453.6,1188.8,449.1z"/>
	</g>
	<g>
		<path d="M1421.3,485.3c-16.1,3.8-33.2,8.2-44.6,20.2c-3.7,3.9-6.9,8.3-9.6,12.8c-8.7,14.5-11.9,27.5-23.7,39.8
			c-18.2,1.7-37.4,3.7-55.6,5.5c1.9,7.9,0.3,16.3-4.4,22.9c24.1,5.5,49.9,10.4,73.9,4c11.7-3.1,15.5-10.2,22.1-20.7
			c0.5,11.6,1.5,24,1.2,35.6c-0.3,15.7-11.1,29.4-17.6,43.7c7.2,6.2,15.2,12.1,24.1,15.4c4.2,1.6,8.9,2.8,13.2,1.3
			c4-1.4,6.9-4.9,8.5-8.8c1.6-3.9,2.1-8.1,2.6-12.3c2.8-24.2,4.2-45.7,7-69.9c0.8-7.2,2.5-17.3,3-24.5c0.4-5.8,1.3-11.3,1.6-17.1
			c0.5-13.1,1-26.3,1.6-39.4C1424.6,491,1423.5,487.5,1421.3,485.3z"/>
	</g>
	<g>
		<path class="st5" d="M1139.8,455.4c1,2.4,2.2,4.7,2.9,7.1c1.6,5.5,2.5,12.4,5.7,17.1c3.9,5.7,12.5,6.1,18.8,3.1
			c10.9-5.1,15-19.2,12.2-30.9c-2.8-11.7-13.6-20.9-25.5-22.6c-3.7-0.5-7.5-0.4-10.9,1.2C1134.1,434.9,1136.7,447.9,1139.8,455.4z"
			/>
	</g>
	<g>
		<path class="st16" d="M1144.9,421.2c-3.8,2.1-7.4,5-9.4,10c-1.8,4.5-2.7,9.5-1.9,14.4s3.3,9.2,7.1,12.1
			c-1.4-4.7-1.8-10.7-0.6-15.4c1.2-4.8,3.6-8.5,9.9-11.5c4.4,1.1,6.7,5.5,8.7,9.9c2,4.2,4,8.4,7.1,11.7c3.1,3.3,7.7,5.4,11.9,4.3
			c2-0.5,3.8-1.3,5.7-2c1.8-0.7,3.9-0.2,5.6,0.7s3.2,2.4,4.6,3.8c3.5-2.2,6.5-6.6,6.2-10.9c-0.3-3.8-2.7-7.6-1.4-11.2
			c3.7,1,7.9-0.6,10.4-3.7c3.4-4,3.5-10.4,0.8-15c-1.7-2.9-4.7-4.2-7.9-4.8s-8.1,1-10.3,3.6c-7-5-16-8.3-24.3-6.9
			C1150.2,413,1150.9,417.9,1144.9,421.2z"/>
	</g>
	<g>
		<path class="st5" d="M1179.5,449.6c1.4-1.6,2.7-2.3,4.2-2.5c1.4-0.2,2.8,0.4,3.8,1.6c1.1,1.3,1.5,3.3,1.4,5.1
			c-0.2,1.8-0.9,3.5-1.7,5c-2.1,3.7-5.3,6.7-9.1,7.4c-0.2,0-0.4,0.1-0.5-0.1c-0.2-0.2-0.3-0.5-0.2-0.9c0.1-3.2-0.9-5.3-0.9-8.5
			C1176.2,454.1,1178,451.2,1179.5,449.6z"/>
	</g>
	<g>
		<path d="M1207.6,469.2c13,9.9,17.3,19.9,19.6,25.6c3.6,9.1,3.7,12.6,4,18.6c0.3,6.9-0.3,15.2-2.6,26
			c-4.6,21.9-11.3,30.6-16.8,52.3c-5,19.5,3.3,40.7,0.6,60.6c-11.6,5.8-36.5-0.2-49.6-9c-13-8.9-29.2-25.8-44-31
			c6.3-19.4,15.8-39,18.6-59.2c-5.7,1.9-12.2,3.2-17.8,5.3c-3-6.9-7-13.9-10.3-20.7c10-7.8,19.6-17,29.6-24.8
			c4.3-3.3,8.5-6.6,12.2-10.6c2.9-3.1,5.3-6.5,8.2-9.6c5.9-6.3,13.3-11,20.5-15.6C1187.5,472.3,1200.3,463.7,1207.6,469.2z"/>
	</g>
	<g>
		<path d="M1162.3,455.8c0,1-0.7,1.8-1.7,1.9s-1.8-0.7-1.9-1.7c0-1,0.7-1.8,1.7-1.9C1161.4,454,1162.2,454.8,1162.3,455.8z"/>
	</g>
	<g>
		<path d="M1147.1,459.1c0,0.9-0.7,1.7-1.6,1.7c-0.9,0-1.7-0.7-1.7-1.6c0-0.9,0.7-1.7,1.6-1.7C1146.3,457.5,1147,458.2,1147.1,459.1
			z"/>
	</g>
	<g>
		<path class="st1" d="M1155,452.1c1.4-2.4,5.2-3.8,7.9-2.9L1155,452.1z"/>
	</g>
	<g>
		<path class="st1" d="M1140,454.9c1.8-1.9,5.5-2.4,7.7-1.1L1140,454.9z"/>
	</g>
	<g>
		<path class="st1" d="M1154.4,469.4c-1.1-0.1-2.2-0.7-2.8-1.8c-0.7-1.1-0.8-2.3-0.4-3.3c0.1-0.3,0.2-0.5,0.4-0.7
			c0.1-0.3,0.3-0.5,0.4-0.8c0.3-0.9,0.1-2-0.3-3.2l0.8-0.2c0.3,1,0.7,2.4,0.3,3.7c-0.1,0.3-0.3,0.6-0.4,0.9
			c-0.1,0.2-0.2,0.4-0.3,0.7c-0.3,0.8-0.2,1.8,0.3,2.6c0.5,0.8,1.4,1.4,2.2,1.4L1154.4,469.4z"/>
	</g>
	<g>
		<path class="st1" d="M1152.2,476.5l-0.7-0.5c1.1-1.7,3.1-2.9,5.3-3.3c2.3-0.3,4.5,0.2,6.1,1.5l-0.5,0.6c-1.4-1.2-3.4-1.6-5.4-1.3
			C1155,473.9,1153.2,475,1152.2,476.5z"/>
	</g>
	<g>
		<path class="st2" d="M1181.5,483.8l0-0.8c14-0.6,25.9-7.5,29.1-12.3l0.7,0.5C1206,478.8,1190.6,483.4,1181.5,483.8z"/>
	</g>
	<g>
		<path class="st2" d="M1119.2,612.6l-0.8-0.3c14.1-33.6,23.1-76.7,23.1-77.2l0.8,0.2C1142.3,535.7,1133.3,578.9,1119.2,612.6z"/>
	</g>
	<g>
		<path class="st15" d="M1438.7,506.8c0,0-3.2,0.2-6.7,3.9l1.5,7.1c0,0-14.8,90.1-8.2,112.2l2.8,5.4l10.5-0.5
			c0,0,1.1-18.9,0.9-116.3l4.1-7.1L1438.7,506.8z"/>
	</g>
	<g>
		<path class="st2" d="M1414.5,596.4c-5.1-29.3-9-60.2-12.2-85.1l-0.1-0.5l6.7,0.5c1.4,0.1,2.8,0.2,4.1-0.1c0.9-0.2,1.7-0.6,2.5-1
			c2.7-1.4,5.4-3,7.9-4.8l0.5,0.7c-2.5,1.8-5.2,3.4-8,4.8c-0.8,0.4-1.7,0.9-2.7,1.1c-1.5,0.4-2.9,0.2-4.4,0.1l-5.7-0.4
			c3.2,24.8,7.1,55.5,12.1,84.5L1414.5,596.4z"/>
	</g>
	<g>
		<path d="M1472.4,487.9c-5.6,11.2-8.8,23.4-11.8,35.5c-8.4,33.5-16,67.2-22.7,101.1c-2.5,12.8-4.9,25.8-4.3,38.9
			c0.1,3,2.8,5.5,5.5,6.8s5.7,1.6,8.7,1.7c16.9,0.4,33.8-5.3,47-15.9c-4.9-30-8.4-62.4,2.4-90.8c6.3-16.5,17.3-32.2,16.4-49.8
			c-1.7-1.7-4.7-5.3-10.7-9.6C1492,498.2,1484.6,493.4,1472.4,487.9z"/>
	</g>
	<g>
		<path class="st2" d="M1446.1,598.1l-0.7-0.5c14.8-22.5,26.6-46.4,38.2-77.2c-4.9-0.8-8.7-1.9-12.2-3.6l-0.1-0.1l-0.1-0.1
			c-1.9-3.3-4-6.6-6.2-9.7l0.7-0.5c2.2,3.1,4.3,6.4,6.2,9.7c3.5,1.6,7.4,2.8,12.3,3.5l0.5,0.1l-0.2,0.5
			C1472.9,551.4,1461.1,575.4,1446.1,598.1z"/>
	</g>
	<g>
		<path class="st2" d="M1246.4,883.9c0,0-9.2,7.7-16.9,6c-7.7-1.7-16-9.2-13.2-23.5c0,0-3.7,6.9-2.6,13.7c0,0,4,12.6,18,13.7
			C1231.8,893.9,1246.4,892.2,1246.4,883.9z"/>
	</g>
	<g>
		<path class="st2" d="M1552.4,867.8c0,0,1.3,8.4-15.1,4.7c-16.3-3.7-20.3-5.7-26.9-12.6c0,0-3.9-2.2-8.4,1.2l-15.9-6.9l1.7-6.3
			c0,0,17.8,5.5,24.9,9.9C1523,864.3,1543.9,874.4,1552.4,867.8z"/>
	</g>
	<g>
		<path class="st2" d="M1379.8,568.4l-0.8-0.2c3.4-17.5,2.7-36.6-2.2-56.8l0.8-0.2C1382.5,531.6,1383.3,550.8,1379.8,568.4z"/>
	</g>
	<g>
		<path class="st2" d="M1357.9,579.7c-3.2-6.9-6.8-14.8-12.8-20.3l0.6-0.6c6.1,5.6,9.7,13.6,12.9,20.6L1357.9,579.7z"/>
	</g>
	<g>
		<path class="st2" d="M1381.1,543.6c-1.7-5.6-5.6-10.4-10.7-13.3l0.4-0.7c5.2,3,9.3,8,11.1,13.7L1381.1,543.6z"/>
	</g>
	<g>
		<path class="st2" d="M1413.7,512c-3.4-1.5-6.1-3.1-8.7-5l-0.3-0.2l0.1-0.3c1.7-4,4.3-7.5,6.8-10.9c1.5-2,3.1-4.1,4.4-6.3l0.7,0.4
			c-1.4,2.2-2.9,4.3-4.4,6.4c-2.4,3.3-4.9,6.7-6.6,10.5c2.5,1.7,5,3.2,8.3,4.7L1413.7,512z"/>
	</g>
	<g>
		<path class="st2" d="M1471.3,515.5l-0.2-0.8c1.8-0.4,4.1-0.7,6.4-1.1c2.3-0.4,4.7-0.7,6.4-1.1c-0.7-4.4-1.6-8.6-2.6-12.9
			c-0.5-2.4-1.1-5-1.6-7.5l0.8-0.2c0.5,2.6,1.1,5.1,1.6,7.5c1,4.5,1.9,8.8,2.7,13.4l0.1,0.4l-0.4,0.1c-1.7,0.4-4.3,0.8-6.8,1.2
			C1475.4,514.8,1473.1,515.2,1471.3,515.5z"/>
	</g>
	<g>
		<path class="st2" d="M1484.4,554.7c-6.3-0.3-13.2-2-13.2-2l0.2-0.8c0.1,0,6.9,1.7,13.1,2L1484.4,554.7z"/>
	</g>
	<g>
		<path class="st5" d="M1413.9,436.1c-3.3,3.8-3.5,9.6-2.9,14.6c0.7,5,1.8,10.6-1.1,14.7c-1.1,1.6-2.9,3.2-2.5,5.1
			c0.5,2.1,3.1,2.6,5.2,2.8c0.3,3.9,1.2,8.7,1.6,12.7c0.1,1.4,0.2,2.8,0.8,4c1.2,2.6,4.1,4,6.9,4.2s5.6-0.7,8.3-1.7
			c6.8-2.4,13.9-5.6,17.4-11.9c2.1-3.7,2.6-8.1,2.7-12.4c0.2-6.8-0.6-13.7-3.4-20c-2.8-6.2-7.7-11.7-14-14.1
			C1426.5,431.5,1418.2,431.2,1413.9,436.1z"/>
	</g>
	<g>
		<path d="M1422.4,460.4c0.1,1.1-0.8,2-1.8,2c-1.1,0.1-2-0.8-2-1.8c-0.1-1.1,0.8-2,1.8-2C1421.4,458.5,1422.4,459.3,1422.4,460.4z"
			/>
	</g>
	<g>
		<path d="M1416.4,456.6c1.4-2.4,5-3.3,7.4-1.9L1416.4,456.6z"/>
	</g>
	<g>
		<path class="st1" d="M1413.3,479.1l-0.2-1.4c3.5,0,7.1,0.4,10.6,0.9l0.1,0.8C1420.2,479.2,1416.8,479.1,1413.3,479.1z"/>
	</g>
	<g>
		<path class="st17" d="M1449.7,516.2c-0.3,0-0.5-0.1-0.7-0.2c-4.7-2.7-8.1-5.8-10.5-9.3c-2.1,0.7-3.7,1.8-5.6,3.2l-0.1,0
			c-2.2,1.6-5.4,2.7-8.3,2.9l-0.1-0.8c2.8-0.2,5.8-1.2,7.9-2.7l0.1,0c2-1.4,3.7-2.7,6.1-3.4l0.3-0.1l0.2,0.3
			c2.3,3.5,5.7,6.6,10.4,9.3c0.1,0,0.2,0.1,0.2,0.1c0.1,0,0.2-0.1,0.2-0.2c2.3-1.9,4.9-3.9,7.4-5.9c2.5-2,5.1-4,7.4-5.9l0.5,0.6
			c-2.3,1.9-4.9,3.9-7.4,5.9c-2.5,2-5.1,4-7.4,5.9C1450.3,516,1450.1,516.2,1449.7,516.2C1449.8,516.2,1449.8,516.2,1449.7,516.2z"
			/>
	</g>
	<g>
		<path class="st12" d="M511.1,507.7c-6.8-1.9-13.8-2.9-20.8-2.9l0-0.8c7.1,0,14.2,0.9,21,2.9L511.1,507.7z"/>
	</g>
	<g>
		<path class="st12" d="M547.5,627c-3,1.9-22.1,11.9-35.9,16.3c-13.8,4.4-30.3,6.3-33.7,6.8l0.2,0.8c3.3-0.5,19.8-2.3,33.5-6.7
			c13.9-4.5,33.3-14.5,36.3-16.5L547.5,627z"/>
	</g>
	<g>
		<path class="st1" d="M516.2,409.2c3.5,4.3,4.9,10.4,3.6,15.9c-0.9,3.9-3.5,10.7-1,13.8c1.2,1.6,3.8,3.7,4.2,5.7
			c0.3,1.4-1.2,2.7-2.5,3c-1.4,0.3-2,0.4-3.4,0.7c-1.5,4.6-2.4,8.7-4.2,12.8c-0.4,1-0.9,1.9-1.6,2.6c-1.1,0.9-2.5,1.2-3.9,1.3
			c-9.1,0.6-20.2-7.1-23.6-12.3c-2.7-4.2-4.9-9-5.3-14c-0.4-5.6-0.5-11.3,0.6-16.8s3.5-10.9,7.4-14.7c4.1-4,9.7-6.1,15.3-5.9
			C507.3,401.4,512.6,404.8,516.2,409.2z"/>
	</g>
	<g>
		<path d="M497.7,390.8c5.2,0.3,10.4,1.1,15,4c4.6,2.9,8.1,7.2,11,11.8c2,3.3,3.8,7.1,3.2,11c-0.6,3.9-3.3,8.1-7.1,7.2
			c0.1-5.9-3.2-10.2-6.8-12.9c1.4,3.2,0.6,7.1-1.8,9.6c-2.6,2.6-6.5,3.3-10.1,4.1s-6.8,1.6-8.7,3.4c-0.6,0.6-1.5,2-1.7,2.3
			c-2.5,4.2-2.6,7.6-3.6,12.4c-1,4.4-1.9,8.8-2.7,13.3c-1.8,9.4-3.2,19.5,0.4,28.4c2,5.1,5.6,9.3,8.9,13.7c3.3,4.3,6.6,8.9,7.9,14.2
			c1.3,5.3,0.4,11.5-3.7,15.1c-1.6-5.4-5.2-11-9.9-14.1c1.7,2.3,2.2,5.5,1.2,8.2c-1,2.7-3.4,4.9-6.2,5.6c2.2-1.5,2.1-4.3,1.6-6.8
			c-0.7-4.1-3.3-7.7-6.1-10.8c-7.2-7.8-16.6-13.8-22.1-22.9c-5.4-9.1-6.1-20.3-4.8-30.9c1.3-10.5,4.5-20.7,6.4-31.2
			c1.1-6.2,1.8-12.5,4.3-18.2c2.6-5.7,7.6-10.8,13.8-11.4c2.9-3.8,8.3-4.9,13.1-5.1C492.2,390.8,495,390.5,497.7,390.8z"/>
	</g>
	<g>
		<path class="st12" d="M551.8,690.1c-7.1-14.5-14.6-27.3-23.5-40.7l-0.1-0.1l0-0.1c0-1.5,0.6-3.8,1.4-5l0.7,0.4
			c-0.6,1.1-1.2,3.1-1.2,4.5c8.9,13.4,16.4,26.3,23.5,40.7L551.8,690.1z"/>
	</g>
	<g>
		<path class="st12" d="M522.3,583.2c1.6,9.3,2.7,16.5,3.6,25.6c0.6,6.4,1.1,12.8,1.4,19.4l-0.8,0c-0.7-16.1-4-39.6-5.6-47.2
			s-6-22.2-7.1-32.5s0.2-33.9,0.3-34.7s0.9-1.3,0.8,0.1c0,0.7-0.1,5.1-0.2,11.7c-0.1,5.9-0.4,13.6,0.2,22.2c0.4,6,1.4,8.3,2.5,13.9
			C518.4,567.4,521.5,578.3,522.3,583.2z"/>
	</g>
	<g>
		<path class="st12" d="M611.7,732.2c-6.2-1.3-12.3-3.1-18.3-5.4l0.3-0.8c5.9,2.3,12,4.1,18.1,5.3L611.7,732.2z"/>
	</g>
	<g>
		<path class="st12" d="M610.2,749.1c-5.3-4.7-10.2-10-14.4-15.7l0.7-0.5c4.2,5.6,9.1,10.9,14.3,15.6L610.2,749.1z"/>
	</g>
	<g>
		
			<rect x="528.6" y="725.2" transform="matrix(0.803 -0.596 0.596 0.803 -332.2919 459.5669)" class="st12" width="0.8" height="14.5"/>
	</g>
	<g>
		<polygon points="128.1,658.1 132.3,648.4 133.1,648.7 128.9,658.3 		"/>
	</g>
	<g>
		
			<rect x="529.3" y="722" transform="matrix(0.9968 -7.958622e-02 7.958622e-02 0.9968 -55.7986 44.809)" class="st12" width="9.9" height="0.8"/>
	</g>
	<g>
		<path d="M512.1,435.6c0.1,1-0.8,1.9-1.8,2c-1,0.1-1.9-0.8-2-1.8c-0.1-1,0.8-1.9,1.8-2C511.2,433.8,512.1,434.6,512.1,435.6z"/>
	</g>
	<g>
		<path d="M506.3,430.8c2.4-1.5,6-0.6,7.4,1.9L506.3,430.8z"/>
	</g>
	<g>
		<path d="M515.3,454c-3.1-0.8-5.8-1.1-8.2-1.2l0-0.8c2.4,0,5.3,0.4,8.4,1.2L515.3,454z"/>
	</g>
	<path class="st8" d="M208.4,542.4c0,0,1.8-1,3.5-2.2c1.8-1.2,6.6-0.6,6.6-0.6s6.2-30.4,5.4-38.4c-0.7-8-9.2-14.7-9.2-14.7
		s-8.6,26.6-7.7,28.4c0.9,1.8,1.1,18.3,1.1,18.3L208.4,542.4z"/>
	<g>
		<path class="st5" d="M210.8,532.1c-3.7,6.8-13.9,12.1-21.4,10.6c-6.3-1.3-11.7-5.6-15.5-10.8c-3.7-5.3-5.9-11.5-7.5-17.7
			c-0.3-1.1-0.6-2.2-0.6-3.4c0-1.9,0.7-3.7,1.6-5.4c4.5-8.5,13.4-14.1,22.8-15.8c7.7-1.4,16.2-0.4,22.4,4.4
			C225.6,503.6,220.3,514.9,210.8,532.1z"/>
	</g>
	<g>
		<path class="st7" d="M199.7,454.8c8.1-3.8,15.3-0.9,21.4,5.7c6.2,6.5,8.7,15.8,8.9,24.8c0.2,10.3-1.7,19.2-9.5,25.8
			c-6.3-3.8-11.7-8.7-13.1-15.9c-4.1,4.6-12.9,6.9-19.1,6.9c-6.2-0.1-11.4-3.3-17.2-1.2c-4.6-2.3-9.3-7.5-10.1-12.6
			c2-4.5,2.6-8.9,4.8-14.8c2.2-5.9,6-12.8,10.9-16.7C182.7,452,194.8,450.8,199.7,454.8z"/>
	</g>
	<g>
		<path class="st8" d="M162.6,483.8c0,0-1.2,0.2-4.2,3.2c-4,4.4-4.2,12.4-4.7,17.9c-0.3,4.1-0.5,8.2-0.4,12.3l4.8,1.2l7.4,2.9l1.5-5
			l-0.7-3.1L162.6,483.8z"/>
	</g>
	<g>
		<path class="st5" d="M176.7,500.3c-0.2-4.1-1.6-8.1-3.9-11.4c-2.2-3.2-6.1-6.1-9.8-4.8c-3.8,1.3-5.2,5.9-5.5,10
			c-0.5,7.5,1.8,16.3,8.7,19C168.6,509.3,174.4,504,176.7,500.3z"/>
	</g>
	<g>
		<path class="st2" d="M54.9,858.5c0,0,9.4,15,28.9,3.6c0,0,9-6,9.9-13.3l-0.4,8.6c0,0-9,13.7-22.7,13.7S54.9,863.6,54.9,858.5z"/>
	</g>
	<g>
		<path d="M190.4,518.3c0,1.2,0.9,2.1,2,2.2c1.2,0,2.1-0.9,2.2-2c0-1.2-0.9-2.1-2-2.2C191.5,516.2,190.5,517.1,190.4,518.3z"/>
	</g>
	<g>
		<path d="M208.7,520c0,1.1,0.8,1.9,1.8,2s1.9-0.8,2-1.8c0-1.1-0.8-1.9-1.8-2C209.6,518.1,208.7,518.9,208.7,520z"/>
	</g>
	<g>
		<path class="st18" d="M198.2,516c-1.4-3.3-5.7-5-9-3.6L198.2,516z"/>
	</g>
	<g>
		<path class="st18" d="M215.5,515c-2.9-1.9-7.4-1-9.3,2L215.5,515z"/>
	</g>
	<g>
		<path class="st1" d="M201.8,531.2c-0.9,0-1.7-0.3-2.4-0.8l0.5-0.6c0.8,0.7,2.1,0.9,3.1,0.4c1-0.4,1.7-1.5,1.7-2.6
			c0-0.8-0.3-1.6-0.7-2.5c-0.3-0.7-0.5-1.3-0.7-2.1c-0.2-1.1,0-2.3,0.2-3.3l0.8,0.1c-0.2,1-0.4,2-0.2,3c0.1,0.6,0.4,1.2,0.6,1.9
			c0.4,0.9,0.7,1.8,0.7,2.8c0,1.4-0.9,2.7-2.2,3.3C202.9,531.1,202.4,531.2,201.8,531.2z"/>
	</g>
	<g>
		<path class="st1" d="M202.4,536.8c-2.3-2.4-5.7-2.9-8.2-1.3l-0.4-0.7c2.8-1.8,6.6-1.2,9.2,1.4L202.4,536.8z"/>
	</g>
	<path class="st7" d="M131.1,582.8c0,0-60-34.3-45.9-67.4l-9.6,10c0,0-17.7,23.9,49.5,67.7L131.1,582.8z"/>
	<path class="st7" d="M117.3,608.2c0,0-65.8-39.1-51.7-72.1c0,0-3.7,4.1-5.6,6.3c-1.8,2.2-4.1,5.1-4.1,5.1s-10.8,28.8,56.4,72.5
		c0,0,1.4-3.6,2.3-5.9C115.8,611.4,117.3,608.2,117.3,608.2z"/>
	<g>
		<path class="st8" d="M90.5,576.5c-3.1,0-6.2-0.2-9.3-0.5l0-0.4c18.7,2.3,37.9-3.1,54.8-7.8l0.1,0.4
			C122,572.1,106.3,576.5,90.5,576.5z"/>
	</g>
	<g>
		<path class="st8" d="M240.1,547.5l-0.4-0.1l2-9c1.3-6,2.8-12.7,6.9-17.9l0.3,0.3c-4.1,5.1-5.6,11.8-6.8,17.7L240.1,547.5z"/>
	</g>
	<g>
		<path class="st8" d="M240.9,543.3l-0.1-0.4c9.4-1.2,18.8-3.1,28-5.7l0.1,0.4C259.8,540.2,250.3,542.1,240.9,543.3z"/>
	</g>
	<path class="st7" d="M291.6,529.7c0,0-6.3,19.6-20.6,32.4c0,0,3.5,1.5,7.7,3.1c4.2,1.7,6.7,2.5,6.7,2.5s10.3-5.6,19.3-33.4
		C304.6,534.4,297.4,532.4,291.6,529.7z"/>
	<g>
		<path class="st8" d="M262.4,545.7l0-0.4c12.8-1,25.4-3.8,37.4-8.5l0.1,0.4C287.9,541.8,275.2,544.7,262.4,545.7z"/>
	</g>
	<path class="st2" d="M1489.4,660c0,0-28.9,13.3-47.2,6.2c0,0-1.5,0.4-0.3,1c0.6,0.3,8.3,3,20,1.7c10.7-1.2,25.1-6.4,27.7-8.2
		C1491.3,659.7,1491.2,659.1,1489.4,660z"/>
	<g>
		<path class="st13" d="M52.5,890c-1.1,0-3.1-0.1-3.1-0.1c-17.2-1.3-32.7-3.2-43.6-17.8c-1.9-2.5-1.4-6.2,1.2-8
			c2.5-1.9,6.2-1.4,8,1.2c8.1,10.9,20.6,12.5,35.2,13.6l1.4,0.1c2.2,0,7.9,1.5,32.8-2.2c16.8-2.5,33.2-5.4,49.1-11.2
			c17.9-6.6,34.6-20.7,50.9-43.3c14.5-20.1,26.7-44,37.5-65.1c2.6-5.2,5.1-10.1,7.6-14.8c7.3-13.9,14.1-28.5,20.7-42.7
			c14.8-31.6,30.1-64.3,51.8-92.7c17.6-23,35.5-35.3,54.6-37.7c60.6-7.4,149.7-14,149.7-14l-19.8,1.1c0,0,148.3-8.5,228.6,0.9
			c4.6,0.5,9.2,1.1,13.9,1.6c83.4,9.7,156.6,22,258.2,4.5c86.4-14.9,174.3-11.3,256.4-5.2c31.6,2.3,69.4,2.9,119,1.9
			c18.3-0.4,36.9,1,49,13.8c11.5,12.1,23.4,24.6,28,41.9c3.9,14.5,4.4,29.4,4.9,43.8c0.1,2.1,0.1,4.2,0.2,6.3
			c2.8,71.9,19.7,105.8,32.2,125c11.7,18.1,28.4,33.3,47.1,43c12.6,6.6,19.3,9.6,28.8,13.5c8.8,3.6,8.6,5.5,20.2,7.7
			c8.9,1.1,11.3,1.5,12.7,1.9c3,1,5.3,4.1,4.3,7.1c-1,3-4.6,4.3-7.8,3.9c-1.6-0.4-0.9-0.1-10.6-1.4c-13.2-2.2-15.6-5.6-21.1-7.7
			c-10.8-4.1-17.1-7-31.9-14.7c-20.3-10.6-38.6-27.3-51.4-47c-27.6-42.5-32.7-95-34.1-130.8c-0.1-2.1-0.2-4.2-0.2-6.4
			c-0.5-13.8-1-28.1-4.5-41.3c-3.9-14.5-14.2-25.4-25.2-36.9c-9-9.5-24.8-10.5-40.4-10.2c-50,1-88.2,0.4-120.1-1.9
			c-81.4-6-168.4-9.5-253.6,5.1c-102.5,17.6-177.9,5.3-261.5-4.4c-4.7-0.5-9.3-1.1-13.9-1.6c-79.3-9.3-225.1-1-225.1-1l18.3-1
			c0,0-88.7,6.6-149,14c-15.9,1.9-31.2,12.8-46.9,33.2c-20.9,27.4-36,59.5-50.5,90.6c-6.7,14.2-13.5,28.9-20.9,43.1
			c-2.5,4.7-4.9,9.6-7.6,14.7c-22.2,43.4-49.7,97.5-94.6,114c-17,6.3-34.9,8.9-52.3,11.5C74.2,889.4,53.6,890,52.5,890z"/>
	</g>
	<g>
		<path class="st5" d="M308.2,577c8.4-3.3,18.1-2.6,27.3-1.9c1.5,0.1,3.1,0.2,4.5,0.7c2,0.7,3.6,2.1,5.1,3.5c2,1.8,4.1,3.7,6.1,5.5
			c0.1,1.1,0,2.4-1.1,2.9c-1.1,0.6-2.6,0.6-3.7,0c1.1,1,0.7,2.9-0.4,3.9s-3.2,0.9-4.3-0.1c0.6,1.2,0,2.7-1.2,3.4
			c-1.3,0.7-3.1,0.5-4.2-0.5c-1,1.8-4,1.8-6.3,1.6c-6.3-0.4-12.4-3.5-18.6-3c-7.2-0.4-28,1.8-28,1.8s-3.5-4-3.7-5.2
			C279,586.9,280.3,577.2,308.2,577z"/>
	</g>
	<path class="st7" d="M214.1,611.8c0,0,6.4-1.3,8.9-3.5l1-2.7l-9.6,1.5L214.1,611.8z"/>
	<g>
		<path class="st8" d="M216.5,609.4l-0.4,0c0,0-0.3-1.1-0.3-1.8c0-0.7,0.2-1.9,0.2-1.9l0.4-0.1c0,0,0.3,1.4,0.3,2
			C216.6,608.2,216.5,609.4,216.5,609.4z"/>
	</g>
	<g>
		<path class="st8" d="M214.5,566.6l-0.4,0c0,0-0.3-1-0.4-1.8s0-1.9,0-1.9l0.4-0.1c0,0,0.4,1.3,0.4,1.9S214.5,566.6,214.5,566.6z"/>
	</g>
	<g>
		<path class="st6" d="M159.2,520.1c1.9-0.9,4.1,0.1,5.9,1.1c7.4,4.2,13.7,10.1,19.9,15.9c12.7,12,25.3,24.1,37.8,36.3
			c27.7-1.3,56.8-0.7,84.4,1.8c-1.8,10.3-5.7,21.2-9.5,30.9c-27.4,4.5-57.1,5.1-84.6,0.7c-31.6-5-62-22.7-84.2-45.7
			C133.7,545,144,527.1,159.2,520.1z"/>
	</g>
	<path class="st7" d="M192.5,601.9c15.1-1.6,24.1-34.9,24.1-34.9l6,6.5l8.4-0.7c-7.2,37.6-20.5,33.7-20.5,33.7L192.5,601.9z"/>
	<g>
		<path class="st8" d="M252.4,610c-13.4,0-26.6-1-39.3-3c-30-4.7-60.7-21.4-84.3-45.8l0.3-0.3c23.6,24.3,54.2,41,84.1,45.7
			c26.8,4.2,55.9,3.9,84.4-0.7c3.6-9.2,7.5-20,9.4-30.5c-27.3-2.4-56.4-3-84.1-1.8l-0.1,0l-0.1-0.1c-12.4-12.2-25.2-24.4-37.8-36.3
			c-5.8-5.4-12.3-11.6-19.9-15.9c-7.3-4.1-16.1-4.5-24.5-4.5l0-0.4c8.5,0,17.3,0.4,24.7,4.5c7.6,4.3,14.2,10.5,19.9,15.9
			c12.6,11.9,25.3,24.1,37.8,36.2c27.8-1.3,57-0.6,84.3,1.8l0.2,0l0,0.2c-1.9,10.6-5.8,21.6-9.5,30.9l0,0.1l-0.1,0
			C282.7,608.7,267.4,610,252.4,610z"/>
	</g>
	<g>
		<path class="st8" d="M198.3,579.7l0-0.4c7.8-0.3,15.5-1.5,22.9-3.8l0.1,0.4C213.8,578.2,206.1,579.4,198.3,579.7z"/>
	</g>
	<g>
		<path class="st8" d="M194.5,548.5c-10.1-5.4-21.4-8.1-32.8-7.8l0-0.4c11.5-0.3,22.9,2.4,33,7.8L194.5,548.5z"/>
	</g>
	<g>
		<path class="st8" d="M150.4,516.7c-5.4-4.1-12.1-6.6-18.9-7.2l0-0.4c6.8,0.6,13.6,3.2,19.1,7.3L150.4,516.7z"/>
	</g>
	<g>
		<path class="st5" d="M406.9,556.1c1.2-0.5,4,0,6,0.6c1,0.3,1.8,0.9,2.6,1.5c2.3,1.9,4.2,4.3,5.6,6.9c-1.8,1.2-4.1,1.7-6.1,0.6
			c-2-1.1-3.3-3.1-5.1-4.5c-0.9-0.7-1.9-1.2-2.6-2C406.5,558.5,406.2,556.9,406.9,556.1z"/>
	</g>
	<g>
		<path class="st5" d="M427.7,575.1c-1.2-2.7-3.1-5.2-5.4-7.2c-0.6-0.5-1.3-1-2-1.3c-0.8-0.2-1.7-0.2-2.3,0.4c-1,1-0.2,2.7,0.6,3.8
			c-1-1.3-2.3-2.4-3.8-3.2c-1.5-0.8-3.6-1.3-4.8-0.1c-1.2,1.2-0.5,3.2,0.4,4.7c-1.2-1.1-3.1-2.6-4.7-2c-0.9,0.4-1.4,1.4-1.4,2.3
			c0,0.9,0.5,1.8,1,2.6c-0.3-1.3-2.4-1.2-3.5-0.4c-1,0.8-1.1,2.3-0.8,3.6c0.4,1.4,1.4,2.8,2.9,3.4c1.5,0.6,3.4,0,4-1.3
			c1.7,1.1,4.8,0,5-1.9c1.8,1.3,5,0.1,5.4-1.9c1.5,0.7,4,1.6,5.8,1.6S428.3,576.6,427.7,575.1z"/>
	</g>
	<g>
		<path class="st14" d="M400.8,578.3c-0.4-1.3-0.3-3,0.9-4c0.7-0.5,1.7-0.8,2.6-0.7c-0.1-0.4-0.2-0.8-0.3-1.3c0-1.2,0.6-2.3,1.6-2.7
			c1.2-0.5,2.5,0.1,3.7,0.9c-0.5-1.5-0.4-2.7,0.5-3.5c1.4-1.3,3.7-0.8,5.3,0.1c0.8,0.4,1.4,0.9,1.9,1.3c-0.1-0.8,0.2-1.4,0.7-2
			c0.6-0.6,1.7-0.8,2.7-0.5c0.9,0.3,1.6,0.8,2.2,1.4c2.4,2.1,4.3,4.6,5.5,7.4l-0.7,0.3c-1.2-2.6-3-5.1-5.3-7.1
			c-0.6-0.5-1.2-1-1.9-1.2c-0.7-0.2-1.5-0.1-1.9,0.3c-1,0.9-0.2,2.3,0.3,3.1l-0.7,0.5c-1.1-1.3-1.9-2.1-3.3-2.8
			c-1.4-0.8-3.3-1.2-4.3-0.2c-1,1-0.3,2.8,0.5,4.2l1.5,2.5l-2.1-2c-1-1-2.9-2.5-4.2-1.9c-0.8,0.3-1.1,1.2-1.1,1.9
			c0,0.6,0.3,1.3,0.6,1.8c0.2,0.2,0.4,0.5,0.4,0.8l0.5,2.2l-1.2-1.9c-0.1-0.2-0.2-0.4-0.3-0.6c-0.1-0.1-0.2-0.1-0.3-0.1
			c-0.7-0.2-1.7-0.1-2.2,0.4c-0.9,0.7-0.9,2.1-0.6,3.1L400.8,578.3z"/>
	</g>
	<g>
		<path class="st14" d="M418.7,576.8l-0.6-0.6c2-2.2-0.6-6.1-0.7-6.1l0.7-0.5C418.3,569.8,421.2,574.1,418.7,576.8z"/>
	</g>
	<g>
		<path class="st14" d="M413.5,578.5l-0.8-0.2c0.5-2.4-2.4-5.8-2.5-5.8l0.6-0.5C411,572.1,414,575.7,413.5,578.5z"/>
	</g>
	<g>
		<path class="st14" d="M407.7,580.5c-1.1-2.3-2.6-5.2-2.6-5.2l0.7-0.4c0,0,1.5,2.9,2.7,5.2L407.7,580.5z"/>
	</g>
	<g>
		<path class="st14" d="M417.6,566.8c-0.2,0-0.3,0-0.5,0c-2.4-0.2-4.8-2-7.1-5.3l0.7-0.5c2.1,3.1,4.3,4.7,6.5,4.9
			c2.1,0.2,3.4-1.1,3.4-1.1l0.6,0.6C421,565.5,419.7,566.8,417.6,566.8z"/>
	</g>
	<g>
		<path class="st1" d="M632.6,567.1c5.3,1.4,10.8,2.4,16.3,2.9c2.3,0.2,4.6,0.3,6.8-0.2c2.2-0.5,4.4-1.7,5.6-3.7
			c1.6-2.7,0.9-6.9,0.1-10c-0.9-3.5-4.5-6.2-8.1-6.1c-1.5-1.5-4.8-1.5-6.2,0.1c-0.9-0.5-2.2-1.2-3.3-1.2c-1.1-0.1-2.2,0.6-2.4,1.6
			c-0.3,1.9,0.6,3.8,1.8,5.4c0.5,0.7,1.1,1.5,1.4,2.3c0.6,1.5,0.2,3.4-1,4.6C640.1,563.2,635.4,565.1,632.6,567.1z"/>
	</g>
	<g>
		<path class="st13" d="M649.8,563.4c-0.1-0.5-0.1-1.1-0.1-1.7c0-1.2-0.1-2.5-0.7-3.5c-0.7-1.2-1.7-2.2-2.9-3.4
			c-0.8-0.8-1.8-1.6-2.8-2c-0.4-0.2-0.8-0.2-1-0.1c-0.2,0.1-0.4,0.4-0.3,0.6c0.3,1,0.8,2,1.5,2.9c0.1,0.1,0.2,0.3,0.3,0.4
			c0.4,0.6,0.8,1.1,1.1,1.8c0.5,1.6-0.2,3.6-1,4.8l-0.7-0.4c0.7-1.2,1.3-2.9,0.9-4.1c-0.2-0.6-0.5-1.1-0.9-1.6
			c-0.1-0.1-0.2-0.3-0.3-0.4c-0.7-1-1.2-2-1.6-3.1c-0.2-0.6,0.2-1.4,0.8-1.7c0.5-0.2,1-0.1,1.6,0.1c1.2,0.4,2.2,1.3,3.1,2.2
			c1.1,1,2.2,2.2,3,3.6c0.7,1.2,0.7,2.6,0.8,3.9c0,0.6,0,1.1,0.1,1.6L649.8,563.4z"/>
	</g>
	<g>
		<path class="st13" d="M654.3,562.9c-0.6-4.9-2.2-8.3-5.4-10.9c-0.7-0.6-1.7-1.3-2.4-1.8c-0.7-0.5-1.1-0.7-1.9-0.8
			c-1.1-0.2-1.8,0-2.2,0.4c-0.4,0.4-0.4,1.1-0.2,2.3l-0.8,0.2c-0.3-1-0.4-2.2,0.4-3c0.8-0.8,2-0.8,2.9-0.6c0.9,0.1,1.5,0.3,2.3,0.9
			c0.7,0.5,1.8,1.3,2.5,1.8c3.3,2.7,5.1,6.2,5.7,11.4L654.3,562.9z"/>
	</g>
	<g>
		<path class="st13" d="M658,563c-0.2-1-0.4-1.9-0.5-2.8c-0.5-2.8-0.9-5.3-2.7-7.7c-1-1.4-2.2-2.3-3.4-2.7c-1.4-0.5-3-0.4-4.1,0.3
			l-0.5-0.7c1.3-0.9,3.1-1.1,4.8-0.4c1.4,0.5,2.6,1.5,3.7,3c1.9,2.5,2.3,5.2,2.8,8c0.2,0.9,0.3,1.8,0.5,2.8L658,563z"/>
	</g>
	<g>
		<path class="st13" d="M661.6,563.1c0-2,0-3.9-0.4-5.7c-0.4-2-1.3-3.7-2.5-4.9c-1.3-1.3-2.9-1.8-4.7-1.6l-0.1-0.8
			c2-0.3,4,0.3,5.4,1.8c1.3,1.3,2.2,3.1,2.7,5.3c0.4,1.9,0.5,3.9,0.5,5.9L661.6,563.1z"/>
	</g>
	<g>
		<path class="st1" d="M531.5,553.8c2.5-1.4,5.1-2.9,7.9-3.6c4.5-1.1,9.3-0.3,13.9-1c2.1-0.4,4.2-1.1,6.4-1.1c2.2,0,5.1-0.3,6.2,1.6
			c0.3,2.5-4.8,4.8-7.8,4.8c4.2,2.4,8.1,5,12,7.9c0.5,0.4,1,0.8,1.3,1.4c0.6,1.3-0.4,3-1.7,3.5s-2.9,0.4-4.3,0.2
			c-2.4,1.8-6.1,2.5-8.7,1.1c-0.5-0.2-1-0.6-1.5-0.4c-0.4,0.1-0.6,0.5-0.9,0.9c-0.9,1-2.3,1.3-3.6,1.2c-1.3-0.2-2.5-0.7-3.8-1.2
			c-4-1.6-8.2-2.5-12.5-2.7c-0.6,0-1.2-0.1-1.7-0.4c-0.5-0.4-0.7-1.1-0.8-1.7C531.3,561.7,531.5,556.3,531.5,553.8z"/>
	</g>
	<path class="st1" d="M469,548.8c6.5,7.1,3.3,8.1,13,8.4c7.5,0.2,15.2-0.1,22.6-0.6c7.4-0.5,25.6-2.6,28.5-2.9
		c1.1,3.8,5.7,7.2,6.3,11.1c-15.1,4-62.3,11.9-69.7,11.4c-8.5-0.6-11.9-1.4-24.2-21.2L469,548.8z"/>
	<g>
		<path class="st11" d="M445,564.2c-4.1-24.9-4.8-46-0.4-70.4c9.1-2.3,18.6-0.3,24.5,7c5.9,7.3,8.2,17,7.9,26.4
			c-0.1,3.7,1,7.7,0.8,11.4c-0.3,5,0.9,12.5,1.5,17.5c0,0-31.8,8.3-32.7,8.4C445,564.8,445,564.2,445,564.2z"/>
	</g>
	<g>
		<path class="st12" d="M479.1,555.1l-0.3,0l0-0.3c0-0.1-1.8-12.4-0.6-27.6l0.8,0.1c-1.1,13.8,0.2,25.1,0.5,27.1"/>
	</g>
	<g>
		<path class="st12" d="M535.9,538.5l0.8,0.1c0.4-3.9-0.4-7.8-1.4-11.6l-0.8,0.2C535.5,530.9,536.3,534.7,535.9,538.5z"/>
	</g>
	<g>
		<path class="st13" d="M557.9,555l-0.2-0.8c0.5-0.1,1-0.2,1.5-0.3c1.1-0.2,2.3-0.5,3.3-0.9c1.7-0.7,2.8-1.9,3.1-3.2l0.8,0.2
			c-0.4,1.6-1.7,3-3.6,3.8c-1.1,0.5-2.3,0.7-3.5,1C558.9,554.7,558.4,554.8,557.9,555z"/>
	</g>
	<g>
		<path class="st5" d="M1017.2,551.6c-13.3,3.7-27.8,1.6-40.5,7c-2.1,0.9-4.2,2-6.2,3.1c-1.9,1.1-3.9,2.1-5.8,3.2
			c-1.6,0.9-3.6,0.9-5.3,1.5c-0.2,0.1-0.5,0.2-0.6,0.4c-0.3,0.4-0.1,1,0.2,1.4c1.2,1.8,3.6,2.7,5.7,2c-0.4,0.4-1,1-1.4,1.4
			c-0.7,0.6-1.3,1.3-1.8,2.1c-0.5,0.8-0.8,1.7-0.6,2.7c0.3,1.5,1.8,2.5,3.2,2.6c1.5,0.1,2.9-0.4,4.3-1c-0.3,0.7-0.5,1.7-0.2,2.5
			c0.3,0.6,0.9,1,1.5,1.3c1.2,0.4,2.5,0.3,3.6-0.1c1.2-0.4,2.2-1.1,3.3-1.8c0.4,1.4,1.5,2.2,2.9,2.3c1.4,0.1,2.7-0.5,4-1
			c1.5,3.5,7.9,0.7,11.2-1.5s6-5.5,9.5-7.3c2.3-1.2,4.9-1.8,7.4-2.4c3.8-0.9,7.7-1.7,11.5-2.6c-1.8-4.5-3.8-9.1-5.1-13.8
			C1017.8,553.1,1017,551.9,1017.2,551.6z"/>
	</g>
	<g>
		<polygon class="st9" points="1025.2,546.8 1014.1,549.8 1020.5,571.6 1032.1,568.6 		"/>
	</g>
	<g>
		<path class="st14" d="M1075.3,568.8c2.2-4.1,4.8-7,7.6-10.7c1.1-1.4,3.8-2.3,5.2-1.4l-0.1,2.3c1-1.5,2.3-2.4,3.7-2.2
			s2.4,2.4,1.2,3.3c0.7-1.1,1.7-1.9,3.1-1.9s2.3,2,1.2,2.7c0.4-1,1.4-1.4,2.4-1.5c0.7,0,1.4,0.5,1.6,1.2c0.5,2.1-0.8,4.5-2.1,6.4
			c-1.2,1.8-3,3.8-5,3.2c-0.6-0.2-1.2-1.2-1.7-0.8c-0.7,0.6-1.4,0.7-2.3,0.9c-1.3,0.2-2.9-0.3-3.6-1.4c-1.9,2-3.9,1.9-5.2,0.1
			C1079.9,570.9,1076.3,571.1,1075.3,568.8z"/>
	</g>
	<g>
		<path class="st14" d="M1081.8,569.3l-0.7-0.4c0.7-1.3,1.8-2.7,2.9-4.2c1.5-2,3-4.1,3.8-5.9l0.7,0.3c-0.9,1.9-2.4,4-3.9,6.1
			C1083.5,566.6,1082.5,568,1081.8,569.3z"/>
	</g>
	<g>
		<path class="st14" d="M1087.2,569.4l-0.7-0.4c0.5-0.8,1.2-1.8,1.9-2.7c0.5-0.7,1-1.3,1.3-1.9c0.4-0.6,0.9-1.2,1.3-1.9
			c0.8-1,1.5-2.1,2.2-3.2l0.7,0.4c-0.7,1.1-1.5,2.2-2.2,3.3c-0.5,0.6-0.9,1.3-1.3,1.9c-0.4,0.6-0.9,1.2-1.4,1.9
			C1088.4,567.6,1087.7,568.6,1087.2,569.4z"/>
	</g>
	<g>
		<path class="st14" d="M1093.3,569.5l-0.7-0.4c1.1-2.1,2.1-3.9,3.1-5.7c0.5-1,1-1.9,1.6-2.9l0.7,0.4c-0.5,1-1,1.9-1.6,2.9
			C1095.4,565.5,1094.3,567.4,1093.3,569.5z"/>
	</g>
	<g>
		<path class="st14" d="M1075.7,569l-0.7-0.4c1.8-3.4,3.9-6,6.2-8.8c0.5-0.6,1-1.3,1.5-1.9c0.6-0.7,1.6-1.4,2.7-1.7
			c0.8-0.2,1.6-0.1,2.2,0.5c0.4,0.3,0.7,0.8,0.9,1.3c1-1.2,2.2-1.7,3.5-1.5c0.9,0.1,1.8,1,2,2c0,0,0,0.1,0,0.1
			c0.7-0.5,1.4-0.7,2.2-0.7c1,0,1.8,0.9,2,1.6c0.4-0.2,1-0.4,1.6-0.4c0.9-0.1,1.8,0.6,2,1.5c0.5,2.3-1,5-2.2,6.7l-0.7-0.5
			c1.1-1.6,2.5-4.1,2-6.1c-0.1-0.5-0.6-0.9-1.2-0.9c-0.7,0-1.2,0.2-1.6,0.6c-0.1,0.3-0.3,0.6-0.6,0.9l-1.1,0.7l0.5-1.2
			c0.1-0.3,0.3-0.5,0.4-0.7c0-0.1,0-0.2,0-0.3c-0.2-0.5-0.7-1.1-1.3-1.1c-0.8,0-1.6,0.4-2.3,1.1c-0.1,0.3-0.3,0.5-0.5,0.7l-2,1.5
			l1.4-2.1c0.1-0.2,0.3-0.4,0.4-0.6c0.1-0.3,0-0.6,0-0.7c-0.2-0.6-0.7-1.3-1.4-1.4c-1.5-0.2-2.6,1-3.3,2l-0.8,1.2l0.1-1.8
			c0-0.6-0.2-1.1-0.7-1.5c-0.4-0.3-1-0.5-1.5-0.3c-0.9,0.3-1.8,0.8-2.3,1.4c-0.5,0.7-1,1.3-1.5,1.9
			C1079.5,563.2,1077.5,565.7,1075.7,569z"/>
	</g>
	<g>
		<path class="st2" d="M1166.2,536.7c-7,0-14-0.7-20.9-2.1l0.2-0.8c7.8,1.6,15.8,2.3,23.7,2l0,0.8
			C1168.2,536.7,1167.2,536.7,1166.2,536.7z"/>
	</g>
	<g>
		<path d="M1210.6,470.8c-2.2-1.3-6.9-4.8-9.4-5.1c-5.6-0.9-9.7,1.9-15.1,3.6c-2.6,0.8-5.3,1.6-7.7,3c-3.8,2.2-6.7,5.5-9.6,8.8
			c-9.4-1.6-19.3,2.9-26.7,8.9c-7.4,6-15.6,12.9-23.1,17.9c-9.6,6.4-18,11.7-29.5,16.6c-4.8,2-13.8,5.1-18.8,6.6
			c-17.2,5.4-31,8.7-49.7,14.6c2.6,8.4,4.1,17.6,6.7,25.9c27.7-5.7,69-17.1,82.2-21.5c8.1-2.9,19-8,29-12.2
			c6.3-2.7,12.4-4.3,16.8-7.3c12.1-8.5,18-20.2,14.2-40.8c-0.3-1.8,0.4-3.8,1.8-4.9c1-0.8,2.3-0.9,3.5-1
			C1188.4,482.4,1201.9,480.5,1210.6,470.8z"/>
	</g>
	<g>
		<path class="st2" d="M1117.3,547.1l-0.2-0.8c5.6-1.6,8.6-3.5,12.4-5.3c2.2-1,4.3-2,6.5-2.9c4.3-1.6,7.8-2.7,11.6-3.7
			c7.2-1.9,14-3.6,21.6-9.1l0.5,0.7c-7.7,5.5-14.6,7.3-21.9,9.2c-3.8,1-7.3,2.1-11.5,3.7c-2.2,0.8-4.3,1.8-6.5,2.8
			C1125.9,543.5,1122.9,545.5,1117.3,547.1z"/>
	</g>
	<g>
		<path class="st2" d="M1191.6,487c-6.8-2.2-13.9-4.1-20.9-5.4l0.2-0.8c7.1,1.3,14.2,3.2,21,5.4L1191.6,487z"/>
	</g>
	<g>
		<path class="st2" d="M1173.1,521.5l-0.8-0.2c3.1-9.9,3.4-20.5,1.1-30.6c-0.5-2-1.1-4.4-2.4-6.4l0.7-0.4c1.3,2.2,2,4.6,2.5,6.7
			C1176.5,500.7,1176.2,511.4,1173.1,521.5z"/>
	</g>
	<g>
		<path class="st2" d="M1111.2,529.2c-7.5,0-14.9-1-22.2-3l0.2-0.8c9.7,2.7,19.6,3.6,29.6,2.6l0.1,0.8
			C1116.4,529.1,1113.8,529.2,1111.2,529.2z"/>
	</g>
	<g>
		<path class="st2" d="M1156.7,500.5c-5.9-3-13-4-19.5-2.6l-0.2-0.8c6.7-1.5,14-0.5,20,2.6L1156.7,500.5z"/>
	</g>
	<g>
		<path class="st14" d="M964.6,570.6l-0.3-0.8c4-1.7,9-3.8,11.9-7.8l0.7,0.5C973.9,566.7,968.7,568.8,964.6,570.6z"/>
	</g>
	<g>
		<path class="st14" d="M986,583.1c-0.4,0-0.7-0.1-1-0.2c-0.8-0.2-1.4-0.7-1.9-1.4c-1.2,0.5-2.5,1-3.8,0.9c-1.4-0.1-2.5-0.8-3.1-2.1
			c-0.9,0.6-1.9,1.2-2.9,1.5c-1,0.3-2.5,0.7-3.9,0.1c-0.8-0.3-1.5-0.8-1.7-1.5c-0.3-0.6-0.2-1.3,0-1.9c-1.2,0.4-2.4,0.8-3.6,0.7
			c-1.5-0.1-3.3-1.2-3.6-3c-0.2-0.9,0.1-2,0.7-2.9c0.5-0.8,1.2-1.5,1.9-2.1c0.1-0.1,0.3-0.3,0.5-0.4c-1.8,0.1-3.7-0.8-4.8-2.4
			c-0.5-0.7-0.5-1.3-0.2-1.8l0.7,0.5c-0.1,0.2,0,0.6,0.2,0.9c1.1,1.7,3.4,2.5,5.2,1.9l1.7-0.5l-1.3,1.2c-0.2,0.2-0.5,0.4-0.7,0.7
			c-0.3,0.2-0.5,0.5-0.7,0.7c-0.6,0.6-1.3,1.2-1.7,2c-0.5,0.8-0.7,1.6-0.5,2.4c0.3,1.4,1.6,2.2,2.9,2.3c1.4,0.1,2.7-0.4,4.1-0.9
			l0.9-0.4l-0.4,0.9c-0.4,0.8-0.4,1.6-0.2,2.2c0.2,0.6,0.9,0.9,1.2,1c1.2,0.4,2.5,0.2,3.4-0.1c1.1-0.4,2.2-1.1,3.2-1.7l0.5-0.3
			l0.1,0.5c0.3,1.2,1.2,1.9,2.4,2c0,0,0,0,0,0c1.3,0.1,2.6-0.5,3.8-1l0.4-0.2l0.2,0.4c0.3,0.7,0.8,1.1,1.5,1.3
			c2.5,0.7,6.8-1.4,9.1-3l0.5,0.7C992.9,581.1,989,583.2,986,583.1z"/>
	</g>
	<g>
		<path class="st5" d="M1266.6,554c-1.1-0.8-4.1-0.8-6.1-0.5c-1,0.1-2,0.6-2.9,1.2c-2.7,1.7-5.1,3.9-6.9,6.4c1.6,1.7,3.8,2.7,6,1.9
			c2.3-0.7,3.9-2.7,5.9-3.9c1-0.6,2.1-0.9,3-1.7C1266.6,556.7,1267.2,555,1266.6,554z"/>
	</g>
	<g>
		<path class="st5" d="M1242.2,570.6c1.7-2.7,4.1-5.1,6.8-6.8c0.7-0.5,1.5-0.9,2.3-1c0.8-0.1,1.8,0.2,2.2,0.9c0.9,1.3-0.3,3-1.4,4.1
			c1.3-1.2,2.8-2.1,4.4-2.7c1.7-0.6,3.9-0.7,4.8,0.8c1,1.6-0.1,3.6-1.3,5.1c1.4-1,3.6-2.3,5.1-1.3c0.9,0.6,1.1,1.8,0.9,2.8
			c-0.2,1-0.8,1.9-1.5,2.7c0.5-1.3,2.7-0.8,3.6,0.3s0.7,2.8,0.1,4.1c-0.7,1.5-1.9,2.8-3.5,3.1c-1.6,0.3-3.5-0.7-3.8-2.3
			c-1.9,0.8-4.8-1-4.6-3.1c-2.1,1-5-0.9-5-3.1c-1.7,0.5-4.4,0.9-6.1,0.5C1243.4,574.2,1241.2,572.1,1242.2,570.6z"/>
	</g>
	<g>
		<path class="st14" d="M1268.6,579.7l-0.7-0.3c0.5-1.1,0.7-2.6-0.1-3.6c-0.5-0.6-1.4-1-2.1-0.9c-0.1,0-0.2,0.1-0.3,0.1
			c-0.1,0.2-0.3,0.4-0.4,0.5l-1.5,1.8l0.8-2.2c0.1-0.3,0.3-0.6,0.6-0.7c0.4-0.5,0.8-1.2,0.9-1.9c0.2-0.9-0.1-1.9-0.8-2.4
			c-1.2-0.9-3.4,0.4-4.6,1.3l-2.4,1.7l1.8-2.3c1.1-1.3,2.1-3.2,1.3-4.6c-0.8-1.2-2.8-1.2-4.3-0.7c-1.5,0.5-2.5,1.2-3.8,2.4l-0.6-0.6
			c0.7-0.7,1.7-2.1,0.9-3.4c-0.4-0.6-1.2-0.8-1.8-0.7c-0.8,0.1-1.5,0.5-2.1,0.9c-2.7,1.7-5,4-6.6,6.7l-0.7-0.4
			c1.8-2.8,4.1-5.2,6.9-7c0.7-0.5,1.5-0.9,2.5-1c1.1-0.1,2.1,0.3,2.6,1c0.5,0.7,0.6,1.5,0.3,2.3c0.6-0.4,1.3-0.8,2.2-1.1
			c1.9-0.7,4.3-0.6,5.3,1c0.7,1.1,0.6,2.4-0.2,3.9c1.6-0.8,3-0.9,3.9-0.3c0.9,0.6,1.4,1.9,1.1,3.2c-0.1,0.5-0.3,1-0.5,1.4
			c0.9,0,1.9,0.5,2.5,1.2C1269.4,576.5,1269.2,578.4,1268.6,579.7z"/>
	</g>
	<g>
		<path class="st14" d="M1250.9,574.3c-1.9-3.4,1.8-7.5,1.9-7.6l0.6,0.6c0,0-3.5,3.8-1.8,6.7L1250.9,574.3z"/>
	</g>
	<g>
		<path class="st14" d="M1255.8,577.2c0-3.2,3.7-6.4,3.9-6.5l0.5,0.6c0,0-3.6,3.1-3.6,5.9L1255.8,577.2z"/>
	</g>
	<g>
		<path class="st14" d="M1261.2,580.5l-0.7-0.5c1.6-2.3,3.6-5.2,3.6-5.2l0.7,0.5C1264.8,575.4,1262.8,578.2,1261.2,580.5z"/>
	</g>
	<g>
		<path class="st14" d="M1255,563.6c-0.2,0-0.3,0-0.5,0c-2.5-0.2-3.8-2.2-3.9-2.3l0.7-0.4c0,0,1.1,1.7,3.3,1.9
			c2.2,0.2,4.7-1.2,7.4-4.1l0.6,0.6C1259.9,562.1,1257.3,563.6,1255,563.6z"/>
	</g>
	<g>
		<path class="st5" d="M1431,567.2c-8.2-4.8-18.1-5.2-27.6-5.4c-1.5,0-3.1-0.1-4.6,0.4c-2.1,0.6-3.9,2.1-5.5,3.5
			c-2.2,1.9-4.5,3.9-6.7,5.8c-0.3,1.3-0.2,2.8,0.8,3.6c1,0.8,2.6,1,3.8,0.4c-1.3,1-1,3.4,0,4.6c1,1.3,3.1,1.5,4.4,0.4
			c-0.7,1.4-0.3,3.2,0.9,4.2c1.2,1,3.1,0.9,4.3-0.1c0.8,2.2,3.9,2.6,6.3,2.7c6.5,0.2,12.9-2.8,19.2-1.4c1.6-1,2.6-3.1,3.4-4.8
			C1431.6,576.8,1432.1,571.7,1431,567.2z"/>
	</g>
	<g>
		<path class="st9" d="M1438.1,570.4l-9-5.6c0,0-2.6,14.6-5.6,21.5l12,6.4L1438.1,570.4z"/>
	</g>
	<g>
		<path d="M1512.6,515.1c5,4.6,6.4,11.8,7.4,18.5c3.6,23,3.8,46-0.8,68.7c-1.5,7.4-4.1,15.2-10.3,19.5c-8.7-0.2-17.8-2.3-26.1-5
			c-18.6-6.1-34.7-13.5-51.6-23.3c3-8.1,4.2-16.4,5.2-24.9c9.6,6.4,22.7,6.9,33.5,8.6c5.6,0.9,14.5,2.9,20.2,3.4
			c0-5.2-1.8-13.4-1.8-18.6c0.1-6.2,0.1-12.6,1.5-18.6C1492.5,531.7,1502,520.8,1512.6,515.1z"/>
	</g>
	<g>
		<path class="st2" d="M1507.5,622c-22.5,0-76.2-27.5-76.7-27.8l-0.3-0.2l0.1-0.3c3.1-7.8,5-16.1,5.4-24.2l0.8,0
			c-0.4,8-2.3,16.3-5.3,24.1c4.7,2.4,56.8,28.6,77.3,27.5l0,0.8C1508.3,622,1507.9,622,1507.5,622z"/>
	</g>
	<g>
		<path class="st2" d="M1489.9,580.4c-2.6-12.6-2.7-25.9-0.3-38.5l0.8,0.2c-2.4,12.5-2.3,25.7,0.3,38.2L1489.9,580.4z"/>
	</g>
	<g>
		<path class="st2" d="M1506.1,603.3c-1.2-8.9-6.5-17.1-14.1-21.9l0.4-0.7c7.8,4.9,13.2,13.3,14.5,22.5L1506.1,603.3z"/>
	</g>
	<g>
		<path class="st2" d="M1491.5,571.7l-0.6-0.5c5.8-6.6,11.9-13,18.2-19l0.6,0.6C1503.4,558.7,1497.2,565.1,1491.5,571.7z"/>
	</g>
</g>
<path class="st2" d="M1162.8,642.2c-10.3-7-22.6-19.1-34.6-26.4c-0.8-0.4-1.1,0.4-0.5,0.9c12.2,7.3,24.6,19.6,35.1,26.7
	c9.5,6.4,25.3,11.3,37.7,11.3c0.7,0,1.1-1.1,0.2-1.2C1188.3,653.6,1172.4,648.7,1162.8,642.2z"/>
<path class="st2" d="M1385.8,663.5c1.2,0.5,9.2,3.1,13.5,1.6c4-1.4,6.9-4.9,8.5-8.8c1.6-3.9,2.5-11.1,2.6-12.3c0.2-1.2,1-2,0.7,0.8
	c-0.3,2.8-0.9,8.2-2.5,12s-4.5,7.4-8.5,8.8c-4.3,1.5-10.1,0.4-13.1-1C1384.4,663.5,1385.2,663.2,1385.8,663.5z"/>
<circle class="st3" cx="1183.1" cy="462.7" r="2.2"/>
<path class="st7" d="M1183.7,460.5c0.5,0.3,0.7,1,0.9,1.5c0.2,0.9-0.5,1.9-1.3,2.2c-0.5,0.2-1,0.4-1.5,0.2c0.6,0.4,1.3,0.5,1.9,0.4
	c1.2-0.3,1.9-1.6,1.5-2.8C1185,461.1,1184.3,460.7,1183.7,460.5z"/>
<path d="M1472.4,430.8c-3.3-5.6-9.9-9.1-16.4-8.7c-2.1-4.5-9.5-7.2-15-7.1c-5.2,0.1-10.4,1.2-15.2,3.1c-14.1,1.5-18.6,9-18.6,9
	c2.2-0.6,4.1-1.1,5.9-1.5c-2.8,2.4-5.3,5.2-6.4,8.7c-1.3,4,0,10,3.6,12.3c1.2-2.9,3.9-5.1,6.9-5.8c2.8-0.7,5.7-0.2,8.5-0.6
	c3.4-0.5,6.6-2.5,8.6-5.4c0.1,4.3,0.1,8.5,2.5,12.1c0.9,1.4,2.1,2.6,3,4c1,1.5,1.6,3.2,1.8,4.9c0.2,1.4,0.1,2.9,0.7,4.1
	s2.1,2.3,3.4,1.6c3.3-1.7,8.5-1.1,10.2,2.2c1,2,0.9,4.4,1.1,6.7c0.2,2.3,0.8,4.8,2.6,6c1.8,1.2,4.2,1,6.4,0.7
	c-0.3-9.3,1.6-18.9,5.9-27.2C1474.8,444.1,1475.7,436.4,1472.4,430.8z"/>
<g>
	<path class="st5" d="M1446.4,461.7c1.3-2.9,3.8-5.2,6.8-6.3c1.2-0.4,2.6-0.7,3.8-0.3c2.1,0.6,3.4,2.9,3.7,5.1
		c0.5,3.7-1.3,7.4-4,9.9c-2.7,2.6-6.2,4.1-9.7,5.3C1446.9,471.4,1444.8,465.3,1446.4,461.7z"/>
</g>
<path class="st19" d="M660.9,827.6c0,0-3,0-5.1,0.4c-2.3,0.5-3.7,1.4-3.7,1.7c0,0.7,1.8,2.6,1.8,2.6s-2.6-1.8-3.6-1.9c-1,0,0,0,0,0
	c-2.3,0.4-4.8,0.6-7.2,0.4c-5.5-0.4-8.6-3.5-10.3-5.5c-1,1.8-0.8,3-1.7,4.8c-1.1,2-2.2,4.1-2,6.4c0.2,2.4-1.2,6.9,0.4,9.1
	c1.6,2.2,11.6,5.3,13.3,5c2.6-1.2,9,1.5,9,1.5s12.2,4.2,16.8,4.2c4.6,0,10-0.8,14.3-2.3c0.9-0.3,4.2-2.6,4-4.6
	C687.9,838.7,660.9,827.6,660.9,827.6z"/>
<path class="st7" d="M654.2,832.3c0,0,3.3-2.7,10.5-2.9l1.3,0.6c0,0-7.4,0.9-10.9,3L654.2,832.3z"/>
<path class="st7" d="M657.3,833.7c0,0,3.2-2.6,10.3-2.9l1.3,0.6c0,0-7.2,0.8-10.6,3L657.3,833.7z"/>
<path class="st7" d="M660,834.9c0,0,3.2-2.5,10.1-2.8l1.2,0.6c0,0-7,0.8-10.4,2.9L660,834.9z"/>
<path class="st3" d="M642.7,847.7c1,0.1,2.9-0.6,9.1,1.7c6.2,2.3,10.6,4.2,16.7,4c14.6-0.5,18.3-5.3,18.3-5.3c0.8,3.9-3.1,5.8-4,6.1
	c-4.3,1.5-9.7,2.3-14.3,2.3c-4.6,0-16.8-4.2-16.8-4.2s-6.3-2.7-9-1.5c-1.7,0.3-11.7-2.7-13.3-5c0,0-1-0.4-0.7-4.8
	C631.4,845,642.7,847.7,642.7,847.7z"/>
<path class="st19" d="M512,856c-3.2-5.8-5.2-17.7-5.2-17.7s-0.7,0.8-0.8,1.4c-0.1,0.7,0,2,0.1,2.6c0,0.1,0.1,0.3,0.1,0.4
	c0-0.1,0-0.2-0.1-0.4c-0.2-0.8-0.7-1.7-1.2-2.5c-5.9-0.7-11.9-0.3-14.7,0.5l0.3,3.7c0,0-0.8-2.8-1.5-3.7c-0.7-0.8-1.3-1.1-1.9-1.6
	c-3-2.7-3-6.6-3-6.6s-2.7,2.7-2.8,8.3c1.2,9.8-3.6,18.4,3.2,25.6c4.5,4.8,8.2,6.5,15.5,6.1c8.8-0.5,10.4-2.5,11.5-4.4
	S513.8,859.9,512,856z"/>
<path class="st7" d="M490.5,844.2c0,0,9.4-2.2,15.8-0.3l0.4,1.1c0,0-7.6-1.7-16,0.4L490.5,844.2z"/>
<path class="st7" d="M491.2,846.9c0,0,9.4-2.2,15.8-0.3l0.4,1.1c0,0-7.6-1.7-16,0.4L491.2,846.9z"/>
<path class="st7" d="M491.9,849.6c0,0,9.4-2.2,15.8-0.3l0.4,1.1c0,0-7.6-1.7-16,0.4L491.9,849.6z"/>
<path class="st7" d="M480.9,854.7c0,0-0.4,5.9,8.3,11.9c8.7,6,23.5,1.4,23.8-5.7c0,0,0.3,6.5-3,9.1c-3.1,2.4-11.5,3.4-17.7,1.8
	C486,870.2,480,863.6,480.9,854.7z"/>
<path class="st3" d="M260.8,849.8l0.2-1.8l-0.7,0c0,0,0.9-1.3,0.1-2.6l1,1.8l0.8,0.1l-0.9,2.1C261.4,849.4,260.8,849.7,260.8,849.8z
	"/>
<path class="st3" d="M267.3,846.3l-0.9-0.9l-0.8-0.1l0.8-1.1l-1.2,0l0.3-1.8l0.4,1.1c0,0,1.4,0.2,1.3,0.3s-0.5,0.7-0.5,0.7l1.1,1.4
	L267.3,846.3z"/>
<path d="M271.3,841.8c0,0-0.1,0.8-0.1,1.5c0,0.5,0.2,1.1,0.2,1.3c0.1,0.2,0.5,0.7,0.8,1.1c0.2,0.3,0.3,0.6,0,0.7
	c-0.3,0.4-0.4,0.4-0.3,0.7c0,0.3-0.1,0.3-0.2,0c0-0.3,0.1-0.6,0.4-0.9c0.2-0.2,0.1-0.4-0.2-0.7c-0.2-0.2-0.3-0.4-0.6-0.9
	C270.7,843.3,271.3,841.8,271.3,841.8z"/>
<path d="M270.3,842.1c0,0,0.3,0.5,0.4,1.1c0.1,0.4,0.1,0.8,0.1,1c0,0.2-0.2,0.6-0.3,0.9c-0.1,0.3-0.1,0.5,0.2,0.5
	c0.3,0.2,0.3,0.2,0.4,0.4c0,0.2,0.2,0.2,0.1,0c0-0.2-0.2-0.4-0.5-0.5c-0.2-0.1-0.1-0.3,0-0.6c0.1-0.2,0.2-0.4,0.2-0.8
	C271.1,843.1,270.3,842.1,270.3,842.1z"/>
<path d="M264.9,843.5c0,0-0.1,0.8-0.1,1.5c0,0.5,0.2,1.1,0.2,1.3c0.1,0.2,0.5,0.7,0.8,1.1c0.2,0.3,0.3,0.6,0,0.7
	c-0.3,0.4-0.4,0.4-0.3,0.7c0,0.3-0.1,0.3-0.2,0c0-0.3,0.1-0.6,0.4-0.9c0.2-0.2,0.1-0.4-0.2-0.7c-0.2-0.2-0.3-0.4-0.6-0.9
	C264.3,845,264.9,843.5,264.9,843.5z"/>
<path d="M263.9,843.8c0,0,0.3,0.5,0.4,1.1c0.1,0.4,0.1,0.8,0.1,1c0,0.2-0.2,0.6-0.3,0.9c-0.1,0.3-0.1,0.5,0.2,0.5
	c0.3,0.2,0.3,0.2,0.4,0.4c0,0.2,0.2,0.2,0.1,0s-0.2-0.4-0.5-0.5c-0.2-0.1-0.1-0.3,0-0.6c0.1-0.2,0.2-0.4,0.2-0.8
	C264.7,844.8,263.9,843.8,263.9,843.8z"/>
<path d="M262.8,843.4c0,0-0.1,0.8-0.1,1.5c0,0.5,0.2,1.1,0.2,1.3c0.1,0.2,0.5,0.7,0.8,1.1c0.2,0.3,0.3,0.6,0,0.7
	c-0.3,0.4-0.4,0.4-0.3,0.7c0,0.3-0.1,0.3-0.2,0c0-0.3,0.1-0.6,0.4-0.9c0.2-0.2,0.1-0.4-0.2-0.7c-0.2-0.2-0.3-0.4-0.6-0.9
	C262.2,845,262.8,843.4,262.8,843.4z"/>
<path d="M261.8,843.8c0,0,0.3,0.5,0.4,1.1c0.1,0.4,0.1,0.8,0.1,1c0,0.2-0.2,0.6-0.3,0.9c-0.1,0.3-0.1,0.5,0.2,0.5
	c0.3,0.2,0.3,0.2,0.4,0.4c0,0.2,0.2,0.2,0.1,0s-0.2-0.4-0.5-0.5c-0.2-0.1-0.1-0.3,0-0.6c0.1-0.2,0.2-0.4,0.2-0.8
	C262.6,844.7,261.8,843.8,261.8,843.8z"/>
<path d="M259.6,847.2c0,0-0.1,0.8-0.1,1.5c0,0.5,0.2,1.1,0.2,1.3c0.1,0.2,0.5,0.7,0.8,1.1c0.2,0.3,0.3,0.6,0,0.7
	c-0.3,0.4-0.4,0.4-0.3,0.7s-0.1,0.3-0.2,0c0-0.3,0.1-0.6,0.4-0.9c0.2-0.2,0.1-0.4-0.2-0.7c-0.2-0.2-0.3-0.4-0.6-0.9
	C259,848.8,259.6,847.2,259.6,847.2z"/>
<path d="M258.6,847.6c0,0,0.3,0.5,0.4,1.1c0.1,0.4,0.1,0.8,0.1,1c0,0.2-0.2,0.6-0.3,0.9c-0.1,0.3-0.1,0.5,0.2,0.5
	c0.3,0.2,0.3,0.2,0.4,0.4c0,0.2,0.2,0.2,0.1,0c0-0.2-0.2-0.4-0.5-0.5c-0.2-0.1-0.1-0.3,0-0.6c0.1-0.2,0.2-0.4,0.2-0.8
	C259.4,848.6,258.6,847.6,258.6,847.6z"/>
<path d="M268,841c0,0-0.1,0.8-0.1,1.5c0,0.5,0.2,1.1,0.2,1.3c0.1,0.2,0.5,0.7,0.8,1.1c0.2,0.3,0.3,0.6,0,0.7
	c-0.3,0.4-0.4,0.4-0.3,0.7s-0.1,0.3-0.2,0c0-0.3,0.1-0.6,0.4-0.9c0.2-0.2,0.1-0.4-0.2-0.7c-0.2-0.2-0.3-0.4-0.6-0.9
	C267.4,842.6,268,841,268,841z"/>
<path d="M267,841.4c0,0,0.3,0.5,0.4,1.1c0.1,0.4,0.1,0.8,0.1,1c0,0.2-0.2,0.6-0.3,0.9c-0.1,0.3-0.1,0.5,0.2,0.5
	c0.3,0.2,0.3,0.2,0.4,0.4c0,0.2,0.2,0.2,0.1,0s-0.2-0.4-0.5-0.5c-0.2-0.1-0.1-0.3,0-0.6c0.1-0.2,0.2-0.4,0.2-0.8
	C267.7,842.4,267,841.4,267,841.4z"/>
<path class="st7" d="M212.2,698.3c0,0-13.5,14.5-47.9,14.1c0,0,15.5,17.2,18.7,21.9c0,0,15.1,6.1,38.5-12.5
	C221.5,721.9,213.5,707.1,212.2,698.3z"/>
<path class="st7" d="M113,718.1c0,0-21.6,6.8-48.9-4.6c0,0-1.1,11.3-3,23.3c0,0,7.2,11.1,48.9,6C110,742.8,111.1,732.3,113,718.1z"
	/>
<path class="st20" d="M130.5,576.8c1.1,0,2-0.8,2-1.9c0-1.1-0.8-2-1.9-2c-1.1,0-2,0.8-2,1.9C128.6,575.9,129.5,576.8,130.5,576.8z"
	/>
<path class="st20" d="M118.2,595.1c1.1,0,2-0.8,2-1.9c0-1.1-0.8-2-1.9-2c-1.1,0-2,0.8-2,1.9C116.3,594.1,117.1,595,118.2,595.1z"/>
<path class="st20" d="M108.6,615.7c1.1,0,2-0.8,2-1.9c0-1.1-0.8-2-1.9-2c-1.1,0-2,0.8-2,1.9C106.7,614.7,107.6,615.6,108.6,615.7z"
	/>
<g>
	<path class="st8" d="M212.2,550l-0.4,0c0,0-0.4-1-0.6-1.7c-0.1-0.7-0.2-1.9-0.2-1.9l0.4-0.1c0,0,0.5,1.3,0.6,1.9
		S212.2,550,212.2,550z"/>
</g>
<path class="st12" d="M510.1,529c0.9,0,1.7-0.8,1.7-1.9c0-1.1-0.7-2-1.5-2c-0.9,0-1.7,0.8-1.7,1.9C508.5,528.1,509.2,529,510.1,529z
	"/>
<path class="st12" d="M510.7,552.3c0.9,0,1.7-0.8,1.7-1.9c0-1.1-0.7-2-1.5-2c-0.9,0-1.7,0.8-1.7,1.9
	C509.1,551.4,509.8,552.3,510.7,552.3z"/>
<path class="st12" d="M515.8,576.7c0.9,0,1.7-0.8,1.7-1.9c0-1.1-0.7-2-1.5-2c-0.9,0-1.7,0.8-1.7,1.9
	C514.2,575.8,514.9,576.7,515.8,576.7z"/>
<path class="st12" d="M519.8,600c0.9,0,1.7-0.8,1.7-1.9c0-1.1-0.7-2-1.5-2c-0.9,0-1.7,0.8-1.7,1.9C518.2,599,518.9,599.9,519.8,600z
	"/>
<g>
	<path class="st21" d="M1358.3,387.1l-65.5-69.8c0,0-138.6,1.4-158.2,1.4s-41.7-5.6-41.7-32.8s-0.1-97.3,3.2-113.7
		c0,0-0.7-21.2,38-22.1c31.5-0.7,226.1,3.3,239.2,3.7c13.1,0.5,24.8,4.7,28.1,24.8s0,104.9-2.8,113.3c-2.8,8.4-4,16.8-15.9,22
		c-6.4,2.8-43.9,2.9-43.9,2.9L1358.3,387.1z"/>
</g>
<path class="st3" d="M812.2,568.4l2.5,0.2c0,0-0.9-2.6-5.5-2.6c-6.8,0-9.9,16.7-1.5,17.8c3,0.6,5.7-2.3,6.1-3.9l-2.7-0.2
	c0,0-1.9,2.7-4,0.9C805.3,579.3,805.2,567.2,812.2,568.4z"/>
<path class="st3" d="M848.2,571.2l2.5,0.1c0,0-1-2.5-5.6-2.4c-6.8,0.2-9.5,16.9-1.1,17.9c3,0.6,5.6-2.5,6-4.1l-2.6-0.1
	c0,0-1.9,2.7-4,1C841.6,582.2,841.3,570.1,848.2,571.2z"/>
<path class="st3" d="M881.6,572.2l2.5,0c0,0-1.1-2.5-5.8-2c-6.7,0.8-7.9,17.7,0.5,17.9c3,0.3,5.3-2.9,5.6-4.4l-2.6,0
	c0,0-1.6,2.9-3.9,1.4C876,583.8,874.6,571.8,881.6,572.2z"/>
<path class="st3" d="M804.7,611.5c0,0,5.6-2.6,3.4-28.5l-1.5-0.4c0,0,3,24.4-3.4,28.8"/>
<path class="st3" d="M877.6,617.8c0,0-5.6-5.3-0.3-30.7l1.5-0.2c0,0-5.6,23.9,0.2,31"/>
<path class="st3" d="M843.6,625.2c0,0,3.1-6.2,2.2-39.2l-1.5-0.4c0,0,1.2,29.6-2.2,39.5"/>
<g>
	<polyline class="st22" points="801.1,610.9 795.9,667.6 810.9,670.6 817.6,612.4 801.1,610.9 	"/>
	<path class="st23" d="M817.9,612.1l-6.8,59c0,0-7.9-1.4-14.8-3.2c-6.9-1.7-10.9-3.9-10.9-3.9l4-54.5L817.9,612.1z"/>
	<path class="st24" d="M806.5,634.2c0,0,1.6-7,3.8-9.4c2.3-2.4,6.4-2.7,6.4-2.7l-3.3,28.5l-6.1-2.2l-4.8-1.5L806.5,634.2z"/>
	<path class="st25" d="M788.1,627.3c0,0,5.2-0.9,8,0c2.8,1,3.4,3,5.6,2.6c2.2-0.4,3.8,3,3.8,3l-1.5,12.4c0,0,0,0.8,1.8,0.9
		c1.8,0.2,3.3-1.3,3.9,0c0.6,1.2,1.8,2.4,2.4,2.4c0.6,0,1.5,0.5,1.5,0.5l-0.5,4.3c0,0-3.5,0.5-5.3-0.5c-1.7-0.9-4.1-2.2-5.2-1.9
		c-1.1,0.3-4.1,0.7-5.9-0.6c-1.8-1.3-4.7-2.1-6.6-2.1c-2,0-3.4-2.3-3.4-2.3L788.1,627.3z"/>
	<path class="st26" d="M792.9,630.7c0,0,3.3-0.7,5-0.7c1.8,0,7.3,1.1,8.7,3.2c1.4,2.1,3.1,1.7,2.1,6.6c-1,4.8-4.7,5.6-4.7,5.6
		s-1.7-1.8-3.1,0.2c0,0-2.3-2.2-4-1.3c-1.6,1-3.7-0.4-3.7-2.1c0-1.6-2.7-0.6-2.9-2.2c-0.1-1.6-0.2-2.7,0.3-3.9
		C791.2,634.9,789.7,631.2,792.9,630.7z"/>
	<polygon class="st27" points="815.4,614.8 813.4,632.7 805.6,631.7 807.4,614 	"/>
	<path class="st27" d="M794,665l0-1.2c0.3,0,0.6,0,0.7-0.2c0.2-0.1,0.3-0.3,0.3-0.5c0-0.2-0.1-0.5-0.3-0.7c-0.2-0.2-0.5-0.4-1-0.5
		c-0.4-0.1-0.8-0.1-1,0.1c-0.2,0.1-0.3,0.3-0.4,0.6c0,0.3,0.1,0.7,0.4,1l-0.2,0.9l-3.5-1.3l0.2-3l1.2,0.2l-0.2,2.2l1.2,0.4
		c-0.1-0.3-0.2-0.6-0.2-0.8c0-0.5,0.2-0.8,0.6-1.1c0.5-0.3,1.1-0.4,1.8-0.3c0.6,0.1,1.2,0.4,1.7,0.9c0.5,0.5,0.7,1,0.6,1.7
		c0,0.5-0.3,0.9-0.6,1.2C795.1,664.9,794.6,665,794,665z"/>
	<path class="st27" d="M789.4,657.6c0-0.6,0.3-1,0.9-1.3c0.6-0.3,1.5-0.3,2.8,0c1.3,0.2,2.2,0.6,2.7,1.1c0.5,0.5,0.7,1,0.7,1.6
		c-0.1,0.6-0.4,1-0.9,1.3c-0.6,0.3-1.5,0.3-2.8,0c-1.3-0.2-2.2-0.6-2.7-1.1C789.6,658.7,789.3,658.2,789.4,657.6z M790.5,657.8
		c0,0.2,0.1,0.4,0.4,0.6c0.3,0.2,0.9,0.4,2,0.6c1.1,0.2,1.8,0.3,2.1,0.2c0.3-0.1,0.5-0.2,0.5-0.5c0-0.2-0.1-0.4-0.4-0.6
		c-0.3-0.2-1-0.4-2-0.6c-1.1-0.2-1.7-0.2-2-0.2C790.6,657.4,790.5,657.6,790.5,657.8z"/>
	<path class="st27" d="M789.7,653.1c0-0.6,0.3-1,0.9-1.3c0.6-0.3,1.5-0.3,2.8-0.1c1.3,0.2,2.3,0.6,2.8,1c0.5,0.5,0.7,1,0.7,1.6
		c-0.1,0.6-0.4,1-0.9,1.3c-0.6,0.3-1.5,0.3-2.9,0c-1.3-0.2-2.2-0.6-2.7-1C789.9,654.2,789.7,653.7,789.7,653.1z M790.8,653.3
		c0,0.2,0.1,0.4,0.4,0.6c0.3,0.2,0.9,0.4,2,0.6c1.1,0.2,1.8,0.2,2.1,0.2c0.3-0.1,0.5-0.2,0.5-0.5c0-0.2-0.1-0.5-0.4-0.6
		c-0.3-0.2-1-0.4-2-0.6c-1.1-0.2-1.8-0.2-2.1-0.1C791,652.9,790.9,653,790.8,653.3z"/>
	<polygon class="st27" points="791.2,641.3 791.1,643.4 789.2,643.1 789.3,641 	"/>
	<polygon class="st27" points="791.4,638.7 791.3,640.7 789.4,640.5 789.5,638.4 	"/>
	<polygon class="st27" points="791.7,636 791.5,638.1 789.6,637.8 789.7,635.7 	"/>
	<polygon class="st27" points="791.9,633.3 791.7,635.4 789.8,635.1 790,633 	"/>
	<polygon class="st27" points="792.1,630.6 791.9,632.7 790,632.4 790.2,630.3 	"/>
	<polygon class="st27" points="792.3,627.8 792.1,630 790.2,629.7 790.4,627.6 	"/>
	<polygon class="st27" points="792.5,625.1 792.4,627.2 790.4,627 790.6,624.8 	"/>
	<polygon class="st27" points="792.8,622.3 792.6,624.5 790.6,624.2 790.8,622.1 	"/>
	<polygon class="st27" points="793,619.5 792.8,621.7 790.8,621.5 791,619.3 	"/>
	<polygon class="st27" points="793.2,616.7 793,618.9 791.1,618.7 791.2,616.4 	"/>
	<polygon class="st27" points="793.4,613.8 793.3,616 791.3,615.8 791.5,613.6 	"/>
	<path class="st23" d="M811.4,625l0-0.9c0.2,0,0.4-0.1,0.6-0.2c0.1-0.1,0.2-0.3,0.2-0.4c0-0.2,0-0.4-0.2-0.5
		c-0.2-0.2-0.4-0.2-0.8-0.3c-0.3,0-0.6,0-0.8,0.1c-0.2,0.1-0.3,0.3-0.3,0.5c0,0.3,0.1,0.5,0.3,0.7l-0.2,0.7l-2.7-0.8l0.2-2.4
		l0.9,0.1l-0.2,1.7l0.9,0.2c-0.1-0.2-0.1-0.4-0.1-0.6c0-0.4,0.2-0.7,0.5-0.9c0.4-0.3,0.9-0.4,1.4-0.3c0.5,0.1,0.9,0.2,1.2,0.6
		c0.4,0.3,0.5,0.7,0.5,1.3c0,0.4-0.2,0.8-0.5,1C812.3,624.9,811.9,625,811.4,625z"/>
	<path class="st23" d="M808,619.9c0-0.5,0.3-0.8,0.7-1.1c0.4-0.2,1.1-0.3,2.2-0.2c1,0.1,1.7,0.3,2.1,0.6c0.4,0.3,0.5,0.7,0.5,1.2
		c-0.1,0.5-0.3,0.8-0.7,1.1c-0.4,0.2-1.2,0.3-2.2,0.2c-1-0.1-1.7-0.3-2-0.7C808.1,620.7,807.9,620.3,808,619.9z M808.8,620
		c0,0.2,0.1,0.3,0.3,0.5c0.2,0.1,0.7,0.2,1.5,0.3c0.8,0.1,1.3,0.1,1.6,0c0.2-0.1,0.4-0.2,0.4-0.4c0-0.2-0.1-0.3-0.3-0.5
		c-0.2-0.1-0.7-0.2-1.5-0.3s-1.3-0.1-1.6,0C808.9,619.7,808.8,619.8,808.8,620z"/>
	<path class="st23" d="M808.3,616.7c0-0.5,0.3-0.8,0.7-1.1c0.4-0.2,1.2-0.3,2.2-0.2c1,0.1,1.7,0.3,2.1,0.6c0.4,0.3,0.5,0.7,0.5,1.2
		c-0.1,0.5-0.3,0.8-0.7,1.1c-0.4,0.2-1.2,0.3-2.2,0.2c-1-0.1-1.7-0.3-2.1-0.6C808.4,617.5,808.2,617.1,808.3,616.7z M809.1,616.8
		c0,0.2,0.1,0.3,0.3,0.5c0.2,0.1,0.7,0.2,1.5,0.3c0.8,0.1,1.3,0.1,1.6,0c0.2-0.1,0.4-0.2,0.4-0.4c0-0.2-0.1-0.3-0.3-0.5
		c-0.2-0.1-0.7-0.2-1.5-0.3c-0.8-0.1-1.3-0.1-1.6,0C809.3,616.4,809.2,616.6,809.1,616.8z"/>
	<path class="st23" d="M808.1,628.5c0.4,0.1,0.9,0.2,1.3,0.3c-0.1,0.8-0.2,1.7-0.3,2.5c-0.5,0-0.9,0-1.4,0c0,0,0,0,0,0
		c0.3-0.2,0.5-0.4,0.8-0.6c-0.3-0.2-0.6-0.5-1-0.7c0.4-0.2,0.7-0.4,1.1-0.6C808.5,629.1,808.3,628.8,808.1,628.5
		C808.1,628.5,808.1,628.5,808.1,628.5z"/>
	<path class="st23" d="M808.5,625c0.4,0.1,0.9,0.2,1.4,0.3c-0.1,0.9-0.2,1.7-0.3,2.5c-0.5,0-0.9,0-1.4,0c0,0,0,0,0,0
		c0.3-0.2,0.5-0.4,0.8-0.6c-0.3-0.3-0.6-0.5-1-0.7c0.4-0.2,0.7-0.4,1.1-0.6C808.9,625.5,808.7,625.2,808.5,625
		C808.5,625,808.5,625,808.5,625z"/>
	<path class="st23" d="M811,627c0.5,0.1,0.9,0.2,1.4,0.3c-0.1,0.9-0.2,1.7-0.3,2.5c-0.5,0-0.9,0-1.4,0c0,0,0,0,0,0
		c0.3-0.2,0.5-0.4,0.8-0.6c-0.3-0.3-0.6-0.5-1-0.8c0.4-0.2,0.7-0.4,1.1-0.6C811.4,627.6,811.2,627.3,811,627
		C811,627,811,627,811,627z"/>
	<polygon class="st27" points="811.4,653.1 809.7,667.9 808.6,667.7 810.2,652.9 	"/>
	<polygon class="st26" points="806.4,665.2 806.2,666.9 805.1,666.7 805.3,665 	"/>
	<polygon class="st26" points="807.8,663.2 807.6,664.9 806.5,664.7 806.7,663 	"/>
	<polygon class="st27" points="791,666.4 791,666.4 790.4,664.9 790.5,664.8 	"/>
	<polygon class="st27" points="792.1,666.7 792,666.7 791.4,665.1 791.5,665 	"/>
	<polygon class="st27" points="793.2,667 793.1,667.1 792.4,665.3 792.5,665.2 	"/>
	<polygon class="st27" points="796.5,612.5 796.4,612.6 795.5,610.1 795.6,610 	"/>
	<polygon class="st27" points="797.6,612.6 797.5,612.7 796.6,610.2 796.7,610.1 	"/>
	<polygon class="st27" points="798.7,612.7 798.7,612.8 797.7,610.3 797.8,610.2 	"/>
	<polygon class="st27" points="802.4,653.8 802.2,656 797.7,655.2 797.9,653.1 	"/>
	<polygon class="st27" points="809.6,655.1 809.3,657.3 804.7,656.5 805,654.3 	"/>
	<path class="st28" d="M800.9,621c0-0.1,0-0.1,0.1-0.1c0.2,0,0.4,0,0.6,0.1c0.4,0.1,0.7,0.6,0.6,1.1c0,0.2-0.1,0.3-0.3,0.2
		c0-0.1,0-0.2,0-0.3c0-0.2-0.1-0.3-0.2-0.3c-0.2-0.1-0.5,0-0.5,0.2c-0.1,0.2,0,0.5,0.2,0.6c0.6,0.3,1.1-0.1,1.1-0.8
		c0-0.5-0.3-0.8-0.6-0.9c-0.2-0.1-0.5-0.1-0.8-0.2c-0.1,0-0.2-0.1-0.2-0.2c0-0.1-0.1-0.2-0.1-0.3l-0.2,1.7
		C800.8,621.5,800.9,621.3,800.9,621z"/>
	<path class="st28" d="M796,620.8c-0.3-0.1-0.5-0.3-0.6-0.6c0-0.1,0-0.1,0.1-0.2c0.3-0.1,0.6-0.1,0.9,0.2c0.1,0.1,0.1,0.1,0.2,0.2
		l0.1-0.6c-0.3-0.1-0.7-0.2-1.1-0.1c-0.3,0.1-0.6,0.2-0.9,0.5c0.3,0.4,0.5,0.7,1,0.8c0.3,0.1,0.6,0.1,0.9,0.1l0-0.3
		C796.3,620.9,796.1,620.9,796,620.8z"/>
	<path class="st28" d="M797,614.8l-0.4,5c0.3,0.1,0.6,0.4,0.8,0.7c0.1,0.1,0.1,0.1,0.2,0.2c0.1,0.1,0.2,0.2,0.4,0.1
		c0.1,0,0.2,0,0.3-0.1c0-0.1,0-0.2,0-0.3c-0.1-0.5,0.2-1,0.7-1.2c0.5-0.2,1-0.2,1.4,0.2c0.2,0.1,0.3,0.4,0.4,0.6l0.4-4.9L797,614.8z
		"/>
	<path class="st28" d="M796.9,620.9C796.9,620.9,796.9,620.9,796.9,620.9c-0.1-0.2-0.2-0.3-0.4-0.5l0,0.4
		C796.6,620.9,796.7,620.9,796.9,620.9z"/>
	<path class="st28" d="M798.7,620.7c0.6,0,1.2-0.1,1.8-0.1c0,0,0,0,0,0c-0.2-0.7-0.9-0.9-1.4-0.7
		C798.9,619.9,798.6,620.3,798.7,620.7z"/>
	<path class="st28" d="M799.3,620.9c-0.2,0-0.4,0.1-0.6,0.1c0,0.4,0.5,0.5,0.8,0.4c0.1,0,0.1-0.1,0.2-0.1c0.1,0,0.1,0,0.2,0
		c0,0.1,0,0.1-0.1,0.2c-0.2,0.3-0.5,0.3-0.9,0.2c-0.2-0.1-0.4-0.3-0.5-0.5c0,0-0.1-0.1-0.1-0.1c-0.1,0-0.2,0-0.3,0.1
		c0.1,0.1,0.2,0.2,0.3,0.3c0.2,0.3,0.5,0.5,0.8,0.6c0.6,0.2,1.5-0.3,1.5-1.1c0-0.1,0-0.2-0.1-0.2
		C800.1,620.8,799.7,620.8,799.3,620.9z"/>
	<path class="st28" d="M800.2,622.2c-0.3,0.2-0.7,0.3-1.1,0.3c-0.7,0-1.2-0.3-1.7-0.8c-0.1-0.1-0.2-0.3-0.4-0.4c0,0-0.1-0.1-0.2-0.1
		c-0.2,0-0.3,0-0.5,0l-0.1,1.6l4.2,0.5l0.1-1.6C800.5,621.9,800.4,622.1,800.2,622.2z"/>
</g>
<g>
	
		<rect x="813.9" y="636.4" transform="matrix(3.576802e-02 -0.9994 0.9994 3.576802e-02 161.7724 1468.87)" class="st23" width="56.4" height="28.5"/>
	<path class="st24" d="M847.8,643.6c0,0,1.1-6.6,3.1-9c2-2.3,6-2.9,6-2.9l-1,26.8l-6.3-1.4l-5.1-0.9L847.8,643.6z"/>
	<path class="st25" d="M828.3,638.7c0,0,5.5-1.3,8.5-0.6c3,0.7,3.8,2.6,6,2c2.2-0.6,4,2.5,4,2.5l-0.7,12c0,0,0,0.8,1.9,0.7
		c1.9-0.1,3.3-1.6,4-0.5c0.7,1.1,2,2.1,2.6,2c0.6-0.1,1.6,0.3,1.6,0.3l-0.1,4.2c0,0-3.5,0.9-5.4,0.2c-1.8-0.7-4.4-1.7-5.5-1.2
		c-1.1,0.4-4.2,1.2-6.3,0.2c-2.1-1.1-5.2-1.5-7.3-1.3c-2.2,0.2-3.9-1.9-3.9-1.9L828.3,638.7z"/>
	<path class="st26" d="M833.6,641.5c0,0,3.4-0.9,5.3-1.1c1.9-0.1,7.5,0.5,9.1,2.3s3.3,1.3,2.6,6c-0.7,4.7-4.4,5.9-4.4,5.9
		s-1.9-1.5-3.2,0.5c0,0-2.6-1.9-4.3-0.8c-1.7,1.2-3.9,0-4.1-1.6s-3-0.3-3.2-1.8s-0.4-2.6,0.1-3.9C832,645.8,830.2,642.3,833.6,641.5
		z"/>
	
		<rect x="842.8" y="629.5" transform="matrix(3.576802e-02 -0.9994 0.9994 3.576802e-02 187.4997 1461.2224)" class="st27" width="16.3" height="7.8"/>
	<path class="st27" d="M836.6,675.8l-0.1-1.2c0.3,0,0.6-0.1,0.8-0.3c0.2-0.2,0.3-0.4,0.3-0.6c0-0.3-0.1-0.5-0.3-0.7
		c-0.2-0.2-0.6-0.3-1.1-0.3c-0.5,0-0.8,0.1-1.1,0.2c-0.2,0.2-0.4,0.4-0.4,0.7c0,0.3,0.2,0.7,0.5,1l-0.2,1l-4-0.8l0.1-3.2l1.4,0
		l-0.1,2.3l1.3,0.2c-0.2-0.3-0.2-0.6-0.2-0.8c0-0.5,0.2-0.9,0.6-1.3c0.5-0.4,1.2-0.6,2-0.6c0.7,0,1.3,0.2,1.9,0.6
		c0.6,0.4,0.8,0.9,0.8,1.6c0,0.6-0.2,1-0.6,1.4C837.9,675.6,837.3,675.8,836.6,675.8z"/>
	<path class="st27" d="M831.1,668.9c0-0.6,0.3-1.1,0.9-1.5c0.6-0.4,1.6-0.5,3.1-0.5c1.5,0.1,2.5,0.3,3.1,0.7
		c0.6,0.4,0.8,0.9,0.8,1.5c0,0.6-0.3,1.1-0.9,1.5c-0.6,0.4-1.6,0.5-3.1,0.5c-1.5-0.1-2.5-0.3-3-0.7
		C831.4,670,831.1,669.5,831.1,668.9z M832.3,668.9c0,0.2,0.1,0.4,0.5,0.6c0.3,0.2,1.1,0.3,2.2,0.3c1.2,0,1.9,0,2.3-0.1
		c0.3-0.1,0.5-0.3,0.5-0.6c0-0.2-0.1-0.4-0.5-0.6c-0.3-0.2-1.1-0.3-2.2-0.3c-1.2,0-1.9,0-2.3,0.1
		C832.5,668.5,832.3,668.7,832.3,668.9z"/>
	<path class="st27" d="M831.3,664.1c0-0.6,0.3-1.1,0.9-1.5c0.6-0.4,1.6-0.5,3.1-0.5c1.5,0.1,2.5,0.3,3.1,0.7
		c0.6,0.4,0.8,0.9,0.8,1.5c0,0.6-0.3,1.1-0.9,1.5c-0.6,0.4-1.6,0.5-3.1,0.5c-1.5-0.1-2.5-0.3-3-0.7
		C831.5,665.3,831.2,664.7,831.3,664.1z M832.5,664.2c0,0.2,0.1,0.4,0.5,0.6c0.3,0.2,1.1,0.3,2.2,0.3c1.2,0,1.9,0,2.3-0.1
		c0.3-0.1,0.5-0.3,0.5-0.6c0-0.2-0.1-0.4-0.5-0.6s-1.1-0.3-2.2-0.3c-1.2,0-1.9,0-2.3,0.1S832.5,663.9,832.5,664.2z"/>
	
		<rect x="830.2" y="652" transform="matrix(3.576802e-02 -0.9994 0.9994 3.576802e-02 148.8615 1460.4054)" class="st27" width="2.1" height="2.1"/>
	
		<rect x="830.3" y="649.4" transform="matrix(3.576802e-02 -0.9994 0.9994 3.576802e-02 151.5904 1457.9547)" class="st27" width="2.1" height="2.1"/>
	
		<rect x="830.4" y="646.7" transform="matrix(3.576802e-02 -0.9994 0.9994 3.576802e-02 154.3192 1455.5042)" class="st27" width="2.1" height="2.1"/>
	
		<rect x="830.5" y="644.1" transform="matrix(3.576802e-02 -0.9994 0.9994 3.576802e-02 157.048 1453.0535)" class="st27" width="2.1" height="2.1"/>
	
		<rect x="830.6" y="641.5" transform="matrix(3.576802e-02 -0.9994 0.9994 3.576802e-02 159.7769 1450.6029)" class="st27" width="2.1" height="2.1"/>
	
		<rect x="830.7" y="638.8" transform="matrix(3.576802e-02 -0.9994 0.9994 3.576802e-02 162.5057 1448.1523)" class="st27" width="2.1" height="2.1"/>
	
		<rect x="830.8" y="636.2" transform="matrix(3.576802e-02 -0.9994 0.9994 3.576802e-02 165.2345 1445.7017)" class="st27" width="2.1" height="2.1"/>
	
		<rect x="830.9" y="633.5" transform="matrix(3.576802e-02 -0.9994 0.9994 3.576802e-02 167.9633 1443.2511)" class="st27" width="2.1" height="2.1"/>
	
		<rect x="831" y="630.9" transform="matrix(3.576802e-02 -0.9994 0.9994 3.576802e-02 170.6922 1440.8004)" class="st27" width="2.1" height="2.1"/>
	
		<rect x="831.1" y="628.3" transform="matrix(3.576802e-02 -0.9994 0.9994 3.576802e-02 173.421 1438.3499)" class="st27" width="2.1" height="2.1"/>
	
		<rect x="831.1" y="625.6" transform="matrix(3.576802e-02 -0.9994 0.9994 3.576802e-02 176.1498 1435.8993)" class="st27" width="2.1" height="2.1"/>
	<path class="st23" d="M852.1,634.8L852,634c0.2,0,0.4-0.1,0.5-0.2c0.1-0.1,0.2-0.2,0.2-0.4c0-0.2-0.1-0.3-0.2-0.4s-0.4-0.2-0.8-0.2
		c-0.3,0-0.6,0-0.7,0.2c-0.2,0.1-0.2,0.3-0.3,0.5c0,0.2,0.1,0.5,0.4,0.7l-0.1,0.7l-2.7-0.5l0.1-2.2l0.9,0l-0.1,1.5l0.9,0.2
		c-0.1-0.2-0.2-0.4-0.1-0.6c0-0.3,0.2-0.6,0.4-0.8c0.4-0.3,0.8-0.4,1.4-0.4c0.5,0,0.9,0.2,1.3,0.4c0.4,0.3,0.6,0.6,0.5,1.1
		c0,0.4-0.1,0.7-0.4,0.9C852.9,634.6,852.5,634.8,852.1,634.8z"/>
	<path class="st23" d="M848.3,630.4c0-0.4,0.2-0.7,0.6-1c0.4-0.2,1.1-0.3,2.1-0.3c1,0,1.7,0.2,2.1,0.5c0.4,0.3,0.6,0.6,0.6,1
		c0,0.4-0.2,0.7-0.6,1c-0.4,0.2-1.1,0.3-2.1,0.3c-1,0-1.7-0.2-2.1-0.5C848.5,631.1,848.3,630.8,848.3,630.4z M849.1,630.4
		c0,0.2,0.1,0.3,0.3,0.4c0.2,0.1,0.7,0.2,1.5,0.2c0.8,0,1.3,0,1.5-0.1c0.2-0.1,0.3-0.2,0.3-0.4c0-0.2-0.1-0.3-0.3-0.4
		c-0.2-0.1-0.7-0.2-1.5-0.2c-0.8,0-1.3,0-1.5,0.1C849.2,630.1,849.1,630.2,849.1,630.4z"/>
	<path class="st23" d="M848.4,627.5c0-0.4,0.2-0.7,0.6-1c0.4-0.2,1.1-0.3,2.1-0.3c1,0,1.7,0.2,2.1,0.5c0.4,0.3,0.6,0.6,0.6,1
		c0,0.4-0.2,0.7-0.6,1c-0.4,0.2-1.1,0.3-2.1,0.3c-1,0-1.7-0.2-2.1-0.5C848.6,628.2,848.4,627.9,848.4,627.5z M849.2,627.5
		c0,0.2,0.1,0.3,0.3,0.4c0.2,0.1,0.7,0.2,1.5,0.2c0.8,0,1.3,0,1.5-0.1c0.2-0.1,0.3-0.2,0.3-0.4c0-0.2-0.1-0.3-0.3-0.4
		c-0.2-0.1-0.7-0.2-1.5-0.2c-0.8,0-1.3,0-1.5,0.1C849.4,627.2,849.2,627.4,849.2,627.5z"/>
	<path class="st23" d="M849,638.3c0.4,0,0.9,0.1,1.4,0.1c0,0.8-0.1,1.6-0.1,2.4c-0.5,0-0.9,0-1.4,0.1c0,0,0,0,0,0
		c0.2-0.2,0.5-0.4,0.7-0.7c-0.3-0.2-0.7-0.4-1-0.6c0.3-0.2,0.7-0.4,1-0.6C849.5,638.7,849.3,638.5,849,638.3
		C849,638.3,849,638.3,849,638.3z"/>
	<path class="st23" d="M849.2,635c0.4,0,0.9,0.1,1.4,0.1c0,0.8-0.1,1.6-0.1,2.4c-0.5,0-0.9,0-1.4,0.1c0,0,0,0,0,0
		c0.2-0.2,0.5-0.4,0.7-0.7c-0.3-0.2-0.7-0.4-1-0.6c0.3-0.2,0.7-0.4,1-0.6C849.6,635.4,849.4,635.2,849.2,635
		C849.2,635,849.2,635,849.2,635z"/>
	<path class="st23" d="M851.8,636.7c0.4,0,0.9,0.1,1.4,0.1c0,0.8-0.1,1.6-0.1,2.4c-0.5,0-0.9,0-1.4,0.1c0,0,0,0,0,0
		c0.2-0.2,0.5-0.4,0.7-0.7c-0.3-0.2-0.7-0.4-1-0.6c0.3-0.2,0.7-0.4,1-0.6C852.2,637.1,852,636.9,851.8,636.7
		C851.8,636.7,851.8,636.7,851.8,636.7z"/>
	
		<rect x="845.8" y="668.2" transform="matrix(3.576802e-02 -0.9994 0.9994 3.576802e-02 154.424 1497.5713)" class="st27" width="15" height="1.2"/>
	
		<rect x="848.4" y="674.3" transform="matrix(3.576802e-02 -0.9994 0.9994 3.576802e-02 144.4392 1499.5736)" class="st26" width="1.8" height="1.2"/>
	
		<rect x="849.8" y="672.1" transform="matrix(3.576802e-02 -0.9994 0.9994 3.576802e-02 147.9591 1498.7297)" class="st26" width="1.8" height="1.2"/>
	
		<rect x="833.2" y="676.2" transform="matrix(0.8926 -0.4508 0.4508 0.8926 -215.8987 448.3203)" class="st27" width="0.1" height="2.5"/>
	
		<rect x="834.3" y="676.2" transform="matrix(0.8926 -0.4508 0.4508 0.8926 -215.7947 448.8318)" class="st27" width="0.1" height="2.5"/>
	
		<rect x="835.5" y="676.2" transform="matrix(0.8926 -0.4508 0.4508 0.8926 -215.6913 449.3467)" class="st27" width="0.1" height="2.5"/>
	
		<rect x="835.7" y="622" transform="matrix(0.8926 -0.4508 0.4508 0.8926 -191.2217 443.6789)" class="st27" width="0.1" height="2.5"/>
	
		<rect x="836.9" y="622.1" transform="matrix(0.8926 -0.4508 0.4508 0.8926 -191.1183 444.1938)" class="st27" width="0.1" height="2.5"/>
	
		<rect x="838" y="622.1" transform="matrix(0.8926 -0.4508 0.4508 0.8926 -191.0127 444.6953)" class="st27" width="0.1" height="2.5"/>
	
		<rect x="841.4" y="661.8" transform="matrix(3.576802e-02 -0.9994 0.9994 3.576802e-02 148.629 1482.4232)" class="st27" width="2.2" height="4.8"/>
	
		<rect x="848.9" y="662.1" transform="matrix(3.576802e-02 -0.9994 0.9994 3.576802e-02 155.5919 1490.1765)" class="st27" width="2.2" height="4.8"/>
	<path class="st28" d="M841.3,631.8c0-0.1,0-0.1,0.1-0.1c0.2,0,0.4,0,0.7,0.1c0.4,0.1,0.7,0.5,0.7,0.9c0,0.2-0.1,0.3-0.3,0.2
		c0-0.1,0-0.2,0-0.2c0-0.1-0.1-0.3-0.2-0.3c-0.2-0.1-0.5,0-0.5,0.2c-0.1,0.2,0,0.5,0.2,0.6c0.6,0.2,1.1-0.1,1.1-0.8
		c0-0.4-0.3-0.7-0.7-0.8c-0.3-0.1-0.5-0.1-0.8-0.1c-0.1,0-0.2,0-0.2-0.2c0-0.1-0.1-0.2-0.1-0.3l-0.1,1.6
		C841.2,632.3,841.3,632.1,841.3,631.8z"/>
	<path class="st28" d="M836.3,632c-0.3-0.1-0.5-0.3-0.7-0.5c0-0.1,0-0.1,0.1-0.2c0.3-0.1,0.6-0.1,0.9,0.1c0.1,0.1,0.1,0.1,0.2,0.2
		l0-0.6c-0.3-0.1-0.7-0.1-1.1,0c-0.4,0.1-0.6,0.3-0.9,0.6c0.3,0.3,0.6,0.6,1,0.7c0.3,0.1,0.6,0.1,0.9,0.1l0-0.3
		C836.6,632,836.4,632,836.3,632z"/>
	<path class="st28" d="M837,626.4l-0.2,4.7c0.3,0.1,0.6,0.3,0.9,0.6c0.1,0.1,0.1,0.1,0.2,0.2c0.1,0.1,0.2,0.1,0.4,0.1
		c0.1,0,0.2,0,0.3-0.1c0-0.1,0-0.2,0-0.2c-0.1-0.4,0.2-0.9,0.7-1.1c0.5-0.2,1-0.2,1.4,0.1c0.2,0.1,0.4,0.3,0.5,0.5l0.2-4.4
		L837,626.4z"/>
	<path class="st28" d="M837.2,632C837.2,632,837.2,632,837.2,632c-0.1-0.2-0.3-0.3-0.4-0.4l0,0.4C836.9,632,837,632,837.2,632z"/>
	<path class="st28" d="M839,631.7c0.6-0.1,1.2-0.1,1.9-0.2c0,0,0,0,0,0c-0.3-0.7-1-0.8-1.4-0.6C839.2,631,839,631.4,839,631.7z"/>
	<path class="st28" d="M839.7,631.8c-0.2,0-0.4,0.1-0.6,0.1c0.1,0.3,0.6,0.5,0.8,0.3c0.1,0,0.1-0.1,0.2-0.1c0.1,0,0.1,0,0.2,0
		c0,0,0,0.1-0.1,0.1c-0.2,0.2-0.5,0.3-0.9,0.3c-0.3-0.1-0.4-0.2-0.6-0.4c0,0-0.1-0.1-0.1-0.1c-0.1,0-0.2,0-0.3,0.1
		c0.1,0.1,0.2,0.2,0.4,0.3c0.3,0.2,0.5,0.4,0.9,0.5c0.7,0.2,1.5-0.3,1.5-1.1c0-0.1,0-0.2-0.1-0.1
		C840.5,631.8,840.1,631.8,839.7,631.8z"/>
	<path class="st28" d="M840.7,633c-0.3,0.2-0.7,0.3-1.1,0.3c-0.7,0-1.3-0.2-1.8-0.7c-0.1-0.1-0.3-0.2-0.4-0.3
		c-0.1,0-0.1-0.1-0.2-0.1c-0.2,0-0.3,0-0.5,0.1l-0.1,1.5l4.3,0.2l0.1-1.5C841,632.7,840.8,632.9,840.7,633z"/>
</g>
<g>
	<path class="st23" d="M894.8,615.9l2.5,45.5c0,0,0.3,6.2,0.3,7.8c0.1,2.3-0.3,3.1-0.3,3.1s-0.4,0.2-1.2,0.3
		c-0.8,0.1-1.7,0.2-1.7,0.2l-16.1,2.1c0,0-0.9,0.1-1.1,0.1c-0.2,0-2.1,0.2-3.4,0.2c-1.3,0.1-2.6,0.1-2.6,0.1s0-0.7,0-3.1
		c-0.1-2.3-0.2-4.8-0.2-4.8l-0.7-7.6l-4.1-42.1L894.8,615.9z"/>
	<path class="st24" d="M887.8,638.8c0,0,0.3-7,2.1-9.7c1.7-2.7,5.5-3.7,5.5-3.7l1.5,27.2l-5.9-0.6l-4.8-0.2L887.8,638.8z"/>
	<path class="st25" d="M868.1,636.1c0,0,5.3-2.1,8.3-1.7c3,0.4,4,2.2,6.1,1.4c2.1-0.9,4.1,2.1,4.1,2.1l0.6,12.2c0,0,0.1,0.7,1.8,0.4
		c1.7-0.3,2.9-2,3.6-1c0.7,1,2,1.8,2.6,1.7c0.6-0.2,1.4,0.1,1.4,0.1l0.2,4.1c0,0-3.1,1.4-4.9,0.9c-1.7-0.4-4.2-1-5.2-0.4
		c-1,0.6-3.8,1.8-5.8,1.1c-2.1-0.8-5.1-0.8-7.1-0.2c-2,0.5-4-1.4-4-1.4L868.1,636.1z"/>
	<path class="st26" d="M873.7,638.4c0,0,3.2-1.4,5-1.8c1.8-0.4,7.3-0.4,9,1.2c1.6,1.7,3.2,1,3,5.8c-0.2,4.7-3.5,6.5-3.5,6.5
		s-1.9-1.3-2.9,0.9c0,0-2.6-1.6-4.1-0.2c-1.5,1.4-3.8,0.5-4.1-1.1c-0.3-1.6-2.9,0.1-3.3-1.4c-0.4-1.5-0.7-2.7-0.4-4
		C872.7,643,870.5,639.7,873.7,638.4z"/>
	<polygon class="st27" points="892.9,618.8 893.9,636 886.5,636.7 885.3,619.3 	"/>
	<path class="st27" d="M880.7,672l-0.2-1.1c0.3-0.1,0.5-0.2,0.7-0.4c0.2-0.2,0.2-0.4,0.2-0.6c0-0.2-0.2-0.4-0.4-0.6
		c-0.2-0.1-0.6-0.2-1.1-0.1c-0.5,0.1-0.8,0.2-1,0.4c-0.2,0.2-0.3,0.4-0.3,0.7c0,0.3,0.2,0.6,0.6,0.8l-0.1,1l-3.8-0.1l-0.3-3.1
		l1.3-0.2l0.2,2.2l1.2,0c-0.2-0.2-0.3-0.5-0.3-0.8c0-0.5,0.1-0.9,0.4-1.3c0.4-0.5,1-0.8,1.8-0.9c0.6-0.1,1.2,0,1.8,0.3
		c0.6,0.3,0.9,0.8,0.9,1.4c0,0.5-0.1,1-0.4,1.4C881.8,671.5,881.4,671.8,880.7,672z"/>
	<path class="st27" d="M874.8,666.2c-0.1-0.6,0.2-1.1,0.7-1.6c0.5-0.4,1.5-0.7,2.9-0.9c1.4-0.2,2.4-0.1,2.9,0.2
		c0.6,0.3,0.9,0.7,0.9,1.3c0,0.6-0.2,1.1-0.7,1.5s-1.5,0.7-2.8,0.9c-1.4,0.2-2.3,0.1-2.9-0.2C875.1,667.2,874.8,666.8,874.8,666.2z
		 M875.9,666c0,0.2,0.2,0.4,0.5,0.5c0.3,0.1,1,0.1,2.1-0.1c1.1-0.1,1.8-0.3,2.1-0.5c0.3-0.2,0.4-0.4,0.4-0.6c0-0.2-0.2-0.4-0.5-0.5
		c-0.3-0.1-1-0.1-2.1,0.1c-1.1,0.1-1.8,0.3-2.1,0.5C876,665.6,875.9,665.8,875.9,666z"/>
	<path class="st27" d="M874.3,661.6c-0.1-0.6,0.2-1.1,0.7-1.6c0.5-0.4,1.5-0.7,2.9-0.9c1.4-0.2,2.4-0.1,3,0.2
		c0.6,0.3,0.9,0.8,0.9,1.4c0,0.6-0.2,1.1-0.7,1.6c-0.5,0.4-1.5,0.7-2.9,0.9c-1.4,0.2-2.4,0.1-2.9-0.2
		C874.7,662.6,874.4,662.2,874.3,661.6z M875.5,661.4c0,0.2,0.2,0.4,0.5,0.5c0.3,0.1,1,0.1,2.2,0c1.1-0.1,1.8-0.3,2.1-0.5
		c0.3-0.2,0.4-0.4,0.4-0.6c0-0.2-0.2-0.4-0.5-0.5c-0.3-0.1-1-0.1-2.1,0c-1.1,0.1-1.8,0.3-2.1,0.5C875.6,661,875.5,661.2,875.5,661.4
		z"/>
	<polygon class="st27" points="873.8,649.4 874,651.5 872,651.7 871.8,649.6 	"/>
	<polygon class="st27" points="873.6,646.7 873.8,648.8 871.8,649.1 871.6,646.9 	"/>
	<polygon class="st27" points="873.3,644 873.5,646.1 871.5,646.3 871.3,644.2 	"/>
	
		<rect x="871.1" y="641.4" transform="matrix(0.996 -8.957964e-02 8.957964e-02 0.996 -54.0427 80.7116)" class="st27" width="2.1" height="2.2"/>
	
		<rect x="870.9" y="638.6" transform="matrix(0.996 -8.957964e-02 8.957964e-02 0.996 -53.7964 80.6778)" class="st27" width="2.1" height="2.2"/>
	
		<rect x="870.6" y="635.8" transform="matrix(0.996 -8.957964e-02 8.957964e-02 0.996 -53.548 80.6438)" class="st27" width="2.1" height="2.2"/>
	<polygon class="st27" points="872.3,632.9 872.5,635.1 870.5,635.3 870.3,633.1 	"/>
	<polygon class="st27" points="872.1,630.1 872.3,632.3 870.2,632.5 870,630.2 	"/>
	<polygon class="st27" points="871.8,627.2 872,629.4 869.9,629.6 869.7,627.3 	"/>
	<polygon class="st27" points="871.6,624.3 871.8,626.6 869.7,626.7 869.5,624.5 	"/>
	<polygon class="st27" points="871.3,621.4 871.5,623.7 869.4,623.8 869.2,621.5 	"/>
	<path class="st23" d="M890.9,629.1l-0.2-0.9c0.2,0,0.4-0.1,0.5-0.3c0.1-0.1,0.2-0.3,0.2-0.4c0-0.2-0.1-0.3-0.3-0.4
		c-0.2-0.1-0.4-0.2-0.8-0.1c-0.3,0-0.5,0.1-0.7,0.2c-0.1,0.1-0.2,0.3-0.2,0.5c0,0.3,0.2,0.5,0.4,0.6l-0.1,0.7l-2.7-0.2l-0.2-2.3
		l0.9-0.1l0.1,1.6l0.9,0.1c-0.1-0.2-0.2-0.4-0.2-0.6c0-0.4,0.1-0.7,0.3-0.9c0.3-0.3,0.7-0.5,1.3-0.6c0.4,0,0.9,0.1,1.2,0.3
		c0.4,0.2,0.6,0.6,0.6,1.1c0,0.4-0.1,0.7-0.3,1C891.6,628.8,891.3,629,890.9,629.1z"/>
	<path class="st23" d="M886.8,624.9c0-0.4,0.1-0.8,0.5-1.1c0.4-0.3,1-0.5,2-0.6c1-0.1,1.6,0,2,0.3c0.4,0.2,0.6,0.6,0.6,1
		c0,0.4-0.1,0.8-0.5,1.1c-0.4,0.3-1,0.5-2,0.6c-0.9,0.1-1.6,0-2-0.3C887,625.6,886.8,625.3,886.8,624.9z M887.6,624.8
		c0,0.2,0.1,0.3,0.3,0.4c0.2,0.1,0.7,0.1,1.5,0c0.8-0.1,1.3-0.1,1.5-0.3c0.2-0.1,0.3-0.3,0.3-0.4c0-0.2-0.1-0.3-0.3-0.4
		c-0.2-0.1-0.7-0.1-1.5,0c-0.8,0.1-1.3,0.1-1.5,0.3C887.7,624.5,887.6,624.6,887.6,624.8z"/>
	<path class="st23" d="M886.6,621.7c0-0.5,0.1-0.8,0.5-1.1c0.4-0.3,1-0.5,2-0.6c1-0.1,1.6,0,2,0.3c0.4,0.3,0.6,0.6,0.6,1
		c0,0.4-0.1,0.8-0.5,1.1c-0.4,0.3-1,0.5-2,0.6c-1,0.1-1.6,0-2-0.3C886.8,622.5,886.6,622.2,886.6,621.7z M887.4,621.7
		c0,0.2,0.1,0.3,0.3,0.4c0.2,0.1,0.7,0.1,1.5,0.1c0.8-0.1,1.3-0.1,1.5-0.3c0.2-0.1,0.3-0.3,0.3-0.4c0-0.2-0.1-0.3-0.3-0.4
		c-0.2-0.1-0.7-0.1-1.5-0.1c-0.8,0.1-1.3,0.1-1.5,0.3C887.5,621.3,887.4,621.5,887.4,621.7z"/>
	<path class="st23" d="M888.3,633.1c0.4,0,0.9,0,1.3,0c0.1,0.8,0.1,1.6,0.2,2.5c-0.4,0.1-0.9,0.2-1.3,0.2c0,0,0,0,0,0
		c0.2-0.3,0.4-0.5,0.6-0.8c-0.3-0.2-0.7-0.3-1-0.5c0.3-0.3,0.6-0.5,0.9-0.8C888.8,633.5,888.6,633.3,888.3,633.1
		C888.3,633.1,888.3,633.1,888.3,633.1z"/>
	<path class="st23" d="M888.1,629.6c0.4,0,0.9,0,1.3,0c0.1,0.8,0.1,1.7,0.2,2.5c-0.4,0.1-0.9,0.2-1.3,0.2c0,0,0,0,0,0
		c0.2-0.3,0.4-0.5,0.6-0.8c-0.3-0.2-0.7-0.4-1-0.5c0.3-0.3,0.6-0.5,0.9-0.8C888.6,630.1,888.3,629.8,888.1,629.6
		C888.1,629.6,888.1,629.6,888.1,629.6z"/>
	<path class="st23" d="M890.8,631.1c0.4,0,0.9,0,1.3,0c0,0.8,0.1,1.6,0.1,2.5c-0.4,0.1-0.9,0.2-1.3,0.2c0,0,0,0,0,0
		c0.2-0.3,0.4-0.5,0.6-0.8c-0.3-0.2-0.7-0.3-1-0.5c0.3-0.3,0.6-0.5,0.9-0.8C891.3,631.5,891,631.3,890.8,631.1
		C890.8,631.1,890.8,631.1,890.8,631.1z"/>
	<polygon class="st27" points="895.3,655.5 896.1,669.8 895,669.9 894.2,655.7 	"/>
	<polygon class="st26" points="892.7,668.3 892.8,669.9 891.7,670.1 891.6,668.4 	"/>
	<polygon class="st26" points="893.7,666 893.8,667.6 892.6,667.8 892.5,666.1 	"/>
	<polygon class="st27" points="878.4,674.8 878.3,674.9 877.1,673 877.1,673 	"/>
	<polygon class="st27" points="879.5,674.7 879.4,674.7 878.1,672.9 878.2,672.8 	"/>
	<polygon class="st27" points="880.5,674.6 880.4,674.6 879.2,672.8 879.3,672.7 	"/>
	<polygon class="st27" points="874.3,619.6 874.2,619.6 872.8,617.3 872.9,617.2 	"/>
	<polygon class="st27" points="875.4,619.5 875.3,619.6 873.9,617.2 874,617.2 	"/>
	<polygon class="st27" points="876.6,619.4 876.5,619.5 875.1,617.2 875.2,617.1 	"/>
	<polygon class="st27" points="887.1,658.6 887.2,660.8 882.8,661.3 882.6,659.2 	"/>
	<polygon class="st27" points="894,657.8 894.1,660 889.7,660.5 889.6,658.3 	"/>
	<path class="st28" d="M880.1,627.2c0-0.1,0-0.1,0.1-0.1c0.2,0,0.4,0,0.7,0c0.4,0,0.8,0.5,0.8,0.9c0,0.2-0.1,0.3-0.3,0.3
		c0-0.1,0-0.2,0-0.3c0-0.2-0.1-0.3-0.2-0.3c-0.2-0.1-0.4,0.1-0.5,0.3c-0.1,0.3,0.1,0.5,0.3,0.6c0.6,0.2,1.1-0.3,1-1
		c-0.1-0.4-0.4-0.7-0.8-0.8c-0.3-0.1-0.5,0-0.8,0c-0.1,0-0.2,0-0.2-0.2c0-0.1-0.1-0.2-0.1-0.3l0.1,1.7
		C880.1,627.8,880.2,627.5,880.1,627.2z"/>
	<path class="st28" d="M875.2,628c-0.3,0-0.5-0.2-0.7-0.5c-0.1-0.1,0-0.1,0-0.2c0.3-0.1,0.6-0.2,0.9,0c0.1,0.1,0.1,0.1,0.2,0.2
		l-0.1-0.6c-0.4-0.1-0.7-0.1-1.1,0.1c-0.3,0.1-0.6,0.4-0.8,0.7c0.3,0.3,0.7,0.6,1.1,0.7c0.3,0,0.6,0,0.9,0l0-0.3
		C875.5,628,875.3,628,875.2,628z"/>
	<path class="st28" d="M875.1,621.8l0.4,5.1c0.3,0.1,0.7,0.2,1,0.5c0.1,0.1,0.1,0.1,0.2,0.2c0.1,0.1,0.3,0.1,0.4,0.1
		c0.1,0,0.2-0.1,0.3-0.1c0-0.1,0-0.2-0.1-0.3c-0.1-0.4,0.1-1,0.5-1.3c0.5-0.3,0.9-0.3,1.4-0.1c0.2,0.1,0.4,0.3,0.5,0.5l-0.4-4.8
		L875.1,621.8z"/>
	<path class="st28" d="M876.1,627.9C876.1,627.9,876.1,627.9,876.1,627.9c-0.1-0.2-0.3-0.3-0.5-0.4l0,0.4
		C875.8,627.9,875.9,627.9,876.1,627.9z"/>
	<path class="st28" d="M877.9,627.3c0.6-0.1,1.2-0.3,1.8-0.4c0,0,0,0,0,0c-0.3-0.7-1.1-0.7-1.5-0.5
		C877.9,626.5,877.8,626.9,877.9,627.3z"/>
	<path class="st28" d="M878.5,627.4c-0.2,0-0.4,0.1-0.6,0.2c0.1,0.3,0.6,0.4,0.8,0.2c0,0,0.1-0.1,0.2-0.1c0,0,0.1,0,0.2,0
		c0,0.1,0,0.1,0,0.2c-0.2,0.3-0.5,0.4-0.8,0.4c-0.3,0-0.5-0.2-0.6-0.4c0,0-0.1-0.1-0.1-0.1c-0.1,0-0.2,0.1-0.3,0.1
		c0.1,0.1,0.3,0.2,0.4,0.3c0.3,0.2,0.6,0.4,1,0.5c0.7,0.1,1.5-0.5,1.3-1.3c0-0.1,0-0.2-0.2-0.1C879.3,627.2,878.9,627.3,878.5,627.4
		z"/>
	<path class="st28" d="M879.6,628.5c-0.3,0.3-0.6,0.4-1,0.5c-0.7,0.1-1.3-0.1-1.8-0.5c-0.1-0.1-0.3-0.2-0.4-0.3
		c-0.1,0-0.1-0.1-0.2,0c-0.2,0-0.3,0.1-0.5,0.1l0.1,1.6l4.3-0.3L880,628C879.9,628.2,879.8,628.4,879.6,628.5z"/>
</g>
<g>
	<path class="st22" d="M1153,257v-30.7h-12.6v-4h30.1v4h-12.8V257H1153z"/>
	<path class="st22" d="M1189.6,252.2c0,1.3,0.7,1.9,1.9,1.9c0.6,0,1.4-0.2,2.1-0.5v2.5c-0.8,0.8-1.8,1.4-3.7,1.4
		c-2.5,0-4.2-1.9-4.5-4.7c-1.3,2.8-4.7,4.9-8.6,4.9c-4.7,0-7.7-2.5-7.7-6.7c0-4.6,3.9-6.4,9.7-7.6l6.5-1.3v-0.9
		c0-3.3-1.9-5.3-5.3-5.3c-3.5,0-5.3,2-6,4.8l-4.1-0.5c0.9-4.5,4.5-7.8,10.2-7.8c6,0,9.6,3.1,9.6,9.2V252.2z M1185.2,245.1l-5.4,1.2
		c-3.8,0.8-6.2,1.5-6.2,4.5c0,2,1.4,3.6,4.1,3.6c4.2,0,7.5-3.2,7.5-8V245.1z"/>
	<path class="st22" d="M1226.4,252.2c0,1.3,0.7,1.9,1.9,1.9c0.6,0,1.4-0.2,2.1-0.5v2.5c-0.8,0.8-1.8,1.4-3.7,1.4
		c-2.5,0-4.2-1.9-4.5-4.7c-1.3,2.8-4.7,4.9-8.6,4.9c-4.7,0-7.7-2.5-7.7-6.7c0-4.6,3.9-6.4,9.7-7.6l6.5-1.3v-0.9
		c0-3.3-1.9-5.3-5.3-5.3c-3.5,0-5.3,2-6,4.8l-4.1-0.5c0.9-4.5,4.5-7.8,10.2-7.8c6,0,9.6,3.1,9.6,9.2V252.2z M1222,245.1l-5.4,1.2
		c-3.8,0.8-6.2,1.5-6.2,4.5c0,2,1.4,3.6,4.1,3.6c4.2,0,7.5-3.2,7.5-8V245.1z"/>
	<path class="st22" d="M1238.5,257h-4.6v-24h4.6v4.3c1.2-2.9,4.4-4.9,8-4.9c6.3,0,8.8,4.2,8.8,9.8V257h-4.6v-14.5
		c0-4-1.9-6.5-5.7-6.5c-3.6,0-6.5,2.9-6.5,7.3V257z"/>
	<path class="st22" d="M1263.3,248.6c0.4,3.7,3,5.7,7.1,5.7c3.2,0,5.6-1.2,5.6-3.6c0-2.3-1.6-3-4.6-3.6l-4.1-0.7
		c-4.5-0.7-7.2-2.6-7.2-6.8c0-4.4,3.7-7.4,9.2-7.4c6.4,0,10.1,3,10.6,8.5l-3.7,0.2c-0.5-3.7-2.8-5.4-6.9-5.4c-3,0-5,1.4-5,3.6
		c0,1.9,1.2,2.9,3.7,3.4l4.5,0.7c4.8,0.8,7.7,2.6,7.7,7c0,4.8-4.2,7.4-9.8,7.4c-6,0-10.6-2.8-11-8.7L1263.3,248.6z"/>
	<path class="st22" d="M1291.9,257l-9.9-24h4.8l7.5,18.5h0.2l7.3-18.5h4.5l-9.9,24H1291.9z"/>
	<path class="st22" d="M1328.6,252.2c0,1.3,0.7,1.9,1.9,1.9c0.6,0,1.4-0.2,2.1-0.5v2.5c-0.8,0.8-1.8,1.4-3.7,1.4
		c-2.5,0-4.2-1.9-4.5-4.7c-1.3,2.8-4.7,4.9-8.6,4.9c-4.7,0-7.7-2.5-7.7-6.7c0-4.6,3.9-6.4,9.7-7.6l6.5-1.3v-0.9
		c0-3.3-1.9-5.3-5.3-5.3c-3.5,0-5.3,2-6,4.8l-4.1-0.5c0.9-4.5,4.5-7.8,10.2-7.8c6,0,9.6,3.1,9.6,9.2V252.2z M1324.2,245.1l-5.4,1.2
		c-3.8,0.8-6.2,1.5-6.2,4.5c0,2,1.4,3.6,4.1,3.6c4.2,0,7.5-3.2,7.5-8V245.1z"/>
	<path class="st22" d="M1350.5,237.5c-1.3-0.7-2.3-1-3.7-1c-3.5,0-6,3.1-6,7.8V257h-4.6v-24h4.6v4.9c0.9-2.8,3.4-5.6,6.8-5.6
		c1.5,0,2.6,0.4,3.4,1.1L1350.5,237.5z"/>
	<path class="st22" d="M1353.8,251.5h5.5v5.5h-5.5V251.5z M1359,222.3v9.7l-1.3,15.9h-2.2l-1.4-15.9v-9.7H1359z"/>
</g>
</svg>
