<?xml version="1.0" encoding="utf-8"?>
<!-- Generator: Adobe Illustrator 27.0.1, SVG Export Plug-In . SVG Version: 6.00 Build 0)  -->
<svg version="1.1" id="Lager_1" xmlns="http://www.w3.org/2000/svg" xmlns:xlink="http://www.w3.org/1999/xlink" x="0px" y="0px"
	 viewBox="0 0 1600 900" style="enable-background:new 0 0 1600 900;" xml:space="preserve">
<style type="text/css">
	.st0{fill:#500B00;}
	.st1{fill:#BA8B50;}
	.st2{fill:#454545;}
	.st3{fill:#CFCFCF;}
	.st4{fill:#002B33;}
	.st5{fill:#E6BC87;}
	.st6{fill:#F38000;}
	.st7{fill:#A3A2A2;}
	.st8{fill:#BF6500;}
	.st9{fill:#EAE5DD;}
	.st10{fill:#5D4528;}
	.st11{fill:#106B7A;}
	.st12{fill:#013F4B;}
	.st13{fill:#97672C;}
	.st14{fill:#D4A572;}
	.st15{fill:#EE492E;}
	.st16{fill:#FFE0BA;}
	.st17{fill:#CFC6B5;}
	.st18{fill:#2B2D34;}
	.st19{fill:#F4F4F4;}
	.st20{fill:none;stroke:#FFFFFF;stroke-width:4;stroke-miterlimit:10;}
	.st21{fill:#FFFFFF;}
	.st22{fill:#F6DFD5;}
	.st23{fill:#A07C7F;}
	.st24{fill:#B28B8D;}
	.st25{fill:#C3ABAC;}
	.st26{fill:#87261C;}
	.st27{fill:#947E2C;}
	.st28{fill:#7D7B7B;}
</style>
<g>
	<g>
		<ellipse class="st0" cx="205.5" cy="857" rx="162.5" ry="23.3"/>
	</g>
	<g>
		<ellipse class="st0" cx="568.7" cy="856.4" rx="116.7" ry="23"/>
	</g>
	<g>
		<ellipse class="st0" cx="1119" cy="860" rx="116.7" ry="23"/>
	</g>
	<g>
		<ellipse class="st0" cx="1387.5" cy="869.3" rx="165.4" ry="25.1"/>
	</g>
	<g>
		<path class="st1" d="M602.5,568c-2.9-0.5-4.5-1.3-7.1-2.8s-4.7-3.8-5.2-6.7c-0.3-1.6,0-3.4,1.3-4.5c0.7-0.6,1.6-0.8,2.5-1.1
			c9.3-2.4,19.6-0.8,27.8,4.3c-0.5,3.2-2.5,6.4-5.2,8.3c-2.7,1.8-5.9,2.8-9.2,3.2C606.3,568.7,603.5,568.2,602.5,568z"/>
	</g>
	<path class="st2" d="M270.5,851.5c0,0,2.4-3.7-5-5.2c-7.4-1.5-21.9,8.9-15.7,10.2C256.1,857.9,270.5,851.5,270.5,851.5z"/>
	<g>
		<path class="st2" d="M270.9,849.9c0,0-20.3,12.9-39.2-2.6c0,0-7.6-11-12-15.5l0.2,5.5c0,0,10.1,17,20.3,20.3
			c12.3,4,23.5,2,30.3-3.7L270.9,849.9z"/>
	</g>
	<path class="st3" d="M253.1,853.3c0,0,4.7,0.5,7.7-0.6c3-1.2,2.5-1.8,3-1.9c0.5-0.2,2.7,0,3.7-0.9s2.6-1.9,0.9-4.6
		c-1.7-2.6-16.4-1.5-16.5-1.3C251.8,844.3,253.1,853.3,253.1,853.3z"/>
	<g>
		<path d="M218.9,819.9c1.3,3.8-0.6,8.2,0.8,12c1.3,3.5,4.1,6.7,6.7,10c3.7,4.5,8,8.4,13.1,11.3c13.8,5.1,16.6-1.8,24.1-5.3
			c5.6-2.6,7.8-3.7,7.8-3.7s0.9-4.2-1.2-7.4c-2.1-3.2-11.1-1.4-14-3.9c-6.4-5.6-8.3-11.3-11.6-19.2
			C236.4,812.8,226.8,817.3,218.9,819.9z"/>
	</g>
	<g>
		<path d="M70.4,818c-1.2,9.4-5.8,18-10.5,26.3c-1.8,3.1-3.7,6.3-4.6,9.7c-0.9,3.5-0.7,7.4,1.3,10.4c3.9,5.6,10.8,7,17.5,6
			c6.7-1,12.7-5.2,16.6-10.7c2-2.7,2.4-5,2.5-8.4c0.2-9.6,0.3-19.2,0.5-28.8C86.7,819.8,77.9,819.1,70.4,818z"/>
	</g>
	<g>
		<path class="st4" d="M44.3,593.2c-6.2,36.1,18.6,70.5,20,107c0.7,18.2-3.7,36.3-5.9,54.4c-1.8,14.5-2.2,44.2,1.5,58.2
			c2.8,2,5.3,4.3,8.1,6.3c5.7,4.1,12.1,8.4,19.1,8.1c7.4-0.3,13.5-5.7,18.9-10.7c1.1-33.6,1.9-66.3,7.1-99.5
			c3.1-20.1,5.7-39,14.5-57.3c9.8,29.4,36.7,50,55.2,74.8c17.7,23.6,13.3,57.9,24,85.4c4.8,2.8,9.3,5.8,14.9,6
			c4.8,0.1,9.4-1.5,13.8-3.2c5.2-2.1,10.3-4.4,15.3-6.9C245.8,782.3,232.7,743,217,713c-5-9.5-5.6-20.8-8-31.2
			c-5.6-24.2-11.5-49.2-26.1-69.3c-20-4.1-42.4-7-62.7-8.8C96.1,601.6,67.2,601.1,44.3,593.2z"/>
	</g>
	<g>
		<path class="st5" d="M339.8,562c2.8-0.9,5.4-2.4,7.9-3.8c2.6-1.4,5.3-2.8,8.2-3.1c3-0.4,6.3,0.3,8.4,2.5c-0.6,3-0.5,5.7-0.4,8.8
			c0,2.4,0.2,4.7-0.3,7s-1.9,4.5-4.2,5.5c-1.9,0.8-4.1,0.6-6.2,0.4c-4.8-0.5-9.7-1-14-3.1c-9.1-0.6-20.8-1.8-20.8-1.8l1-15.8
			C319.4,558.5,321,560.4,339.8,562z"/>
	</g>
	<g>
		<path class="st6" d="M220.3,488.6c28.4,4.7,38.8,22.1,41,27.7c2.2,5.6,12.3,31.6,12.3,31.6s39.6,5,65.5,10.7
			c-2,9.8-3.5,18.9-6.7,28.3c-0.2,0.5-0.4,1.2-0.8,1.2c-0.6,0-0.9,0.1-1.7,0c-31.3-1.6-77.3-5.9-88.4-13.5c-1.6-1.1-2.7-3.4-2.9-4.6
			c-1.3-9.2,0.2-15.6,1.2-22.8c-4.7,29.7-14.2,59.8-28.7,86.2c-11.1-5.2-22.2-17.3-32.9-22.7c10.5-23.5,15.9-43.5,14.3-69.1
			c-0.2-3.5-0.6-7.1-2-10.4c-1.4-3.2-4.1-6.1-7.6-6.9c-38.7,38.4-70.2,86.2-87.6,137.9c-27.6-15.6-49.8-44.8-53.3-76.2
			c-2.8-25.4,20.2-46.3,37.7-65c10.3-11,21.4-21.9,35.2-27.8c6.8-2.9,14.2-4.6,21.5-5.9c18.1-3.3,36.5-4.9,54.9-4.8
			C200.8,482.6,210.9,487.1,220.3,488.6z"/>
	</g>
	<path class="st7" d="M211.8,569c0,0,18.2,1,25.8-9.7l-2,9.3c0,0-3.7,7.7-23.8,9C191.7,578.8,211.8,569,211.8,569z"/>
	<g>
		<path class="st8" d="M214,613.3c-0.4,4.7-1.9,15.4-2.9,20.1c0,0-2.2-0.8-5.8-3.3c-4.5-2.9-21.8-16.3-21.8-16.3
			c5.7-20.7,20.2-52.4,24.9-71.4C208.4,542.4,216.3,589.4,214,613.3z"/>
	</g>
	<g>
		<path class="st9" d="M208.2,532.9c0.9,12.2-1.1,24.4-3.5,36.3c-1.9,9.2-4,18.4-8,26.9c-4,8.5-9.9,16.3-18,21.1
			c-20.7,12.2-45.5,16-68.3,8.4c4.7-15.4,14.2-32.3,22.6-46.1c6.9-11.3,12.2-20.4,19.2-31.6c2.6-4.2,11-15.3,11-15.3
			s3.1-12.6,4.7-20.7c5.6,0.4,11.4,1.6,16.9,2.9c5.3,1.3,10.6,3,14.8,6.6c2.9,2.4,5,5.6,7.1,8.7
			C207.4,531.1,209.3,532.5,208.2,532.9z"/>
	</g>
	<g>
		<path class="st10" d="M645.1,799.7c-6.3,2.4-14.3,3.8-21,4c4.2,7.7,8.6,13.5,8.6,21.7c0,0.8,0,1.7-0.1,2.6c0.2,0,0.3,0,0.4,0
			c3.3,0,6.1,3.5,8.4,6.6c4.6,5.8,12.2,9.6,19.2,12c2.1-4,10.3-7.6,14.8-8c-3.7-2.8-7.5-5.6-11.2-8.4c-1.4-1.1-5.1-3.6-6.3-4.9
			c-2.7-2.7-3.7-3.7-5.7-5.9C646.5,813.4,648.3,807.2,645.1,799.7"/>
		<path class="st10" d="M499.7,802.3c-2.9,7.3-5.9,14.7-11,20.7c-1.2,1.5-2,2.2-2.7,3.9c-0.2,0.5-1,3-1.3,4.2
			c-0.3,1.2-1.5,2.8-1.3,4.7c0,0.4,2.1,8.4,2.1,11.9c0,0.3,0,0.5,0,0.7c0,0,0.1-0.1,0.1-0.1c3.1-1.9,7-3,10.8-3c4.1,0,8,1.2,11,3.7
			c-0.3-3.3-0.6-6.7-0.6-10c0-5.3,0.7-10.5,3.2-15.1c1.3-2.4,3-4.5,3.7-7.1C508.1,813.3,505.2,805.9,499.7,802.3"/>
	</g>
	<g>
		<path class="st11" d="M452,621.7c-3.1,19.5-4.1,42.1,8.8,57.1c6.4,7.4,21.2,16,30.7,23.7c10.7,8.7,18.8,12.7,28.9,22.1
			c-12.1,31.6-33.2,75.5-32,80.6c1.2,5.2,20.5,16.2,32.5,15.1c4.2-0.4,9.7-0.4,12.3-3.1c9.8-20.1,12.1-30.1,20.7-48.2
			c3.2-6.7,8.3-20.4,11.4-27.1s5.1-14.2,3.7-21.4c-1.8-9.3-7-17.9-15.7-27c0.5,7.8,8,10.7,13.1,16.1c6.5,7,17,14.5,26,22.6
			c6.4,31.9,9.8,53.2,20.6,80.4c2.6,3.8,18.9,4.4,25.2,2.4c8.1-2.7,15-7.5,15.4-11.2c-3.9-31.5-13.2-63.9-25.8-93.1
			c-7.7-17.7-30.3-36-53.9-52.7c-12.2-8.7-24.4-17.7-35.3-24.6c-7.1-6.3-11.3-16-16.5-23.9C500.6,615.6,474.2,619.6,452,621.7z"/>
	</g>
	<path class="st1" d="M525.1,513.9c6.1,4.9,8.9,9.1,20.1,20.7c5.1,3.2,12,6.8,19.1,9.1c2.8,0.9,20,7,31.7,9.3
		c-0.6,3.9,0.7,8.1-0.4,11.9c-66.5-6.7-57.5-10.5-63.6-14.8c-6-4.3-16.6-18.2-18.5-22.5L525.1,513.9z"/>
	<g>
		<path class="st11" d="M434.7,482.6c-7.1,2.9-13,10.4-15,17.6c-2.1,7.3,0.8,15,2.8,22.3c6.6,24.2,12.8,67.5,14.3,83.1
			c1.6,15.6,1.3,50.8,5.1,52.9c3.8,2,27.6-4.3,28.6-4.4c3.8-0.1,42.4-13.8,61.6-22.8c1.7-0.8,3.6-1.2,3.3-3.5
			c-0.9-6.1-5.8-17.2-7.8-22.5c-0.7-1.9-4.6-12.1-5.3-14.1c-0.8-2.3-2.4-8.4-2.8-10.8c-2-12.9-3.5-37.3-3.5-37.3s1.4,2.5,3.2,3.9
			s8.6,5.4,8.6,5.4s6-7.3,8.2-10.8c2.4-4,8.6-10.5,8.6-10.5s-11-20.7-17.3-30.2c-6.2-9.5-8.1-12.6-14.5-18
			c-6.5-5.4-17.6-7.7-25.9-5.9c-13,2.8-26.6,1.6-39.8,2.8C444.7,479.8,437.2,481.6,434.7,482.6z"/>
	</g>
	<g>
		<path class="st12" d="M493.3,510l-0.7-0.4c1.8-3.2,3-6.7,3.6-10.3l0.8,0.1C496.4,503.2,495.1,506.8,493.3,510z"/>
	</g>
	<g>
		<path d="M486.6,454.8c7.4,18.9,13.7,21.5,18.4,35.7c2.8,8.3,5.3,18.4-0.4,25.2c0.3-1.8-0.3-3.8-1.6-5.1
			c-0.4,5.8-3.8,11.3-8.8,14.3c4.3-6,4.2-14.5,1-21.2c-3.1-6.7-8.9-11.9-15.1-16c-3.2-2.1-6.7-4-9-7c-3.9-4.9-4.3-11.6-3.7-17.8
			c1.4-15.1,7.5-29.7,17.4-41.2C484.9,430.9,483.3,446.1,486.6,454.8z"/>
	</g>
	<g>
		<path class="st13" d="M477,464.9c-2,2.1-2.5,5.2-2.1,8.1c0.4,2.9,1.7,5.5,2.9,8.1c2,4.1,5.9,6.6,8.6,10.2
			c3.6,4.7,4.2,11.4,4.3,17.3c-15-8.8-30.3-18-45.3-26.8c7.3-7.2,6.8-18.6,4.9-30.3c1.1-1.5,2.3-3,4.2-3.4c1.8-0.3,3.7-0.2,5.6-0.3
			c3.4-0.2,6.8-1.1,10.2-1c3.4,0.1,7.1,1.5,8.6,4.6c0.6,1.3,0.8,2.7,0.8,4.1C479.8,458.6,479.1,462.7,477,464.9z"/>
	</g>
	<g>
		<path class="st5" d="M1253,567.3c-2.7-1.5-10.3-6.1-12.6-8.2c-2.3-2.1-4.8-4.1-7.7-5.1s-6.4-0.9-8.9,1c0,3.4-0.6,6.4-1.2,9.7
			c-0.5,2.6-1.1,5.2-1,7.8c0.1,2.6,1.1,5.4,3.2,6.9c1.8,1.2,4,1.5,6.2,1.7c4.9,0.5,10,0.9,14.7-0.6c2.3-0.5,7,1.3,7,1.3
			S1253.8,570.3,1253,567.3z"/>
	</g>
	<g>
		<path class="st9" d="M1259.2,564.8l-8.4-1.4c0,0,0.6,12.1-3.6,20l9.4,2.4L1259.2,564.8z"/>
	</g>
	<g>
		<path d="M1523,834.7c0.7,5.2,4.3,9.2,8.8,11.9c4.5,2.7,9.6,4.5,13.9,7.7c4.2,3.2,7.6,8.3,6.7,13.5c-0.5,2.6-4.9,3.2-7.5,3.3
			c-2.6,0.1-5.3-0.5-7.8-1.2c-6.7-1.9-13.3-4.2-19.7-7c-3.7-1.6-7.7-3.9-11.7-4.5c-2-0.3-4-0.2-6-0.6c-4.7-0.8-8.7-3.7-12.6-6.5
			c0.9-8.1,7.1-17.4,14.9-19.8C1508.8,829.4,1515.9,833.7,1523,834.7z"/>
	</g>
	<g>
		<path d="M1234.5,833.6c-6.3,2-10.6,8.1-13,14.4c-2.5,6.6-3.3,13.7-5.9,20.2c-1.2,3.2-2.4,6.3-2.1,9.5c0.1,1.3,1.1,2.8,1.8,3.9
			c2.8,4.1,6.5,7.6,10.7,10.3c2.1,1.4,4.8,1.7,7.2,1c3.6-1,7.3-2.5,10.1-4.5c1.1-0.8,2.2-1.6,2.8-2.8c0.7-1.5,0.6-3.2,0.5-4.8
			c-0.6-8.8-0.2-17.8,1.2-26.5c0.7-4.5,1.6-9.1,0.4-13.4C1246.6,834.9,1240.3,831.7,1234.5,833.6z"/>
	</g>
	<g>
		<path class="st2" d="M1501.8,817.8c0.3,5.8-1,11.6-3.8,16.7c-2,3.5,3.1,7.4,7.2,7.2c3.9-0.1,6.8-3.6,10.5-4.6
			c2.7-0.7,5.5,0.1,8.1,0.8c-0.6-4.8-0.2-9.9,2.1-14.2C1518.2,823.7,1509,820.8,1501.8,817.8z"/>
	</g>
	<g>
		<path class="st2" d="M1242.8,820.9c-0.8,4.3-4.5,7.4-7.7,10.5c-3.2,3.1-6.2,7.3-4.9,11.6c1.6,0.8,2.8-0.3,4.5-0.6
			c4.5-0.6,9.3,2.1,11,6.4c3,0.5,5.1-2.7,6.5-5.4c2.4-4.4,5.6-8.4,9.5-11.6C1255.9,827,1249.7,823.8,1242.8,820.9z"/>
	</g>
	<g>
		<path d="M1366.4,648c-16.3,26.8-33.9,52.8-52.5,78c-11.8,16-27.4,29.8-41.6,43.7c-14.2,13.9-27.9,33.2-35.1,51.7
			c7.7,11.5,20.5,20.6,34.3,20.9c4.9,0.1,7.3-6.4,10.4-10.3c14.9-18.4,28.3-38.1,39.9-58.7c28.5-15.7,47.1-44.5,74.6-61.9
			c7.1-4.5,14.1-10.8,21.9-13.9c5.8-2.3,12.8-1.9,18.4,0.8c31.3,15,47.4,37.4,69.7,58.1c-6,19.9-8.8,41.6-7.4,62.4
			c1.9,2.6,3.9,5.1,6.7,6.8c3.1,2,6.3,4,9.9,4.9c7.2,2,14.9-0.6,21.9-3.1c3.4-21.2,7.8-43.1,11.2-64.3c1.4-8.6,2.7-17.8-1.1-25.6
			c-15.2-31.2-36.3-59.5-59-85.8c-4.1-4.8-7.3-11.3-12.3-15.2c-3.3-2.6-7.2-4.3-11.1-5.8c-15.1-5.8-31.3-8.7-47.4-8.6
			c-5.4,0-10.8,0.4-16,2.1c-4.8,1.5-9.2,4.2-13.5,6.7C1381.4,635.1,1370.7,641.1,1366.4,648z"/>
	</g>
	<path class="st9" d="M1439.9,616.7c0,0,0.9,11.7-0.1,17.8c-10.6,1.4-21.5-0.1-31.7-3.2c-1.4-6.3-1.9-20.2-1.9-20.2L1439.9,616.7z"
		/>
	<g>
		<path class="st9" d="M1405.8,487.9c-5.6,46.9-6,94.5-1.1,141.5c10.5,2,28.2,5.8,38.6,3.3c3.4-49.6,7.1-101.9,11.4-151.4
			c-1.5-3.2-5.4-6.7-8.8-7.5c-1.6-0.4-3.3-0.3-5-0.3c-5.3,0.1-10.7,0.3-16,0.7c-2.5,0.2-5,0.4-7.2,1.5
			C1413,477.9,1410.1,485.2,1405.8,487.9z"/>
	</g>
	<g>
		<path class="st14" d="M1412.9,488.4c1.3,5.2,5.6,9.5,10.8,10.9c7.9-5,15.4-10.2,22.6-16.1c2-1.6,0.8-5.4,0.3-7.9
			c-0.5-2.5-1.5-4.8-2.6-7.1c-2-4.3-7.4-6.9-12.2-6.6c-6,0.3-11.1,4.9-14.1,10.1C1414.8,476.9,1414.9,482.6,1412.9,488.4z"/>
	</g>
	<g>
		<path class="st14" d="M1085.2,562c-3.1,0.7-5.9,2.6-8.7,4.2c-2.8,1.6-6,2.9-9.2,2.4c-3.9-0.8-8.2-2-11.2-4.5c-1-0.8-1.9-1.9-2.6-3
			c-0.3-0.5-0.6-1.1-1.2-1.5c-0.3-0.2-0.6-0.3-0.9-0.5c-0.5-0.4-0.6-1.2-0.3-1.8c0.3-0.6,0.8-1.1,1.3-1.5c2.4-1.9,5.4-3,8.4-4
			c6.2-2.2,12.4-4.3,18.9-5.4c1.4-0.2,2.8-0.4,4.2-0.2c1.4,0.2,2.7,0.9,3.5,2c0.6,0.8,0.8,1.8,1,2.8c0.4,2,0.7,4,0.4,6
			S1087.2,561.6,1085.2,562z"/>
	</g>
	<g>
		<polygon class="st9" points="1093.3,540.1 1081.8,540.9 1084,563.6 1095.9,562.9 		"/>
	</g>
	<g>
		<path class="st15" d="M1020.2,848.3c-3.8,1.8-10.3,3.1-14,5c-3,1.6-3.8,5.5-1.4,8c1.3,1.4,3.1,2.4,5,3c4.1,1.3,12.8,0.8,17.1,0.3
			c4.1-0.4,7.9-2.3,11.5-4.2c4.6-2.4,9.5-3.5,13.1-4.1c0.8,1.8,1,6.1,0.8,8.1l13.1-0.2c0.3-1.5,1-5.8,1.3-7.3c0.5-2.2,1-4.4,0.7-6.5
			c-1-7-4.2-14.6-6.6-17.6c-3-0.3-5.3,7.7-8.2,8.4C1041.8,843.9,1030.1,843.5,1020.2,848.3z"/>
	</g>
	<g>
		<path class="st15" d="M1155.2,839.8c-2.4,3-6.8,9.3-8.2,12.8c-1.2,2.9,0.6,6.2,3.7,6.6c1.7,0.2,3.6,0,5.3-0.7
			c3.7-1.4,9.5-6.8,12.3-9.6c2.7-2.7,4.2-6.2,5.7-9.7c1.9-4.4,4.7-8.1,6.9-10.5c1.6,0.9,4.4,3.9,5.4,5.4l9.2-7.7
			c-0.7-1.3-2.8-4.8-3.4-6.1c-1-1.8-2.1-3.5-3.4-5.1c-4.5-5.6-11.6-8.2-15.1-9c-2.3,1.5,0.8,8.6-0.8,10.8
			C1166.7,825.2,1163.1,830,1155.2,839.8z"/>
	</g>
	<g>
		<path class="st14" d="M1120.6,680c-12.8,14.3-28.8,38.8-38.2,55.5c-1.9,3.3-3.7,6.8-3.9,10.7c-0.3,5.7,3.1,10.9,6.4,15.6
			c17.9,25.6,51.7,35.1,75,56c2.3,8.3-0.7,15.6-5.5,22.7c7,2.2,13.9-2.3,16.1-9.3c0.9-2.8,0.9-5.9,1.5-8.8c1.1-5.5,4.4-10.6,9-13.8
			c-11.2-4.2-20.8-9.5-28.1-17.3c-7-7.5-12-14.2-18.6-22.6s-12.9-17.5-24.3-21.9c23.7-20.5,44.4-27,54.1-50.7
			C1150.8,695.3,1133.9,679.3,1120.6,680z"/>
	</g>
	<g>
		<path class="st5" d="M1081.2,673.9c-2.8,1.4-6.7,4.7-8.7,7.1c-6.4,7.9-12.4,16.1-17.9,24.6c-2.8,4.3-4.3,9.3-4.3,14.4
			c-0.3,39-0.8,84.6-7.1,115.8c-5.7,4.4-12.9,8-19.5,10.8c2.6,4.2,7.9,6.6,12.7,5.6s9-3.8,13.3-6.1c4.3-2.4,9-8.4,13.8-7.7
			c-1.4-14.2,0.9-25.3,5.6-38.8c3-8.7,7.8-17.1,10.1-26c3.8-14.5,2.2-29.9,0.6-44.8c3.8-4.8,42.8-29,56.2-39.4
			c2.5-2,1.2-7.2-0.1-10.1c-1.3-3-3.5-5.4-6-7.5c-7.1-5.8-16.4-8.9-25.5-8.4C1096,663.9,1088.9,670,1081.2,673.9z"/>
	</g>
	<g>
		<path d="M1129,613.4c-20.1,21.3-51.3,58.6-68.6,82.2c33.9,5.2,71.3,32,105.6,30c9.9-10.6,23.1-38.5,29.3-51.6
			c6.3-13.1,9.7-27.8,8-42.2c-20.1-8.1-41.1-14.6-62.3-18.9C1136.7,612.2,1132,610.3,1129,613.4z"/>
	</g>
	<g>
		<path class="st14" d="M1159,441.1c2.7,6.7,10.9,18,15.5,23.5c-7.3,3.1-15,6.1-22.5,8.7c-1,0.3-2,0.7-3,0.5
			c-1.3-0.2-2.2-1.2-3.1-2.2c-1.1-1.2-2.3-2.4-3.4-3.6C1147.9,460.1,1150.8,445.9,1159,441.1z"/>
	</g>
	<g>
		<path d="M1403.5,482.8c-15.7,5.4-35.5,13.1-45.6,26.2c-1.9,2.4-15.4,20.4-27,33.1c-9.4,10.3-13.7,12-21.5,16.1
			c-18.2,1.7-34.6,3.7-52.7,5.5c0.8,7.8-0.8,14.8-3.4,23c24.8,5,43.1,8,71.1,4.4c12-1.5,38.5-10.2,45.7-19.9
			c1.6,11.5,3.8,23.8,4.7,35.3c1.2,15.7-8.2,30.4-13.2,45.3c7.8,5.5,16.3,10.5,25.5,12.9c4.4,1.1,9.1,1.9,13.2,0
			c3.8-1.7,6.4-5.5,7.6-9.6c1.2-4,1.3-8.3,1.4-12.5c0.4-24.3-0.3-45.9,0.1-70.2c0.1-7.2,0.8-17.4,0.6-24.6
			c-0.1-5.8,0.2-11.4-0.1-17.2c-0.8-13.1-1.6-26.3-2.3-39.4C1407.3,488.2,1405.8,484.7,1403.5,482.8z"/>
	</g>
	<g>
		<path class="st5" d="M1110.3,449.5c1.1,2.3,2.4,4.6,3.2,7c1.8,5.4,3,12.3,6.4,16.9c4.2,5.5,12.8,5.5,18.9,2.3
			c10.7-5.6,14.2-19.8,10.9-31.4c-3.3-11.6-14.5-20.3-26.5-21.5c-3.7-0.4-7.5,0-10.8,1.7C1103.7,429.2,1106.9,442.1,1110.3,449.5z"
			/>
	</g>
	<g>
		<path class="st16" d="M1114,415.1c-3.7,2.2-7.1,5.3-9,10.4c-1.6,4.6-2.3,9.6-1.3,14.4c1,4.8,3.7,9.1,7.6,11.8
			c-1.6-4.6-2.3-10.6-1.3-15.3c1-4.8,3.2-8.7,9.4-12c4.5,0.9,6.9,5.2,9.1,9.5c2.2,4.1,4.3,8.2,7.6,11.3c3.3,3.1,7.9,5.1,12.1,3.8
			c1.9-0.6,3.7-1.5,5.6-2.2c1.8-0.7,3.9-0.4,5.7,0.5s3.3,2.2,4.7,3.6c3.4-2.3,6.2-6.9,5.7-11.2c-0.4-3.8-3-7.5-1.9-11.1
			c3.8,0.9,7.8-1,10.3-4.1c3.2-4.1,3-10.6,0.1-15c-1.9-2.8-4.9-3.9-8.1-4.4c-3.2-0.5-8,1.4-10.1,4c-7.2-4.7-16.3-7.6-24.6-5.8
			C1118.8,406.7,1119.8,411.5,1114,415.1z"/>
	</g>
	<g>
		<path class="st5" d="M1149.7,441.9c1.3-1.7,2.6-2.4,4.1-2.7c1.4-0.2,2.9,0.3,3.9,1.4c1.2,1.3,1.7,3.2,1.6,5
			c-0.1,1.8-0.7,3.5-1.5,5.1c-1.9,3.8-5,6.9-8.8,7.8c-0.2,0-0.4,0.1-0.5,0c-0.2-0.2-0.3-0.5-0.3-0.8c0-3.2-1.1-5.3-1.3-8.5
			C1146.7,446.6,1148.3,443.6,1149.7,441.9z"/>
	</g>
	<g>
		<path d="M1177.8,456.6c6.6,1.6,16,15.3,19.3,20.5c5.3,8.2,7.8,19.9,9.2,25.7c1.6,6.7,2.4,12.8,2.2,23.9c-0.3,22.4-1.8,27-3.1,49.4
			c-1.1,20.1,11,39.3,12.2,59.4c-10.3,7.9-35.9,6.9-50.4,0.7s-33.6-19.7-49.2-22c3.7-18.9,6.5-40.1,7-58.8c-6.9,2-28.1,7.4-34,8.4
			c-1.6-7.3-3-13.8-5-21.1c11.3-5.7,24.3-20.4,32.6-29.9c3.5-4.1,7.1-8.1,9.9-12.7c2.2-3.6,4-7.4,6.2-11
			c4.5-7.3,10.9-13.3,17.2-19.3C1158.7,463.6,1168.9,454.5,1177.8,456.6z"/>
	</g>
	<g>
		<path d="M1132.7,448.9c0.1,1-0.6,1.8-1.6,1.9c-1,0.1-1.8-0.6-1.9-1.6s0.6-1.8,1.6-1.9C1131.8,447.2,1132.7,447.9,1132.7,448.9z"/>
	</g>
	<g>
		<path d="M1117.7,452.8c0.1,0.9-0.6,1.7-1.5,1.8c-0.9,0.1-1.7-0.6-1.8-1.5c-0.1-0.9,0.6-1.7,1.5-1.8
			C1116.9,451.3,1117.6,451.9,1117.7,452.8z"/>
	</g>
	<g>
		<path class="st1" d="M1125.4,445.5c1.3-2.5,5-4,7.7-3.2L1125.4,445.5z"/>
	</g>
	<g>
		<path class="st1" d="M1110.5,448.9c1.7-1.9,5.4-2.6,7.7-1.4L1110.5,448.9z"/>
	</g>
	<g>
		<path class="st1" d="M1125.5,462.8c-1.1,0-2.2-0.7-2.9-1.7c-0.7-1-0.9-2.3-0.6-3.3c0.1-0.3,0.2-0.5,0.3-0.8
			c0.1-0.3,0.3-0.5,0.3-0.8c0.3-1,0-2-0.4-3.1l0.8-0.3c0.3,1,0.8,2.4,0.4,3.6c-0.1,0.3-0.2,0.6-0.4,0.9c-0.1,0.2-0.2,0.4-0.3,0.7
			c-0.3,0.8-0.1,1.8,0.4,2.6c0.6,0.8,1.4,1.3,2.3,1.3L1125.5,462.8z"/>
	</g>
	<g>
		<path class="st1" d="M1123.6,470.1l-0.7-0.4c1.1-1.8,3-3.1,5.2-3.5c2.2-0.4,4.5,0,6.1,1.2l-0.5,0.7c-1.5-1.1-3.5-1.5-5.5-1.1
			C1126.2,467.3,1124.6,468.5,1123.6,470.1z"/>
	</g>
	<g>
		<path class="st2" d="M1154.9,476l-0.2-0.8c13.6-3.3,24-12.4,26.3-17.6l0.8,0.3C1178.1,466.3,1163.8,473.8,1154.9,476z"/>
	</g>
	<g>
		<path class="st2" d="M1118.5,614.3l-0.8-0.2c7.4-35.7,7.9-79.7,7.9-80.2l0.8,0C1126.5,534.4,1126,578.5,1118.5,614.3z"/>
	</g>
	<g>
		<path class="st15" d="M1422.9,502.5c0,0-3.2,0.5-6.2,4.5l2.2,6.9c0,0-6.5,92.9,2.3,114.3l2.4,6.4c0,0,3.4,0.3,6.5,0.5
			c3.1,0.1,5.7-0.7,5.7-0.7s-1-23.3-10.8-120.2l3.4-7.4L1422.9,502.5z"/>
	</g>
	<g>
		<path class="st2" d="M1407.6,594c-8-28.6-14.9-59-20.5-83.5l-0.1-0.5l6.7-0.1c1.4,0,2.8-0.1,4.1-0.5c0.9-0.3,1.7-0.8,2.4-1.3
			c2.6-1.7,5.1-3.5,7.4-5.5l0.5,0.6c-2.4,2-4.9,3.9-7.5,5.6c-0.8,0.5-1.6,1-2.6,1.4c-1.4,0.5-2.9,0.5-4.3,0.6l-5.7,0.1
			c5.6,24.3,12.5,54.5,20.4,82.9L1407.6,594z"/>
	</g>
	<g>
		<path d="M1454.5,480.4c-4.4,11.7-6.4,24.2-8.3,36.5c-5.1,34.2-9.3,68.5-12.6,102.9c-1.2,13-2.3,26.2-0.4,39.1
			c0.4,2.9,3.3,5.2,6.1,6.3s5.8,1,8.8,0.8c16.8-1.2,33.1-8.6,45.2-20.4c-7.8-29.4-14.5-61.2-6.5-90.6c4.7-17,7.4-33.5,4.8-50.9
			c-1.6-1.9-4.6-5.7-11.2-10.4C1469.5,485.9,1467.2,484.6,1454.5,480.4z"/>
	</g>
	<g>
		<path class="st2" d="M1439.3,592.6l-0.7-0.4c12.5-23.9,21.9-48.7,30.4-80.6c-4.9-0.3-8.9-1.1-12.5-2.4l-0.1,0l-0.1-0.1
			c-2.2-3.1-4.6-6.2-7.1-9.1l0.6-0.5c2.5,2.9,4.9,5.9,7.1,9c3.6,1.3,7.6,2,12.6,2.3l0.5,0l-0.1,0.5
			C1461.3,543.5,1451.9,568.6,1439.3,592.6z"/>
	</g>
	<g>
		<path class="st2" d="M1246.4,883.9c0,0-9.2,7.7-16.9,6c-7.7-1.7-16-9.2-13.2-23.5c0,0-3.7,6.9-2.6,13.7c0,0,4,12.6,18,13.7
			C1231.8,893.9,1246.4,892.2,1246.4,883.9z"/>
	</g>
	<g>
		<path class="st2" d="M1552.4,867.8c0,0,1.3,8.4-15.1,4.7c-16.3-3.7-20.3-5.7-26.9-12.6c0,0-3.9-2.2-8.4,1.2l-15.9-6.9l1.7-6.3
			c0,0,17.8,5.5,24.9,9.9C1523,864.3,1543.9,874.4,1552.4,867.8z"/>
	</g>
	<g>
		<path class="st2" d="M1370.4,569.6l-0.8-0.1c1.7-17.8-1-36.7-7.8-56.3l0.8-0.3C1369.4,532.7,1372,551.7,1370.4,569.6z"/>
	</g>
	<g>
		<path class="st2" d="M1341.2,583.8c-3.8-6.6-8.2-14.1-14.7-19l0.5-0.7c6.6,5,11,12.5,14.9,19.2L1341.2,583.8z"/>
	</g>
	<g>
		<path class="st2" d="M1369.2,544.8c-2.3-5.4-6.6-9.8-11.9-12.1l0.3-0.8c5.5,2.4,10,7,12.4,12.6L1369.2,544.8z"/>
	</g>
	<g>
		<path class="st2" d="M1398.6,510.1c-3.5-1.2-6.4-2.5-9.1-4.1l-0.3-0.2l0.1-0.3c1.3-4.1,3.6-7.9,5.7-11.5c1.3-2.2,2.6-4.4,3.8-6.7
			l0.7,0.4c-1.1,2.3-2.5,4.6-3.8,6.8c-2.1,3.5-4.2,7.1-5.6,11.1c2.6,1.5,5.3,2.7,8.7,3.9L1398.6,510.1z"/>
	</g>
	<g>
		<path class="st2" d="M1456.2,508l-0.2-0.8c1.7-0.5,4-1.1,6.3-1.7c2.3-0.6,4.6-1.2,6.2-1.7c-1.2-4.3-2.5-8.4-3.9-12.6
			c-0.8-2.4-1.6-4.8-2.3-7.4l0.8-0.2c0.8,2.5,1.6,5,2.3,7.3c1.4,4.4,2.8,8.5,4,13l0.1,0.4l-0.4,0.1c-1.7,0.6-4.2,1.2-6.7,1.9
			C1460.2,506.8,1457.9,507.4,1456.2,508z"/>
	</g>
	<g>
		<path class="st5" d="M1391.2,434.6c-2.9,4.1-2.6,9.9-1.4,14.8s2.8,10.4,0.3,14.7c-1,1.7-2.6,3.4-2,5.3c0.7,2,3.3,2.3,5.4,2.3
			c0.7,3.9,2.1,8.6,2.8,12.4c0.3,1.3,0.5,2.7,1.2,3.9c1.4,2.5,4.5,3.6,7.3,3.5c2.8-0.1,5.5-1.3,8.1-2.5c6.5-3,13.3-7,16.1-13.6
			c1.7-3.9,1.8-8.3,1.4-12.6c-0.5-6.8-2-13.6-5.3-19.5c-3.4-5.9-8.8-10.9-15.3-12.7C1403.3,428.8,1395,429.3,1391.2,434.6z"/>
	</g>
	<g>
		<path d="M1402.1,457.9c0.2,1.1-0.6,2-1.6,2.2s-2-0.6-2.2-1.6c-0.2-1.1,0.6-2,1.6-2.2C1401,456.1,1401.9,456.9,1402.1,457.9z"/>
	</g>
	<g>
		<path d="M1395.7,454.7c1.2-2.6,4.6-3.8,7.2-2.6L1395.7,454.7z"/>
	</g>
	<g>
		<path class="st1" d="M1394.8,477.4l-0.3-1.4c3.5-0.4,7.1-0.3,10.7-0.1l0.2,0.8C1401.7,476.8,1398.4,477.1,1394.8,477.4z"/>
	</g>
	<g>
		<path class="st17" d="M1434.8,510.8c-0.3,0-0.5-0.1-0.7-0.2c-4.9-2.2-8.7-4.9-11.4-8.2c-2,1-3.5,2.2-5.2,3.8l0,0
			c-2,1.8-5.1,3.2-8,3.7l-0.1-0.8c2.8-0.5,5.7-1.8,7.6-3.5l0,0c1.8-1.6,3.4-3,5.7-4l0.3-0.1l0.2,0.2c2.7,3.3,6.4,6,11.3,8.2
			c0.1,0,0.2,0.1,0.3,0.1c0.1,0,0.2-0.1,0.2-0.2c2.1-2.1,4.5-4.4,6.8-6.6c2.3-2.2,4.7-4.5,6.8-6.6l0.6,0.6c-2.1,2.1-4.5,4.4-6.8,6.6
			c-2.3,2.2-4.7,4.5-6.8,6.6C1435.4,510.5,1435.2,510.7,1434.8,510.8C1434.8,510.8,1434.8,510.8,1434.8,510.8z"/>
	</g>
	<g>
		<path class="st12" d="M488.2,510.8c-6.9-1.4-13.9-1.9-21-1.3l-0.1-0.8c7.1-0.6,14.2-0.1,21.2,1.3L488.2,510.8z"/>
	</g>
	<g>
		<path class="st12" d="M532.5,631c-2.9,2-21.7,12.6-35.3,17.5c-13.6,4.9-30.1,7.3-33.4,7.9l0.3,0.8c3.2-0.6,19.7-3,33.2-7.8
			c13.7-4.9,32.8-15.7,35.7-17.7L532.5,631z"/>
	</g>
	<g>
		<path class="st1" d="M485.9,412.2c3.8,4,5.6,10,4.8,15.6c-0.6,3.9-2.7,10.9,0,13.8c1.4,1.5,4,3.4,4.6,5.4c0.4,1.4-1,2.8-2.3,3.2
			c-1.3,0.4-2,0.6-3.3,1c-1.1,4.7-1.8,8.9-3.2,13c-0.3,1-0.7,2-1.4,2.7c-1,1-2.4,1.3-3.8,1.5c-9,1.3-20.7-5.6-24.5-10.5
			c-3-3.9-5.5-8.6-6.3-13.6c-0.8-5.6-1.4-11.2-0.7-16.8c0.7-5.6,2.6-11.1,6.3-15.2c3.8-4.3,9.2-6.9,14.8-7
			C476.4,405.1,481.9,408.1,485.9,412.2z"/>
	</g>
	<g>
		<path d="M466.1,395.2c5.2-0.1,10.5,0.3,15.3,2.9s8.6,6.6,11.8,11c2.3,3.2,4.3,6.8,4.1,10.7c-0.3,3.9-2.7,8.4-6.6,7.7
			c-0.3-5.9-3.9-10-7.8-12.3c1.6,3.1,1.1,7.1-1.1,9.7c-2.4,2.8-6.2,3.8-9.7,4.9c-3.5,1.1-6.6,2.1-8.4,4.1c-0.5,0.6-1.3,2.1-1.5,2.4
			c-2.1,4.4-2,7.8-2.7,12.6c-0.6,4.5-1.2,8.9-1.7,13.4c-1.1,9.5-1.7,19.7,2.5,28.3c2.4,4.9,6.3,8.9,9.9,13c3.6,4.1,7.2,8.4,9,13.6
			c1.7,5.2,1.3,11.4-2.5,15.4c-2-5.2-6.1-10.5-10.9-13.3c1.9,2.2,2.6,5.3,1.8,8.1c-0.8,2.8-3,5.1-5.7,6.1c2.1-1.6,1.7-4.4,1.1-6.9
			c-1-4-3.8-7.4-6.9-10.3c-7.8-7.3-17.6-12.5-23.7-21.2c-6.1-8.7-7.6-19.8-7.1-30.4c0.5-10.6,2.9-21,4-31.6c0.6-6.2,0.8-12.6,3-18.5
			c2.1-5.9,6.8-11.3,12.9-12.4c2.6-4,7.9-5.5,12.7-6.1C460.5,395.6,463.3,395.2,466.1,395.2z"/>
	</g>
	<g>
		<path class="st12" d="M551.3,690.7c-10.1-12.6-20.2-23.5-31.8-34.7l-0.1-0.1l0-0.1c-0.3-1.5-0.2-3.8,0.2-5.2l0.8,0.3
			c-0.4,1.2-0.5,3.3-0.2,4.6c11.6,11.2,21.7,22.1,31.7,34.7L551.3,690.7z"/>
	</g>
	<g>
		<path class="st12" d="M505,585.2c2.3,9.2,3.9,16.3,5.5,25.2c1.1,6.3,2.1,12.7,2.9,19.3l-0.8,0.1c-1.9-16-7-39.2-9.1-46.7
			c-2.2-7.5-7.7-21.7-9.5-31.9c-1.9-10.1-2.4-33.8-2.4-34.7c0-0.9,0.8-1.3,0.8,0.1c0,0.7,0.3,5.1,0.7,11.7
			c0.3,5.9,0.6,13.6,1.9,22.1c0.9,6,2,8.2,3.5,13.7C499.9,569.7,503.8,580.3,505,585.2z"/>
	</g>
	<g>
		<path class="st12" d="M611.7,732.2c-6.2-1.3-12.3-3.1-18.3-5.4l0.3-0.8c5.9,2.3,12,4.1,18.1,5.3L611.7,732.2z"/>
	</g>
	<g>
		<path class="st12" d="M610.2,749.1c-5.3-4.7-10.2-10-14.4-15.7l0.7-0.5c4.2,5.6,9.1,10.9,14.3,15.6L610.2,749.1z"/>
	</g>
	<g>
		
			<rect x="528.6" y="725.2" transform="matrix(0.803 -0.596 0.596 0.803 -332.2919 459.5669)" class="st12" width="0.8" height="14.5"/>
	</g>
	<g>
		<polygon points="128.1,658.1 132.3,648.4 133.1,648.7 128.9,658.3 		"/>
	</g>
	<g>
		
			<rect x="529.3" y="722" transform="matrix(0.9968 -7.958622e-02 7.958622e-02 0.9968 -55.7986 44.809)" class="st12" width="9.9" height="0.8"/>
	</g>
	<g>
		<path d="M483.8,438.8c0.1,1-0.6,2-1.6,2.1c-1,0.1-2-0.6-2.1-1.6c-0.1-1,0.6-2,1.6-2.1S483.7,437.8,483.8,438.8z"/>
	</g>
	<g>
		<path d="M477.7,434.4c2.3-1.6,5.9-1,7.5,1.3L477.7,434.4z"/>
	</g>
	<g>
		<path d="M488.3,456.9c-3.1-0.5-5.9-0.7-8.3-0.6l-0.1-0.8c2.4-0.2,5.3,0,8.5,0.6L488.3,456.9z"/>
	</g>
	<path class="st8" d="M208.4,542.4c0,0,1.8-1,3.5-2.2c1.8-1.2,6.6-0.6,6.6-0.6s6.2-30.4,5.4-38.4c-0.7-8-9.2-14.7-9.2-14.7
		s-8.6,26.6-7.7,28.4c0.9,1.8,1.1,18.3,1.1,18.3L208.4,542.4z"/>
	<g>
		<path class="st8" d="M162.6,483.8c0,0-1.2,0.2-4.2,3.2c-4,4.4-4.2,12.4-4.7,17.9c-0.2,2.6,0.3,9.9,0.4,16.2c0.1,3.8,1,8.4,1,9.9
			c0,0,2.8-0.4,3.6-0.1s4.6,1.7,4.6,1.7l4.2-18.2l-1.2-1.4L162.6,483.8z"/>
	</g>
	<g>
		<path class="st2" d="M54.9,858.5c0,0,9.4,15,28.9,3.6c0,0,9-6,9.9-13.3l-0.4,8.6c0,0-9,13.7-22.7,13.7S54.9,863.6,54.9,858.5z"/>
	</g>
	<path class="st7" d="M131.1,582.8c0,0-60-34.3-45.9-67.4l-9.6,10c0,0-17.7,23.9,49.5,67.7L131.1,582.8z"/>
	<path class="st7" d="M117.3,608.2c0,0-65.8-39.1-51.7-72.1c0,0-3.7,4.1-5.6,6.3c-1.8,2.2-4.1,5.1-4.1,5.1s-10.8,28.8,56.4,72.5
		c0,0,1.4-3.6,2.3-5.9C115.8,611.4,117.3,608.2,117.3,608.2z"/>
	<g>
		<path class="st8" d="M90.5,576.5c-3.1,0-6.2-0.2-9.3-0.5l0-0.4c18.7,2.3,37.9-3.1,54.8-7.8l0.1,0.4
			C122,572.1,106.3,576.5,90.5,576.5z"/>
	</g>
	<g>
		<path class="st8" d="M238.6,555.4l-0.4-0.1l1.7-9.5c2.8-13.9,2.5-13.3,3.5-19.9l0.4,0.1c-1,6.4-1.4,10-2.7,15.9L238.6,555.4z"/>
	</g>
	<path class="st7" d="M278.9,548.7c0,0-10.1,6.6-17.6,14.7c-4.8,5.1-5.9,6.5-10.4,16.1c0,0-8.1-2.2-11-6.4c-2.3-3.1-1.8-7.7-1.8-7.7
		s3.4-13.6,33.6-21.9l1.8,4.5L278.9,548.7z"/>
	<path class="st2" d="M1488.4,650c0,0-27.5,16.1-46.4,10.8c0,0-1.5,0.5-0.2,1c0.7,0.3,8.5,2.2,20-0.3c10.5-2.3,24.3-8.9,26.8-10.9
		C1490.3,649.5,1490.1,648.8,1488.4,650z"/>
	<path class="st7" d="M212.2,698.3c0,0-13.5,14.5-47.9,14.1c0,0,15.5,17.2,18.7,21.9c0,0,15.1,6.1,38.5-12.5
		C221.5,721.9,213.5,707.1,212.2,698.3z"/>
	<path class="st12" d="M491.1,555.3c0.9,0,1.6-0.9,1.6-2c0-1.1-0.8-1.9-1.7-1.9c-0.9,0-1.6,0.9-1.6,2
		C489.5,554.5,490.2,555.3,491.1,555.3z"/>
	<path class="st12" d="M498.1,579.2c0.9,0,1.6-0.9,1.6-2c0-1.1-0.8-1.9-1.7-1.9c-0.9,0-1.6,0.9-1.6,2
		C496.4,578.4,497.2,579.3,498.1,579.2z"/>
	<g>
		<path class="st13" d="M4.8,871.1c-1.2-2.9,0.2-6.3,3.1-7.5c2.9-1.2,6.3,0.2,7.5,3.1c5.2,12.5,22,18.4,30.2,18.6
			c16.9,0.1,25-1.2,38.5-11.5c24.8-22.9,61.8-95.5,72.6-116.6c2.6-5.2,5.1-10.1,7.6-14.8c7.3-13.9,14.1-28.5,20.7-42.7
			c14.8-31.6,30.1-64.3,51.8-92.7c17.6-23,35.5-35.3,54.6-37.7c60.6-7.4,149.7-14,149.7-14l-19.8,1.1c0,0,148.3-8.5,228.6,0.9
			c4.6,0.5,9.2,1.1,13.9,1.6c83.4,9.7,156.6,22,258.2,4.5c86.4-14.9,174.3-11.3,256.4-5.2c31.6,2.3,69.4,2.9,119,1.9
			c18.3-0.4,36.9,1,49,13.8c11.5,12.1,23.4,24.6,28,41.9c3.9,14.5,4.4,29.4,4.9,43.8c0.1,2.1,0.1,4.2,0.2,6.3
			c2.8,71.9,19.7,105.8,32.2,125c11.7,18.1,28.4,33.3,47.1,43c12.6,6.6,77.1,6.4,86.7,10.2c8.8,3.6,9.1,9.2,17.6,10.9
			c8.9,1.1,11.3,1.5,12.7,1.9c3,1,5.3,4.1,4.3,7.1c-1,3-4.6,4.3-7.8,3.9c-0.1,0-0.9-0.1-10.6-1.4c-10.9-1.8-13.1-8.8-18.5-10.9
			c-10.8-4.1-75-3.8-89.7-11.5c-20.3-10.6-38.6-27.3-51.4-47c-27.6-42.5-32.7-95-34.1-130.8c-0.1-2.1-0.2-4.2-0.2-6.4
			c-0.5-13.8-1-28.1-4.5-41.3c-3.9-14.5-14.2-25.4-25.2-36.9c-9-9.5-24.8-10.5-40.4-10.2c-50,1-88.2,0.4-120.1-1.9
			c-81.4-6-168.4-9.5-253.6,5.1c-102.5,17.6-177.9,5.3-261.5-4.4c-4.7-0.5-9.3-1.1-13.9-1.6c-79.3-9.3-225.1-1-225.1-1l18.3-1
			c0,0-88.7,6.6-149,14c-15.9,1.9-31.2,12.8-46.9,33.2c-20.9,27.4-36,59.5-50.5,90.6c-6.7,14.2-13.5,28.9-20.9,43.1
			c-2.5,4.7-4.9,9.6-7.6,14.7c-22.2,43.4-51.5,95.3-75.7,118.7c-15.2,12.5-29.3,15-46.7,14.4C33.5,895,11.8,887.8,4.8,871.1z"/>
	</g>
	<g>
		<path class="st5" d="M237.4,577c8.4-3.3,18.1-2.6,27.3-1.9c1.5,0.1,3.1,0.2,4.5,0.7c2,0.7,3.6,2.1,5.1,3.5c2,1.8,4.1,3.7,6.1,5.5
			c0.1,1.1,0,2.4-1.1,2.9c-1.1,0.6-2.6,0.6-3.7,0c1.1,1,0.7,2.9-0.4,3.9s-3.2,0.9-4.3-0.1c0.6,1.2,0,2.7-1.2,3.4
			c-1.3,0.7-3.1,0.5-4.2-0.5c-1,1.8-4,1.8-6.3,1.6c-6.3-0.4-12.4-3.5-18.6-3c-7.2-0.4-28,1.8-28,1.8s-3.5-4-3.7-5.2
			C208.2,586.9,209.5,577.2,237.4,577z"/>
	</g>
	<path class="st7" d="M214.1,611.8c0,0,6.4-1.3,8.9-3.5l1-2.7l-9.6,1.5L214.1,611.8z"/>
	<g>
		<path class="st8" d="M216.5,609.4l-0.4,0c0,0-0.3-1.1-0.3-1.8c0-0.7,0.2-1.9,0.2-1.9l0.4-0.1c0,0,0.3,1.4,0.3,2
			C216.6,608.2,216.5,609.4,216.5,609.4z"/>
	</g>
	<g>
		<path class="st8" d="M214.5,566.6l-0.4,0c0,0-0.3-1-0.4-1.8s0-1.9,0-1.9l0.4-0.1c0,0,0.4,1.3,0.4,1.9S214.5,566.6,214.5,566.6z"/>
	</g>
	<path class="st18" d="M130.5,576.8c1.1,0,2-0.8,2-1.9c0-1.1-0.8-2-1.9-2c-1.1,0-2,0.8-2,1.9C128.6,575.9,129.5,576.8,130.5,576.8z"
		/>
	<path class="st18" d="M118.2,595.1c1.1,0,2-0.8,2-1.9c0-1.1-0.8-2-1.9-2c-1.1,0-2,0.8-2,1.9C116.3,594.1,117.1,595,118.2,595.1z"/>
	<g>
		<path class="st6" d="M130.1,514.7c1.1,0,16.6,3.8,18.8,13.3c0.6,2.8,2.1,8.8,2,17c-0.1,9.6-1.9,21.6-2.1,25.1
			c21.4,3.3,57.8,2.5,85.4,5c-1.8,10.3-2.6,21.2-5.7,30.8c-27.9,3.2-52.7,2-86.2,0.9c-17.3-1.2-35-1.8-44-13.7
			c-6.7-8.9-8.1-23.3-1.7-50.5C102.1,525.6,107.6,514.7,130.1,514.7z"/>
	</g>
	<path class="st7" d="M97.4,591.8c9.3-21.5,52.2-27.2,52.2-27.2l-0.8,5.6l9.1,0.9c-4,1.9-10.2,5.3-19.5,13.5
		c-8.6,7.6-15.1,20.4-15.1,20.4s-10.8-1.4-17.7-5.6C98.6,595.3,97.4,591.8,97.4,591.8z"/>
	<g>
		<path class="st8" d="M148.5,570.4l0.4,0.1c26.4,3.6,57.8,2.5,85.1,4.9c-1.9,10.5-2.6,20.7-5.6,30.4c-28.9,3.2-58.9,1.9-86,0.9
			c-41.4-1.5-58.2-10.6-45.5-63.9l-0.4-0.2c-12.2,52.1,2,63,45.8,64.5c13.9,0.5,53.7,2.7,86.2-0.9l0.1,0l0-0.1
			c2.8-8.7,3.9-20.2,5.7-30.8l0-0.2l-0.2,0c-15.2-1.4-40.8-1.8-60.7-2.9c-15.8-0.9-24.6-2-24.6-2s3.7-20.7,0.7-32.8
			c-2.5-10.9-5.2-16.1-5.2-16.1l-0.2,0.3c0,0,2.7,5.8,5,15.9S149.8,561.9,148.5,570.4z"/>
	</g>
	<g>
		<path class="st8" d="M93.9,549l0.4,0c-0.8-4.7-1.2-8.7,1.1-10.9l-0.3-0.2C92.7,540.1,92.9,543.6,93.9,549z"/>
	</g>
	<g>
		<path class="st8" d="M145.5,570.9c-11.3,1.4-22.1,5.8-31.3,12.6l-0.2-0.3c9.2-6.9,20.1-11.3,31.5-12.7L145.5,570.9z"/>
	</g>
	<g>
		<path class="st8" d="M142.1,569.3c-6.8,0.4-13.8-1.1-19.7-4.4l-0.2,0.4c6,3.3,13.1,4.8,19.9,4.4L142.1,569.3z"/>
	</g>
	<g>
		<path class="st5" d="M358.7,555.6c1.2-0.5,4,0,6,0.6c1,0.3,1.8,0.9,2.6,1.5c2.3,1.9,4.2,4.3,5.6,6.9c-1.8,1.2-4.1,1.7-6.1,0.6
			c-2-1.1-3.3-3.1-5.1-4.5c-0.9-0.7-1.9-1.2-2.6-2C358.3,558,358,556.3,358.7,555.6z"/>
	</g>
	<g>
		<path class="st5" d="M379.5,574.5c-1.2-2.7-3.1-5.2-5.4-7.2c-0.6-0.5-1.3-1-2-1.3s-1.7-0.2-2.3,0.4c-1,1-0.2,2.7,0.6,3.8
			c-1-1.3-2.3-2.4-3.8-3.2c-1.5-0.8-3.6-1.3-4.8-0.1c-1.2,1.2-0.5,3.2,0.4,4.7c-1.2-1.1-3.1-2.6-4.7-2c-0.9,0.4-1.4,1.4-1.4,2.3
			c0,0.9,0.5,1.8,1,2.6c-0.3-1.3-2.4-1.2-3.5-0.4c-1,0.8-1.1,2.3-0.8,3.6c0.4,1.4,1.4,2.8,2.9,3.4c1.5,0.6,3.4,0,4-1.3
			c1.7,1.1,4.8,0,5-1.9c1.8,1.3,5,0.1,5.4-1.9c1.5,0.7,4,1.6,5.8,1.6C377.7,577.5,380.2,576,379.5,574.5z"/>
	</g>
	<g>
		<path class="st14" d="M352.6,577.8c-0.4-1.3-0.3-3,0.9-4c0.7-0.5,1.7-0.8,2.6-0.7c-0.1-0.4-0.2-0.8-0.3-1.3c0-1.2,0.6-2.3,1.6-2.7
			c1.2-0.5,2.5,0.1,3.7,0.9c-0.5-1.5-0.4-2.7,0.5-3.5c1.4-1.3,3.7-0.8,5.3,0.1c0.8,0.4,1.4,0.9,1.9,1.3c-0.1-0.8,0.2-1.4,0.7-2
			c0.6-0.6,1.7-0.8,2.7-0.5c0.9,0.3,1.6,0.8,2.2,1.4c2.4,2.1,4.3,4.6,5.5,7.4l-0.7,0.3c-1.2-2.6-3-5.1-5.3-7.1
			c-0.6-0.5-1.2-1-1.9-1.2c-0.7-0.2-1.5-0.1-1.9,0.3c-1,0.9-0.2,2.3,0.3,3.1l-0.7,0.5c-1.1-1.3-1.9-2.1-3.3-2.8
			c-1.4-0.8-3.3-1.2-4.3-0.2c-1,1-0.3,2.8,0.5,4.2l1.5,2.5l-2.1-2c-1-1-2.9-2.5-4.2-1.9c-0.8,0.3-1.1,1.2-1.1,1.9
			c0,0.6,0.3,1.3,0.6,1.8c0.2,0.2,0.4,0.5,0.4,0.8l0.5,2.2l-1.2-1.9c-0.1-0.2-0.2-0.4-0.3-0.6c-0.1-0.1-0.2-0.1-0.3-0.1
			c-0.7-0.2-1.7-0.1-2.2,0.4c-0.9,0.7-0.9,2.1-0.6,3.1L352.6,577.8z"/>
	</g>
	<g>
		<path class="st14" d="M370.6,576.2l-0.6-0.6c2-2.2-0.6-6.1-0.7-6.1l0.7-0.5C370.1,569.3,373,573.5,370.6,576.2z"/>
	</g>
	<g>
		<path class="st14" d="M365.3,577.9l-0.8-0.2c0.5-2.4-2.4-5.8-2.5-5.8l0.6-0.5C362.8,571.6,365.8,575.1,365.3,577.9z"/>
	</g>
	<g>
		<path class="st14" d="M359.6,579.9c-1.1-2.3-2.6-5.2-2.6-5.2l0.7-0.4c0,0,1.5,2.9,2.7,5.2L359.6,579.9z"/>
	</g>
	<g>
		<path class="st14" d="M369.4,566.2c-0.2,0-0.3,0-0.5,0c-2.4-0.2-4.8-2-7.1-5.3l0.7-0.5c2.1,3.1,4.3,4.7,6.5,4.9
			c2.1,0.2,3.4-1.1,3.4-1.1l0.6,0.6C372.9,564.9,371.5,566.2,369.4,566.2z"/>
	</g>
	<g>
		<path class="st1" d="M602.5,568c5.4,1,10.9,1.6,16.4,1.7c2.3,0,4.6,0,6.8-0.7c2.2-0.7,4.2-2.1,5.3-4.1c1.4-2.8,0.4-7-0.7-9.9
			c-1.2-3.4-4.9-5.8-8.6-5.4c-1.6-1.4-4.9-1.1-6.1,0.6c-1-0.5-2.3-1-3.3-1s-2.2,0.7-2.3,1.8c-0.2,1.9,0.9,3.8,2.2,5.3
			c0.6,0.7,1.2,1.4,1.6,2.2c0.7,1.5,0.4,3.4-0.6,4.6C609.6,563.5,605.1,565.7,602.5,568z"/>
	</g>
	<g>
		<path class="st13" d="M619.4,563c-0.1-0.5-0.2-1.1-0.2-1.6c-0.1-1.2-0.3-2.5-0.9-3.5c-0.8-1.1-1.8-2.1-3.1-3.2
			c-0.9-0.7-1.9-1.5-3-1.8c-0.4-0.1-0.8-0.1-1,0c-0.2,0.1-0.3,0.4-0.2,0.7c0.4,1,1,1.9,1.7,2.8c0.1,0.1,0.2,0.3,0.3,0.4
			c0.5,0.5,0.9,1.1,1.2,1.8c0.6,1.5,0.1,3.6-0.6,4.9l-0.7-0.4c0.6-1.2,1.1-3,0.6-4.2c-0.2-0.6-0.6-1-1.1-1.5
			c-0.1-0.1-0.2-0.3-0.3-0.4c-0.8-0.9-1.4-1.9-1.8-3c-0.3-0.6,0-1.4,0.6-1.7c0.4-0.2,1-0.2,1.6,0c1.3,0.3,2.3,1.2,3.3,2
			c1.2,1,2.4,2,3.3,3.3c0.8,1.1,0.9,2.5,1.1,3.8c0.1,0.6,0.1,1.1,0.2,1.6L619.4,563z"/>
	</g>
	<g>
		<path class="st13" d="M623.8,562.1c-0.9-4.9-2.9-8.1-6.2-10.4c-0.7-0.5-1.8-1.2-2.6-1.6c-0.7-0.4-1.1-0.6-2-0.6
			c-1.1-0.1-1.8,0.1-2.1,0.5c-0.4,0.5-0.4,1.1,0,2.3l-0.8,0.3c-0.3-1-0.6-2.2,0.1-3.1c0.7-0.9,2-0.9,2.8-0.8
			c0.9,0.1,1.5,0.2,2.3,0.7c0.7,0.4,1.9,1.1,2.6,1.6c3.5,2.5,5.6,5.8,6.6,10.9L623.8,562.1z"/>
	</g>
	<g>
		<path class="st13" d="M627.6,562c-0.3-1-0.5-1.9-0.7-2.8c-0.7-2.7-1.3-5.3-3.2-7.5c-1.1-1.3-2.3-2.1-3.6-2.5c-1.5-0.4-3-0.2-4,0.7
			l-0.5-0.6c1.2-1,3.1-1.3,4.8-0.8c1.4,0.4,2.7,1.3,4,2.7c2.1,2.3,2.7,5,3.4,7.8c0.2,0.9,0.4,1.8,0.7,2.7L627.6,562z"/>
	</g>
	<g>
		<path class="st13" d="M631.1,561.8c-0.2-1.9-0.3-3.8-0.9-5.6c-0.6-2-1.6-3.6-2.8-4.7c-1.4-1.2-3.1-1.6-4.8-1.2l-0.2-0.8
			c2-0.4,4,0,5.6,1.4c1.4,1.2,2.4,3,3.1,5.1c0.6,1.9,0.7,3.8,0.9,5.8L631.1,561.8z"/>
	</g>
	<g>
		<path class="st1" d="M503.1,555.9c2.4-1.6,4.8-3.3,7.6-4.2c4.4-1.5,9.3-1,13.8-2.1c2.1-0.5,4.1-1.4,6.3-1.6
			c2.1-0.2,5.1-0.6,6.3,1.2c0.4,2.5-4.5,5.1-7.5,5.4c4.4,2.1,8.5,4.4,12.5,7c0.5,0.4,1.1,0.7,1.4,1.3c0.7,1.3-0.2,3-1.5,3.6
			c-1.3,0.7-2.8,0.6-4.3,0.5c-2.2,2-5.9,2.9-8.6,1.7c-0.5-0.2-1-0.5-1.5-0.3c-0.4,0.2-0.6,0.6-0.8,0.9c-0.8,1.1-2.2,1.5-3.5,1.4
			s-2.6-0.5-3.9-0.9c-4.1-1.3-8.5-2-12.8-1.9c-0.6,0-1.9,0.2-1.9,0.2s-0.4-1.4-0.6-2C503.5,563.8,503.3,558.4,503.1,555.9z"/>
	</g>
	<path class="st1" d="M441.4,556.8c6.2,7.4,8.9,8,11.6,8.3c2.7,0.3,14.1-1.8,21.4-3.2c7.5-1.4,23.6-4.7,28.8-6.2
		c4.2,0.4,5.3,7.3,6.1,11.2c-1.5,0.5-2.9,0.7-4.6,1.2c-22.6,6.7-60.9,17.4-67.8,17.3c-8.5-0.2-12.9-3.8-19.3-23.7L441.4,556.8z"/>
	<g>
		<path class="st11" d="M416.7,570.6c-3-25.1-2.7-46.1,3-70.3c9.2-1.9,18.6,0.6,24.2,8.2c5.5,7.6,7.3,17.4,6.7,26.7
			c-0.3,3.7,0.7,7.7,0.3,11.5c-0.5,5,0.3,12.5,0.7,17.6c0,0-32.2,6.8-33.1,6.8C416.7,571.1,416.7,570.6,416.7,570.6z"/>
	</g>
	<g>
		<path class="st12" d="M451,554.4l-0.3,0l-0.1-0.3c0-0.1-1.1-7.5-1.7-22.8l0.8,0c0.6,13.8,1.3,20.4,1.6,22.4"/>
	</g>
	<g>
		<path class="st12" d="M515.7,541.7l0.8,0c0.1-4-1.4-9.8-2.7-13.6l-0.8,0.3C514.3,532.1,515.7,537.9,515.7,541.7z"/>
	</g>
	<g>
		<path class="st13" d="M529.5,555.1l-0.3-0.8c0.5-0.2,0.9-0.3,1.4-0.4c1.1-0.3,2.2-0.7,3.3-1.2c1.6-0.8,2.7-2.1,2.9-3.4l0.8,0.1
			c-0.3,1.6-1.5,3.1-3.3,4c-1.1,0.6-2.3,0.9-3.4,1.2C530.5,554.8,530,554.9,529.5,555.1z"/>
	</g>
	<g>
		<path class="st5" d="M993,546c-13.4,3.4-27.8,1-40.7,6.1c-2.1,0.9-4.2,1.9-6.3,3c-2,1-3.9,2-5.9,3c-1.6,0.8-3.6,0.8-5.3,1.4
			c-0.2,0.1-0.5,0.2-0.6,0.4c-0.3,0.4-0.1,1,0.2,1.4c1.2,1.8,3.6,2.8,5.6,2.2c-0.4,0.4-1,0.9-1.5,1.3c-0.7,0.6-1.4,1.2-1.9,2
			c-0.5,0.8-0.8,1.7-0.7,2.6c0.3,1.5,1.7,2.5,3.2,2.7c1.5,0.2,2.9-0.3,4.3-0.9c-0.3,0.7-0.6,1.7-0.3,2.5c0.2,0.6,0.8,1.1,1.4,1.3
			c1.2,0.4,2.5,0.3,3.6-0.1s2.3-1,3.3-1.7c0.3,1.4,1.4,2.3,2.8,2.3c1.4,0.1,2.7-0.4,4-1c1.5,3.6,7.9,0.9,11.2-1.3
			c3.3-2.2,6.1-5.3,9.7-7.1c2.4-1.2,4.9-1.7,7.5-2.2c3.9-0.8,7.7-1.5,11.6-2.3c-1.7-4.5-3.6-9.2-4.8-13.9
			C993.6,547.6,992.8,546.3,993,546z"/>
	</g>
	<g>
		<polygon class="st9" points="1001.5,541.9 990.1,544 994.6,566.3 1006.4,564.3 		"/>
	</g>
	<g>
		<path class="st14" d="M1047.9,565.8c3-3.6,6-6,9.5-9c1.3-1.1,4.1-1.5,5.4-0.4l-0.6,2.3c1.2-1.3,2.7-2,4.1-1.5
			c1.4,0.5,1.9,2.8,0.6,3.5c0.9-0.9,2.1-1.6,3.4-1.3c1.3,0.3,1.9,2.4,0.7,2.9c0.6-0.9,1.6-1.2,2.7-1c0.7,0.1,1.3,0.7,1.3,1.5
			c0.1,2.1-1.6,4.3-3.3,5.9c-1.5,1.5-3.6,3.2-5.5,2.2c-0.6-0.3-1-1.4-1.6-1.1c-0.8,0.4-1.5,0.4-2.4,0.4c-1.3-0.1-2.8-0.8-3.2-2.1
			c-2.2,1.6-4.1,1.1-5.1-0.9C1052,568.7,1048.5,568.2,1047.9,565.8z"/>
	</g>
	<g>
		<path class="st14" d="M1048.2,566.1l-0.6-0.5c2.4-3,5-5.2,7.7-7.5c0.6-0.5,1.2-1.1,1.9-1.6c0.7-0.6,1.8-1,2.9-1.1
			c0.8-0.1,1.6,0.2,2.1,0.9c0.4,0.4,0.6,0.9,0.6,1.5c1.2-1,2.5-1.3,3.7-0.8c0.9,0.3,1.6,1.3,1.6,2.3c0,0,0,0.1,0,0.1
			c0.7-0.4,1.5-0.5,2.3-0.3c1,0.2,1.6,1.2,1.7,2c0.5-0.2,1-0.2,1.7-0.1c0.9,0.1,1.7,0.9,1.7,1.8c0.1,2.4-2.5,4.5-4,6l0.1-0.4
			c1.4-1.4,3.2-3.5,3.1-5.6c0-0.5-0.4-1-1-1.1c-0.7-0.1-1.3,0-1.7,0.3c-0.1,0.3-0.4,0.6-0.8,0.7l-1.2,0.5l0.7-1.1
			c0.2-0.2,0.3-0.5,0.6-0.6c0-0.1,0-0.2,0-0.3c-0.1-0.5-0.5-1.2-1-1.3c-0.8-0.2-1.6,0.1-2.4,0.7c-0.2,0.2-0.4,0.4-0.7,0.6l-2.2,1.1
			l1.8-1.8c0.2-0.2,0.3-0.3,0.5-0.5c0.1-0.3,0.2-0.6,0.1-0.7c0-0.6-0.4-1.4-1.1-1.6c-1.4-0.5-2.8,0.5-3.7,1.4l-1,1.1l0.4-1.8
			c0.1-0.5,0-1.1-0.4-1.6c-0.4-0.4-0.9-0.6-1.4-0.6c-1,0.1-1.9,0.4-2.5,0.9c-0.6,0.6-1.3,1.1-1.9,1.6
			C1053,561.1,1050.6,563.1,1048.2,566.1z"/>
	</g>
	<g>
		<path d="M1181.1,457.6c-2.4-0.8-7.7-3.3-10.3-3.2c-5.7,0.2-9.1,3.7-14.1,6.4c-2.4,1.3-4.9,2.6-7,4.4c-3.3,2.8-8.9,9.4-8.9,9.4
			s-13.2,5.6-23.2,14.8c-8,6.9-16.1,12.9-23.6,18.8c-9.1,7.1-17.4,13.1-29.3,17c-5,1.6-11.9,3.5-17,4.6
			c-18.4,4.3-29.8,6.7-50.2,10.5c1.9,8.6,2.6,17.9,4.5,26.4c35.8-5.2,46.5-7.7,79-15.1c1.3-0.3,6.2-1.6,7.2-2
			c14.3-5.8,38-14.6,47.7-24.7c10.2-10.7,16.8-21.6,9.1-41.1c-0.7-1.7-0.3-3.8,0.8-5.2c0.8-0.9,2.1-1.3,3.3-1.7
			C1161.5,473.2,1174.3,468.8,1181.1,457.6z"/>
	</g>
	<g>
		<path class="st2" d="M1094.2,546.9l-0.3-0.8c5.5-2.1,32.5-14.9,36.2-16.3c7-2.6,13.7-4.7,20.9-10.7l0.5,0.6
			c-7.3,6.1-14,8.2-21.1,10.9C1126.7,532,1099.7,544.8,1094.2,546.9z"/>
	</g>
	<g>
		<path class="st2" d="M1165.5,477.2c-7.1-0.9-14.4-1.3-21.6-1.3l0-0.8c7.2,0,14.5,0.4,21.7,1.3L1165.5,477.2z"/>
	</g>
	<g>
		<path class="st2" d="M1153.9,514.5l-0.8-0.1c1.1-10.3-0.6-20.8-4.8-30.2c-0.9-1.9-1.9-4.1-3.6-5.9l0.6-0.6
			c1.7,1.9,2.8,4.1,3.7,6.1C1153.4,493.5,1155,504.1,1153.9,514.5z"/>
	</g>
	<g>
		<path class="st2" d="M1085.9,532.8c-7.4-1.1-13-3-19.9-6.1l0.3-0.7c9.2,4.1,19.5,6.6,25,6.6l0,0.8
			C1088.8,533.2,1088.5,533.2,1085.9,532.8z"/>
	</g>
	<g>
		<path class="st2" d="M1133.9,497.1c-6.4-1.9-13.5-1.4-19.6,1.2l-0.3-0.8c6.3-2.7,13.6-3.2,20.2-1.3L1133.9,497.1z"/>
	</g>
	<g>
		<path class="st2" d="M1150.1,530.8c-6.9,1.3-13.9,2-20.9,2l0-0.8c7.9,0,15.9-0.8,23.6-2.6l0.2,0.8
			C1152.1,530.4,1151.1,530.6,1150.1,530.8z"/>
	</g>
	<g>
		<path class="st14" d="M940,563.8l-0.3-0.8c4.1-1.6,9.1-3.6,12.1-7.5l0.7,0.5C949.4,560.1,944.2,562.2,940,563.8z"/>
	</g>
	<g>
		<path class="st14" d="M961.2,576.8c-0.4,0-0.7-0.1-1-0.2c-0.8-0.3-1.4-0.7-1.8-1.4c-1.2,0.5-2.5,0.9-3.8,0.8
			c-1.4-0.1-2.5-0.9-3-2.1c-0.9,0.6-1.9,1.1-3,1.5c-1,0.3-2.5,0.6-3.9,0.1c-0.8-0.3-1.4-0.9-1.7-1.5c-0.2-0.6-0.2-1.3,0-1.9
			c-1.2,0.4-2.4,0.7-3.6,0.6c-1.5-0.2-3.2-1.3-3.5-3c-0.2-0.9,0.1-2,0.7-2.9c0.5-0.8,1.2-1.5,1.9-2.1c0.1-0.1,0.3-0.3,0.5-0.4
			c-1.8,0-3.7-0.9-4.7-2.5c-0.4-0.7-0.5-1.3-0.2-1.8l0.7,0.5c-0.1,0.2,0,0.6,0.2,0.9c1.1,1.7,3.3,2.5,5.2,2l1.7-0.5l-1.3,1.2
			c-0.2,0.2-0.5,0.4-0.7,0.7c-0.3,0.2-0.5,0.5-0.7,0.7c-0.6,0.6-1.3,1.2-1.8,1.9c-0.5,0.8-0.7,1.6-0.6,2.4c0.2,1.4,1.6,2.2,2.8,2.4
			c1.4,0.2,2.7-0.3,4.1-0.8l0.9-0.4l-0.4,0.9c-0.4,0.8-0.5,1.6-0.3,2.1c0.2,0.6,0.9,0.9,1.2,1.1c1.2,0.5,2.5,0.2,3.4-0.1
			c1.1-0.4,2.2-1,3.3-1.7l0.5-0.3l0.1,0.6c0.3,1.2,1.2,1.9,2.4,2c0,0,0,0,0,0c1.3,0.1,2.7-0.5,3.8-0.9l0.4-0.2l0.2,0.4
			c0.3,0.7,0.8,1.1,1.5,1.3c2.5,0.8,6.8-1.3,9.1-2.8l0.5,0.7C968.1,575,964.1,577,961.2,576.8z"/>
	</g>
	<g>
		<path class="st14" d="M1054.2,567.5l-0.6-0.5c0.9-1.1,2.2-2.3,3.6-3.6c1.8-1.7,3.7-3.5,4.8-5.1l0.7,0.5c-1.2,1.7-3.1,3.5-4.9,5.2
			C1056.4,565.2,1055.1,566.4,1054.2,567.5z"/>
	</g>
	<g>
		<path class="st14" d="M1059.4,568.6l-0.6-0.6c0.7-0.7,1.5-1.5,2.4-2.3c0.6-0.6,1.2-1.1,1.7-1.6c0.5-0.5,1.1-1.1,1.7-1.6
			c0.9-0.9,1.9-1.8,2.8-2.8l0.6,0.5c-0.9,1-1.9,1.9-2.8,2.8c-0.6,0.5-1.1,1.1-1.6,1.6c-0.5,0.5-1.1,1.1-1.7,1.6
			C1060.9,567.1,1060.1,567.9,1059.4,568.6z"/>
	</g>
	<g>
		<path class="st14" d="M1065.4,569.8l-0.6-0.5c1.4-1.9,2.8-3.5,4.1-5c0.7-0.8,1.4-1.7,2.1-2.5l0.6,0.5c-0.7,0.9-1.4,1.7-2.1,2.5
			C1068.2,566.4,1066.9,568,1065.4,569.8z"/>
	</g>
	<g>
		<path class="st5" d="M1229.8,554c-1.1-0.8-4.1-0.8-6.1-0.5c-1,0.1-2,0.6-2.9,1.2c-2.7,1.7-5.1,3.9-6.9,6.4c1.6,1.7,3.8,2.7,6,1.9
			c2.3-0.7,3.9-2.7,5.9-3.9c1-0.6,2.1-0.9,3-1.7C1229.7,556.7,1230.4,555,1229.8,554z"/>
	</g>
	<g>
		<path class="st5" d="M1205.3,570.6c1.7-2.7,4.1-5.1,6.8-6.8c0.7-0.5,1.5-0.9,2.3-1c0.8-0.1,1.8,0.2,2.2,0.9c0.9,1.3-0.3,3-1.4,4.1
			c1.3-1.2,2.8-2.1,4.4-2.7c1.7-0.6,3.9-0.7,4.8,0.8c1,1.6-0.1,3.6-1.3,5.1c1.4-1,3.6-2.3,5.1-1.3c0.9,0.6,1.1,1.8,0.9,2.8
			c-0.2,1-0.8,1.9-1.5,2.7c0.5-1.3,2.7-0.8,3.6,0.3c0.9,1.1,0.7,2.8,0.1,4.1c-0.7,1.5-1.9,2.8-3.5,3.1c-1.6,0.3-3.5-0.7-3.8-2.3
			c-1.9,0.8-4.8-1-4.6-3.1c-2.1,1-5-0.9-5-3.1c-1.7,0.5-4.4,0.9-6.1,0.5C1206.6,574.2,1204.4,572.1,1205.3,570.6z"/>
	</g>
	<g>
		<path class="st14" d="M1231.7,579.7l-0.7-0.3c0.5-1.1,0.7-2.6-0.1-3.6c-0.5-0.6-1.4-1-2.1-0.9c-0.1,0-0.2,0.1-0.3,0.1
			c-0.1,0.2-0.3,0.4-0.4,0.5l-1.5,1.8l0.8-2.2c0.1-0.3,0.3-0.6,0.6-0.7c0.4-0.5,0.8-1.2,0.9-1.9c0.2-0.9-0.1-1.9-0.8-2.4
			c-1.2-0.9-3.4,0.4-4.6,1.3l-2.4,1.7l1.8-2.3c1.1-1.3,2.1-3.2,1.3-4.6c-0.8-1.2-2.8-1.2-4.3-0.7c-1.5,0.5-2.5,1.2-3.8,2.4l-0.6-0.6
			c0.7-0.7,1.7-2.1,0.9-3.4c-0.4-0.6-1.2-0.8-1.8-0.7c-0.8,0.1-1.5,0.5-2.1,0.9c-2.7,1.7-5,4-6.6,6.7l-0.7-0.4
			c1.8-2.8,4.1-5.2,6.9-7c0.7-0.5,1.5-0.9,2.5-1c1.1-0.1,2.1,0.3,2.6,1c0.5,0.7,0.6,1.5,0.3,2.3c0.6-0.4,1.3-0.8,2.2-1.1
			c1.9-0.7,4.3-0.6,5.3,1c0.7,1.1,0.6,2.4-0.2,3.9c1.6-0.8,3-0.9,3.9-0.3c0.9,0.6,1.4,1.9,1.1,3.2c-0.1,0.5-0.3,1-0.5,1.4
			c0.9,0,1.9,0.5,2.5,1.2C1232.6,576.5,1232.3,578.4,1231.7,579.7z"/>
	</g>
	<g>
		<path class="st14" d="M1214,574.3c-1.9-3.4,1.8-7.5,1.9-7.6l0.6,0.6c0,0-3.5,3.8-1.8,6.7L1214,574.3z"/>
	</g>
	<g>
		<path class="st14" d="M1219,577.2c0-3.2,3.7-6.4,3.9-6.5l0.5,0.6c0,0-3.6,3.1-3.6,5.9L1219,577.2z"/>
	</g>
	<g>
		<path class="st14" d="M1224.4,580.5l-0.7-0.5c1.6-2.3,3.6-5.2,3.6-5.2l0.7,0.5C1228,575.4,1225.9,578.2,1224.4,580.5z"/>
	</g>
	<g>
		<path class="st14" d="M1218.1,563.6c-0.2,0-0.3,0-0.5,0c-2.5-0.2-3.8-2.2-3.9-2.3l0.7-0.4c0,0,1.1,1.7,3.3,1.9
			c2.2,0.2,4.7-1.2,7.4-4.1l0.6,0.6C1223,562.1,1220.5,563.6,1218.1,563.6z"/>
	</g>
	<g>
		<path class="st5" d="M1346.3,563.1c-3.9-1.2-5.3-1.2-10.6-1.4c-1.5,0-3.1-0.1-4.6,0.4c-2.1,0.6-3.9,2.1-5.5,3.5
			c-2.2,1.9-4.5,3.9-6.7,5.8c-0.3,1.3-0.2,2.8,0.8,3.6c1,0.8,2.6,1,3.8,0.4c-1.3,1-1,3.4,0,4.6c1,1.3,3.1,1.5,4.4,0.4
			c-0.7,1.4-0.3,3.2,0.9,4.2c1.2,1,3.1,0.9,4.3-0.1c0.8,2.2,3.9,2.6,6.3,2.7c6.5,0.2,10.6-2.1,17.8-1.9c1.1,0.2,6.1,0,7.4,0.2
			c3.5,0.7,5.8,2.2,5.8,2.2l2.4-16.1c0,0-1.6-0.2-6.5-1.6C1364.6,569.6,1349.4,564.1,1346.3,563.1z"/>
	</g>
	<g>
		<path class="st9" d="M1377.2,571.5l-10.4-2.5c0,0,0.6,14-1,21.3l13.1,3.9L1377.2,571.5z"/>
	</g>
	<g>
		<path d="M1491.6,504.1c3.4,5.9,2,43.2,1,49.9c-3.4,23-10.4,37.4-16.3,45.9c-6,8.5-18,12.5-22.7,13.4c-8.7,1-17.9,0.2-26.5-1.4
			c-19.2-3.5-36.3-8.8-54.4-16.2c1.4-9.6,1.9-16.8,1.7-25.4c10.8,2.7,61.3,8.6,66.9,8.3c2.3-9.2,5.2-21.5,6.7-27.2
			c2-7.8,7.3-18.4,10.5-23.8C1464.5,517.2,1479.8,506.3,1491.6,504.1z"/>
	</g>
	<g>
		<path class="st2" d="M1462.4,611.9c-32.3,10.2-89-15.6-89.6-15.8l-0.4-0.1l0.1-0.4c1.8-8.2,1.8-17.9,1.6-25.8l0.8-0.1
			c0.5,8.7,0.3,17.5-1.5,25.7c5,1.6,57.6,25.3,90.1,15.1l0.3,0.9C1463.4,611.6,1462.8,611.8,1462.4,611.9z"/>
	</g>
	<g>
		<path class="st2" d="M1446.8,559.3c3.9-12.3,10.7-32.6,23.7-45.7l0.6,0.6c-13.2,13.9-19.5,33.2-23.6,45.5L1446.8,559.3z"/>
	</g>
	<g>
		<path class="st2" d="M1458.7,587.7c-4.5-7.8-13.1-8.5-16.9-9l0.1-0.8c4.4,0.5,12.8,1.4,17.4,9.4L1458.7,587.7z"/>
	</g>
	<g>
		<path class="st2" d="M1444.2,577.6l-0.2-0.8c7-1.6,7.3-2,15.9-3.4l0.1,0.8C1451.4,575.6,1451.4,576,1444.2,577.6z"/>
	</g>
</g>
<path class="st2" d="M1167.1,635c-11.5-4.9-25.8-14.4-39-19.2c-0.8-0.2-1,0.6-0.3,1c13.4,4.8,27.9,14.5,39.5,19.4
	c10.6,4.5,27,6.3,39.1,3.9c0.7-0.1,0.9-1.3-0.1-1.2C1194.2,641.3,1177.7,639.5,1167.1,635z"/>
<path class="st2" d="M1385.7,663.6c1.3,0.4,9.5,2.1,13.6,0.3c3.8-1.7,6.4-5.5,7.6-9.6c1.2-4,1.4-11.3,1.4-12.5
	c0-1.2,0.8-2.1,0.8,0.8c0,2.8-0.1,8.2-1.3,12.2c-1.2,4-3.8,7.8-7.6,9.6c-4.1,1.9-10,1.4-13.1,0.3
	C1384.3,663.7,1385,663.3,1385.7,663.6z"/>
<circle class="st3" cx="1153.9" cy="454.9" r="2.2"/>
<path class="st7" d="M1154.3,452.7c0.5,0.3,0.8,0.9,0.9,1.5c0.3,0.9-0.4,1.9-1.2,2.3c-0.5,0.2-1,0.5-1.5,0.3
	c0.6,0.4,1.3,0.5,1.9,0.3c1.2-0.4,1.8-1.6,1.4-2.8C1155.7,453.3,1155,452.9,1154.3,452.7z"/>
<path d="M1449,423.5c-3.8-5.3-10.7-8.1-17.1-7.1c-2.6-4.3-10.1-6.2-15.6-5.6c-5.2,0.6-10.2,2.2-14.8,4.6
	c-13.9,2.9-17.6,10.8-17.6,10.8c2.1-0.9,4-1.5,5.7-2.1c-2.6,2.6-4.8,5.7-5.5,9.3c-0.9,4.2,1,9.9,4.8,11.8c0.9-3,3.3-5.5,6.3-6.5
	c2.7-0.9,5.6-0.7,8.4-1.4c3.4-0.9,6.3-3.2,8-6.2c0.5,4.3,1,8.4,3.7,11.8c1,1.3,2.4,2.3,3.4,3.6c1.1,1.4,1.9,3,2.3,4.7
	c0.3,1.4,0.4,2.8,1.1,4c0.7,1.2,2.4,2.1,3.5,1.3c3.1-2,8.4-1.9,10.4,1.2c1.2,1.9,1.3,4.3,1.7,6.5c0.4,2.2,1.2,4.7,3.2,5.7
	c1.9,1,4.3,0.6,6.4,0c-1.2-9.2-0.2-19,3.2-27.6C1452.6,436.6,1452.8,428.8,1449,423.5z"/>
<g>
	<path class="st5" d="M1426.1,456.8c1-3,3.3-5.5,6.1-6.9c1.2-0.6,2.5-0.9,3.8-0.7c2.2,0.4,3.7,2.5,4.2,4.7c0.8,3.6-0.6,7.5-3,10.3
		c-2.4,2.8-5.7,4.7-9.1,6.2C1427.5,466.5,1424.9,460.6,1426.1,456.8z"/>
</g>
<path class="st19" d="M660.9,827.6c0,0-3,0-5.1,0.4c-2.3,0.5-3.7,1.4-3.7,1.7c0,0.7,1.8,2.6,1.8,2.6s-2.6-1.8-3.6-1.9c-1,0,0,0,0,0
	c-2.3,0.4-4.8,0.6-7.2,0.4c-5.5-0.4-8.6-3.5-10.3-5.5c-1,1.8-0.8,3-1.7,4.8c-1.1,2-2.2,4.1-2,6.4c0.2,2.4-1.2,6.9,0.4,9.1
	c1.6,2.2,11.6,5.3,13.3,5c2.6-1.2,9,1.5,9,1.5s12.2,4.2,16.8,4.2c4.6,0,10-0.8,14.3-2.3c0.9-0.3,4.2-2.6,4-4.6
	C687.9,838.7,660.9,827.6,660.9,827.6z"/>
<path class="st7" d="M654.2,832.3c0,0,3.3-2.7,10.5-2.9l1.3,0.6c0,0-7.4,0.9-10.9,3L654.2,832.3z"/>
<path class="st7" d="M657.3,833.7c0,0,3.2-2.6,10.3-2.9l1.3,0.6c0,0-7.2,0.8-10.6,3L657.3,833.7z"/>
<path class="st7" d="M660,834.9c0,0,3.2-2.5,10.1-2.8l1.2,0.6c0,0-7,0.8-10.4,2.9L660,834.9z"/>
<path class="st3" d="M642.7,847.7c1,0.1,2.9-0.6,9.1,1.7c6.2,2.3,10.6,4.2,16.7,4c14.6-0.5,18.3-5.3,18.3-5.3c0.8,3.9-3.1,5.8-4,6.1
	c-4.3,1.5-9.7,2.3-14.3,2.3c-4.6,0-16.8-4.2-16.8-4.2s-6.3-2.7-9-1.5c-1.7,0.3-11.7-2.7-13.3-5c0,0-1-0.4-0.7-4.8
	C631.4,845,642.7,847.7,642.7,847.7z"/>
<path class="st19" d="M512,856c-3.2-5.8-5.2-17.7-5.2-17.7s-0.7,0.8-0.8,1.4c-0.1,0.7,0,2,0.1,2.6c0,0.1,0.1,0.3,0.1,0.4
	c0-0.1,0-0.2-0.1-0.4c-0.2-0.8-0.7-1.7-1.2-2.5c-5.9-0.7-11.9-0.3-14.7,0.5l0.3,3.7c0,0-0.8-2.8-1.5-3.7c-0.7-0.8-1.3-1.1-1.9-1.6
	c-3-2.7-3-6.6-3-6.6s-2.7,2.7-2.8,8.3c1.2,9.8-3.6,18.4,3.2,25.6c4.5,4.8,8.2,6.5,15.5,6.1c8.8-0.5,10.4-2.5,11.5-4.4
	S513.8,859.9,512,856z"/>
<path class="st7" d="M490.5,844.2c0,0,9.4-2.2,15.8-0.3l0.4,1.1c0,0-7.6-1.7-16,0.4L490.5,844.2z"/>
<path class="st7" d="M491.2,846.9c0,0,9.4-2.2,15.8-0.3l0.4,1.1c0,0-7.6-1.7-16,0.4L491.2,846.9z"/>
<path class="st7" d="M491.9,849.6c0,0,9.4-2.2,15.8-0.3l0.4,1.1c0,0-7.6-1.7-16,0.4L491.9,849.6z"/>
<path class="st7" d="M480.9,854.7c0,0-0.4,5.9,8.3,11.9c8.7,6,23.5,1.4,23.8-5.7c0,0,0.3,6.5-3,9.1c-3.1,2.4-11.5,3.4-17.7,1.8
	C486,870.2,480,863.6,480.9,854.7z"/>
<path class="st3" d="M260.8,849.8l0.2-1.8l-0.7,0c0,0,0.9-1.3,0.1-2.6l1,1.8l0.8,0.1l-0.9,2.1C261.4,849.4,260.8,849.7,260.8,849.8z
	"/>
<path class="st3" d="M267.3,846.3l-0.9-0.9l-0.8-0.1l0.8-1.1l-1.2,0l0.3-1.8l0.4,1.1c0,0,1.4,0.2,1.3,0.3s-0.5,0.7-0.5,0.7l1.1,1.4
	L267.3,846.3z"/>
<path d="M271.3,841.8c0,0-0.1,0.8-0.1,1.5c0,0.5,0.2,1.1,0.2,1.3c0.1,0.2,0.5,0.7,0.8,1.1c0.2,0.3,0.3,0.6,0,0.7
	c-0.3,0.4-0.4,0.4-0.3,0.7c0,0.3-0.1,0.3-0.2,0c0-0.3,0.1-0.6,0.4-0.9c0.2-0.2,0.1-0.4-0.2-0.7c-0.2-0.2-0.3-0.4-0.6-0.9
	C270.7,843.3,271.3,841.8,271.3,841.8z"/>
<path d="M270.3,842.1c0,0,0.3,0.5,0.4,1.1c0.1,0.4,0.1,0.8,0.1,1c0,0.2-0.2,0.6-0.3,0.9c-0.1,0.3-0.1,0.5,0.2,0.5
	c0.3,0.2,0.3,0.2,0.4,0.4c0,0.2,0.2,0.2,0.1,0c0-0.2-0.2-0.4-0.5-0.5c-0.2-0.1-0.1-0.3,0-0.6c0.1-0.2,0.2-0.4,0.2-0.8
	C271.1,843.1,270.3,842.1,270.3,842.1z"/>
<path d="M264.9,843.5c0,0-0.1,0.8-0.1,1.5c0,0.5,0.2,1.1,0.2,1.3c0.1,0.2,0.5,0.7,0.8,1.1c0.2,0.3,0.3,0.6,0,0.7
	c-0.3,0.4-0.4,0.4-0.3,0.7c0,0.3-0.1,0.3-0.2,0c0-0.3,0.1-0.6,0.4-0.9c0.2-0.2,0.1-0.4-0.2-0.7c-0.2-0.2-0.3-0.4-0.6-0.9
	C264.3,845,264.9,843.5,264.9,843.5z"/>
<path d="M263.9,843.8c0,0,0.3,0.5,0.4,1.1c0.1,0.4,0.1,0.8,0.1,1c0,0.2-0.2,0.6-0.3,0.9c-0.1,0.3-0.1,0.5,0.2,0.5
	c0.3,0.2,0.3,0.2,0.4,0.4c0,0.2,0.2,0.2,0.1,0s-0.2-0.4-0.5-0.5c-0.2-0.1-0.1-0.3,0-0.6c0.1-0.2,0.2-0.4,0.2-0.8
	C264.7,844.8,263.9,843.8,263.9,843.8z"/>
<path d="M262.8,843.4c0,0-0.1,0.8-0.1,1.5c0,0.5,0.2,1.1,0.2,1.3c0.1,0.2,0.5,0.7,0.8,1.1c0.2,0.3,0.3,0.6,0,0.7
	c-0.3,0.4-0.4,0.4-0.3,0.7c0,0.3-0.1,0.3-0.2,0c0-0.3,0.1-0.6,0.4-0.9c0.2-0.2,0.1-0.4-0.2-0.7c-0.2-0.2-0.3-0.4-0.6-0.9
	C262.2,845,262.8,843.4,262.8,843.4z"/>
<path d="M261.8,843.8c0,0,0.3,0.5,0.4,1.1c0.1,0.4,0.1,0.8,0.1,1c0,0.2-0.2,0.6-0.3,0.9c-0.1,0.3-0.1,0.5,0.2,0.5
	c0.3,0.2,0.3,0.2,0.4,0.4c0,0.2,0.2,0.2,0.1,0s-0.2-0.4-0.5-0.5c-0.2-0.1-0.1-0.3,0-0.6c0.1-0.2,0.2-0.4,0.2-0.8
	C262.6,844.7,261.8,843.8,261.8,843.8z"/>
<path d="M259.6,847.2c0,0-0.1,0.8-0.1,1.5c0,0.5,0.2,1.1,0.2,1.3c0.1,0.2,0.5,0.7,0.8,1.1c0.2,0.3,0.3,0.6,0,0.7
	c-0.3,0.4-0.4,0.4-0.3,0.7s-0.1,0.3-0.2,0c0-0.3,0.1-0.6,0.4-0.9c0.2-0.2,0.1-0.4-0.2-0.7c-0.2-0.2-0.3-0.4-0.6-0.9
	C259,848.8,259.6,847.2,259.6,847.2z"/>
<path d="M258.6,847.6c0,0,0.3,0.5,0.4,1.1c0.1,0.4,0.1,0.8,0.1,1c0,0.2-0.2,0.6-0.3,0.9c-0.1,0.3-0.1,0.5,0.2,0.5
	c0.3,0.2,0.3,0.2,0.4,0.4c0,0.2,0.2,0.2,0.1,0c0-0.2-0.2-0.4-0.5-0.5c-0.2-0.1-0.1-0.3,0-0.6c0.1-0.2,0.2-0.4,0.2-0.8
	C259.4,848.6,258.6,847.6,258.6,847.6z"/>
<path d="M268,841c0,0-0.1,0.8-0.1,1.5c0,0.5,0.2,1.1,0.2,1.3c0.1,0.2,0.5,0.7,0.8,1.1c0.2,0.3,0.3,0.6,0,0.7
	c-0.3,0.4-0.4,0.4-0.3,0.7s-0.1,0.3-0.2,0c0-0.3,0.1-0.6,0.4-0.9c0.2-0.2,0.1-0.4-0.2-0.7c-0.2-0.2-0.3-0.4-0.6-0.9
	C267.4,842.6,268,841,268,841z"/>
<path d="M267,841.4c0,0,0.3,0.5,0.4,1.1c0.1,0.4,0.1,0.8,0.1,1c0,0.2-0.2,0.6-0.3,0.9c-0.1,0.3-0.1,0.5,0.2,0.5
	c0.3,0.2,0.3,0.2,0.4,0.4c0,0.2,0.2,0.2,0.1,0s-0.2-0.4-0.5-0.5c-0.2-0.1-0.1-0.3,0-0.6c0.1-0.2,0.2-0.4,0.2-0.8
	C267.7,842.4,267,841.4,267,841.4z"/>
<path class="st7" d="M113,718.1c0,0-21.6,6.8-48.9-4.6c0,0-1.1,11.3-3,23.3c0,0,7.2,11.1,48.9,6C110,742.8,111.1,732.3,113,718.1z"
	/>
<path class="st18" d="M108.6,615.7c1.1,0,2-0.8,2-1.9c0-1.1-0.8-2-1.9-2c-1.1,0-2,0.8-2,1.9C106.7,614.7,107.6,615.6,108.6,615.7z"
	/>
<g>
	<path class="st8" d="M212.2,550l-0.4,0c0,0-0.4-1-0.6-1.7c-0.1-0.7-0.2-1.9-0.2-1.9l0.4-0.1c0,0,0.5,1.3,0.6,1.9
		S212.2,550,212.2,550z"/>
</g>
<path class="st12" d="M488.8,532.1c0.9,0,1.6-0.9,1.6-2c0-1.1-0.8-1.9-1.7-1.9s-1.6,0.9-1.6,2C487.2,531.3,487.9,532.1,488.8,532.1z
	"/>
<path class="st12" d="M503.8,602.1c0.9,0,1.6-0.9,1.6-2c0-1.1-0.8-1.9-1.7-1.9c-0.9,0-1.6,0.9-1.6,2
	C502.1,601.3,502.9,602.1,503.8,602.1z"/>
<path class="st20" d="M300,320.3c-4.7,72-29.8,99.5-29.8,99.5s66-36.9,80-98.6c0,0,252.7,3.1,289.5-1s47.2-15,51.3-34.7
	s0-81.4-2.6-95.9c-2.6-14.5-5.2-31.1-37.8-37.3s-196.1-6.2-215.2-6.2s-177.3,4.7-186.2,7.3c0,0-29.7-0.1-30.6,27.5
	c-0.5,15.2-4.2,87.8-1,105.2c3.2,17.4,7.1,23.8,20.2,30.6C247.4,321.5,300,320.3,300,320.3z"/>
<g>
	<path class="st21" d="M282.1,255.4c-0.7-0.9-1.2-3.5-1.4-7.5c-0.2-3.8-2-6.4-6.8-6.4h-9.8v14h-4.7v-34.6h14.1c8.8,0,13,4.1,13,10.2
		c0,5.3-3.6,8.1-7.9,8.6c4.2,0.8,6.3,3.4,6.6,7.5c0.4,5.1,0.6,7,1.8,8.3H282.1z M273.3,237.6c5.9,0,8.5-2.2,8.5-6.5
		c0-4-2.6-6.5-8.5-6.5h-9.1v13H273.3z"/>
	<path class="st21" d="M314.2,247.3c-1.2,5.4-5.2,8.7-11.2,8.7c-7.1,0-12.4-4.8-12.4-12.3c0-7.6,5.2-13,12.2-13
		c7.6,0,11.5,5.4,11.5,12v1.8h-19.1c0.2,4.7,3.6,8,7.9,8c4,0,6.4-1.9,7.4-5.6L314.2,247.3z M309.6,241.5c-0.2-3.8-2.3-7.4-6.9-7.4
		c-4.3,0-6.9,3.4-7.5,7.4H309.6z"/>
	<path class="st21" d="M338.4,250.7c0,1.3,0.7,1.9,1.9,1.9c0.5,0,1.4-0.2,2.1-0.5v2.5c-0.8,0.8-1.8,1.4-3.7,1.4
		c-2.5,0-4.2-1.9-4.5-4.7c-1.3,2.8-4.7,4.9-8.6,4.9c-4.7,0-7.7-2.5-7.7-6.7c0-4.6,3.9-6.4,9.7-7.6l6.5-1.3v-0.9
		c0-3.3-1.9-5.3-5.3-5.3c-3.5,0-5.3,2-6,4.8l-4.1-0.5c0.9-4.5,4.5-7.8,10.2-7.8c6,0,9.6,3.1,9.6,9.2V250.7z M334,243.5l-5.4,1.2
		c-3.8,0.8-6.2,1.5-6.2,4.5c0,2,1.4,3.6,4.1,3.6c4.2,0,7.5-3.2,7.5-8V243.5z"/>
	<path class="st21" d="M350.5,220.8v34.6h-4.6v-34.6H350.5z"/>
	<path class="st21" d="M361.3,220.8v34.6h-4.6v-34.6H361.3z"/>
	<path class="st21" d="M378.1,256.1c-7,0-12.2-5.2-12.2-12.6s5.2-12.7,12.2-12.7c7.1,0,12.3,5.2,12.3,12.7S385.2,256.1,378.1,256.1z
		 M378.1,252.5c4.9,0,7.6-3.8,7.6-9.1c0-5.4-2.7-9.1-7.6-9.1c-4.8,0-7.5,3.7-7.5,9.1C370.6,248.8,373.3,252.5,378.1,252.5z
		 M372.1,221.2h4.5v5.2h-4.5V221.2z M379.7,221.2h4.5v5.2h-4.5V221.2z"/>
	<path class="st21" d="M399.8,255.4h-4.6v-24h4.6v4.3c1.2-2.9,4.4-4.9,8-4.9c6.3,0,8.8,4.2,8.8,9.8v14.9H412v-14.5
		c0-4-1.9-6.5-5.7-6.5c-3.6,0-6.5,2.9-6.5,7.3V255.4z"/>
	<path class="st21" d="M444.5,247.3c-1.2,5.4-5.2,8.7-11.2,8.7c-7.1,0-12.4-4.8-12.4-12.3c0-7.6,5.2-13,12.2-13
		c7.6,0,11.5,5.4,11.5,12v1.8h-19.1c0.2,4.7,3.6,8,7.9,8c4,0,6.4-1.9,7.4-5.6L444.5,247.3z M440,241.5c-0.2-3.8-2.3-7.4-6.9-7.4
		c-4.3,0-6.9,3.4-7.5,7.4H440z"/>
	<path class="st21" d="M453.9,255.4h-4.6v-34.6h4.6v14.9c1.2-2.9,4.4-4.9,8-4.9c6.3,0,8.8,4.2,8.8,9.8v14.9h-4.6v-14.5
		c0-4-1.9-6.5-5.7-6.5c-3.6,0-6.5,2.9-6.5,7.3V255.4z"/>
	<path class="st21" d="M487.3,256.1c-7,0-12.2-5.2-12.2-12.6s5.2-12.7,12.2-12.7c7.1,0,12.3,5.2,12.3,12.7S494.4,256.1,487.3,256.1z
		 M487.3,252.5c4.9,0,7.6-3.8,7.6-9.1c0-5.4-2.8-9.1-7.6-9.1c-4.8,0-7.5,3.7-7.5,9.1C479.8,248.8,482.5,252.5,487.3,252.5z
		 M481.3,221.2h4.5v5.2h-4.5V221.2z M488.9,221.2h4.5v5.2h-4.5V221.2z"/>
	<path class="st21" d="M508.9,258.7c0,4.2-2.1,6.6-6.4,6.6c-2,0-4.1-0.8-5.3-1.8l1.1-2.9c1.3,0.8,2.3,1.2,3.7,1.2
		c1.5,0,2.4-0.9,2.4-2.8v-27.7h4.6V258.7z M504.3,220.8h4.7v5.2h-4.7V220.8z"/>
	<path class="st21" d="M519.7,255.4h-4.6v-24h4.6v4.3c1.2-2.9,4.4-4.9,8-4.9c6.3,0,8.8,4.2,8.8,9.8v14.9h-4.6v-14.5
		c0-4-1.9-6.5-5.7-6.5c-3.6,0-6.5,2.9-6.5,7.3V255.4z"/>
	<path class="st21" d="M542.3,220.8h4.7v5.2h-4.7V220.8z M547,231.4v24h-4.6v-24H547z"/>
	<path class="st21" d="M557.8,255.4h-4.6v-24h4.6v4.3c1.2-2.9,4.4-4.9,8-4.9c6.3,0,8.8,4.2,8.8,9.8v14.9H570v-14.5
		c0-4-1.9-6.5-5.7-6.5c-3.6,0-6.5,2.9-6.5,7.3V255.4z"/>
	<path class="st21" d="M590.1,247c-2,0-3.8-0.3-5.3-1c-0.8,0.5-1.6,1.3-1.6,2.4c0,1.3,0.8,2.1,2.9,2.1h9.4c5.2,0,8,2.8,8,6.5
		c0,6-6.7,8.3-13.9,8.3c-6.5,0-11.9-2-11.9-6.5c0-2.8,2-4.5,5-5.1c-2.2-0.7-3.2-2.3-3.2-4.1c0-2.1,1.5-3.6,3.6-4.5
		c-2-1.4-3.1-3.6-3.1-6.2c0-5.1,4.2-8.2,10.1-8.2c3,0,5.7,0.9,7.5,2.5c1.3-1.9,3.5-3.3,6.1-3.3v4c-1.6,0-3.4,0.4-4.6,1
		c0.7,1.2,1.2,2.5,1.2,4.1C600.3,243.9,596,247,590.1,247z M589.7,262.3c5.5,0,9.5-1.3,9.5-4.8c0-2.2-1.8-3-4.6-3h-7.8
		c-2.5,0-4.6,0.8-4.6,3.4C582.1,261,585.2,262.3,589.7,262.3z M590.2,233.7c-3.4,0-5.4,1.9-5.4,5.3c0,3.3,2.1,5.2,5.4,5.2
		c3.4,0,5.5-1.9,5.5-5.2C595.7,235.6,593.6,233.7,590.2,233.7z"/>
	<path class="st21" d="M626,250.7c0,1.3,0.7,1.9,1.9,1.9c0.6,0,1.4-0.2,2.1-0.5v2.5c-0.8,0.8-1.8,1.4-3.7,1.4
		c-2.5,0-4.2-1.9-4.5-4.7c-1.3,2.8-4.7,4.9-8.6,4.9c-4.7,0-7.7-2.5-7.7-6.7c0-4.6,3.9-6.4,9.7-7.6l6.5-1.3v-0.9
		c0-3.3-1.9-5.3-5.3-5.3c-3.5,0-5.3,2-6,4.8l-4.1-0.5c0.9-4.5,4.5-7.8,10.2-7.8c6,0,9.6,3.1,9.6,9.2V250.7z M621.6,243.5l-5.4,1.2
		c-3.8,0.8-6.2,1.5-6.2,4.5c0,2,1.4,3.6,4.1,3.6c4.2,0,7.5-3.2,7.5-8V243.5z"/>
	<path class="st21" d="M647.9,235.9c-1.3-0.7-2.3-1-3.7-1c-3.5,0-6,3.1-6,7.8v12.7h-4.6v-24h4.6v4.9c0.9-2.8,3.4-5.6,6.8-5.6
		c1.5,0,2.6,0.4,3.4,1.1L647.9,235.9z"/>
	<path class="st21" d="M651.3,249.9h5.5v5.5h-5.5V249.9z M656.4,220.8v9.7l-1.3,15.9h-2.2l-1.4-15.9v-9.7H656.4z"/>
</g>
<path class="st3" d="M711.8,564.6l2.5,0.2c0,0-0.9-2.6-5.5-2.6c-6.8,0-9.9,16.7-1.5,17.8c3,0.6,5.7-2.3,6.1-3.8l-2.7-0.3
	c0,0-1.9,2.7-4,0.9C704.9,575.5,704.9,563.4,711.8,564.6z"/>
<path class="st3" d="M747.8,568.5l2.5,0.2c0,0-1-2.6-5.6-2.5c-6.8,0.1-9.6,16.9-1.2,17.9c3,0.6,5.6-2.4,6-3.9l-2.6-0.2
	c0,0-1.9,2.7-4,1C741.2,579.5,740.9,567.4,747.8,568.5z"/>
<path class="st3" d="M782,571.1l2.5,0.1c0,0-1.1-2.6-5.7-2.1c-6.8,0.7-8.2,17.6,0.2,17.9c3,0.3,5.3-2.7,5.6-4.3l-2.6-0.1
	c0,0-1.6,2.9-3.9,1.3C776.2,582.6,775,570.6,782,571.1z"/>
<path class="st3" d="M704.3,607.7c0,0,5.6-2.6,3.4-28.5l-1.5-0.4c0,0,3,24.4-3.4,28.8"/>
<path class="st3" d="M777.3,616.7c0,0-5.5-5.3,0.2-30.7l1.5-0.2c0,0-6,23.8-0.2,31"/>
<path class="st3" d="M742.9,622.5c0,0,3.1-6.2,2.4-39.2l-1.4-0.4c0,0,1,29.6-2.4,39.5"/>
<g>
	<polyline class="st21" points="700.7,607.1 695.5,663.9 710.5,666.9 717.2,608.6 700.7,607.1 	"/>
	<path class="st22" d="M717.5,608.3l-6.8,59c0,0-7.9-1.4-14.8-3.2c-6.9-1.7-10.9-3.9-10.9-3.9l4-54.5L717.5,608.3z"/>
	<path class="st23" d="M706.1,630.4c0,0,1.6-7,3.8-9.4c2.3-2.4,6.4-2.7,6.4-2.7l-3.3,28.5l-6.1-2.2l-4.8-1.5L706.1,630.4z"/>
	<path class="st24" d="M687.7,623.6c0,0,5.2-0.9,8,0c2.8,1,3.4,3,5.6,2.6c2.2-0.4,3.8,3,3.8,3l-1.5,12.4c0,0,0,0.8,1.8,0.9
		c1.8,0.2,3.3-1.3,3.9,0c0.6,1.2,1.8,2.4,2.4,2.4c0.6,0,1.5,0.5,1.5,0.5l-0.5,4.3c0,0-3.5,0.5-5.3-0.5c-1.7-0.9-4.1-2.2-5.2-1.9
		c-1.1,0.3-4.1,0.7-5.9-0.6c-1.8-1.3-4.7-2.1-6.6-2.1c-2,0-3.4-2.3-3.4-2.3L687.7,623.6z"/>
	<path class="st25" d="M692.5,626.9c0,0,3.3-0.7,5-0.7c1.8,0,7.3,1.1,8.7,3.2c1.4,2.1,3.1,1.7,2.1,6.6c-1,4.8-4.7,5.6-4.7,5.6
		s-1.7-1.8-3.1,0.2c0,0-2.3-2.2-4-1.3c-1.6,1-3.7-0.4-3.7-2.1c0-1.6-2.7-0.6-2.9-2.2c-0.1-1.6-0.2-2.7,0.3-3.9
		C690.8,631.2,689.3,627.5,692.5,626.9z"/>
	<polygon class="st26" points="715.1,611 713,629 705.2,628 707,610.3 	"/>
	<path class="st26" d="M693.6,661.2l0-1.2c0.3,0,0.6,0,0.7-0.2c0.2-0.1,0.3-0.3,0.3-0.5c0-0.2-0.1-0.5-0.3-0.7
		c-0.2-0.2-0.5-0.4-1-0.5c-0.4-0.1-0.8-0.1-1,0.1c-0.2,0.1-0.3,0.3-0.4,0.6c0,0.3,0.1,0.7,0.4,1l-0.2,0.9l-3.5-1.3l0.2-3l1.2,0.2
		l-0.2,2.2l1.2,0.4c-0.1-0.3-0.2-0.6-0.2-0.8c0-0.5,0.2-0.8,0.6-1.1c0.5-0.3,1.1-0.4,1.8-0.3c0.6,0.1,1.2,0.4,1.7,0.9
		c0.5,0.5,0.7,1,0.6,1.7c0,0.5-0.3,0.9-0.6,1.2C694.7,661.1,694.2,661.3,693.6,661.2z"/>
	<path class="st26" d="M689,653.9c0-0.6,0.3-1,0.9-1.3c0.6-0.3,1.5-0.3,2.8,0c1.3,0.2,2.2,0.6,2.7,1.1c0.5,0.5,0.7,1,0.7,1.6
		c-0.1,0.6-0.4,1-0.9,1.3c-0.6,0.3-1.5,0.3-2.8,0c-1.3-0.2-2.2-0.6-2.7-1.1C689.2,655,688.9,654.4,689,653.9z M690.1,654.1
		c0,0.2,0.1,0.4,0.4,0.6c0.3,0.2,0.9,0.4,2,0.6c1.1,0.2,1.8,0.3,2.1,0.2c0.3-0.1,0.5-0.2,0.5-0.5c0-0.2-0.1-0.4-0.4-0.6
		c-0.3-0.2-1-0.4-2-0.6c-1.1-0.2-1.7-0.2-2-0.2C690.3,653.7,690.1,653.8,690.1,654.1z"/>
	<path class="st26" d="M689.3,649.3c0-0.6,0.3-1,0.9-1.3c0.6-0.3,1.5-0.3,2.8-0.1c1.3,0.2,2.3,0.6,2.8,1c0.5,0.5,0.7,1,0.7,1.6
		c-0.1,0.6-0.4,1-0.9,1.3c-0.6,0.3-1.5,0.3-2.9,0c-1.3-0.2-2.2-0.6-2.7-1C689.5,650.4,689.3,649.9,689.3,649.3z M690.4,649.5
		c0,0.2,0.1,0.4,0.4,0.6c0.3,0.2,0.9,0.4,2,0.6c1.1,0.2,1.8,0.2,2.1,0.2c0.3-0.1,0.5-0.2,0.5-0.5c0-0.2-0.1-0.5-0.4-0.6
		c-0.3-0.2-1-0.4-2-0.6c-1.1-0.2-1.8-0.2-2.1-0.1C690.6,649.1,690.5,649.3,690.4,649.5z"/>
	<polygon class="st26" points="690.8,637.5 690.7,639.6 688.8,639.3 688.9,637.3 	"/>
	<polygon class="st26" points="691,634.9 690.9,637 689,636.7 689.1,634.6 	"/>
	<polygon class="st26" points="691.3,632.2 691.1,634.3 689.2,634 689.4,632 	"/>
	<polygon class="st26" points="691.5,629.5 691.3,631.6 689.4,631.4 689.6,629.3 	"/>
	<polygon class="st26" points="691.7,626.8 691.5,628.9 689.6,628.7 689.8,626.6 	"/>
	<polygon class="st26" points="691.9,624.1 691.7,626.2 689.8,626 690,623.8 	"/>
	<polygon class="st26" points="692.1,621.3 692,623.5 690,623.2 690.2,621.1 	"/>
	<polygon class="st26" points="692.4,618.5 692.2,620.7 690.2,620.5 690.4,618.3 	"/>
	<polygon class="st26" points="692.6,615.7 692.4,617.9 690.5,617.7 690.6,615.5 	"/>
	<polygon class="st26" points="692.8,612.9 692.6,615.1 690.7,614.9 690.8,612.7 	"/>
	<polygon class="st26" points="693,610 692.9,612.3 690.9,612.1 691.1,609.8 	"/>
	<path class="st22" d="M711,621.2l0-0.9c0.2,0,0.4-0.1,0.6-0.2c0.1-0.1,0.2-0.3,0.2-0.4c0-0.2,0-0.4-0.2-0.5
		c-0.2-0.2-0.4-0.2-0.8-0.3c-0.3,0-0.6,0-0.8,0.1c-0.2,0.1-0.3,0.3-0.3,0.5c0,0.3,0.1,0.5,0.3,0.7l-0.2,0.7l-2.7-0.8l0.2-2.4
		l0.9,0.1l-0.2,1.7l0.9,0.2c-0.1-0.2-0.1-0.4-0.1-0.6c0-0.4,0.2-0.7,0.5-0.9c0.4-0.3,0.9-0.4,1.4-0.3c0.5,0.1,0.9,0.2,1.2,0.6
		c0.4,0.3,0.5,0.7,0.5,1.3c0,0.4-0.2,0.8-0.5,1C711.9,621.1,711.5,621.2,711,621.2z"/>
	<path class="st22" d="M707.6,616.1c0-0.5,0.3-0.8,0.7-1.1c0.4-0.2,1.1-0.3,2.2-0.2c1,0.1,1.7,0.3,2.1,0.6c0.4,0.3,0.5,0.7,0.5,1.2
		c-0.1,0.5-0.3,0.8-0.7,1.1c-0.4,0.2-1.2,0.3-2.2,0.2c-1-0.1-1.7-0.3-2-0.7C707.7,617,707.5,616.6,707.6,616.1z M708.4,616.2
		c0,0.2,0.1,0.3,0.3,0.5c0.2,0.1,0.7,0.2,1.5,0.3c0.8,0.1,1.3,0.1,1.6,0c0.2-0.1,0.4-0.2,0.4-0.4c0-0.2-0.1-0.3-0.3-0.5
		c-0.2-0.1-0.7-0.2-1.5-0.3c-0.8-0.1-1.3-0.1-1.6,0C708.6,615.9,708.4,616,708.4,616.2z"/>
	<path class="st22" d="M707.9,612.9c0-0.5,0.3-0.8,0.7-1.1c0.4-0.2,1.2-0.3,2.2-0.2c1,0.1,1.7,0.3,2.1,0.6c0.4,0.3,0.5,0.7,0.5,1.2
		c-0.1,0.5-0.3,0.8-0.7,1.1c-0.4,0.2-1.2,0.3-2.2,0.2c-1-0.1-1.7-0.3-2.1-0.6C708,613.8,707.9,613.4,707.9,612.9z M708.7,613
		c0,0.2,0.1,0.3,0.3,0.5c0.2,0.1,0.7,0.2,1.5,0.3c0.8,0.1,1.3,0.1,1.6,0c0.2-0.1,0.4-0.2,0.4-0.4c0-0.2-0.1-0.3-0.3-0.5
		c-0.2-0.1-0.7-0.2-1.5-0.3s-1.3-0.1-1.6,0C708.9,612.7,708.8,612.8,708.7,613z"/>
	<path class="st22" d="M707.7,624.8c0.4,0.1,0.9,0.2,1.3,0.3c-0.1,0.8-0.2,1.7-0.3,2.5c-0.5,0-0.9,0-1.4,0c0,0,0,0,0,0
		c0.3-0.2,0.5-0.4,0.8-0.6c-0.3-0.2-0.6-0.5-1-0.7c0.4-0.2,0.7-0.4,1.1-0.6C708.1,625.3,707.9,625,707.7,624.8
		C707.7,624.8,707.7,624.8,707.7,624.8z"/>
	<path class="st22" d="M708.1,621.2c0.4,0.1,0.9,0.2,1.4,0.3c-0.1,0.9-0.2,1.7-0.3,2.5c-0.5,0-0.9,0-1.4,0c0,0,0,0,0,0
		c0.3-0.2,0.5-0.4,0.8-0.6c-0.3-0.3-0.6-0.5-1-0.7c0.4-0.2,0.7-0.4,1.1-0.6C708.5,621.7,708.3,621.5,708.1,621.2
		C708.1,621.2,708.1,621.2,708.1,621.2z"/>
	<path class="st22" d="M710.6,623.3c0.5,0.1,0.9,0.2,1.4,0.3c-0.1,0.9-0.2,1.7-0.3,2.5c-0.5,0-0.9,0-1.4,0c0,0,0,0,0,0
		c0.3-0.2,0.5-0.4,0.8-0.6c-0.3-0.3-0.6-0.5-1-0.8c0.4-0.2,0.7-0.4,1.1-0.6C711,623.8,710.8,623.5,710.6,623.3
		C710.6,623.3,710.6,623.3,710.6,623.3z"/>
	<polygon class="st26" points="711,649.4 709.3,664.1 708.2,663.9 709.8,649.2 	"/>
	<polygon class="st25" points="706,661.5 705.8,663.2 704.7,662.9 704.9,661.2 	"/>
	<polygon class="st25" points="707.4,659.5 707.3,661.2 706.1,661 706.3,659.2 	"/>
	<polygon class="st26" points="690.6,662.6 690.6,662.6 690,661.1 690.1,661.1 	"/>
	<polygon class="st26" points="691.7,662.9 691.6,663 691,661.3 691.1,661.3 	"/>
	<polygon class="st26" points="692.8,663.3 692.7,663.3 692,661.5 692.1,661.5 	"/>
	<polygon class="st26" points="696.1,608.8 696,608.8 695.1,606.3 695.2,606.3 	"/>
	<polygon class="st26" points="697.2,608.9 697.2,608.9 696.2,606.4 696.3,606.4 	"/>
	<polygon class="st26" points="698.3,609 698.3,609 697.3,606.5 697.4,606.5 	"/>
	<polygon class="st26" points="702,650.1 701.8,652.3 697.3,651.5 697.5,649.3 	"/>
	<polygon class="st26" points="709.2,651.3 708.9,653.5 704.4,652.7 704.6,650.5 	"/>
	<path class="st27" d="M700.5,617.2c0-0.1,0-0.1,0.1-0.1c0.2,0,0.4,0,0.6,0.1c0.4,0.1,0.7,0.6,0.6,1.1c0,0.2-0.1,0.3-0.3,0.2
		c0-0.1,0-0.2,0-0.3c0-0.2-0.1-0.3-0.2-0.3c-0.2-0.1-0.5,0-0.5,0.2c-0.1,0.2,0,0.5,0.2,0.6c0.6,0.3,1.1-0.1,1.1-0.8
		c0-0.5-0.3-0.8-0.6-0.9c-0.2-0.1-0.5-0.1-0.8-0.2c-0.1,0-0.2-0.1-0.2-0.2c0-0.1-0.1-0.2-0.1-0.3l-0.2,1.7
		C700.4,617.8,700.5,617.5,700.5,617.2z"/>
	<path class="st27" d="M695.6,617.1c-0.3-0.1-0.5-0.3-0.6-0.6c0-0.1,0-0.1,0.1-0.2c0.3-0.1,0.6-0.1,0.9,0.2c0.1,0.1,0.1,0.1,0.2,0.2
		l0.1-0.6c-0.3-0.1-0.7-0.2-1.1-0.1c-0.3,0.1-0.6,0.2-0.9,0.5c0.3,0.4,0.5,0.7,1,0.8c0.3,0.1,0.6,0.1,0.9,0.1l0-0.3
		C695.9,617.1,695.8,617.1,695.6,617.1z"/>
	<path class="st27" d="M696.6,611l-0.4,5c0.3,0.1,0.6,0.4,0.8,0.7c0.1,0.1,0.1,0.1,0.2,0.2c0.1,0.1,0.2,0.2,0.4,0.1
		c0.1,0,0.2,0,0.3-0.1c0-0.1,0-0.2,0-0.3c-0.1-0.5,0.2-1,0.7-1.2c0.5-0.2,1-0.2,1.4,0.2c0.2,0.1,0.3,0.4,0.4,0.6l0.4-4.9L696.6,611z
		"/>
	<path class="st27" d="M696.5,617.2C696.5,617.2,696.5,617.1,696.5,617.2c-0.1-0.2-0.2-0.3-0.4-0.5l0,0.4
		C696.2,617.1,696.3,617.2,696.5,617.2z"/>
	<path class="st27" d="M698.3,616.9c0.6,0,1.2-0.1,1.8-0.1c0,0,0,0,0,0c-0.2-0.7-0.9-0.9-1.4-0.7
		C698.5,616.2,698.3,616.6,698.3,616.9z"/>
	<path class="st27" d="M698.9,617.1c-0.2,0-0.4,0.1-0.6,0.1c0,0.4,0.5,0.5,0.8,0.4c0.1,0,0.1-0.1,0.2-0.1c0.1,0,0.1,0,0.2,0
		c0,0.1,0,0.1-0.1,0.2c-0.2,0.3-0.5,0.3-0.9,0.2c-0.2-0.1-0.4-0.3-0.5-0.5c0,0-0.1-0.1-0.1-0.1c-0.1,0-0.2,0-0.3,0.1
		c0.1,0.1,0.2,0.2,0.3,0.3c0.2,0.3,0.5,0.5,0.8,0.6c0.6,0.2,1.5-0.3,1.5-1.1c0-0.1,0-0.2-0.1-0.2
		C699.7,617.1,699.3,617.1,698.9,617.1z"/>
	<path class="st27" d="M699.8,618.5c-0.3,0.2-0.7,0.3-1.1,0.3c-0.7,0-1.2-0.3-1.7-0.8c-0.1-0.1-0.2-0.3-0.4-0.4c0,0-0.1-0.1-0.2-0.1
		c-0.2,0-0.3,0-0.5,0l-0.1,1.6l4.2,0.5l0.1-1.6C700.1,618.2,700,618.3,699.8,618.5z"/>
</g>
<g>
	
		<rect x="713" y="633.6" transform="matrix(4.223873e-02 -0.9991 0.9991 4.223873e-02 62.59 1361.0457)" class="st22" width="56.4" height="28.5"/>
	<path class="st23" d="M747,641c0,0,1.1-6.6,3.2-9c2.1-2.3,6.1-2.8,6.1-2.8l-1.1,26.7l-6.3-1.5l-5.1-0.9L747,641z"/>
	<path class="st24" d="M727.5,635.9c0,0,5.5-1.3,8.5-0.6c3,0.7,3.7,2.6,6,2.1c2.2-0.5,4,2.5,4,2.5l-0.8,12c0,0,0,0.8,1.9,0.7
		c1.9-0.1,3.3-1.6,4-0.5c0.7,1.1,2,2.1,2.6,2.1c0.6-0.1,1.6,0.3,1.6,0.3l-0.2,4.2c0,0-3.5,0.9-5.4,0.2c-1.8-0.7-4.4-1.7-5.5-1.3
		s-4.2,1.2-6.3,0.1c-2-1.1-5.2-1.6-7.3-1.4c-2.2,0.2-3.9-2-3.9-2L727.5,635.9z"/>
	<path class="st25" d="M732.7,638.8c0,0,3.4-0.9,5.3-1c1.9-0.1,7.5,0.5,9,2.3c1.5,1.8,3.2,1.4,2.5,6c-0.7,4.7-4.4,5.9-4.4,5.9
		s-1.9-1.5-3.2,0.5c0,0-2.5-1.9-4.2-0.8c-1.7,1.1-3.9,0-4.1-1.6s-3-0.3-3.2-1.8c-0.2-1.5-0.4-2.6,0.2-3.9
		C731.1,643,729.4,639.5,732.7,638.8z"/>
	
		<rect x="742.1" y="626.9" transform="matrix(4.223873e-02 -0.9991 0.9991 4.223873e-02 88.3037 1353.6732)" class="st26" width="16.3" height="7.8"/>
	<path class="st26" d="M735.6,673.1l-0.1-1.2c0.3,0,0.6-0.1,0.8-0.3c0.2-0.2,0.3-0.4,0.3-0.6c0-0.3-0.1-0.5-0.3-0.7
		c-0.2-0.2-0.6-0.3-1.1-0.3c-0.5,0-0.8,0.1-1.1,0.2c-0.2,0.2-0.4,0.4-0.4,0.7c0,0.3,0.2,0.7,0.5,1l-0.2,1l-4-0.8l0.1-3.2l1.4,0.1
		l-0.1,2.3l1.3,0.3c-0.2-0.3-0.2-0.6-0.2-0.8c0-0.5,0.2-0.9,0.6-1.3c0.5-0.4,1.2-0.6,2-0.6c0.7,0,1.3,0.2,1.9,0.6
		c0.6,0.4,0.8,0.9,0.8,1.6c0,0.6-0.2,1-0.6,1.4C736.8,672.8,736.3,673,735.6,673.1z"/>
	<path class="st26" d="M730.1,666.1c0-0.6,0.3-1.1,0.9-1.5c0.6-0.4,1.6-0.5,3.1-0.4c1.5,0.1,2.5,0.3,3,0.7c0.6,0.4,0.8,0.9,0.8,1.5
		c0,0.6-0.3,1.1-0.9,1.5s-1.6,0.5-3.1,0.4c-1.5-0.1-2.5-0.3-3-0.7C730.3,667.2,730.1,666.7,730.1,666.1z M731.3,666.1
		c0,0.2,0.1,0.4,0.5,0.6c0.3,0.2,1.1,0.3,2.2,0.3s1.9,0,2.3-0.1c0.3-0.1,0.5-0.3,0.5-0.6c0-0.2-0.1-0.4-0.5-0.6
		c-0.3-0.2-1.1-0.3-2.2-0.3c-1.2-0.1-1.9,0-2.3,0.1C731.5,665.7,731.3,665.9,731.3,666.1z"/>
	<path class="st26" d="M730.3,661.3c0-0.6,0.3-1.1,0.9-1.5c0.6-0.4,1.6-0.5,3.1-0.4c1.5,0.1,2.5,0.3,3,0.7c0.6,0.4,0.8,0.9,0.8,1.5
		c0,0.6-0.3,1.1-0.9,1.5s-1.6,0.5-3.1,0.4c-1.5-0.1-2.5-0.3-3-0.7C730.5,662.5,730.3,662,730.3,661.3z M731.5,661.4
		c0,0.2,0.1,0.4,0.5,0.6c0.3,0.2,1.1,0.3,2.2,0.3s1.9,0,2.3-0.1c0.3-0.1,0.5-0.3,0.5-0.6c0-0.2-0.1-0.4-0.5-0.6
		c-0.3-0.2-1.1-0.3-2.2-0.3c-1.2-0.1-1.9,0-2.3,0.1C731.7,661,731.5,661.1,731.5,661.4z"/>
	
		<rect x="729.3" y="649.2" transform="matrix(4.223873e-02 -0.9991 0.9991 4.223873e-02 49.8051 1352.4849)" class="st26" width="2.1" height="2.1"/>
	
		<rect x="729.4" y="646.6" transform="matrix(4.223873e-02 -0.9991 0.9991 4.223873e-02 52.5483 1350.069)" class="st26" width="2.1" height="2.1"/>
	
		<rect x="729.5" y="644" transform="matrix(4.223873e-02 -0.9991 0.9991 4.223873e-02 55.2916 1347.6531)" class="st26" width="2.1" height="2.1"/>
	
		<rect x="729.6" y="641.3" transform="matrix(4.223873e-02 -0.9991 0.9991 4.223873e-02 58.0348 1345.2373)" class="st26" width="2.1" height="2.1"/>
	
		<rect x="729.7" y="638.7" transform="matrix(4.223873e-02 -0.9991 0.9991 4.223873e-02 60.7781 1342.8214)" class="st26" width="2.1" height="2.1"/>
	
		<rect x="729.9" y="636" transform="matrix(4.223873e-02 -0.9991 0.9991 4.223873e-02 63.5213 1340.4056)" class="st26" width="2.1" height="2.1"/>
	
		<rect x="730" y="633.4" transform="matrix(4.223873e-02 -0.9991 0.9991 4.223873e-02 66.2646 1337.9897)" class="st26" width="2.1" height="2.1"/>
	
		<rect x="730.1" y="630.8" transform="matrix(4.223873e-02 -0.9991 0.9991 4.223873e-02 69.0078 1335.5739)" class="st26" width="2.1" height="2.1"/>
	
		<rect x="730.2" y="628.1" transform="matrix(4.223873e-02 -0.9991 0.9991 4.223873e-02 71.7511 1333.1581)" class="st26" width="2.1" height="2.1"/>
	
		<rect x="730.3" y="625.5" transform="matrix(4.223873e-02 -0.9991 0.9991 4.223873e-02 74.4943 1330.7422)" class="st26" width="2.1" height="2.1"/>
	
		<rect x="730.4" y="622.8" transform="matrix(4.223873e-02 -0.9991 0.9991 4.223873e-02 77.2376 1328.3264)" class="st26" width="2.1" height="2.1"/>
	<path class="st22" d="M751.3,632.1l-0.1-0.8c0.2,0,0.4-0.1,0.5-0.2c0.1-0.1,0.2-0.2,0.2-0.4c0-0.2-0.1-0.3-0.2-0.4
		c-0.2-0.1-0.4-0.2-0.8-0.2c-0.3,0-0.6,0-0.7,0.1c-0.2,0.1-0.2,0.3-0.3,0.4c0,0.2,0.1,0.5,0.4,0.7l-0.1,0.7l-2.7-0.5l0.1-2.2l0.9,0
		l-0.1,1.5l0.9,0.2c-0.1-0.2-0.2-0.4-0.1-0.6c0-0.3,0.2-0.6,0.4-0.8c0.4-0.3,0.8-0.4,1.4-0.4c0.5,0,0.9,0.2,1.3,0.4
		c0.4,0.3,0.6,0.6,0.5,1.1c0,0.4-0.2,0.7-0.4,0.9C752.1,632,751.7,632.1,751.3,632.1z"/>
	<path class="st22" d="M747.5,627.7c0-0.4,0.2-0.7,0.6-1c0.4-0.2,1.1-0.3,2.1-0.3c1,0,1.7,0.2,2.1,0.5c0.4,0.3,0.6,0.6,0.6,1
		c0,0.4-0.2,0.7-0.6,1c-0.4,0.2-1.1,0.3-2.1,0.3c-1,0-1.7-0.2-2.1-0.5C747.7,628.5,747.5,628.1,747.5,627.7z M748.4,627.7
		c0,0.2,0.1,0.3,0.3,0.4c0.2,0.1,0.7,0.2,1.5,0.2c0.8,0,1.3,0,1.5-0.1c0.2-0.1,0.3-0.2,0.3-0.4c0-0.2-0.1-0.3-0.3-0.4
		c-0.2-0.1-0.7-0.2-1.5-0.2c-0.8,0-1.3,0-1.5,0.1C748.5,627.4,748.4,627.6,748.4,627.7z"/>
	<path class="st22" d="M747.7,624.8c0-0.4,0.2-0.7,0.6-1c0.4-0.2,1.1-0.3,2.1-0.3c1,0,1.7,0.2,2.1,0.5c0.4,0.3,0.6,0.6,0.6,1
		c0,0.4-0.2,0.7-0.6,1s-1.1,0.3-2.1,0.3c-1,0-1.7-0.2-2.1-0.5C747.8,625.6,747.7,625.2,747.7,624.8z M748.5,624.8
		c0,0.2,0.1,0.3,0.3,0.4s0.7,0.2,1.5,0.2c0.8,0,1.3,0,1.5-0.1c0.2-0.1,0.3-0.2,0.3-0.4c0-0.2-0.1-0.3-0.3-0.4
		c-0.2-0.1-0.7-0.2-1.5-0.2c-0.8,0-1.3,0-1.5,0.1C748.6,624.5,748.5,624.7,748.5,624.8z"/>
	<path class="st22" d="M748.2,635.6c0.4,0.1,0.9,0.1,1.3,0.2c0,0.8-0.1,1.6-0.1,2.4c-0.5,0-0.9,0-1.4,0.1c0,0,0,0,0,0
		c0.2-0.2,0.5-0.4,0.7-0.6c-0.3-0.2-0.7-0.4-1-0.6c0.3-0.2,0.7-0.4,1-0.6C748.7,636,748.5,635.8,748.2,635.6
		C748.2,635.6,748.2,635.6,748.2,635.6z"/>
	<path class="st22" d="M748.4,632.3c0.4,0.1,0.9,0.1,1.3,0.2c0,0.8-0.1,1.6-0.1,2.4c-0.5,0-0.9,0-1.4,0.1c0,0,0,0,0,0
		c0.2-0.2,0.5-0.4,0.7-0.6c-0.3-0.2-0.7-0.4-1-0.6c0.3-0.2,0.7-0.4,1-0.6C748.8,632.7,748.6,632.5,748.4,632.3
		C748.4,632.3,748.4,632.3,748.4,632.3z"/>
	<path class="st22" d="M751,634c0.4,0.1,0.9,0.1,1.3,0.2c0,0.8-0.1,1.6-0.1,2.4c-0.5,0-0.9,0-1.4,0.1c0,0,0,0,0,0
		c0.2-0.2,0.5-0.4,0.7-0.6c-0.3-0.2-0.7-0.4-1-0.6c0.3-0.2,0.7-0.4,1-0.6C751.4,634.5,751.2,634.2,751,634C751,634,751,634,751,634z
		"/>
	
		<rect x="744.8" y="665.5" transform="matrix(4.223873e-02 -0.9991 0.9991 4.223873e-02 54.9888 1389.578)" class="st26" width="15" height="1.2"/>
	
		<rect x="747.4" y="671.6" transform="matrix(4.223873e-02 -0.9991 0.9991 4.223873e-02 45.0186 1391.4768)" class="st25" width="1.8" height="1.2"/>
	
		<rect x="748.7" y="669.4" transform="matrix(4.223873e-02 -0.9991 0.9991 4.223873e-02 48.5347 1390.6698)" class="st25" width="1.8" height="1.2"/>
	
		<rect x="732.1" y="673.4" transform="matrix(0.8955 -0.445 0.445 0.8955 -223.711 396.2732)" class="st26" width="0.1" height="2.5"/>
	
		<rect x="733.3" y="673.4" transform="matrix(0.8955 -0.445 0.445 0.8955 -223.6131 396.7789)" class="st26" width="0.1" height="2.5"/>
	
		<rect x="734.4" y="673.5" transform="matrix(0.8955 -0.445 0.445 0.8955 -223.5161 397.2878)" class="st26" width="0.1" height="2.5"/>
	
		<rect x="735" y="619.2" transform="matrix(0.8955 -0.445 0.445 0.8955 -199.3274 391.9294)" class="st26" width="0.1" height="2.5"/>
	
		<rect x="736.2" y="619.3" transform="matrix(0.8955 -0.445 0.445 0.8955 -199.2304 392.4384)" class="st26" width="0.1" height="2.5"/>
	
		<rect x="737.3" y="619.3" transform="matrix(0.8955 -0.445 0.445 0.8955 -199.1304 392.935)" class="st26" width="0.1" height="2.5"/>
	
		<rect x="740.4" y="659.1" transform="matrix(4.223873e-02 -0.9991 0.9991 4.223873e-02 49.3602 1374.4254)" class="st26" width="2.2" height="4.8"/>
	
		<rect x="747.9" y="659.4" transform="matrix(4.223873e-02 -0.9991 0.9991 4.223873e-02 56.2243 1382.2197)" class="st26" width="2.2" height="4.8"/>
	<path class="st27" d="M740.6,629.1c0-0.1,0-0.1,0.1-0.1c0.2,0,0.4,0,0.7,0.1c0.4,0.1,0.7,0.5,0.7,0.9c0,0.2-0.1,0.3-0.3,0.2
		c0-0.1,0-0.2,0-0.2c0-0.1-0.1-0.3-0.2-0.3c-0.2-0.1-0.5,0-0.5,0.2c-0.1,0.2,0,0.5,0.2,0.6c0.6,0.2,1.1-0.1,1.1-0.8
		c0-0.4-0.3-0.7-0.7-0.8c-0.3-0.1-0.5-0.1-0.8-0.1c-0.1,0-0.2,0-0.2-0.2c0-0.1-0.1-0.2-0.1-0.3l-0.1,1.6
		C740.5,629.6,740.5,629.4,740.6,629.1z"/>
	<path class="st27" d="M735.5,629.2c-0.3-0.1-0.5-0.3-0.7-0.5c0-0.1,0-0.1,0.1-0.2c0.3-0.1,0.6-0.1,0.9,0.1c0.1,0.1,0.1,0.1,0.2,0.2
		l0-0.6c-0.3-0.1-0.7-0.1-1.1,0c-0.4,0.1-0.6,0.3-0.9,0.5c0.3,0.3,0.6,0.6,1,0.7c0.3,0.1,0.6,0.1,0.9,0.1l0-0.3
		C735.8,629.3,735.7,629.3,735.5,629.2z"/>
	<path class="st27" d="M736.2,623.6l-0.2,4.7c0.3,0.1,0.6,0.3,0.9,0.6c0.1,0.1,0.1,0.1,0.2,0.2c0.1,0.1,0.2,0.1,0.4,0.1
		c0.1,0,0.2,0,0.3-0.1c0-0.1,0-0.2,0-0.2c-0.1-0.4,0.2-0.9,0.7-1.1c0.5-0.2,1-0.2,1.4,0.1c0.2,0.1,0.4,0.3,0.5,0.5l0.2-4.4
		L736.2,623.6z"/>
	<path class="st27" d="M736.4,629.3C736.4,629.3,736.4,629.3,736.4,629.3c-0.1-0.2-0.3-0.3-0.4-0.4l0,0.4
		C736.1,629.3,736.3,629.3,736.4,629.3z"/>
	<path class="st27" d="M738.3,628.9c0.6-0.1,1.2-0.1,1.9-0.2c0,0,0,0,0,0c-0.2-0.7-1-0.8-1.4-0.6
		C738.4,628.3,738.2,628.6,738.3,628.9z"/>
	<path class="st27" d="M738.9,629.1c-0.2,0-0.4,0.1-0.6,0.1c0.1,0.3,0.6,0.5,0.8,0.3c0.1,0,0.1-0.1,0.2-0.1c0.1,0,0.1,0,0.2,0
		c0,0,0,0.1-0.1,0.1c-0.2,0.2-0.5,0.3-0.9,0.2c-0.3-0.1-0.4-0.2-0.6-0.4c0,0-0.1-0.1-0.1-0.1c-0.1,0-0.2,0-0.3,0.1
		c0.1,0.1,0.2,0.2,0.4,0.3c0.3,0.2,0.5,0.4,0.9,0.5c0.7,0.2,1.5-0.3,1.5-1.1c0-0.1,0-0.2-0.1-0.1C739.7,629,739.3,629,738.9,629.1z"
		/>
	<path class="st27" d="M739.9,630.3c-0.3,0.2-0.7,0.3-1.1,0.3c-0.7,0-1.3-0.2-1.8-0.7c-0.1-0.1-0.2-0.2-0.4-0.3
		c-0.1,0-0.1-0.1-0.2-0.1c-0.2,0-0.3,0-0.5,0l-0.1,1.5l4.3,0.2l0.1-1.5C740.2,630,740.1,630.1,739.9,630.3z"/>
</g>
<g>
	<path class="st22" d="M794.5,615l1.8,45.5c0,0,0.2,6.2,0.2,7.8c0,2.3-0.3,3.1-0.3,3.1s-0.4,0.2-1.2,0.3c-0.8,0.1-1.7,0.2-1.7,0.2
		l-16.1,1.9c0,0-0.9,0.1-1.1,0.1c-0.2,0-2.1,0.1-3.4,0.2c-1.3,0-2.6,0-2.6,0s0-0.7,0-3.1c0-2.3-0.1-4.8-0.1-4.8l-0.6-7.6l-3.5-42.2
		L794.5,615z"/>
	<path class="st23" d="M787.1,637.8c0,0,0.5-7,2.2-9.7c1.8-2.7,5.5-3.6,5.5-3.6l1.1,27.3l-5.9-0.6l-4.8-0.2L787.1,637.8z"/>
	<path class="st24" d="M767.5,634.8c0,0,5.3-2,8.4-1.6c3,0.4,3.9,2.3,6,1.5c2.1-0.8,4.1,2.2,4.1,2.2l0.4,12.3c0,0,0.1,0.8,1.8,0.5
		c1.7-0.3,2.9-2,3.6-1c0.7,1,2,1.9,2.6,1.7c0.6-0.2,1.4,0.1,1.4,0.1l0.2,4.1c0,0-3.1,1.3-4.9,0.9c-1.7-0.5-4.2-1.1-5.2-0.5
		c-1,0.6-3.8,1.8-5.9,1c-2-0.8-5.1-0.8-7.1-0.3c-2.1,0.5-4-1.4-4-1.4L767.5,634.8z"/>
	<path class="st25" d="M773.1,637.2c0,0,3.2-1.4,5-1.7c1.8-0.3,7.3-0.3,8.9,1.4c1.6,1.7,3.2,1,2.9,5.8c-0.3,4.7-3.6,6.4-3.6,6.4
		s-1.9-1.3-3,0.9c0,0-2.6-1.6-4.1-0.3c-1.5,1.4-3.8,0.5-4.1-1.1c-0.3-1.6-2.9,0.1-3.3-1.5c-0.4-1.6-0.7-2.7-0.3-4
		C772,641.8,769.8,638.4,773.1,637.2z"/>
	<polygon class="st26" points="792.6,617.9 793.3,635.1 785.9,635.7 785,618.3 	"/>
	<path class="st26" d="M779.6,670.9l-0.2-1.1c0.3-0.1,0.6-0.2,0.7-0.4c0.2-0.2,0.2-0.4,0.2-0.6c0-0.2-0.1-0.4-0.4-0.6
		c-0.2-0.1-0.6-0.2-1.1-0.1c-0.5,0.1-0.8,0.2-1,0.4c-0.2,0.2-0.3,0.4-0.3,0.7c0,0.3,0.2,0.6,0.6,0.8l-0.1,1l-3.8-0.2l-0.2-3.1
		l1.3-0.1l0.2,2.2l1.2,0c-0.2-0.2-0.3-0.5-0.3-0.8c0-0.5,0.1-0.9,0.5-1.3c0.4-0.5,1.1-0.8,1.8-0.8c0.6-0.1,1.2,0,1.8,0.3
		c0.6,0.3,0.9,0.8,0.9,1.4c0,0.5-0.1,1-0.4,1.4C780.7,670.4,780.2,670.7,779.6,670.9z"/>
	<path class="st26" d="M773.7,665c0-0.6,0.2-1.1,0.7-1.5c0.5-0.4,1.5-0.7,2.9-0.9c1.4-0.1,2.4-0.1,2.9,0.2c0.6,0.3,0.9,0.8,0.9,1.3
		c0,0.6-0.2,1.1-0.7,1.5c-0.5,0.4-1.5,0.7-2.9,0.9c-1.4,0.2-2.3,0.1-2.9-0.2C774.1,666,773.8,665.6,773.7,665z M774.9,664.9
		c0,0.2,0.2,0.4,0.5,0.5c0.3,0.1,1,0.1,2.1,0c1.1-0.1,1.8-0.3,2.1-0.4c0.3-0.2,0.4-0.4,0.4-0.6c0-0.2-0.2-0.4-0.5-0.5
		c-0.3-0.1-1-0.1-2.1,0c-1.1,0.1-1.8,0.3-2.1,0.4C775,664.4,774.9,664.6,774.9,664.9z"/>
	<path class="st26" d="M773.4,660.4c0-0.6,0.2-1.1,0.7-1.6c0.5-0.4,1.5-0.7,2.9-0.9c1.4-0.1,2.4-0.1,2.9,0.3
		c0.6,0.3,0.9,0.8,0.9,1.4c0,0.6-0.2,1.1-0.7,1.5c-0.5,0.4-1.5,0.7-2.9,0.9c-1.4,0.1-2.4,0.1-2.9-0.3
		C773.7,661.5,773.4,661,773.4,660.4z M774.6,660.3c0,0.2,0.2,0.4,0.5,0.5c0.3,0.1,1,0.1,2.2,0c1.1-0.1,1.8-0.3,2.1-0.4
		c0.3-0.2,0.4-0.4,0.4-0.6c0-0.2-0.2-0.4-0.5-0.5c-0.3-0.1-1-0.1-2.1,0c-1.1,0.1-1.8,0.3-2.1,0.4C774.7,659.8,774.5,660,774.6,660.3
		z"/>
	<polygon class="st26" points="773,648.2 773.2,650.3 771.2,650.5 771,648.4 	"/>
	<polygon class="st26" points="772.8,645.5 773,647.7 771,647.8 770.8,645.7 	"/>
	<polygon class="st26" points="772.6,642.8 772.8,644.9 770.8,645.1 770.6,643 	"/>
	
		<rect x="770.5" y="640.1" transform="matrix(0.9972 -7.495397e-02 7.495397e-02 0.9972 -45.8918 59.6299)" class="st26" width="2.1" height="2.2"/>
	
		<rect x="770.2" y="637.4" transform="matrix(0.9972 -7.495397e-02 7.495397e-02 0.9972 -45.6852 59.6063)" class="st26" width="2.1" height="2.2"/>
	
		<rect x="770" y="634.6" transform="matrix(0.9972 -7.495397e-02 7.495397e-02 0.9972 -45.4768 59.5824)" class="st26" width="2.1" height="2.2"/>
	<polygon class="st26" points="771.8,631.7 772,633.9 769.9,634 769.7,631.8 	"/>
	<polygon class="st26" points="771.6,628.8 771.8,631.1 769.7,631.2 769.5,629 	"/>
	<polygon class="st26" points="771.4,626 771.5,628.2 769.5,628.4 769.3,626.1 	"/>
	<polygon class="st26" points="771.2,623.1 771.3,625.3 769.2,625.5 769.1,623.2 	"/>
	<polygon class="st26" points="770.9,620.2 771.1,622.5 769,622.6 768.8,620.3 	"/>
	<path class="st22" d="M790.4,628.2l-0.1-0.9c0.2,0,0.4-0.1,0.5-0.3c0.1-0.1,0.2-0.3,0.2-0.4c0-0.2-0.1-0.3-0.3-0.4
		c-0.2-0.1-0.4-0.2-0.8-0.1c-0.3,0-0.5,0.1-0.7,0.2c-0.1,0.1-0.2,0.3-0.2,0.5c0,0.3,0.1,0.5,0.4,0.7l-0.1,0.7l-2.7-0.3l-0.1-2.3
		l0.9-0.1l0.1,1.7l0.9,0.1c-0.1-0.2-0.2-0.4-0.2-0.6c0-0.4,0.1-0.7,0.3-0.9c0.3-0.3,0.7-0.5,1.3-0.6c0.4,0,0.9,0.1,1.2,0.3
		c0.4,0.2,0.6,0.6,0.6,1.1c0,0.4-0.1,0.7-0.3,1C791.1,627.9,790.8,628.1,790.4,628.2z"/>
	<path class="st22" d="M786.4,623.9c0-0.4,0.2-0.8,0.5-1.1s1-0.5,2-0.5c1-0.1,1.6,0,2,0.3c0.4,0.3,0.6,0.6,0.6,1
		c0,0.4-0.2,0.8-0.5,1.1c-0.4,0.3-1,0.5-2,0.5c-1,0.1-1.6,0-2-0.3C786.6,624.6,786.4,624.3,786.4,623.9z M787.2,623.8
		c0,0.2,0.1,0.3,0.3,0.4c0.2,0.1,0.7,0.1,1.5,0.1c0.8,0,1.3-0.1,1.5-0.2c0.2-0.1,0.3-0.3,0.3-0.4c0-0.2-0.1-0.3-0.3-0.4
		c-0.2-0.1-0.7-0.1-1.5-0.1c-0.8,0-1.3,0.1-1.5,0.2C787.3,623.5,787.2,623.6,787.2,623.8z"/>
	<path class="st22" d="M786.2,620.7c0-0.5,0.2-0.8,0.5-1.1c0.4-0.3,1-0.5,2-0.5c1-0.1,1.6,0.1,2,0.3c0.4,0.3,0.6,0.6,0.6,1.1
		c0,0.4-0.2,0.8-0.5,1.1c-0.4,0.3-1,0.5-2,0.5c-1,0.1-1.6,0-2-0.3C786.4,621.5,786.2,621.2,786.2,620.7z M787,620.7
		c0,0.2,0.1,0.3,0.3,0.4c0.2,0.1,0.7,0.1,1.5,0.1c0.8,0,1.3-0.1,1.5-0.2c0.2-0.1,0.3-0.3,0.3-0.4c0-0.2-0.1-0.3-0.3-0.4
		c-0.2-0.1-0.7-0.1-1.5-0.1c-0.8,0-1.3,0.1-1.5,0.2C787.1,620.3,787,620.5,787,620.7z"/>
	<path class="st22" d="M787.8,632.1c0.4,0,0.9,0,1.3,0c0,0.8,0.1,1.6,0.1,2.5c-0.4,0.1-0.9,0.1-1.3,0.2c0,0,0,0,0,0
		c0.2-0.3,0.4-0.5,0.6-0.8c-0.3-0.2-0.7-0.4-1-0.5c0.3-0.2,0.6-0.5,0.9-0.7C788.2,632.5,788,632.3,787.8,632.1
		C787.8,632.1,787.8,632.1,787.8,632.1z"/>
	<path class="st22" d="M787.6,628.6c0.4,0,0.9,0,1.3,0c0,0.8,0.1,1.7,0.1,2.5c-0.4,0.1-0.9,0.1-1.3,0.2c0,0,0,0,0,0
		c0.2-0.3,0.4-0.5,0.6-0.8c-0.3-0.2-0.7-0.4-1-0.5c0.3-0.2,0.6-0.5,0.9-0.7C788.1,629.1,787.8,628.9,787.6,628.6
		C787.6,628.6,787.6,628.6,787.6,628.6z"/>
	<path class="st22" d="M790.3,630.2c0.4,0,0.9,0,1.3,0c0,0.8,0.1,1.6,0.1,2.5c-0.4,0.1-0.9,0.1-1.3,0.2c0,0,0,0,0,0
		c0.2-0.3,0.4-0.5,0.6-0.8c-0.3-0.2-0.7-0.4-1-0.5c0.3-0.2,0.6-0.5,0.9-0.7C790.7,630.6,790.5,630.4,790.3,630.2
		C790.3,630.2,790.3,630.2,790.3,630.2z"/>
	<polygon class="st26" points="794.4,654.7 795,668.9 794,669 793.3,654.8 	"/>
	<polygon class="st25" points="791.6,667.3 791.7,669 790.6,669.1 790.5,667.5 	"/>
	<polygon class="st25" points="792.6,665.1 792.7,666.7 791.6,666.9 791.5,665.2 	"/>
	<polygon class="st26" points="777.2,673.7 777.2,673.8 775.9,671.9 776,671.8 	"/>
	<polygon class="st26" points="778.3,673.6 778.2,673.6 777,671.8 777.1,671.7 	"/>
	<polygon class="st26" points="779.3,673.5 779.3,673.5 778.1,671.6 778.1,671.6 	"/>
	<polygon class="st26" points="773.9,618.4 773.9,618.5 772.5,616.1 772.5,616 	"/>
	<polygon class="st26" points="775.1,618.3 775,618.4 773.6,616 773.7,616 	"/>
	<polygon class="st26" points="776.2,618.3 776.1,618.3 774.8,616 774.8,615.9 	"/>
	<polygon class="st26" points="786.1,657.6 786.3,659.8 781.8,660.3 781.7,658.1 	"/>
	<polygon class="st26" points="793,656.9 793.1,659.1 788.8,659.6 788.6,657.4 	"/>
	<path class="st27" d="M779.7,626.1c0-0.1,0-0.1,0.1-0.1c0.2,0,0.4,0,0.7,0c0.4,0.1,0.8,0.5,0.8,0.9c0,0.2-0.1,0.3-0.3,0.3
		c0-0.1,0-0.2,0-0.3c0-0.2-0.1-0.3-0.2-0.3c-0.2-0.1-0.4,0.1-0.5,0.3c-0.1,0.3,0.1,0.5,0.3,0.6c0.6,0.2,1.1-0.3,1-1
		c-0.1-0.4-0.4-0.7-0.8-0.8c-0.3-0.1-0.5,0-0.8,0c-0.1,0-0.2,0-0.2-0.2c0-0.1-0.1-0.2-0.1-0.3l0.1,1.7
		C779.6,626.7,779.7,626.4,779.7,626.1z"/>
	<path class="st27" d="M774.7,626.8c-0.3,0-0.5-0.2-0.7-0.5c-0.1-0.1,0-0.1,0-0.2c0.3-0.1,0.6-0.2,0.9,0c0.1,0.1,0.1,0.1,0.2,0.2
		l0-0.6c-0.4-0.1-0.7-0.1-1.1,0.1c-0.3,0.1-0.6,0.4-0.8,0.7c0.3,0.3,0.7,0.6,1.1,0.7c0.3,0,0.6,0,0.9,0l0-0.3
		C775,626.8,774.9,626.8,774.7,626.8z"/>
	<path class="st27" d="M774.8,620.6l0.4,5.1c0.3,0.1,0.7,0.3,1,0.5c0.1,0.1,0.1,0.1,0.2,0.2c0.1,0.1,0.2,0.1,0.4,0.1
		c0.1,0,0.2-0.1,0.3-0.1c0-0.1,0-0.2,0-0.3c-0.1-0.4,0.1-1,0.5-1.3c0.5-0.3,0.9-0.3,1.4-0.1c0.2,0.1,0.4,0.3,0.5,0.5l-0.3-4.8
		L774.8,620.6z"/>
	<path class="st27" d="M775.6,626.7C775.6,626.7,775.6,626.7,775.6,626.7c-0.1-0.2-0.3-0.3-0.4-0.4l0,0.5
		C775.3,626.8,775.5,626.7,775.6,626.7z"/>
	<path class="st27" d="M777.4,626.2c0.6-0.1,1.2-0.3,1.8-0.4c0,0,0,0,0,0c-0.3-0.7-1-0.8-1.5-0.5
		C777.5,625.4,777.3,625.8,777.4,626.2z"/>
	<path class="st27" d="M778.1,626.3c-0.2,0-0.4,0.1-0.6,0.2c0.1,0.3,0.6,0.4,0.8,0.2c0,0,0.1-0.1,0.2-0.1c0,0,0.1,0,0.2,0
		c0,0.1,0,0.1,0,0.2c-0.2,0.3-0.5,0.4-0.8,0.4c-0.3,0-0.5-0.2-0.6-0.4c0,0-0.1-0.1-0.1-0.1c-0.1,0-0.2,0.1-0.3,0.1
		c0.1,0.1,0.3,0.2,0.4,0.3c0.3,0.2,0.6,0.4,0.9,0.5c0.7,0.1,1.5-0.5,1.3-1.3c0-0.1,0-0.2-0.2-0.1
		C778.8,626.1,778.4,626.2,778.1,626.3z"/>
	<path class="st27" d="M779.2,627.4c-0.3,0.3-0.6,0.4-1,0.5c-0.7,0.1-1.3-0.1-1.8-0.5c-0.1-0.1-0.3-0.2-0.4-0.3
		c-0.1,0-0.1-0.1-0.2,0c-0.2,0-0.3,0.1-0.5,0.1l0.1,1.6l4.3-0.3l-0.1-1.6C779.4,627.1,779.3,627.3,779.2,627.4z"/>
</g>
<g>
	<path class="st5" d="M215.8,527.4c-2.7,7.2-12,13.9-19.7,13.5c-6.4-0.4-12.4-3.8-16.9-8.5c-4.4-4.7-7.5-10.5-10-16.5
		c-0.4-1.1-0.9-2.1-1-3.3c-0.3-1.9,0.2-3.8,0.8-5.6c3.2-9,11.3-15.8,20.3-18.9c7.4-2.5,15.9-2.6,22.8,1.1
		C226.3,497.1,222.7,509.1,215.8,527.4z"/>
</g>
<g>
	<path class="st7" d="M193.7,452.5c7.5-4.9,15-3,22,2.6c7,5.6,10.9,14.4,12.3,23.2c1.6,10.1,1.1,19.2-5.7,26.9
		c-6.8-2.9-12.8-6.9-15.2-13.8c-3.5,5.1-11.8,8.7-17.9,9.5c-6.1,0.8-11.8-1.7-17.2,1.3c-4.8-1.6-10.3-6.1-11.8-11
		c1.3-4.8,1.3-9.2,2.6-15.3c1.3-6.2,4.1-13.6,8.5-18.1C176.6,452.2,188.4,449.2,193.7,452.5z"/>
</g>
<g>
	<path class="st5" d="M177.5,500.8c-0.8-4-2.7-7.8-5.5-10.8c-2.7-2.9-6.9-5.1-10.4-3.4c-3.6,1.8-4.3,6.6-4,10.6
		c0.6,7.5,4.1,15.9,11.3,17.6C170.7,510.9,175.7,504.8,177.5,500.8z"/>
</g>
<g>
	<path d="M193.6,515.5c0.1,1.1,1.2,2,2.3,1.8c1.1-0.1,2-1.2,1.8-2.3c-0.1-1.1-1.2-2-2.3-1.8C194.3,513.3,193.5,514.4,193.6,515.5z"
		/>
</g>
<g>
	<path d="M211.9,514.6c0.1,1,1.1,1.8,2.1,1.7s1.8-1.1,1.7-2.1c-0.1-1-1.1-1.8-2.1-1.7C212.5,512.7,211.8,513.6,211.9,514.6z"/>
</g>
<g>
	<path class="st28" d="M200.9,512.2c-1.8-3.1-6.4-4.2-9.4-2.2L200.9,512.2z"/>
</g>
<g>
	<path class="st28" d="M218,508.7c-3.2-1.5-7.5,0.1-8.9,3.3L218,508.7z"/>
</g>
<g>
	<path class="st1" d="M206.7,527.3c-0.9,0.1-1.7,0-2.5-0.5l0.4-0.7c0.9,0.6,2.2,0.6,3.1,0c0.9-0.6,1.4-1.7,1.3-2.8
		c-0.1-0.8-0.5-1.6-1-2.4c-0.4-0.6-0.7-1.2-1-1.9c-0.3-1.1-0.3-2.2-0.3-3.3l0.8,0c0,1-0.1,2,0.2,3c0.2,0.6,0.5,1.2,0.9,1.8
		c0.5,0.8,1,1.7,1.1,2.7c0.2,1.4-0.5,2.8-1.7,3.6C207.7,527.1,207.2,527.2,206.7,527.3z"/>
</g>
<g>
	<path class="st1" d="M208,533.3c-2.6-2-6-2.1-8.3-0.1l-0.5-0.6c2.5-2.2,6.4-2.1,9.3,0.1L208,533.3z"/>
</g>
<g>
	<path class="st8" d="M271.7,548.4c0,0-10.6,2-18.8,8.6l-0.3-0.2c7.5-6.5,19.1-8.9,19.1-8.9L271.7,548.4z"/>
</g>
<g>
	<path class="st8" d="M268.9,547.2c-6.7,0.6-8.3,1-15-0.7l-0.2,0.4c6.6,1.6,7.8,1.8,15.2,0.8L268.9,547.2z"/>
</g>
</svg>
