<?xml version="1.0" encoding="utf-8"?>
<!-- Generator: Adobe Illustrator 27.0.1, SVG Export Plug-In . SVG Version: 6.00 Build 0)  -->
<svg version="1.1" id="Lager_1" xmlns="http://www.w3.org/2000/svg" xmlns:xlink="http://www.w3.org/1999/xlink" x="0px" y="0px"
	 viewBox="0 0 1600 900" style="enable-background:new 0 0 1600 900;" xml:space="preserve">
<style type="text/css">
	.st0{fill:#500B00;}
	.st1{fill:#002B33;}
	.st2{fill:#CFCFCF;}
	.st3{fill:#FFDFB9;}
	.st4{fill:#FFFFFF;}
	.st5{fill:#E6BC87;}
	.st6{fill:#191919;}
	.st7{fill:#E5BB86;}
	.st8{fill:#D4A572;}
	.st9{fill:#454545;}
	.st10{fill:#6B410C;}
	.st11{fill:#FF9E31;}
	.st12{fill:#ED492E;}
	.st13{fill:#BE6500;}
	.st14{fill-rule:evenodd;clip-rule:evenodd;fill:#CECECE;}
	.st15{fill:#CECECE;}
	.st16{fill:#BF6500;}
	.st17{fill:#333333;}
	.st18{fill:#F38000;}
	.st19{fill:#BA8B50;}
	.st20{fill:#C5CBE7;}
	.st21{fill:#A2A1A1;}
</style>
<ellipse class="st0" cx="796.6" cy="846.9" rx="458.6" ry="46.2"/>
<g>
	<g>
		<g>
			<g>
				<g>
					<g>
						<path class="st1" d="M860.1,341.8c-9.1,5.5-18.7,10.9-29.6,17c2.3,6.9,7.3,29.6,18.1,40.2c3.9-1.4,7.8-2.7,11.5-4V341.8z"/>
					</g>
				</g>
			</g>
		</g>
	</g>
	<g>
		<g>
			<g>
				<g>
					<g>
						<path class="st2" d="M836.8,394.6c10-2.7,18.9-5.4,23.7-8.6l-11.2-37.3c-8.9,5.6-18.8,10.8-27.8,14.4
							C820.8,365,830.9,389.5,836.8,394.6z"/>
					</g>
				</g>
			</g>
		</g>
	</g>
	<g>
		<g>
			<g>
				<g>
					<g>
						<path class="st3" d="M849.3,348.7c-11.4,7.2-24.6,13.7-35.2,17c-23.2,0-53.8,9.9-48.3,34.4c3.2,10.3,16.1,22.2,26.1,20.6
							c17.4-5.8,26.3-17,35.7-24.6c7.2-5.9,25.8-5.4,33-10L849.3,348.7z"/>
					</g>
				</g>
			</g>
		</g>
	</g>
	<g>
		<g>
			<g>
				<g>
					<g>
						<path class="st4" d="M836.8,394.6c10-2.7,18.9-5.4,23.7-8.6l-11.2-37.3c-8.9,5.6-18.8,10.8-27.8,14.4
							C821.5,363,832.2,369.3,836.8,394.6z"/>
					</g>
				</g>
			</g>
		</g>
	</g>
	<g>
		<g>
			<g>
				<g>
					<g>
						<path d="M964.5,171.3c-7.6,3.2-21,14.9-25.4,22c-4.4,7-26.3,88.2-37.9,118.2c-23.1,20.9-42.8,31.7-70.7,47.4
							c5.2,4.5,14.6,21.3,18.1,40.2c33.6-11.7,60.2-19.5,87.9-39.9c29.3-21.6,36.2-62.7,46.2-97.7L964.5,171.3z"/>
					</g>
				</g>
			</g>
		</g>
	</g>
	<g>
		<g>
			<g>
				<g>
					<g>
						<path class="st5" d="M737.1,349.6c12.3,3.7,25.3,12,37.2,15.5c9.1-1.1,19.9-10.5,25.4-1.2c3.2,5.2-2,8.1,0,12.7
							c1.5,3.5,10.3,6.2,16.1,10.6c2.5,1.9,9.3,6.3,11.6,9.9c1.4,2.2-0.2,7.6-3.7,8c-0.6,0.1-4.7-0.5-5.6-0.7c0.5-0.5,1-1,1.4-1.4
							c-2.2-0.6-4.1-1-4.3-0.8c-0.3,0.5,3.4,3.6,4.7,7.4c-1.2,3.1-3.6,4.5-6.9,4.8c-1.3,2.9-6,3.9-9.3,3.5c-2.2,0.7-3.7,1.9-7.4,1.5
							c-9.1-0.9-21.5-12.6-33.2-19.9c-1.7-1.1-3.7-1.9-5.6-2.4c-14-3.5-34.6-15.6-46.5-21.2L737.1,349.6z"/>
					</g>
				</g>
			</g>
		</g>
	</g>
	<g>
		<g>
			<g>
				<g>
					<g>
						<path class="st4" d="M768.4,363.1c-10.2-4.1-21-10.4-31.3-13.5l-26.2,26.3c11.8,5.5,31.3,18.2,45.3,21.9
							C762,386.8,768.4,363.1,768.4,363.1z"/>
					</g>
				</g>
			</g>
		</g>
	</g>
	<g>
		<g>
			<g>
				<g>
					<g>
						<path class="st3" d="M760.9,402c0.7-2.4,3.9-7.5,7.4-6.5c0.9,0.3,6,2.7,0.7,7.9c3.8-4.4,7.7-9.6,11.8-6.4
							c1.5,1.2,2.6,4.4-2.7,10.2c4.6-7.8,10.1-8.9,12.2-6.1c1.3,1.7,0.7,5.9-2.4,9c2.4-2.7,4.6-2.9,6-1.9c1.8,1.3,1.2,5-1.1,8
							c-1.5,2-2.2,4.2-6.1,4c-1,0-2.9-0.3-3.8-2c-4.9,1.8-8.4-1.5-8.3-4.9c-4,0.7-7.9-1.6-7.2-6.6C762,408.8,760.5,403.3,760.9,402z
							"/>
					</g>
				</g>
			</g>
		</g>
	</g>
	<g>
		<g>
			<g>
				<g>
					<g>
						<path class="st3" d="M819.5,365.2c-4.8-1-15.5-2.4-20.4-2c-4.9,0.3-6,1.5-11.2,5.4c-2.8,2.1-3,8.8-4.1,12
							c-0.8,2.4-3.7,6.5-3.6,7.2c0.3,1.7,2.6,1.8,4.3,1.7c6.8-0.3,10.5-9.3,12.1-11.6c4.9,1,13.3,6,22,4.7L819.5,365.2z"/>
					</g>
				</g>
			</g>
		</g>
	</g>
	<g>
		<g>
			<g>
				<g>
					<g>
						<path class="st6" d="M920.4,323c-0.1,0-0.3,0-0.4-0.1l-15.1-9.9c-0.3-0.2-0.4-0.7-0.2-1c0.2-0.3,0.7-0.4,1-0.2l15.1,9.9
							c0.3,0.2,0.4,0.7,0.2,1C920.9,322.9,920.6,323,920.4,323z"/>
					</g>
				</g>
			</g>
		</g>
	</g>
	<g>
		<g>
			<g>
				<g>
					<g>
						<path class="st6" d="M912.5,326.5c-0.2,0-0.4-0.1-0.5-0.2l-8.7-9.5c-0.3-0.3-0.2-0.7,0-1c0.3-0.3,0.7-0.2,1,0l8.7,9.5
							c0.3,0.3,0.2,0.7,0,1C912.8,326.5,912.7,326.5,912.5,326.5z"/>
					</g>
				</g>
			</g>
		</g>
	</g>
	<g>
		<g>
			<path class="st7" d="M821,382.1c-0.1-0.5-0.6-0.9-1.1-0.9c-0.1,0-0.2,0-0.2,0c-1,0.2-2.1,0.3-3.3,0.3c-8.1,0-18.8-4.8-18.9-4.8
				c-0.1-0.1-0.3-0.1-0.5-0.1c-0.4,0-0.8,0.3-1,0.7c-0.3,0.6,0,1.2,0.6,1.5c0.5,0.2,11.3,5,19.8,5c1.4,0,2.7-0.1,3.8-0.4
				C820.7,383.3,821.1,382.7,821,382.1z"/>
		</g>
	</g>
	<g>
		<g>
			<g>
				<g>
					<path class="st8" d="M809.7,395.2c-0.3,0-0.4,0-0.6,0.1c-0.2,0.2-0.4,0.5-0.4,0.7c0,0.3,0.1,0.6,0.2,0.8l4.2,5.2l0.1,0.1
						c2.5,2.5,5.2,5.8,5.5,6.9c0.1,0.5,0.6,0.9,1.1,0.9c0.1,0,0.2,0,0.3,0c0.3-0.1,0.5-0.2,0.7-0.5c0.2-0.3,0.2-0.6,0.1-0.8
						c-0.5-2.2-5.1-6.9-6-7.9l-4.3-5C810.4,395.4,810,395.2,809.7,395.2L809.7,395.2z"/>
				</g>
			</g>
		</g>
	</g>
	<g>
		<g>
			<g>
				<g>
					<path class="st8" d="M813.1,413.8C813.1,413.8,813.1,413.8,813.1,413.8C813.1,413.8,813.1,413.8,813.1,413.8L813.1,413.8z
						 M803,404.1c-0.3,0-0.4-0.1-0.6,0.1c-0.4,0.4-0.4,1.1,0,1.6c9.1,9.3,10.1,9.6,10.5,9.6c0.1,0,0.2,0,0.2,0c0.5,0,1-0.4,1.1-0.9
						c0.1-0.6-0.2-1.1-0.7-1.3c-0.7-0.4-5.1-4.3-9.6-8.9C803.5,404.3,803.3,404.1,803,404.1L803,404.1z"/>
				</g>
			</g>
		</g>
	</g>
	<g>
		<g>
			<g>
				<g>
					<path class="st8" d="M797.6,410.7L797.6,410.7c-0.3,0-0.2,0-0.4,0.2c-0.5,0.4-0.5,1.1-0.1,1.6c5.5,6.6,6.2,6.6,6.7,6.6
						c0.1,0,0.2,0,0.2,0c0.3,0,0.6-0.2,0.7-0.5c0.2-0.2,0.2-0.5,0.2-0.8c-0.1-0.4-0.4-0.8-0.8-0.9c-0.6-0.4-3.2-2.9-5.6-5.7
						C798.2,410.8,797.9,410.7,797.6,410.7L797.6,410.7z"/>
				</g>
			</g>
		</g>
	</g>
	<g>
		<g>
			<g>
				<g>
					<path class="st8" d="M816,401.6L816,401.6c-0.5,0-1,0.4-1.1,0.9c-0.1,0.3,0,0.6,0.2,0.8c0.2,0.2,0.4,0.4,0.7,0.5
						c0.1,0,5.7,1.2,6.3,1.3c0.1,0,0.1,0,0.2,0c0.5,0,1-0.4,1.1-1c0-0.3,0-0.6-0.2-0.8c-0.2-0.2-0.4-0.4-0.7-0.4
						c-0.3,0-3.3-0.7-6.1-1.3C816.2,401.7,816.1,401.6,816,401.6L816,401.6z"/>
				</g>
			</g>
		</g>
	</g>
	<g>
		<g>
			<g>
				<g>
					<g>
						<path class="st1" d="M951.4,420.8l157.7,6.9l-40.5-178.3l-125.2-2.8C943,314.9,943.4,380.7,951.4,420.8z"/>
					</g>
				</g>
			</g>
		</g>
	</g>
	<g>
		<g>
			<g>
				<g>
					<g>
						<path class="st6" d="M1012.3,796.4c-11.1,16.3-23,26.7-41.2,34.9c-3.3,1.5-14.5,9.1-10.9,16.6c1.9,4,11.1,3.9,15.4,3.4
							c15.2-1.6,12.5-1.2,29.8-6.8c2.9-1,18.2-8.7,24.2-11.3c9.7-6.1,27.1-7.1,27-12.4c-0.3-9.5-3.2-25.2-4.1-31.9L1012.3,796.4z"/>
					</g>
				</g>
			</g>
		</g>
		<g>
			<path d="M990.2,836.8c-0.3,0-0.6-0.2-0.8-0.5c-2.7-4.7-8.5-9.3-8.6-9.3c-0.4-0.3-0.5-0.9-0.2-1.3c0.3-0.4,0.9-0.5,1.3-0.2
				c0.2,0.2,6.2,4.8,9.1,9.9c0.3,0.4,0.1,1-0.3,1.3C990.5,836.7,990.3,836.8,990.2,836.8z"/>
		</g>
		<g>
			<path d="M998.8,830.8c-0.3,0-0.6-0.2-0.8-0.5c-2.7-4.7-8.5-9.3-8.6-9.3c-0.4-0.3-0.5-0.9-0.2-1.3c0.3-0.4,0.9-0.5,1.3-0.2
				c0.2,0.2,6.2,4.8,9.1,9.9c0.3,0.4,0.1,1-0.3,1.3C999.1,830.8,998.9,830.8,998.8,830.8z"/>
		</g>
		<g>
			<path d="M1006.8,824.6c-0.3,0-0.6-0.2-0.8-0.5c-2.7-4.7-8.5-9.3-8.6-9.3c-0.4-0.3-0.5-0.9-0.2-1.3c0.3-0.4,0.9-0.5,1.3-0.2
				c0.3,0.2,6.2,4.8,9.1,9.9c0.3,0.4,0.1,1-0.3,1.3C1007.1,824.5,1007,824.6,1006.8,824.6z"/>
		</g>
	</g>
	<g>
		<g>
			<g>
				<g>
					<g>
						<path class="st6" d="M1100.9,787.2c0.2,22.7-12.1,49.5-14.2,53.3c-2.1,3.9-4.1,12.3-1.8,16c2.3,3.6,7.1,6.4,11.4,6.6
							c11,0.7,19.7-0.3,27.9-8.9c5-5.3,8.2-22.7,9.4-35.2c0.2-1.7-8.4,17.1-7.6,17.6c0.8,0.5,8.2-13.5,10.3-18.1
							c-1.7-10.4-5.5-27.9-7.3-36.4L1100.9,787.2z"/>
					</g>
				</g>
			</g>
		</g>
	</g>
	<g>
		<g>
			<path class="st9" d="M1134.6,808.6c-0.7,2-1.6,4.4-2.4,6.8c-3,14.6-5.6,29.5-9.7,33.8c-8.2,8.6-15.1,8.8-26.1,8.1
				c-4.3-0.3-11-1.5-11.4-6.6c0-0.7-0.6-1.2-0.8-2c-0.5,3-0.4,6,0.8,7.8c2.3,3.6,7.1,6.4,11.4,6.6c11,0.7,19.7-0.3,27.9-8.9
				c4.2-4.4,7.1-17.3,8.7-28.7c1.5-2.8,2.8-5.4,3.5-7C1135.9,815.7,1135.3,812.3,1134.6,808.6z"/>
		</g>
	</g>
	<g>
		<g>
			<g>
				<g>
					<g>
						<path class="st9" d="M1056.5,820.9c-5.1,1.5-19.2,2.7-27.4,7.3c-8.2,4.5-12.6,7.3-14,8c-14,7.3-23.9,13.5-38.8,13.1
							c-4.2-0.1-15.6-3.5-15.8-7.8c-1.1,2-1.5,4.2-0.3,6.5c1.9,4,13,6.2,17.4,6.1c17-0.6,22-4.9,36.2-12.6c2.7-1.5,9.7-5.6,15.7-8.2
							c3.8-3-5.2-2-5.3-0.4c-0.1,1.6,7.2,5.3,8.7,6.6c7.7-1.2,17-4.3,24.4-6.6C1057.2,828.3,1056.7,825.9,1056.5,820.9z"/>
					</g>
				</g>
			</g>
		</g>
	</g>
	<g>
		<g>
			<g>
				<g>
					<g>
						<path d="M1111.6,838.3c-0.2,0-0.4,0.1-0.6,0c-5.8-1.6-12-1.8-17.9-0.5c-0.6,0.1-1.1-0.2-1.2-0.8c-0.1-0.6,0.2-1.1,0.8-1.2
							c6.2-1.4,12.7-1.2,18.9,0.6c0.6,0.2,0.9,0.7,0.7,1.3C1112.2,838,1112,838.2,1111.6,838.3z"/>
					</g>
				</g>
			</g>
		</g>
	</g>
	<g>
		<g>
			<g>
				<g>
					<g>
						<path d="M1114.2,830.2c-0.2,0-0.4,0.1-0.6,0c-5.8-1.6-12-1.8-17.9-0.5c-0.6,0.1-1.1-0.2-1.2-0.8c-0.1-0.6,0.2-1.1,0.8-1.2
							c6.2-1.4,12.7-1.2,18.9,0.6c0.6,0.2,0.9,0.7,0.7,1.3C1114.8,829.9,1114.5,830.1,1114.2,830.2z"/>
					</g>
				</g>
			</g>
		</g>
	</g>
	<g>
		<g>
			<g>
				<g>
					<g>
						<path d="M1115.7,822.4c-0.2,0-0.4,0.1-0.6,0c-5.8-1.6-12-1.8-17.9-0.5c-0.6,0.1-1.1-0.2-1.2-0.8c-0.1-0.6,0.2-1.1,0.8-1.2
							c6.2-1.4,12.7-1.2,18.9,0.6c0.6,0.2,0.9,0.7,0.7,1.3C1116.4,822.1,1116.1,822.3,1115.7,822.4z"/>
					</g>
				</g>
			</g>
		</g>
	</g>
	<g>
		<g>
			<g>
				<g>
					<g>
						<path d="M1121.1,819c-0.9,0-1.9-0.3-2.9-1c-4.2-2.5-7.3-6.6-8.8-11.3c-2.8,5.2-8.5,8.8-14.4,8.8c0,0,0,0,0,0
							c-2.1,0-3.6-0.8-4.1-2.2c-0.5-1.5,0.3-3.1,2.4-4.5c4.7-3.1,9.9-5.4,15.4-6.8c0.1,0,0.3,0,0.4,0c5.6,1.1,10.4,4.8,13.9,10.7
							c1.1,1.8,1.6,4.2-0.1,5.6C1122.4,818.8,1121.8,819,1121.1,819z M1110.8,804.5c1,4.9,4.1,9.3,8.4,11.9c0.4,0.3,1.8,1,2.6,0.5
							c0.7-0.5,0.3-2-0.4-3.1C1119.4,810.4,1116,806.3,1110.8,804.5z M1108.5,804.2c-5,1.4-9.7,3.5-14.1,6.4c-1,0.6-1.9,1.6-1.7,2.3
							c0.2,0.6,1.3,0.9,2.2,0.9c0,0,0,0,0,0C1100.8,813.7,1106.5,809.6,1108.5,804.2z"/>
					</g>
				</g>
			</g>
		</g>
	</g>
	<g>
		<g>
			<g>
				<g>
					<g>
						<path d="M1001,822c-0.7,0-1.4-0.2-1.9-0.7c-1.4-1.2-1.4-3.2,0-5.7c2-3.6,4.4-6.9,7.1-10c-5.1,2.2-10.2,3.9-15.6,3.8
							c-0.9,0-1.9-0.1-2.7-0.8c-1.3-1.1-1.1-3.1-0.3-4.3c0.8-1.1,2-1.7,3.2-2.2c7.3-2.9,15.6-2.8,22.8,0.3c0.4,0.2,0.6,0.5,0.5,0.9
							c-0.9,7.5-4.5,13.7-10,17.4C1003,821.6,1001.9,822,1001,822z M1010.7,803.2c0,0.1-0.1,0.2-0.2,0.3c-3.9,3.8-7.2,8.2-9.9,13
							c-0.2,0.4-1.4,2.6-0.4,3.5c0.7,0.6,2,0.1,3-0.6c4.9-3.3,8.2-8.8,9.1-15.5C1011.8,803.6,1011.2,803.4,1010.7,803.2z
							 M1001.9,801.8c-3.6,0-7.1,0.7-10.5,2c-0.9,0.4-1.9,0.8-2.4,1.6c-0.4,0.6-0.5,1.5,0,1.9c0.3,0.3,1,0.3,1.6,0.4
							c6,0.1,11.7-2.2,17.8-5.1C1006.3,802.1,1004.1,801.8,1001.9,801.8z"/>
					</g>
				</g>
			</g>
		</g>
	</g>
	<g>
		<g>
			<g>
				<g>
					<g>
						<path class="st6" d="M957.5,374.1c0,17.2-0.9,71.1,2.4,102.6c4.6,44.7,43.7,289.3,49.3,323.5c2.6,4.3,30.3,2.1,44.9-4.7
							c-0.7-95.9-14.1-234.7-33.7-342.2L957.5,374.1z"/>
					</g>
				</g>
			</g>
		</g>
	</g>
	<g>
		<g>
			<g>
				<g>
					<g>
						<path d="M994.6,709.3c6.9,43.8,12.6,79.4,14.5,91c2.6,4.3,30.3,2.1,44.9-4.7c-0.5-66-7-152.2-17.3-234.6
							C1036.7,560.9,1008.9,646.6,994.6,709.3z"/>
					</g>
				</g>
			</g>
		</g>
	</g>
	<g>
		<g>
			<g>
				<g>
					<g>
						<path class="st6" d="M957.5,374.1c1.1,21.8,4.9,33.6,7.3,50.5c2.4,16.8,32.4,51.5,34.3,56.9c13.7,52.2,76.9,258.2,96.8,319.3
							c5,3.7,23.3,1.7,38.7-5.3c-5.5-53.4-35.4-291.5-40.1-344.1c-4.1-28.1-13-55.2-21.9-82.2L957.5,374.1z"/>
					</g>
				</g>
			</g>
		</g>
	</g>
	<g>
		<g>
			<g>
				<g>
					<g>
						<path class="st10" d="M957.3,389c31.9,3.8,64.9,2.2,121.7,0c-2.1-6.7-4.3-13.3-6.5-19.9l-116,4.9
							C956.8,379.4,957.3,384.5,957.3,389z"/>
					</g>
				</g>
			</g>
		</g>
	</g>
	<g>
		<g>
			<g>
				<g>
					<g>
						<polygon points="1011.5,392.8 1011,374.8 1013.2,374.8 1013.6,392.7 						"/>
					</g>
				</g>
			</g>
		</g>
	</g>
	<g>
		<g>
			<g>
				<g>
					<g>
						<polygon points="965,390.3 964.9,377.2 962.7,377.2 962.9,390.3 						"/>
					</g>
				</g>
			</g>
		</g>
	</g>
	<g>
		<g>
			<path d="M1044.8,638.4c-0.4,0-0.8-0.2-0.9-0.6c-18.8-56.8-51.6-167.6-52.6-170.8c-7.7-17.3-9.9-74.6-10-77c0-0.5,0.4-0.9,0.9-1
				c0.5,0,0.9,0.4,1,0.9c0,0.6,2.2,59.6,9.9,76.4c0,0,0,0.1,0,0.1c0.3,1.1,33.6,113.5,52.6,170.8c0.2,0.5-0.1,1-0.6,1.2
				C1045,638.4,1044.9,638.4,1044.8,638.4z"/>
		</g>
	</g>
	<g>
		<g>
			<path d="M988.3,452.6c-0.3,0-0.5-0.1-0.7-0.3c-0.3-0.4-0.3-1,0.1-1.3c0,0,3.4-2.7,5.8-6.2c1.1-1.7,1.1-21.4-1.3-54.7
				c0-0.5,0.4-1,0.9-1c0.5,0,1,0.4,1,0.9c0.6,8.7,3.5,52.1,1,55.9c-2.6,3.7-6,6.5-6.1,6.6C988.7,452.5,988.5,452.6,988.3,452.6z"/>
		</g>
	</g>
	<g>
		<g>
			<g>
				<g>
					<g>
						<path class="st11" d="M993.2,391.2C993.2,391.2,993.2,391.2,993.2,391.2l-10.9,0c-2.7,0-4.9-2.4-4.9-5.4l0-2.3
							c0-1.4,0.5-2.8,1.4-3.8c0.9-1,2.2-1.6,3.5-1.6c0,0,0,0,0,0l10.9,0c2.7,0,4.9,2.4,4.9,5.4l0,2.3c0,1.4-0.5,2.8-1.4,3.8
							C995.8,390.6,994.6,391.2,993.2,391.2z M982.4,380c-0.8,0-1.6,0.4-2.2,1c-0.6,0.6-0.9,1.5-0.9,2.4l0,2.3
							c0,1.9,1.4,3.4,3.1,3.4l10.9,0c0,0,0,0,0,0c0.8,0,1.6-0.4,2.2-1c0.6-0.6,0.9-1.5,0.9-2.4l0-2.3c0-1.9-1.4-3.4-3.1-3.4
							L982.4,380C982.4,380,982.4,380,982.4,380z"/>
					</g>
				</g>
			</g>
		</g>
	</g>
	<g>
		<g>
			<g>
				<g>
					<g>
						<path class="st4" d="M957.3,376.9c24.3,3.4,68,2.4,117.3,0c8.4-42.2,8.5-85.2,13.1-128c2-18.4,5.2-46.6,3.3-63.7
							c-22.4-18.4-38.6-29.6-58-49.1c-28,11.6-78.4,36.1-88.3,53.7c-9.1,16.1-7.1,36.2-6.5,54.7
							C939.8,289.4,948.7,372.5,957.3,376.9z"/>
					</g>
				</g>
			</g>
		</g>
	</g>
	<g>
		<g>
			<g>
				<g>
					<g>
						<path class="st6" d="M981.6,161c-28.3,25.8-44.1,150.1-30.1,259.8c-2.5,0.3-1.8,0.1-3.4-0.3c-5.7-68.6-16.5-114.6-16.1-189.4
							c0-6.7,1.5-36.4,21.4-52.6C963.7,170.1,972.8,166,981.6,161z"/>
					</g>
				</g>
			</g>
		</g>
	</g>
	<g>
		<g>
			<path class="st12" d="M995.2,175.9c3-2.8,7.1-6.8,9.1-9.3c-2.7-2.3-10.4-10.8-10.4-10.8s-7.6,5.9-10,9c0.8,2.6,1.6,6,2.5,9.1
				c-3.4,7-23.1,92-13.2,165.7c1.8,6.6,6.5,13,12.2,22.5c4.4-8.7,12-20.6,12.4-24.9C993,266.4,996.1,182.3,995.2,175.9z"/>
		</g>
	</g>
	<g>
		<g>
			<g>
				<g>
					<g>
						<path class="st4" d="M990.5,143.8c-5.2,3.1-8.9,17.2-12.3,24.7c5.3-1.8,11.8-10.7,16.4-12.3
							C997.3,150.4,991.6,143.1,990.5,143.8z"/>
					</g>
				</g>
			</g>
		</g>
	</g>
	<g>
		<g>
			<g>
				<g>
					<g>
						<path class="st6" d="M1035.1,137.3c-24.3,42.3-28.6,94.2-16.4,146.9c12.2,52.8,43.9,117.9,90.5,143.5
							c-3-19.3-11.9-68.3-15.6-91.9c0-46.9,5-76.3,9.5-123.6c0.7-7.6-8.8-24.5-12.8-30.5C1069.8,165.4,1054.3,152.7,1035.1,137.3z"
							/>
					</g>
				</g>
			</g>
		</g>
	</g>
	<g>
		<g>
			<g>
				<g>
					<g>
						<path class="st3" d="M1085.9,360.9c-2.2,6-23.3,22.2-27.3,23.9c-7.2,3-9.8,4.3-13.3,9.7c6.8,10.5,19.5,23,29.6,30.5
							c3.3-5.3,4.2-15.8,11.1-23.6c8.9-10.2,23.4-20,25.1-26L1085.9,360.9z"/>
					</g>
				</g>
			</g>
		</g>
	</g>
	<g>
		<g>
			<g>
				<g>
					<g>
						<path class="st4" d="M1085.6,402.9c0.2-0.2,23.7-21.6,25.4-27.7l-25.1-14.4c-1.6,4.3-14.9,12-20.8,19.6
							C1066,384.5,1080.2,400.8,1085.6,402.9z"/>
					</g>
				</g>
			</g>
		</g>
	</g>
	<g>
		<g>
			<path class="st13" d="M962.2,93.1c0,0-0.2-1.8-0.7-3.3c-0.7-1.9-1.2-2.8-2.1-2.6l0,0c-1.2,0.2-2,2.9-2.2,7.5c0,0.6,0,1.1,0,1.3
				c0.1,2.6,0.3,3.9,0.8,5.8c0.6,2.1,1.3,3.2,2.2,3.1c0.7-0.1,1.2-1.1,1.6-2.5c0.6-2,0.8-4.9,0.5-8.4L962.2,93.1z M960.3,104.2
				L960.3,104.2c-0.5,0.1-1.1-0.6-1.5-2c-0.5-1.5-0.9-3.6-1-5.9c-0.2-4.4,0.6-8.4,1.7-8.5c0.5-0.1,1.1,0.6,1.5,2
				c0.5,1.5,0.9,3.6,1,5.9C962.2,100,961.4,104,960.3,104.2z"/>
		</g>
	</g>
	<g>
		<g>
			<g>
				<g>
					<g>
						<path class="st3" d="M985.7,130c2.4,9.1,4,15.7,7.8,25.2c1.2,3,32.9-7.3,41.6-13.6c-2.9-16.7-9.9-27.3-11.6-43.9
							c-4.3,5.9-8-1.3-12.7,3.1C1003.7,107.2,995.2,124.6,985.7,130z"/>
					</g>
				</g>
			</g>
		</g>
	</g>
	<g>
		<g>
			<g>
				<g>
					<g>
						<path class="st4" d="M1030.9,125.5c-8.2,11.5-28.6,26.9-37,30.2c5.1,4.7,9.3,11.4,14.1,16.3c10.8-7.5,25.4-20.7,31.3-31.1
							C1037,136.3,1034.3,131.6,1030.9,125.5z"/>
					</g>
				</g>
			</g>
		</g>
	</g>
	<g>
		<g>
			<g>
				<g>
					<g>
						<path d="M1014.5,263.6c-3.6-18.9-3-40.5-0.9-60.7c0.8-10.3,4.3-23.8,7.2-32.9c2-6.5,3.7-10.5,3.7-10.5l15.5-18.3l4,3.3
							l0.7,51.4c0,0.3-0.2,0.6-0.4,0.7l-19.7,8.3l14.4,16.7c0.1,0.2,0.2,0.4,0.2,0.6c-6.1,28-8,102.8-8,102.8s-3.3-7.4-6.4-18.2
							C1021,293.8,1017.3,280.8,1014.5,263.6z"/>
					</g>
				</g>
			</g>
		</g>
	</g>
	<path class="st3" d="M964,62.3c0,0,6.9-15.7,30.6-17.9c11-1,21.5,3.9,28.9,12.5c7.1,8.3,11.4,27.1,5,50c-0.4,2.2-0.7,4.8-0.5,7.3
		c0.2,3,1,5.9,1,5.9l-38.1-1.9L964,62.3z"/>
	<g>
		<g>
			<g>
				<g>
					<g>
						<path class="st3" d="M966.2,58.7c-3.6,5.2-6.4,11.6-6.4,19.4c0,4.7,2.3,10.8,3.2,16.3c0.2,3.1-1.9,5-4.3,9
							c-4.2,6.2-1.8,9.7,3.2,10c1.3,12.3,0,37.6,18.2,30.8c18.2-6.8,20.8-6.1,23.4-22.3c2.7-15.7,2.2-20.3,2.1-35.4
							c0-4.2-4.9-3.7-7.5-7c-2.9-3.7-0.6-12.8-4.6-16c-4-3.3-9.5-5-24.7-4.1C967.9,59.5,966.8,57.8,966.2,58.7z"/>
					</g>
				</g>
			</g>
		</g>
	</g>
	<path class="st14" d="M1009,68.8c0,0,0.6-2.4,4-2.6c3.4-0.1,7.3,1.1,8,3.3c0,0,1-1.9,3.6-1.1c2.6,0.7,6.2,2.1,7.3,6.6
		c1.1,4.4,1.4,8.3,0.9,11c-0.6,2.7,0.6,8.2-0.3,11.9c-0.9,3.7-3,7.3-4.2,10.6c0,0-3.7-2.4-4.9-5.9c-1.1-3.4-2.9-4.7-3.6-9.7
		c-0.7-5-9-8-9.6-11C1009.7,78.8,1009,68.8,1009,68.8z"/>
	<path class="st14" d="M1009.9,94.5c0,0-3.8,0.5-4.1-3.1c0,0-2.4-1.4-2.4-6.5c0-5,1.3-5.8,1.3-5.8s-2-2.8-2-6.8s2-4.8,3.1-5.2
		c1-0.4,4.5-1.3,6.6,2c1.8,3,2.9,7.7,2.5,9.6c0,0,1.3,1.2,2.3,3.5c0,0,1.9,3.6,0.7,6.8c0,0,1.8,4.2,0.5,6.3
		C1016.8,97.3,1009.8,95.8,1009.9,94.5"/>
	<g>
		<g>
			<g>
				<g>
					<g>
						<path d="M973.2,97.5c-0.1-2.2,0.6-4.1,1.7-4.2s2.1,1.7,2.2,3.9c0.1,2.2-0.6,4.1-1.7,4.2C974.4,101.5,973.4,99.8,973.2,97.5z"
							/>
					</g>
				</g>
			</g>
		</g>
	</g>
	<g>
		<g>
			<g>
				<g>
					<g>
						<path class="st15" d="M968.8,83.7c2.9-1.5,11.4-0.3,15.7,4.6c1.9,2.5,1.5,3.2-0.8,2.2c-2.6-1-3.8-1.4-6.5-2.1
							c-2.6-0.7-5.4-0.3-7.9-1.3C968.2,86.8,968.8,83.7,968.8,83.7z"/>
					</g>
				</g>
			</g>
		</g>
	</g>
	<path class="st4" d="M461,771.1c0,0-3.6,3.4-7,14.2s32.6,6.3,32.6,6.3s1.5-13.7,6.6-18.3C498.2,768.6,461,771.1,461,771.1z"/>
	<g>
		<g>
			<g>
				<g>
					<g>
						<path class="st16" d="M494.1,786.6c1.9,9.7,8.5,21.6,11.8,31c1.2,3.4,2.8,5.3,5.3,7.8c4.5,4.5,10.1,3.3,15.6,6.4
							c2.9,1.7,6,8.5,5.6,11.8c0,0.2-0.1,0.5-0.1,0.7c-17.8,2.5-33.1-0.9-45.5-8.4c-8.9-5.4-12.2-11.4-18.6-21.2
							c-1.2,1.8-3.5,5.3-4.3,6.7c-8-3.8-17.2-7.6-23.6-12.7c2.8-8.1,7.5-19.5,12.4-29.1L494.1,786.6z"/>
					</g>
				</g>
			</g>
		</g>
	</g>
	<g>
		<g>
			<g>
				<g>
					<g>
						<path class="st6" d="M557,456.3c-7,49.5-6.6,102-33.7,161.9c-26.9,59.6-49.2,104.7-67,154.8c11.9,6.3,34.8,10.8,46.8,8.2
							c23.9-51.1,62.5-104,89.6-153.7c28.5-52.2,46.5-110.5,59.9-171.2H557z"/>
					</g>
				</g>
			</g>
		</g>
	</g>
	<g>
		<g>
			<g>
				<g>
					<g>
						<path d="M557,456.3c-4.1,29.1-5.7,59.2-11.8,91.3c-4.3,22.5-31.9,212.9-31.9,212.9c24.2-44.2,57-92,79.4-133
							c28.5-52.2,46.5-110.5,59.9-171.2H557z"/>
					</g>
				</g>
			</g>
		</g>
	</g>
	<path class="st4" d="M573.3,812.7c0,0-1.7-10.7,1.4-15.9c3.2-5.2,29.3-1.7,29.3-1.7s-0.6,11.9,2.3,18.3
		C609.3,819.7,573.3,812.7,573.3,812.7z"/>
	<g>
		<g>
			<g>
				<g>
					<g>
						<path class="st16" d="M568.7,809.2c0.2,9.8-1.1,29.3-0.7,38.4c10.4,0.6,20.7,0.7,30.5,0.4c0.3-2.8,0.7-5.6,1.4-7.7
							c22.1,13.7,44.7,14.4,70.7,10c-2.3-16.6-18.6-15-28.8-19.7c-11.5-5.4-24-13.2-29.5-24.5L568.7,809.2z"/>
					</g>
				</g>
			</g>
		</g>
	</g>
	<g>
		<g>
			<g>
				<g>
					<g>
						<path class="st10" d="M488.9,832.1c-8.9-5.4-11.3-10.3-17.7-20.1c-8.5-7.9-21.7-10.7-26.4-15.2c-1.8,4.4-3.4,8.5-4.6,12
							c6.4,5.1,16.3,9.8,24.3,13.6c0.9-1.4,2.4-5.8,3.7-7.6c6.4,9.8,9.7,15.8,18.6,21.2c12.4,7.5,27.7,10.9,45.5,8.4
							c0-0.2,0-0.5,0.1-0.7c0.1-0.7,0.1-1.3,0-2C514.7,844.1,501.2,839.5,488.9,832.1z"/>
					</g>
				</g>
			</g>
		</g>
	</g>
	<g>
		<g>
			<g>
				<g>
					<g>
						<path class="st10" d="M669.8,847.3c-25.5,4.2-47.7,2.7-69.5-10.9c-10.8-0.4-22.2,0-32.3-0.6c-0.1,4.6-0.2,8.7,0,11.7
							c10.4,0.6,21.9,0.7,31.6,0.5c0.3-2.8,0.1-5,0.3-7.8c22.1,13.7,44.7,14.4,70.7,10C670.5,849.2,670.2,848.2,669.8,847.3z"/>
					</g>
				</g>
			</g>
		</g>
	</g>
	<g>
		<g>
			<path class="st10" d="M512.1,804.4c-2-5.7-13.1-13.8-16.7-14.4c-0.3-0.1-0.5,0.1-0.7,0.3c-0.1,0.2-0.2,0.4-0.1,0.6
				c-0.1,0.1-0.2,0.2-0.2,0.3c-0.2,0.6-0.5,1.3-0.7,2c-2.4,6.8-4.9,13.8-3.9,21c0,0.1,0,0.1,0,0.2c0.6,1.4,1.6,2.2,2.8,2.2
				c0.1,0,0.3,0,0.4,0c1.8-0.2,3.4-2,3.6-4c1.5-5.1,1.5-10.3,0.1-16.9c2.9,5.9,7.6,13.8,12.1,13.8c0.5,0,0.9-0.1,1.4-0.3
				C512.1,808.5,512.7,806.1,512.1,804.4z M495.3,812.2c0,0,0,0.1,0,0.1c-0.2,1.5-1.4,2.6-2.4,2.8c-0.9,0.1-1.4-0.6-1.7-1.2
				c-1-6.7,1.4-13.5,3.7-20C496.8,801.3,496.9,806.8,495.3,812.2z M509.8,807.8c-4.7,1.7-10.8-10.9-13.2-15.9
				c4.2,1.9,12.6,8.4,14.2,13C511.1,805.9,510.8,807.5,509.8,807.8z"/>
		</g>
	</g>
	<g>
		<g>
			<path class="st10" d="M632.1,814.1c-3.5-1.2-7.1-1.9-10.6-2.6c-2.2-0.4-4.5-0.9-6.8-1.5c-0.3-0.1-0.6,0.1-0.8,0.4
				c-0.1,0.2-0.1,0.5,0.1,0.7c0.3,1.9,0.5,3.7,0.6,5.6c0.3,2.8,0.5,5.6,1.2,8.5c0.4,1.7,2.4,4.6,4.6,5c0.1,0,0.2,0,0.4,0
				c0.9,0,1.8-0.4,2.4-1.3c1.9-2.7,1.7-6.1-0.3-10c-0.4-0.8-0.9-1.6-1.5-2.4c4.3,2.8,8.4,4.6,12.6,4.8c0.1,0,0.2,0,0.3,0
				c2.5,0.1,3-1,3.1-1.7C637.7,817.9,635.2,815.1,632.1,814.1z M621.9,828.1c-0.5,0.7-0.9,0.7-1.2,0.6c-1.4-0.3-3.1-2.6-3.4-3.9
				c-0.7-2.8-0.9-5.5-1.2-8.3c-0.1-1.3-0.2-2.5-0.4-3.8C621,817.4,624.9,823.8,621.9,828.1z M634.3,820c-5.6-0.2-10.9-3.3-17-8
				c1.3,0.3,2.6,0.5,3.9,0.8c3.4,0.7,7,1.4,10.5,2.5c2.6,0.9,4.6,3.1,4.4,4.1C636,819.9,635.3,820.1,634.3,820z"/>
		</g>
	</g>
	<g>
		<g>
			<g>
				<g>
					<g>
						<g>
							<path class="st10" d="M630.8,834.7c-0.1,0-0.1,0-0.2,0c-0.4-0.2-0.6-0.6-0.4-1c1-2.6,1.7-5.4,2-8.2c0-0.4,0.4-0.7,0.8-0.7
								c0.4,0,0.7,0.4,0.7,0.8c-0.3,3-1,5.8-2.1,8.6C631.5,834.5,631.1,834.7,630.8,834.7z"/>
						</g>
					</g>
				</g>
			</g>
		</g>
		<g>
			<g>
				<g>
					<g>
						<g>
							<path class="st10" d="M638.9,838c-0.1,0-0.1,0-0.2,0c-0.4-0.2-0.6-0.6-0.4-1c0.9-2.3,1.5-4.8,1.6-7.3c0-0.4,0.4-0.7,0.8-0.7
								c0.4,0,0.7,0.4,0.7,0.8c-0.2,2.7-0.7,5.3-1.7,7.8C639.6,837.9,639.2,838.1,638.9,838z"/>
						</g>
					</g>
				</g>
			</g>
		</g>
		<g>
			<g>
				<g>
					<g>
						<g>
							<path class="st10" d="M645.7,840.3c-0.1,0-0.1,0-0.2,0c-0.4-0.2-0.6-0.6-0.4-1c0.9-2.3,1.5-4.8,1.6-7.3
								c0-0.4,0.4-0.7,0.8-0.7c0.4,0,0.7,0.4,0.7,0.8c-0.2,2.7-0.7,5.3-1.7,7.8C646.4,840.1,646,840.3,645.7,840.3z"/>
						</g>
					</g>
				</g>
			</g>
		</g>
	</g>
	<g>
		<g>
			<g>
				<g>
					<g>
						<g>
							<path class="st10" d="M497.7,821.6c-0.2,0-0.4-0.1-0.5-0.2c-0.3-0.3-0.2-0.7,0.1-1c2.3-2,5.1-3.5,8.1-4.3
								c0.4-0.1,0.8,0.1,0.9,0.5c0.1,0.4-0.1,0.8-0.5,0.9c-2.8,0.7-5.4,2.1-7.5,4C498.1,821.5,497.9,821.6,497.7,821.6z"/>
						</g>
					</g>
				</g>
			</g>
		</g>
		<g>
			<g>
				<g>
					<g>
						<g>
							<path class="st10" d="M503.1,827.7c-0.2,0-0.4-0.1-0.6-0.3c-0.2-0.3-0.1-0.8,0.2-1c1.8-1.2,4.1-2.5,6.2-3.2
								c0.4-0.1,0.8,0,0.9,0.4c0.1,0.4,0,0.8-0.4,0.9c-2,0.7-4.2,1.9-5.9,3.1C503.4,827.7,503.2,827.7,503.1,827.7z"/>
						</g>
					</g>
				</g>
			</g>
		</g>
		<g>
			<g>
				<g>
					<g>
						<g>
							<path class="st10" d="M509,833c-0.2,0-0.4-0.1-0.5-0.2c-0.3-0.3-0.3-0.7,0-1l4.3-4c0.3-0.3,0.7-0.3,1,0c0.3,0.3,0.3,0.7,0,1
								l-4.3,4C509.4,832.9,509.2,833,509,833z"/>
						</g>
					</g>
				</g>
			</g>
		</g>
	</g>
	<g>
		<g>
			<g>
				<g>
					<g>
						<path class="st6" d="M570.3,456.3c1.3,52.6,12.7,104.2,8.9,159.1c-2.6,37.8-12.8,154.4-10.2,185.9c12.6,0.9,35.1,1.1,44.9-4.6
							c7.6-54.6,18.9-97.9,30.9-148.9c14.8-63.9,23.7-122.5,25.1-191.5H570.3z"/>
					</g>
				</g>
			</g>
		</g>
	</g>
	<g>
		<g>
			<g>
				<g>
					<g>
						<path class="st17" d="M577.8,186.1c-14.8,31.5-33.3,69.5-49.4,107.3c-4.5,10.5-9.8,21.2-8.9,32.5c0.7,10,5.8,19,11.1,27.5
							c12.1,19.4,25.8,37.7,41.1,54.5c17.9-22.9,35.9-45.9,55-69.8C607.3,291.3,593.8,231.6,577.8,186.1z"/>
					</g>
				</g>
			</g>
		</g>
	</g>
	<g>
		<g>
			<g>
				<g>
					<g>
						<path class="st9" d="M601.8,133.4c-17.9,31.2-32.1,52.3-35.8,78.3c-5.3,36.4,1.8,69.6-0.3,104.1c-3,48.3-14.6,99.3-22.4,144.9
							c44.4,7.8,109.8,14,146.6,15.9c5.5-77.5,9.1-155.8-3-230.5c-0.8-4.7-2.3-9.5-3.3-14.1c-6.8-28.7-23.6-53.3-41-77.3
							C627.3,146.3,614.3,141.1,601.8,133.4z"/>
					</g>
				</g>
			</g>
		</g>
	</g>
	<g>
		<g>
			<g>
				<g>
					<g>
						<path class="st4" d="M686.6,245.2c-0.7-4.4-2.1-8.9-3.2-13.3c-6.6-28.6-23.3-53.2-40.7-77.2c-15.1-8.4-28.4-13.7-40.9-21.4
							C607.1,138.9,659.6,179.7,686.6,245.2z"/>
					</g>
				</g>
			</g>
		</g>
	</g>
	<g>
		<g>
			<g>
				<g>
					<g>
						<path class="st18" d="M673.7,51.9c-19.3-10.7-42.1-18.3-64-9.7c-14.1,7.6-20,18.1-20.4,31.7c-0.3,12.1,9.2,26.3,20,45.8
							c21.8,26,47.1-29.8,63.5-57c1.3-2,3.4-3.6,3.6-6.1C676.5,54.6,675.4,52.8,673.7,51.9z"/>
					</g>
				</g>
			</g>
		</g>
	</g>
	<polygon class="st4" points="650.2,165.4 648.9,157.9 646.3,162.3 	"/>
	<g>
		<g>
			<g>
				<g>
					<g>
						<path class="st5" d="M627,88.1c-3.8,11.9-3.1,16.2-3.8,16.9c-2.7,2.9-14.2,13.2-14.4,14c-1.7,4.9-5.1,10.5-7.1,14.6
							c7.2,4.4,38.6,26.7,46.1,29.9c-0.5-1.7,8.9-23.5,10.8-27.2C647.9,119.4,641.9,99.2,627,88.1z"/>
					</g>
				</g>
			</g>
		</g>
	</g>
	<g>
		<g>
			<g>
				<g>
					<g>
						<path class="st5" d="M674.9,59.7c-9.7-1.4-34.6-10.6-33.6,4.7c0.3,5.4,6.7,5.8,6.5,13c-0.1,2.5-6.6,22.7-8,31.6
							c-3.7,23.9,9,42.8,25.6,41.6c7.5-0.6,15.2,1.3,16.5-15.4c0.4-4.7,0.9-10.7,1.4-19.1c0.1-1.8,1.1-3.5,2.7-4.5
							c2.5-1.5,4.1-3,4.3-5c0.4-3.4-5.2-7.6-7.4-9.6c-3.9-3.5-3.3-7.2-2.8-9.5C682.5,72.7,678.2,67.4,674.9,59.7z"/>
					</g>
				</g>
			</g>
		</g>
	</g>
	<path class="st8" d="M650,156.2c0,0-8.4-5.2-11.9-10.9c-3.6-5.8-5.6-10.7-5.7-18.6c0,0,5.3,8.7,10.3,13.8c5,5.1,11,6.8,11,6.8
		L650,156.2z"/>
	<g>
		<g>
			<g>
				<g>
					<g>
						<g>
							<path class="st18" d="M671.3,135.4c-9.2-1.3-13.4-1.4-19.3-21.7c-2.1-7.2-8.8-5.9-9.4-34.2c-0.1,0.4-7.4,6-7.5,6.3
								c-4.1,7.1,2.7,11,2.8,19.9c0.1,13.7-1.9,25.3,1,32.1c6.5,15.2,27.9,17.1,38.4,13.4c4.6-1.7,4.3-8.4,4.4-18.1
								C680.3,135.8,672.3,135.5,671.3,135.4z"/>
						</g>
					</g>
				</g>
			</g>
		</g>
	</g>
	<path class="st8" d="M621.6,106.6c0,0,3.7,5.1,10.2,5.3C631.9,111.9,627,116.9,621.6,106.6z"/>
	<g>
		<g>
			<g>
				<g>
					<g>
						<path class="st5" d="M638.1,105c1.8-19.9-14.9-21.4-18.8-12.9c-4.2,9.4,4.7,22.2,16.1,19.4L638.1,105z"/>
					</g>
				</g>
			</g>
		</g>
	</g>
	<g>
		<g>
			<g>
				<g>
					<g>
						<path d="M670.3,95.8c0-3,1.1-5.5,2.5-5.5c1.4,0,2.5,2.5,2.5,5.5c0,3-1.1,5.5-2.5,5.5C671.4,101.3,670.3,98.8,670.3,95.8z"/>
					</g>
				</g>
			</g>
		</g>
	</g>
	<g>
		<g>
			<g>
				<g>
					<g>
						<path class="st18" d="M660.7,86.7c3.3-3.3,7.7-4.9,12.1-5.2c1.7,0.1,6.1-0.2,5.5,2.7c-0.2,0.7-0.8,1.1-1.4,1.2
							c-2.5,0.3-4.9,0.7-7.3,1.3c-2.4,0.7-4.8,1.6-7.1,2.7C660.8,90.3,659.4,88,660.7,86.7L660.7,86.7z"/>
					</g>
				</g>
			</g>
		</g>
	</g>
	<g>
		<g>
			<path class="st19" d="M682.7,122.9c0.2-1.9,0.1-1.2,0.2-3.5c-4.7,0.6-8.1,0.1-12.3-0.4C670.9,120.8,675.1,123,682.7,122.9z"/>
		</g>
	</g>
	<g>
		<g>
			<g>
				<g>
					<g>
						<path class="st8" d="M626.1,93.5c-0.4-0.4-0.6-1-0.3-1.5c0.3-0.5,1.8-0.5,2.4-0.3c5,1.6,6.4,7.9,6.7,9.3
							c0.1,0.2-0.5,2.5-1.5,2.9c-1.1,0.4-2.6-1.2-2.7-1.5C629.4,95.6,627.8,95.1,626.1,93.5z"/>
					</g>
				</g>
			</g>
		</g>
	</g>
	<g>
		<g>
			<g>
				<g>
					<g>
						<path class="st20" d="M642.1,155.3c0,0,0.8,0.3,2,1.7c1.2,1.5,6.1,8.4,6.1,8.4l-13.8-3.2l3.2-6.5L642.1,155.3z"/>
					</g>
				</g>
			</g>
		</g>
	</g>
	<g>
		<g>
			<g>
				<g>
					<g>
						<path class="st4" d="M606.2,122.2c1.1,0.1,22.7,19.3,36,33.2c0,0-1.2,0.5-2,2.6c-0.8,2.1-2.5,10.6-2.5,10.6
							c-22.2-22.5-26.8-27.5-35.9-34.9C601.7,133.6,605,122,606.2,122.2z"/>
					</g>
				</g>
			</g>
		</g>
	</g>
	<g>
		<g>
			<g>
				<g>
					<g>
						<path class="st9" d="M601.7,161c34.6-11.4,55.2,113.1,80,149.6c24.9,18.1,52.2,37,79.6,48.6c-4.8,15.1-10.9,32.8-18.3,41.5
							c-66.3-27.3-114.9-28.1-141.3-106C589.5,258.4,550,178.1,601.7,161z"/>
					</g>
				</g>
			</g>
		</g>
	</g>
	<g>
		<g>
			<g>
				<g>
					<g>
						<path class="st17" d="M686.5,255.8c-0.2,0-0.4-0.1-0.6-0.3l-39.1-50.7c-0.1-0.1-0.1-0.3-0.1-0.4l0-12.4l-5.2,4.7
							c-0.2,0.1-0.4,0.2-0.6,0.2c-0.2,0-0.4-0.2-0.5-0.4c-5.6-10.1-13.3-19-20.7-27.6c-9.5-10.9-18.2-20.3-20.4-31.1
							c-0.1-0.4,0.2-0.8,0.6-0.8c0.4-0.1,0.8,0.2,0.8,0.6c2,10.4,10.7,19.6,20,30.4c7.3,8.4,14.9,17.1,20.4,27.1l5.7-5.2
							c0.2-0.2,0.5-0.2,0.8-0.1c0.3,0.1,0.4,0.4,0.4,0.6l0,13.8l38.9,50.5c0.2,0.3,0.2,0.8-0.1,1
							C686.8,255.8,686.6,255.8,686.5,255.8z"/>
					</g>
				</g>
			</g>
		</g>
	</g>
	<g>
		<g>
			<path class="st13" d="M1017,93.9c-0.1-0.5-0.5-0.5-1.1-0.5c0,0-0.1,0-0.1,0L981,94.3c0,0-0.5-1.7-1.5-3.2
				c-1.5-2.3-2.6-3.2-4.7-3.1l0,0c-3.1,0.3-4.5,3.6-5.2,6.5c-3.8-1.5-6.5-1.8-7.3-0.6l0,0.9c0.3-1.9,5-0.6,7.1,0.5
				c0,0.2-0.1,2.4-0.1,2.6c0.2,3,0.5,4.4,1.7,6.6c1.3,2.4,2.9,3.7,5,3.6c1.7-0.1,3-1.2,3.8-2.8c2-3.8,1.9-6.1,1.2-10.1l34.9-0.7
				C1016.6,94.4,1017.1,94.5,1017,93.9z M976,107.4L976,107.4c-1.3,0.1-2.7-0.7-3.8-2.3c-1.2-1.7-2-4.1-2.2-6.7
				c-0.3-4.9,1.9-9.4,4.7-9.6c1.3-0.1,2.7,0.7,3.8,2.3c1.2,1.7,2,4.1,2.2,6.7C981.1,102.7,978.9,107.2,976,107.4z"/>
		</g>
	</g>
	<g>
		<g>
			<g>
				<g>
					<g>
						<path d="M1088.1,179.9c26.1,16,61.2,81.8,71.7,125.8c1.1,38.6-42.8,68.4-57.9,99.9c-13.2-4.7-26.6-16.8-34.5-28.5
							c13.4-24.4,32.7-47.8,38.5-61c-14-23.3-28.6-43.9-42.5-69.1C1051.6,220.8,1062.7,179.9,1088.1,179.9z"/>
					</g>
				</g>
			</g>
		</g>
	</g>
	<g>
		<g>
			<g>
				<g>
					<g>
						<path class="st6" d="M1105.9,316.7c-0.1,0-0.3,0-0.4-0.1c-0.3-0.2-0.5-0.6-0.5-1c0.1-2.7,13.1-10.7,18.8-14.1
							c0.3-0.2,0.8-0.1,1,0.2c0.2,0.3,0.1,0.8-0.2,1c-8.3,4.9-17.4,11.1-18,12.8c0.2,0.2,0.2,0.6,0,0.8
							C1106.3,316.6,1106.1,316.7,1105.9,316.7z"/>
					</g>
				</g>
			</g>
		</g>
	</g>
	<g>
		<g>
			<g>
				<g>
					<g>
						<path d="M946.7,311c0,0-1.1-1.7-1.2-2c-4.2-12.9-2-80.5-1.9-83.4c0-0.2,0.1-0.3,0.2-0.5l11.5-15.5l-5.1-10
							c-0.2-0.2-0.2-0.5-0.1-0.8c0,0,4.7-8.8,8.8-15.8c4.1-7,9.8-14.9,9.8-14.9s0.4-0.2,4-2.2c3.5-2,8.4-4.5,8.4-4.5
							s-7.6,8.6-12.4,20c-5.8,13.6-8.9,28.2-9,28.3c0,0-4.3,15.6-7.5,38.6c-1.3,9.1-2.7,21.1-3.6,32
							C947.2,296.8,946.7,311,946.7,311z"/>
					</g>
				</g>
			</g>
		</g>
	</g>
	<g>
		<g>
			<g>
				<path class="st7" d="M790.9,407.8c-0.2-0.4-0.6-0.7-1-0.7c-0.1,0-0.3,0-0.4,0.1c-1.3,0.5-7.5,7.7-7.7,11.1
					c0,0.3,0.1,0.6,0.3,0.8c0.2,0.2,0.5,0.4,0.8,0.4c0,0,0.1,0,0.1,0c0.6,0,1.1-0.5,1.1-1c0.2-2.4,5.4-8.7,6.3-9.2
					C790.9,408.9,791.2,408.3,790.9,407.8z"/>
			</g>
		</g>
		<g>
			<g>
				<path class="st7" d="M781.8,402.3c-0.2-0.2-0.4-0.2-0.7-0.2h0c-0.3,0-0.7,0.1-0.9,0.4c-0.6,0.7-5.9,7.4-6.7,10.6
					c-0.1,0.3,0,0.6,0.1,0.8c0.2,0.3,0.4,0.4,0.7,0.5c0.1,0,0.2,0,0.3,0c0.5,0,1-0.3,1.1-0.8c0.5-2.2,4.4-7.4,6.3-9.8
					C782.4,403.4,782.3,402.7,781.8,402.3z"/>
			</g>
		</g>
		<g>
			<g>
				<path class="st7" d="M771.4,400.2c-0.2-0.1-0.4-0.2-0.6-0.2c-0.4,0-0.7,0.2-0.9,0.5c-0.1,0.2-3,4.4-3.5,5.9
					c-0.2,0.6,0.1,1.2,0.7,1.4c0.1,0,0.3,0.1,0.4,0.1c0.5,0,0.9-0.3,1-0.7c0.3-0.9,2.2-3.8,3.3-5.4c0.2-0.2,0.2-0.5,0.2-0.8
					C771.8,400.7,771.7,400.4,771.4,400.2z"/>
			</g>
		</g>
	</g>
	<path class="st7" d="M1025.8,106.3c0,0-7.1,15.8-12.5,10.4L1025.8,106.3z"/>
	<g>
		<g>
			<g>
				<g>
					<g>
						<path class="st3" d="M1010.6,102.4c0-3.9,2.2-10.4,6.3-12.7c2.1-1.2,4.7-0.9,6.5,0.1c3.2,1.7,4.9,6.5,4,11.6
							c-1.4,7.6-6.7,13.1-14,15.4L1010.6,102.4z"/>
					</g>
				</g>
			</g>
		</g>
	</g>
	<g>
		<g>
			<path class="st7" d="M1020.2,95c-0.2-0.3-0.6-0.5-0.9-0.5c-0.3,0-0.5,0.1-0.7,0.2c-2.2,1.7-5.6,7.2-5.8,7.7
				c-0.2,0.3-0.2,0.6-0.1,0.9l1.3,4.5c0.1,0.5,0.6,0.9,1.1,0.9c0.1,0,0.2,0,0.3,0c0.6-0.2,1-0.8,0.8-1.5l0.5-4.4
				c0.2-0.3,3.7-6.7,3.8-7C1020.4,95.5,1020.4,95.2,1020.2,95z"/>
		</g>
	</g>
</g>
<g>
	<path class="st7" d="M962.9,66.3c1-0.3,1.5-0.3,3,0c0,0,6.8-1.6,15,2.3c0.7,0.4,1.3-0.5,0.4-1c0,0-7.7-4-15.3-2.3
		c0,0-1.3-0.6-3.4,0.1C961.8,65.6,962.1,66.6,962.9,66.3z"/>
	<path class="st7" d="M965,62.1c1-0.3,1.2-0.4,2.2-0.3c0,0,4.9-1.2,9.3,0.6c0.8,0.3,1.3-0.7,0.3-1.1c0,0-5-1.8-9.6-0.5
		c0,0-1.4-0.1-2.6,0.5C964,61.5,964.2,62.3,965,62.1z"/>
</g>
<path class="st15" d="M963.4,121.7c-0.1,0-1,1.4-1.2,0.7c-0.3-1.7-1.1-5.4-0.4-6.9c0.2-0.4,1.4-1.1,1.6-1.1c0.7,0,4.1,2.7,6.9,4.5
	c3.7,2.5,6.7,2.7,6.7,2.7l1.2,6.1c0,0-4.9-0.9-8.8-3C966.6,123.2,963.9,121.8,963.4,121.7z"/>
<path class="st7" d="M991.9,151c0,0-1.1-2.9-1.8-5.1c-0.7-2.2-1.4-4.7-1.4-4.7s9.1-2.5,21.7-17.5
	C1010.4,123.7,1006.7,141.7,991.9,151z"/>
<path class="st21" d="M983.9,164.8c0,0-3.1,2.6-5.7,3.8l6.3-1.7c0,0-0.1-0.4-0.3-1C984,165.3,983.9,164.8,983.9,164.8z"/>
<polygon class="st21" points="1003.8,167.2 1008,172 1001.8,169.3 "/>
<path class="st17" d="M663.5,375.2c0-0.3-0.3-0.6-0.6-0.6l-0.7-0.1c0,0.7,0,1.4,0,2c0.3,3.6,0.4,10.5-1.5,12.7
	c-2.3,2.8-44-0.4-47.6-2.4c-1.2-0.6-2.2-5.2-0.3-14.7c0.1-0.6,0.3-1.4,0.4-2.1l-0.8-0.1c-0.4,0-0.7,0.2-0.8,0.6c0,0-0.8,3.8-1.2,7.7
	c-0.5,5.6,0.1,8.8,1.9,9.8c2.1,1.1,14.3,2.5,24.9,3.2c4.3,0.3,9,0.5,13.2,0.5c5.7,0,10.3-0.4,11.3-1.6
	C664.6,386.6,663.5,375.6,663.5,375.2z"/>
<g>
	<path class="st17" d="M690.1,380.4c-20.6-7.6-37.2-15.3-51.6-27.8c-15.9-13.8-27.3-32.3-36.1-58.1c-1.7-5.1-3.9-11.1-6.3-17.5
		c-10.4-27.8-23.4-56.3-19.6-81.9c0.5-1.4-0.8-1.9-1.1-1.2c-4.7,26.1,8.8,55.3,19.4,83.6c2.4,6.4,4.6,12.4,6.3,17.4
		c8.9,26.1,20.5,44.8,36.5,58.8c14.6,12.7,31.3,20.4,52.1,28.1c0.1,0,0.2,0,0.2,0c0.3,0,0.6-0.2,0.7-0.5
		C690.6,381,690.4,380.6,690.1,380.4z"/>
	<path class="st17" d="M692.5,317.5c-3.1-2.2-6.5-4.7-10.3-7.4c-8.9-13.1-17.2-37.5-26-63.3c-3.7-10.8-5.3-14-9.1-24.2
		c0,0-0.7-1.4-1.3-1.2c-0.6,0.2-0.4,0.9-0.4,0.9c3.9,10.5,5.7,14,9.4,24.9c8.8,25.9,17.2,50.4,26.2,63.7c0,0.1,0.1,0.1,0.2,0.2
		c3.9,2.8,7.3,5.3,10.4,7.5c0.3,0.2,0.8,0.2,1-0.2C692.9,318.2,692.8,317.7,692.5,317.5z"/>
</g>
</svg>
