<?xml version="1.0" encoding="utf-8"?>
<!-- Generator: Adobe Illustrator 27.0.1, SVG Export Plug-In . SVG Version: 6.00 Build 0)  -->
<svg version="1.1" id="Lager_1" xmlns="http://www.w3.org/2000/svg" xmlns:xlink="http://www.w3.org/1999/xlink" x="0px" y="0px"
	 viewBox="0 0 1600 900" style="enable-background:new 0 0 1600 900;" xml:space="preserve">
<style type="text/css">
	.st0{fill:#BA8B50;}
	.st1{fill:#418D9B;}
	.st2{fill:#106B7A;}
	.st3{fill:#CFCFCF;}
	.st4{fill:#A3A2A2;}
	.st5{fill:#EE492E;}
	.st6{fill:#ED5435;}
	.st7{fill:#D5EDEF;}
	.st8{fill:#D8F0F2;}
	.st9{fill:none;stroke:#B8CDCE;stroke-width:0.2463;stroke-miterlimit:10;}
	.st10{fill:#FFFFFF;}
	.st11{fill:#97672C;}
	.st12{fill:#002B33;}
	.st13{fill:#452316;}
	.st14{fill:#F0E2C7;}
	.st15{fill:#E6BC87;}
	.st16{fill:#6B410C;}
	.st17{fill:#7D7B7B;}
	.st18{fill:#013F4B;}
	.st19{fill:#FF9E31;}
</style>
<g>
	<ellipse cx="156.6" cy="807.5" rx="84.7" ry="12.9"/>
	<polygon class="st0" points="188,669.2 182.3,669.1 179.8,808.8 189.1,808.9 	"/>
</g>
<g>
	<path class="st0" d="M120.2,660H116c0,0,2.3,58.5,2.2,78.1c0,17.4-2.2,69.5-2.2,69.5h6.4c0,0,0-52,0-69.4
		C122.5,718.6,120.2,660,120.2,660z"/>
	<path class="st1" d="M163.5,659.8c3.8,26.8-16.6,51.5-45.6,52c-29-0.4-49.4-25.2-45.6-52c3.9-27.3,22.4-49.6,45.6-49.6
		C141.1,610.2,159.6,632.5,163.5,659.8z"/>
	<path class="st2" d="M163.9,662.5c-3.1,14.8-20,29-28,33c-8,4-19.7,6-26.1,6c-16.6-0.2-25.8-4.7-25.8-4.7s0,0-0.1,0
		c8.2,8.9,20.1,14.7,34,14.9C145.9,711.3,166,688.2,163.9,662.5z"/>
</g>
<ellipse cx="1450.9" cy="807.5" rx="84.7" ry="12.9"/>
<g>
	<polygon class="st0" points="1418.1,669.2 1423.8,669.1 1426.2,808.8 1416.9,808.9 	"/>
	<path class="st1" d="M1476.8,615.5c-11.7-40.8-32.4-74.8-58.3-74.3c-25.9,0.5-45.3,35.1-55.6,76.3c-10,40,16.3,79.8,58.4,80.1
		C1463.4,695.8,1488.2,655.1,1476.8,615.5z"/>
</g>
<g>
	<path class="st0" d="M1485.8,660h4.2c0,0-2.3,58.5-2.2,78.1c0,17.4,2.2,69.5,2.2,69.5h-6.4c0,0,0-52,0-69.4
		C1483.5,718.6,1485.8,660,1485.8,660z"/>
</g>
<g>
	<ellipse cx="793.3" cy="806.4" rx="588.6" ry="37.1"/>
	<polygon class="st3" points="964.4,806.4 625.5,806.4 621.8,14.1 968.1,14.1 	"/>
	<polygon class="st3" points="1297.6,806.4 964.4,806.4 964.4,200 1303.3,202.8 	"/>
	<polygon class="st4" points="972,806.4 964.4,806.4 967.2,200 974.8,200 	"/>
	<polygon class="st5" points="845.5,91.3 812.4,91.3 812.4,58.2 777.4,58.2 777.4,91.3 744.3,91.3 744.3,126.3 777.4,126.3 
		777.4,159.4 812.4,159.4 812.4,126.3 845.5,126.3 	"/>
	<g>
		<rect x="659.9" y="588.3" class="st5" width="270" height="51.5"/>
		<g>
			<polygon class="st6" points="929.9,621.4 689.8,639.8 929.9,639.8 			"/>
		</g>
		<g>
			<rect x="705.4" y="639.8" class="st7" width="89.6" height="166.7"/>
			<rect x="794.9" y="639.8" class="st7" width="89.6" height="166.7"/>
			<g>
				<polygon class="st8" points="884.5,694.2 808.6,639.8 794.9,639.8 783.3,639.8 884.5,727.4 				"/>
				<polygon class="st8" points="836.3,639.8 816.7,639.8 884.5,684.5 884.5,667.9 				"/>
			</g>
			<line class="st9" x1="794.9" y1="639.8" x2="794.9" y2="806.4"/>
		</g>
	</g>
	<g>
		<g>
			<g>
				<rect x="865.8" y="464.8" class="st2" width="43" height="43.4"/>
			</g>
			<g>
				<rect x="774.2" y="464.8" class="st2" width="43" height="43.4"/>
			</g>
			<g>
				<rect x="682.6" y="464.8" class="st2" width="43" height="43.4"/>
			</g>
		</g>
		<g>
			<g>
				<rect x="865.8" y="364.2" class="st2" width="43" height="43.4"/>
			</g>
			<g>
				<rect x="774.2" y="364.2" class="st2" width="43" height="43.4"/>
			</g>
			<g>
				<rect x="682.6" y="364.2" class="st2" width="43" height="43.4"/>
			</g>
		</g>
		<g>
			<g>
				<rect x="865.8" y="263.7" class="st2" width="43" height="43.4"/>
			</g>
			<g>
				<rect x="774.2" y="263.7" class="st2" width="43" height="43.4"/>
			</g>
			<g>
				<rect x="682.6" y="263.7" class="st2" width="43" height="43.4"/>
			</g>
		</g>
	</g>
	<polygon class="st3" points="625.5,806.4 292.2,806.4 286.5,202.8 625.5,200 	"/>
	<g>
		<g>
			<g>
				<rect x="525.4" y="565.4" class="st2" width="43" height="43.4"/>
			</g>
			<g>
				<rect x="433.8" y="565.4" class="st2" width="43" height="43.4"/>
			</g>
			<g>
				<rect x="342.2" y="565.4" class="st2" width="43" height="43.4"/>
			</g>
		</g>
		<g>
			<g>
				<rect x="525.4" y="666" class="st2" width="43" height="43.4"/>
			</g>
			<g>
				<rect x="433.8" y="666" class="st2" width="43" height="43.4"/>
			</g>
			<g>
				<rect x="342.2" y="666" class="st2" width="43" height="43.4"/>
			</g>
		</g>
		<g>
			<g>
				<rect x="525.4" y="464.8" class="st2" width="43" height="43.4"/>
			</g>
			<g>
				<rect x="433.8" y="464.8" class="st2" width="43" height="43.4"/>
			</g>
			<g>
				<rect x="342.2" y="464.8" class="st2" width="43" height="43.4"/>
			</g>
		</g>
		<g>
			<g>
				<rect x="525.4" y="364.2" class="st2" width="43" height="43.4"/>
			</g>
			<g>
				<rect x="433.8" y="364.2" class="st2" width="43" height="43.4"/>
			</g>
			<g>
				<rect x="342.2" y="364.2" class="st2" width="43" height="43.4"/>
			</g>
		</g>
		<g>
			<g>
				<rect x="525.4" y="263.7" class="st2" width="43" height="43.4"/>
			</g>
			<g>
				<rect x="433.8" y="263.7" class="st2" width="43" height="43.4"/>
			</g>
			<g>
				<rect x="342.2" y="263.7" class="st2" width="43" height="43.4"/>
			</g>
		</g>
	</g>
	<g>
		<g>
			<g>
				<rect x="1203.9" y="565.4" class="st2" width="43" height="43.4"/>
			</g>
			<g>
				<rect x="1112.3" y="565.4" class="st2" width="43" height="43.4"/>
			</g>
			<g>
				<rect x="1020.7" y="565.4" class="st2" width="43" height="43.4"/>
			</g>
		</g>
		<g>
			<g>
				<rect x="1203.9" y="666" class="st2" width="43" height="43.4"/>
			</g>
			<g>
				<rect x="1112.3" y="666" class="st2" width="43" height="43.4"/>
			</g>
			<g>
				<rect x="1020.7" y="666" class="st2" width="43" height="43.4"/>
			</g>
		</g>
		<g>
			<g>
				<rect x="1203.9" y="464.8" class="st2" width="43" height="43.4"/>
			</g>
			<g>
				<rect x="1112.3" y="464.8" class="st2" width="43" height="43.4"/>
			</g>
			<g>
				<rect x="1020.7" y="464.8" class="st2" width="43" height="43.4"/>
			</g>
		</g>
		<g>
			<g>
				<rect x="1203.9" y="364.2" class="st2" width="43" height="43.4"/>
			</g>
			<g>
				<rect x="1112.3" y="364.2" class="st2" width="43" height="43.4"/>
			</g>
			<g>
				<rect x="1020.7" y="364.2" class="st2" width="43" height="43.4"/>
			</g>
		</g>
		<g>
			<g>
				<rect x="1203.9" y="263.7" class="st2" width="43" height="43.4"/>
			</g>
			<g>
				<rect x="1112.3" y="263.7" class="st2" width="43" height="43.4"/>
			</g>
			<g>
				<rect x="1020.7" y="263.7" class="st2" width="43" height="43.4"/>
			</g>
		</g>
	</g>
</g>
<polygon class="st4" points="625.5,806.4 617.8,806.4 615,200 622.6,200 "/>
<g>
	<ellipse cx="816.1" cy="863.3" rx="501.3" ry="31.6"/>
	<path d="M1180.7,596.3c-2.8-6.5-11.7-5.4-15.6-1c-3.7-8.4-10.1-27.2-21.5-22.1c-0.3-1.3-0.6-2.6-1-3.8c4.8-13.9-7.9-30.2-21.2-21.1
		c-8.1-0.9-14.6,6.3-15.5,14.7c-12.1,9.5-18.6,25.1-16,38.9c-5.1,0.1-10.2,1.7-13.9,5.7c-6.2-6.2-14-10.2-22.9-7.4
		c-5.2-3.5-11.7-4.6-18-3c-3.3-10.8-14.9-22.1-25.9-14.5c-19.5-43.9-44.8-16.4-44.7,19.9c-16-15-39.1-1.4-39.8,20.2
		c-7.2-8.5-23.8-17.4-34.7-10.2c-5.4-12.9-21.9-17.4-33.9-15.6c-8.8-6.2-21.4-3.6-28.6,4.3c-0.8-0.3-1.5-0.6-2.3-0.9
		c-5.2-10.5-19.1-15-28.9-8c-8.5-50.2-47.6-22.6-41.7,17.1c-9.1-4.6-22.1-3.3-29.2,3.7c-3.7-10.6-17.4-18.5-26.6-12.1
		c-2.9-0.3-5.6,0.2-8.1,1.4c-10.1-21.7-39.9-25-45.7,2.3c-13.4-7-29.3-7-43.5-2.6c-4.9-8.3-14.9-8.8-22.8-6
		c2-21.4-12.2-48.3-30.6-24.1c-3.7-22.9-24.9-48.9-42.6-21.6c-18.3-42.4-46.1-16.6-36.1,21c-8.4,3.7-15.4,8.4-21.7,15.3
		c-15.1-43.3-42.5-20.1-24.9,14c-9.3,0.2-11.4,14.4-12.2,22.3c-9.5,12.1-3.3,32.7-5.9,47.7c-1.1,23.2-4.9,49.1-0.6,72.4
		c-2,31.1-3.1,73.7-1.2,104.5c0.5,7.5,11.8,7.6,11.6,0c0.3-10.2,0.6-31.8,0.8-42c6.2,23.1,13.3,14.7,13.6-4.3c0.9,1.2,2.3,1.8,3.6,2
		c0.9,4.9,1.2,24.4,9,19.4c-0.3,6.3-0.7,12.5-1.2,18.8h0.1c0.1,7.8,10.1,10.4,14.4,4.6c2.7-3.7,1.2-8.9,1.9-13.2
		c1-6.2,2.7-11.7,2.5-18.1c-0.3-9.3-0.7-18.7-1.2-28c-0.4-6.7-2.2-13.6-0.7-20.3c5.4,4.3,13.8,2.6,18.7,8.3c5.1,5.9,4,16.4,5.1,23.9
		c1.3,9.1,2.4,17.6,2.2,26.8c-0.1,3-0.3,26.3,1.6,27.4c5.1,3.1,11.3-1.3,13-6.2c1.9-5.6,1-5.7,6.9-3.5c0.8,5.7,1.1,14.2,8.9,10.2
		c11.5-5.8-10.1-35.7,9.9-37c7.2-0.5,4.3,7.2,4.6,13.5c0.4,8.5,0.2,16.7,0.4,25.1c0.1,5.8,0.8,5.7,6.5,6.8c3.8,0.7,9,2.3,12.5,0.1
		c5.1-3.1,5.7-9.7,8.1-14.7c2.5-5.2,4.9-8.5,5.8-14.6c1-6.3,1.3-12.8,1.5-19.1c0.1-2.3-0.9-14.3,0.8-15.7c3.3-2.6,3.1-8.4,4.4-12.4
		c1,0.1,2,0.1,3,0.2c2.3,7.8-1.8,16.6,0.3,24.4c1.4,5.3,2.5,8,2.5,13.9c0,6.5,0.1,13.1,1.9,19.4c1.7,5.7,5.6,5,11.1,4.7
		c0.2-7.8-1.2-72.1,15-63.9c5.7,2.9,4,16.7,4.3,22c0.6,11.4,1.3,22.9,1.9,34.3c2,0.8,3.5,2.8,3.6,5.1c5.7,2,6.5-7.8,9.7-10.3
		c1.5,4.3,1.6,10.8,7,12.1c1.6-2.5,4.5-3.6,7.3-3.1c3.1-4.5,2.6-10,2.1-15.2c1.5-2,4.7-0.8,5.9,1.5c1.7,3.2,0.7,7.5,2.9,10.6
		c1.3,0,2.6,0.6,3.3,1.8c3.3-0.2,4.2-5,4.1-8.6c-0.3-16.2,0.8-32.4,3.4-48.4c1.1-0.1,2.1-1,2.3-2.2c1.6,0,2.1,1.8,2.3,3.2
		c2.8,18.7,3.4,38.8,4.1,57.7c0.1,4.1-0.6,5.4,2.3,8c3.4,3.1,9.1,2.2,13.2,1.5c5.2-1,7-2.9,8.5-8.2c4.7-17.2-4.4-52.1,16.6-58.7
		c4.2-1.3,8.7-1,12.4,1.7c5.3,3.9,4.6,10,5.2,16.1c0.6,6.4,1.9,12.7,2.2,19.1c0.4,7.4-1.8,17.4,0.1,24.4c1.9,7.4,9.6,6.8,15.7,6.4
		c0.6-13.2-0.9-26.6-0.4-39.8c0.1-2.2-0.5-10.7,0.5-12.5c2-3.3,12.4-4.7,15.7-4.5c2.9,0.2,9.6,2.1,11.6,4.6c2.7,3.6,2,12.2,2.3,16.7
		c0.5,6.8,1.9,13.1,2.8,19.8c0.2,1.5-0.1,5.2,0.5,6.4c2.7,5.3,11.1,4.1,15.8,2.8c-1.3-4.4-0.7-10.7-1.3-15.6c2.6-0.4,4.8-2,7.1-3.6
		c-2.1-9.5-0.8-20.5-1.6-30.4c-0.5-6.1,0-12,0-18c4.6-0.4,9.4-2.6,14-1.6c2.3,23.6,2.6,48,6.6,71.3c3.4,0.3,7.2,1.2,10.6-0.4
		c0.6-11.7-2.1-23.5-2.7-35.2c-0.6-13.5-2.3-26.9-1.1-40.5c0.1-1.4-0.3-3.7,0.5-5c0.7-1.1,6-3.2,7.2-2.5c3.6,2.1,1.6,7.7,1.2,10.8
		c-0.8,6.2-0.2,12.7,0.2,19c0.9,13.7,2.4,27.3,3.5,41c0.3,3.8-0.2,7.6,2.6,9.5c4.1,2.8,9.9-1.2,14.1,0.4c-1.6-6.8,0.4-14.9,0.5-22
		c0.1-8.5,1-17,1-25.4c3.2,1,5.5,24.2,6,27.5c0.4,3.1,0.7,22.3,8.4,14.7c-2.2-6,0.4-15.7,0-22.4c-0.3-5-0.2-9.9-0.6-14.9
		c-0.7-8-1.4-16.8-0.7-24.7c4.2-0.1,8.5-0.2,12.7-0.2c-1.6,0,1.8,40.3,2,43.9c0.4,7.3-1.3,15.1,0.9,22.1c1.4-0.4,11.5-2.9,12.6-2.3
		c1.8,1,1.9,8.2,2.4,10.4c4.4-0.4,9-1.3,13.4-1.5c-1.5-4.7,0.1-11.2-0.1-16.3c-0.4-8.4-0.3-16.8-0.4-25.2c0-7.4,0.7-16-0.4-23.2
		c4.7-0.5,8.5-4.4,13.3-2.5c1.2,20,4.8,39.8,5.3,59.8c4.1,0,7.9,1,12,0c0.1-3.1-2.5-13.5,2.7-12.2c-0.4,3.9,0.4,8.6,0.6,12.8
		c3.2,0,6.4-0.2,9.6,0.3c3.1-8.9,1.2-19.1,1-28.5c0-2.7,0.2-36.7-1.1-36.7c2.6,0.1,5.1,0.2,7.7,0.2c-1.5,0,1.9,54.7,2.8,59.2
		c0.6,3.1,0.9,5.1,3.6,6c1.7,0.6,6.5,0,7.6-1c3.8-3.5,0.1-15.7-0.1-21c-0.3-7.5,0-18.1-2.7-25c2.2-0.4,4.5-1.1,6.5-2
		c0.2,13.5,2,27.2,3.2,40.7c0.7,7.6,1.1,5,7.6,5.3c2.4,0.1,4.5,1,6.8,0.8c2.4-22.8-6.2-47-2.8-70.1c7.9,0.9,8.4-0.3,10,8.3
		c2.5,13.4,0.7,27.6,3.1,41.1c1.1-0.6,2.6,0,3.6-0.4c0.5,7.4,1.3,15.4,2.9,22.7c3-0.8,7.2-2.1,10-0.5c0.3-0.1,1.6-0.8,1.9-1
		c2.1-15.6,0.5-32,0.5-47.7c0-3.6-0.9-9.7,0-13c1-3.5,4.8-3.7,7-6.6c1.9-2.4,3.4-7.1,3.8-10.5c5.8-0.1,12.1-2.2,17.5-3.4
		c2,3.7,0.1,12.2,0.6,16.7c0.5,5.2,1.4,10.3,1.9,15.4c0.5,5.1-0.4,10.9,0.9,15.7c2.3,0.5,4.4,1.8,6.1,3.6
		c-3.2,8.5,0.7,23.6,2.3,32.4c1.2,6.5,4.3,8.6,11.2,7.6c-1.7-4.5,0-12.2,0-17.3c0-9.3-0.6-18.5-0.2-27.7c0.3-6.4-0.5-12.6-0.3-19
		c0.2-5.8,1.3-6.4,7.4-7.2c0.7,9.6,3.2,19,3.6,28.7c0.4,8.8,0,17.9-0.2,26.7c-0.1,3.7-2.2,11.9,0.4,14.9c2.2,2.6,10.8,0.7,13.6,0
		c-1.1-11.7-0.5-25.8-0.6-38.1c0-10.6,1.6-22.3-0.1-32.7c9.7-5.3,16.5-4,18.2,7.6c1.6,10.7,1.9,22.1,2.4,32.9
		c0.3,6.9-0.2,14.8,2.1,21.4c1.6,4.6,2.5,5.8,6.6,6.2c3.2,0.3,10.9-0.6,13.3-3.2c-2-13.4-1.1-28-2.7-41.7
		c-0.7-6.3-0.8-12.6-1.5-18.9c-0.4-3.3-1.9-8-0.8-11.3c1.1-3.7,6.1-6.2,9.9-5.8c9.9,1.1,7.9,19.5,8.8,27.3
		c1.7,14.4,1.9,29.1,3.6,43.3c0.9,7.3-1.3,14.4,8.1,12.6c6.3-1.2,14.4,0.3,17.5-6c4.6-9.2,1.1-21.8,1.4-32
		c0.3-7.7,1.5-16.6-2.1-23.2c0.8-3,3-6.5,5.6-7.6c0.3-0.1-0.3-12.9-0.1-14.7c2.3-1.8,3.8-4.8,3.8-7.7c-0.6-28.8,0.8-57.6,1.2-86.4
		C1195.9,647.4,1191.4,622.2,1180.7,596.3z M493.8,787.4c0-3.2-0.1-6.5-0.1-9.7c0.5,0.1,1,0.2,1.5,0.3
		C494.6,781.1,494.2,784.2,493.8,787.4z M520.8,793.6c0.4-4,0.9-7.9,1.2-11.9c0.7,0.1,1.4,0.1,2.1,0.2
		C522.7,785.7,521.6,789.6,520.8,793.6z M893.5,791.2c-0.1-3.6-0.1-7.4-0.3-11.3c0.5,0,1,0,1.5,0
		C894.2,783.6,893.8,787.4,893.5,791.2z"/>
	<g>
		<polygon class="st10" points="758.9,496.5 754.1,570.4 657.8,571.9 653.2,499.4 		"/>
		<polygon class="st0" points="706.4,516 705.2,710.2 703.1,709.2 701.5,516.7 		"/>
		<polygon class="st10" points="892.9,448.3 1133.5,433.5 1127,514.2 905,521.4 		"/>
		<polygon class="st0" points="892.4,445.6 921.5,621.1 918.5,620.4 886,448 		"/>
		<polygon class="st0" points="1140.9,426.5 1121.1,622.2 1118.4,620.6 1134,426.9 		"/>
		<g>
			<path class="st11" d="M433.8,719.6c-3.7,2.9-6.2,6.6-7.1,10.4c-0.3,1.2,1.2,1.6,2.3,2.4c-1.8,1.3-3.6,3.2-4.6,4.9
				c0.7,1.3,1,2.8,1.8,4c0.1,0.1,0.1,0.2,0.3,0.2c0.1,0,0-0.2-0.1-0.1c1.2-0.1,2.1,0.2,3.3-0.2c1.6,1,3.3,1.7,5.3,2.3
				c2.2-1,3.6-1.7,4.8-3.4c3.4-4.8,3.8-10.5,2.8-15.9c-0.1-0.5-0.2-1-0.5-1.5C441,721,436.4,720,433.8,719.6z"/>
			<polygon class="st10" points="333,408.1 313.9,466.7 387.5,501.7 413.4,447.5 			"/>
			<polygon class="st0" points="367.4,441.6 328.3,541.8 330.2,541.8 370.9,443.9 			"/>
			<path d="M423.2,860.2c-0.3,2.8-0.2,5.7,0.2,8.6c4.7,0.1,9.6,0.5,14.3,0.4c0.7-0.6,0.8-1.8,0.5-2.7c-0.3-0.9-1-1.7-1.8-2.3
				C432.9,861.1,427.7,860,423.2,860.2z"/>
			<path d="M361,859.4c-1.2,2.7-1.9,5.7-2,8.6c3.8,0.7,7.7,0.9,11.5,0.3c0.3-2.9,0-5.5-0.7-8.3C367.1,859.6,363.6,859,361,859.4z"/>
			<path class="st12" d="M387.2,726.9c3.4,2,7.5,3,10.6,5.6c13.1,41.1,21,85.4,25.4,128.5c2.7-0.1,5.5,0.1,8.2,0.1
				c-3-53.8-7.3-107.3-12.8-160.8c-17.5-1.8-35.9-2.6-53.4-4.3c1.2,53.5-0.9,111.2-4.6,164.6c3.1,0.7,6.1,0.3,9.3,0.1
				C378.8,819,384,769.4,387.2,726.9z"/>
			<path class="st11" d="M412.7,547.3c1.9,12.7,0.3,25.9-4.5,37.7c-1.5,0.6-3,1.1-4.6,1.7c-0.5,2.1-1.3,4.2-1.9,6.3
				c-5.1-1.8-10.2-4.2-15.1-6.5c0.4,0.2,0.3-3.8,0.2-4.1c-0.4-1.4-1.5-2-1.8-3.4c-0.4-1.7-0.3-3.4,0.1-5.1c0.9-3.4,3.6-5.5,6-7.7
				c1.8-1.6,4.1-3.2,5.7-5.1c1.4-1.7,2.9-3.3,4.6-4.8c1.8-1.7,3.7-3.3,5.7-4.9C407.6,551.1,412.7,547.6,412.7,547.3z"/>
			<path class="st13" d="M413.2,548.4c1.1-1.3,2.3-2.7,3.4-4c-2.9-0.8-6-1.8-8.9-2.6c1.3-2.3,2.5-5,3.8-7.2
				c-7.2-0.9-14.6,0.9-20.3,5.7c-0.1-2.4,0.1-5.4,0-7.8c-4.2,2.6-7.6,6.8-9.4,11.6c-3.8,10.3-0.5,21.8,2.2,32.5
				c5.7,5.1,13.8,7.7,21,5.7c0.3-0.1,1.1-3.8,1.2-4.4c0.3-1.6,0.5-3.3,0.8-4.9c-1.2-0.7-2.1-2-2.4-3.5c-0.3-1.5-0.1-3,0.2-4.4
				c0.2-1,0.6-1.9,1.2-2.7c0.6-0.8,1.5-1.3,2.5-1.2c1.1,0.1,1.9,1.1,2.3,2.1c0.4,1.1,0.5,2.2,0.5,3.4c0.2,0,0.5,0,0.7,0
				c0.5-3,0.6-6.1,0.8-9.2C413.3,554.5,413.5,551.4,413.2,548.4z"/>
			<path class="st11" d="M351.2,524.7c0.7-3.2,0-6.8,1.8-9.5c1.3-2,2.5-4.3,3.9-6.3c-1.8-4.6-3.7-9.2-5.7-13.6
				c-0.8-0.1-1.6,0.2-2.4,0.6c-2-1.7-4-3.5-6.3-4.9c-2.5,0.7-4.7,2.3-6.4,4.3c0.1,0.6,0.4,1.2,0.5,1.8c-1.3,1.9-2.1,4.2-2.7,6.5
				c-1,3.8-1.4,7.9-1.6,11.8c0.6,1.1,1.5,1.8,2.4,2.5c2.3,1.9,4.3,4.1,6,6.6C344.1,524.3,347.9,525.2,351.2,524.7z"/>
			<path class="st12" d="M424.7,605.4c5.2,16.2,12.4,34.7,15.4,50c2.9,22.6,4.3,40.4,2.5,68.8c-3.4,0.2-7.3-1.8-10.5-3.1
				c-1.2-14.7-1.3-25.1-3.3-36.2c-2.6-14.7-5.4-29-8.3-43.7c-0.4,20.3-0.2,40.6,0.4,60.9c-7.1,1.7-14.5,1.3-21.8,0.7
				c-8.9-0.8-17.7-2-26.5-3.7c-3.7-0.7-6.6-1.5-9.7-3.7c0.7-6.5,1.4-12.5,1.2-19.1c-0.2-6.5-0.2-13.1-0.2-19.6
				c0-6.8,0-13.5-0.2-20.3c-0.1-3.5-0.2-6.9-0.4-10.3c-0.2-2.6,0.3-7.2-0.7-9.6C351.6,592,339.9,598.1,338,570
				c0.3-15.2,1.2-30.5,2.5-45.7c2.4-3,6.2-4.3,9.8-3.7c0.8,0.1,1.8,0.6,1.9,1.5c1,15.4,0.5,20.7,1,36.1c0.8,0.6,1.3,1.4,1.5,2.3
				c0.4,1.3-0.3,2.6-0.7,3.9c3.6,10.9,7.5,1.7,11.9,12.3c0.6-0.3,0.6-0.3,1.2-0.1c1.2,0.5,1.7,2.5,2.2,3.9c0.6-0.6,1.6-0.8,2.4-1.2
				c3.5,0.9,6.7,2.4,10.1,3.6C397,588.8,412.1,594.6,424.7,605.4z"/>
		</g>
		<g>
			<polygon class="st14" points="411.4,449 386.4,501.2 387.5,501.7 413.4,447.5 333,408.1 332.3,410.3 			"/>
			<path class="st14" d="M391.2,532.4c-0.7,0.5-1.5,1-2.1,1.5c0,0,0.1,0,0.1-0.1c0.1,2.4-0.1,5.4,0,7.8c0.7-0.6,1.3-1.1,2-1.6
				C391.2,537.7,391.3,534.8,391.2,532.4z"/>
			<path class="st14" d="M371.6,579.4c-0.8,0.3-1.7,0.6-2.4,1.2c-0.4-1.4-0.9-3.4-2.2-3.9c-0.6-0.3-0.6-0.2-1.2,0.1
				c-7.8-10.1-8.2-1.4-11.9-12.3c0.4-1.3,1.1-2.6,0.7-3.9c-0.3-1-0.8-1.8-1.5-2.3c-0.4-15.4,0-20.7-1-36.1c0-0.4-0.3-0.7-0.6-1
				c0.1-2.1,0.2-4.3,1.4-6c1.3-2,2.5-4.3,3.9-6.3c-1.8-4.6-3.7-9.2-5.7-13.6c-0.6-0.1-1.2,0.1-1.7,0.3l3.3-7.9l-1.2-0.6l-4.1,9.9
				c0.6-0.2,1.1-0.3,1.7-0.3c2,4.5,3.9,9.1,5.7,13.6c-1.3,2-2.5,4.3-3.9,6.3c-1.1,1.8-1.3,3.9-1.4,6c0.3,0.2,0.5,0.6,0.6,1
				c1,15.4,0.5,20.7,1,36.1c0.8,0.6,1.3,1.4,1.5,2.3c0.4,1.3-0.3,2.6-0.7,3.9c3.6,10.9,4.7,3.4,11.9,12.3c0.6-0.3,0.6-0.3,1.2-0.1
				c1.2,0.5,1.7,2.5,2.2,3.9c0.6-0.6,1.6-0.8,2.4-1.2c3.5,0.9,6.7,2.4,10.1,3.6c1.7,0.7,3.5,1.3,5.2,2c0-0.8,0-1.8-0.1-2.3
				c-1-0.4-2-0.8-3.1-1.2C378.3,581.8,375.1,580.3,371.6,579.4z"/>
			<path class="st14" d="M407.7,541.7c1.3-2.3,2.5-5,3.8-7.2c-6.9-0.9-14,0.8-19.6,5.2c5.2-3.3,11.5-4.5,17.5-3.7
				c-1.3,2.3-2.5,5-3.8,7.2c2.9,0.8,6,1.8,8.9,2.6c-1.1,1.3-2.3,2.7-3.4,4c0.2,1.8,0.2,3.7,0.1,5.5c0.5,10.3-1.1,20.7-4.8,30.2
				c0.6-0.2,1.2-0.4,1.7-0.6c4-9.7,5.7-20.5,5.1-31.1c0.1-1.8,0.1-3.7-0.1-5.5c1.1-1.3,2.3-2.7,3.4-4
				C413.7,543.6,410.6,542.5,407.7,541.7z"/>
			<path class="st14" d="M344.8,495.6l0.9-2.4c-1-0.8-2.1-1.6-3.2-2.3c-1.8,0.5-3.5,1.5-4.9,2.7c0.9-0.5,1.9-1,2.9-1.3
				C342,493.3,343.4,494.4,344.8,495.6z"/>
			<path class="st14" d="M336.5,523.1l-7.8,18.7h1.4l7.3-17.5C337.1,523.9,336.8,523.5,336.5,523.1z"/>
			<path class="st14" d="M436.5,864.1c-1.7-1.5-3.7-2.5-5.9-3.1c0.3,0,0.6,0,0.9,0c-3-53-7.2-105.8-12.6-158.6
				c0.7-0.1,1.4-0.3,2-0.4c-0.5-16.6-0.7-33.2-0.5-49.8c-0.6-3.2-1.3-6.4-1.9-9.6c-0.4,20.3-0.2,40.6,0.4,60.9
				c-0.7,0.2-1.4,0.3-2,0.4c5.4,52.8,9.6,105.6,12.6,158.6c-0.3,0-0.6,0-0.9,0c2.2,0.6,4.3,1.6,5.9,3.1c0.7,0.6,1.4,1.4,1.8,2.3
				c0.1,0.4,0.2,0.8,0.2,1.3c0.5,0,0.9,0,1.4,0c0.7-0.6,0.8-1.8,0.5-2.7C437.9,865.5,437.2,864.8,436.5,864.1z"/>
			<path class="st14" d="M442.5,724.1c0,0,0.1,0,0.1,0c1.8-28.4,0.4-46.2-2.5-68.8c-2.9-15.3-10.1-33.7-15.4-50
				c-6.9-5.9-14.5-10.3-22.6-14c0.4-1.3,0.8-2.6,1.2-3.9c-0.6,0.2-1.2,0.4-1.8,0.7c-0.4,1.5-0.9,3.1-1.4,4.7c8,3.7,15.7,8.1,22.6,14
				c5.2,16.2,12.4,34.7,15.4,50c2.9,22.6,4.3,40.4,2.5,68.8c0,0-0.1,0-0.1,0c0,0,0,0.1,0,0.1c1,5.4,0.7,11.1-2.8,15.9
				c-0.3,0.4-0.5,0.6-0.8,0.9c1.1-0.6,2.1-1.3,2.9-2.4c3.4-4.8,3.8-10.5,2.8-15.9C442.5,724.2,442.5,724.2,442.5,724.1z"/>
			<path class="st14" d="M369.9,860.6c8.7-40.9,13.9-89.3,17.1-131.3c-0.6-0.3-1.3-0.6-1.9-1c-3.2,42.6-8.4,92.1-17.3,133.7
				c0,0,0,0-0.1,0c0.5,2.2,0.8,4.3,0.7,6.5c0.7-0.1,1.3-0.1,2-0.2C370.8,865.7,370.5,863.2,369.9,860.6
				C369.9,860.6,369.9,860.6,369.9,860.6z"/>
		</g>
		<g>
			<path class="st15" d="M1159.7,738.5c3.5,2.7,5.8,6.1,6.6,9.7c0.3,1.1-1.1,1.5-2.1,2.3c1.7,1.2,3.4,3,4.3,4.6
				c-0.6,1.2-0.9,2.6-1.7,3.8c-0.1,0.1-0.1,0.2-0.3,0.2s0-0.2,0.1-0.1c-1.2-0.1-2,0.2-3-0.2c-1.5,0.9-3.1,1.6-4.9,2.1
				c-2-0.9-3.4-1.6-4.5-3.1c-3.2-4.5-3.5-9.8-2.6-14.9c0.1-0.5,0.2-1,0.5-1.4C1153,739.8,1157.3,738.8,1159.7,738.5z"/>
			<path class="st16" d="M1169.9,869.7c0.3,2.7,0.2,5.4-0.2,8c-4.4,0.1-9,0.5-13.4,0.4c-0.7-0.6-0.8-1.7-0.5-2.6
				c0.3-0.9,1-1.5,1.6-2.1C1160.8,870.5,1165.6,869.5,1169.9,869.7z"/>
			<path class="st16" d="M1227.9,868.8c1.1,2.5,1.8,5.3,1.9,8.1c-3.5,0.7-7.2,0.9-10.7,0.3c-0.3-2.7,0-5.1,0.7-7.7
				C1222.2,868.9,1225.5,868.4,1227.9,868.8z"/>
			<path class="st17" d="M1203.2,745.2c-3.2,1.9-7,2.8-9.9,5.3c-12.1,38.4-19.4,79.7-23.5,120c-2.6,0-5.1,0.1-7.6,0.1
				c2.7-50.2,6.6-100.1,11.6-150.1c16.3-1.7,33.5-2.5,49.8-4.2c-1,50,1,103.8,4.7,153.6c-2.9,0.6-5.7,0.3-8.7,0.1
				C1211.2,831.1,1206.3,784.9,1203.2,745.2z"/>
			<path class="st15" d="M1179.1,577.7c-1.7,11.8-0.2,24.2,4.3,35.2c1.4,0.5,2.8,1,4.2,1.6c0.5,1.9,1.2,3.9,1.8,5.9
				c4.7-1.6,9.5-3.9,14.1-6.1c-0.4,0.2-0.3-3.5-0.2-3.8c0.3-1.3,1.4-1.9,1.7-3.2c0.3-1.5,0.3-3.2-0.1-4.7c-0.9-3.2-3.3-5.2-5.6-7.2
				c-1.7-1.5-3.8-3-5.3-4.7c-1.4-1.6-2.8-3-4.3-4.4c-1.7-1.6-3.5-3.1-5.3-4.6C1183.9,581.2,1179,577.9,1179.1,577.7z"/>
			<path d="M1178.6,578.7c-1.1-1.3-2.1-2.5-3.2-3.8c2.7-0.8,5.6-1.7,8.3-2.5c-1.2-2.1-2.3-4.6-3.6-6.7c6.7-0.9,13.7,0.8,18.9,5.3
				c0.1-2.3-0.1-5,0-7.3c4,2.4,7.1,6.3,8.8,10.8c3.5,9.6,0.5,20.3-2,30.3c-5.3,4.7-12.9,7.2-19.6,5.4c-0.3-0.1-1.1-3.6-1.2-4.1
				c-0.3-1.5-0.5-3.1-0.8-4.6c1.2-0.6,1.9-1.9,2.2-3.3c0.3-1.4,0.1-2.8-0.2-4.1c-0.2-0.9-0.5-1.8-1.1-2.5c-0.6-0.7-1.4-1.2-2.3-1.1
				c-1,0.1-1.8,1-2.2,2c-0.4,1-0.4,2.1-0.5,3.1c-0.2,0-0.4,0-0.7,0c-0.4-2.8-0.5-5.7-0.8-8.5
				C1178.5,584.4,1178.4,581.6,1178.6,578.7z"/>
			<path class="st15" d="M1237.5,546.8c-1-2.9-0.6-6.3-2.5-8.7c-1.4-1.8-2.7-3.8-4.1-5.6c1.3-4.4,2.7-8.8,4.1-13.2
				c0.8-0.1,1.5,0,2.2,0.3c1.8-1.8,3.4-3.6,5.4-5.1c2.3,0.4,4.6,1.7,6.3,3.4c0,0.6-0.3,1.1-0.3,1.7c1.4,1.7,2.3,3.7,3.1,5.8
				c1.3,3.4,2,7.2,2.5,10.8c-0.4,1-1.3,1.8-2,2.6c-2,1.9-3.7,4.2-5,6.6C1244.1,545.8,1240.7,547,1237.5,546.8z"/>
			<path class="st17" d="M1167.9,631.9c-4.9,15.2-11.5,32.4-14.2,46.6c-2.7,21.1-3.9,37.7-2.2,64.2c3.2,0.2,6.8-1.7,9.8-2.9
				c1.1-13.7,1.2-23.4,3-33.8c2.4-13.8,5-27.1,7.7-40.8c0.4,19,0.3,37.9-0.2,56.8c6.7,1.6,13.6,1.2,20.4,0.6
				c8.3-0.8,16.5-1.9,24.7-3.5c3.5-0.7,6.1-1.4,9.1-3.5c-0.7-6.1-1.3-11.7-1.2-17.8c0.2-6.1,0.2-12.2,0.2-18.3c0-6.3,0-12.6,0.2-19
				c0.1-3.2,0.2-6.4,0.4-9.7c0.1-2.4-0.3-6.7,0.7-8.9c10.1-22.8,25.9-28.1,27.7-54.4c-0.3-14.2-3.7-28.2-6.3-42.2
				c-2.5-2.5-6.1-3.5-9.4-2.6c-0.8,0.2-1.7,0.7-1.6,1.6c0.4,14.4,3.5,27.2,3.2,41.6c-0.7,0.5-1.2,1.3-1.4,2.2
				c-0.3,1.2,0.3,2.4,0.7,3.6c-3.4,10.2-9.7,5.8-16,13.2c-0.6-0.2-0.6-0.3-1.2-0.1c-1.2,0.5-1.6,2.4-2,3.6c-0.6-0.6-1.5-0.8-2.2-1.1
				c-3.2,0.9-6.2,2.2-9.4,3.4C1193.8,616.4,1179.7,621.8,1167.9,631.9z"/>
		</g>
		<g>
			<path class="st16" d="M456.7,856.1c-2,3.6-3.5,7.5-4.3,11.7c4.7,1.5,9.7,2,14.5,0.8c1-0.3,1.6-0.6,2.6-1c0.5-3.5-0.8-6.9-3.4-9.2
				C463.5,856.1,459.9,854.9,456.7,856.1z"/>
			<path class="st16" d="M525.2,854.9c-0.7,4.2-1.1,8.5-1.1,12.7c4.9,0.5,10,0.7,14.9,0.4c4.4-0.3,8.6-0.2,13-0.9
				c0.2-2.5-1-4.8-2.9-6.4c-3.2-2.6-7.9-2.1-11.3-4.3c-1-0.7-1.8-1.5-2.8-2.2C532.3,852.5,527.8,852.9,525.2,854.9z"/>
			<path class="st18" d="M504,726.4c-3.9,1.4-8.1,2.5-11.9,3.6c-9.4,43.6-17.4,84.7-25.5,128.6c-3.7,1.2-7.3,0.6-11-0.8
				c7.8-52.1,12.8-104.6,14.8-157.3c15.5-0.5,31.8-0.3,47.3-0.3c14.3,49,21.6,103.8,18.8,155c-3.6,2-7.9,2.7-11.9,1.7
				C524,813.1,516.5,768.2,504,726.4z"/>
			<polygon class="st10" points="432.4,460 445.3,527.5 545.4,524.9 552.2,449.5 			"/>
			<path class="st15" d="M452.9,529.8c0.5,0.9,1.1,1.3,1.6,2.1c-1.9,15-3,30.2-3.2,45.3c3.8-1.4,7.4-2.7,11.2-4.2
				c-0.1-0.1-0.2-0.2-0.4-0.3c-0.7-12.7-1-25.1-1.8-37.8c0.4-0.2,0.8-0.4,1.2-0.6c1.2-0.7,2.5-1.5,3.6-2.4c0.8-0.6,1.5-1.3,2.2-2
				c0.7-0.7,1.2-1.5,1.6-2.5c0-0.1,0.1-0.2,0.1-0.3c-0.1-0.2-0.3-0.2-0.5-0.2c-0.6,0-1.3,0-1.9-0.1c-0.6-0.1-1.2-0.2-1.7-0.2
				c-0.4-3.9-0.9-7.9-1.3-11.9c-0.4-3.2-0.3-6.6-1.3-9.6c-0.1-0.4-1.3-0.6-1.5-0.2c-0.3,0.4-0.3,0.9-0.3,1.4c0,1.6,0,3.3,0.1,4.9
				c0,1.9-0.1,3.7-0.1,5.7c-0.4,0-1.2,0-1.6,0c0,0-0.5-2.5-0.5-2.7c-0.2-0.9-0.4-1.8-0.7-2.6c-0.3-0.9-0.5-1.8-0.8-2.6
				c-0.2-0.7-0.4-1.7-0.9-2.2c-0.3-0.3-0.9-0.5-1.3-0.2c-0.4,0.3-0.4,0.8-0.5,1.3c-0.2-0.3-0.5-0.6-0.8-0.7c-0.3-0.1-0.8-0.1-1,0.2
				c-0.2,0.2-0.2,0.6-0.2,0.9c0,0.5,0,0.9,0.1,1.4c0.1,0.5,0.1,1,0.2,1.5c0.1,0.5,0.1,0.9,0.2,1.4c0,0.3,0.1,0.6,0.2,0.8
				c0.1,0.2,0.1,0.7,0.2,0.9c-0.2-0.2-0.4-0.5-0.6-0.6c-0.3-0.1-0.6-0.1-0.8,0.1c-0.2,0.2-0.3,0.4-0.3,0.7c-0.1,0.5,0.1,1,0.1,1.5
				c0,0.5,0,1,0,1.5c0,1,0,1.9-0.1,2.9C451.3,523.5,451.2,526.9,452.9,529.8z"/>
			<path class="st15" d="M536.4,530.3c-0.6,0.8-1.3,1.1-1.9,1.9c0.3,15.2-0.3,30.3-1.7,45.4c-3.6-1.9-7.1-3.5-10.7-5.5
				c0.1-0.1,0.3-0.2,0.4-0.2c2.1-12.5,3.7-24.9,5.8-37.4c-1.6-1-3-2.2-4.3-3.5c-0.7-0.7-1.3-1.4-1.9-2.1c-0.5-0.6-1.1-1.4-1.4-2.2
				c-0.1-0.2-0.1-0.5,0-0.7c0.1-0.1,0.2-0.2,0.4-0.3c0.6-0.3,1.2-0.3,1.8-0.2c0.6,0.2,1.2,0,1.8,0.1c0.9-3.9,1.7-7.8,2.6-11.6
				c0.7-3.1,1-6.5,2.3-9.4c0.2-0.4,1.3-0.4,1.6,0c0.2,0.4,0.2,0.9,0.1,1.4c-0.2,1.6-0.4,3.3-0.6,4.9c-0.2,1.9-0.3,3.7-0.5,5.7
				c0.4,0.1,1.1,0.1,1.6,0.2c0,0,1.7-4.8,1.8-5.3c0.4-0.9,0.7-1.7,1.1-2.6c0.3-0.7,0.6-1.8,1.1-2.3c0.3-0.3,0.9-0.5,1.2-0.3
				c0.5,0.3,0.5,0.9,0.6,1.5c0.2-0.5,0.8-0.6,1.2-0.4c0.4,0.3,0.6,0.8,0.6,1.3c0,0.9-0.5,2-0.7,2.9c-0.1,0.5-0.2,0.9-0.3,1.4
				c-0.1,0.5-0.2,1.3-0.5,1.7c0.2-0.3,0.5-0.6,0.9-0.6c0.3,0,0.6,0.4,0.7,0.7c0.1,0.6-0.1,1.2-0.2,1.8
				C538.8,521.2,539.2,526.5,536.4,530.3z"/>
			<path class="st12" d="M452.1,588.9c-0.8-0.2-1.5-0.4-2.3-0.6c0,0-0.4-1.4-0.5-1.6c-0.3-0.6-0.4-2-0.4-2l1.4-2.2l-1.8-1.5
				c0,0-0.7-2.2-0.4-2.6c4-5,9.8-8.4,15.9-9.2c0.5,1.3,1,2.8,1.3,4.1c-0.2,0.4-0.5,0.5-0.6,0.9c0.5,0.3,1.1,0.8,1.6,1.2
				c0.1,2.5-0.1,5-0.4,7.5C461.9,585.6,456.8,590.2,452.1,588.9z"/>
			<path class="st12" d="M532.4,587.8c0.7-0.3,2.2-0.8,2.2-0.8s0.3-1.4,0.3-1.6c0.2-0.7,0.3-2,0.3-2l-1.6-2.1l1.6-1.7
				c0,0,0.5-2.3,0.2-2.6c-4.4-4.6-10.4-7.5-16.6-7.7c-0.4,1.3-0.8,2.8-1,4.2c0.2,0.3,0.5,0.4,0.7,0.8c-0.5,0.4-1,0.9-1.5,1.3
				c0.1,2.5,0.5,5,1,7.5C522.4,585.4,527.9,589.4,532.4,587.8z"/>
			<path class="st15" d="M484.9,621.1c1.7,1.1,3.8,1.4,5.9,1.3c2-0.1,4-0.5,6-1c1.8-0.4,3.6-0.9,5-2.1c1.5-1.3,2.1-3.3,2.6-5.1
				c0.4-1.3,0.7-2.7-0.1-3.8c-0.6-0.9-1.8-1.3-2.9-1.5c-4.4-0.9-9-0.7-13.2,0.5c-2.1,0.6-4.2,1.5-6.2,2.5c-1.8,1-1.7,2-1,3.9
				C481.7,617.9,482.9,619.9,484.9,621.1z"/>
			<path class="st18" d="M516.4,643.8c2.5,19.8,3.3,40.1,2.8,60.1c-16.1,6.4-33.6,5.7-49.7-0.7c0.4-24.2-2.2-48.4-7.9-71.9
				c-3.6-15-9.4-30.9-9.6-46.3c2.1-3.7,7.9-5.3,11.7-4.7c1.2,13,3.6,26.7,10,37.8c0.9-0.7,1.2-1.1,2.1-1.8c1.1,1.4,2.2,2.5,3.3,3.9
				c7.2-1.4,14.8-1.3,21.9,0.5c1-1.1,1.9-2.1,3-3.2c0.8,1,1.6,1.7,2.5,2.7c6-11.9,10.8-24.9,12.8-38.2c4.7-1.8,10.2-0.9,13.8,2.9
				C530.5,604.9,524.1,625.6,516.4,643.8z"/>
			<path class="st19" d="M505.4,611.2c0.4-10.5-1-21.3-4-31.4c1-2.2,1.9-4.4,2.6-6.7c-2.9,0.1-6,0.7-8.7,1.7c0.9-0.9,1.7-2,2.2-3.2
				c-6.3,0.8-12.3,3.9-16.5,8.5c-1.6-0.3-3.7-0.3-5.3-0.1c0.3,0.9,0.9,1.8,1.5,2.5c-2.5,2-4.3,5-4.4,8.1c0.6-0.2,1.3-0.1,1.9-0.3
				c-0.2,8.1,1.5,16.2,5.1,23.6C488.3,616.4,497.4,615,505.4,611.2z"/>
		</g>
		<g>
			<path class="st14" d="M502.5,619.7c0.8,1,1.6,1.7,2.5,2.7c0.4-0.8,0.8-1.6,1.1-2.4c-0.7-0.8-1.5-1.5-2.2-2.4
				c-1,1.1-1.9,2.1-3,3.2c0,0,0,0,0,0c-0.2,0.2-0.4,0.5-0.6,0.7c-0.6,0.5-1.2,0.9-2,1.2c0.4,0.1,0.8,0.2,1.2,0.3
				C500.6,621.7,501.5,620.8,502.5,619.7z"/>
			<path class="st14" d="M467.3,530C467.4,530,467.4,529.9,467.3,530c0.3-0.3,0.6-0.7,0.8-1l-0.8,0c0.1,0,0.3,0.1,0.3,0.2
				c0,0.1,0,0.2-0.1,0.3C467.5,529.7,467.4,529.8,467.3,530z"/>
			<path class="st14" d="M502.6,575.2c-0.8,2.3-1.7,4.5-2.6,6.7c3,10.1,4.5,20.9,4,31.4c-0.2,0.1-0.5,0.2-0.7,0.3
				c0.1,0.9-0.1,1.8-0.3,2.7c-0.3,0.9-0.5,1.8-0.9,2.7c1.2-1.3,1.8-3.1,2.3-4.8c0.2-0.9,0.5-1.8,0.3-2.7c0.2-0.1,0.5-0.2,0.7-0.3
				c0.4-10.5-1-21.3-4-31.4c1-2.2,1.9-4.4,2.6-6.7c-2.8,0.1-5.9,0.6-8.5,1.7c-0.5,0.8-1,1.5-1.6,2.2
				C496.6,575.9,499.7,575.3,502.6,575.2z"/>
			<path class="st14" d="M536.4,530.3c0.7-0.9,1.2-2,1.5-3.1l-0.9,0c-0.2,1.3-0.6,2.5-1.2,3.6C536.1,530.7,536.3,530.5,536.4,530.3z
				"/>
			<path class="st14" d="M475.7,616.4c-0.9,0.7-1.2,1.1-2.1,1.8c-5.6-9.7-8.1-21.4-9.4-32.9c-0.5,0.3-1,0.7-1.5,1
				c1.3,11.8,3.8,23.9,9.6,33.9c0.9-0.7,1.2-1.1,2.1-1.8c1.1,1.4,2.2,2.5,3.3,3.9c1.4-0.3,2.8-0.5,4.2-0.6c-0.5-0.5-0.9-1.1-1.2-1.7
				c-0.5,0.1-1.1,0.1-1.6,0.2C477.9,618.9,476.8,617.8,475.7,616.4z"/>
			<polygon class="st14" points="550.8,451.6 544.2,525 545.4,524.9 552.2,449.5 432.4,460 432.8,461.9 			"/>
			<path class="st14" d="M534.6,587c0,0,0.3-1.4,0.3-1.6c0.2-0.7,0.3-2,0.3-2l-1.3-1.7c0,0,0,0.1,0,0.1l-1.6,1.7l1.6,2.1
				c0,0,0,1.2-0.2,1.9C534.2,587.2,534.6,587,534.6,587z"/>
			<path class="st14" d="M535.5,577c-0.7-0.8-1.5-1.5-2.3-2.1c1.2-14,1.7-28,1.5-42c-0.5,0.5-0.9,0.8-1.4,1.4
				c0.3,14.2-0.3,28.5-1.5,42.7c0.8,0.7,1.6,1.4,2.3,2.1c0.2,0.2,0.1,1.1-0.1,1.8l1.2-1.3C535.2,579.6,535.7,577.3,535.5,577z"/>
			<path class="st14" d="M521.9,569.7c-1-0.2-2-0.3-3-0.4c-0.2,0.7-0.4,1.4-0.6,2.2c1.1,0.1,2.2,0.2,3.3,0.5
				C521.7,571.2,521.8,570.5,521.9,569.7z"/>
			<path class="st14" d="M495.9,574.1c0.6-0.8,1.2-1.6,1.6-2.5c-6.3,0.8-12.3,3.9-16.5,8.5c-1.6-0.3-3.7-0.3-5.3-0.1
				c0.3,0.7,0.7,1.4,1.1,2c1,0,2,0.1,2.8,0.2c4.2-4.6,10.2-7.6,16.5-8.5C496,573.9,495.9,574,495.9,574.1z"/>
			<path class="st14" d="M466.3,858.6c0.1,0,0.2,0,0.2-0.1c8-43.2,15.9-83.9,25.1-126.7c-0.3,0.1-0.7,0.2-1,0.3
				c-9.4,43.6-17.4,84.7-25.5,128.6c-0.1,0-0.2,0-0.2,0.1c2.1,1.9,3.3,4.6,3.3,7.5c0.4-0.2,0.8-0.3,1.3-0.5
				C470,864.1,468.8,860.9,466.3,858.6z"/>
			<path class="st14" d="M450,577.3c0-0.3,0-0.5,0-0.8c-0.6,0.6-1.2,1.3-1.8,2c-0.1,0.1-0.1,0.3,0,0.5
				C448.7,578.4,449.3,577.8,450,577.3z"/>
			<path class="st14" d="M549.2,860.8c-3.2-2.6-7.9-2.1-11.3-4.3c-0.5-0.4-1-0.8-1.5-1.2c0,0,0.1,0,0.1,0
				c2.7-49.9-4.1-103.2-17.7-151.1c0.1-0.1,0.3-0.1,0.4-0.2c0.5-19.9-0.3-40.3-2.8-60.1c7.2-16.9,13.1-35.9,15.8-54.4
				c-0.4,0.1-0.8,0.3-1.1,0.4c-2.6,19-8.7,38.7-16.1,56.1c2.5,19.8,3.3,40.1,2.8,60.1c-0.1,0.1-0.3,0.1-0.4,0.2
				c13.6,48,20.4,101.3,17.7,151.1c0,0-0.1,0-0.1,0c0.5,0.4,1,0.8,1.5,1.2c3.4,2.3,8.1,1.7,11.3,4.3c1.4,1.1,2.4,2.7,2.8,4.5
				c0.5-0.1,1-0.1,1.5-0.2C552.2,864.6,551.1,862.3,549.2,860.8z"/>
			<path class="st14" d="M521.6,527.6c0.6,0.2,1.2,0,1.8,0.1c0-0.1,0-0.1,0-0.2l-2,0.1C521.5,527.6,521.5,527.6,521.6,527.6z"/>
			<path class="st14" d="M474,586.4c0.5-0.7,1.1-1.3,1.8-1.8c-0.1-0.1-0.2-0.3-0.3-0.4C474.9,584.9,474.4,585.6,474,586.4z"/>
			<path class="st14" d="M459,537.1c0.6,11.6,1,23.1,1.6,34.7c0.7-0.2,1.4-0.3,2.1-0.4c0.5,1.3,1,2.8,1.3,4.1
				c-0.2,0.4-0.5,0.5-0.6,0.8c0.5,0.3,1.1,0.8,1.6,1.2c0.1,2.1,0,4.2-0.3,6.3c0.4-0.3,0.8-0.6,1.2-0.9c0.4-2.5,0.5-5,0.4-7.5
				c-0.5-0.3-1.1-0.8-1.6-1.2c0.2-0.4,0.5-0.5,0.6-0.9c-0.3-1.3-0.8-2.8-1.3-4.1c-0.7,0.1-1.4,0.2-2.1,0.4
				c-0.6-11.2-0.9-22.2-1.5-33.4c-0.1,0-0.2,0.1-0.2,0.1C459.8,536.7,459.4,536.9,459,537.1z"/>
			<path class="st14" d="M517.2,576.4C517.2,576.4,517.2,576.4,517.2,576.4C517.2,576.4,517.2,576.4,517.2,576.4
				C517.2,576.4,517.2,576.4,517.2,576.4z"/>
		</g>
		<g>
			<path d="M564.2,855.7c-2,4.2-3.2,8.8-3.6,13.5c6.8-0.1,13.5-0.1,20.3-0.2c1.2-1.8-0.4-4-2-5.5c-1.6-1.4-3.6-2.2-5.3-3.6
				c-1.4-1.1-2.4-2.6-3.9-3.7C568.3,855.1,565.7,854.7,564.2,855.7z"/>
			<path d="M628.4,854.6c-1.9,4.3-2.6,9.1-2,13.8c9.2,0.3,18.9,0.5,28-0.3c-1.8-3.7-5-6.7-8.7-7.8c-2.3-0.7-4.8-0.7-7.1-1.6
				C635.2,857.3,632,854.3,628.4,854.6z"/>
			<path class="st12" d="M616.7,688.3c12.3,33.3,22.3,67.9,24.2,103.7c1.2,21.8,1.9,43.1-2.3,64.4c-0.1,0.4-0.1,0.8-0.2,1.1
				c-4,0.9-7.9,1-11.7-0.3c1.5-43.8-7.5-87.4-25.8-126.6c-4.5,0.5-9.3,1.1-13.7,0.4c0.9,43.3-4.6,85.3-15.1,127.1
				c-3.2,0.5-6.3,0.9-9.2-0.4c7.5-56.5-4.5-114.5,2.5-171.1C581.9,686.6,600.2,688.2,616.7,688.3z"/>
			<path class="st15" d="M636.6,528c-2.2,1.4-4.1-1.1-5.6-2.5c-0.9-0.8-1.4-1.8-2.1-2.8c-1.5-2.2-3.1-4.1-4.4-6.4
				c-1.7-3-2.6-6.9-1.1-10c0.7-1.4,2-3,3.4-2.8c0-2.8-0.2-5.3-0.6-8c-0.2-1.6,1.7-3,3.2-2.7c1.5,1.4,2.7,3.4,3.4,5.4
				c2.8,0.9,5.3,2.7,7,5.3c4.7,7,2,16.4-1.9,23.1C637.6,527,637.2,527.6,636.6,528z"/>
			<path class="st15" d="M576.4,596.5c0,0.6,0,1.2-0.3,1.8c-0.4,0.8-1.3,1.2-2.1,1.2c-0.8,0-1.6-0.4-2.4-0.9c-1.4-0.9-2.5-2.3-3-3.9
				c-0.5-1.7-0.2-3.6,0.9-4.8C573.8,585.1,576.3,593.3,576.4,596.5z M605.6,590.6c0.3,1,0.8,2.2,1.7,2.4c0.7,0.2,1.5-0.3,2.1-0.8
				c2-1.8,3.2-4.6,2.9-7.4c-0.1-1.6-0.9-3.4-2.4-3.8c-1.1-0.2-2.3,0.4-3.1,1.3C604.3,584.7,604.7,587.4,605.6,590.6z"/>
			<path class="st11" d="M573.6,590.6c-1.1-7.3-1.5-14.3-4.2-21.3c1.7,0.8,3.4,1.6,5.1,2.4c-0.3-3.7,0-7.5,0.6-11.2
				c0.9,1.8,1.8,3.7,2.8,5.5c1.8-5.1,4-10.1,6.5-14.9c1.3,3.1,2.8,6.1,4.6,8.9c3.5-2.4,7.4-4.4,11.3-5.8c-0.8,2.3-1.5,4.7-2.3,7
				c3-0.4,6-0.3,8.9,0.4c-0.9,2-1.7,4-2.6,5.9c1,1,2.1,2.1,3.1,3.1c-0.4-0.4-2,6.2-2,6.8c0,2.5,1,4.7,1.1,7.2
				c0.3,5.5,0,11.1-1.9,16.3c-1.9,5.2-5.7,9.8-10.8,11.8C579.8,618.4,575.3,601.2,573.6,590.6z"/>
			<path class="st12" d="M616.5,693.6c2.9-2.1,4.6-5.8,5.2-9.5c0.6-3.7,0.2-7.5,0-11.2c-0.9-14.2-2.5-32.1,1.4-45.7
				c9.4-32.7,16.4-59.9,15-101.5c-1-1.7-2.7-2.9-4.5-3.2c-1.8-0.3-3.2-0.4-4.6,0.9c-1.1,25.3-2.3,50-13.6,72.3
				c-1.4-0.1-3.1-0.4-3.9,0.8c-1.3,1.9-1.3,3.5-1.6,5.9c-15.2,2.2-30.2,6.2-44.6,12c-6.1,11.6-11.9,24.2-15.6,37
				c-1.5,5.2,4.8,9.7,9.8,10.8c1.6,3.2,1.3,7.9,1.1,11.5c-0.2,3.6-0.8,7.2-0.4,10.7c0.4,3.6,1.9,7.2,4.8,9
				C577.7,698.1,607.2,697.4,616.5,693.6z"/>
		</g>
		<g>
			<path class="st14" d="M627.9,495.2c1.5,1.4,2.7,3.4,3.4,5.4c2.8,0.9,5.3,2.7,7,5.3c4.6,6.9,2,16.2-1.8,22.9
				c1.3,41.4-5.6,68.5-15,101.1c-3.9,13.6-2.3,31.5-1.4,45.7c0.2,3.7,0.6,7.5,0,11.2c-0.3,1.7-0.8,3.5-1.6,5
				c1.7-2.1,2.8-4.8,3.2-7.6c0.6-3.7,0.2-7.5,0-11.2c-0.9-14.2-2.5-32.1,1.4-45.7c9.4-32.6,16.3-59.7,15-101.1
				c3.8-6.7,6.4-16,1.8-22.9c-1.7-2.5-4.2-4.4-7-5.3c-0.7-2-1.9-4-3.4-5.4c-1.5-0.2-3.4,1.1-3.2,2.7c0,0,0,0.1,0,0.1
				C626.8,495.2,627.4,495.1,627.9,495.2z"/>
			<path class="st14" d="M625.2,506c0-0.7,0-1.3-0.1-2c-0.7,0.6-1.3,1.4-1.7,2.2c-0.1,0.2-0.2,0.4-0.2,0.6
				C623.8,506.3,624.5,505.9,625.2,506z"/>
			<path class="st14" d="M611.6,596.6c-0.5,0.7-0.8,1.3-1,2c0.9-0.5,2.1-0.3,3.2-0.2c0.4-0.9,0.8-1.7,1.2-2.6
				C613.7,595.6,612.3,595.5,611.6,596.6z"/>
			<path class="st14" d="M638.4,857.5c0.1-0.4,0.1-0.8,0.2-1.1c4.3-21.4,3.5-42.6,2.3-64.4c-1.9-34.3-11.1-67.5-22.8-99.6
				c-0.5,0.9-1,1.7-1.7,2.4c11.7,32.1,20.9,65.4,22.8,99.8c1.2,21.4,1.9,42.3-2.1,63.3C637.6,857.7,638,857.6,638.4,857.5z"/>
			<path class="st14" d="M637.2,858c-0.1,0.3-0.1,0.6-0.2,0.9c-0.1,0.4-0.1,0.8-0.2,1.1c-0.5,0.1-1,0.2-1.6,0.3
				c0.6,0.3,1.2,0.6,1.7,0.9c2.3,0.9,4.8,0.9,7.1,1.6c2.9,0.8,5.5,2.8,7.3,5.4c1-0.1,2-0.1,3-0.2c-1.8-3.7-5-6.7-8.7-7.8
				c-2.3-0.7-4.8-0.7-7.1-1.6C638.1,858.5,637.6,858.2,637.2,858z"/>
			<path class="st14" d="M606.4,595.5c-0.2,0-0.5,0.1-0.7,0c-0.2,0-0.4-0.2-0.5-0.3c-0.3,2.8-0.8,5.6-1.8,8.3
				c-0.3,0.8-0.7,1.6-1.1,2.4c2-0.4,4.1-0.7,6.1-1c0.1-0.9,0.1-1.6,0.3-2.3c-1.6,0.2-3.2,0.5-4.7,0.8c0.4-0.8,0.8-1.6,1.1-2.4
				C605.6,599.2,606.1,597.4,606.4,595.5z"/>
			<path class="st14" d="M587.5,562.6c3.5-2.4,7.4-4.4,11.3-5.8c-0.8,2.3-1.5,4.7-2.3,7c3-0.4,6-0.3,8.9,0.4c-0.9,2-1.7,4-2.6,5.9
				c1,1,2.1,2.1,3.1,3.1c-0.4-0.4-2,6.2-2,6.8c0,1.8,0.5,3.4,0.8,5.1c0.1-0.1,0.1-0.1,0.2-0.2c0.9-0.8,2-1.5,3.1-1.3
				c1.5,0.3,2.3,2.1,2.4,3.8c0.1,1.4-0.2,2.9-0.7,4.2c1.6-1.8,2.5-4.3,2.3-6.8c-0.1-1.6-0.9-3.4-2.4-3.8c-1.1-0.2-2.3,0.4-3.1,1.3
				c-0.1,0.1-0.1,0.1-0.2,0.2c-0.3-1.7-0.8-3.3-0.8-5.1c0-0.6,1.6-7.2,2-6.8c-1-1-2.1-2.1-3.1-3.1c0.9-2,1.7-4,2.6-5.9
				c-2.9-0.7-6-0.8-8.9-0.4c0.8-2.3,1.5-4.7,2.3-7c-4,1.5-7.8,3.4-11.3,5.8c-1.8-2.8-3.4-5.8-4.6-8.9c-0.5,0.9-1,1.9-1.5,2.9
				C584.3,557,585.8,559.9,587.5,562.6z"/>
			<path class="st14" d="M578.5,611.7c-0.4-0.5-0.7-1.1-1.1-1.6c-4,1.3-8,2.7-12,4.3c-0.4,0.8-0.8,1.6-1.2,2.4
				C568.9,614.9,573.7,613.3,578.5,611.7z"/>
			<path class="st14" d="M587.2,733.7c-0.6-0.1-1.1-0.1-1.6-0.2c0.9,43.3-4.6,85.3-15.1,127.1c-0.1,0-0.2,0-0.3,0.1
				c0.6,0.6,1.2,1.3,1.9,1.8c1.6,1.4,3.7,2.1,5.3,3.6c0.9,0.8,1.8,1.9,2.2,3c0.5,0,1,0,1.5,0c1.2-1.8-0.4-4-2-5.5
				c-1.6-1.4-3.6-2.2-5.3-3.6c-0.7-0.6-1.3-1.2-1.9-1.8c0.1,0,0.2,0,0.3-0.1C582.3,817.1,587.8,776,587.2,733.7z"/>
			<path class="st14" d="M573,574.2c-0.1-1.1-0.1-2.2-0.1-3.3c-1.1-0.5-2.3-1.1-3.4-1.6c0.5,1.3,0.9,2.6,1.2,3.9
				C571.4,573.5,572.2,573.9,573,574.2z"/>
			<path class="st14" d="M576.4,568.5c0.4-1.1,0.8-2.2,1.2-3.3c-0.8-1.6-1.6-3.1-2.4-4.7c-0.3,1.5-0.5,3.1-0.6,4.6
				C575.2,566.2,575.8,567.4,576.4,568.5z"/>
			<path class="st14" d="M568.6,591.7c1.2-1,2.3-0.9,3.2-0.2c-0.1-1-0.3-2-0.4-3c-0.6,0.2-1.2,0.6-1.8,1.3
				C569.1,590.3,568.8,591,568.6,591.7z"/>
		</g>
		<g>
			<path class="st15" d="M748.8,612.3c-0.2,0.8-0.6,1.8-1.4,1.8c-0.4,0-0.8-0.3-1-0.6c-0.2-0.4-0.3-0.8-0.4-1.2
				c-0.6-3.2-0.4-7,2.2-9.2c2-1.7,2,1.1,1.9,2.8C749.9,608,749.4,610.2,748.8,612.3z"/>
			<path class="st15" d="M724.6,632.9c3.2-0.2,6.5-0.6,9.6-1.4c0.9-0.2,7.9-2,8.4-0.9c-0.9-2.3-1.8-4.6-2.6-6.9
				c-0.4-1.2-0.7-4.9-1.5-5.7c-1-1-5.3-1-6.6-1.2c-2.2-0.3-4.5-0.3-6.7,0c-1.2,0.2-2.5,0.9-3,2.2c-0.4,1-0.3,2.1-0.3,3.2
				c0.1,3.7-0.7,7.5-2.3,10.8C721.3,633.1,723,633,724.6,632.9z"/>
			<path class="st16" d="M773,855.4c2,3.6,3.5,7.5,4.3,11.7c-4.7,1.5-9.7,2-14.5,0.8c-1-0.3-1.6-0.6-2.6-1c-0.5-3.5,0.8-6.9,3.4-9.2
				C766.2,855.4,769.8,854.2,773,855.4z"/>
			<path class="st16" d="M716.6,855.9c0.7,4.2,1.1,8.5,1.1,12.7c-4.9,0.5-10,0.7-14.9,0.4c-4.4-0.3-8.6-0.2-13-0.9
				c-0.2-2.5,1-4.8,2.9-6.4c3.2-2.6,7.9-2.1,11.3-4.3c1-0.7,1.8-1.5,2.8-2.2C709.5,853.6,714.1,854,716.6,855.9z"/>
			<path class="st16" d="M746,616.2c-0.3,2.3-0.6,4.6-2,6.3c-1.7,2.1-4.5,2.7-7.1,3.1c-8.3,1.4-19.4,1.2-20.6-9.8
				c-0.7-6.4-2.1-13.7-1.8-20.1c0.1-2.5,0.9-5,2.5-6.8c1.3-1.3,2.9-2.1,4.6-2.8c3.7-1.6,7.6-2.9,11.6-3c4-0.1,8.2,1.3,10.9,4.4
				C750.3,595.1,747.1,607.5,746,616.2z"/>
			<path class="st18" d="M681.7,687.5c4-20.7,13.2-40.2,26.5-55.9c17.6-4.9,34.7-6.5,52.8-4.7c9.2,19.2,14.4,39.1,17.5,60.5
				c-3.8,4.4-8.7,8.2-13.9,10.4c0,9.2-0.5,18.9-0.5,28.1c-20.5,3.4-41.8,7.6-61.8,1.8c0-11.9-1.1-29.5-1.1-41.4
				c-1.9,2.5-4.1,4.3-6,6.8c-0.9,1.2-2,2.5-3.5,2.7c-1,0.1-2-0.4-2.9-0.9C685.5,693.1,684.3,690.4,681.7,687.5z"/>
			<path class="st18" d="M702.5,724c-2.7,43-1.9,90.4,2.4,133.2c4.7,0.9,8.1,1.7,12.7,0c2.6-31.1,4.9-74.1,10.9-104.7
				c5,0.2,8.9,0.7,13.7,2c4,30.3,11.9,73.4,20.1,102.7c4.6,0.9,8.4,1.6,12.8,0c-5-42.6-8.9-90.8-11.8-133.6
				C745.5,716.5,719.9,715.9,702.5,724z"/>
			<path class="st15" d="M716.5,612.9c0,0.8-0.1,1.9-0.8,2.1c-0.4,0.1-0.8,0-1.1-0.3c-0.3-0.3-0.5-0.6-0.7-1
				c-1.5-2.9-2.3-6.6-0.5-9.5c1.5-2.3,2.2,0.4,2.6,2C716.4,608.4,716.5,610.7,716.5,612.9z"/>
		</g>
		<g>
			<path class="st14" d="M717,590.6c1.3-1.3,2.9-2.1,4.6-2.8c3.7-1.6,7.6-2.9,11.6-3c4-0.1,8.2,1.3,10.9,4.4
				c2.7,3.2,3.6,7.2,3.8,11.5c0.1-4.9-0.8-9.6-3.8-13.1c-2.7-3.2-6.9-4.5-10.9-4.4c-4,0.1-7.9,1.5-11.6,3c-1.6,0.7-3.3,1.5-4.6,2.8
				c-1.7,1.7-2.4,4.3-2.5,6.8c0,0.5,0,1,0,1.6C714.6,594.9,715.3,592.3,717,590.6z"/>
			<path class="st14" d="M747.7,605.1c0.2-0.2,0.3-0.4,0.5-0.5c1.4-1.2,1.8-0.2,1.9,1.1c0.1-1.7,0-4.3-1.9-2.6
				c-0.2,0.1-0.3,0.3-0.4,0.4C747.7,604,747.7,604.6,747.7,605.1z"/>
			<path class="st14" d="M763.6,859.3c0.1-0.1,0.2-0.1,0.2-0.2c-0.4-0.1-0.9-0.2-1.3-0.3c-1.7,2-2.6,4.6-2.4,7.3
				C760.3,863.5,761.5,861.1,763.6,859.3z"/>
			<path class="st14" d="M713.4,605.8c0.5-0.8,1-1,1.3-0.8c0-0.5-0.1-1.1-0.1-1.6c-0.3-0.1-0.7,0.1-1.2,0.8c-0.9,1.4-1.2,3.1-1,4.7
				C712.5,607.8,712.7,606.8,713.4,605.8z"/>
			<path class="st14" d="M763.6,727.6c0,0-0.1,0-0.1,0c2.9,41.7,6.6,88.3,11.5,129.7c0.1,0,0.1,0,0.2-0.1
				C770.2,815.9,766.4,769.4,763.6,727.6z"/>
			<path class="st14" d="M741.1,626.4c0-0.1-0.1-0.2-0.1-0.2c-0.2,0.1-0.3,0.1-0.5,0.2c0.2,0.5,0.4,1.1,0.6,1.6
				c6.5-0.3,13.1-0.1,19.9,0.6c9,18.8,14.2,38.3,17.3,59.1c0.1-0.1,0.1-0.2,0.2-0.2c-3.1-21.3-8.3-41.2-17.5-60.5
				C754.2,626.3,747.6,626.1,741.1,626.4z"/>
			<path class="st14" d="M774.1,859.1c1.2,2.5,2.2,5.2,2.8,8c0.1,0,0.2-0.1,0.3-0.1c-0.5-2.8-1.4-5.5-2.5-8.1
				C774.5,859,774.3,859,774.1,859.1z"/>
			<path class="st14" d="M716.9,859c0.5,3.2,0.7,6.4,0.8,9.7c0,0,0,0,0.1,0c0-3.3-0.3-6.5-0.7-9.7C717,859,716.9,859,716.9,859z"/>
			<path class="st14" d="M702.2,729.3c-0.9,15.5-1.3,31.4-1.3,47.5C700.9,760.7,701.4,744.7,702.2,729.3
				C702.3,729.3,702.2,729.3,702.2,729.3z"/>
			<path class="st14" d="M708.1,633.2c4.4-1.2,8.7-2.2,13-3c0.3-1.3,0.6-2.7,0.7-4.1c-0.1,0-0.1-0.1-0.2-0.1
				c-0.1,0.9-0.3,1.8-0.5,2.6c-4.3,0.8-8.7,1.8-13,3c-13.2,15.7-22.5,35.2-26.5,55.9c0.1,0.1,0.2,0.2,0.3,0.3
				C686.1,667.6,695.2,648.6,708.1,633.2z"/>
			<path class="st14" d="M692.7,863.3c3.2-2.6,7.9-2.1,11.3-4.3c0.3-0.2,0.5-0.4,0.8-0.6c0-0.5-0.1-1-0.1-1.5
				c-0.2,0.2-0.4,0.4-0.7,0.5c-3.4,2.3-8.1,1.7-11.3,4.3c-1.9,1.5-3,3.9-2.9,6.4c0,0,0.1,0,0.1,0
				C690.2,866.3,691.2,864.6,692.7,863.3z"/>
		</g>
		<g>
			<polygon class="st10" points="858.9,388.8 889.3,455.5 806.4,507.8 768.7,447.4 			"/>
			<polygon class="st0" points="822.5,433.5 882,546.7 879.7,546.9 818.6,436.8 			"/>
			<path d="M868,851.5c0.5,2.2-0.6,4.6-2.1,6.2c-1.5,1.7-3.4,2.9-5,4.4c-1.6,1.5-3,3.6-3,5.9c5.4,1,10.9,1.1,16.4,1.2
				c1.5,0,3.1,0,4.4-0.9c0.8-3.7,1-7.8,0.3-11.5c-0.3-1.7-0.9-3.5-1.8-4.9c-0.9-1.5-2.3-2.7-4-3C871.6,848.5,868.9,850,868,851.5z"
				/>
			<path d="M800.3,853.1c-1.2,3.1-4.1,5-6.9,6.6c-2.8,1.6-5.8,3.4-7.1,6.4c8.2,2.8,16.5,3.1,24.7,0.7c1.4-3.7,1.5-8,0.5-11.8
				c-0.3-1.2-0.8-2.5-1.7-3.4c-1.1-1-2.5-1.3-4-1.5C804.1,850.1,801,851.3,800.3,853.1z"/>
			<path class="st17" d="M848.8,668.5c4.2,12.5,4.7,22.6,7,35.6c4.2,23.4,8.7,42.5,14.7,65.5c5.9,23,11.4,58.5,9.3,85.1
				c-4.3,2.5-9.4,2.5-13.7,0c-0.4-46.1-12.2-102.7-35.2-141.8c-8.8,20.8-10.4,44.1-11.1,66.8c-0.7,22.8-0.5,53-6,75
				c-5.2,1.5-10.9,1.3-16.1,0c2.1-22.1,2.9-51.8,2.1-74.1c-1.3-39.4-7-79.8,3.1-117.7c7.8-1.4,16.3-4,24.1-3.6
				C834.9,659.6,846.2,660.6,848.8,668.5z"/>
			<path class="st11" d="M861.9,542.9c-0.9-2.6-0.7-5.6-2.4-7.6c-1.3-1.5-2.5-3.2-3.8-4.7c1-3.9,2.1-7.9,3.3-11.8
				c0.7-0.2,1.3,0,2,0.2c1.5-1.6,2.9-3.3,4.6-4.7c2.1,0.3,4.1,1.3,5.7,2.7c0,0.5-0.2,1-0.2,1.5c1.3,1.4,2.2,3.2,2.9,5
				c1.2,3,1.9,6.3,2.5,9.5c-0.3,0.9-1.1,1.6-1.7,2.4c-1.7,1.8-3.1,3.9-4.3,6.1C867.7,541.7,864.6,542.9,861.9,542.9z"/>
			<path class="st11" d="M813.3,546.8c-3.8,11.9-3.6,25.1,0.6,36.9c2.8,0.4,5.1,1,7.9,1.4c-0.2,3.5-0.4,6.7,1.1,9.8
				c5.8,0,11.6,0,17.5,0c2-4.6,1.6-8.6,0.9-13.5c2.2-6,3.7-10.2,4.3-16.6c0.6-6.4-0.6-13.2-4.6-18c-3.1-3.8-7.8-6-12.6-6.1
				C823.6,540.5,817,543.5,813.3,546.8z"/>
			<path d="M843.7,540.7c-9.3-5.2-20.7-5.1-30.3-0.6c-2.4,4.6-3.4,9.9-2.9,15.1c1.7,1.3,3.3,3.1,5.1,4.2c1.5,1,3.2,0.2,4.8,1.4
				c1,0.8,1.7,2.1,1.9,3.4c0.1,1.5-0.3,2.9-1.1,4.2c-0.8,1.2-1.8,2.3-2.7,3.3c0.7,4.1,2,8.2,3.1,12.2c7.1,3.7,15.6,3.6,22.8-0.1
				C850.3,570.3,849.1,554.6,843.7,540.7z"/>
			<path class="st11" d="M786.8,533.4c-2.3-5.2-5-10.1-8-14.9c2.4-2.9,5-5.7,8-7.7c-1.4-2.8-2.9-5.7-4.3-8.5c1-0.9,1.9-1.9,2.9-2.7
				c3.3,2.1,6.3,5,8.8,8c1.8,2.2,2.7,4.7,4.1,7.2c0.8-1.4,2.5-2.7,4-3.3c1.1,1.1,2.2,2,3.2,3.2c-1.7,1.7-2.5,4.3-2.2,6.7
				c0.4,3.6-2.7,6.8-5.4,8.9C795.3,532.6,790.2,533.4,786.8,533.4z"/>
			<path class="st11" d="M782.1,581.2c-2.6-3.5-4.9-7.3-6.9-11.3c3.2-14.5,6.1-29.2,10.4-43.3c3.9,0.1,6.8,0.1,10.5,1.4
				c-1.8,12.7-3.3,25.4-3.2,38.2c0,2.9-2.4,5.3-4.3,7.3C786.7,575.5,784.2,579.3,782.1,581.2z"/>
			<path class="st11" d="M863.5,584.9c0.4-15-0.3-30-2.1-44.9c2.8-0.6,5.7-1.4,8.6-1.2c3.7,15.2,6.4,30.5,7.3,46.3
				c-2.8,3.1-5.7,5.6-8.5,8.7C866.7,591.5,865,587.7,863.5,584.9z"/>
			<path class="st17" d="M874.9,594.4c-4.5,8.2-10.3,14.8-13.1,23.8c-5.4,17.7-9.3,35.9-10.8,54.4c-16,3.1-34.3,3.4-49.7-2.3
				c-6-21.4-8.5-45.3-8.7-67.6c-4.4-6.8-7.9-13.8-12.3-20.5c2.1-6.9,7.7-12.6,14.3-14.4c4.7,7.4,10.7,14.6,16.7,20.8
				c12.4-1,25.7,1.2,37.4,5.6c4-4.7,9.1-10.4,13.1-15.1C868.3,580.7,873.2,587.5,874.9,594.4z"/>
		</g>
		<g>
			<path class="st14" d="M812.5,589.5c3.4-0.3,6.9-0.3,10.3-0.1c0-1.1,0.1-2.2,0.1-3.3c-0.4-0.1-0.8-0.1-1.2-0.2
				c0,0.8-0.1,1.7-0.1,2.5c-3.4-0.2-6.8-0.2-10.1,0.1C811.9,588.8,812.2,589.2,812.5,589.5z"/>
			<path class="st14" d="M843.9,541.2c-0.1-0.2-0.1-0.3-0.2-0.5c-9.3-5.2-20.7-5.1-30.3-0.6c-2.4,4.6-3.4,9.9-2.9,15.1
				c0.3,0.2,0.5,0.4,0.8,0.6c-1.3,9.3-0.5,19,2.6,27.8c0.3,0,0.6,0.1,0.9,0.2c-2.9-8.6-3.7-17.9-2.4-26.9c-0.3-0.2-0.5-0.4-0.8-0.6
				c-0.5-5.2,0.5-10.6,2.9-15.1C823.8,536.8,834.8,536.6,843.9,541.2z"/>
			<path class="st14" d="M880.3,546.9l-5.3-9.5c-0.1,0.2-0.2,0.3-0.4,0.5l5,9.1L880.3,546.9z"/>
			<path class="st14" d="M798.7,514.3c0.3,0.5,0.5,1.1,0.8,1.6c0.7-1.4,2.4-2.7,3.9-3.3c-0.4-0.4-0.7-0.7-1.1-1.1
				C801.1,512.1,799.6,513.1,798.7,514.3z"/>
			<path class="st14" d="M866.3,515.6c0.1-0.1,0.3-0.2,0.4-0.4c1.6,0.2,3.1,0.9,4.5,1.8c0,0,0,0,0-0.1c-1.6-1.4-3.6-2.4-5.6-2.7
				L866.3,515.6z"/>
			<path class="st14" d="M845.3,485l17.6,31.7c-0.7,0.7-1.3,1.5-2,2.2c-0.7-0.2-1.3-0.3-2-0.2c-1.2,3.9-2.3,7.9-3.3,11.8
				c1.3,1.5,2.5,3.2,3.8,4.7c1.4,1.7,1.5,4,2,6.2c1.5,12.6,2.1,25.3,2,38c-0.5-0.2-1-0.4-1.6-0.6c-4,4.7-9.1,10.4-13.1,15.1
				c-2-0.7-4-1.4-6-2c0,0.2-0.1,0.4-0.1,0.6c2.5,0.7,5,1.5,7.4,2.4c4-4.7,9.1-10.4,13.1-15.1c0.5,0.2,1.1,0.4,1.6,0.6
				c0.1-12.7-0.6-25.4-2-38c-0.5-2.2-0.6-4.5-2-6.2c-1.3-1.5-2.5-3.2-3.8-4.7c1-3.9,2.1-7.9,3.3-11.8c0.7-0.2,1.3,0,2,0.2
				c0.7-0.7,1.3-1.5,2-2.2l-18.3-33L845.3,485z"/>
			<polygon class="st14" points="806.8,507.6 769.9,448.4 859.6,390.2 858.9,388.8 768.7,447.4 806.4,507.8 			"/>
			<path class="st14" d="M794.6,567.7c-0.2,0-0.3,0.1-0.5,0.2c-0.1,0.6-0.2,1.1-0.4,1.6c0.6-0.2,1.1-0.4,1.7-0.6
				C795.1,568.5,794.9,568.1,794.6,567.7z"/>
			<path class="st14" d="M794.7,860.8c2.2-1.3,4.4-2.7,5.9-4.7c-0.6-0.1-1.1-0.2-1.7-0.4c0-0.1,0-0.1,0-0.2
				c-1.4,1.8-3.5,3.1-5.4,4.2c-2.8,1.6-5.8,3.4-7.1,6.4c0.5,0.2,1,0.3,1.5,0.5C789.3,864,792.1,862.3,794.7,860.8z"/>
			<path class="st14" d="M862.2,863.1c1.6-1.5,3.5-2.7,5-4.4c0.6-0.7,1.1-1.5,1.5-2.3c-0.5-0.2-0.9-0.4-1.4-0.7
				c-0.4,0.7-0.8,1.4-1.3,2c-1.5,1.7-3.4,2.9-5,4.4c-1.6,1.5-3,3.6-3,5.9c0.4,0.1,0.8,0.1,1.3,0.2
				C859.5,866.2,860.8,864.5,862.2,863.1z"/>
			<path class="st14" d="M867.2,855.3c-0.5-46-12.3-102.4-35.1-141.3c-0.1,0.2-0.2,0.5-0.3,0.7c22.3,39,33.8,94.6,34.2,140.1
				C866.4,854.9,866.8,855.1,867.2,855.3z"/>
			<path class="st14" d="M792.6,602.6c0.3,22.2,2.7,45.8,8.6,67.1c-7.8,35.9-2.7,73.8-1.4,110.9c0.7,22.2,0,51.9-2.1,74.1
				c0.4,0.1,0.9,0.2,1.3,0.3c2.1-22.1,2.8-51.3,2.1-73.3c-1.2-37.1-6.3-74.9,1.4-110.9c-5.9-21.3-8.3-44.9-8.6-67.1
				c-4.4-6.8-7.9-13.8-12.3-20.5c0.2-0.8,0.5-1.5,0.8-2.3c-2.2-3.1-4.2-6.5-6-9.9c3-13.6,5.8-27.4,9.7-40.7c-1.8-3.7-3.8-7.2-6-10.6
				c2.4-2.9,5-5.7,8-7.7c-1.4-2.8-2.9-5.7-4.3-8.5c1-0.9,1.9-1.9,2.9-2.7c0.8,0.5,1.6,1.1,2.4,1.7c-1.2-1-2.3-1.9-3.6-2.7
				c-1,0.9-1.9,1.9-2.9,2.7c1.4,2.8,2.9,5.7,4.3,8.5c-3.1,2-5.7,4.8-8,7.7c2.2,3.4,4.2,7,6,10.6c-3.9,13.3-6.6,27.1-9.7,40.7
				c1.7,3.5,3.7,6.8,6,9.9c-0.3,0.7-0.6,1.5-0.8,2.3C784.7,588.9,788.3,595.8,792.6,602.6z"/>
		</g>
		<g>
			<path d="M957.2,861.1c0.6-0.9,1.1-1.9,1.4-3c0.3-1.1,0.7-2.2,1.5-3c0.8-0.8,2-1.2,3-0.6c1,0.5,2.1,0.8,2.8,1.7
				c0.7,0.9,1.2,2,1.5,3.1c1,3.2,1.1,6.8,0.3,10.1c0,0.3-0.1,0.5-0.1,0.8c-2,1.1-4.2,1.2-6.4,1.2c-2.2,0-7.8,1.4-8.3-1.9
				c-0.2-1.1,0.2-2.3,0.8-3.3C954.7,864.2,956.1,862.7,957.2,861.1z"/>
			<path d="M903.5,857c1.4-1.2,3.1-2.6,4.8-2.1c1.3,0.4,2.2,1.7,2.9,2.9c1.9,3.6,3,7.8,2.9,12c-6.8,0.7-13.8,1.2-20.6,0.5
				c-1.4-0.1-3.1-0.5-3.8-1.8c-0.8-1.5,0.1-3.5,1.4-4.5c1.3-1,3-1.3,4.6-1.8C898.7,861.3,901.2,859.1,903.5,857z"/>
			<path class="st18" d="M962,697c8.7,25.1,8.9,52.5,8.7,79.3c-0.2,27.1-2.1,54.8-3.2,81.8c-2.9,0.9-6.5,0.6-9.6,0.3
				c-0.8-36.9-1.6-73.9-6.6-110.4c-1.1-8.2-3.1-15.3-11.2-17.4c-8.1,20.1-11.8,41.7-15.3,63.1c-3.5,21.6-8.2,42.7-13.2,64
				c-2.4,0-4.8,0.1-7.2,0.1c-0.5,0-1.1,0-1.5-0.4c-0.4-0.5-0.3-1.2-0.2-1.9c1.2-7,2.3-14,3-21.1c1.1-11.5,3.2-22.8,4-34.3
				c0.8-11.6,1.3-23.1,1.7-34.7c0.5-11.6,1-23.2,1.9-34.7c0.2-3,2.5-33.6,4.3-33.6C932,696.6,947.6,697.6,962,697z"/>
			<path class="st15" d="M903.7,596c1-2,2.1-4,3.1-6c1.2-2.2-0.5-5.1,0.3-7.5c0.6-2,2.4-3.4,4.1-4.6c1.8-1.3,3.1-2.7,5.1-3.6
				c1.7,3.6,3.8,8.2,3.4,12.3c-0.3,3-2.1,5.8-3.9,8c-0.5,0.6-6.6,7.1-6.4,7.3C908,599.9,905.9,597.2,903.7,596z"/>
			<path class="st15" d="M915.5,612.4c-1.2-0.2-2.4-0.5-3.5,0.1c-1.1,0.5-1.7,2.2-0.9,3.1c0.3,0.3,0.7,0.5,1,0.8
				c0.8,0.7,0.8,2,0.8,3.1c0,1.7-0.1,3.4-0.1,5.1c0,1,0,2.1,0.6,2.9c0.6,0.7,1.6,0.8,2.5,0.9c1.3,0.1,2.6,0.2,3.9,0.3
				c0.7,0.1,1.5,0.1,2.1-0.3c0.8-0.5,1.1-1.6,1.2-2.6c0.4-2.8,1.4-7.3,0.3-10.1C922.3,612.7,917.9,612.9,915.5,612.4z"/>
			<path class="st18" d="M960.7,611.2c-9.6,1.5-24.4,0-37,5.4c-5.1,2.1-14.8,10.1-19.1,13.6c1.9-10,4.2-19.8,8.4-29
				c-0.8-4.2-4.9-7.5-8.9-7.7c-8.5,17.9-15.2,36.6-20,56c1.4,4.6,5.2,7.9,9.3,9.9c7.4-4.3,20-13.1,26-19.5
				c-2.8,19.8-4.4,41.9-4.3,61c16.7,7.7,34.1,5.9,50.5-2.4c-2.1-14.5-2.4-32.4,0.8-46.2c2.6,0.7,5.5-0.3,8.2-0.8
				c1.7-4.5,2.3-9.2,2.7-14.2C973.8,627.3,967.2,617.7,960.7,611.2z"/>
			<path class="st11" d="M926.6,566.1c2.3-2.3,5.4-3.6,9.2-4.1c3.7-0.5,7.7-0.4,11,1.5c9.9,5.9,6.6,20.1,7.5,29.9
				c1.1,12.4,4.4,24.7,9.7,35.8c-4-1-8-2.4-11.8-4.1c1.5,2.5,3,4.9,4.5,7.4c-9.7-0.4-17-5.4-22.7-13.4c-6.7-9.5-9.5-21.6-10.9-33.4
				c-0.5-3.8-0.8-7.7-0.2-11.5C923.5,570.6,924.7,568,926.6,566.1z"/>
		</g>
		<g>
			<path class="st14" d="M913.7,620.5c0-1.1,0-2.4-0.8-3.1c-0.2-0.2-0.4-0.3-0.6-0.5c0.4,0.7,0.4,1.7,0.4,2.5c0,1.4-0.1,2.9-0.1,4.3
				c-2.5,1.9-4.9,3.8-6.7,5.3c-0.1,0.7-0.3,1.5-0.4,2.2c1.9-1.6,4.9-4,8.1-6.5C913.7,623.3,913.7,621.9,913.7,620.5z"/>
			<path class="st14" d="M919.1,642.3c-2.6,19.2-4.1,40.3-4,58.7c0.3,0.2,0.7,0.3,1,0.4c-0.1-18.9,1.5-40.8,4.3-60.4
				C919.9,641.4,919.5,641.8,919.1,642.3z"/>
			<path class="st14" d="M931.1,614.2c-2.3,0.6-4.6,1.3-6.9,2.2c0,0.1,0.1,0.2,0.2,0.3c0.1,0.3,0.2,0.6,0.3,1c0,0,0,0,0,0
				c2.4-1,4.9-1.8,7.4-2.4c-4.6-8.6-6.8-18.7-8-28.6c-0.5-3.8-0.8-7.7-0.2-11.5c0.6-3.5,1.8-6.1,3.7-8c2.3-2.3,5.4-3.6,9.2-4.1
				c3.7-0.5,7.7-0.4,11,1.5c0.9,0.6,1.7,1.2,2.4,1.9c-0.9-1.1-2-2.1-3.4-2.9c-3.3-2-7.3-2-11-1.5c-3.8,0.5-7,1.8-9.2,4.1
				c-1.9,1.9-3.1,4.5-3.7,8c-0.6,3.8-0.3,7.7,0.2,11.5C924.3,595.5,926.4,605.6,931.1,614.2z"/>
			<path class="st14" d="M958.5,612.6c1.1-0.1,2.2-0.2,3.2-0.4c0.5,0.5,1,1,1.5,1.6c-0.8-0.9-1.6-1.8-2.5-2.6
				c-0.8,0.1-1.7,0.2-2.5,0.3C958.3,611.9,958.4,612.2,958.5,612.6z"/>
			<path class="st14" d="M892.2,865c1.3-1,3-1.3,4.6-1.8c2.7-0.8,5-2.8,7.2-4.7c0,0,0,0,0,0c-0.4-0.5-0.3-1.2-0.2-1.9
				c1.2-7,2.3-14,3-21.1c1.1-11.5,3.2-22.8,4-34.3c0.8-11.6,1.3-23.1,1.7-34.7c0.5-11.6,1-23.2,1.9-34.7c0.2-2.3,1.6-20.9,3-29.4
				c-0.4-0.2-0.7-0.3-1.1-0.5c-1.4,8.7-2.7,26.5-2.9,28.8c-0.9,11.6-1.4,23.1-1.9,34.7c-0.5,11.6-0.9,23.2-1.7,34.7
				c-0.8,11.5-2.9,22.8-4,34.3c-0.7,7.1-1.8,14-3,21.1c-0.1,0.6-0.2,1.4,0.2,1.9c0,0,0,0,0,0c-2.2,1.9-4.5,3.9-7.2,4.7
				c-1.6,0.5-3.2,0.8-4.6,1.8c-1.3,1-2.2,3-1.4,4.5c0.2,0.4,0.6,0.7,0.9,1C890,867.9,890.8,866,892.2,865z"/>
			<path class="st14" d="M916.5,613.4c1.8,0.4,4.8,0.4,6.6,1.6c-1.5-2.3-5.3-2.2-7.6-2.7c-1.2-0.2-2.4-0.5-3.5,0.1
				c-1.1,0.5-1.7,2.2-0.9,3.1c0.2,0.2,0.5,0.4,0.7,0.6c-0.4-0.9,0.2-2.2,1.2-2.7C914,612.9,915.3,613.2,916.5,613.4z"/>
			<path class="st14" d="M954,870.4c-0.2-1.1,0.2-2.3,0.8-3.3c0.9-1.9,2.3-3.3,3.4-5c0.5-0.8,1-1.6,1.3-2.6c-0.2,0-0.4,0-0.5,0
				c-0.8-36.9-1.6-73.9-6.6-110.4c-0.8-5.8-2-11-5.5-14.3c2.8,3.3,3.8,8.1,4.6,13.3c5,36.5,5.8,73.5,6.6,110.4c0.2,0,0.3,0,0.5,0
				c-0.3,0.9-0.8,1.8-1.3,2.6c-1.1,1.7-2.5,3.1-3.4,5c-0.5,1-0.9,2.2-0.8,3.3c0.1,0.8,0.5,1.4,1.2,1.7
				C954.1,870.8,954.1,870.6,954,870.4z"/>
			<path class="st14" d="M885,650.5c4.8-19.4,11.5-38.1,20-56c0.3,0,0.6,0.1,1,0.1c0.6-1.2,1.3-2.4,1.9-3.6c1.2-2.2-0.5-5.1,0.3-7.5
				c0.6-2,2.4-3.4,4.1-4.6c1.7-1.2,3-2.5,4.8-3.4c-0.2-0.4-0.4-0.8-0.6-1.3c-2,0.9-3.3,2.3-5.1,3.6c-1.7,1.2-3.5,2.5-4.1,4.6
				c-0.8,2.4,0.9,5.2-0.3,7.5c-0.6,1.2-1.3,2.4-1.9,3.6c-0.3-0.1-0.6-0.1-1-0.1c-8.5,17.9-15.2,36.6-20,56c0.7,2.4,2.1,4.4,3.9,6.1
				C886.6,654.2,885.6,652.5,885,650.5z"/>
		</g>
		<g>
			<path class="st11" d="M1116.6,597.9c-0.8-0.3-1.6-0.6-2.4-0.5c-1.7,0.3-2.8,2.1-3.3,3.9c-1.3,4.4-0.9,9.4,1.1,13.5
				c2,4.1,5.6,7.3,9.8,8.7c0.6,0.2,4.2-7,4.6-7.8c1.2-2.7,2.1-5.6,2.5-8.6c0.2-1.6,0.2-3.5-0.8-4.8c-0.6-0.9-1.7-1.5-2.7-1.5
				c-1.1,0-2.1,0.5-2.8,1.4C1120.2,601.6,1119,598.9,1116.6,597.9z"/>
			<path class="st11" d="M1028.6,560.2c0.4-2,0.8-4.2,1.2-6.3c1.6-1,3.7-1.8,3.9-3.8c0.4-3.8,0.6-7.1,1-10.9c-0.8-1.7-2-3-3.5-3.9
				c-0.2-2.8-0.3-5.4-0.1-8.2c-2.3-1.1-4.7-1.1-7.1-0.2c-2.3,0.8-5.4,1.9-6.6,4.2c-1.9,3.8-2.9,7.7-3.6,12
				c1.9,5.8,3.7,11.7,5.6,17.5C1022.2,560.8,1025.8,560.6,1028.6,560.2z"/>
			<path class="st11" d="M1066.9,567.4c-1.3,6.1-1.2,12.5,0.1,18.6c3.4,1.3,6.9,2.5,10.5,3.3c0.1,2.6-0.5,5.2-0.4,7.8
				c5.4,1.7,11,2.6,16.6,2.6c2.3-6.6,3.4-13.6,3.3-20.6c0-1.8-0.2-3.7-0.9-5.4c-1-2.3-3.1-3.9-5.3-5.1
				C1083.9,564.9,1074.1,564.6,1066.9,567.4z"/>
			<path d="M1041.2,853.9c-0.5,2.6-2.3,4.7-4.2,6.3c-1.9,1.7-4.1,3-5.9,4.8c-1.9,1.7-3.4,4-3.7,6.6c0.1-0.1,0.2-0.2,0.3-0.2
				c7,2.3,14.1,2.6,21.2,0.7c0.9-3,0.8-6,0.6-9.1c-0.1-2.2-0.3-4.6-1.4-6.5C1046.9,854.6,1043,852.9,1041.2,853.9z"/>
			<path d="M1114.4,856.4c-1.3,5.6-1.9,11.4-1.6,17.1c7.3,2.1,15.1,1.6,21.9-1.9c-0.7-2.3-2.4-4.4-4.4-5.4c-1.5-0.8-3.3-1.1-4.4-2.4
				c-1-1.2-1.4-2.9-2.1-4.3C1122.3,856.5,1117.4,855.2,1114.4,856.4z"/>
			<path class="st12" d="M1048.7,696.3c-7.9,53.1-11.2,106.9-9.7,160.6c3.8,1.1,7.7,2.2,11.5,1.4c5.7-41.7,16.8-82.2,30-121.9
				c15,39.5,26.8,81.5,31.5,123.8c4.6-0.1,9.6-1,13.9-2.4c-1.1-51-3.5-102-8.1-152.8C1097.4,694.4,1071.2,693.6,1048.7,696.3z"/>
			<path class="st12" d="M1116.4,643.8c6.9,3.6,14.4,6.9,21.3,10.5c3.7-4.9,8.1-13.9,4.3-18.7c-10.1-12.7-19.1-29.6-33.4-36.2
				c-14.4-6.6-28.3-8.9-43.9-7.8c-8.8,0.6-17.4,3.9-25.2,8.3c-0.2-1.6-0.9-3.5-1.1-5c-1,0-1.7,0.9-2.7,0.9
				c-2.9-12.6-4.2-26.6-4.5-39.6c-4.4-1.9-9.8-0.8-13.2,2.6c-0.4,18.8-0.6,37.1,2.7,55.5c0.9,5,4.9,8,9.1,10.3
				c6.1,3.3,12.8,0.6,19.1-2.3c0.3,26.9-0.7,54.7-4.5,81.3c24.2,6.3,49.5,8.5,74.3,5.7C1118.4,688.7,1117,666,1116.4,643.8z"/>
			<path class="st16" d="M1102.7,573.6c-0.2,3.8-1.6,7.6-4.3,10.2c-4.9,4.6-12.6,4.2-19,2.2c-3.7-1.2-7.3-2.9-9.8-5.8
				c-1.3-1.4-2.2-3.1-2.8-4.9c-3.8-10.6-4.7-22.4-3.6-33.6c1.7,0.9,3.3,0.8,5.1,1.7c-0.3-2.6-0.6-4.8-0.9-7.4
				c4.6-0.2,9.3,0.6,13.6,2.3c0.4-1.1,1.2-2,1.6-3.2c4.8,1.6,8.8,5.2,11.6,9.3C1099.8,552.5,1103.3,563.9,1102.7,573.6z"/>
		</g>
		<g>
			<path class="st14" d="M1199.1,571c0.5,0.4,1,0.7,1.5,1.1c0.1-2.3-0.1-5,0-7.3c0.1,0.1,0.2,0.1,0.3,0.2c-0.6-0.4-1.2-0.9-1.8-1.2
				C1199,566,1199.1,568.7,1199.1,571z"/>
			<path class="st14" d="M1178.6,578.7c-0.1,1.7-0.1,3.4-0.1,5.2c-0.5,9.9,1.1,19.9,4.9,29c0.4,0.2,0.8,0.3,1.3,0.5
				c-3.6-8.9-5.1-18.7-4.6-28.4c-0.1-1.7-0.1-3.4,0.1-5.2c-1.1-1.3-2.1-2.5-3.2-3.8c2.7-0.8,5.6-1.7,8.3-2.5
				c-1.2-2.1-2.3-4.6-3.6-6.7c5.7-0.7,11.5,0.4,16.4,3.5c-5.1-3.8-11.6-5.3-17.9-4.5c1.2,2.1,2.3,4.6,3.6,6.7
				c-2.7,0.8-5.6,1.7-8.3,2.5C1176.5,576.2,1177.5,577.5,1178.6,578.7z"/>
			<path class="st14" d="M1204.7,612.2c0,0.5,0,1.1,0,1.6c1.6-0.6,3.2-1.2,4.8-1.8c3.1-1.2,6.1-2.5,9.4-3.4c0.7,0.3,1.6,0.5,2.2,1.1
				c0.4-1.3,0.9-3.1,2-3.6c0.6-0.3,0.6-0.2,1.2,0.1c6.2-7.1,12.6-3,16-13.2c-0.4-1.2-1-2.4-0.7-3.6c0.2-0.9,0.7-1.7,1.4-2.2
				c0.4-14.4-2.6-27.3-3.1-41.7c0-0.4,0.2-0.7,0.4-0.9c-0.3-2-0.6-3.9-1.8-5.5c-1.4-1.8-2.7-3.8-4.1-5.6c1.3-4.4,2.7-8.8,4.1-13.2
				c0.8-0.1,1.5,0,2.2,0.3c1.8-1.8,3.4-3.6,5.4-5.1c1,0.2,1.9,0.5,2.8,1c-1.4-0.9-2.9-1.6-4.4-1.9c-2,1.5-3.6,3.3-5.4,5.1
				c-0.7-0.3-1.5-0.5-2.2-0.3c-1.4,4.3-2.9,8.8-4.1,13.2c1.4,1.8,2.7,3.8,4.1,5.6c1.2,1.5,1.5,3.5,1.8,5.5c-0.3,0.3-0.5,0.6-0.4,0.9
				c0.4,14.4,3.5,27.2,3.2,41.6c-0.7,0.5-1.2,1.3-1.4,2.2c-0.3,1.2,0.3,2.4,0.7,3.6c-3.4,10.2-9.2,4.4-16,13.2
				c-0.6-0.2-0.6-0.3-1.2-0.1c-1.2,0.5-1.6,2.4-2,3.6c-0.6-0.6-1.5-0.8-2.2-1.1c-3.2,0.9-6.2,2.2-9.4,3.4
				C1206.9,611.4,1205.8,611.8,1204.7,612.2z"/>
			<path class="st14" d="M1157.4,876.6c0.3-0.9,1-1.5,1.6-2.1c1.6-1.4,3.5-2.3,5.5-2.9c-0.3,0-0.6,0-0.9,0
				c2.7-49.5,6.5-98.7,11.4-148c-0.5-0.1-1-0.2-1.6-0.3c-4.9,49-8.7,98-11.4,147.2c0.3,0,0.6,0,0.9,0c-2,0.6-4,1.5-5.5,2.9
				c-0.7,0.6-1.3,1.3-1.6,2.1c-0.3,0.9-0.2,2,0.5,2.6c0.3,0,0.6,0,0.9,0C1157.2,877.6,1157.2,877,1157.4,876.6z"/>
			<path class="st14" d="M1155.7,758.8c-3.2-4.5-3.5-9.8-2.6-14.9c0,0,0-0.1,0-0.1c0,0-0.1,0-0.1,0c-1.7-26.5-0.5-43.1,2.2-64.2
				c2.7-14.3,9.4-31.5,14.2-46.6c6.4-5.5,13.6-9.6,21-13.1c-0.4-1.5-0.9-2.9-1.3-4.4c-0.4-0.2-0.9-0.3-1.3-0.5
				c0.4,1.3,0.8,2.6,1.2,3.8c-7.5,3.5-14.6,7.6-21,13.1c-4.9,15.2-11.5,32.4-14.2,46.6c-2.7,21.1-3.9,37.7-2.2,64.2c0,0,0.1,0,0.1,0
				c0,0,0,0.1,0,0.1c-0.9,5-0.6,10.4,2.6,14.9c0.7,0.9,1.5,1.5,2.4,2.1C1156.3,759.5,1155.9,759.2,1155.7,758.8z"/>
			<path class="st14" d="M1221.1,871C1221.1,871,1221.1,871,1221.1,871c-8.4-38.8-13.4-85-16.5-124.7c-0.4,0.3-0.9,0.5-1.3,0.7
				c3.1,39.3,8,84.7,16.3,123c0,0,0,0,0.1,0c-0.6,2.4-0.9,4.8-0.6,7.3c0.5,0.1,0.9,0.1,1.4,0.2
				C1220.4,875.2,1220.6,873.1,1221.1,871z"/>
			<path class="st14" d="M1173.4,666.3c-0.5,2.3-0.9,4.6-1.4,6.9c0.2,16.3,0.1,32.6-0.3,48.9c0.5,0.1,1,0.2,1.5,0.3
				C1173.7,703.7,1173.8,685.1,1173.4,666.3z"/>
		</g>
		<g>
			<path class="st14" d="M1067,585.9c0.4,0.2,0.9,0.3,1.3,0.5c-0.8-3.9-1-7.9-0.7-11.9c-3.2-10.1-3.9-21-2.9-31.5
				c1.7,0.9,3.3,0.8,5.1,1.7c-0.3-2.6-0.6-4.8-0.9-7.4c4.6-0.2,9.3,0.6,13.6,2.3c0.4-1.1,1.2-2,1.6-3.2c2.4,0.8,4.6,2.1,6.6,3.7
				c-2.3-2.3-5-4.1-8.1-5.1c-0.4,1.1-1.2,2-1.6,3.2c-4.3-1.7-9-2.5-13.6-2.3c0.3,2.6,0.6,4.8,0.9,7.4c-1.7-0.9-3.3-0.8-5.1-1.7
				c-1,10.5-0.3,21.4,2.9,31.5C1065.8,577.4,1066.1,581.8,1067,585.9z"/>
			<path class="st14" d="M1050.4,623.6c-0.5,0.2-1,0.4-1.4,0.7c0.2,26.3-0.8,53.3-4.5,79.3c0.5,0.1,1.1,0.3,1.6,0.4
				C1049.8,677.6,1050.7,650.2,1050.4,623.6z"/>
			<path class="st14" d="M1031.2,556C1031.2,556,1031.2,556,1031.2,556c-0.1,0.2-0.2,0.5-0.2,0.8c0.1,0,0.2,0.1,0.2,0.1
				C1031.2,556.6,1031.2,556.3,1031.2,556z"/>
			<path class="st14" d="M1131.9,867.5c0.3,0.2,0.6,0.4,0.9,0.6c-0.7-0.8-1.5-1.5-2.4-2c-1.1-0.6-2.2-0.9-3.3-1.5
				c0.1,0.1,0.2,0.3,0.3,0.4C1128.6,866.3,1130.4,866.7,1131.9,867.5z"/>
			<path class="st14" d="M1124,603.7c0.6-0.9,1.7-1.4,2.8-1.4c0.5,0,0.9,0.1,1.4,0.3c0-0.1-0.1-0.1-0.1-0.2
				c-0.6-0.9-1.7-1.5-2.7-1.5c-1.1,0-2.1,0.5-2.8,1.4c-0.6-0.2-1.1-0.5-1.6-0.8C1121.9,602.4,1122.8,603.3,1124,603.7z"/>
			<path class="st14" d="M1096.6,595.7c4.5,1.2,8.9,2.8,13.4,4.9c0.9,0.4,1.7,0.8,2.5,1.3c0.6-1.5,1.6-3,3.1-3.2
				c0.8-0.1,1.6,0.2,2.4,0.5c0.5,0.2,0.9,0.5,1.3,0.8c-0.8-0.8-1.7-1.7-2.8-2.1c-0.8-0.3-1.6-0.6-2.4-0.5c-1.5,0.2-2.5,1.7-3.1,3.2
				c-0.8-0.5-1.7-0.9-2.5-1.3c-4-1.8-7.9-3.3-11.8-4.4C1096.7,595.2,1096.7,595.5,1096.6,595.7z"/>
			<path class="st14" d="M1040.6,599.2c0.2,0.7,0.3,1.3,0.4,1.9c7.8-4.3,16.4-7.7,25.2-8.3c4.4-0.3,8.6-0.3,12.7-0.1
				c0.1-0.7,0.1-1.5,0.1-2.3c-0.5-0.1-1-0.2-1.5-0.4c0,0.4,0,0.9,0,1.3c-4.1-0.2-8.3-0.2-12.7,0.1
				C1056.3,592.1,1048.1,595.2,1040.6,599.2z"/>
			<path class="st14" d="M1081.9,737.8c-0.2,0.5-0.3,0.9-0.4,1.4c14.5,38.7,25.9,79.7,30.5,121c0.4,0,0.9-0.1,1.3-0.1
				C1108.4,818.3,1096.7,776.8,1081.9,737.8z"/>
			<path class="st14" d="M1032.6,866.3c1.9-1.7,4-3.1,5.9-4.8c1-0.9,2-1.9,2.7-3c-0.3-0.1-0.5-0.1-0.8-0.2
				c-1.4-51,1.5-102.2,8.6-152.7c-0.5-0.1-1.1-0.3-1.6-0.4c-7,50.2-9.8,101.1-8.5,151.8c0.3,0.1,0.5,0.1,0.8,0.2
				c-0.8,1.1-1.7,2.1-2.7,3c-1.9,1.7-4.1,3-5.9,4.8c-1.9,1.7-3.4,4-3.7,6.6c0.1-0.1,0.2-0.2,0.3-0.2c0.5,0.2,0.9,0.3,1.4,0.4
				C1029.6,869.6,1031,867.8,1032.6,866.3z"/>
			<path class="st14" d="M1115.1,861.4c-0.6,0-1.1,0.1-1.7,0.1c-0.6,4-0.8,8-0.6,12c0.5,0.1,1,0.2,1.4,0.3
				C1114.1,869.7,1114.4,865.5,1115.1,861.4z"/>
			<path class="st14" d="M1022.2,615.5c-3.3-18.4-3.1-36.8-2.7-55.5c0.2-0.2,0.4-0.3,0.5-0.5c-1.6-5-3.2-10.1-4.8-15.1
				c0.8-4.3,1.7-8.2,3.6-12c1.2-2.3,4.3-3.4,6.6-4.2c1.9-0.7,3.8-0.8,5.7-0.3c0-0.3,0-0.5,0-0.8c-2.3-1.1-4.7-1.1-7.1-0.2
				c-2.3,0.8-5.4,1.9-6.6,4.2c-1.9,3.8-2.9,7.7-3.6,12c1.6,5,3.2,10.1,4.8,15.1c-0.2,0.2-0.4,0.3-0.5,0.5
				c-0.4,18.8-0.6,37.1,2.7,55.5c0.6,3.1,2.4,5.5,4.7,7.4C1023.9,620,1022.7,618,1022.2,615.5z"/>
			<path class="st14" d="M1032.7,536.6c0.2,0.1,0.4,0.3,0.6,0.5c-0.2-0.2-0.4-0.4-0.7-0.7C1032.7,536.5,1032.7,536.6,1032.7,536.6z"
				/>
			<path class="st14" d="M1037.2,597c0.6,0,1.1-0.3,1.6-0.6c-0.1-0.6-0.3-1.1-0.3-1.7c-0.6,0-1.1,0.3-1.6,0.6
				C1037,595.9,1037.1,596.4,1037.2,597z"/>
		</g>
	</g>
</g>
<path class="st1" d="M129.2,615.5c11.7-40.8,32.4-74.8,58.3-74.3c25.9,0.5,45.3,35.1,55.6,76.3c10,40-16.3,79.8-58.4,80.1
	C142.7,695.8,117.8,655.1,129.2,615.5z"/>
<path class="st2" d="M176.6,677.5c-22.4-0.8-29.8-3.4-40.7-8.4c6.5,11.6,22.8,27.4,48.8,28.5c26.1-0.2,53.9-16.9,59.9-53.7
	C232.9,657.2,215.7,677.5,176.6,677.5z"/>
<path class="st2" d="M1411.1,677.5c-22.4-0.8-29.8-3.4-40.7-8.4c6.5,11.6,22.8,27.4,48.8,28.5c26.1-0.2,53.9-16.9,59.9-53.7
	C1467.4,657.2,1450.2,677.5,1411.1,677.5z"/>
<path class="st1" d="M1442.5,659.8c-3.8,26.8,16.6,51.5,45.6,52c29-0.4,49.4-25.2,45.6-52c-3.9-27.3-22.4-49.6-45.6-49.6
	C1464.9,610.2,1446.4,632.5,1442.5,659.8z"/>
<path class="st2" d="M1534,662.5c-3.1,14.8-20,29-28,33c-8,4-19.7,6-26.1,6c-16.6-0.2-25.8-4.7-25.8-4.7s0,0-0.1,0
	c8.2,8.9,20.1,14.7,34,14.9C1516,711.3,1536.1,688.2,1534,662.5z"/>
</svg>
