<?xml version="1.0" encoding="utf-8"?>
<!-- Generator: Adobe Illustrator 27.0.1, SVG Export Plug-In . SVG Version: 6.00 Build 0)  -->
<svg version="1.1" id="Lager_1" xmlns="http://www.w3.org/2000/svg" xmlns:xlink="http://www.w3.org/1999/xlink" x="0px" y="0px"
	 viewBox="0 0 1600 900" style="enable-background:new 0 0 1600 900;" xml:space="preserve">
<style type="text/css">
	.st0{fill:none;stroke:#FFFFFF;stroke-width:4;stroke-miterlimit:10;}
	.st1{fill:none;stroke:#000000;stroke-width:4;stroke-miterlimit:10;}
	.st2{fill:#FFFFFF;}
	.st3{fill:#161514;}
	.st4{fill:#6B410C;}
	.st5{fill:#4B3524;}
	.st6{fill:#541100;}
	.st7{fill:#BFBFC3;}
	.st8{fill:#D1D0D5;}
	.st9{fill:#E7E6EB;}
	.st10{fill:#667572;}
	.st11{fill:#575655;}
	.st12{fill:#303030;}
	.st13{fill:#A3A2A2;}
	.st14{fill:#002B33;}
	.st15{fill:#013F4B;}
	.st16{fill:#979797;}
	.st17{fill:#F38000;}
	.st18{fill:#3E405D;}
	.st19{fill:#D4A572;}
	.st20{fill:#F07800;}
	.st21{fill:#AFAFB1;}
	.st22{fill:#5A5A5C;}
	.st23{fill:#E0E0E6;}
	.st24{fill:#97672C;}
	.st25{opacity:0.45;fill:#2B2D34;}
	.st26{fill:#F9F9F9;}
	.st27{opacity:0.25;fill:#2B2D34;}
	.st28{fill:#BF6500;}
	.st29{fill:none;stroke:#272425;stroke-width:0.8215;stroke-miterlimit:10;}
	.st30{fill:#CFCFCF;}
	.st31{fill:#F4F4F4;}
	.st32{fill:#9C9C9C;}
	.st33{fill:#ECC990;}
	.st34{fill:#6B4D2E;}
	.st35{fill:none;}
	.st36{fill:#BA8B50;}
	.st37{fill:#38281B;}
	.st38{fill:#E5E5E6;}
	.st39{fill:#414140;}
	.st40{fill:#E6BC87;}
	.st41{fill:#DBB378;}
	.st42{fill:#858686;}
	.st43{fill:#A4A4A4;}
	.st44{fill:#CDCDCD;}
	.st45{fill:#3B3B3B;}
	.st46{opacity:0.35;}
	.st47{fill:#C7C7C7;}
	.st48{fill:#1D1D1D;}
	.st49{fill:#8C6846;}
	.st50{fill:#945414;}
	.st51{fill:#2B2D34;}
	.st52{fill:#573B1C;}
	.st53{fill:#CCA06E;}
</style>
<g>
	<path class="st0" d="M499.7,179.2c-4.7,72-29.8,99.5-29.8,99.5s66-36.9,80-98.6c0,0,88.1,3.1,124.9-1c36.8-4.1,47.2-15,51.3-34.7
		s0-81.4-2.6-95.9c-2.6-14.5-5.2-31.1-37.8-37.3S580.4,4.9,561.3,4.9c-19.2,0-103.6,4.7-112.5,7.3c0,0-29.7-0.1-30.6,27.5
		c-0.5,15.2-4.2,87.8-1,105.2s7.1,23.8,20.2,30.6C447.1,180.3,499.7,179.2,499.7,179.2z"/>
	<path class="st1" d="M500.2,186.2"/>
</g>
<g>
	<path class="st2" d="M489.1,96h5.1v3.4h-5.1v7.9h-4v-7.9h-15.6v-3.9l14.7-17.9h5V96z M473,96h12.1V81.3L473,96z"/>
	<path class="st2" d="M509.6,115.2h-3.9V86.7h3.9V91c0.9-2.5,3.5-4.9,7.4-4.9c6.1,0,9.4,4.8,9.4,10.9c0,6.1-3.4,10.9-9.4,10.9
		c-3.9,0-6.5-2.3-7.4-4.9V115.2z M509.5,97.6c0,4.5,2.9,7.2,6.6,7.2c4.1,0,6.3-3,6.3-7.7c0-4.7-2.2-7.7-6.3-7.7
		c-3.7,0-6.6,2.6-6.6,7.1V97.6z"/>
	<path class="st2" d="M542.9,90.6c-1.1-0.6-1.9-0.8-3.2-0.8c-3,0-5.2,2.7-5.2,6.7v10.9h-3.9V86.7h3.9v4.2c0.8-2.4,2.9-4.8,5.9-4.8
		c1.3,0,2.2,0.3,2.9,0.9L542.9,90.6z"/>
	<path class="st2" d="M554.7,107.9c-6,0-10.5-4.4-10.5-10.9c0-6.4,4.4-10.9,10.5-10.9c6.1,0,10.6,4.5,10.6,10.9
		C565.3,103.4,560.8,107.9,554.7,107.9z M554.7,104.9c4.2,0,6.6-3.3,6.6-7.8c0-4.6-2.4-7.8-6.6-7.8c-4.2,0-6.5,3.2-6.5,7.8
		C548.2,101.6,550.6,104.9,554.7,104.9z"/>
	<path class="st2" d="M578.7,86.1c6,0,9.3,4.1,9.7,9l-3.4,0.2c-0.3-3.6-2.5-6.1-6.3-6.1c-3.9,0-6.5,3-6.5,7.7c0,4.8,2.6,7.7,6.5,7.7
		c3.8,0,6-2.6,6.3-6.2l3.4,0.3c-0.4,5-3.7,9-9.7,9c-6.2,0-10.6-4.3-10.6-10.9C568.2,90.5,572.5,86.1,578.7,86.1z"/>
	<path class="st2" d="M611.6,100.4c-1,4.7-4.5,7.5-9.6,7.5c-6.1,0-10.6-4.2-10.6-10.6c0-6.5,4.5-11.2,10.4-11.2
		c6.6,0,9.9,4.7,9.9,10.3V98h-16.4c0.2,4,3.1,6.8,6.8,6.8c3.4,0,5.5-1.7,6.3-4.8L611.6,100.4z M607.6,95.4c-0.1-3.3-2-6.3-5.9-6.3
		c-3.7,0-5.9,2.9-6.4,6.3H607.6z"/>
	<path class="st2" d="M619.6,107.3h-3.9V86.7h3.9v3.7c1-2.5,3.8-4.2,6.8-4.2c5.4,0,7.6,3.6,7.6,8.4v12.8h-3.9V94.9
		c0-3.4-1.7-5.6-4.9-5.6c-3.1,0-5.6,2.5-5.6,6.2V107.3z"/>
	<path class="st2" d="M639.8,89.5h-3.1v-2.1l1.3-0.2c1.9-0.4,2.4-1.3,2.8-3.3l0.6-2.9h2.2v5.7h5.8v2.8h-5.8V102
		c0,1.8,0.8,2.7,2.5,2.7c1.3,0,2.7-0.6,3.9-1.2v2.6c-1.5,1.1-3,1.7-5.3,1.7c-2.9,0-5-1.4-5-5.4V89.5z"/>
	<path class="st2" d="M660.2,99.4c0-2.7,0.9-4.5,3.4-6.5c2.2-1.8,4.7-3.4,4.7-6.9c0-3.1-1.9-5.6-5.8-5.6c-4.1,0-6.4,2.6-6.4,6.9
		c0,0.9,0.1,1.8,0.3,2.7l-4.1-0.2c-0.2-0.9-0.3-1.9-0.3-2.8c0-6.1,4.1-10,10.4-10c6.9,0,10,4.1,10,8.8c0,4.1-2.9,6.6-6.2,9.3
		c-1.7,1.4-2.4,2.4-2.5,4.2H660.2z M659.6,102.6h4.7v4.7h-4.7V102.6z"/>
</g>
<g>
	<g>
		<g>
			<path class="st3" d="M1216.7,335.2l-36.5,9.2c-2.7-8-5.7-17.9-5.7-17.9s-8.9-0.3-9.6-1.7c-0.7-1.4,1.1-13.6,1.1-15
				c0-1.4-4.7-35.7-4.7-35.7s-2.4-0.8-2.3-3.7c0.1-2.9,8.2-26.2,33.6-33.2c25.4-6.9,50.1,3.2,56.4,26.3c6.4,23.1-4.7,50.3-4.7,50.3
				s9.2,29.4,9.5,30.3c0.2,1-7.9,2.8-20.1,7.7c-5.1,2-8.8,3.6-11.5,4.8L1216.7,335.2z"/>
			<path class="st4" d="M1164.8,324.3c0-0.1,0-0.1,0-0.2c0-0.1,0-0.3,0-0.5c0-0.1,0-0.2,0-0.3c0-0.2,0-0.4,0-0.6c0-0.1,0-0.3,0-0.4
				c0-0.2,0-0.5,0-0.8c0-0.1,0-0.3,0-0.4c0-0.3,0-0.7,0.1-1c0-0.1,0-0.1,0-0.2c0-0.5,0.1-0.9,0.1-1.4l0,0c0-0.5,0.1-1,0.1-1.4
				c0-0.1,0-0.1,0-0.2c0.3-3.2,0.7-6.4,0.7-7c0-1.4-4.7-35.7-4.7-35.7s15.9,5.8,18.1,8.1c1.6,1.7,6.6,19.7,8.2,32.8l5.2-1.3
				c0,0,0.4-3.7-1.4-10.6c-1.2-4.9,0.2-7.4,1.2-8.4c0.2-0.2,0.3-0.4,0.6-0.5c0.1,0,0.1-0.1,0.1-0.1c3.3-1.4,7.9,1.4,9.4,7.2
				c1.5,5.9,6.8,19.6,9.1,21.6c2.3,2,9,1.6,19.7-1.3c10.7-3,12.9-7.7,12.9-7.7s7.4,16,9.8,23.7c4.9,10.8-1.3,1-1.3,1
				c1.4,4.3-0.8-0.2,0.1,2.7c0,0.2-0.1-0.2,0,0c0,0,0,0,0,0c0.2,0.5,0.3,1,0.4,1.4c0.1,0.2,0.1,0.4,0.2,0.5c0,0,0,0.1,0,0.1
				c0,0.1,0,0.2,0.1,0.2c0,0.1,0.1,0.2,0.1,0.3c0,0,0,0,0,0c0,0.1,0.1,0.2,0.1,0.3c0,0.1,0,0.1,0,0.2c0.2,1-7.9,2.8-20.1,7.7
				c-12.3,4.9-16.8,7.4-16.8,7.4l-3-11.7c0,0-2-8.9-2.1-8.9c-1.9,0.7-25.8,19.1-28.1,14.7c-2.4-4.6-9-26.8-9-26.8s-8.9-0.3-9.6-1.7
				C1164.8,324.7,1164.8,324.5,1164.8,324.3"/>
			<path class="st2" d="M1184.5,326.7l-8.9,4.1l2,6.5C1177.7,337.4,1186.5,334.5,1184.5,326.7"/>
			<path class="st3" d="M1163.7,285.7c0,0-0.5,3.6,1.7,4.6c2.2,0.9,2.5,0.2,8.1,0.6c5.7,0.5,6.8,0.1,6.8,0.1s-2.8-4-4.7-4.5
				C1173.8,286,1164.9,285.2,1163.7,285.7"/>
			<path class="st5" d="M1204.9,308.4c0,0,0.9,6-1.6,9.8c0,0,3.1,9.6,4.2,16.6c1.1,7-2,8.3-2,8.3l6.2-4.5l0-15.8L1204.9,308.4z"/>
			<path class="st3" d="M1168.6,299.3c0.7,2,2.6,3.2,4.3,2.6c1.7-0.6,2.5-2.6,1.9-4.6c-0.7-2-2.6-3.2-4.3-2.6
				C1168.8,295.2,1168,297.2,1168.6,299.3z"/>
		</g>
		<path class="st6" d="M1192.4,786c-19.8,0-38.7,0.9-56.1,2.4c-20.2-9.4-49.4-18-85.6-25.1c1-1.6,1.6-3.4,1.8-5.2
			c1.7-19.5-49.3-39.9-113.9-45.4c-64.6-5.5-118.3,5.8-120,25.3c-0.1,0.9,0,1.7,0.1,2.6c-17.5-0.5-35.3-0.7-53.4-0.7
			c-193.3,0-354.8,26.8-393.4,62.6c-63.3,4.4-192.2,16.9-192.2,32.9c0,19.6,151.9,36.6,237.2,36.6c15,0,29.5-0.5,43.3-1.4
			c73.8,16.9,183.1,27.6,305.2,27.6c159,0,296.4-18.1,361.7-44.4c19.9,2.1,42,3.3,65.4,3.3c85.3,0,228,1.5,228-18.1
			C1420.4,819.3,1277.7,786,1192.4,786z"/>
		<g>
			<g>
				<polygon class="st7" points="475.1,774.7 459.7,774.7 453,488.4 481.8,488.4 				"/>
				<polygon class="st8" points="470.8,774.7 455.4,774.7 448.7,488.4 477.5,488.4 				"/>
				<polygon class="st9" points="460.7,773.7 455.5,773.7 452.5,488.6 461.3,488.6 				"/>
			</g>
			<g>
				<polygon class="st7" points="1094.5,774.7 1079.1,774.7 1072.4,488.4 1101.2,488.4 				"/>
				<polygon class="st8" points="1090.2,774.7 1074.8,774.7 1068.1,488.4 1096.9,488.4 				"/>
				<polygon class="st9" points="1080.1,773.7 1074.9,773.7 1071.9,488.6 1080.7,488.6 				"/>
			</g>
		</g>
		<g>
			<ellipse class="st10" cx="347.8" cy="720.8" rx="13.3" ry="4"/>
			<rect x="338.6" y="650.8" class="st8" width="18.4" height="103.6"/>
			<rect x="351.9" y="650.8" class="st9" width="4.4" height="103.6"/>
			<path class="st11" d="M361.1,762.9c0,0-6.8,1.6-13.3,1.6c-6.5,0-13.3-1.6-13.3-1.6v-42.6c0,0,4.4,2.7,13.3,2.7
				c8.9,0,13.3-2.7,13.3-2.7V762.9z"/>
			<path class="st11" d="M475,777.3c-10.3-7.7-86-7.9-102-12.3c-14-3.9-15.7-11.5-15.7-11.5h-19c0,0-1.7,7.6-15.7,11.5
				c-16,4.4-91.7,4.6-102,12.3c-10.3,7.7-15.5,32.2-15.5,32.2l10.1,2.5c0,0,5.7-15.3,18.2-24.4c8.1-5.9,97.1,0.7,97.1,0.7l10.5,30.7
				h2h4.9l0,0h6.9l10.5-30.7c0,0,89-6.7,97.1-0.7c12.4,9.1,18.2,24.4,18.2,24.4l10.1-2.5C490.5,809.5,485.3,785,475,777.3z"/>
			<path class="st12" d="M363.1,820c0,8.5-6.9,15.4-15.4,15.4c-8.5,0-15.4-6.9-15.4-15.4c0-8.5,6.9-15.4,15.4-15.4
				C356.2,804.6,363.1,811.5,363.1,820z"/>
			<path class="st12" d="M224.9,820c0,8.5-6.9,15.4-15.4,15.4c-8.5,0-15.4-6.9-15.4-15.4c0-8.5,6.9-15.4,15.4-15.4
				C217.9,804.6,224.9,811.5,224.9,820z"/>
			
				<ellipse transform="matrix(1 -5.619379e-03 5.619379e-03 1 -4.6002 2.7405)" class="st12" cx="485.4" cy="820" rx="15.4" ry="15.4"/>
			<polygon class="st13" points="377.8,657 317.4,656.8 312.3,638.3 383.2,638.2 			"/>
			<path class="st11" d="M446.1,636.2c0,2.9-3,5.2-6.7,5.2H267.9c-3.7,0-6.7-2.3-6.7-5.2l0,0c0-2.9,3-5.2,6.7-5.2h171.5
				C443.1,631,446.1,633.3,446.1,636.2L446.1,636.2z"/>
			<path class="st11" d="M212.2,423.6c-1.9,1.5-3,5.9-2.5,14.4c0.5,8.5,2.8,72.5,5.4,81.3c2.8,70.2,19.5,90.7,29.4,103.3
				c3.7,4.8,6.4,11.9,17.5,11.5c-1.9-4.8-5.1-23.5-5-33.5c-15.8-2.1-24.1-47.1-23.7-71.2c0.4-18.8-9.3-109.6-9.3-109.6
				S216.8,419.8,212.2,423.6z"/>
			<path class="st13" d="M229.5,539.6c1.8,8.8,31.7,2.1,34.4-4.7c7-17.8,4.8-31.7-0.9-56.7c-4.5-19.9-12.2-91.7-13.2-100.8
				c-2.4-20.9-5.1-23-13-23c-7.9,0-20.9,2.5-22.5,10c-1.5,7.4,5.6,71.1,9.2,96.2c0.9,5.9,1.4,10.9,1.4,14.4
				C224.9,493.2,228.7,535.7,229.5,539.6z"/>
			<path class="st13" d="M455.6,628.3c0,3.4-3.5,6.1-7.9,6.1H264.8c-4.3,0-7.9-2.7-7.9-6.1v-26.8c0-3.4,2-7.6,16.8-6.4
				c18.4,1.5,33.9,4.8,88,3.3c54.1-1.5,59.8-5.1,76.2-4.5c13.4,0.6,17.7,4.1,17.7,7.5V628.3z"/>
		</g>
		<g>
			<g>
				<path class="st3" d="M589.6,755.8c-0.2,0.7-2.1,20.6,0.4,25.4c2.5,4.9,9.9,5.6,22.4,7.5c12.5,1.8,10.5,1.8,31.1,6.9
					s33.5,2.2,40.6-0.6c7.1-2.8,8.1-6.6,8.1-6.6s0.5-12.3-5.2-18c-5.7-5.7-8.3-5-22.9-7.4c-14.5-2.4-37.3-20.5-37.3-20.5l-34.6,4.9
					L589.6,755.8z"/>
				<path class="st3" d="M645.6,786.2c-17.5-5.5-24.9-6.5-35.6-6.6c-6.5,0-15.1-2.9-21.3-5.3c0.1,3,0.5,5.6,1.2,7
					c2.5,4.9,9.9,5.6,22.4,7.5c12.5,1.8,10.5,1.8,31.1,6.9c20.6,5,33.5,2.2,40.6-0.6c7.1-2.8,8.1-6.6,8.1-6.6s0.1-3.8-0.7-8.1
					C682,787.1,661,791,645.6,786.2z"/>
				<g>
					<path class="st3" d="M665.7,780.5c-0.9,4.3,0.1,7.7,0.1,7.7s5.1-0.6,13.2-2.3c8.1-1.7,12.6-5.6,12.6-5.6
						c-0.7-3.5-2-7.4-4.5-9.9c-2.4-2.4-4.3-3.7-6.7-4.5C675.4,769.8,666.4,777.4,665.7,780.5z"/>
					<path class="st3" d="M669.1,793.6c-16,1.1-27.9-4.2-40.9-5.8c-12.8-1.6-24.5-0.4-24.7-0.4c2.6,0.4,5.6,0.8,8.9,1.3
						c12.5,1.8,10.5,1.8,31.1,6.9c20.6,5,33.5,2.2,40.6-0.6c7.1-2.8,8.1-6.6,8.1-6.6s0-0.7,0-1.8
						C687.5,789.2,679.2,792.9,669.1,793.6z"/>
				</g>
			</g>
			<polygon class="st3" points="627.1,752.7 632.3,752.5 630.2,715.9 585.6,718.4 589.6,755.8 			"/>
		</g>
		<g>
			<path class="st3" d="M572.6,744.3c0,0-0.8,18.6-1.4,23.9c-0.6,5.3-4.2,26.9-3.1,33.9c1.1,6.9,20,10.8,31.9,11.4
				c11.9,0.6,19.7-3.9,21.4-8.6c1.7-4.7-2.2-33.9-2.5-39.7c-0.3-5.8-2.2-20.8-2.2-20.8H572.6z"/>
			<path class="st3" d="M597.6,776.5c0,0-13,0-18.9,4.2c-5.8,4.2-6.1,12.8-6.1,12.8l22.3,11.4c0,0,11-1.1,13.8-2.2
				s13.2-7.3,13.2-7.3S619.2,776.8,597.6,776.5z"/>
			<path class="st3" d="M594.9,798.2c-16.3-0.9-24.1-7.6-26.3-9.8c-0.6,5.6-0.9,10.9-0.5,13.7c1.1,6.9,20,10.8,31.9,11.4
				c11.9,0.6,19.7-3.9,21.4-8.6c0.6-1.7,0.5-6.6,0.1-12.4C615.2,795.5,605.7,798.8,594.9,798.2z"/>
			<path class="st3" d="M594.9,804.8c-12.3-1-21.4-5.8-26.8-9.5c-0.1,2.8-0.2,5.2,0.1,6.8c1.1,6.9,20,10.8,31.9,11.4
				c11.9,0.6,19.7-3.9,21.4-8.6c0.4-1.1,0.5-3.4,0.4-6.4C617.3,801.6,608.4,806,594.9,804.8z"/>
		</g>
		<g>
			<g>
				<path class="st14" d="M351.5,505.7c0.4,14.7,23.2,50.6,55.7,75.1c30.4,23,46.2,20.1,53.9,32.9l37.6,159.4h33.1
					c0,0-16.6-168.7-35-194c-15.3-21.1-12.3-18.6-63.5-51.1l-8.5-21.2L351.5,505.7z"/>
			</g>
			<g>
				<path class="st15" d="M463.1,601.6c-14.4-20.7-28.6-34.1-79.8-66.6l-13.6-20.7l-60.7-1.1v56.2h-18.2c0.5,3.9,2,8.5,5.7,14.7
					c6.5,10.8,24.3,18.4,64.9,18.4c5.7,0,49.1,14.1,56.8,26.9l27.8,143.8l31.5,0.5C477.5,773.7,478,623,463.1,601.6z"/>
			</g>
		</g>
		<path class="st16" d="M496.8,579.2c-22.8-0.9-58.9,14.8-58.9,14.8s-2.7,0.6-7.3,1.5c15.7,7.9,25.1,9.2,30.5,18.2l2.9,12.5
			c16.1-8.3,33.6-13.2,43.8-15.6C504.3,595.8,500.6,584.5,496.8,579.2z"/>
		<g>
			<path class="st15" d="M463.1,601.6c-14.4-20.7-28.6-34.1-79.8-66.6l-13.6-20.7l-60.7-1.1v56.2h-18.2c0.5,3.9,2,8.5,5.7,14.7
				c6.5,10.8,24.3,18.4,64.9,18.4c5.7,0,49.1,14.1,56.8,26.9l24.9,145.3l37.4-2.5C480.6,772.2,478,623,463.1,601.6z"/>
		</g>
		<path class="st17" d="M411,377.4c0,0-0.9-13.9,14.1-23.2c9.6-6,20-8.2,24.2,3.4c3.4,9.4,15.3,58.6,21.3,76
			c5.9,17.3,9.1,28.8,2.7,39.6c-6.3,10.8-39.4,40.3-39.4,40.3l-14.7-1.5c0,0-12.1-7.5-12-29.3c0-12.9,18.8-8.1,15.7-33
			c-5.2-41.5-9.7-49.6-11.5-55.8C409.5,387.8,411,377.4,411,377.4z"/>
		<path class="st18" d="M382.5,341l-9,15.4c0,0,16.9,14.1,18.6,59.1c1.7,45.1,0,66.5,0,66.5l-3.9,27l29,1.1c0,0-8.3-7.3-10-25.7
			c-0.9-10.2,9.5-11.1,13.9-19.5c3.6-6.8,1.1-19.2,0.5-24.8c-3.7-31.9-9.9-41-11.1-51.5c-2.5-22.9,12.6-34.4,12.6-34.4L382.5,341z"
			/>
		<path class="st19" d="M387.8,379.3h22.6c1.7-16.7,12.6-25.1,12.6-25.1L382.5,341l-9,15.4c0,0,8.7,7.3,14.3,28.2V379.3z"/>
		<path class="st17" d="M410.4,379.3c-7.6,1-14.8,11.4-21.7,9.3c1.7,7.4,2.9,16.3,3.3,27c1.7,45.1,0,66.5,0,66.5l-3.9,27l29,1.1
			c0,0-8.3-7.3-10-25.7c-0.9-10.2,13.3,4,17.8-4.5c3.6-6.8,2-39.9,1.4-45.4C422.8,404.1,411.9,389.3,410.4,379.3z"/>
		<path class="st17" d="M398,401.5c-2.7-29.1-10.4-40.1-14.1-44.2c-3.7-4.1-30.1-7.9-54.6,21.4c-9.2,10.9-2.6,73.8-10.2,85.7
			c-22.5,35.2-28.4,103.8-28.4,103.8s12.4,16.9,28.2,24.8c15.8,7.9,0-12.4,19.4-30.1c19.4-17.7,45.4-57.6,57.2-68.2
			C408.6,468.5,398,401.5,398,401.5z"/>
		<path class="st20" d="M299.4,515.8c-6.6,27.5-8.7,52.3-8.7,52.3s12.4,16.9,28.2,24.8c15.8,7.9,35.2,5,54.6-12.7
			c12.2-11.2-8.1-39.5,4.1-55.4c0,0-37,0.4-49.1-1.4C321.1,522.5,299.4,515.8,299.4,515.8z"/>
		<path class="st21" d="M299.4,515.8l3.8-14.3c0,0,20.6,6.1,34.7,8.6c14.2,2.5,20.3,2.4,20.3,2.4v16
			C358.3,528.6,322.9,529.7,299.4,515.8z"/>
		<g>
			<rect x="879" y="500" class="st22" width="20.8" height="73.5"/>
			<g>
				<path class="st10" d="M876.1,685.9c0,2.4,6.3,4.3,14,4.3c7.7,0,14-1.9,14-4.3c0-2.4-6.3-4.3-14-4.3
					C882.4,681.7,876.1,683.6,876.1,685.9z"/>
				<rect x="880.4" y="612.1" class="st8" width="19.3" height="109.3"/>
				<path class="st11" d="M904.1,730.3c0,0-7.2,1.7-14,1.7c-6.9,0-14-1.7-14-1.7v-44.9c0,0,4.6,2.8,14,2.8c9.4,0,14-2.8,14-2.8
					V730.3z"/>
				<path class="st11" d="M1024.3,745.5c-10.9-8.1-90.7-8.3-107.6-12.9c-14.8-4.1-16.6-12.1-16.6-12.1h-20c0,0-1.8,8-16.6,12.1
					c-16.8,4.6-96.7,4.8-107.6,12.9c-10.9,8.1-16.3,33.9-16.3,33.9l10.6,2.7c0,0,6-16.1,19.2-25.7c8.6-6.3,102.4,0.8,102.4,0.8
					l11.1,32.3h2.1h5.2l0,0h7.3l11.1-32.3c0,0,93.9-7,102.4-0.8c13.1,9.6,19.2,25.7,19.2,25.7l10.6-2.7
					C1040.6,779.4,1035.2,753.6,1024.3,745.5z"/>
				<path class="st12" d="M906.2,790.5c0,9-7.3,16.2-16.3,16.2c-9,0-16.3-7.3-16.3-16.2c0-9,7.3-16.3,16.3-16.3
					C899,774.3,906.2,781.5,906.2,790.5z"/>
				<path class="st12" d="M760.5,790.5c0,9-7.3,16.2-16.3,16.2c-9,0-16.3-7.3-16.3-16.2c0-9,7.3-16.3,16.3-16.3
					C753.2,774.3,760.5,781.5,760.5,790.5z"/>
				<path class="st12" d="M1051.5,790.5c0,9-7.3,16.2-16.3,16.2c-9,0-16.2-7.3-16.2-16.2c0-9,7.3-16.3,16.2-16.3
					C1044.2,774.3,1051.5,781.5,1051.5,790.5z"/>
				<polygon class="st13" points="921.8,618.7 858.1,618.5 852.7,599 927.5,598.9 				"/>
				<path class="st11" d="M993.7,596.7c0,3-3.2,5.5-7,5.5H805.9c-3.9,0-7-2.5-7-5.5l0,0c0-3,3.1-5.5,7-5.5h180.8
					C990.6,591.2,993.7,593.7,993.7,596.7L993.7,596.7z"/>
				<path class="st13" d="M1011.5,588.4c0,3.6-3.7,6.5-8.3,6.5H785.3c-4.6,0-8.3-2.9-8.3-6.5v-28.3c0-3.6,2.1-8,17.7-6.7
					c19.4,1.6,41.6,3.1,100.8,3.2c57,0.2,80-5.2,97.3-4.5c14.1,0.6,18.7,4.4,18.7,7.9V588.4z"/>
			</g>
			<path class="st13" d="M1011.5,509.7c0,12.5-10.2,22.7-22.7,22.7H804.2c-12.5,0-22.7-10.2-22.7-22.7V349.3
				c0-12.5,10.2-22.7,22.7-22.7h184.5c12.5,0,22.7,10.2,22.7,22.7V509.7z"/>
		</g>
		<polygon class="st21" points="321.2,458.2 313.4,474.6 341.6,486.5 347.7,468.2 		"/>
		<g>
			<g>
				<path class="st3" d="M1100.7,797c0.2,0.7,0.6,20.7-2.2,25.3c-2.9,4.7-10.3,4.9-22.9,5.8c-12.6,0.9-10.6,1.1-31.5,4.6
					c-20.9,3.5-33.6-0.3-40.4-3.6c-6.9-3.3-7.6-7.2-7.6-7.2s0.4-12.3,6.5-17.6c6.1-5.3,8.7-4.4,23.3-5.8
					c14.7-1.4,38.7-17.7,38.7-17.7l34.1,7.4L1100.7,797z"/>
				<path class="st3" d="M1042.6,823.2c17.8-4.2,25.3-4.7,35.9-4c6.5,0.4,15.3-1.8,21.6-3.8c-0.4,3-0.9,5.5-1.7,6.9
					c-2.9,4.7-10.3,4.9-22.9,5.8c-12.6,0.9-10.6,1.1-31.5,4.6c-20.9,3.5-33.6-0.3-40.4-3.6c-6.9-3.3-7.6-7.2-7.6-7.2s0.1-3.8,1.3-8
					C1006.3,821.5,1026.9,826.9,1042.6,823.2z"/>
				<g>
					<path class="st3" d="M1023,816.1c0.6,4.3-0.7,7.6-0.7,7.6s-5.1-0.9-13-3.2c-7.9-2.3-12.1-6.5-12.1-6.5c0.9-3.4,2.5-7.2,5.2-9.6
						c2.6-2.2,4.5-3.4,7-4C1014.1,804.7,1022.6,813,1023,816.1z"/>
					<path class="st3" d="M1018.6,828.9c15.9,2.3,28.2-2.2,41.2-2.8c12.9-0.6,24.5,1.3,24.7,1.4c-2.6,0.2-5.6,0.4-9,0.7
						c-12.6,0.9-10.6,1.1-31.5,4.6c-20.9,3.5-33.6-0.3-40.4-3.6c-6.9-3.3-7.6-7.2-7.6-7.2s0-0.7,0.1-1.8
						C1000.7,823.2,1008.6,827.4,1018.6,828.9z"/>
				</g>
			</g>
			<polygon class="st3" points="1063.6,791.2 1058.4,790.5 1063.1,754.2 1107.4,759.9 1100.7,797 			"/>
		</g>
		<polygon class="st23" points="1076.3,790 1107.1,794.6 1115,752.7 1084.2,748.1 		"/>
		<g>
			<g>
				<path class="st3" d="M1116.1,808.9c0.2,0.7,1.8,20.6-0.8,25.4c-2.6,4.8-10,5.5-22.5,7.1s-10.5,1.7-31.2,6.4
					c-20.7,4.7-33.5,1.7-40.6-1.2c-7.1-2.9-8-6.7-8-6.7s-0.3-12.3,5.5-17.9c5.7-5.6,8.4-4.9,23-7.1c14.6-2.2,37.6-19.9,37.6-19.9
					l34.5,5.4L1116.1,808.9z"/>
				<path class="st3" d="M1059.7,838.5c17.6-5.3,25-6.2,35.7-6.1c6.5,0.1,15.1-2.7,21.3-5c-0.2,3-0.6,5.6-1.3,6.9
					c-2.6,4.8-10,5.5-22.5,7.1c-12.5,1.6-10.5,1.7-31.2,6.4c-20.7,4.7-33.5,1.7-40.6-1.2c-7.1-2.9-8-6.7-8-6.7s-0.1-3.8,0.8-8.1
					C1023.2,838.9,1044.2,843.1,1059.7,838.5z"/>
				<g>
					<path class="st3" d="M1039.7,832.5c0.9,4.3-0.2,7.7-0.2,7.7s-5.1-0.6-13.1-2.5c-8-1.8-12.5-5.8-12.5-5.8
						c0.7-3.5,2.1-7.3,4.6-9.8c2.4-2.4,4.3-3.6,6.8-4.4C1030.1,821.7,1039,829.4,1039.7,832.5z"/>
					<path class="st3" d="M1036,845.5c16,1.4,28-3.8,41-5.2c12.9-1.4,24.5-0.1,24.7,0c-2.6,0.4-5.6,0.8-8.9,1.2
						c-12.5,1.6-10.5,1.7-31.2,6.4c-20.7,4.7-33.5,1.7-40.6-1.2c-7.1-2.9-8-6.7-8-6.7s0-0.7,0-1.8
						C1017.7,840.9,1026,844.7,1036,845.5z"/>
				</g>
			</g>
			<polygon class="st3" points="1078.7,805.3 1073.5,804.9 1076.1,768.5 1120.7,771.6 1116.1,808.9 			"/>
		</g>
		<g>
			<g>
				<path class="st3" d="M814.3,782.5c0.2,0.7,3,20.4,0.7,25.4c-2.3,5-9.7,6.1-22.1,8.4c-12.4,2.3-10.4,2.3-30.8,8.2
					s-33.4,3.6-40.6,1.1c-7.2-2.5-8.4-6.2-8.4-6.2s-1-12.2,4.4-18.2c5.4-5.9,8.1-5.3,22.5-8.4c14.4-3.1,36.4-22.1,36.4-22.1
					l34.7,3.4L814.3,782.5z"/>
				<path class="st3" d="M759.6,815.2c17.2-6.3,24.6-7.6,35.2-8.1c6.5-0.3,15-3.6,21-6.2c0,3-0.3,5.6-0.9,7c-2.3,5-9.7,6.1-22.1,8.4
					c-12.4,2.3-10.4,2.3-30.8,8.2c-20.4,5.9-33.4,3.6-40.6,1.1c-7.2-2.5-8.4-6.2-8.4-6.2s-0.3-3.7,0.3-8.1
					C723.3,817.7,744.4,820.7,759.6,815.2z"/>
				<g>
					<path class="st3" d="M739.3,810.4c1.1,4.2,0.2,7.7,0.2,7.7s-5.1-0.3-13.3-1.7c-8.1-1.4-12.8-5.1-12.8-5.1
						c0.5-3.5,1.7-7.4,4.1-10.1c2.3-2.5,4.1-3.9,6.5-4.8C729.2,800.1,738.5,807.3,739.3,810.4z"/>
					<path class="st3" d="M736.4,823.6c16.1,0.5,27.7-5.4,40.6-7.6c12.8-2.1,24.5-1.5,24.7-1.5c-2.6,0.5-5.5,1.1-8.9,1.7
						c-12.4,2.3-10.4,2.3-30.8,8.2c-20.4,5.9-33.4,3.6-40.6,1.1c-7.2-2.5-8.4-6.2-8.4-6.2s-0.1-0.7-0.1-1.8
						C717.9,820,726.3,823.3,736.4,823.6z"/>
				</g>
			</g>
			<polygon class="st3" points="776.7,781 771.5,780.9 772,744.3 816.7,744.9 814.3,782.5 			"/>
		</g>
		<g>
			<g>
				<path class="st3" d="M882.9,784.9c0.2,0.7,3,20.4,0.7,25.4c-2.3,5-9.7,6.1-22.1,8.4c-12.4,2.3-10.4,2.3-30.8,8.2
					c-20.4,5.9-33.4,3.6-40.6,1.1c-7.2-2.5-8.4-6.2-8.4-6.2s-1-12.2,4.4-18.2c5.4-5.9,8.1-5.3,22.5-8.4
					c14.4-3.1,36.4-22.1,36.4-22.1l34.7,3.4L882.9,784.9z"/>
				<path class="st3" d="M828.2,817.6c17.2-6.3,24.6-7.6,35.2-8.1c6.5-0.3,15-3.6,21-6.2c0,3-0.3,5.6-0.9,7c-2.3,5-9.7,6.1-22.1,8.4
					c-12.4,2.3-10.4,2.3-30.8,8.2c-20.4,5.9-33.4,3.6-40.6,1.1c-7.2-2.5-8.4-6.2-8.4-6.2s-0.3-3.7,0.3-8.1
					C791.9,820.1,813,823.1,828.2,817.6z"/>
				<g>
					<path class="st3" d="M807.9,812.8c1.1,4.2,0.2,7.7,0.2,7.7s-5.1-0.3-13.3-1.7c-8.1-1.4-12.8-5.1-12.8-5.1
						c0.5-3.5,1.7-7.4,4.1-10.1c2.3-2.5,4.1-3.9,6.5-4.8C797.8,802.6,807.1,809.8,807.9,812.8z"/>
					<path class="st3" d="M805,826c16.1,0.5,27.7-5.4,40.6-7.6c12.8-2.1,24.5-1.5,24.7-1.5c-2.6,0.5-5.5,1.1-8.9,1.7
						c-12.4,2.3-10.4,2.3-30.8,8.2c-20.4,5.9-33.4,3.6-40.6,1.1c-7.2-2.5-8.4-6.2-8.4-6.2s-0.1-0.7-0.1-1.8
						C786.5,822.4,794.9,825.8,805,826z"/>
				</g>
			</g>
			<polygon class="st3" points="845.3,783.4 840.1,783.4 840.6,746.8 885.3,747.3 882.9,784.9 			"/>
		</g>
		<path class="st14" d="M1289.9,524.9c-0.4,14.8,4,24.8,3.6,39.5c-0.2,8.3-0.4,24.7-2.9,32.5c-5.4,16.6-65,8.6-79,9.3
			c-5.7,0.3-56-1.1-59.8,17.2l-40,161.2l-54.3-9.1c0,0,15-156.9,48-194.4c17.3-19.6,42.7-18.3,99.5-31l13.2-24L1289.9,524.9z"/>
		<g>
			<path class="st15" d="M1306.6,525.5c1.4,18.4,7.2,57-5.9,71.6c-19.4,21.8-67.1,9-81.1,9.7c-5.7,0.3-45.6,4.2-70.3,9.7
				c-2.1,37.5-28.7,173-28.7,173l-48.3-0.8c0,0,2.5-192,29.6-218.8c15.5-15.4,50.6-16.8,110.2-25.1l8.9-19.2L1306.6,525.5z"/>
			<path d="M1213.8,534c2.3,0.1,85.9-5,92.8-7.5c0.2-1.8,2.1-6.6,0.2-11.3c-7.7-0.6-87.3,6.1-90.2,6.8
				C1213,524.3,1212.1,532.5,1213.8,534z"/>
			<path class="st13" d="M1243.1,533.7l-5.2,0.5c0,0,0.4-8.5-0.6-13.4c0.9-0.4,3.6-0.5,5.3-0.4
				C1243.6,523.9,1243.5,528.8,1243.1,533.7z"/>
			<path class="st13" d="M1284.9,530.6l-5.2,0.5c0,0-0.4-9.8-1.3-14.8c0.9-0.4,3.6-0.5,5.3-0.4
				C1285.2,520.8,1284.9,530.6,1284.9,530.6z"/>
		</g>
		<path class="st21" d="M1108.2,616.3c11.4,6.7,28.6,14.7,39.2,19.4c1-7.7,1.7-14.3,2-19.2c5.5-1.2,11.8-2.4,18.4-3.4
			c-7.6-4-25.1-13.2-36.2-20.1c-14.6-9.1-29.6-23.1-29.6-23.1c-5.5,5.5-10,17.7-13.6,33.9C1093.5,607.2,1100.4,611.7,1108.2,616.3z"
			/>
		<g>
			<path class="st10" d="M1258.4,730.8c0,2.3-6.1,4.1-13.6,4.1c-7.5,0-13.6-1.8-13.6-4.1c0-2.3,6.1-4.1,13.6-4.1
				C1252.3,726.7,1258.4,728.5,1258.4,730.8z"/>
			<rect x="1235.4" y="659.4" class="st8" width="18.7" height="105.8"/>
			<rect x="1236.1" y="659.4" class="st9" width="4.5" height="105.8"/>
			<path class="st11" d="M1231.2,773.8c0,0,6.9,1.6,13.6,1.6c6.6,0,13.6-1.6,13.6-1.6v-43.5c0,0-4.5,2.7-13.6,2.7
				c-9.1,0-13.6-2.7-13.6-2.7V773.8z"/>
			<path class="st11" d="M1114.9,788.5c10.5-7.8,87.8-8,104.1-12.5c14.3-3.9,16.1-11.7,16.1-11.7h19.4c0,0,1.7,7.8,16.1,11.7
				c16.3,4.5,93.6,4.7,104.1,12.5c10.5,7.8,15.8,32.8,15.8,32.8l-10.3,2.6c0,0-5.9-15.6-18.5-24.9c-8.3-6.1-99.1,0.8-99.1,0.8
				l-10.7,31.3h-2h-5l0,0h-7l-10.7-31.3c0,0-90.9-6.8-99.1-0.8c-12.7,9.3-18.5,24.9-18.5,24.9l-10.3-2.6
				C1099.1,821.3,1104.4,796.3,1114.9,788.5z"/>
			<path class="st12" d="M1229.2,832.1c0,8.7,7,15.7,15.7,15.7c8.7,0,15.7-7,15.7-15.7c0-8.7-7-15.7-15.7-15.7
				C1236.2,816.3,1229.2,823.4,1229.2,832.1z"/>
			<path class="st12" d="M1370.2,832.1c0,8.7,7,15.7,15.7,15.7c8.7,0,15.7-7,15.7-15.7c0-8.7-7-15.7-15.7-15.7
				C1377.3,816.3,1370.2,823.4,1370.2,832.1z"/>
			<path class="st12" d="M1088.6,832.1c0,8.7,7,15.7,15.7,15.7c8.7,0,15.7-7,15.7-15.7c0-8.7-7-15.7-15.7-15.7
				C1095.6,816.3,1088.6,823.4,1088.6,832.1z"/>
			<polygon class="st13" points="1214.1,665.8 1275.8,665.5 1280.9,646.7 1208.6,646.6 			"/>
			<path class="st11" d="M1144.5,644.5c0,2.9,3.1,5.3,6.8,5.3h175c3.8,0,6.8-2.4,6.8-5.3l0,0c0-2.9-3.1-5.3-6.8-5.3h-175
				C1147.5,639.2,1144.5,641.5,1144.5,644.5L1144.5,644.5z"/>
			<path class="st11" d="M1383.1,427.5c1.9,1.6,3,6,2.5,14.7c-0.5,8.7-2.9,74-5.5,83c-2.9,71.7-19.9,92.6-30,105.5
				c-3.8,4.9-6.5,12.1-17.9,11.7c1.9-4.9,5.2-24,5.1-34.2c16.2-2.2,24.6-48.1,24.2-72.7c-0.4-19.2,9.5-111.9,9.5-111.9
				S1378.4,423.7,1383.1,427.5z"/>
			<path class="st13" d="M1365.5,545.9c-1.9,9-32.4,2.1-35.1-4.8c-7.2-18.2-4.9-32.3,0.9-57.8c4.6-20.3,12.4-93.6,13.5-102.9
				c2.5-21.4,5.2-23.5,13.3-23.5c8.1,0,21.4,2.6,22.9,10.2c1.6,7.6-5.7,72.6-9.4,98.1c-0.9,6-1.4,11.1-1.4,14.7
				C1370.2,498.6,1366.3,542,1365.5,545.9z"/>
			<path class="st13" d="M1134.8,636.5c0,3.5,3.6,6.3,8,6.3h186.6c4.4,0,8-2.8,8-6.3v-27.4c0-3.5-2-7.7-17.1-6.5
				c-18.8,1.5-34.6,4.9-89.8,3.4c-55.2-1.6-61.1-5.2-77.8-4.5c-13.6,0.6-18.1,4.2-18.1,7.7V636.5z"/>
		</g>
		<path class="st17" d="M578.9,360.4c0,0,82.6,24.8,115.5-11.8c0,0,8,198.5,8,203.2c0,0-132.4,7.1-151,1.2
			C551.4,553,545.2,390.5,578.9,360.4z"/>
		<path class="st20" d="M561.1,400c-13.3,58.2-9.7,153-9.7,153c18.7,5.9,151-1.2,151-1.2c0-3.2-3.6-92.6-5.9-151.8H561.1z"/>
		<path class="st20" d="M556.2,427.7c-7.5,56.4-4.8,125.3-4.8,125.3c18.7,5.9,151-1.2,151-1.2c0-2.7-2.6-68.2-4.8-124.1H556.2z"/>
		<path class="st17" d="M722.9,245.1c-6-12-38.6-23.3-38.6-23.3l-6,13.3l-4.7,22c-11.3,6.7-30.7,32.7-30.7,32.7l-4-10.7
			c-1.3-8-14-11.3-14-11.3c-1.3-4.7,2.9-38.9,2.9-38.9c-15.8-22.9-59.5,18.9-59.5,18.9c-19.3,45.3-12.7,125.9-12.7,125.9
			c-5.3,22,9.3,55.3,9.3,55.3l29.3-6c-4-10,0.7-57.3,0.7-57.3c62.6,12.7,93.3-6.7,93.3-6.7c-1,11.8-1.6,32.6-1.9,42.8h5V415h-4.5
			l1.3,13.3h27.3l0.7-3.3C736.2,357.7,722.9,245.1,722.9,245.1z"/>
		<path class="st17" d="M624.6,228.5c0,0-3.9,39.2-5.4,44.1c0,0,7.7,20.1,21.7,31.4c0,0,38.2-33.2,35.1-57.9L624.6,228.5z"/>
		<path class="st24" d="M659.6,278.7c7.6-7.6,17.9-21,16.4-32.6l4.8-25.3l-51.9,9.2C632.2,245.9,644.7,268.1,659.6,278.7z"/>
		<path class="st21" d="M592.9,382.7c0,0,28.9,6.7,58.9,6.1s36.4-2,36.4-2l-0.4,17.7c0,0-17.9,2.1-43.2,1.7
			c-25.3-0.5-50.5-4.3-50.5-4.3L592.9,382.7z"/>
		<path class="st21" d="M592.9,342.4c0,0,28.9,6.7,58.9,6.1c30-0.7,36.4-2,36.4-2l-0.4,17.7c0,0-17.9,2.1-43.2,1.7
			c-25.3-0.5-50.5-4.3-50.5-4.3L592.9,342.4z"/>
		<path class="st25" d="M596.2,416.6l-4.8-106.5c0,0,3.7,20.4,19.1,29.4s26.4,9.9,26.4,9.9s-14.4,5.7-24.3,6.2
			c-9.9,0.5-7,56-2.2,76.7c4.8,20.7,10.7,29.7,10.7,29.7l-26,2.4L596.2,416.6z"/>
		<path class="st26" d="M568.3,464l3.6-2.9c8.7-5.6,27.7-9.4,27.7-9.4c-3.3-1.3-5.3-28.7-5.3-28.7l-29.3,6L568.3,464z"/>
		<path class="st20" d="M708.9,459.7l6.6-31.3h-25.9h-3.3l-2,30.7C690.9,461.7,708.9,459.7,708.9,459.7z"/>
		<g>
			<path class="st14" d="M636.2,742.4c-1.7-35.4,26.6-195.7,26.6-195.7c-26.9-26.9-47.8,3-47.8,3l-10.4,32.8
				c-23.5,44.6-10.7,134.5-5.4,157.5L636.2,742.4z"/>
			<path class="st15" d="M619.4,744.3c-1-19.4-13-147.9-7.7-170.7c0,0,9.1-24,3-41.1c0,0-32.7-34.5-49.8-10.5
				c0,0-10.4,109.7,6.3,222.3H619.4z"/>
		</g>
		<path class="st17" d="M839.6,316.4c0,0-22.7,4.6-30,12.9c-8.2,9.5-10.8,45.8-10.8,45.8s-17.3,42.6-45.3,55.3
			c0,0,26.7,4.7,12.7,36.6c0,0,24-5.3,56.6-41.3l2,39.3c0,0,108.6,6,115.3-0.7c6.7-6.7,12-84,12-84s-13.3-39.3,9.3-60.6
			c0,0-18.2-8.4-35.8-15.3c-14.7-5.8-29.2-10.2-30.1-12C895.4,292.4,866.2,338.4,839.6,316.4z"/>
		<g>
			<path class="st21" d="M822.8,414.4c0,0,14.9,2,45.5,2.1c30.6,0.1,81.2-7.2,81.2-7.2l-1.2,12.4c0,0-38.5,11.3-79.1,10.4
				c-40.5-0.9-46.2-1.8-46.2-1.8L822.8,414.4z"/>
			<path class="st21" d="M824.1,450.9c0,0,35.8,3.9,68.7,2.3c32.9-1.6,52.7-8.9,52.7-8.9l-3.7,16.9L824.5,459L824.1,450.9z"/>
		</g>
		<path class="st27" d="M951.8,384.7v-27.2c0,0-7.1,46.1-18.4,61.5c-11.2,15.4-50.9,41.1-50.9,41.1l30.7,1.1l34.3-31.7
			C947.5,429.5,949.7,409.4,951.8,384.7z"/>
		<path class="st17" d="M951.5,315.3c2.1,0.8,12.8,4.6,14.6,5.5c6.8,3.3,12.2,10.1,20.7,45c0,0,28.9,48.1,20.6,61.2
			c-20.2,31.9-60.6,36-60.6,36s-4.7-15.4-24-18.3c22-17.6,41.9-18.8,44.7-31c-8-14-20-36.8-20-36.8S913.2,334.2,951.5,315.3z"/>
		<path class="st19" d="M889.5,287.1c-23.6,34.8-41.5,26.5-41.5,26.5s4.1,7.9,4.8,17.3h11.4v2.1c11.9-4.5,26.4-15.2,31.2-40.6
			C895.4,292.4,892,291.3,889.5,287.1z"/>
		<path class="st28" d="M855.9,350.4c0,0-8.9-20.7-10.8-21.8c-1.9-1.1-7.6,0-7.6,0s-0.9-12.1,0-15.3c0.9-3.1,14.5,8.8,14.5,8.8
			L855.9,350.4z"/>
		<path class="st29" d="M895.4,292.4"/>
		<path class="st15" d="M843.1,568.6c0,0-7.3,17.9-10.1,43.9c-2.8,26-3.7,165.9-3.7,165.9s45.3,4,56.7,0c0,0,9-128.7,6.8-162.2
			c4.9-21.3,16.8-47.6,16.8-47.6H843.1z"/>
		<path class="st15" d="M767.7,573.4c0,0-12.4,13.3-15,43.8l8.8,157.8c0,0,45.3,7.3,56.6,3.3c0,0-0.9-120.7-5.8-158.8
			c13-23.9,21.2-44.7,21.2-44.7L767.7,573.4z"/>
		<path class="st16" d="M893,644c0.2-11.7,0.2-21.5-0.2-27.8c0.4-1.6,0.8-3.2,1.2-4.8h-60.9c0,0.4-0.1,0.7-0.1,1.1
			c-0.6,5.8-1.2,17.2-1.6,31.5H893z"/>
		<path class="st16" d="M814.4,644c-0.6-9.8-1.3-18.2-2.1-24.4c1.5-2.8,2.9-5.5,4.3-8.1h-63.3c-0.3,1.9-0.5,3.8-0.6,5.8l1.5,26.7
			H814.4z"/>
		<g>
			<g>
				<path class="st3" d="M497.8,797.6c-0.2,0.6-2,19.4,0.4,24c2.4,4.6,9.4,5.3,21.2,7c11.8,1.7,9.9,1.7,29.4,6.5
					c19.5,4.8,31.7,2,38.4-0.6c6.7-2.6,7.7-6.2,7.7-6.2s0.5-11.6-4.9-17c-5.4-5.4-7.9-4.7-21.6-7c-13.7-2.3-35.2-19.4-35.2-19.4
					l-32.7,4.6L497.8,797.6z"/>
				<path class="st3" d="M550.8,826.3c-16.5-5.2-23.5-6.2-33.6-6.2c-6.2,0-14.3-2.8-20.1-5c0.1,2.8,0.5,5.3,1.1,6.6
					c2.4,4.6,9.4,5.3,21.2,7c11.8,1.7,9.9,1.7,29.4,6.5c19.5,4.8,31.7,2,38.4-0.6c6.7-2.6,7.7-6.2,7.7-6.2s0.1-3.5-0.6-7.6
					C585.2,827.2,565.4,830.9,550.8,826.3z"/>
				<g>
					<path class="st3" d="M569.8,820.9c-0.9,4,0.1,7.2,0.1,7.2s4.8-0.5,12.5-2.2c7.6-1.6,11.9-5.3,11.9-5.3c-0.6-3.3-1.9-7-4.3-9.4
						c-2.3-2.3-4-3.5-6.3-4.3C579,810.8,570.4,818,569.8,820.9z"/>
					<path class="st3" d="M573,833.3c-15.2,1.1-26.4-4-38.7-5.5c-12.1-1.5-23.2-0.4-23.4-0.4c2.5,0.4,5.3,0.8,8.4,1.3
						c11.8,1.7,9.9,1.7,29.4,6.5c19.5,4.8,31.7,2,38.4-0.6c6.7-2.6,7.7-6.2,7.7-6.2s0-0.6,0-1.7C590.4,829.1,582.6,832.6,573,833.3z
						"/>
				</g>
			</g>
			<polygon class="st3" points="533.2,794.7 538.2,794.4 536.2,759.8 494.1,762.1 497.8,797.6 			"/>
		</g>
		<g>
			<g>
				<path class="st3" d="M443.9,803.1c-0.2,0.6-2,19.4,0.4,24c2.4,4.6,9.4,5.3,21.2,7s9.9,1.7,29.4,6.5s31.7,2,38.4-0.6
					c6.7-2.6,7.7-6.2,7.7-6.2s0.5-11.6-4.9-17c-5.4-5.4-7.9-4.7-21.6-7c-13.7-2.3-35.2-19.4-35.2-19.4l-32.7,4.6L443.9,803.1z"/>
				<path class="st3" d="M496.9,831.8c-16.5-5.2-23.5-6.2-33.6-6.2c-6.2,0-14.3-2.8-20.1-5c0.1,2.8,0.5,5.3,1.1,6.6
					c2.4,4.6,9.4,5.3,21.2,7c11.8,1.7,9.9,1.7,29.4,6.5s31.7,2,38.4-0.6c6.7-2.6,7.7-6.2,7.7-6.2s0.1-3.5-0.6-7.6
					C531.3,832.8,511.5,836.4,496.9,831.8z"/>
				<g>
					<path class="st3" d="M515.9,826.5c-0.9,4,0.1,7.2,0.1,7.2s4.8-0.5,12.5-2.2c7.6-1.6,11.9-5.3,11.9-5.3c-0.6-3.3-1.9-7-4.3-9.4
						c-2.3-2.3-4-3.5-6.3-4.3C525.1,816.4,516.5,823.6,515.9,826.5z"/>
					<path class="st3" d="M519.1,838.9c-15.2,1.1-26.4-4-38.7-5.5c-12.1-1.5-23.2-0.4-23.4-0.4c2.5,0.4,5.3,0.8,8.4,1.3
						c11.8,1.7,9.9,1.7,29.4,6.5s31.7,2,38.4-0.6c6.7-2.6,7.7-6.2,7.7-6.2s0-0.6,0-1.7C536.5,834.7,528.7,838.2,519.1,838.9z"/>
				</g>
			</g>
			<polygon class="st3" points="479.3,800.2 484.3,800 482.3,765.4 440.2,767.7 443.9,803.1 			"/>
		</g>
		<g>
			<g>
				<polygon class="st7" points="1036.8,859.3 1021.4,859.3 1014.7,550.9 1043.5,550.9 				"/>
				<polygon class="st8" points="1032.6,859.3 1017.2,859.3 1010.5,550.9 1039.3,550.9 				"/>
				<polygon class="st9" points="1022.5,858.3 1017.3,858.3 1014.2,551.1 1023,551.1 				"/>
			</g>
			<g>
				<polygon class="st7" points="533.4,859.3 518,859.3 511.3,550.9 540.1,550.9 				"/>
				<polygon class="st8" points="529.1,859.3 513.7,859.3 507,550.9 535.8,550.9 				"/>
				<polygon class="st9" points="519,858.3 513.8,858.3 510.8,551.1 519.6,551.1 				"/>
			</g>
		</g>
		<g>
			<path class="st30" d="M1191.3,507.1c-36-22-208.6-36.5-416.2-36.5c-208.7,0-382.1,14.3-416.8,36.5v21.5
				c34.7,23.8,208.1,50.6,416.8,50.6c207.6,0,380.3-26.5,416.2-50.2V507.1z"/>
			<path class="st31" d="M1191.3,504.7c0,23.6-186.5,55-416.5,55c-230,0-416.5-31.4-416.5-55c0-23.6,186.5-46.3,416.5-46.3
				C1004.8,458.4,1191.3,481.1,1191.3,504.7z"/>
		</g>
		<path class="st28" d="M753.5,430.4c0,0-8,1.6-12.4,4.7c0,0,32.4-3.6,25.1,32C766.2,467,781.1,437.7,753.5,430.4z"/>
		<path class="st21" d="M375.4,454.5c0,0,23.5,2,41.9,1.1c18.4-0.9,28-3,28-3s-3.2,11.5-4.5,14.8c0,0-14.7,4.2-35.7,3.3
			c-21-0.9-26.1-2.4-26.1-2.4L375.4,454.5z"/>
		<path class="st32" d="M568.3,459c0.7-1.1,2-2.2,3.6-3.3l-3.8,1.3L568.3,459z"/>
		<path class="st33" d="M599.6,451.7c0,0-19,3.8-27.7,9.4L599.6,451.7z"/>
		<path class="st34" d="M950.8,580.3"/>
		<path class="st35" d="M996.6,460.5l14.3-1.4l-1.4,2.9c0.4,0,0.7,0.1,1.1,0.1c0,0,5.7-3.8-0.1-10.7c0,0-8.9-1.6-13.6,3.4
			c0,0-2.7,6.3-6.1,11C993.1,462.9,996.6,460.5,996.6,460.5z"/>
		<path class="st33" d="M990.5,479.2c0.1-0.1,0.2-0.2,0.3-0.4C990.7,479,990.6,479.1,990.5,479.2z"/>
		<g>
			<path class="st36" d="M599.6,451.7c0,0,15.3,10.4,9.6,18.4c0,0-0.4,9.3-7.1,5.3c0,0-4.4,4-8-0.9c0,0-5.8,4.4-8.4-0.4
				c0,0-4.9,5.8-8,0.9c0,0-12.3-6.1-8.3-13.7C569.3,461.3,579.9,451.3,599.6,451.7z"/>
			<path class="st36" d="M684.2,459c0,0-16.8,4.1-8.3,18.3c0,0,5.7,1.7,5.7-8.5c0,0,0.3,1.2,3.1,6.7c0,0,12.9,11.2,23.1-1.3
				c0,0,4.9,6.2,5.3-4c0,0-1.3-5.8-5.8-10.7L684.2,459z"/>
		</g>
		<g>
			<polygon class="st37" points="574,504.4 527.3,504.4 532.1,492.1 578.7,492.1 			"/>
			<polygon class="st26" points="532.9,502.7 536.4,493.5 576.4,493.5 572.9,502.7 			"/>
			<path class="st26" d="M533.5,498.1c0,0.6-0.6,1.2-1.4,1.2c-0.8,0-1.4-0.5-1.4-1.2c0-0.6,0.6-1.2,1.4-1.2
				C532.9,496.9,533.5,497.5,533.5,498.1z"/>
		</g>
		<path class="st33" d="M758.2,450.9c0,0,0.4,16.6,4.2,18.1l2.9-2.4L758.2,450.9z"/>
		<g>
			<path class="st38" d="M901.5,495.9c0,0.1,0,0.2,0.1,0.3l0-0.6C901.5,495.7,901.5,495.8,901.5,495.9z"/>
			<path class="st38" d="M924.8,495.8c0,0.1,0,0.2,0,0.3c0-0.1,0-0.1,0-0.2C924.8,495.9,924.8,495.8,924.8,495.8z"/>
		</g>
		<g>
			<path class="st38" d="M522.8,460.5c0,0.1,0,0.2,0,0.3c0-0.1,0-0.1,0-0.2C522.9,460.6,522.8,460.6,522.8,460.5z"/>
		</g>
		<path class="st39" d="M367.1,479.4c-1.9,0.8-3.8,1.7-5.7,2.7C363.1,481.2,365.1,480.4,367.1,479.4z"/>
		<g>
			<path class="st5" d="M1038.9,452c0,0-15.4,5.9-15.1,11.5c0,0,0.3,2.3,3.7,2.1c0,0-3,5.3,2.1,6c0,0-0.8,5.2,4.4,3.8l11.4-4.4
				l4.9-12.1C1050.3,458.8,1042.9,450.7,1038.9,452z"/>
			<path class="st4" d="M1067.5,455.8c-2.1,0.6-22.1-18-22.1-18c-3.1-2.6-11.2,3.4-13.6,5c-2.4,1.5-4.6,3.2-6.9,4.9
				c-2.6,1.9-2.8,3.3-3.7,6.3c-0.5,1.8-1,3.5-1.6,5.3c-0.7,2.3-1.4,4.5-2.1,6.8c-2.5,6,1.6,7.2,1.6,7.2c1.6-0.7,3.3-2.5,4.8-4.6
				c0.1-0.1,0.2-0.3,0.3-0.4c3.3-4.8,5.9-11.2,5.9-11.2c4.5-5,13.1-3.5,13.1-3.5c5.6,7,0.1,10.9,0.1,10.9c-0.4-0.1-0.7-0.1-1.1-0.1
				l-6.4,8.2c2.2,0.2,7,1.3,7.9,1.3c17,9.4,28.3-3.8,28.3-3.8l1.9-12.7L1067.5,455.8z"/>
			<path class="st4" d="M1025.1,472.3c3.7,0.4,4.3-0.2,7.8,0.4c3.4,0.6,5.3,0.5,7.2,0.6l2.9-8.8
				C1019.8,462.7,1025.1,472.3,1025.1,472.3z"/>
		</g>
		<path class="st28" d="M1211.4,359.2l-12.6,14.3c0,0-40.2,55.7-48.7,61.7c-9.7-0.5-78.9,20.8-78.9,20.8l-3.3,29.1
			c15.2,1.9,101-1.5,111.8-11.1c5.2-4.6,61.5-60,60.2-65.3C1239.9,408.7,1211.4,359.2,1211.4,359.2z"/>
		<path class="st28" d="M1151,434.5c-0.3,0.3-0.7,0.5-0.9,0.7c-9.7-0.5-78.9,20.8-78.9,20.8l-3.3,29.1c10.4,1.3,53.3,0.1,83.1-3.8
			V434.5z"/>
		<path class="st16" d="M1142.2,436.4l6.5,31.9c0,0,13-1.6,13.7-2.5c0.7-0.9,9-12,9-12l-17.7-21.7
			C1153.6,432,1150.1,435.2,1142.2,436.4z"/>
		<path class="st4" d="M1085.6,487.3c0,0-24.9-6.3-33.7-1.9c0,0-27.7,16-26.8,32.5l42.6-3.4c0,0,16.9,1.4,20.6-4.4L1085.6,487.3z"/>
		<g>
			<g>
				<g>
					<path class="st17" d="M1164.6,455.6c8.5-19,33.5-78,46.8-96.4c0.1-3.9,8.3-7.1,8.3-7.1s20.7-6.6,36.8-22.4
						c27.8,18.3,34.9,42.2,39.6,59.1c7.9,28.7,11.6,64.7,13,95c0.8,17.2,9.7,30.4-2.2,31.3c-1.8,0.1-14.1,0.9-17.8,1.1
						c-11.1,0.6-50.4,4.2-69.7,8c-7.6,3.5-10.2-0.8-6.4-17.8c2.5-11.1,2.4-21.7,0.7-42.8c-0.5-6.6-0.5-10.7-0.7-10.3
						c-4.6,11.1-22.5,32.2-28.1,35.7c-17.4,11-74.7,20-97.2,24.5c-1.9-9.5-5.8-29.9-5.8-29.9S1138.9,468.1,1164.6,455.6z"/>
					<path class="st20" d="M1308.5,474.9l-93.2,14.1c0.8,14.1-0.3,8.6-2.3,17.6c-3.9,17-1.2,21.3,6.4,17.8c19.3-3.9,58.6-7.4,69.7-8
						c3.6-0.2,16-1,17.8-1.1c11.9-0.9,3.1-14.1,2.2-31.3C1308.9,480.9,1308.7,477.9,1308.5,474.9z"/>
					<path class="st20" d="M1158.5,458.4c-27.6,11.9-76.6,25.5-76.6,25.5s3.9,20.4,5.8,29.9c22.5-4.6,79.7-13.6,97.2-24.5
						c2.9-1.8,9.3-8.5,15.3-16.1l-19.8-4.4L1158.5,458.4z"/>
					<path class="st28" d="M1209.4,362.3c12.2-1.5,36.2-13.3,49-31.2c-0.1-2.2-9.3-11.4-11.9-11.6c0,0,0.5,10.4-13.7,20
						c-7.9,5.3-9.3,5-19,8.1C1214.6,350.7,1209.9,358.8,1209.4,362.3z"/>
				</g>
			</g>
		</g>
		<g>
			<path class="st28" d="M920.1,444.4c0,0,24,1.3,26.7,19.3C946.8,463.7,938.1,452.7,920.1,444.4z"/>
			<g>
				<path class="st40" d="M896.1,466.6c0,0,4-17.5,24-22.2c0,0,25.3,6,26.7,19.3C947.6,472.5,886.8,482.3,896.1,466.6z"/>
				<g>
					<path class="st40" d="M741.1,435c0,0-17.3,11.5-18.2,19.1c0,0-0.9,15.1,3.6,15.1c0,0,5.8,0.9,9.8-0.9c0,0,10.2,3.1,13.3,0
						c0,0,4.9,4,8.4,0.4c0,0,6.2,2.7,8.9-3.6C766.8,465.2,774.4,430.6,741.1,435z"/>
					<path class="st41" d="M750.9,447.5c0,0,1.6,14.2,5.8,16c-1.2-0.5,0-8.8,0.4-9.8c1.2-3,2.3-5.3,1.1-8.6
						C758.2,445,756,451.7,750.9,447.5z"/>
				</g>
			</g>
		</g>
		<path class="st17" d="M470.5,433.5c-4.3-12.5-11.7-41.8-16.8-60.5c-14.9,4.3-17.6,27.9-14.6,41.6c1.6,6.5,9.7,13,9.7,19.5
			c2.1,20.2-14.6,30-32.8,36.6c-4.3,3.5-9,5.6-9,12c0,21.8,12,29.3,12,29.3l14.7,1.5c0,0,33.1-29.4,39.4-40.3
			C479.6,462.3,476.4,450.9,470.5,433.5z"/>
		<path class="st21" d="M443.4,459.8l2.8-11.4c0,0,10.5-3.1,16.8-3.6c6.4-0.5,11,0,11,0l2.1,9.4l-15,6.4L443.4,459.8z"/>
		<path class="st20" d="M476.3,454.2c0,0-11.3-0.6-15,0c-4.6,0.7-17.8,5.6-17.8,5.6c-2.1,2.2-1.3,3.3-4,10.9l-8.6,18.8l-23.6-3.8
			c1,19.4,11.9,26.3,11.9,26.3l14.7,1.5c0,0,33.1-29.4,39.4-40.3C476.5,467.7,477,460.6,476.3,454.2z"/>
		<path class="st25" d="M441.5,387.7c0,0-7,11.6-1.6,24c2.7,6.3,4,17.8,6.1,24.2c5.9,18-20.4,62.5-20.4,62.5
			c9.1,3.1,14.7-20.6,21.2-28.7c3.2-4,7.5-7.4,22.2-4.3c-9.1-6.6-17.6-2-17.2-2.4c3.2-3.6,8.5-7.4,18.4-7c-2.2-2.5-12-2.8-17.9,1.9
			c5.3-21.9-7-35.4-10.2-44.7C438.7,403.6,441.5,387.7,441.5,387.7z"/>
		<g>
			<path class="st40" d="M427.8,485c0,0,35.9,6.8,43.9,4.6c5.3-2.4,16.7-6.1,22.1-4c0,0,22,10.6,22.7,23.4
				c-1.1,2.8-11.5-0.3-20.6-1.2c-5.2-0.5-10.2,1.6-12.5,1.2c-7.4-1.2-5.4-3.9-9.8-3.6c-13.3,0.7-48.2,6.2-50.6,3L427.8,485z"/>
			<path class="st20" d="M427.8,485c-8.2,2.4-4.9,23.4-4.9,23.4c0.9,1.2,7,2.3,14.5,1.8c-0.1-8.8,2.9-16.3,6.8-22.4
				C438.5,485,436.1,482.6,427.8,485z"/>
			<path class="st25" d="M427.2,499.1c0.1-7.4,11.4-10.3,14.2-12.7c-7.9-4-53.7-7.6-59.2-11.4c-5.5-3.8-9.7-55.5-9.7-55.5
				s-3.1-31.1-15.6-41.6c-4.5-3.8-8.6-5.7-12.3-6.2V411h-21.4v30.3c1,13.1,5,47.6,22,65.2c10.6,10.9,83.7,7.7,90.3,3.7
				C434.4,507.5,427.2,504.4,427.2,499.1z"/>
			<path class="st17" d="M356.9,377.4c-4.5-3.8-8.6-5.6-12.4-6c0,0-13.6,6.9-17.5,13.5c-3.9,6.7-3.9,26.1-3.9,26.1v16.5
				c1.1,4,2,6.5,2,6.5s5.5,58.7,19.9,68.4c12.6,8.5,83.6,12.6,90.1,8.6c0.3-3.3-3.6-6.8-3.5-12.2c0.1-7.4,7-10.1,9.8-12.4
				c-13.5-12.6-53.7-7.6-59.2-11.4c-5.5-3.8-13.2-55.5-13.2-55.5L356.9,377.4z"/>
			<path class="st25" d="M345.2,480.4c9.7-1.6,17.8-3.2,27.6-3.2c-1.6,1.6-10,6.8-8.5,17.8c1.6-10,13.5-18.1,18.9-19.5
				c-0.4-0.1-0.7-0.3-1-0.5c-0.5-0.4-1-1.1-1.6-2.2C368.3,471.3,356.2,473.5,345.2,480.4z"/>
		</g>
		<g>
			<g>
				<polygon class="st42" points="599.2,507.1 527.7,496.8 451.6,522.1 452.6,527.3 520,536.6 557.7,517.3 				"/>
				<g>
					<g>
						<polygon class="st43" points="505.5,511.8 498.3,510.8 502,509.4 509,510.4 						"/>
						<polygon class="st43" points="521,507.6 529.4,508.8 524.7,510.7 516.4,509.5 						"/>
						<polygon class="st43" points="499.2,514.4 491.4,513.3 494.4,512.2 501.9,513.2 						"/>
						<polygon class="st43" points="491.9,517.3 483.6,516.1 487.6,514.7 495.6,515.8 						"/>
						<polygon class="st43" points="505.8,508 510.8,506.2 517.2,507.1 512.5,508.9 						"/>
						<polygon class="st43" points="488.3,518.7 483.8,520.6 474.9,519.3 479.8,517.5 						"/>
						<polygon class="st43" points="512.8,510.9 521.1,512.1 517.6,513.5 509.3,512.3 						"/>
						<polygon class="st43" points="500.2,520.4 495.6,522.3 487.6,521.1 492.2,519.3 						"/>
						<polygon class="st43" points="505.8,513.8 514,515 511.2,516.1 503,514.9 						"/>
						<polygon class="st43" points="499.4,516.4 507.6,517.5 503.9,519 495.8,517.8 						"/>
					</g>
					<g>
						<polygon class="st43" points="528.6,515.8 521.3,514.8 525,513.4 532,514.4 						"/>
						<polygon class="st43" points="544.1,511.6 552.5,512.8 547.8,514.7 539.5,513.5 						"/>
						<polygon class="st43" points="522.2,518.3 514.5,517.3 517.5,516.2 525,517.2 						"/>
						<polygon class="st43" points="515,521.3 506.7,520.1 510.6,518.7 518.6,519.8 						"/>
						<polygon class="st43" points="528.9,512 533.9,510.2 540.2,511.1 535.6,512.9 						"/>
						<polygon class="st43" points="511.4,522.7 506.9,524.6 498,523.3 502.9,521.5 						"/>
						<polygon class="st43" points="535.9,514.9 544.2,516.1 540.7,517.5 532.4,516.3 						"/>
						<polygon class="st43" points="523.3,524.4 518.7,526.3 510.7,525.1 515.2,523.3 						"/>
						<polygon class="st43" points="528.8,517.8 537,518.9 534.3,520.1 526.1,518.9 						"/>
						<polygon class="st43" points="522.5,520.3 530.6,521.5 526.9,523 518.8,521.8 						"/>
					</g>
				</g>
				<path class="st43" d="M517,541.5c0,0-64.8-9.8-65.8-10.4c-1-0.6-0.5-8.8,0.5-9c1-0.2,68.7,9.6,68.7,9.6L517,541.5z"/>
				<path class="st44" d="M616.9,410.6c1.6-0.3,3.1,1,2.9,2.6c-1.9,17.6-10.7,99.8-12.6,99.6c-2.2-0.2-90.2,28.7-90.2,28.7
					l6.2-109.3c0.1-1.1,0.8-2,1.9-2.2L616.9,410.6z"/>
			</g>
			<polygon class="st45" points="510.5,537.1 501.8,536.2 501.9,534.4 511.1,535.3 			"/>
			<polygon class="st45" points="492.8,532.9 487.5,532.2 487.4,534.3 492.7,535 			"/>
			<path class="st2" d="M570.7,465.3c-0.3,6,2.2,11,5.7,11.2c3.5,0.2,6.5-4.5,6.9-10.5c0.3-6-2.2-11-5.7-11.2
				C574.1,454.6,571,459.3,570.7,465.3z"/>
		</g>
		<path class="st21" d="M1301.5,413.5c0,0-15,8.2-41.2,18.5c-26.2,10.3-42.7,13.3-42.7,13.3l-4.6,8.2l0.7,10.3
			c0,0,28.6-8.7,51.3-15.6c22.7-6.9,39.8-13.2,39.8-13.2L1301.5,413.5z"/>
		<path class="st21" d="M1307.7,463.8c0,0-14.7,6.1-41.1,12.1c-26.4,6-51.7,6.6-51.7,6.6s0.2,9.1-0.2,12.9c0,0,30.8-1.6,58.2-6.3
			c27.4-4.7,36.2-7.9,36.2-7.9L1307.7,463.8z"/>
		<path class="st46" d="M1213,453.5l20.9-37.1c0,0-8.4,20.3-10.4,37.3c-2,17-8.8,23.6-8.8,23.6L1213,453.5z"/>
		<path class="st21" d="M1164.6,455.6c0,0,22.9,11.2,36.4,16.4c0,0-8.5,19.1-26.5,22l-22.6-32.9L1164.6,455.6z"/>
		<path class="st31" d="M852.3,326.6l8.9,58.1l23.2-66.5C884.4,318.2,871.7,332.3,852.3,326.6z"/>
		<path class="st28" d="M874.7,346.1c0,0,15.7-27.1,17.4-27.9c1.7-0.8,12.1-1.5,12.1-1.5s2.3-16.2,1.4-19.8
			c-0.9-3.6-16.7-9.3-16.7-9.3l5.6,7.6c0,0-5.1,12.1-8.1,17.7C883.3,318.6,874.7,346.1,874.7,346.1z"/>
		<path class="st21" d="M787.2,397c0,0,15.8,7.1,22.3,15c6.6,7.8,7.6,19.7,7.6,19.7l-7.6,7.5l-31.4-29.3L787.2,397z"/>
		<polygon class="st27" points="861.2,384.7 858.8,460 861.2,460 863.5,378 		"/>
		<path class="st20" d="M967.5,413.5c-2.8,12.2-22.7,13.4-44.7,31c19.3,2.9,24,18.3,24,18.3s40.4-4,60.6-36
			C983,411,967.5,413.5,967.5,413.5z"/>
		<path class="st21" d="M967.5,413.5l-6.1-10.9c0,0,13.3-1.8,28.6,0c15.4,1.8,16.4,5.1,16.4,5.1s5.7,13,0.9,19.3
			C1007.4,426.9,990,414.3,967.5,413.5z"/>
		<path class="st20" d="M809.6,439.1c-9.7-19.7-26.6-27.4-31.4-29.3c-6.8,8.4-15.1,16.2-24.6,20.5c0,0,26.7,4.7,12.7,36.6
			C766.2,467,783.9,463.1,809.6,439.1z"/>
		<path class="st25" d="M822.8,425.7V380c0,0-3.2,32.4-14.6,48.4c-11.3,16-15.8,24.9-15.8,24.9S812.2,438.2,822.8,425.7z"/>
		<path class="st47" d="M637,251.1c0,0,10.1,9.3,23.3,7.7c13.3-1.7,15.9-7.7,15.9-7.7s-6.7,29-10.5,44.7c-3.8,15.7-5,24.6-5,24.6
			L637,251.1z"/>
		<path class="st28" d="M672.6,266.2c0,0,6.5-13.8,8.1-15.1c1.6-1.3,7.5-1.4,7.5-1.4s4.4-15.9,2.9-23.4
			c-1.4-7.6-15.9-11.7-15.9-11.7s-3.6,17.4-2.6,19c1,1.7,3.5,17.5,3.5,17.5L672.6,266.2z"/>
		<path class="st28" d="M643.8,271.1c0,0-10.7-13.4-11.4-13.6c-0.7-0.2-11,0.9-11,0.9s-3.3-27.3-1-33.5c2.3-6.1,16.6-6.4,16.6-6.4
			l-6.2,15.1L643.8,271.1z"/>
		<g>
			<path class="st36" d="M682,183.6c0,0,12.4,58.6-18.7,69.3c0,0-20.4,1.8-35.5-24c0,0-15.1-8.9-5.3-19.5
				C622.5,209.4,635.8,159.6,682,183.6z"/>
			<path class="st48" d="M684.2,200.5c0,0,3.3-12,0-18.7c0,0,5.3-4.7-2.7-12c0,0-9.3-26.7-50-18.7c0,0-24.7,8.7-21.3,45.3
				c0,0-14,26.7,17.5,32.4c0,0-10.2-10.4-2.2-12.4c0,0,12-3.3,14-13.3c0,0,0-12.7,26-10c0,0,10.7-2,14-8
				C679.6,185.1,683.6,189.8,684.2,200.5z"/>
			<g>
				<path class="st49" d="M662.6,220.9c0.9-1.4,5.6,13.2,4.9,14.7c-0.7,1.5-10,2.1-10.7,0.4c-0.7-1.7,6.4-1.3,6.9-2.4
					C664.3,232.5,661.7,222.3,662.6,220.9z"/>
				<path class="st48" d="M672.6,218.7c0.2,2.1,1.6,3.8,3.3,3.7s2.9-2,2.7-4.1c-0.2-2.1-1.6-3.8-3.3-3.7S672.4,216.6,672.6,218.7z"
					/>
				<path class="st48" d="M647.3,222c0.3,2.1,1.9,3.7,3.5,3.4c1.6-0.2,2.7-2.2,2.4-4.3c-0.3-2.1-1.9-3.7-3.5-3.4
					C648.1,217.9,647,219.9,647.3,222z"/>
				<path class="st48" d="M654.2,209c0,0,1.1,2-1.5,3.1c-2.6,1.1-5.9,0.8-9.7,2c-3.8,1.1-4.6,1.4-4.6,1.4s1.3-2.6,3.3-4.5
					C643.8,209.1,652.5,207.1,654.2,209z"/>
				<path class="st48" d="M668,208c0,0-0.7,2.1,2,2.7c2.8,0.6,5.9-0.3,9.9,0.1s3.2,0.3,3.2,0.3s-0.3-2.2-2.6-3.6
					C678.2,206.1,669.3,205.8,668,208z"/>
				<path class="st2" d="M655.1,242c0,0,4-0.1,9-0.6c5-0.5,6.1-0.8,6.4-0.6c0.3,0.2-2.4,5.4-7.7,5.9
					C657.5,247.2,655.3,242.7,655.1,242z"/>
			</g>
		</g>
		<polygon class="st21" points="336.2,488.4 331.9,474.3 376.5,459.5 380.7,472.8 		"/>
		<path class="st20" d="M715.5,428.4c0,0,10.1-32,10.9-70.8l-38.2,1.5l-2.3,79l10.3,6.3L715.5,428.4z"/>
		<path class="st20" d="M594,357.5l-39.2,1.9c0,0-4.8,33.4,7.4,62.6l33.9-7.2L594,357.5z"/>
		<polygon class="st21" points="727.2,342.4 688.8,343.7 688.2,359.1 726.4,357.5 		"/>
		<path class="st25" d="M688.2,359.1c0,0-0.6-16.9,3.9-38.7s10.4-44.1,10.4-44.1s-5.8,77.4-7.1,103.7c-1.3,26.4-9.4,45.2-9.4,45.2
			L688.2,359.1z"/>
		<path class="st31" d="M380.3,368c0,0,20,37.8,23.9,50.1c3.9,12.3,3.9,12.3,3.9,12.3s-0.7-40.2,2.9-52.9L380.3,368z"/>
		<polygon class="st21" points="594,357.5 592.9,342.4 554.5,345.1 554.8,359.5 		"/>
		<path class="st25" d="M660.6,320.4c0,0,0.6,48.2,0,63.6c-0.6,15.4,0,22.3,0,22.3l-2.3,53.7l-2.6,0.4l2.6-76.1v-70.6L660.6,320.4z"
			/>
		<path class="st19" d="M382.4,354.5l-2.1,13.5c0,0,6.1,14.7,18,15.6c11.9,0.9,12.7-6.1,12.7-6.1s-1.2-7.7-1.5-8.3
			c-0.4-0.6-20-11.6-20-11.6l-4-8.2L382.4,354.5z"/>
		<path class="st28" d="M396,399.1c0,0-12.7-14.9-13.7-14.5c-0.9,0.4-11.1,1-11.1,0c0-1-0.9-16.5,0-20.1c0.9-3.6,11.1-10,11.1-10
			l-2.1,13.5L396,399.1z"/>
		<path class="st28" d="M408.5,399.1c0,0,4.6-16.8,5.7-17.2c1.2-0.5,7.6-0.8,7.6-0.8s2.2-15.6,1.1-17.5c-1.1-1.9-7.7,0-7.7,0
			s-4.1,7.1-5.6,14.3C408,385.2,408.5,399.1,408.5,399.1z"/>
		<g>
			<path class="st40" d="M438.3,304.9c1.4,3.9-0.2,2.8,0.1,10.1c0.2,4.7,1.5,7.7,2,13.6c0.7,7.5-0.8,14.5-0.8,14.5
				s-2.1,18.4-10.9,22.7c-5.6,2.7-30.3-4.8-37-11c-2.8-2.6-4.2-6.2-5.2-9.5c-0.2-0.9-0.4-1.7-0.6-2.5c-6.3,8.7-30.8-20.3-9.8-21
				C376.1,321.9,416.2,249.1,438.3,304.9z"/>
			<path class="st50" d="M416.9,291.1c-3.3,6.2-9.4,14.2-14.2,17.2c-4.8,3.1-6.4,6.1-5.9,10.6c0.5,4.5-3,14.1-6.3,13.9
				c-4-0.2-4.8-8.1-14.4-10.9c-3.6-0.3-8.6,2-7.9,6.8c1.9,12.9,15.2,15.8,15.2,15.8s-0.1,12-3.1,15.1c-2.9,3-8.7,6.3-14.2,4.9
				c-8.5-2.2-14.5-3.8-24.7,3.7c-24.8,18.2-15.7,41.4-20.9,46c-8.6,7.6-23.3,2.4-20.8-1.8c3.7-1.4,5.1-0.1,9.9-4.6
				c4.8-4.5,4.3-28,9-36.6c7.3-13.2,13.2-15.8,20.8-25.3c7.6-9.6,17.1-39.1,20.5-54.6c3.4-15.5,14.7-24.8,23.5-22.7
				c10.8-8.5,23.4-8.4,40.3,4.9c16.9,13.2,15.1,24.6,14.4,31.6c-4.7-3.3-0.7-2.6-7.5-7.1C424.1,293.3,421.9,292,416.9,291.1z"/>
		</g>
		<g>
			<path class="st41" d="M426.8,328.8c1-1.5,5.9,13.9,5.1,15.5c-0.7,1.6-10.6,2.2-11.3,0.4c-0.7-1.8,6.7-1.4,7.3-2.5
				C428.5,341.1,425.8,330.3,426.8,328.8z"/>
			<path class="st48" d="M433,326.9c0.4,2.3,2.1,3.9,3.9,3.6c1.7-0.3,2.9-2.4,2.5-4.6c-0.4-2.3-2.1-3.9-3.9-3.6
				C433.7,322.5,432.6,324.6,433,326.9z"/>
			<path class="st48" d="M411.1,330.7c0.5,2.3,2.3,3.8,4,3.4c1.7-0.4,2.7-2.5,2.3-4.8c-0.5-2.3-2.3-3.8-4-3.4
				S410.6,328.5,411.1,330.7z"/>
			<path class="st50" d="M416.1,315.8c0,0,1.8,2.1,1.3,3c-0.5,0.9-5.8,1.2-10.4,2.6c-4.5,1.4-5.7,1.9-5.7,1.9s0.6-3.1,3.3-4.6
				C407.3,317.3,414.4,314.8,416.1,315.8z"/>
			<path class="st50" d="M438.4,315c-2-0.5-4.1-1-6.4,0.1c0,0-0.1,1.4,1.1,2.2c1.2,0.8,3.6,0.7,5.5,1.1c0.1,0,0.2,0.1,0.3,0.1
				L438.4,315z"/>
		</g>
		<path class="st2" d="M417.4,352.8c0,0,6.6,0.2,10.8-0.6c4.2-0.8,4.2-0.8,4.2-0.8s-1.9,6.2-7.8,6.7
			C418.7,358.6,417.4,352.8,417.4,352.8z"/>
		<g>
			<path class="st20" d="M441.5,486.4c-12.8-11.9-52.1-10.9-60.8-13.6l-44.5,15.6c2.9,9.2,3.3,10.3,8.9,14
				c12.6,8.5,83.6,12.6,90.1,8.6c0.3-3.3-3.6-6.8-3.5-12.2C431.7,491.5,438.6,488.7,441.5,486.4z"/>
		</g>
		<path class="st25" d="M408.1,430.3c0,0,1.4,10.4,1.7,18.1c0.2,7.6-2.1,27.6-2.1,27.6l-2.6-0.4c0,0,2.3-21.8,2.1-29.2
			c-0.2-7.4-1.1-22.5-1.1-22.5L408.1,430.3z"/>
		<path class="st21" d="M417.3,455.6c-1,0.1-2,0.1-3.1,0.1v15c16-0.4,26.5-3.4,26.5-3.4c1.3-3.3,4.5-14.8,4.5-14.8
			S435.7,454.6,417.3,455.6z"/>
		<path class="st21" d="M418.2,629.4l0.7,3.9c15.3-5.2,37-12.1,50-14c-1.6-8.2-3.5-14.4-5.8-17.6c-3.7-5.3-7.4-10.1-11.7-14.9
			c-14.2,4-43.4,13-61.5,24.7C402.2,616.5,414.5,623.1,418.2,629.4z"/>
		<g>
			<path class="st51" d="M868.2,390.5c1.6,0,2.9-1.2,3-2.8c0-1.6-1.2-2.9-2.8-3c-1.6,0-2.9,1.2-3,2.8
				C865.3,389.1,866.6,390.5,868.2,390.5z"/>
			<path class="st51" d="M867.3,421.6c1.6,0,2.9-1.2,3-2.8c0-1.6-1.2-2.9-2.8-3c-1.6,0-2.9,1.2-3,2.8
				C864.5,420.3,865.7,421.6,867.3,421.6z"/>
			<path class="st51" d="M866.5,452.8c1.6,0,2.9-1.2,3-2.8c0-1.6-1.2-2.9-2.8-3c-1.6,0-2.9,1.2-3,2.8
				C863.6,451.4,864.9,452.8,866.5,452.8z"/>
		</g>
		<g>
			<path class="st51" d="M666.7,315.2c1.6,0,2.9-1.2,2.9-2.8c0-1.6-1.2-2.9-2.8-2.9c-1.6,0-2.9,1.2-2.9,2.8
				C663.8,313.9,665.1,315.2,666.7,315.2z"/>
			<path class="st51" d="M666.3,346.4c1.6,0,2.9-1.2,2.9-2.8c0-1.6-1.2-2.9-2.8-2.9c-1.6,0-2.9,1.2-2.9,2.8
				C663.4,345,664.7,346.3,666.3,346.4z"/>
			<path class="st51" d="M665.8,377.5c1.6,0,2.9-1.2,2.9-2.8c0-1.6-1.2-2.9-2.8-2.9c-1.6,0-2.9,1.2-2.9,2.8
				C663,376.2,664.2,377.5,665.8,377.5z"/>
			<path class="st51" d="M665.4,408.7c1.6,0,2.9-1.2,2.9-2.8c0-1.6-1.2-2.9-2.8-2.9c-1.6,0-2.9,1.2-2.9,2.8
				C662.5,407.3,663.8,408.7,665.4,408.7z"/>
		</g>
		<g>
			<path class="st51" d="M403.1,438.2c1.6,0.1,2.9-1.2,3-2.8c0.1-1.6-1.2-2.9-2.8-3c-1.6-0.1-2.9,1.2-3,2.8
				C400.3,436.8,401.5,438.2,403.1,438.2z"/>
			<path class="st51" d="M401.9,469.4c1.6,0.1,2.9-1.2,3-2.8c0.1-1.6-1.2-2.9-2.8-3c-1.6-0.1-2.9,1.2-3,2.8
				C399,467.9,400.3,469.3,401.9,469.4z"/>
		</g>
	</g>
	<g>
		<path class="st40" d="M825.9,240.8c0,0-3.5,6.1-4.8,16.1c-0.5,3.6,0.2,1.7,0,5.9c-0.1,2.4,1.3,4.6,1.3,7c0,3-0.1,6.8,0.2,10.2
			c0.5,5.1,2.8,10.7,4.1,15.6c3.1,11.1,6.5,19.2,14.4,22.8c7.6,3.4,19.2,2.4,34.4-11.5c5-4.6,6.9-6.1,12.1-15.7
			c7.5,2.2,22.7-30.8,0.7-26.3C888.3,264.8,884.4,224.9,825.9,240.8z"/>
		<path class="st52" d="M897.6,236.9c-14.2-45.3-73.1-15.9-73.1-15.9c-22.8,5.2-3.2,44.6-3.2,44.6c0.3-11.1,10-22.1,10-22.1
			c4.4,4.2,38,3.5,38,3.5c12,9,4.4,21.7,4.4,21.7s9.7,6.8,8.7,16.4l2.1,0.5l2.4-10.4c2.8-6,8.2-10.4,8.2-10.4
			C903.7,248.1,897.6,236.9,897.6,236.9z"/>
		<path class="st41" d="M891,273c3.1-2.4,4.1,8.2-2.1,11.6C887.7,284.6,887.8,275.4,891,273z"/>
	</g>
	<path class="st2" d="M839.8,303.1c0,0,9.7-0.5,13.3-1.4c3.6-0.9,3.6-0.9,3.6-0.9s-1.6,7.6-7.6,8.2
		C843,309.6,839.7,305.6,839.8,303.1z"/>
	<g>
		<path class="st53" d="M841.7,280.3c-1.4-1.2-2.1,15.7-0.9,17.1c1.2,1.4,11.3-0.7,11.5-2.7c0.2-2-7.2,0.5-8.1-0.5
			S843.1,281.5,841.7,280.3z"/>
		<path class="st48" d="M834,280.3c0.2,2.4-1.1,4.5-2.9,4.7c-1.8,0.2-3.5-1.6-3.8-4c-0.2-2.4,1.1-4.5,2.9-4.7
			C832,276.1,833.7,277.9,834,280.3z"/>
		<path class="st48" d="M859,277.9c0.1,2.4-1.3,4.4-3.1,4.5c-1.9,0.1-3.5-1.8-3.6-4.2c-0.1-2.4,1.3-4.4,3.1-4.5
			C857.2,273.6,858.8,275.5,859,277.9z"/>
		<path class="st52" d="M848.9,264.2c0,0-1.2,2.6-0.5,3.4c0.7,0.8,6.2-0.4,11.2-0.2c5,0.2,6.3,0.3,6.3,0.3s-1.5-2.9-4.6-3.7
			C858.2,263.2,850.4,262.7,848.9,264.2z"/>
		<path class="st52" d="M832.2,268.1c0,0,0.5,1.4-0.5,2.6c-0.9,1.1-3.4,1.7-5.3,2.6c-1.9,1-4,2.6-4,2.6s0-3.9,0-4.2
			C822.4,271.3,827.4,267.2,832.2,268.1z"/>
	</g>
</g>
</svg>
