<?xml version="1.0" encoding="utf-8"?>
<!-- Generator: Adobe Illustrator 27.0.1, SVG Export Plug-In . SVG Version: 6.00 Build 0)  -->
<svg version="1.1" id="Lager_1" xmlns="http://www.w3.org/2000/svg" xmlns:xlink="http://www.w3.org/1999/xlink" x="0px" y="0px"
	 viewBox="0 0 1600 900" style="enable-background:new 0 0 1600 900;" xml:space="preserve">
<style type="text/css">
	.st0{fill:#FFFFFF;}
	.st1{fill:#D1D1D1;}
	.st2{fill:#CCCCCC;}
	.st3{fill:#A8A8A8;}
	.st4{fill:#DBDBDB;}
	.st5{fill:#D6D6D6;}
	.st6{fill:#565656;}
	.st7{fill:#353535;}
	.st8{fill:#8C8C8C;}
	.st9{fill:#EBEBEB;}
	.st10{fill:#191919;}
	.st11{fill:#E0E0E0;}
	.st12{fill:#B5B5B5;}
	.st13{fill:#2B2B2B;}
	.st14{fill:#0F00B6;}
	.st15{fill:#4837F0;}
	.st16{fill:#4C4C4C;}
	.st17{fill:#3A3A3A;}
	.st18{fill:#500B00;}
	.st19{fill:#7D7B7B;}
	.st20{fill:#9F9E9E;}
	.st21{fill:#93672C;}
	.st22{fill:#CBCBCB;}
	.st23{fill:#106B7A;}
	.st24{fill:#454545;}
	.st25{fill:#EE492E;}
	.st26{fill:#002B33;}
	.st27{fill:#6B410C;}
	.st28{fill:#013F4B;}
	.st29{fill:#95672C;}
	.st30{fill:#E4BA85;}
	.st31{fill:#B88950;}
	.st32{fill:#7A1F10;}
	.st33{fill:#D0A172;}
	.st34{fill:#CC3030;}
	.st35{fill:#EB4A4A;}
	.st36{fill:#DE4B4B;}
	.st37{fill:#E2B883;}
	.st38{fill:#E6A2AD;}
	.st39{fill:#F2F2F2;}
	.st40{fill:#CDCDCD;}
</style>
<g>
	<g>
		<rect x="527.4" y="22.5" class="st0" width="573.9" height="381.5"/>
		<g>
			<g>
				<path class="st1" d="M1086.6,26.8c3.6,0,6.5,2.9,6.5,6.5v356.1c0,3.6-2.9,6.5-6.5,6.5H542.1c-3.6,0-6.5-2.9-6.5-6.5V33.3
					c0-3.6,2.9-6.5,6.5-6.5H1086.6 M1086.6,25.4H542.1c-4.3,0-7.8,3.5-7.8,7.8v356.1c0,4.3,3.5,7.8,7.8,7.8h544.5
					c4.3,0,7.8-3.5,7.8-7.8V33.3C1094.4,28.9,1090.9,25.4,1086.6,25.4L1086.6,25.4z"/>
			</g>
		</g>
		<g>
			<rect x="541.6" y="399.7" class="st2" width="545" height="8.7"/>
			<rect x="541.6" y="408.4" class="st3" width="545" height="2.5"/>
			<rect x="541.6" y="397.2" class="st4" width="545" height="2.5"/>
		</g>
		<g>
			<rect x="542" y="14.2" class="st2" width="544.6" height="8.7"/>
			<rect x="542" y="22.9" class="st3" width="544.6" height="2.5"/>
			<rect x="542" y="11.7" class="st5" width="544.6" height="2.5"/>
		</g>
		<g>
			<rect x="523" y="33.3" class="st2" width="8.7" height="356.1"/>
			<rect x="520.5" y="33.3" class="st3" width="2.5" height="356.1"/>
			<rect x="531.7" y="33.3" class="st5" width="2.5" height="356.1"/>
		</g>
		<g>
			<rect x="1096.9" y="33.3" class="st2" width="8.7" height="356.1"/>
			<rect x="1105.6" y="33.3" class="st3" width="2.5" height="356.1"/>
			<rect x="1094.4" y="33.3" class="st5" width="2.5" height="356.1"/>
		</g>
		<g>
			<g>
				<rect x="644.1" y="414.6" class="st2" width="342.2" height="3.5"/>
				<rect x="644.1" y="418.1" class="st3" width="342.2" height="1"/>
				<rect x="644.1" y="413.6" class="st5" width="342.2" height="1"/>
			</g>
			<rect x="641.5" y="413.6" class="st6" width="3.2" height="5.6"/>
			<rect x="641.5" y="416.4" class="st7" width="3.2" height="1.8"/>
			<rect x="986.3" y="413.6" class="st6" width="3.2" height="5.6"/>
			<rect x="986.3" y="416.4" class="st7" width="3.2" height="1.8"/>
			<rect x="644.7" y="410.7" class="st8" width="341.6" height="2.9"/>
		</g>
	</g>
	<g>
		<rect x="862.7" y="407.3" class="st9" width="44" height="6.3"/>
		<path class="st10" d="M909.3,410.4c0,0.7-0.3,1.2-0.6,1.2c-0.3,0-0.6-0.5-0.6-1.2c0-0.7,0.3-1.2,0.6-1.2
			C909,409.2,909.3,409.7,909.3,410.4z"/>
		<rect x="906.7" y="407.3" class="st7" width="2.1" height="6.3"/>
		<rect x="852.3" y="407.3" class="st7" width="10.4" height="6.3"/>
		<rect x="851.5" y="408" class="st10" width="0.7" height="4.9"/>
		<rect x="862.7" y="410.4" class="st11" width="44" height="2.4"/>
		<rect x="862.7" y="407.3" class="st12" width="0.4" height="6.3"/>
		<rect x="853.2" y="408" class="st13" width="0.6" height="5.6"/>
		<rect x="855.8" y="408" class="st13" width="0.6" height="5.6"/>
		<rect x="858.4" y="408" class="st13" width="0.6" height="5.6"/>
		<rect x="861" y="408" class="st13" width="0.6" height="5.6"/>
		<rect x="854.5" y="408" class="st13" width="0.6" height="5.6"/>
		<rect x="857.1" y="408" class="st13" width="0.6" height="5.6"/>
		<rect x="859.7" y="408" class="st13" width="0.6" height="5.6"/>
		<rect x="852.3" y="406.1" class="st7" width="15" height="0.6"/>
		<rect x="853.2" y="406.6" class="st10" width="1.9" height="0.7"/>
	</g>
	<g>
		<rect x="797.7" y="407.3" class="st9" width="44" height="6.3"/>
		<path class="st14" d="M844.2,410.4c0,0.7-0.3,1.2-0.6,1.2c-0.3,0-0.6-0.5-0.6-1.2c0-0.7,0.3-1.2,0.6-1.2
			C844,409.2,844.2,409.7,844.2,410.4z"/>
		<rect x="841.6" y="407.3" class="st15" width="2.1" height="6.3"/>
		<rect x="787.3" y="407.3" class="st15" width="10.4" height="6.3"/>
		<rect x="786.5" y="408" class="st14" width="0.7" height="4.9"/>
		<rect x="797.7" y="410.4" class="st11" width="44" height="2.4"/>
		<rect x="797.7" y="407.3" class="st12" width="0.4" height="6.3"/>
		<rect x="788.2" y="408" class="st14" width="0.6" height="5.6"/>
		<rect x="790.8" y="408" class="st14" width="0.6" height="5.6"/>
		<rect x="793.4" y="408" class="st14" width="0.6" height="5.6"/>
		<rect x="796" y="408" class="st14" width="0.6" height="5.6"/>
		<rect x="789.5" y="408" class="st14" width="0.6" height="5.6"/>
		<rect x="792.1" y="408" class="st14" width="0.6" height="5.6"/>
		<rect x="794.7" y="408" class="st14" width="0.6" height="5.6"/>
		<rect x="787.3" y="406.1" class="st15" width="15" height="0.6"/>
		<rect x="788.2" y="406.6" class="st14" width="1.9" height="0.7"/>
	</g>
	<g>
		<g>
			<path class="st16" d="M521.7,32.1v-7.9c0-6.2,6-11.2,13.3-11.2h5.9v11.5c-4,0.5-7.2,3.7-7.7,7.7H521.7z"/>
			<path class="st17" d="M539.7,14.1v9.3c-3.7,0.9-6.6,3.8-7.5,7.5h-9.3v-6.8c0-5.5,5.4-10.1,12.1-10.1H539.7 M542,11.7H535
				c-8,0-14.5,5.6-14.5,12.4v9.1h13.7c0-4.3,3.5-7.8,7.8-7.8V11.7L542,11.7z"/>
		</g>
		<g>
			<path class="st16" d="M1107,32.1v-7.9c0-6.2-6-11.2-13.3-11.2h-5.9v11.5c4,0.5,7.2,3.7,7.7,7.7H1107z"/>
			<path class="st17" d="M1089,14.1h4.7c6.7,0,12.1,4.5,12.1,10.1v6.8h-9.3c-0.9-3.7-3.8-6.6-7.5-7.5V14.1 M1086.6,11.7v13.7
				c4.3,0,7.8,3.5,7.8,7.8h13.7v-9.1c0-6.9-6.5-12.4-14.5-12.4H1086.6L1086.6,11.7z"/>
		</g>
		<g>
			<path class="st16" d="M1107,390.5v7.9c0,6.2-6,11.2-13.3,11.2h-5.9v-11.5c4-0.5,7.2-3.7,7.7-7.7H1107z"/>
			<path class="st17" d="M1089,408.5v-9.3c3.7-0.9,6.6-3.8,7.5-7.5h9.3v6.8c0,5.5-5.4,10.1-12.1,10.1H1089 M1086.6,410.9h7.1
				c8,0,14.5-5.6,14.5-12.4v-9.1h-13.7c0,4.3-3.5,7.8-7.8,7.8V410.9L1086.6,410.9z"/>
		</g>
		<g>
			<path class="st16" d="M521.7,390.5v7.9c0,6.2,6,11.2,13.3,11.2h5.9v-11.5c-4-0.5-7.2-3.7-7.7-7.7H521.7z"/>
			<path class="st17" d="M539.7,408.5H535c-6.7,0-12.1-4.5-12.1-10.1v-6.8h9.3c0.9,3.7,3.8,6.6,7.5,7.5V408.5 M542,410.9v-13.7
				c-4.3,0-7.8-3.5-7.8-7.8h-13.7v9.1c0,6.9,6.5,12.4,14.5,12.4H542L542,410.9z"/>
		</g>
	</g>
</g>
<g>
	<ellipse class="st18" cx="801.7" cy="858" rx="419.9" ry="33.8"/>
	<g>
		<g>
			<g>
				
					<rect x="639.5" y="532.8" transform="matrix(-0.9999 -1.332719e-02 1.332719e-02 -0.9999 1366.2573 1084.1654)" class="st19" width="94.5" height="9.4"/>
			</g>
			<g>
				<g>
					<polygon class="st20" points="513,436.3 660.8,433.7 679.9,542.2 532.5,541.6 					"/>
				</g>
			</g>
		</g>
		<g>
			<rect x="512.4" y="541.4" class="st21" width="235.3" height="8.3"/>
		</g>
		<g>
			<path class="st21" d="M750.2,863.8c0.2,0,0.3,0,0.5,0c2-0.2,3.4-2.1,3.2-4.1l-38.6-312.5c-0.2-2-2.1-3.4-4.1-3.2
				c-2,0.2-3.4,2.1-3.2,4.1l38.6,312.5C746.8,862.5,748.4,863.8,750.2,863.8z"/>
		</g>
		<g>
			<path class="st21" d="M497.5,863.8c1.8,0,3.4-1.4,3.6-3.2l38.6-312.5c0.2-2-1.2-3.9-3.2-4.1c-2-0.2-3.9,1.2-4.1,3.2l-38.6,312.5
				c-0.2,2,1.2,3.9,3.2,4.1C497.2,863.8,497.3,863.8,497.5,863.8z"/>
		</g>
		<g>
			<path class="st21" d="M518.6,694.7H730c2,0,3.7-1.6,3.7-3.7s-1.6-3.7-3.7-3.7H518.6c-2,0-3.7,1.6-3.7,3.7
				S516.6,694.7,518.6,694.7z"/>
		</g>
	</g>
</g>
<path class="st22" d="M554.1,66.3h171.8c1.2,0,2.1-1.8,2.1-3.9l0,0c0-2.2-1-3.9-2.1-3.9H554.1c-1.2,0-2.1,1.8-2.1,3.9l0,0
	C552,64.5,552.9,66.3,554.1,66.3z"/>
<path class="st22" d="M555.5,50.6h284.3c1.9,0,3.5-1.8,3.5-3.9l0,0c0-2.2-1.6-3.9-3.5-3.9H555.5c-1.9,0-3.5,1.8-3.5,3.9l0,0
	C552,48.8,553.6,50.6,555.5,50.6z"/>
<g>
	<rect x="637.9" y="370.1" class="st23" width="2.4" height="9.2"/>
	<rect x="641.5" y="369.7" class="st23" width="2.4" height="9.6"/>
	<rect x="645.1" y="350.4" class="st23" width="2.4" height="28.9"/>
	<g>
		<rect x="774.2" y="117.2" class="st24" width="1" height="5.7"/>
		<rect x="774.2" y="128.4" class="st24" width="1" height="5.7"/>
		<rect x="774.2" y="139.5" class="st24" width="1" height="5.7"/>
		<rect x="774.2" y="150.7" class="st24" width="1" height="5.7"/>
		<rect x="774.2" y="161.8" class="st24" width="1" height="5.7"/>
		<rect x="774.2" y="172.9" class="st24" width="1" height="5.7"/>
		<rect x="774.2" y="184.1" class="st24" width="1" height="5.7"/>
		<rect x="774.2" y="195.2" class="st24" width="1" height="5.7"/>
		<rect x="774.2" y="206.4" class="st24" width="1" height="5.7"/>
		<rect x="774.2" y="217.5" class="st24" width="1" height="5.7"/>
		<rect x="774.2" y="228.7" class="st24" width="1" height="5.7"/>
		<rect x="774.2" y="239.8" class="st24" width="1" height="5.7"/>
		<rect x="774.2" y="251" class="st24" width="1" height="5.7"/>
		<rect x="774.2" y="262.1" class="st24" width="1" height="5.7"/>
		<rect x="774.2" y="273.3" class="st24" width="1" height="5.7"/>
		<rect x="774.2" y="284.4" class="st24" width="1" height="5.7"/>
		<rect x="774.2" y="295.6" class="st24" width="1" height="5.7"/>
		<rect x="774.2" y="306.7" class="st24" width="1" height="5.7"/>
		<rect x="774.2" y="317.9" class="st24" width="1" height="5.7"/>
		<rect x="774.2" y="329" class="st24" width="1" height="5.7"/>
		<rect x="774.2" y="340.2" class="st24" width="1" height="5.7"/>
		<rect x="774.2" y="351.3" class="st24" width="1" height="5.7"/>
		<rect x="774.2" y="362.5" class="st24" width="1" height="5.7"/>
		<rect x="774.2" y="373.6" class="st24" width="1" height="5.7"/>
		<rect x="774.2" y="106.1" class="st24" width="1" height="5.7"/>
	</g>
	<g>
		<rect x="752.8" y="117.2" class="st24" width="1" height="5.7"/>
		<rect x="752.8" y="128.4" class="st24" width="1" height="5.7"/>
		<rect x="752.8" y="139.5" class="st24" width="1" height="5.7"/>
		<rect x="752.8" y="150.7" class="st24" width="1" height="5.7"/>
		<rect x="752.8" y="161.8" class="st24" width="1" height="5.7"/>
		<rect x="752.8" y="172.9" class="st24" width="1" height="5.7"/>
		<rect x="752.8" y="184.1" class="st24" width="1" height="5.7"/>
		<rect x="752.8" y="195.2" class="st24" width="1" height="5.7"/>
		<rect x="752.8" y="206.4" class="st24" width="1" height="5.7"/>
		<rect x="752.8" y="217.5" class="st24" width="1" height="5.7"/>
		<rect x="752.8" y="228.7" class="st24" width="1" height="5.7"/>
		<rect x="752.8" y="239.8" class="st24" width="1" height="5.7"/>
		<rect x="752.8" y="251" class="st24" width="1" height="5.7"/>
		<rect x="752.8" y="262.1" class="st24" width="1" height="5.7"/>
		<rect x="752.8" y="273.3" class="st24" width="1" height="5.7"/>
		<rect x="752.8" y="284.4" class="st24" width="1" height="5.7"/>
		<rect x="752.8" y="295.6" class="st24" width="1" height="5.7"/>
		<rect x="752.8" y="306.7" class="st24" width="1" height="5.7"/>
		<rect x="752.8" y="317.9" class="st24" width="1" height="5.7"/>
		<rect x="752.8" y="329" class="st24" width="1" height="5.7"/>
		<rect x="752.8" y="340.2" class="st24" width="1" height="5.7"/>
		<rect x="752.8" y="351.3" class="st24" width="1" height="5.7"/>
		<rect x="752.8" y="362.5" class="st24" width="1" height="5.7"/>
		<rect x="752.8" y="373.6" class="st24" width="1" height="5.7"/>
		<rect x="752.8" y="106.1" class="st24" width="1" height="5.7"/>
	</g>
	<g>
		<rect x="702.8" y="117.2" class="st24" width="1" height="5.7"/>
		<rect x="702.8" y="128.4" class="st24" width="1" height="5.7"/>
		<rect x="702.8" y="139.5" class="st24" width="1" height="5.7"/>
		<rect x="702.8" y="150.7" class="st24" width="1" height="5.7"/>
		<rect x="702.8" y="161.8" class="st24" width="1" height="5.7"/>
		<rect x="702.8" y="172.9" class="st24" width="1" height="5.7"/>
		<rect x="702.8" y="184.1" class="st24" width="1" height="5.7"/>
		<rect x="702.8" y="195.2" class="st24" width="1" height="5.7"/>
		<rect x="702.8" y="206.4" class="st24" width="1" height="5.7"/>
		<rect x="702.8" y="217.5" class="st24" width="1" height="5.7"/>
		<rect x="702.8" y="228.7" class="st24" width="1" height="5.7"/>
		<rect x="702.8" y="239.8" class="st24" width="1" height="5.7"/>
		<rect x="702.8" y="251" class="st24" width="1" height="5.7"/>
		<rect x="702.8" y="262.1" class="st24" width="1" height="5.7"/>
		<rect x="702.8" y="273.3" class="st24" width="1" height="5.7"/>
		<rect x="702.8" y="284.4" class="st24" width="1" height="5.7"/>
		<rect x="702.8" y="295.6" class="st24" width="1" height="5.7"/>
		<rect x="702.8" y="306.7" class="st24" width="1" height="5.7"/>
		<rect x="702.8" y="317.9" class="st24" width="1" height="5.7"/>
		<rect x="702.8" y="329" class="st24" width="1" height="5.7"/>
		<rect x="702.8" y="340.2" class="st24" width="1" height="5.7"/>
		<rect x="702.8" y="351.3" class="st24" width="1" height="5.7"/>
		<rect x="702.8" y="362.5" class="st24" width="1" height="5.7"/>
		<rect x="702.8" y="373.6" class="st24" width="1" height="5.7"/>
		<rect x="702.8" y="106.1" class="st24" width="1" height="5.7"/>
	</g>
	<rect x="648.6" y="350.4" class="st23" width="2.4" height="28.9"/>
	<rect x="652.2" y="335.9" class="st23" width="2.4" height="43.4"/>
	<rect x="655.8" y="340.3" class="st23" width="2.4" height="39"/>
	<rect x="659.3" y="334.9" class="st23" width="2.4" height="44.4"/>
	<rect x="662.9" y="314" class="st23" width="2.4" height="65.3"/>
	<rect x="666.5" y="314" class="st23" width="2.4" height="65.3"/>
	<rect x="670" y="280.3" class="st23" width="2.4" height="99"/>
	<rect x="673.6" y="271.2" class="st23" width="2.4" height="108.1"/>
	<rect x="677.2" y="267" class="st23" width="2.4" height="112.3"/>
	<rect x="680.7" y="241" class="st23" width="2.4" height="138.3"/>
	<rect x="684.3" y="236.6" class="st23" width="2.4" height="142.7"/>
	<rect x="687.9" y="209.1" class="st23" width="2.4" height="170.2"/>
	<rect x="691.5" y="231.7" class="st23" width="2.4" height="147.6"/>
	<rect x="695" y="216.6" class="st23" width="2.4" height="162.7"/>
	<rect x="698.6" y="222.8" class="st23" width="2.4" height="156.5"/>
	<rect x="702.2" y="202.9" class="st23" width="2.4" height="176.4"/>
	<rect x="705.7" y="198.9" class="st23" width="2.4" height="180.4"/>
	<rect x="709.3" y="171.8" class="st23" width="2.4" height="207.5"/>
	<rect x="712.9" y="187.2" class="st23" width="2.4" height="192.1"/>
	<rect x="716.4" y="184.3" class="st23" width="2.4" height="195"/>
	<rect x="720" y="205.3" class="st23" width="2.4" height="174"/>
	<rect x="727.1" y="202.5" class="st23" width="2.4" height="176.8"/>
	<rect x="730.7" y="197" class="st23" width="2.4" height="182.3"/>
	<rect x="734.3" y="218.5" class="st23" width="2.4" height="160.8"/>
	<rect x="741.4" y="221" class="st23" width="2.4" height="158.3"/>
	<rect x="745" y="209.4" class="st23" width="2.4" height="169.9"/>
	<rect x="748.6" y="241" class="st23" width="2.4" height="138.3"/>
	<rect x="752.1" y="227.3" class="st23" width="2.4" height="152"/>
	<rect x="755.7" y="246.8" class="st23" width="2.4" height="132.5"/>
	<rect x="762.8" y="254.8" class="st23" width="2.4" height="124.5"/>
	<rect x="770" y="261.7" class="st23" width="2.4" height="117.6"/>
	<rect x="773.5" y="252" class="st23" width="2.4" height="127.3"/>
	<rect x="777.1" y="277.2" class="st23" width="2.4" height="102.1"/>
	<rect x="780.7" y="260.7" class="st23" width="2.4" height="118.6"/>
	<rect x="784.3" y="285.4" class="st23" width="2.4" height="93.9"/>
	<rect x="787.8" y="281.8" class="st23" width="2.4" height="97.5"/>
	<rect x="791.4" y="301.7" class="st23" width="2.4" height="77.6"/>
	<rect x="795" y="235.7" class="st23" width="2.4" height="143.6"/>
	<rect x="798.5" y="307.5" class="st23" width="2.4" height="71.8"/>
	<rect x="802.1" y="297.5" class="st23" width="2.4" height="81.8"/>
	<rect x="805.7" y="313" class="st23" width="2.4" height="66.3"/>
	<rect x="809.2" y="292.7" class="st23" width="2.4" height="86.6"/>
	<rect x="812.8" y="320" class="st23" width="2.4" height="59.3"/>
	<rect x="816.4" y="306.5" class="st23" width="2.4" height="72.8"/>
	<rect x="819.9" y="318.7" class="st23" width="2.4" height="60.6"/>
	<rect x="823.5" y="315.7" class="st23" width="2.4" height="63.6"/>
	<rect x="827.1" y="323.4" class="st23" width="2.4" height="55.9"/>
	<rect x="830.6" y="300.2" class="st23" width="2.4" height="79.1"/>
	<rect x="834.2" y="334.8" class="st23" width="2.4" height="44.5"/>
	<rect x="837.8" y="325.4" class="st23" width="2.4" height="53.9"/>
	<rect x="841.4" y="339.8" class="st23" width="2.4" height="39.5"/>
	<rect x="844.9" y="331.7" class="st23" width="2.4" height="47.7"/>
	<rect x="848.5" y="341.1" class="st23" width="2.4" height="38.2"/>
	<rect x="852.1" y="334.8" class="st23" width="2.4" height="44.5"/>
	<rect x="855.6" y="345.7" class="st23" width="2.4" height="33.6"/>
	<rect x="859.2" y="343.4" class="st23" width="2.4" height="35.9"/>
	<rect x="862.8" y="350.1" class="st23" width="2.4" height="29.2"/>
	<rect x="866.3" y="322.8" class="st23" width="2.4" height="56.5"/>
	<rect x="869.9" y="353.9" class="st23" width="2.4" height="25.4"/>
	<rect x="873.5" y="348.6" class="st23" width="2.4" height="30.8"/>
	<rect x="877" y="355.5" class="st23" width="2.4" height="23.8"/>
	<rect x="880.6" y="348.6" class="st23" width="2.4" height="30.8"/>
	<rect x="884.2" y="356.5" class="st23" width="2.4" height="22.8"/>
	<rect x="887.8" y="350.6" class="st23" width="2.4" height="28.7"/>
	<rect x="891.3" y="357" class="st23" width="2.4" height="22.3"/>
	<rect x="894.9" y="356" class="st23" width="2.4" height="23.3"/>
	<rect x="898.5" y="361.4" class="st23" width="2.4" height="17.9"/>
	<rect x="902" y="345.7" class="st23" width="2.4" height="33.6"/>
	<rect x="905.6" y="362.5" class="st23" width="2.4" height="16.8"/>
	<rect x="909.2" y="358.9" class="st23" width="2.4" height="20.4"/>
	<rect x="912.7" y="364.7" class="st23" width="2.4" height="14.6"/>
	<rect x="916.3" y="358.9" class="st23" width="2.4" height="20.4"/>
	<rect x="919.9" y="364.7" class="st23" width="2.4" height="14.6"/>
	<rect x="923.4" y="360.2" class="st23" width="2.4" height="19.1"/>
	<rect x="927" y="365.3" class="st23" width="2.4" height="14"/>
	<rect x="930.6" y="364.7" class="st23" width="2.4" height="14.6"/>
	<rect x="934.2" y="368.5" class="st23" width="2.4" height="10.8"/>
	<rect x="937.7" y="353.1" class="st23" width="2.4" height="26.2"/>
	<rect x="941.3" y="368.7" class="st23" width="2.4" height="10.6"/>
	<rect x="944.9" y="366.2" class="st23" width="2.4" height="13.1"/>
	<rect x="948.4" y="369.1" class="st23" width="2.4" height="10.2"/>
	<rect x="952" y="366.5" class="st23" width="2.4" height="12.8"/>
	<rect x="955.6" y="369.1" class="st23" width="2.4" height="10.2"/>
	<rect x="959.1" y="368.5" class="st23" width="2.4" height="10.8"/>
	<rect x="962.7" y="371.4" class="st23" width="2.4" height="7.9"/>
	<rect x="966.3" y="369.1" class="st23" width="2.4" height="10.2"/>
	<rect x="969.8" y="372" class="st23" width="2.4" height="7.3"/>
	<rect x="973.4" y="364.4" class="st23" width="2.4" height="14.9"/>
	<rect x="977" y="372.3" class="st23" width="2.4" height="7"/>
	<rect x="980.6" y="370.3" class="st23" width="2.4" height="9"/>
	<rect x="984.1" y="372" class="st23" width="2.4" height="7.3"/>
	<rect x="987.7" y="369.8" class="st23" width="2.4" height="9.6"/>
	<rect x="991.3" y="371.9" class="st23" width="2.4" height="7.4"/>
	<rect x="994.8" y="370.7" class="st23" width="2.4" height="8.6"/>
	<rect x="998.4" y="373.6" class="st23" width="2.4" height="5.7"/>
	<rect x="1002" y="373.6" class="st23" width="2.4" height="5.7"/>
	<rect x="1005.5" y="373.6" class="st23" width="2.4" height="5.7"/>
	<rect x="1009.1" y="367.7" class="st23" width="2.4" height="11.6"/>
	<rect x="1012.7" y="373.9" class="st23" width="2.4" height="5.4"/>
	<rect x="1016.2" y="373.9" class="st23" width="2.4" height="5.4"/>
	<rect x="1019.8" y="374.8" class="st23" width="2.4" height="4.5"/>
	<rect x="1023.4" y="372.7" class="st23" width="2.4" height="6.6"/>
	<rect x="1027" y="375.4" class="st23" width="2.4" height="3.9"/>
	<rect x="1030.5" y="373.6" class="st23" width="2.4" height="5.7"/>
	<rect x="1034.1" y="375.4" class="st23" width="2.4" height="3.9"/>
	<rect x="1037.7" y="374.6" class="st23" width="2.4" height="4.7"/>
	<rect x="1041.2" y="373.9" class="st23" width="2.4" height="5.4"/>
	<rect x="1044.8" y="372.2" class="st23" width="2.4" height="7.1"/>
	<rect x="1048.4" y="375.4" class="st23" width="2.4" height="3.9"/>
	<rect x="1051.9" y="375.4" class="st23" width="2.4" height="3.9"/>
	<rect x="1055.5" y="375.4" class="st23" width="2.4" height="3.9"/>
	<rect x="1059.1" y="375.4" class="st23" width="2.4" height="3.9"/>
	<rect x="1062.6" y="375.4" class="st23" width="2.4" height="3.9"/>
	<rect x="1066.2" y="375.4" class="st23" width="2.4" height="3.9"/>
	<rect x="1069.8" y="376" class="st23" width="2.4" height="3.3"/>
	<rect x="1073.4" y="375.4" class="st23" width="2.4" height="3.9"/>
	<rect x="1076.9" y="376.6" class="st23" width="2.4" height="2.7"/>
	<rect x="766.4" y="224.1" class="st23" width="2.4" height="155.2"/>
	<rect x="759.3" y="206.1" class="st23" width="2.4" height="173.2"/>
	<rect x="737.9" y="191.4" class="st23" width="2.4" height="187.9"/>
	<rect x="723.6" y="134.2" class="st23" width="2.4" height="245.1"/>
	<rect x="634.3" y="374.6" class="st23" width="2.4" height="4.7"/>
	<rect x="630.8" y="377.1" class="st23" width="2.4" height="2.2"/>
	<rect x="627.2" y="376.2" class="st23" width="2.4" height="3.1"/>
	<rect x="623.6" y="377.9" class="st23" width="2.4" height="1.4"/>
	<rect x="620.1" y="376.4" class="st23" width="2.4" height="2.9"/>
	<rect x="616.5" y="378" class="st23" width="2.4" height="1.3"/>
	<g>
		<path class="st25" d="M728,85l0.4,0l0.5,0c0.1,0.2,0.2,0.5,0.5,0.7l0.1,0.4l0.1,0.1l0.1,0.2l0.1,0.1l0.1,0.1c0,0.1,0,0.1,0,0.2
			c0,0.1,0.1,0.1,0.1,0.2l0,0.8l0,0.2c0,0.1,0,0.3,0,0.5c0.3,0.3,0.5,0.6,0.6,1.1c0.1,0.1,0.2,0.2,0.4,0.3c0.9,0.4,1.6,0.3,2.2-0.3
			c0.4,0,0.7-0.1,1-0.5c0.3,0,0.5-0.2,0.6-0.5c0.3-0.1,0.7-0.2,1-0.5c0.2-0.5,0.3-1.1,0.2-1.8l0.4-0.7c0.5-0.3,1-0.1,1.6,0.4
			c0.1,0.2,0.1,0.4,0.1,0.6c-0.2,0.3-0.3,0.8-0.3,1.3c-0.2,0.3-0.2,0.6-0.2,1c-0.2,0.3-0.3,0.7-0.3,1.2l0,0.1
			c-0.2,0.4-0.2,0.8-0.2,1.3c-0.3,0.8-0.3,1.7-0.1,2.7l0,0.4c0.2,0.6,0.5,1.1,1.1,1.6l0,0.2c-0.2,0.2-0.4,0.3-0.7,0.5l-0.8-0.2
			c-1.1-1.2-1.4-2.9-0.8-4.8c-0.1-0.3-0.1-0.7,0-1.1l0-0.6c0.1-0.2,0.2-0.4,0.2-0.7c-0.3,0.1-0.7,0.4-1,0.7
			c-0.4,0.1-0.8,0.3-1.1,0.7c-0.2,0-0.3,0.1-0.5,0.3c-0.2,0-0.4,0.1-0.6,0.2l-0.3,0.2c-0.9,0.1-1.9-0.1-2.8-0.5
			c-0.1,1,0,1.9,0.4,2.7c-0.1,0.2-0.3,0.3-0.5,0.4c-0.4,1.1-0.9,1-1.5-0.1c0-0.3,0-0.6,0.1-1l0-0.2l0-0.4c0,0,0.1-0.1,0.1-0.1l0-0.3
			c-0.1-0.2-0.1-0.5-0.2-0.8l0.1-0.2l-0.1-1l0-0.3l0.1-0.3c0-0.3-0.1-0.6-0.2-0.9c0-0.2,0-0.4,0-0.6l-0.1-0.2l0-0.5l0-0.3
			c-0.2-0.2-0.3-0.5-0.3-0.8l0.4-0.7l0.1-0.1l0.1-0.1C727.9,85.1,728,85.1,728,85z"/>
		<path class="st25" d="M742.4,88.6c0.2,0.1,0.4,0.1,0.7,0.1l0.1,0c0.2,0,0.5,0.1,0.7,0.2c0.4,0.4,0.4,0.8,0.1,1.3l0,0.5
			c-0.2,0.1-0.4,0.3-0.5,0.5c-0.3,0.1-0.5,0.4-0.8,0.7l-0.1,0.1l0,0.1c-0.4,0.2-0.7,0.5-1.1,0.9l-0.2,0.1l-0.2,0.2l-0.2,0.2
			c-0.2,0.1-0.4,0.3-0.5,0.6c0.1,0,0.2,0.1,0.3,0.3c0.9,0.2,1.8,0.2,2.8-0.1c0.2,0,0.4,0,0.6-0.1c0.2,0,0.5,0,0.9,0l0.1,0.4
			c-0.1,0-0.2,0.1-0.3,0.3c-0.2,0-0.4,0.1-0.6,0.3c-0.2,0-0.4,0.1-0.5,0.2l-0.1,0l-0.1,0.2c-0.3,0-0.6,0.1-0.9,0.1l-0.4,0.1l-0.3,0
			l-0.1,0.1c-0.1,0-0.2,0-0.4,0l-0.2,0.1l-0.9-0.3l-0.1,0l-0.1,0l-0.1-0.1l-0.1,0l-0.2,0l-0.1-0.1l-0.1,0c-0.1-0.2-0.2-0.3-0.4-0.5
			l-0.1-0.3l-0.1-0.1l-0.1-0.1l-0.1-0.7c0-0.1-0.1-0.3-0.1-0.4l0.1-0.3l-0.1-0.2l0-0.2c0.1-0.1,0.1-0.2,0.1-0.3c0-0.5,0.3-1,0.7-1.6
			c0.1-0.1,0.1-0.2,0.2-0.4c0,0,0.1,0,0.1-0.1c0.2-0.1,0.4-0.2,0.6-0.4l0.4-0.1l0.1-0.3C741.1,88.9,741.7,88.7,742.4,88.6
			C742.4,88.6,742.4,88.6,742.4,88.6z M742.2,90c-0.1,0.1-0.2,0.2-0.3,0.3c-0.5,0-0.9,0.3-1.1,0.7c-0.3,0.2-0.5,0.5-0.5,0.9
			c0.2,0,0.4-0.1,0.5-0.3c0.5,0.1,0.9-0.1,1.2-0.6c0.4-0.2,0.7-0.5,0.7-1L742.2,90z"/>
		<path class="st25" d="M753,83.8l0.6,0.1c0,0.2,0,0.4,0.1,0.8c-0.1,0.3-0.1,0.6,0,0.9l-0.1,0.1l0,0.2l0,0.3c0,0.1-0.1,0.2-0.1,0.4
			l0,0.2l0,0.2l0,0.2c0,0.3-0.1,0.7-0.2,1.2l-0.1,0.1c0,0.1,0,0.3-0.1,0.5l-0.1,0.4l0.1,0.2c-0.1,0.4-0.2,0.9-0.1,1.5l0,0.2l0,0.2
			l0,0.2l0,0.2l0,0.3l0,0.4l0.6,0.9c0.2,0.1,0.5,0.2,0.7,0.5l0.1,0.4l-0.6,0.5l-0.5,0c-0.1-0.2-0.3-0.2-0.5-0.1l0.1-0.2
			c-0.8-0.5-1.2-1.7-1.2-3.8l0.2,1.5c-0.5-0.3-0.6-0.3,0,0c-0.8,0.9-1.5,1.5-1.9,2c0,0-0.1,0-0.1,0.1c0,0-0.1,0-0.1,0.1l0,0.1
			c-0.1,0-0.2,0.1-0.2,0.2l0,0.1c-0.1,0.1-0.3,0.2-0.4,0.3c0,0-0.1,0-0.1,0.1c-0.3,0.1-0.6,0.3-1,0.5c-0.5,0.1-1,0-1.6-0.2l-0.4-0.1
			c0-0.3-0.1-0.5-0.2-0.7c0-0.9,0-1.5-0.2-1.8l0.1-0.4c0-0.2,0-0.4,0.1-0.7l0-0.1l0-0.2c0,0,0.1,0,0.1-0.1c0-0.2,0-0.4,0.1-0.6
			l0-0.2c0.2-0.2,0.3-0.4,0.4-0.8c0.1,0,0.2-0.1,0.2-0.2l0.1-0.2l0.1-0.1l0.1-0.1l0.1-0.2l0.6,0c0.5-0.5,1-0.5,1.6-0.1
			c0.3-0.1,0.5,0,0.8,0.2c0.6,0.1,1,0.5,1.2,1.1l0.3-0.2c0.1-0.4,0.2-0.9,0.2-1.4l0-0.3l-0.1-0.1l0.2-0.2l-0.1-0.4
			c0.2-0.4,0.3-0.9,0.3-1.4c0.2-0.4,0.3-0.9,0.4-1.4l0.5-0.7l0.1-0.1L753,83.8z M748.5,90.2c-0.4,0.1-0.7,0.4-1,0.7
			c-0.6,1.6-0.6,2.4,0.1,2.6c0.6-0.3,1.4-0.9,2.3-1.7l0.4-0.2l0.2,0l0-0.3l-0.4-0.1C750.1,90.2,749.5,89.9,748.5,90.2z"/>
		<path class="st25" d="M755.7,89.4c0.7,0,1.1,0.4,1.2,1.1c-0.3,0.3-0.5,1-0.7,2c-0.1,0.2-0.2,0.3-0.2,0.5c-0.1,0.1-0.1,0.3-0.2,0.6
			c0,0.2,0.1,0.5,0.2,0.8l0,0.1c-1,0.8-1.5,0.2-1.4-1.7c0.1-0.1,0.1-0.2,0.3-0.4c0.1-0.9,0.2-1.7,0.3-2.2l0-0.2
			c0.1-0.1,0.2-0.3,0.3-0.5L755.7,89.4z M755.5,84.6c0.2,0,0.4,0,0.7,0.1c0.1,0.1,0.1,0.2,0.2,0.4c0.3,0.2,0.5,0.6,0.7,1l0.1,0.1
			l0.3,0.1c0.1,0.2,0.1,0.4,0,0.6c-0.3,0.2-0.6,0.1-1-0.2c-0.2,0-0.4,0-0.6,0.1c-0.2-0.1-0.4-0.2-0.7-0.2c-0.1-0.1-0.2-0.3-0.3-0.6
			c0,0,0-0.1-0.1-0.1c0,0,0-0.1-0.1-0.1c0.1-0.2,0.1-0.5,0.1-0.8L755.5,84.6z"/>
		<path class="st25" d="M761.8,87.1c0.2,0,0.3,0,0.5,0.1c0.4-0.1,0.7,0,1.2,0.2c0.2,0,0.4-0.1,0.6-0.2c0.2,0.2,0.5,0.3,0.7,0.3
			l0.3-0.1l0.3,0l0.1,0.6c-0.1,0-0.1,0.3,0.1,0.8c-0.2,0.3-0.3,0.9-0.3,1.8c0.1,0.8,0.4,1.4,0.8,1.8c1.3,0.2,1.4,0.6,0.3,1.3
			c-1.5,0.2-2.3-0.8-2.4-2.9c-0.1,0.1-0.1,0.2-0.2,0.3c-0.1,0.1-0.3,0.3-0.5,0.5l-0.1,0.1l-0.1,0.1c-0.1,0.2-0.2,0.3-0.4,0.5
			l-0.2,0.2l-0.5,0.6c-0.1,0.1-0.2,0.2-0.4,0.4c0,0-0.1,0.1-0.1,0.1l-1.2,0.6l-0.1,0.1l-0.3-0.1l-1.1,0.1c-0.1-0.2-0.3-0.4-0.6-0.6
			c-0.1-0.2-0.2-0.3-0.4-0.4c0-0.1,0-0.3-0.1-0.4c0-0.3,0-0.5-0.1-0.8l0-0.2c0.2-0.3,0.3-0.7,0.3-1.1c0.2-0.1,0.3-0.2,0.4-0.5l0-0.2
			l-0.1-0.2c0.1-0.1,0.2-0.3,0.2-0.6c0.2-0.1,0.3-0.3,0.5-0.6l0-0.3c0.1-0.1,0.3-0.2,0.4-0.4c0.2-0.1,0.4-0.2,0.5-0.4
			c0.2,0,0.3-0.2,0.5-0.3l0.2-0.1l0.9-0.4C761.7,87.2,761.8,87.2,761.8,87.1z M762.1,89.2c-0.6,0.1-1,0.2-1.2,0.5
			c-0.5,0.1-0.8,0.5-1,1c-0.6,0.6-0.7,1.3-0.1,2c0.4,0,0.9-0.2,1.3-0.5c0.1,0,0.2-0.1,0.4-0.1l0.1-0.4c0.4,0,0.7-0.3,0.8-0.8
			c0.3-0.2,0.5-0.5,0.6-0.9l0.2-0.1C763.1,89.4,762.7,89.1,762.1,89.2z"/>
		<path class="st25" d="M770.1,86.7l0.5,0c0.3,0.1,0.5,0.1,0.8-0.1c0.2,0.3,0.6,0.6,1,0.7c0.1,0.3,0.4,0.7,0.7,1
			c0,0.1,0.1,0.2,0.1,0.3c0,0.3,0.1,0.6,0.2,0.9l0,0.5l0.1,0.1c0,0.1-0.1,0.3-0.2,0.5l0,0.7l0,0.2c0,0.1,0,0.3,0,0.4
			c0.4,0.9,0.5,1.5,0.2,1.8c-0.5,0.1-1,0-1.3-0.4l-0.2-0.9l-0.1-0.3c0.3-1,0.1-2-0.4-3c-0.4-0.3-0.7-0.3-1,0l-0.4-0.1
			c-0.1,0.3-0.3,0.6-0.6,0.8l0,0.3c-0.4,0.2-0.6,0.6-0.7,1.2c-0.2,0.2-0.2,0.4-0.2,0.6c-0.2,0.3-0.3,0.7-0.3,1.1
			c-0.2,0.1-0.4,0.3-0.5,0.5c-0.6,0.2-1.1-0.1-1.5-0.9c0.2-0.3,0.2-0.7,0.2-1.1c0.2-0.5,0.2-1,0-1.5c0.1-0.2,0.1-0.4,0.1-0.6
			l-0.2-0.1c0.2-0.3,0.1-0.6-0.1-0.9c0.1-0.2,0.1-0.3,0.2-0.5c0.2-0.1,0.5-0.2,0.7-0.5c1.2,0.3,1.6,0.8,1.1,1.5l0.1,0.3
			c0.3-0.3,0.5-0.6,0.7-1.1c0.3-0.2,0.5-0.5,0.8-0.8L770.1,86.7z"/>
	</g>
	<g>
		<path class="st25" d="M786.5,125.2l0.5,0.1l0.6,0c0.1,0.3,0.2,0.6,0.4,1l0.1,0.4l0.1,0.1l0.1,0.2l0.1,0.1l0.1,0.1
			c0,0.1,0,0.2,0,0.3c0,0.1,0.1,0.2,0.1,0.2l-0.1,0.9l0,0.2c-0.1,0.1-0.1,0.3-0.1,0.6c0.3,0.4,0.5,0.8,0.6,1.4
			c0.1,0.1,0.3,0.3,0.4,0.5c1,0.7,1.9,0.7,2.7,0c0.5,0.1,0.9,0,1.2-0.4c0.4,0,0.6-0.2,0.7-0.5c0.4,0,0.9-0.2,1.3-0.4
			c0.4-0.6,0.5-1.3,0.5-2.1l0.6-0.7c0.7-0.2,1.3,0,1.8,0.7c0,0.2,0,0.5,0,0.8c-0.3,0.4-0.5,0.9-0.5,1.5c-0.2,0.3-0.4,0.7-0.4,1.2
			c-0.3,0.4-0.4,0.9-0.5,1.4l-0.1,0.1c-0.3,0.4-0.4,1-0.5,1.6c-0.5,0.9-0.7,2-0.6,3.2l-0.1,0.5c0.1,0.7,0.5,1.4,1,2.1l0,0.2
			c-0.3,0.2-0.6,0.3-1,0.5l-0.9-0.3c-1.1-1.7-1.2-3.7-0.2-6c0-0.4,0-0.8,0.1-1.4l0-0.7c0.1-0.2,0.3-0.5,0.3-0.8
			c-0.4,0.1-0.9,0.4-1.3,0.7c-0.5,0.1-1,0.3-1.5,0.7c-0.2,0-0.4,0.1-0.6,0.3c-0.2,0-0.5,0.1-0.7,0.2l-0.4,0.3c-1.1,0-2.2-0.4-3.2-1
			c-0.3,1.2-0.3,2.3,0,3.3c-0.2,0.2-0.4,0.3-0.7,0.5c-0.6,1.2-1.2,1.1-1.8-0.4c0-0.4,0.1-0.8,0.3-1.2l0-0.2l0-0.5
			c0,0,0.1-0.1,0.1-0.1l0-0.4c-0.1-0.3-0.1-0.6-0.1-1l0.2-0.3l0-1.2l0.1-0.4l0.2-0.3c0-0.3,0-0.7-0.1-1.2c0.1-0.3,0.1-0.5,0-0.8
			l-0.1-0.2l0-0.6l0.1-0.4c-0.2-0.3-0.2-0.6-0.2-1l0.6-0.8l0.1-0.1l0.1-0.1C786.4,125.3,786.4,125.3,786.5,125.2z"/>
		<path class="st25" d="M803.4,131.8c0.2,0.1,0.5,0.2,0.9,0.2l0.1,0.1c0.3,0,0.5,0.2,0.8,0.4c0.4,0.5,0.4,1-0.1,1.5l-0.1,0.6
			c-0.3,0.1-0.5,0.3-0.6,0.6c-0.4,0.1-0.7,0.4-1,0.7l-0.2,0l-0.1,0.2c-0.5,0.2-1,0.5-1.4,1l-0.3,0.1l-0.3,0.1l-0.2,0.2
			c-0.3,0.1-0.5,0.3-0.7,0.6c0.2,0.1,0.3,0.2,0.4,0.4c1.1,0.4,2.2,0.5,3.4,0.4c0.2,0.1,0.5,0.1,0.8,0c0.3,0.1,0.6,0.1,1,0.1l0,0.5
			c-0.2,0-0.3,0.1-0.4,0.3c-0.3,0-0.5,0-0.7,0.2c-0.2,0-0.5,0-0.7,0.1l-0.2,0l-0.1,0.2c-0.3,0-0.7,0-1.1,0l-0.4,0l-0.3,0l-0.2,0.1
			c-0.1,0-0.3-0.1-0.4,0l-0.2,0l-1-0.5l-0.1-0.1l-0.2,0l-0.1-0.1l-0.2-0.1l-0.3-0.1l-0.1-0.2l-0.2-0.1c-0.1-0.2-0.2-0.4-0.4-0.7
			l-0.1-0.4l-0.2-0.1l0-0.2l-0.1-0.9c0-0.2,0-0.3-0.1-0.6l0.1-0.4l-0.1-0.3l0-0.2c0.1-0.1,0.1-0.2,0.2-0.3c0.1-0.6,0.5-1.2,1-1.8
			c0.1-0.1,0.2-0.2,0.2-0.4c0.1,0,0.1,0,0.1-0.1c0.2,0,0.5-0.2,0.8-0.3l0.4-0.1l0.2-0.3c0.7-0.3,1.4-0.5,2.3-0.5
			C803.3,131.8,803.4,131.8,803.4,131.8z M802.9,133.5c-0.2,0.1-0.3,0.2-0.5,0.3c-0.6,0-1.1,0.2-1.5,0.7c-0.4,0.2-0.7,0.5-0.8,1
			c0.2,0,0.4,0,0.6-0.2c0.6,0.2,1.1,0,1.5-0.5c0.5-0.1,0.9-0.5,1.1-1.1L802.9,133.5z"/>
		<path class="st25" d="M816.9,127.7l0.7,0.2c0,0.2,0,0.5,0,1c-0.1,0.3-0.2,0.7-0.2,1.1l-0.1,0.1l-0.1,0.2l0,0.3
			c-0.1,0.1-0.1,0.3-0.2,0.5l0,0.2l-0.1,0.2l0,0.2c0,0.4-0.2,0.8-0.4,1.4l-0.1,0.1c0,0.2-0.1,0.4-0.2,0.6l-0.1,0.4l0.1,0.3
			c-0.2,0.5-0.3,1.1-0.4,1.8l-0.1,0.2l0,0.3l0,0.3l0,0.3l-0.1,0.4l-0.1,0.4l0.5,1.2c0.3,0.1,0.5,0.4,0.8,0.7l0,0.5l-0.8,0.5
			l-0.5-0.1c-0.1-0.2-0.3-0.3-0.6-0.2l0.1-0.2c-0.9-0.7-1.2-2.3-0.9-4.8l0.1,1.8c-0.6-0.4-0.6-0.4,0-0.1c-1.2,0.9-2,1.6-2.6,2.1
			c0,0-0.1,0-0.1,0.1c0,0-0.1,0-0.1,0.1l-0.1,0.1c-0.1,0-0.2,0.1-0.3,0.2l-0.1,0.1c-0.2,0.1-0.4,0.1-0.6,0.3c0,0-0.1,0.1-0.1,0.1
			c-0.4,0-0.8,0.2-1.3,0.5c-0.6,0-1.3-0.2-1.9-0.5l-0.4-0.2c0-0.3,0-0.6-0.2-0.9c0.2-1.1,0.2-1.8,0-2.3l0.1-0.4
			c0-0.2,0.1-0.5,0.2-0.8l0.1-0.1l0-0.3c0,0,0.1,0,0.1-0.1c0-0.2,0.1-0.4,0.2-0.7l0.1-0.2c0.2-0.2,0.5-0.5,0.7-0.8
			c0.1,0,0.2-0.1,0.3-0.2l0.1-0.2l0.1-0.1l0.2-0.1l0.1-0.2l0.7,0c0.6-0.5,1.3-0.4,2,0.1c0.3,0,0.6,0.1,0.9,0.4
			c0.7,0.2,1.1,0.7,1.3,1.5l0.4-0.2c0.2-0.4,0.3-1,0.4-1.7l0.1-0.3l-0.1-0.1l0.3-0.2l0-0.4c0.3-0.5,0.5-1,0.5-1.7
			c0.3-0.4,0.5-1,0.6-1.7l0.7-0.8l0.1-0.1L816.9,127.7z M810.5,134.7c-0.5,0.1-0.9,0.3-1.3,0.7c-1,1.8-1.1,2.8-0.3,3.1
			c0.8-0.2,1.8-0.8,3.1-1.7l0.5-0.2l0.2,0l0.1-0.4l-0.4-0.2C812.4,134.9,811.7,134.5,810.5,134.7z"/>
		<path class="st25" d="M822.2,132.9c0.2,0.1,0.5,0.2,0.9,0.2l0.1,0.1c0.3,0,0.5,0.2,0.8,0.4c0.4,0.5,0.4,1-0.1,1.5l-0.1,0.6
			c-0.3,0.1-0.5,0.3-0.6,0.6c-0.4,0.1-0.7,0.4-1,0.7l-0.2,0l-0.1,0.2c-0.5,0.2-1,0.5-1.4,1l-0.3,0.1l-0.3,0.1l-0.2,0.2
			c-0.3,0.1-0.5,0.3-0.7,0.6c0.2,0.1,0.3,0.2,0.4,0.4c1.1,0.4,2.2,0.5,3.4,0.4c0.2,0.1,0.5,0.1,0.8,0c0.3,0.1,0.6,0.1,1,0.1l0,0.5
			c-0.2,0-0.3,0.1-0.4,0.3c-0.3,0-0.5,0-0.7,0.2c-0.2,0-0.5,0-0.7,0.1l-0.2,0l-0.1,0.2c-0.3,0-0.7,0-1.1,0l-0.4,0l-0.3,0l-0.2,0.1
			c-0.1,0-0.3-0.1-0.4,0l-0.2,0l-1-0.5l-0.1-0.1l-0.2,0l-0.1-0.1l-0.2-0.1l-0.3-0.1l-0.1-0.2l-0.2-0.1c-0.1-0.2-0.2-0.4-0.4-0.7
			l-0.1-0.4l-0.2-0.1l0-0.2l-0.1-0.9c0-0.2,0-0.3-0.1-0.6l0.1-0.4l-0.1-0.3l0-0.2c0.1-0.1,0.1-0.2,0.2-0.3c0.1-0.6,0.5-1.2,1-1.8
			c0.1-0.1,0.2-0.2,0.2-0.4c0.1,0,0.1,0,0.1-0.1c0.2,0,0.5-0.2,0.8-0.3l0.4-0.1l0.2-0.3c0.7-0.3,1.4-0.5,2.3-0.5
			C822.1,132.9,822.2,132.9,822.2,132.9z M821.7,134.6c-0.2,0.1-0.3,0.2-0.5,0.3c-0.6,0-1.1,0.2-1.5,0.7c-0.4,0.2-0.7,0.5-0.8,1
			c0.2,0,0.4,0,0.6-0.2c0.6,0.2,1.1,0,1.5-0.5c0.5-0.1,0.9-0.5,1-1.1L821.7,134.6z"/>
		<path class="st25" d="M828.4,128.9c0.2,0,0.5,0.1,0.8,0.3c-0.1,0.3,0,0.6,0.3,0.9c0,0.2,0,0.4,0.1,0.6c0,0.3-0.2,0.5-0.5,0.7
			c0,0.8-0.2,1.6-0.6,2.4l0,0.2l0,0.4l-0.1,0.2l-0.3,0.2l-0.1,0.4c-0.1,0.3-0.2,0.7-0.1,1.2l-0.1,0.1c-0.1,0.4-0.2,0.9-0.4,1.5
			l-0.1,0.1l0.1,0.2l0,0.2c-0.4,0.8-0.6,1.8-0.5,2.9l-0.1,0.4l-0.2,0.3c-0.2,0-0.4,0-0.6-0.1l-0.2,0c-0.1-0.3-0.2-0.6-0.5-0.8
			c0-0.4,0-0.9,0.1-1.4c0-0.9,0.2-1.6,0.5-2.2c0-0.2,0-0.3,0.1-0.6l0-0.2l0.1-0.1l0-0.4l0.3-0.3c0-0.4,0.1-0.9,0.2-1.4l0.1-1.1
			l-0.1-0.2c0.2-0.3,0.3-0.7,0.4-1.3c0.1,0,0.1-0.1,0.1-0.1l0.1-1.5c0.2-0.2,0.4-0.5,0.5-0.8L828.4,128.9z"/>
	</g>
	
		<rect x="812.7" y="113.7" transform="matrix(1.909939e-10 -1 1 1.909939e-10 433.4064 1193.0125)" class="st24" width="1" height="532.2"/>
</g>
<g>
	<path class="st25" d="M580.2,131.1c12.5,2.3,15.3,7.9,8.6,16.7c1.4,0.2,3,0,4.7-0.5l2.3-0.3l2.7,0l0.8,1.3c-0.9,0.7-2.2,1-4,1.1
		c-3.3,2.3-7.2,2.8-11.7,1.6c-0.4-1.9-0.2-3.9,0.7-6.2c1.9-0.4,3.7-1.4,5.4-3l0-3.1c-2.7-1.6-5.9-2.4-9.7-2.4
		C578.9,134.8,579,133,580.2,131.1z"/>
	<path class="st25" d="M600.2,126.1c2.1,1.5,4.7,2,7.9,1.7c1.4,0.5,3.1,0.8,5,1c0.6,2.5,0.5,5.1-0.2,7.6c1.1,0.1,2.2,0.4,3.3,0.9
		l-4.4,2.1c-1.1,1.8-1.9,3.9-2.5,6.3c-0.4,1.4-1,2.9-1.6,4.3l-0.6,0.7l0.3,1.2l-0.8,0.7l0,1.3l-0.5,0.4l-1.7,0.8l-0.9-1.8
		c0.3-1.5,1-3.3,1.9-5.3l-0.1-0.9c0.2-0.1,0.4-0.3,0.6-0.7l1.2-2l0.3-0.7l0.8-2.6c-0.9,0.2-1.8,0.7-2.7,1.5c-1.1,0.2-2,0.8-3,1.6
		c-4.5-3.7-2.5-5.9,6-6.7c0.9-1.5,1.4-3.4,1.5-5.5C598.2,131.6,594.9,129.6,600.2,126.1z"/>
	<path class="st25" d="M625.5,124.5c2.1,0.5,3.2,2.3,3.3,5.3c-1.9,5.1-1.9,10.6-0.2,16.5l-1.4,1.5c-1-0.8-2-1.9-3.1-3.1
		c0.1-1.6-0.1-3.2-0.5-4.7l-0.3-3l0.1-2.6l0.3-0.9l-0.3-3c-0.1-0.8,0-1.8,0.5-3.1l-0.1-1.3L625.5,124.5z"/>
	<path class="st25" d="M643.2,124.2l-0.3,0l0.7-0.1L643.2,124.2l0.7-0.1l-0.4,0l0.4,0c6.8,1.3,8.7,5.5,5.5,12.6
		c-4,8.9-9.3,11.6-15.8,8.3c-2.1-3.9-3-8.3-2.5-13.3c0.4-0.7,0.8-1.6,1.1-2.5c1.2-0.9,2.8-1.7,4.6-2.2l2.3-1
		c0.2-0.1,0.4-0.3,0.6-0.7l1-0.5l1-0.1c0.3,0,0.7-0.2,1-0.4L643.2,124.2z M642.2,128.1c-5.6,3-7.5,6.9-5.7,11.7
		c-0.4,0.7-0.5,1.6-0.4,2.5c3.7,1.6,6.6,0.6,8.7-3c2-1,3.2-2.9,3.6-5.6C648.4,129.7,646.3,127.8,642.2,128.1z"/>
	<path class="st25" d="M663.7,124.6l-0.3,0l0.7-0.1L663.7,124.6l0.7-0.1l-0.4,0l0.4,0c6.8,1.2,8.6,5.2,5.5,11.9
		c-4.1,8.5-9.3,11.1-15.8,8c-2.1-3.7-2.9-7.9-2.4-12.6c0.4-0.7,0.8-1.5,1.1-2.4c1.2-0.9,2.8-1.6,4.6-2.2l2.3-0.9
		c0.2-0.1,0.4-0.3,0.6-0.7l1-0.4l1-0.1c0.3,0,0.7-0.1,1-0.4L663.7,124.6z M662.8,128.3c-5.6,2.9-7.5,6.6-5.8,11.2
		c-0.4,0.7-0.5,1.5-0.4,2.4c3.6,1.5,6.5,0.5,8.7-2.9c2-1,3.2-2.8,3.6-5.3C668.9,129.8,666.8,128,662.8,128.3z"/>
</g>
<g>
	<g>
		<g>
			<path d="M996.1,230.1c0,0,21.8,12.6,27.8,20.4c17.4,22.6,47,104.3,36.8,124.4c-5.8,11.3-42,12-48.2-23L996.1,230.1z"/>
		</g>
		<g>
			<path class="st26" d="M870.7,623.2c4.6,45.2,5,55.1,10.6,87c5.6,31.9,27.1,79.6,25.3,100.5c-1.6,19.2-2.9,25.8-7.6,35.3
				c-1.7,3.5-3.1,6.8-4.4,8.5c-0.8,1-1.3,2.1-1.5,3c-0.5,1.9,0.9,3.8,2.9,3.8l30.6,0.2c2.8,0,5-2.2,5-5l0.2-18.4l-0.4-15.2
				c0,0-1.8-11.5-1.8-17.2c0-40.2,8.5-96.8,7.1-121.2c-3.4-57.9-8.5-65.3-8.5-65.3s-55.1-7.4-53.9,4H870.7z"/>
		</g>
		<g>
			<path class="st26" d="M956.8,843.5c1.9,4.3,1.2,10.9,1.7,13.7c0.3,1.7,1.8,3,3.6,3h35.7c0,0,2.1-3.1-4.3-7.2
				c-2.7-1.8-7.1-6.9-7.1-6.9s-9.5-17.1-8.4-37.9c1.1-21,11.6-66.1,17.2-97.9c5.6-31.9,11-60,11-89.5l-13.5-2.2
				c0-11.4-42.6-5.6-42.6-5.6s-6.3,24.2-6.4,77.5c0,22.8,8.8,80.2,8.8,111.2c0,0-1,17.9-0.9,22.4S956.8,843.5,956.8,843.5z"/>
		</g>
		<g>
			<path d="M1036,482.8c-5.7-35.6-16.2-54.9-23.8-73.8c-1.4-3.5-5.6-17.6-5.6-17.6l-147.3-1.8c0,0-5.3,17.2-6.7,20.8
				c-7.6,18.9-11.5,37.1-18.2,72.5c-15.8,83.7-21.7,177.8-20.6,181.8c1.2,3.9,16,4.3,32.7-0.3c20.8-5.8,54-17.2,90.3-23
				c0.6-0.1,1.6-0.4,2.3-1.3c2-2.7,3.7-8.3,3.7-8.3s4.7,6.7,5.8,7.8c1.1,1.1,3.6,1.8,7.1,1.3c64.3-9,95.4-4.4,101-9.7
				C1062.7,625.6,1043.3,528.8,1036,482.8L1036,482.8z"/>
		</g>
		<g>
			<path class="st27" d="M939.8,92.2c0,0-17.7-8.5-34.4,5.8c-17.1,14.6-16.8,26.3-16.5,43.9c0.3,17.6,5,31.2,1.8,45
				c-1.5,6.4-10.3,11.7-10.6,12.8c-0.3,1.1,14.8,12.2,53.1,13.4c11.9,0.4,22.5,1.2,37.6-2.1c6-1.3,19.7-7.3,19.9-7.9
				s-10.7-11.9-12.4-20.7c-1.4-6.8,1.9-24,1.3-38.3c-0.6-14.4-3-31.5-13.3-44C951,84.9,939.8,92.2,939.8,92.2L939.8,92.2z"/>
		</g>
		<path d="M817.4,341.8c5-28.6,15.2-85.4,18-92.5c4.8-12,23.4-18.1,23.4-18.1l34.8-13.5c0,0-35.7,136.8-38.4,148.5
			s-4.9,16.1-4.9,16.1L817.4,341.8z"/>
		<g>
			<path d="M934,201c-10.5,3.8-63.5,23.7-78.1,40.2c-8.8,9.9-0.1,22.5,2,46.8c0.7,8.1-7.3,25.9-6.2,34.1c2.5,19.9,5.3,39.1,5.3,52.6
				c0,12.3-11.7,59.3-11.7,59.3s62.9-40.7,88.7-40.5c25.8-0.3,70-2.3,70-2.3s6.9-4.3,6.9-16.5c0-13.4,2.8-32.7,5.3-52.6
				c1-8.2-6.9-26-6.2-34.1c2.1-24.3,10.8-36.9,2-46.8C997.4,224.7,944.5,204.8,934,201z"/>
		</g>
		<g>
			<path class="st28" d="M856.4,373c0.9-4.9-1.1-19.7-2.7-31.6c-0.7-4.8-1.3-9.4-1.6-12.5c-1.1-10.7,1.1-18.9,3-26.1
				c1-3.8,1.9-7.3,2.2-10.7c0.7-9.5,0.6-25.4-4.7-33c-0.2-0.3-0.1-0.7,0.2-0.9c0.3-0.2,0.7-0.2,0.9,0.2c4.3,8.3,5.8,23.9,5,33.9
				c-0.3,3.4-1.2,7.1-2.2,10.9c-1.9,7.1-4,15.2-3,25.7c0.3,3.1,0.9,7.7,1.6,12.5c1.6,12,3.6,27,2.7,32c0,0-0.1,1-0.7,1
				S856.4,373,856.4,373z"/>
		</g>
		<g>
			<path class="st29" d="M893.7,139.9c0.3,0,0.6-0.2,0.6-0.5c1.4-7,5-13.5,10.3-18.3c1.8-1.7,4.4-3.1,6.8-4.5c1.7-1,3.4-1.9,4.8-2.9
				c8.6-6.2,14.4-12,18-18.4c0.2-0.3,0.1-0.7-0.2-0.9c-0.3-0.2-0.7-0.1-0.9,0.2c-3.6,6.2-9.2,11.9-17.7,18c-1.4,1-3,1.9-4.7,2.9
				c-2.5,1.4-5.1,2.9-7.1,4.7c-5.5,5-9.2,11.7-10.7,19c-0.1,0.4,0.2,0.7,0.5,0.8C893.7,139.9,893.7,139.9,893.7,139.9z"/>
		</g>
		<g>
			<path class="st29" d="M973.3,150.2c0.3,0,0.5-0.2,0.6-0.4c2-5.9,0.9-13.2-2.9-20c-3.1-5.6-7.6-10.3-12-14.9l-0.9-1
				c-4.8-5-8.2-10-10.9-16c-0.1-0.3-0.5-0.5-0.9-0.3c-0.3,0.1-0.5,0.5-0.3,0.9c2.8,6.2,6.3,11.3,11.1,16.3l0.9,1
				c4.3,4.5,8.7,9.2,11.8,14.6c3.6,6.5,4.6,13.4,2.8,19c-0.1,0.3,0.1,0.7,0.4,0.8C973.2,150.2,973.3,150.2,973.3,150.2z"/>
		</g>
		<g>
			<path d="M974.6,214.9c-10.2-16.6-38.7-21.3-39.4-21.2c-0.7-0.1-29.2,4.6-39.4,21.2c-10,16.4-7.9,35.8-7.9,35.8l15.1-11.3
				l32.2,29.6l32.2-29.6l15.1,11.3C982.5,250.8,984.6,231.3,974.6,214.9L974.6,214.9z"/>
		</g>
		<g>
			<path class="st28" d="M1014.5,310.1c-0.3,0-0.6-0.3-0.6-0.6c-0.2-5-1.3-10.1-2.4-15.1c-0.9-4.1-1.8-8.2-2.2-12.4
				c-0.9-9.6,2.8-25.3,6.7-33.4c0.2-0.3,0.5-0.5,0.9-0.3c0.3,0.2,0.5,0.5,0.3,0.9c-3.8,7.9-7.5,23.6-6.6,32.7
				c0.4,4,1.3,8.2,2.2,12.2c1.1,5,2.2,10.2,2.4,15.3C1015.1,309.8,1014.9,310.1,1014.5,310.1
				C1014.5,310.1,1014.5,310.1,1014.5,310.1z"/>
		</g>
		<g>
			<path class="st23" d="M953.5,416.7V286c0-1.1,0.8-2,1.9-2.1l5.5-0.5c0.2,0,0.4,0,0.6,0l65.6,13c1,0.2,1.7,1.1,1.7,2.1V429
				c0,1.3-1.2,2.4-2.6,2.1l-4.2,1.8l-58.8-12.4l-7.6-1.7C954.6,418.9,953.5,417.9,953.5,416.7z"/>
		</g>
		<g>
			<path class="st26" d="M956.9,418.4l66.1,14.1l4.5-1.8l-65.1-13.5l-5.4,0.4C956.4,417.6,956.4,418.3,956.9,418.4z"/>
		</g>
		<g>
			<path class="st26" d="M961.6,416c-0.4,0-0.6-0.3-0.7-0.6l-0.6-129.7c0-0.4,0.3-0.7,0.6-0.7c0.3-0.1,0.7,0.3,0.7,0.6l0.6,129.7
				C962.3,415.7,962,416,961.6,416C961.6,416,961.6,416,961.6,416z"/>
		</g>
		<g>
			<path class="st30" d="M935.6,194.4c0,0-0.3,0.1-0.9,0.4c-0.6-0.3-0.9-0.4-0.9-0.4H935.6z"/>
		</g>
		<path class="st30" d="M958.2,211.4c-2.2-12.3-4-25.5-4.3-37.5h-39.7c0,13-1.1,25.9-3.6,38.8c-1.2,2.5-1.8,5.2-1.8,8.1c0,0,0,0,0,0
			h0c0,1.1,0.2,2.3,0.5,3.4c4,17.5,22,40.3,25.4,44.4c3.4-4.2,21.4-26.9,25.4-44.4C961.2,219.4,960.2,215.1,958.2,211.4z"/>
		<g>
			<path class="st26" d="M982,345.2c1.8-7.8,6.1-14.5,7.7-14.2c1.5,0.4,0.9,6.8-1,14.6c-1.8,7.8-5.6,13.8-7.1,13.4
				C980.1,358.7,980.2,353,982,345.2L982,345.2z"/>
		</g>
		<g>
			<path class="st30" d="M1006.8,341.6l-21.4-11.7c0,0-3.9-9.9-5.9-12.9c-2.4-3.4-6.6-4.5-11.3-9.3c-3.2-3.2-5-8-6.1-8.5
				c-1.2-0.6-3.4,3.3-2,9.3c1.5,6.5,8.6,9.8,8.6,9.8s-11.9-1.9-14.5-7c-0.2-0.4-0.5-3.5-0.5-3.5s-6.6-0.3-7.4,3.3
				c-0.7,3.2,0.8,5.4,0.8,5.4s-3.4,0.4-3.4,3.9s3.2,6.6,3.2,6.6s-3.8,1-0.5,8.7c0.5,2.6,0.9,5.1,1.8,6.6c1.5,2.5,7,5.6,9.9,6.2
				c5.1,1.1,21.4,2.9,21.4,2.9l24,14.7L1006.8,341.6z"/>
		</g>
		<g>
			<path class="st31" d="M956.7,325.4c-0.1,0-0.2,0-0.2,0c-3.8-1.6-7.4-4.5-10.1-8.4c-0.2-0.3-0.1-0.7,0.2-0.9
				c0.3-0.2,0.7-0.1,0.9,0.2c2.6,3.6,6,6.4,9.6,7.9c0.3,0.1,0.5,0.5,0.4,0.8C957.2,325.2,957,325.4,956.7,325.4z"/>
		</g>
		<g>
			<path class="st31" d="M955.5,332.8c-0.1,0-0.1,0-0.2,0c-3.2-0.9-7.2-3.5-8.9-5.5c-0.2-0.3-0.2-0.7,0.1-0.9
				c0.3-0.2,0.7-0.2,0.9,0.1c1.6,1.8,5.4,4.3,8.3,5.1c0.3,0.1,0.6,0.5,0.5,0.8C956,332.7,955.8,332.8,955.5,332.8z"/>
		</g>
		<g>
			<path class="st31" d="M954,340.9c-0.1,0-0.2,0-0.3-0.1c-2.9-1.3-6.5-3.5-8.1-5.7c-0.2-0.3-0.1-0.7,0.1-0.9
				c0.3-0.2,0.7-0.1,0.9,0.1c1.4,2,4.9,4.1,7.6,5.3c0.3,0.1,0.5,0.5,0.3,0.9C954.5,340.7,954.3,340.9,954,340.9z"/>
		</g>
		<g>
			<path d="M989.7,331c3.5,1.2,4.3,1.1,11.2,3.4c9.6-3.1,19,0.5,23.5,1.4c27.7,5.6,27.9,5.2,34.3,11.5c8.6,8.6,4.2,30.2,1.2,36.3
				c-2.3,4.7-23.7,7.6-39.2,1.9c-7.1-2.7-16.2-8.6-24.9-14.4c-1.9-1.2-3-5-4.8-6.2c-3.4-2.2-6.6-4.3-9.4-5.9
				C989.2,352.3,991.8,335.5,989.7,331L989.7,331z"/>
		</g>
		<g>
			<path class="st28" d="M992.6,365.7c-0.2,0-0.4-0.1-0.5-0.3c-0.2-0.3-0.2-0.7,0.1-0.9c4.2-3.2,9.2-15.7,8-28.6
				c0-0.4,0.2-0.7,0.6-0.7c0.4,0,0.7,0.2,0.7,0.6c1.2,13.4-4.1,26.3-8.5,29.7C992.9,365.6,992.7,365.7,992.6,365.7z"/>
		</g>
		<path class="st30" d="M968,150.5c-0.8-30-22.3-30-25.4-42.3c1.2,4.5-5.8,6.9-9.3,9.3c-11.5,8.2-30.4,2.1-34.7,33
			c0,4.5-1.2,12.6-0.7,16.8c1.7,14.8,21.8,32.8,35.4,33.3c13.6-0.5,33.7-18.5,35.4-33.3C969.2,163.1,968,155,968,150.5z"/>
		<g>
			<path d="M953.4,150.9c0-2.8-1.5-4.7-3.3-4.7c-1.8,0-3.3,1.9-3.3,4.7c0,2.8,1.5,5.1,3.3,5.1C952,155.9,953.4,153.7,953.4,150.9
				L953.4,150.9z"/>
		</g>
		<g>
			<path class="st27" d="M957.6,143c0.2,0,0.3,0,0.5-0.1c0.5-0.3,0.4-1.2,0-1.6c-2-1.9-3.6-2.4-6.5-2.9c-3.4-0.5-6.4,0.4-9.1,2.5
				c-0.4,0.3-0.5,1.2-0.2,1.7c0.4,0.4,1.7,0.3,2.2,0.1c4-1.4,4.5-2,6.4-2c2.4,0,4.2,0.6,5.9,2C957,142.7,957.2,143,957.6,143z"/>
		</g>
		<g>
			<path d="M913.1,151c0-2.8,1.5-4.7,3.3-4.7c1.8,0,3.3,1.9,3.3,4.7c0,2.8-1.5,5.1-3.3,5.1C914.6,156.1,913.1,153.8,913.1,151
				L913.1,151z"/>
		</g>
		<g>
			<path class="st31" d="M936.7,167c1-0.4,2.2-1.4,2.2-2.9c0-1.1-0.6-1.9-1.3-2.8c-0.5-0.7-1-1.3-1.4-2.2c-2.2-5-2.7-8.2-1.8-10.3
				c0.1-0.3,0.5-0.5,0.9-0.3c0.3,0.1,0.5,0.5,0.3,0.9c-0.7,1.7-0.2,4.7,1.8,9.3c0.3,0.7,0.8,1.3,1.2,1.9c0.8,1,1.6,2.1,1.6,3.7
				c0,1.7-1.1,3.1-2.9,4.1c-1.1,0.6-2.5,0.9-3.8,1c0,0-0.8,0-1.4,0s-0.6-1.5,0.3-1.4S934.9,167.6,936.7,167z"/>
		</g>
		<g>
			<path class="st32" d="M922.6,177.4c0,0,5.3-3.1,7.4-2.5c2.1,0.6,2.8,1.8,3.7,2.5c1.3-1,2.1-2.4,4.1-2.4c2,0,5.4,2.2,6.1,2.9
				c-0.7,2.9-5.4,6.6-10.5,6.6C925,184.4,922.6,177.4,922.6,177.4z"/>
		</g>
		<g>
			<path class="st31" d="M934,205.5c10.6-1.7,18.4-14.3,18.1-14c-4.4,3.9-9.4,6.2-20.2,6.4c-10.8,0.2-18.3-6.4-18.3-6.4l-0.3,3.7
				C913.2,195.2,923.3,207.2,934,205.5z"/>
		</g>
		<path class="st28" d="M976.9,218.3c-0.1-0.3-0.5-0.5-0.9-0.3c-0.3,0.1-0.5,0.5-0.3,0.9c5.7,13,6.2,26.6,6.2,30.7L967.8,239
			c-0.2-0.2-0.6-0.2-0.8,0l-31.8,29.2L903.4,239c-0.2-0.2-0.6-0.2-0.8,0l-14.1,10.5c-0.1-4,0.2-17.1,6.1-30.6c0.1-0.3,0-0.7-0.3-0.9
			c-0.3-0.1-0.7,0-0.9,0.3c-7.2,16.4-6.2,32.2-6.2,32.4c0,0.2,0.2,0.4,0.4,0.5c0.2,0.1,0.5,0.1,0.7-0.1l14.7-10.9l31.5,28.9
			c0,0,0,0.1,0.1,0.1l0.2,0.2c3.2,4.2,5.3,7,6,9.7c0.7,2.7,1.5,9.6,1.5,14.5c0,0-2.4,203-2.4,233.8s2.5,103.4,2.5,103.4
			c0,0.4,0.3,0.7,0.6,0.7c0,0,0,0,0,0c0.4,0,0.7-0.3,0.7-0.6c0,0-2.5-79-2.5-103.3s2.4-233.9,2.4-233.9c0-5-0.8-12.1-1.6-14.8
			c-0.7-2.8-2.8-5.6-5.9-9.7l31.5-28.9l14.7,10.9c0.2,0.1,0.4,0.2,0.7,0.1c0.2-0.1,0.4-0.3,0.4-0.6
			C983.2,250.6,983.9,234.1,976.9,218.3z"/>
		<g>
			<path class="st27" d="M933.4,180.2c4.5,0,8.4-0.6,11.5-1.4c0.4-0.1,0.5-0.6,0.3-0.9c-0.2-0.3-0.6-0.3-1-0.2
				c-5.1,1.3-14.5,2.1-21.6-0.5c-0.4-0.1-0.8-0.1-1,0.1c-0.2,0.3-0.2,0.8,0.2,0.9C925.5,179.5,929.4,180.2,933.4,180.2z"/>
		</g>
	</g>
	<g>
		<g>
			<path class="st26" d="M763,339.2c2.9-8.6,8.4-15.9,10.1-15.3c1.7,0.6,0.3,7.8-2.6,16.4c-2.9,8.6-7.7,15.1-9.4,14.5
				C759.4,354.3,760.1,347.8,763,339.2L763,339.2z"/>
		</g>
	</g>
	<g>
		<g>
			<g>
				<path class="st33" d="M782.2,335.5l-25-22.8c0,0-24.3-11.6-26.7-9.2c-2.5,2.4-11.9,25-11.9,25s10.2,9.7,34.8,13.5
					c2,0.3,16.9,13.1,16.9,13.1L782.2,335.5z"/>
			</g>
			<g>
				<g>
					<path class="st33" d="M765.2,320.9c0,0-1.4-4.6-6-10.9c-2.3-3.2-5.9-6.4-9.5-10.3c-6.6-5.7-6.9-17.9-11.2-14.4
						c-3,2.1-1.8,11.2,1,13.7c2.9,2.5,4.3,7.4,3.9,7.9c-0.1,0.2-0.5,1.1-0.4,1.9c0.3,8.5,4.3,13.1,10.2,19.2l2.3,2.3L765.2,320.9z"
						/>
				</g>
			</g>
		</g>
		<g>
			<rect x="730.9" y="277.3" class="st9" width="6.8" height="47.7"/>
			<path class="st34" d="M734.3,327.8c-0.7,0-1.3-0.3-1.3-0.7c0-0.4,0.6-0.7,1.3-0.7c0.7,0,1.3,0.3,1.3,0.7
				C735.6,327.5,735,327.8,734.3,327.8z"/>
			<rect x="730.9" y="325" class="st35" width="6.8" height="2.2"/>
			<rect x="730.9" y="266" class="st35" width="6.8" height="11.3"/>
			<rect x="731.6" y="265.2" class="st34" width="5.3" height="0.8"/>
			<rect x="731.6" y="277.3" class="st11" width="2.6" height="47.7"/>
			<rect x="730.9" y="277.3" class="st12" width="6.8" height="0.5"/>
			<rect x="730.9" y="267" class="st36" width="6" height="0.6"/>
			<rect x="730.9" y="269.9" class="st36" width="6" height="0.6"/>
			<rect x="730.9" y="272.7" class="st36" width="6" height="0.6"/>
			<rect x="730.9" y="275.5" class="st36" width="6" height="0.6"/>
			<rect x="730.9" y="268.4" class="st36" width="6" height="0.6"/>
			<rect x="730.9" y="271.3" class="st36" width="6" height="0.6"/>
			<rect x="730.9" y="274.1" class="st36" width="6" height="0.6"/>
			<rect x="738.4" y="266" class="st35" width="0.6" height="16.3"/>
			<rect x="737.6" y="267" class="st34" width="0.7" height="2"/>
		</g>
		<g>
			<path class="st37" d="M736,311.9l-12.9-4.9c-1.9-0.8-2.8-3.1-2-5l0,0c0.8-1.9,3.1-2.8,5-2l12.9,4.9c1.9,0.8,2.8,3.1,2,5l0,0
				C740.2,311.8,737.9,312.7,736,311.9z"/>
		</g>
		<g>
			<path class="st37" d="M736.2,320.2l-16.3-6.9c-1.8-0.8-2.6-3-1.8-4.9l0,0c0.8-1.9,3-2.9,4.8-2.1l16.3,6.9c1.8,0.8,2.6,3,1.8,4.9
				l0,0C740.1,320.1,738,321,736.2,320.2z"/>
		</g>
		<g>
			<path class="st37" d="M736,328.4l-17-7.4c-1.7-0.7-2.4-2.9-1.6-4.8l0,0c0.8-1.9,2.9-2.9,4.6-2.2l17,7.4c1.7,0.7,2.4,2.9,1.6,4.8
				l0,0C739.8,328.2,737.7,329.1,736,328.4z"/>
		</g>
		<g>
			<path class="st30" d="M728.8,333.2l-10-4.6c-1.6-0.7-2.2-2.7-1.5-4.5l0.2-0.5c0.8-1.8,2.7-2.7,4.2-2l10,4.6
				c1.6,0.7,2.2,2.7,1.5,4.5l-0.2,0.5C732.3,332.9,730.3,333.8,728.8,333.2z"/>
		</g>
	</g>
	<g>
		<path d="M773.1,323.9c3.8,1.7,4.8,1.7,12.4,5c11.1-2.6,21.5,2.5,26.5,3.9c30.8,9.2,31.1,8.7,37.7,16.5c8.8,10.6,1.7,34.7-2.3,41.3
			c-3.1,5.1-27.7,6.2-44.6-1.9c-7.8-3.7-17.5-11.4-26.7-18.8c-2-1.6-2.9-6-4.8-7.5c-3.6-2.9-7-5.5-10.1-7.6
			C770.4,347.9,775.1,329.1,773.1,323.9L773.1,323.9z"/>
	</g>
	<g>
		<path class="st28" d="M772.9,363.4c-0.2,0-0.4-0.1-0.6-0.3c-0.2-0.3-0.1-0.8,0.2-1c5.1-3.2,12.1-16.8,12-31.6
			c0-0.4,0.3-0.7,0.7-0.7c0.4,0,0.7,0.3,0.7,0.7c0.1,15.3-7.4,29.4-12.7,32.9C773.2,363.4,773,363.4,772.9,363.4z"/>
	</g>
	<path class="st38" d="M770.6,339"/>
	<path class="st28" d="M875.5,296.6c0.2-1.4,1.7-1.1,1.6,0.1c-0.1,1.3-0.8,7.9-0.6,8.3c0.1,0.2,10.2-0.4,20.5-0.3
		c4,0,7.2,0.1,11.6,0.3c4.4,0.2,8.9,0.3,9.3,0.3c0-2.5,0-7-0.1-7.8c-0.1-1,1.4-2,1.6,0c0.2,1.9,0.2,7.7,0.2,8.6c0,1-1.1,0.7-2.4,0.7
		c-0.6,0-10.4-0.5-20.3-0.6c-10.3-0.1-20.8,0.6-21.2,0.6c-0.8,0-0.8-0.4-0.8-1.6C874.9,303.9,875.5,296.6,875.5,296.6z"/>
	<g>
		<path class="st28" d="M932.4,280.7c0-1.3,1-2.3,2.3-2.3c1.3,0,2.3,1,2.3,2.3c0,1.3-1,2.3-2.3,2.3C933.4,283,932.4,282,932.4,280.7
			z"/>
	</g>
	<g>
		<path class="st28" d="M932.4,327.9c0-1.3,1-2.3,2.3-2.3c1.3,0,2.3,1,2.3,2.3c0,1.3-1,2.3-2.3,2.3
			C933.4,330.2,932.4,329.1,932.4,327.9z"/>
	</g>
	<g>
		<path class="st28" d="M932.4,375c0-1.3,1-2.3,2.3-2.3c1.3,0,2.3,1,2.3,2.3c0,1.3-1,2.3-2.3,2.3C933.4,377.3,932.4,376.3,932.4,375
			z"/>
	</g>
	<path class="st30" d="M967.9,165.2c0,0,4.3-5.4,3.7-12.7s-1.1-9.7-5.2-8.3C962.3,145.6,967.9,165.2,967.9,165.2z"/>
	<path class="st30" d="M899.3,148c0,0-3-1.1-3.4,2.1c-0.4,3.2-1.2,10.4,2.5,15.4C902,170.4,899.3,148,899.3,148z"/>
	<path class="st29" d="M971.2,175.3c0,0-0.4,9.1,2.4,18.3c0.9,3.2,2.4,7.4,4.2,9.6c0.6,0.7,2,1,0.7-1c-1.3-2-3.3-7.5-4.5-12.3
		s-1.8-13-1.6-14.4C972.6,174.2,971.4,173.3,971.2,175.3z"/>
	<path class="st29" d="M890.7,197.7c0,0,6-2.5,6.1-9.6c0.1-8-0.8-14-1.2-16.3c-0.4-2.3,0.5-2,0.8-0.1c0.3,1.4,1.1,6.6,1.2,11.7
		c0.1,1.8,0.2,4.9-0.1,6.4c-0.7,4.5-2.6,6.4-6.2,8.4C890.1,198.6,890.7,197.7,890.7,197.7z"/>
	<g>
		<g>
			<path class="st39" d="M980.3,826.9c3.4,7.7,8.9,18.1,17.3,28.4c1.2,1.4,1.2,7.3,1.2,7.3l-45.9-0.5l-1.2-37.9c0,0,1.5,3.9,3.2,2.5
				c2.2-1.8,1.5-8.3,9.6-9.1C974.1,816.5,978.5,822.6,980.3,826.9L980.3,826.9z"/>
		</g>
		<g>
			<path class="st40" d="M998.1,857.2c0,0,0.2,0.3,0.4,1.6c0.1,1.3,0.2,3.7,0.2,3.7l-45.9-0.5l-0.2-6.2c0,0,17.8,0,24.1,0.3
				C983.1,856.4,998.1,857.2,998.1,857.2z"/>
		</g>
		<g>
			<path d="M997.7,857.9C997.7,857.9,997.7,857.9,997.7,857.9c-14.3-1.3-28.9-1.7-43.2-1.4c-0.3,0-0.7-0.3-0.7-0.6
				c0-0.4,0.3-0.7,0.6-0.7c14.4-0.4,29,0.1,43.3,1.4c0.4,0,0.6,0.3,0.6,0.7C998.3,857.7,998,857.9,997.7,857.9z"/>
		</g>
		<g>
			<path class="st30" d="M963.5,844.3c-0.1,0-0.3,0-0.4-0.2c-0.3-0.2-0.3-0.6-0.1-0.9c1.6-1.9,5.3-3.5,8.9-3.8
				c2.8-0.2,7,0.1,10.6,3.2c0.3,0.2,0.3,0.6,0.1,0.9c-0.2,0.3-0.6,0.3-0.9,0.1c-3.3-2.8-7-3.1-9.6-2.9c-3.7,0.3-6.8,1.9-8,3.3
				C963.9,844.2,963.7,844.3,963.5,844.3z"/>
		</g>
		<g>
			<path class="st30" d="M963,837.6c-0.1,0-0.3,0-0.4-0.1c-0.3-0.2-0.3-0.6-0.1-0.9c1.3-1.7,3.8-2.9,6.8-3.2
				c4.1-0.5,8.1,0.6,10.8,2.8c0.3,0.2,0.3,0.6,0.1,0.9c-0.2,0.3-0.6,0.3-0.9,0.1c-2.4-2-6.2-2.9-9.8-2.5c-2.7,0.3-4.9,1.3-5.9,2.7
				C963.4,837.5,963.2,837.6,963,837.6z"/>
		</g>
		<g>
			<path class="st30" d="M962.5,831.5c-0.2,0-0.4-0.1-0.6-0.3c-0.2-0.3-0.1-0.7,0.2-0.9c4.9-2.9,11.2-3.1,16.2-0.4
				c0.3,0.2,0.4,0.6,0.3,0.9c-0.2,0.3-0.6,0.4-0.9,0.3c-4.6-2.5-10.5-2.4-14.9,0.3C962.7,831.5,962.6,831.5,962.5,831.5z"/>
		</g>
	</g>
	<g>
		<g>
			<path class="st39" d="M931.2,822.9c-0.5,0.5,0.2,5-3.9,3.8c-2.6-0.8-2.3-5.8-7.4-8.3c-4.4-2.1-14.8-0.1-15.5,5.9
				c-0.7,6-11.4,26.4-14.1,28.9c-2.7,2.5-1.6,8.9-1.6,8.9l45.1-0.3C933.6,861.9,933,830,931.2,822.9z"/>
		</g>
		<g>
			<path class="st40" d="M888.6,856.3c0,0-0.2,0.6-0.3,1.9c-0.1,1.3,0.2,4,0.2,4l45.1-0.3l-0.2-7.2c0,0-17.2-0.1-23.5,0.3
				C903.5,855.3,888.6,856.3,888.6,856.3z"/>
		</g>
		<g>
			<path d="M889.3,856.9c-0.3,0-0.6-0.3-0.6-0.6c0-0.4,0.2-0.7,0.6-0.7c14.4-1.3,29-1.7,43.4-1.4c0.4,0,0.6,0.3,0.6,0.7
				c0,0.4-0.3,0.7-0.7,0.6C918.2,855.1,903.7,855.6,889.3,856.9C889.3,856.9,889.3,856.9,889.3,856.9z"/>
		</g>
		<g>
			<path class="st30" d="M920.7,843.2c-0.2,0-0.4-0.1-0.5-0.2c-1.2-1.4-4.3-3-8-3.3c-2.6-0.2-6.4,0.1-9.7,2.9
				c-0.3,0.2-0.7,0.2-0.9-0.1c-0.2-0.3-0.2-0.7,0.1-0.9c3.6-3.1,7.8-3.5,10.6-3.2c3.7,0.3,7.3,1.8,8.9,3.8c0.2,0.3,0.2,0.7-0.1,0.9
				C921,843.1,920.9,843.2,920.7,843.2z"/>
		</g>
		<g>
			<path class="st30" d="M921.2,836.5c-0.2,0-0.4-0.1-0.5-0.3c-1.1-1.4-3.3-2.4-6-2.7c-3.7-0.4-7.5,0.5-9.9,2.5
				c-0.3,0.2-0.7,0.2-0.9-0.1c-0.2-0.3-0.2-0.7,0.1-0.9c2.7-2.2,6.8-3.3,10.8-2.8c3,0.4,5.5,1.5,6.8,3.2c0.2,0.3,0.2,0.7-0.1,0.9
				C921.4,836.4,921.3,836.5,921.2,836.5z"/>
		</g>
		<g>
			<path class="st30" d="M921.7,830.4c-0.1,0-0.2,0-0.3-0.1c-4.5-2.7-10.4-2.8-15-0.3c-0.3,0.2-0.7,0.1-0.9-0.3
				c-0.2-0.3-0.1-0.7,0.3-0.9c5-2.7,11.4-2.6,16.3,0.4c0.3,0.2,0.4,0.6,0.2,0.9C922.1,830.3,921.9,830.4,921.7,830.4z"/>
		</g>
	</g>
	<g>
		<path class="st27" d="M909,142.8c-0.2,0-0.3,0-0.5-0.1c-0.5-0.3-0.4-1.2,0-1.6c2-1.9,3.6-2.4,6.5-2.9c3.4-0.5,6.4,0.4,9.1,2.5
			c0.4,0.3,0.5,1.2,0.2,1.7c-0.4,0.4-1.7,0.3-2.2,0.1c-4-1.4-4.5-2-6.4-2c-2.4,0-4.2,0.6-5.9,2C909.6,142.5,909.3,142.8,909,142.8z"
			/>
	</g>
	<g>
		<g>
			<g>
				<polygon class="st19" points="935.7,253.3 935.7,252.8 934.9,252.8 934.9,249.7 934.3,249.8 934.3,252.8 933.5,252.8 
					933.5,253.3 934.3,253.3 934.3,254.3 934.9,254.3 934.9,253.3 				"/>
			</g>
		</g>
		<g>
			<g>
				<path class="st19" d="M934.6,242.1c-2.1,0-3.8,1.7-3.8,3.8c0,2.1,1.7,3.8,3.8,3.8c2.1,0,3.8-1.7,3.8-3.8
					C938.4,243.8,936.7,242.1,934.6,242.1z M934.6,249.3c-1.8,0-3.3-1.5-3.3-3.3c0-1.8,1.5-3.3,3.3-3.3c1.8,0,3.3,1.5,3.3,3.3
					C937.9,247.8,936.4,249.3,934.6,249.3z"/>
			</g>
		</g>
		<path class="st24" d="M935.9,242.4c0,0-0.1,0.3-0.2,0.5l0.1,0C935.9,242.9,935.9,242.7,935.9,242.4z"/>
		<g>
			<g>
				<path class="st19" d="M934.4,240.5c-0.9,0-1.6,0.7-1.6,1.6c0,0.9,0.7,1.6,1.6,1.6c0.9,0,1.6-0.7,1.6-1.6
					C936,241.2,935.3,240.5,934.4,240.5z M934.4,243.2c-0.6,0-1.1-0.5-1.1-1.1c0-0.6,0.5-1.1,1.1-1.1s1.1,0.5,1.1,1.1
					C935.5,242.7,935,243.2,934.4,243.2z"/>
			</g>
		</g>
		<path class="st24" d="M933.6,242.8c0,0-0.3,0.1-0.5,0.2l0.1,0.1C933.2,243.1,933.3,242.9,933.6,242.8z"/>
	</g>
	<path class="st19" d="M934.8,241.3c0,0,0.2,0,0.4-0.2c2.3-2,14.5-9.2,23.8-31.4l-0.2,0c0,0-3.7,8.6-9.4,16.8
		c-5.9,8.5-14.2,14.4-14.7,14.5c-0.4,0.1-11.7,0.6-27.1-34l5.7,12.3c0,0,5.4,9.9,10.7,15.3C930.3,241.6,934.5,241.3,934.8,241.3z"/>
	<path class="st27" d="M955.9,196.9c0,0,1.7,10.8-3.2,18.7c0,0,15-2,18.5-10.9C974.8,195.7,955.9,196.9,955.9,196.9z"/>
	<path class="st27" d="M909.1,198.7c0,0,0.2,16.4,8.4,22.9c0,0-15.1-4.3-22.4-16.6C887.9,192.7,909.1,198.7,909.1,198.7z"/>
	<path class="st24" d="M935.4,240.9c0,0-0.1,0.2-0.3,0.4l-0.1-0.1C935,241.2,935.2,241.1,935.4,240.9z"/>
	<path class="st24" d="M933.7,241.2c0,0,0.2-0.2,0.6-0.3c0,0-0.3,0.1-0.4,0.3L933.7,241.2z"/>
	<g>
		<path class="st28" d="M932.2,422.1c0-1.3,1-2.3,2.3-2.3c1.3,0,2.3,1,2.3,2.3c0,1.3-1,2.3-2.3,2.3
			C933.2,424.4,932.2,423.4,932.2,422.1z"/>
	</g>
	<g>
		<path class="st28" d="M931.2,469.3c0-1.3,1-2.3,2.3-2.3c1.3,0,2.3,1,2.3,2.3c0,1.3-1,2.3-2.3,2.3
			C932.3,471.6,931.2,470.5,931.2,469.3z"/>
	</g>
	<g>
		<path class="st28" d="M930.3,516.4c0-1.3,1-2.3,2.3-2.3c1.3,0,2.3,1,2.3,2.3s-1,2.3-2.3,2.3C931.3,518.7,930.3,517.7,930.3,516.4z
			"/>
	</g>
	<g>
		<path class="st28" d="M930.6,563.6c0-1.3,1-2.3,2.3-2.3c1.3,0,2.3,1,2.3,2.3c0,1.3-1,2.3-2.3,2.3
			C931.6,565.9,930.6,564.8,930.6,563.6z"/>
	</g>
	<g>
		<path class="st28" d="M932.6,610.7c0-1.3,1-2.3,2.3-2.3c1.3,0,2.3,1,2.3,2.3c0,1.3-1,2.3-2.3,2.3C933.6,613,932.6,612,932.6,610.7
			z"/>
	</g>
</g>
<g>
	<polygon class="st25" points="638.1,496.1 553.7,496.1 548.8,469 633.1,467.5 	"/>
	<g>
		<path class="st0" d="M568.3,484.1c-0.3-1.9,0.8-3.4,2.8-3.4c2.1,0,3.7,1.4,4,3.3c0.3,1.9-0.8,3.4-2.8,3.4
			C570.3,487.4,568.6,486,568.3,484.1z M573.1,484c-0.2-1.2-0.8-1.9-1.7-1.9c-0.9,0-1.2,0.8-1,1.9c0.2,1.2,0.8,1.9,1.7,1.9
			C572.9,486,573.3,485.2,573.1,484z"/>
		<path class="st0" d="M575.4,480.8l2,0l0.2,0.9l0,0c0.3-0.7,0.8-1.1,1.8-1.1c0.8,0,1.6,0.4,2,1.1l0,0c0.4-0.8,1-1.1,1.8-1.1
			c1.5,0,2.4,1,2.7,2.4l0.8,4.2l-2.1,0l-0.7-3.8c-0.1-0.7-0.5-1.1-1.1-1.1c-0.7,0-0.9,0.5-0.8,1.3l0.6,3.6l-2.1,0l-0.7-3.8
			c-0.1-0.7-0.5-1.1-1.1-1.1c-0.6,0-0.9,0.5-0.8,1.3l0.6,3.6l-2.1,0L575.4,480.8z"/>
		<path class="st0" d="M586.7,480.7l2,0l0.2,0.9l0,0c0.3-0.7,0.8-1.1,1.8-1.1c0.9,0,1.6,0.4,2.1,1.1l0,0c0.4-0.8,1-1.1,1.9-1.2
			c1.5,0,2.4,1,2.7,2.4l0.8,4.2l-2.1,0l-0.7-3.8c-0.1-0.7-0.5-1.1-1.1-1.1c-0.7,0-0.9,0.5-0.8,1.3l0.6,3.6l-2.1,0l-0.7-3.8
			c-0.1-0.7-0.5-1.1-1.1-1.1c-0.7,0-0.9,0.5-0.8,1.3l0.6,3.6l-2.1,0L586.7,480.7z"/>
		<path class="st0" d="M598.8,484.8l-0.8-4.2l2.1,0l0.7,3.8c0.1,0.7,0.5,1.1,1.2,1.1c0.7,0,1.1-0.5,0.9-1.3l-0.6-3.6l2.1,0l1.2,6.5
			l-2,0l-0.1-0.8l0,0c-0.4,0.6-0.9,1-1.8,1C600.1,487.2,599.1,486.3,598.8,484.8z"/>
		<path class="st0" d="M605.7,480.5l2.1,0l0.2,0.9l0,0c0.4-0.7,1-1.1,1.9-1.1c1.5,0,2.5,1,2.8,2.4l0.8,4.2l-2.2,0l-0.7-3.8
			c-0.1-0.7-0.6-1.2-1.3-1.1c-0.7,0-1.1,0.6-0.9,1.4l0.6,3.6l-2.1,0L605.7,480.5z"/>
		<path class="st0" d="M614,485.1c-0.3-1.4,0.9-1.9,2.2-2.1c1.2-0.2,1.7-0.3,1.6-0.7c-0.1-0.4-0.4-0.7-1.1-0.7c-0.7,0-1,0.3-1,0.9
			l-2,0c-0.2-1.2,0.6-2.3,2.7-2.3c1,0,1.7,0.2,2.3,0.5c0.7,0.4,1.1,1,1.2,1.9l0.6,3.3c0.1,0.5,0.2,0.8,0.4,0.9l0,0.1l-2.1,0
			c-0.1-0.1-0.2-0.4-0.4-0.7l0,0c-0.3,0.6-0.8,0.9-1.9,0.9C615.3,487.1,614.2,486.4,614,485.1z M618.3,484.6l-0.1-0.8
			c-0.3,0.1-0.6,0.2-1.1,0.4c-0.8,0.2-1.1,0.4-1,0.9c0.1,0.5,0.5,0.7,1.1,0.7C617.9,485.8,618.4,485.3,618.3,484.6z"/>
		<path class="st0" d="M620.4,477.8l2.2,0l1.6,9.2l-2.2,0L620.4,477.8z"/>
		<path class="st0" d="M626.3,483.9c-0.9,0-1.5,0.7-1.4,1.6c0.2,0.9,1,1.6,2,1.6c0.9,0,1.6-0.7,1.4-1.6
			C628.1,484.6,627.2,483.9,626.3,483.9z M626.7,486.3c-0.5,0-0.9-0.4-1-0.8s0.2-0.8,0.7-0.8c0.5,0,0.9,0.4,1,0.8
			C627.5,485.9,627.2,486.3,626.7,486.3z"/>
		<polygon class="st0" points="564.4,482 567.2,478.4 564.6,478.4 560.3,483.9 561,487.3 563.1,487.2 562.6,484.2 563.2,483.4 
			566.5,487.2 569,487.2 		"/>
		<polygon class="st0" points="561.5,478.4 559.3,478.5 560.2,482.9 561.9,480.6 		"/>
	</g>
</g>
</svg>
