<?xml version="1.0" encoding="utf-8"?>
<!-- Generator: Adobe Illustrator 27.0.1, SVG Export Plug-In . SVG Version: 6.00 Build 0)  -->
<svg version="1.1" id="Lager_1" xmlns="http://www.w3.org/2000/svg" xmlns:xlink="http://www.w3.org/1999/xlink" x="0px" y="0px"
	 viewBox="0 0 1600 900" style="enable-background:new 0 0 1600 900;" xml:space="preserve">
<style type="text/css">
	.st0{fill:#500B00;}
	.st1{fill:#D3A472;}
	.st2{fill:#B98A50;}
	.st3{clip-path:url(#SVGID_00000178890679962349269060000005097758221378645911_);}
	.st4{fill:#7D7B7B;}
	.st5{fill:#CECECE;}
	.st6{clip-path:url(#SVGID_00000125583348532182673620000011463867246798209970_);}
	.st7{fill:#002B33;}
	.st8{fill:#013F4B;}
	.st9{fill:#106B7A;}
	.st10{fill:#B9B9B9;}
	.st11{fill:#E5BB86;}
	.st12{fill:#A2A1A1;}
	.st13{fill:#BE6500;}
	.st14{fill:#454545;}
	.st15{fill:#333333;}
	.st16{fill:#FFDFB9;}
	.st17{fill:#FFFFFF;}
	.st18{fill:#CE9D00;}
	.st19{fill:#E6C80A;}
	.st20{fill:#2B2B2B;}
	.st21{fill:#542F06;}
	.st22{fill:#418C9A;}
	.st23{fill:#F3F3F3;}
	.st24{fill:#A7C7D1;}
	.st25{fill:#C2E0EE;}
	.st26{fill:#6B410C;}
	.st27{fill:#96672C;}
	.st28{fill:#226B00;}
	.st29{fill:#ED492E;}
</style>
<ellipse class="st0" cx="796.6" cy="852.3" rx="458.6" ry="40"/>
<g>
	<g>
		<g>
			<g>
				<path class="st1" d="M656.7,754c-5.7,14.2-11.3,37.8-11.1,43.3c0.3,5.5,3.1,13.1-0.3,18.1c-3.4,5-19.7,7.8-24.9,1.2
					c-5.1-6.6-5.4-13.1-1.7-22.3c3.7-9.2,11.9-47.5,12.4-55.8L656.7,754z"/>
			</g>
			<g>
				<path class="st2" d="M628.8,752.8c5,10.8,22.7,16.5,22.7,16.5l3.9-12.2L628.8,752.8z"/>
			</g>
			<g>
				<defs>
					<path id="SVGID_1_" d="M647.8,793.3c-6.5,0.7-7.9,15.1-13,15.7c-14.5,1.7-17.7-10.1-16.1-14.9c1-2.8-2.5-2.3-3.5,0.7
						c-1,3-3.4,13.2-5.2,17.6c-1.8,4.5-6,20.6-2.6,23.4c3.4,2.7,23.5,3.7,27.9,3.2c4.4-0.5,17.4,0,29.1,1.7
						c22.7,3.3,47-0.3,50.6-3.4c6.5-5.7,4.8-15.6-8.8-16.6c-7.8-0.5-25-7.8-33.3-11.7C664.5,805.2,651.3,792.9,647.8,793.3z"/>
				</defs>
				<use xlink:href="#SVGID_1_"  style="overflow:visible;fill:#FFFFFF;"/>
				<clipPath id="SVGID_00000165934755997504356160000000378457594553861039_">
					<use xlink:href="#SVGID_1_"  style="overflow:visible;"/>
				</clipPath>
				<g style="clip-path:url(#SVGID_00000165934755997504356160000000378457594553861039_);">
					<path class="st4" d="M606.2,823.8c9.2,7.3,32.2,3.2,40.3,4.2s34.1,7.6,54.8,6c12.5-1,18.2-4.5,19.9-5.2
						c1.7-0.7-3.7,17.6-3.7,17.6l-116.1-6L606.2,823.8z"/>
				</g>
				<g style="clip-path:url(#SVGID_00000165934755997504356160000000378457594553861039_);">
					<path class="st5" d="M650,810.7c0.8,0,1.6-0.5,2-1.3c0-0.1,3.1-6.3,7.8-10.9c0.9-0.9,0.9-2.3,0-3.2c-0.9-0.9-2.3-0.9-3.2,0
						c-5.2,5.2-8.5,11.8-8.6,12.1c-0.5,1.1-0.1,2.5,1,3C649.3,810.6,649.7,810.7,650,810.7z"/>
				</g>
				<g style="clip-path:url(#SVGID_00000165934755997504356160000000378457594553861039_);">
					<path class="st5" d="M658.7,814.6c0.8,0,1.7-0.5,2-1.3c0-0.1,3.1-6.6,6.4-10.1c0.9-0.9,0.8-2.3-0.1-3.2
						c-0.9-0.9-2.3-0.8-3.2,0.1c-3.8,4-7.1,11-7.2,11.3c-0.5,1.1,0,2.5,1.1,3C658,814.5,658.4,814.6,658.7,814.6z"/>
				</g>
				<g style="clip-path:url(#SVGID_00000165934755997504356160000000378457594553861039_);">
					<path class="st5" d="M668.2,816.6c0.8,0,1.6-0.5,2-1.3c0-0.1,2.5-5.1,4.8-8c0.8-1,0.6-2.4-0.4-3.2c-1-0.8-2.4-0.6-3.2,0.4
						c-2.6,3.3-5.2,8.6-5.3,8.9c-0.5,1.1-0.1,2.5,1,3C667.5,816.5,667.9,816.6,668.2,816.6z"/>
				</g>
			</g>
		</g>
		<g>
			<g>
				<path class="st1" d="M580.5,757.4c-1.4,17.9-3.5,51.4,0.2,56.4c1.8,2.4-10.3,21.5-23.7,15.8c-5.1-2.2-5.5-6.4-3.7-17.6
					c1.8-11.2,2.8-50.2,0.6-61.5L580.5,757.4z"/>
			</g>
			<g>
				<path class="st2" d="M555,765.5c9.9,9.2,24.3,8.3,24.3,8.3l0.6-10.1L555,765.5z"/>
			</g>
			<g>
				<defs>
					<path id="SVGID_00000033340300124224316360000003771071683811676848_" d="M583.8,805.1c-6.7,0.8-8,15.5-13.3,16.1
						c-14.8,1.7-16.7-10.6-16.6-15.7c0.1-3.6-2.4-1.9-3.4,1.2c-1.1,3.1-3.5,13.5-5.3,18.1c-1.8,4.6-6.1,21.1-2.7,23.9
						c3.5,2.8,24,3.8,28.5,3.3c4.5-0.5,17.9,0,29.8,1.7c23.3,3.4,48.1-0.3,51.8-3.5c6.6-5.8,4.9-16-9.1-17
						c-7.9-0.6-25.6-8-34.1-11.9C600.9,817.3,587.3,804.7,583.8,805.1z"/>
				</defs>
				<use xlink:href="#SVGID_00000033340300124224316360000003771071683811676848_"  style="overflow:visible;fill:#FFFFFF;"/>
				<clipPath id="SVGID_00000056422895492842985090000000542116125909042819_">
					<use xlink:href="#SVGID_00000033340300124224316360000003771071683811676848_"  style="overflow:visible;"/>
				</clipPath>
				<g style="clip-path:url(#SVGID_00000056422895492842985090000000542116125909042819_);">
					<path class="st4" d="M541.2,836.4c9.4,7.5,33,3.3,41.2,4.3c8.3,1,34.9,7.8,56.1,6.1c12.8-1,18.6-4.6,20.4-5.3
						c1.8-0.8-3.8,18-3.8,18l-118.8-6.1L541.2,836.4z"/>
				</g>
				<g style="clip-path:url(#SVGID_00000056422895492842985090000000542116125909042819_);">
					<path class="st5" d="M586,822.9c0.9,0,1.7-0.5,2.1-1.3c0-0.1,3.2-6.4,8-11.2c0.9-0.9,0.9-2.4,0-3.3c-0.9-0.9-2.4-0.9-3.3,0
						c-5.3,5.3-8.7,12.1-8.8,12.4c-0.6,1.1-0.1,2.5,1,3.1C585.3,822.8,585.7,822.9,586,822.9z"/>
				</g>
				<g style="clip-path:url(#SVGID_00000056422895492842985090000000542116125909042819_);">
					<path class="st5" d="M594.9,826.9c0.9,0,1.7-0.5,2.1-1.3c0-0.1,3.2-6.8,6.6-10.3c0.9-0.9,0.8-2.4-0.1-3.3
						c-0.9-0.9-2.4-0.8-3.3,0.1c-3.9,4.1-7.2,11.2-7.4,11.5c-0.5,1.2,0,2.5,1.1,3.1C594.2,826.8,594.5,826.9,594.9,826.9z"/>
				</g>
				<g style="clip-path:url(#SVGID_00000056422895492842985090000000542116125909042819_);">
					<path class="st5" d="M604.6,828.9c0.9,0,1.7-0.5,2.1-1.3c0-0.1,2.6-5.3,4.9-8.2c0.8-1,0.6-2.5-0.4-3.2c-1-0.8-2.5-0.6-3.2,0.4
						c-2.6,3.4-5.3,8.8-5.4,9.1c-0.6,1.1-0.1,2.5,1.1,3.1C603.9,828.8,604.3,828.9,604.6,828.9z"/>
				</g>
			</g>
		</g>
		<g>
			<path class="st7" d="M668.3,734.3c-0.1-3.5-34.5-16.1-39.1-12.2l1.7,10.1l30.3,8.9L668.3,734.3z"/>
		</g>
		<g>
			<path class="st7" d="M587.9,735.9c-1.2-3.3-38-4.3-41.2,0.9l4.8,9l31.7-1.2L587.9,735.9z"/>
		</g>
		<g>
			<path class="st8" d="M646.8,396.2c0.4,14.9,1.2,31.7,1.1,35.6c27.3,75.9,38.6,126.6,46.3,159.1c4.6,19.4-0.8,34.5-5.3,47.6
				c-7.8,22.5-22,83.9-28.3,107.3l-28.5-12.1c1.9-32.7,8.1-118.7,15.7-130.8c-10-38.2-43.6-96.2-50.9-116.5c0,0-7.2-89.3-6.1-89.3
				C591.9,397.3,646.8,396.2,646.8,396.2z"/>
		</g>
		<g>
			<path class="st7" d="M694.7,619.2c0.1-0.4,0.1-0.7,0.2-1c-6.3,6.5-18.7,8.2-26.9-4.2c-8.2-12.4-17.1-32.7-30-54
				c-12.9-21.3-27.7-107.2-27.7-107.2c5.6-9.6,10.1-13.7,14-24.6c0,0-26.8,7.6-28.9,8.7l-1,1.7c1.4,26-4.7,48.5-4.7,48.5
				c0.7,1.9,10.3,33.7,29.8,74.7c6.7,14.1,16.5,37.4,24.5,52.5c-7.6,12.1-9.9,86.8-11.7,119.5l28.5,12.1
				c6.3-23.4,20.5-84.8,28.3-107.3C691,632.6,693.3,626.2,694.7,619.2z"/>
		</g>
		<g>
			<path class="st8" d="M538.4,394.6c-5.1,29.9-9.6,40.6-9.8,50.9c-0.2,10.3,4.9,63.4,7.3,91.8c1.8,21.4,8.3,63.4,10.6,91.7
				c-7.8,25.2,0.5,78.1,6.3,118.1h30.1c1.4-17.4,2.7-58.9,5.7-85.1c1.9-17,5.1-28.7,4.7-51.1c-0.3-22.3,1.4-101,3.6-124.4
				c2.2-23.4,5.5-73.9,5.5-73.9s-1.1-16.5-2.2-16.5C599.2,396.2,538.4,394.6,538.4,394.6z"/>
		</g>
		<g>
			<path class="st7" d="M603.3,445.7c0.3,0,0.6-0.1,0.8-0.4c0.3-0.4,7.6-11.3,4.6-49.1c0-0.5-0.5-0.9-1-0.9c-0.5,0-0.9,0.5-0.9,1
				c2.9,36.9-4.2,47.8-4.2,47.9c-0.3,0.4-0.2,1,0.2,1.3C602.9,445.6,603.1,445.7,603.3,445.7z"/>
		</g>
		<g>
			<path class="st7" d="M558.6,740.3c0,0,0.1,0,0.1,0c0.5-0.1,0.9-0.6,0.8-1.1c-9.3-70.7-3.3-111-3.3-111.4l0-0.1
				c0.1-26.7-3.9-74.5-7-113c-2.3-28-4.3-52.2-4.2-61.9c0-14.1,1.2-18.8,3.6-29.2c1.6-6.7,3.8-15.8,6.5-31.3c0.1-0.5-0.3-1-0.8-1.1
				c-0.5-0.1-1,0.3-1.1,0.8c-2.7,15.4-4.9,24.5-6.5,31.2c-2.5,10.5-3.6,15.3-3.7,29.6c0,9.8,2,34,4.3,62.1
				c3.1,38.4,7.1,86.1,7,112.7c-0.3,2-5.8,42.4,3.3,111.9C557.7,740,558.1,740.3,558.6,740.3z"/>
		</g>
		<g>
			<path class="st7" d="M658.1,575.8c0.4,0,0.8-0.3,0.9-0.7c0.1-0.5-0.2-1-0.7-1.2c-0.1,0-14.2-3.9-23.1-10.8
				c-0.4-0.3-1-0.3-1.4,0.2c-0.3,0.4-0.2,1,0.2,1.4c9.2,7.1,23.2,11,23.8,11.1C657.9,575.8,658,575.8,658.1,575.8z"/>
		</g>
		<g>
			<path class="st9" d="M625,747.1c-0.2,9,31.9,18.1,35.9,9.6c4-8.5,7.4-22.3,7.4-22.3c-12.4,2.7-36.1-5.6-39.1-12.2
				C629.1,722.1,625.2,740.1,625,747.1z"/>
		</g>
		<g>
			<path class="st9" d="M550.6,761.6c2.6,8.6,36,7,37.2-2.3c1.2-9.3,0.2-23.4,0.2-23.4c-11,6.4-36.2,6.2-41.2,0.9
				C546.8,736.7,548.5,755,550.6,761.6z"/>
		</g>
		<g>
			<path class="st7" d="M647.1,380.3c0.4,5.3,0.2,30,0.2,30c-17.5,8.7-78.2,24.6-118.6,36.8c0,0-1.2-7.9,3.1-36c1.3-8.7,7-33,7-33
				L647.1,380.3z"/>
		</g>
	</g>
	<g>
		<g>
			<path class="st10" d="M939.1,202.4c-15.5,8.4-23.7,35.8-31.8,65.4c-8.1,29.7-14,52.5-14.4,61.3c-0.6,12,1.9,31,19.3,31.8
				c20.4,0.9,30.9-24.3,30.9-24.3L939.1,202.4z"/>
		</g>
		<g>
			<path class="st11" d="M890.7,315.4c1.3,3.5,1.9,9.2,2.1,13.7c1.9,5.2,11.4,9.3,17.6,8.2c12.1-2.2,13.9-15.9,7-29.3
				C910.7,294.9,890.7,315.4,890.7,315.4z"/>
		</g>
		<g>
			<path class="st12" d="M939.3,250.8c-3.2-1.2-12.4-5.3-12.4-5.3l13.8,32.5L939.3,250.8z"/>
		</g>
		<g>
			<path class="st13" d="M937.2,804.2c-3.9,7.4-29.5,20-31.4,20.2c-1.9,0.2-17.4,3.4-19.6,7.7c-1,2-0.5,13.2,3.6,13.9
				c4.1,0.7,19.4,2.6,22.4,2.2c3-0.4,36.9-2.1,45.8-7.5c8.9-5.4,26.4-4.2,27.1-9.8c0-2.2-3-23.1-3-23.1L937.2,804.2z"/>
			<path class="st13" d="M1025.3,820.6c-5.6,8.9-22.4,17.9-25.3,19.1c-3,1.2-16.1,5.8-17.6,8.4c-1.3,2.3-2,11.8,0.7,13.7
				s24.3,4.4,36.6,3.1c11.6-1.2,38.2-11.5,42.6-14.9c4.4-3.4,20.3-4.1,19.4-6.7c0.1-7.1-1.9-29-1.9-29L1025.3,820.6z"/>
			<path class="st14" d="M1083.2,787.4c0.3,8.2,0.8,12.6,0.5,27.6c-0.3,15-52.8,8.3-58.4,5.7c-5.5-2.7,6.7-16.7,8.7-20
				c2-3.2-5.2-6.4-5.3-12.4c-0.1-5.9-0.2-56-1.2-70.1c-1-14.1-9.1-52.1-14.3-66.9c-5.2-14.8-6.6-66.1-6.6-66.1s-13.3,60.6-9.7,77.7
				c3.6,17.1,1.7,27.5-0.3,35.7c-2,8.2-1.4,13.4,0.3,23.9c1.7,10.4,2.8,35,0.8,42.5c-2,7.5-4.3,18-9,24.1
				c-4.8,6.1,1.4,17.9,0.4,22.3c-1,4.4-29.3,5.8-52-7.1c-7.6-6.6,31.9-16.3,2.9-115.8c-1.8-22.4-3.8-56.1-3.6-68
				c0.4-27,7.3-149.8,11.5-215.9c0.3-4.7,2.8-9,2.8-13l108.8-1.9c0,0,5.8,16.8,7.2,21.3c9.3,29.4,2.4,94,2.7,149.7
				c0.2,29.1,2.7,52.8,2,58.3c0.2,12.4,7.5,54.2,7.9,75.1C1079.5,700.2,1082.9,779.1,1083.2,787.4z"/>
			<path class="st15" d="M992.4,466.3l-21.5-11.6l11.2,17.7c0,0-4.6,51.1-5,60.1c-0.4,9,8.9,30.4,8.4,45.4
				c-0.5,14.9-2.2,24.7-6.9,44.9c-4.7,20.2,5.7,39.4,1.1,64.9c-5.1,28.5-34.7,18.3-39.6,0.7c2,24.8,2.9,56.8-0.8,77.8
				c-4.1,23.3-6.7,29.7-2.1,37.9c22.7,13,50.9,11.6,52,7.1c1.1-4.4-5.1-16.2-0.4-22.3c4.8-6.1,7-16.6,9-24.1
				c2-7.5,0.8-32.1-0.8-42.5c-1.7-10.4-2.3-15.6-0.3-23.9c2-8.2,7.6-11.7,5.9-30.8c-1.6-17.4,4.1-82.6,4.1-82.6
				C1004.7,567.8,992.4,466.3,992.4,466.3z"/>
			<path class="st15" d="M1035.1,792.4c20,8.9,34.3-9.9,34.3-9.9S1065.8,819.2,1035.1,792.4z"/>
			<path class="st15" d="M1033.8,714.3c21.6,18.3,29.1,15.2,29.1,15.2S1058.6,750.5,1033.8,714.3z"/>
			<g id="XMLID_254_">
				<path class="st5" d="M1032.6,173.9c38.4,24,45.9,21.8,45.9,31.4c3.9,12.8-1.5,76.2-1.5,76.2s-6.4,87.7-6.4,100.7
					c0,0,3.6,17.8-1.1,22.7l1.1,11.8c-11.3,4.7-50.6,8.6-74.9,7.6c-19-0.8-42.3-6.2-51.1-9.8l0.9-13.6c-5.6-5.8-1-14.6,2.3-24.4
					c-3.3-2-8.3-6.9-3.2-18.4c-7.6-3.6-6.5-20.9-5.1-36.3c1.4-15.2,3.5-32.1-0.7-52.4c-3-14.6-7.2-62.8,0.4-67
					c13-7.2,22.7-6.3,36.3-16.8C986.5,182,1032.6,173.9,1032.6,173.9z"/>
			</g>
			<g>
				<g>
					<path class="st16" d="M1024.6,165.7c2.7,2.7,9.6,11.2,11.2,11.3c-3.1,5.9-34.7,29.6-39.2,55.7c-1.4,0.4-2.3,0-2.3,0
						c-6.9-20.5-23.6-46.8-7.2-54.2c-1.5-4.7-2.1-10.1-5.6-18.8c-2.5-6.2-5.5-5-7.1-5c-1.1,0-3.9,0.5-7.9,1.4
						c-1-13.8,10.6-25.2,15.2-27.5c5-2.5,30-17.1,30-17.1c-1.1,5.4,4,18.7,4,18.7C1016,145.8,1024.6,165.7,1024.6,165.7z"/>
				</g>
				<g>
					<path class="st11" d="M964.4,156.6c3.3-0.3,9.3-1.9,10.1-1.9c1.6,0,4.6-1.2,7.1,5c0.8,2,2.4,7.6,3.8,11.9
						c15.6-9.5,11.2-41.5,11.2-41.5s-2.4,9.8-7,14.1C987.8,145.7,974.7,152.5,964.4,156.6z"/>
				</g>
				<g>
					<g>
						<path class="st16" d="M938,115c0.6-6.2-2.6-15.5-3.5-20.2c-0.9-4.7-0.8-14,0.2-25.4c4.3-17.5,49-15.2,64.3-9.3
							c20.3,7.8,20.3,45.4,19.2,62.9l-13.1,3c0,0-2.6,22.6-7.2,25.8c-4.3,3-12.1,11.1-21,14.9c-0.6,0.2-1.3,0.5-2,0.8c0,0,0,0-0.1,0
							l0,0c-1.3,0.5-2.8,1.1-4.3,1.7c-8.1,3.4-14.7,0.3-17.7-4.8c-8.1-13.5-9.3-19-12.8-30.1C936.6,123.6,937.5,120.4,938,115z"/>
					</g>
					<g>
						<path class="st14" d="M1015.5,56.5c6.3,7.6,9.6,21.5,9.2,28.6c-0.8,16.6-6,38.9-6,38.9l-2.5,12.5c-3.7-5.5-8-9.9-7.2-9.1
							l-5.4-9.7c-10.9-7.6-8.2-20.1-11.9-26.1c-2.4-4-7.8-12.8-4.6-26.2C987.3,65.4,1003.4,58.2,1015.5,56.5L1015.5,56.5z"/>
					</g>
					<g>
						<path d="M959.5,38.5c45.4-16.6,64.7,7.9,59.6,23.6l-0.5-0.8c-1.9-2.9-7.3-2.8-7.3-2.8c-12.1,1.7-19.4,5.5-19.4,5.5
							c-31.3,11.9-49.7,8.2-56.8,8.3c-2.4,0-6.6-5.1-4.2-11.6C932.4,56.5,942.7,44.6,959.5,38.5z"/>
					</g>
					<g>
						<path class="st16" d="M996.3,114.6c0.9-10.8,12-14.9,17.1-9.6c4.3,4.5,7.8,18.7-5.7,24.5C989.6,137.3,996.3,114.6,996.3,114.6
							z"/>
					</g>
				</g>
				<g>
					<path d="M987.3,65.4c-6.6,2.3-19.8,16.9-39,19.6c7.6-5.2,11.5-12.7,11.5-12.7c-5.2,6-28,6.9-31.1,12.5c0-8.6,5.4-12.9,5.4-12.9
						s-11.9,2-14.1-6.9c5.3,1.7,10.3-2.2,10.5-2.8c0.2-0.7-0.2,0.7-0.2,0.7c-5.9-9.3-1.1-18.1-1.1-18.1c3.1,9.3,12.7,1.8,21.5-2.2
						L987.3,65.4z"/>
				</g>
				<g>
					<path d="M1002.1,35.2c-7.1-3.3-30.5-16.1-43.9,3.7l5-1.8c9.5-8.5,18.2-7.9,26.4,0.3L1002.1,35.2z"/>
				</g>
				<g>
					<path d="M1015.5,44.6c-2.5-7.2,1.4-9.6,1.4-9.6s-8.8,2.4-6.7,6.5C1012.5,45.7,1015.5,44.6,1015.5,44.6z"/>
				</g>
			</g>
			<g>
				<path class="st11" d="M984.6,186.3c3.2,7.7,9.6,8.1,9.6,12.9c0,4.8,0,33.5,0,33.5L984.6,186.3z"/>
			</g>
			<g>
				<path class="st12" d="M1024.6,165.7c6.7,7.7-17.8,28.4-23.2,32.6c-5.5,4.2-4.8,34.5-4.8,34.5c5.4-15.9,47.5-49.5,41.2-55.6
					C1032.6,173.9,1024.6,165.7,1024.6,165.7z"/>
			</g>
			<g>
				<path class="st12" d="M987.1,178.5c-6.8,7.4,2,16.4,3.5,19.8c1.5,3.4,3.7,34.3,3.7,34.3c-6.9-15-21.9-36.1-18.9-47.1l10.9-10
					L987.1,178.5z"/>
			</g>
			<g>
				<path class="st17" d="M992.5,424.2l-2.8-0.3c0.3-2.9,0.4-6.9,0.5-10.4c0.1-2.2,0.1-4.2,0.2-5.6c-4.2-7.7-2.4-13.2-1.2-16.9
					c0.5-1.4,0.9-2.6,0.7-3.4c-2.2-14.6,0.5-21.9,3.2-27.6c1.7-3.6,0-8.9-3.1-15.6c-1.5-3.3-0.8-12.3,0.7-30.8
					c1.8-21.5,4.2-50.9,2.9-82.4l2.8-0.1c1.3,31.7-1.2,61.2-3,82.8c-1.2,14.9-2.2,26.6-0.9,29.4c4.7,10.3,4.6,14.6,3.1,17.9
					c-2.7,5.6-5.1,12.2-3,26c0.2,1.4-0.3,2.9-0.8,4.6c-1.2,3.7-2.7,8.3,1.2,15.1l0.2,0.4l0,0.4c-0.1,1.3-0.2,3.4-0.3,5.9
					C992.9,417.2,992.8,421.2,992.5,424.2"/>
				<path class="st10" d="M995.2,293.2c-0.5,7.5-1.1,14.4-1.6,20.7c-0.2,2.1-0.3,4.1-0.5,6.1c0.1,0,0.2,0,0.3,0c0.4,0,0.7,0,1,0.1
					c17,2,28.6,8.3,41.4,16.2c3-1.4,4.7-2.3,4.7-2.3s-0.1,2.1-1.9,5.2c1.6,2.3,3.4,5.4,4.5,6.1c13.2,9,22.9,19.1,27.7,28.2
					c0.6-13.1,2.2-36.2,3.6-56.1v0C1071.8,316.6,1027.6,303,995.2,293.2 M961.2,283.3C961.2,283.3,961.2,283.4,961.2,283.3
					c-1.5,0.3-20.8,3.7-21,3.7c0,0,0,0,0,0c0.2,10.8-0.5,23.3-0.8,34.8c6.5-1.1,13-1.4,19.4-1.4c7.5,0,14.7,0.5,21.7,1
					c0.2,0,0.4,0,0.6,0c1.7,0,3.9-0.4,6.1-0.7c1.1-0.2,2.1-0.3,3.1-0.5c0.2-2,0.3-4.2,0.5-6.6c0.5-6.4,1.1-13.6,1.7-21.3
					C975.3,287.3,962,283.3,961.2,283.3"/>
				<path class="st5" d="M992.5,292.4c-0.5,7.7-1.1,14.8-1.7,21.3c-0.2,2.3-0.4,4.5-0.5,6.6c1-0.1,2-0.2,2.8-0.2
					c0.2-2,0.3-4,0.5-6.1c0.5-6.3,1.1-13.2,1.6-20.7C994.3,293,993.4,292.7,992.5,292.4"/>
				<path class="st5" d="M995.9,351.6c-0.9,0.3-1.8,0.5-2.6,0.7c0.5,1.9,0.8,3.5,0.7,5c1-0.1,1.9-0.2,2.8-0.3
					C996.7,355.6,996.5,353.8,995.9,351.6"/>
				<g>
					<path class="st10" d="M959.3,357.6c-0.9,0-1.8,0-2.6,0c6.9,0.4,13.2,0.6,19,0.6c6.8,0,12.9-0.3,18.3-0.8c0.1-1.5-0.2-3.2-0.7-5
						C982.1,355.4,970.3,357.6,959.3,357.6z"/>
					<path class="st10" d="M1035.8,336.3c-7.4,3.5-22.6,10.4-40,15.3c0.6,2.2,0.9,4,0.8,5.5c28.4-3,38.4-12.2,41.9-18
						c1.8-3,1.9-5.2,1.9-5.2S1038.8,334.9,1035.8,336.3z"/>
				</g>
				<path class="st10" d="M992.8,388.4c-0.1,1.1-0.5,2.2-0.9,3.5c-0.1,0.2-0.1,0.3-0.2,0.5c7.9,1.7,15,2.2,21,2.2
					c12.8,0,20.6-2.6,20.6-2.6S1013.7,391.5,992.8,388.4 M959.3,380.3c10.7,5.8,20.7,9.4,29.8,11.5c0.1-0.3,0.2-0.5,0.3-0.8
					c0.4-1.2,0.7-2.3,0.8-3C979,386.3,967.8,383.8,959.3,380.3"/>
				<path class="st5" d="M990.1,388c0,0.8-0.4,1.8-0.8,3c-0.1,0.2-0.2,0.5-0.3,0.8c0.9,0.2,1.8,0.4,2.7,0.6c0.1-0.2,0.1-0.3,0.2-0.5
					c0.4-1.3,0.8-2.4,0.9-3.5C991.9,388.3,991,388.2,990.1,388"/>
			</g>
			<g>
				<path class="st10" d="M1005.7,377.9c22-2.4,40-25.6,40-36C1045.7,341.9,1059.6,376.7,1005.7,377.9z"/>
			</g>
		</g>
		<g>
			<polygon class="st10" points="1061.2,241.2 1045.7,236.4 1063.6,301.6 			"/>
		</g>
		<g>
			<path class="st11" d="M893.4,272c-6.1-2.2-9.8-8.3-13.2-7.8c-3.4,0.5-5.8,2.7-4.1,5.5c1.7,2.8,9,9.5,9,9.5L893.4,272z"/>
		</g>
		<g>
			<path d="M945.4,257.3c-20.4,12.8-31.5,16.5-32.6,17c-1.1,0.5-51.9,9.2-51.6,8.8c0.2-0.2,8.1-9.7,18-9.4c6,0.2,8.2-2,10.4-6.6
				C892.3,261.6,917.9,263.8,945.4,257.3z"/>
		</g>
		<g>
			<g>
				<path class="st18" d="M901.8,113.7c0.7,2.9,2.9,4.8,5.1,4.3c2.1-0.5,3.3-3.2,2.7-6.1c-0.7-2.9-2.9-4.8-5.1-4.3
					C902.3,108.1,901.1,110.8,901.8,113.7z"/>
				<path class="st19" d="M900.5,114c0.7,2.9,2.9,4.8,5.1,4.3c2.1-0.5,3.3-3.2,2.7-6.1c-0.7-2.9-2.9-4.8-5.1-4.3
					S899.9,111.1,900.5,114z"/>
				<g>
					<path class="st18" d="M887.7,109.9c0.7,3,3.1,5,5.3,4.5c2.3-0.5,3.5-3.4,2.8-6.4c-0.7-3-3.1-5-5.3-4.5
						C888.3,104,887,106.9,887.7,109.9z"/>
					<path class="st19" d="M886.4,110.2c0.7,3,3.1,5,5.3,4.5s3.5-3.4,2.8-6.4c-0.7-3-3.1-5-5.3-4.5S885.7,107.2,886.4,110.2z"/>
					<g>
						<path class="st18" d="M880.5,124.5c0.7,3.1,3.2,5.3,5.6,4.7c2.3-0.5,3.7-3.5,2.9-6.7c-0.7-3.1-3.2-5.3-5.6-4.7
							C881.1,118.3,879.8,121.3,880.5,124.5z"/>
						<path class="st19" d="M879.1,124.8c0.7,3.1,3.2,5.3,5.6,4.7c2.3-0.5,3.7-3.5,2.9-6.7c-0.7-3.1-3.2-5.3-5.6-4.7
							C879.7,118.7,878.4,121.6,879.1,124.8z"/>
					</g>
				</g>
			</g>
		</g>
		<g>
			<g>
				<polygon class="st14" points="945.4,257.3 953.1,294.7 920.7,314.2 912.8,274.3 				"/>
			</g>
			<g>
				<path class="st20" d="M861.3,283.2l6.8,41c0,0,52-8.9,52.7-10.1c0.7-1.1-7.9-39.8-7.9-39.8L861.3,283.2z"/>
			</g>
		</g>
		<g>
			<g>
				<path class="st4" d="M1033.1,308.9c-0.3,4.2,1.4,5.9,1.4,5.9s5.5,1.1,5-2.4C1039,308.9,1033.1,308.9,1033.1,308.9z"/>
			</g>
			<g>
				<path class="st5" d="M1108.5,313c0-2.2-0.9-8.3-2.5-16.5c-0.8-4.1,1.5-13.2,0.5-15.7c-1-2.4-5.6-7.6-5.6-7.6l0,0
					c0,0,1.1-7.3,0.6-9.4c-0.5-2.1-6.7-15-6.7-15c-6.4-23.8-13.6-45.8-18.6-49.7c-10.1-5.6-18.9,26.6-19.9,36.6
					c-2.3,23.9,5.1,54.1,5.1,54.1c-3.3,0.1-7.1-0.1-12.4-0.8c0,0,1,10.5-2.3,27.4c10.7,4.4,16.7,9.7,41,16.7
					C1105.2,338.2,1108.3,330.4,1108.5,313z"/>
			</g>
			<g>
				<path class="st10" d="M1064.4,289.7c8.4,1.5,23-1.6,29.4,4.4C1093.7,294,1095,282.3,1064.4,289.7z"/>
			</g>
			<g>
				<path class="st16" d="M1049.1,289.1c-4-1-48.3-7.6-50.7-8.3c-2.5-0.7-8.1,17.6-3.3,18.3c14.9,2.3,47.6,17.2,51.7,17.3
					C1051.1,316.7,1056.4,291.7,1049.1,289.1z"/>
			</g>
			<g>
				<path class="st10" d="M1067.8,287.2c7.1-6.5,22.6-11.6,22.6-11.6S1076,275.2,1067.8,287.2z"/>
			</g>
			<g>
				<path class="st16" d="M998.3,280.8c-3.3-0.2-29.5-13-31.9-13.4c-2.4-0.4-17-2.8-19.2-2.6c-2.2,0.2-12.3,1-14.4,1.7
					c-2.7,1-2.5,6.6-0.1,6.5s14.7-0.1,16.5,0c1.8,0.1,10.3,2.3,10.3,2.3s-21.1-2.4-33.6,2.3c-2.9,1.1-2.3,7.6,0.4,7
					c6.1-1.3,15.6-1.1,15-1.1c-0.6,0-8.3,0.2-11,1.4c-1.5,0.7-1.4,6.9,0.5,6.6c14.6-2.2,26.8-2.1,31.1-1.3l0.1,1.5
					c0,0-14.5,1.2-19.9,4.8c-1.2,0.8-2.6,6.1,0.5,5.3c13-3.4,21-3.2,22.2-2.7c0.7,0.2,28.8,1.7,32.1,0.2L998.3,280.8z"/>
			</g>
			<g>
				<path class="st12" d="M1038.6,287.3c5.1,14.2-4,27.5-4,27.5l13.3,2.2c2.8-1.7,11-18.8,2.5-27.7L1038.6,287.3z"/>
			</g>
		</g>
		<g>
			<path class="st12" d="M892.5,324.7c2.4,7.5,10.4,10,16.1,9.3c8.1-0.9,14.5-11.1,11.8-18.6c2.3,7.4,4.4,22.9-9.7,25.4
				C904.7,341.9,892.3,340,892.5,324.7z"/>
		</g>
	</g>
</g>
<path d="M979.1,97.4c-10.6-4.1-17-3.6-17.9-2c-0.7,1.3-1.4,3.4,0.9,3.6c2.3,0.2,14.1-0.6,15.8-0.5S979.1,97.4,979.1,97.4z"/>
<path d="M942.8,99.5c-2.1-3.1-5.9-3.6-7.1-2.8c-0.9,0.6-0.6,3.7,0.8,4.2c1,0.4,2.7-0.6,4.7-0.6C942.9,100.4,942.8,99.5,942.8,99.5z"
	/>
<path d="M974,109c-0.3-2.3-1.9-4-3.6-3.7c-1.7,0.2-2.8,2.3-2.5,4.6c0.3,2.3,1.9,4,3.6,3.7C973.2,113.4,974.3,111.3,974,109z"/>
<path d="M946.4,110.9c-0.3-2.3-1.9-4-3.6-3.7c-1.7,0.2-2.8,2.3-2.5,4.6c0.3,2.3,1.9,4,3.6,3.7C945.6,115.3,946.7,113.2,946.4,110.9z
	"/>
<g>
	<g>
		<g>
			<g>
				<path class="st2" d="M677.1,298.9l20.8-38.7l14-16.5c0,0,8.7-6.3,14.1-10.3c3.7-2.7,4.9-4.1,6.1-5.7c1.8-2.5,6.4,0.3,6.2,2.3
					c-0.4,4.7-5.1,8.5-5.1,8.5L717.7,280L699,310C696.2,315.1,665.8,319.4,677.1,298.9z"/>
			</g>
			<path class="st21" d="M674.5,254.3c23.6,0.1,34.8-2.7,36-2.8c1.2-0.2,55.2-23.6,54.7-23.6c-0.2-0.1-19,0.4-27.1,5.7
				c-4.9,3.3-7.9,2.6-12.1-0.1C721,230.2,700.8,245.3,674.5,254.3z"/>
			<g>
				<path class="st17" d="M631.3,210.7c19.2,13.7,23.1,59.2,37.6,90.1c0,0,3.7,0.7,8.2-1.5c0,19.1,18.8,14.6,22.8,9.3
					c-5.7,9.3-10,17.1-18.2,26.2c-12.1,13.3-32.4,2-42.6-17.4C638.4,316.2,631.3,210.7,631.3,210.7z"/>
			</g>
		</g>
		<path d="M563.7,71.9c-21.3,12.9-23.9,25.4-12.8,136.9c11,111.5,44.9,18,42.5-9.6C590.8,171.6,563.7,71.9,563.7,71.9z"/>
		<g>
			<path class="st22" d="M580.4,65.6c-17.7-1.9-20.4,8.5-19.5,17.7C561.4,89.1,580.4,65.6,580.4,65.6z"/>
		</g>
		<g>
			<path d="M563.9,76.2c10.3-17,44.1-15.8,58.2-4.3c14.2,0.7,27.9,13.2,30.4,21c-7.7-5.4-9.9-5.9-9.9-5.9
				c9.3,15.5-3.9,23.5-3.9,23.5l-67.3,41.3C555.6,128.4,549.3,100.2,563.9,76.2z"/>
		</g>
		<g>
			<g>
				<path class="st1" d="M607.7,195.4c0,0-4.3-1.8-7.8-4.5c3-12,4.3-19,9.4-19.4L576,141.6c0,5.4-8.8,46.6-9.7,49.6
					c-0.9,3-7.4,4.2-12.5,7.3c9.3,3.6,12.3,17.1,35.4,15.7C612.4,212.9,609.4,197.1,607.7,195.4z"/>
			</g>
			<g>
				<path class="st2" d="M601.2,185.8c1.8-6.5,4.2-12.9,7.8-13.2l-4.9-3.5L585,157.8C585,157.8,586.9,173.3,601.2,185.8z"/>
			</g>
			<g>
				<g>
					<path class="st1" d="M623.7,79c4.1,9.6-10.9,25.2-11.7,22.8c0,0,5.6-10.6,5.7-17.2c-6.6,7.9-15.5,11.6-22.1,15.6c0,0,0,0,0,0
						c6.9-8.9,7.4-12.7,8-15c-1.6,3.1-9.6,16.8-20.8,20.3c0,0-4.1,7.4-3.9,11.1c0.7,12.3-5.7,11.5-7.2,24.7c3,13,8.3,18.3,28.1,30.2
						c15.5,9.3,26,2.2,28.8-5.9c3.2-9.4,8.6-20.4,9-25.1c1.2-14.6-2.2-11.1,1.2-26.2C640.6,98.2,637.9,88.4,623.7,79z"/>
				</g>
				<g>
					<path class="st1" d="M577.6,126c-5.6-10.2-15.3-7.3-15.9,1.7c-0.5,7.2,6.7,16.7,14,17.1C586.2,145.1,583.5,136.7,577.6,126z"/>
				</g>
			</g>
			<g>
				<path class="st1" d="M587.1,95.9c1.1-7.1,5.8-13.4,5.8-13.4S589.2,93.2,587.1,95.9z"/>
			</g>
		</g>
		<g>
			<g>
				<path class="st17" d="M637.9,322.5l-38.1,0.9l-68.3-53.7c0.5,2,1.1,4,1.6,5.8c5.8,21-5.7,112.2-1.9,128.1s113,3.9,117.8-6.4
					c0.4-0.8,0.9-3.2,0.9-4.5c0-1.9-1.5-7.4-1.5-7.4s1.5-2.4,1.1-5.5C646.9,360,638.5,330.5,637.9,322.5z"/>
			</g>
			<g>
				<path class="st17" d="M637.4,241c-3.7-8-3.4-28.2-6.1-30.4c-2.4-1.9-17.3-9.4-17.5-10.1c-4.5,8.9-18,13.8-26,13.9
					c-17.5,0.2-31.9-16.1-31.9-16.1c-10.3,4.1-23.3,11.6-29,16.1c-14.2,15.3-5.5,36,4.5,55.3l71.2,44.2l35.3,8.6
					c-0.6-8.1-0.9-17.6-0.5-28.9C654.8,277.9,640.2,247.1,637.4,241z"/>
			</g>
			<g>
				<path class="st23" d="M565.5,225.4c3.3,2.6,6.5,6.3,6.5,6.3l15.2-15.3l27.1,9.8l3.8-22.9l-4.6-3l-24.3,14L565.5,225.4z"/>
			</g>
			<g>
				<path class="st17" d="M566.3,191.3c3.3,12.7,21.5,23.1,21.5,23.1s15-8,12.1-23.5l0.7-2.8c0,0,10.8,8.2,12.5,10.6
					c1.8,2.4-1.5,23.9-1.5,23.9s-5.4-4.1-11.6-5.4c-6.2-1.3-10.2-0.9-10.2-0.9l9.7,38.5h-2.3l-10-38.5c0,0-6.5,1.1-10.9,4.4
					c-4.4,3.3-8,8.8-8,8.8s-19.9-23.9-17.8-30c5.9-5,17-13.2,17-13.2L566.3,191.3z"/>
			</g>
			<g>
				<path class="st23" d="M582.8,301.2c-0.7,0-1.4-0.6-1.4-1.4s0.6-1.4,1.4-1.4c9.3,0,14.2-2.5,18.9-5c4.4-2.3,8.2-3.7,15.3-3.7
					c0.7,0,2.2,0.5,2.2,1.2s-1.1,0.8-1.9,0.8c-6.4,0-10.1,1.9-14.4,4.1C598.1,298.4,592.7,301.2,582.8,301.2z"/>
			</g>
			<g>
				<path class="st23" d="M645.2,275.8c0.4-7.4-2.3-14.1-6.7-19.9c-1.2-1.6-2.4-3.1-3.7-4.6c0-0.1,0-0.2-0.1-0.3
					c-0.4-0.7,0.2-2.1,0.5-2.8c0.3-1,0.6-2.6,0.7-3.6c0.1-3-1-2-1.7-0.5c-0.5,1.1-1.3,2.6-1.7,4.1c-0.5-0.7-0.9-1.4-1.3-2.1
					c-2.5-4.4-2.9-9.3-3.8-14.2c-0.3-1.6-1.3-0.3-1.3,1.8c0,7.4,1.3,11.9,5.8,17.9c5.7,7.5,11.3,14.3,10.7,24.3
					c-0.4,8.1-5.7,14.4-6.9,22.2c-1,6.8,2.3,13.6,0.6,20.4c-0.4,1.6,2,2.3,2.4,0.7c1.8-7.1-1.7-14.1-0.4-21.2
					C639.7,290.1,644.8,284,645.2,275.8z"/>
			</g>
		</g>
		<g>
			<g>
				<g>
					<polygon class="st24" points="682.7,119 706.6,114.5 742.2,104 749.9,135.5 714.1,149.4 689,151.3 					"/>
					<polygon class="st25" points="684.8,120 706.8,117.1 744.4,105.1 750.2,139.7 715.2,151.3 692.8,153.7 					"/>
				</g>
			</g>
			<g>
				<polygon class="st26" points="674.5,254.3 687.7,289.4 724.7,288.7 710.5,251.4 				"/>
			</g>
			<g>
				<path class="st27" d="M765.2,227.8l8.4,41.8c0,0-47.8,19.6-49,19.1c-1.2-0.6-14.2-37.2-14.2-37.2L765.2,227.8z"/>
			</g>
			<g>
				<path class="st21" d="M722.4,256.9c-2,0.9-3.1-0.5-0.8-1.7c2.3-1.1,8.1-4.4,10.9-5.5c2.9-1.1,10.5-3.1,13-4.1
					c2.5-1,9.9-4.3,11.8-5.1c1.9-0.8,2.5,0.5,0.8,1.4c-1.7,0.9-8.7,5.1-11.8,6.2c-3.1,1.2-11.1,3.2-13.5,4.2S724.4,256,722.4,256.9z
					"/>
			</g>
			<g>
				<path class="st21" d="M726.7,263c-2,0.9-3.1-0.5-0.8-1.7c2.3-1.1,8.1-4.4,10.9-5.5s10.5-3.1,13-4.1c2.5-1,9.9-4.3,11.8-5.1
					c1.9-0.8,2.5,0.5,0.8,1.4s-8.7,5.1-11.8,6.2c-3.1,1.2-11.1,3.2-13.5,4.2C734.7,259.4,728.7,262,726.7,263z"/>
			</g>
			<g>
				<path d="M870.3,292.8c-2.2,0.5-3-1.3-0.4-1.9c2.6-0.6,9.1-2.7,12.3-3.1c3.2-0.4,11.3-0.7,14.1-1.2c2.8-0.5,11-2,13-2.5
					c2.1-0.4,2.4,1.1,0.5,1.6c-1.9,0.6-9.9,3.1-13.3,3.6c-3.4,0.5-11.9,0.7-14.6,1.2C879.2,291.1,872.6,292.3,870.3,292.8z"/>
			</g>
			<g>
				<path d="M873.3,299.9c-2.2,0.5-3-1.3-0.4-1.9c2.6-0.6,9.1-2.7,12.3-3.1c3.2-0.4,11.3-0.7,14.1-1.2c2.8-0.5,11-2,13-2.5
					s2.4,1.1,0.5,1.6c-1.9,0.6-9.9,3.1-13.3,3.6s-11.9,0.7-14.6,1.2C882.2,298.1,875.5,299.4,873.3,299.9z"/>
			</g>
		</g>
		<g>
			<g>
				<path class="st17" d="M547.7,220.6c18,22,33.8,63.6,56.5,94c9.4-1.5,27-11.3,27-11.3c2.1,13.7,8.6,20.7,8.6,20.7
					s-29.2,22.4-32.9,24.2c-9.9,4.7-17.2,4.5-31.6-13.4c-4.4-5.5-44-65-44-65C518.7,218.9,530.1,216.1,547.7,220.6z"/>
			</g>
			<g>
				<path class="st1" d="M631.3,303.3c0,0,30.2-15,37.6-21.7c4.9,12.4,3.8,21.9,3.8,21.9L639.9,324
					C634.2,327.5,622.8,310.8,631.3,303.3z"/>
			</g>
			<path class="st23" d="M642.2,322.6l30.5-19.1l4.4-2.1c0,0,0.4,5.3,3.2,8.4c2.8,3.1,6.6,3.2,6.6,3.2l-37.5,18.1
				C649.4,331.1,646,328.3,642.2,322.6z"/>
			<g>
				<path class="st1" d="M668.9,281.6c4.9-4.7,10.9-14.5,15.2-17.3c3.6-2.4,22-8.6,26.5-10.6c1.8-0.8,3.9,4.6,0,6.5
					c-3.9,1.9-12.1,3.9-14.2,6.2c11.4-0.9,11.4-1.3,15.9-1.9c4-0.5,22.5-1.5,22.5,1.6c0,3.1,0.4,4-1.9,4.3c-5,0.7-28.1,2.9-27.9,3.7
					c0.2,0.7,0.2,0.7,0.2,0.7s31.5-3,32.2-0.8c0.7,2.2,1.7,4.2-0.8,5.2c-2.5,1-6.3,2.9-7.2,3.2c-0.9,0.3-3.8,3-7.4,4.6
					c-8.3,6.6-10.1,5.9-13.2,6.8c-3.2,0.9-12.4,2.8-14.7,3.3c-2.3,0.5-21.3,6.1-21.3,6.1S668.8,280.6,668.9,281.6z"/>
			</g>
		</g>
	</g>
	<g>
		<path class="st23" d="M629.4,303c-5.9,0.1-9.7,2.1-14.9,4.7c-4.5,2.2-8.9,4.3-13.4,6.5c-3.3-10.6-9.9-19.8-14.4-30
			c-5.3-11.9-12.1-22.9-18.1-34.4c-0.8-1.5-2.9-0.2-2.2,1.3c5.6,10.8,12,21.2,17.1,32.3c4.8,10.6,11.7,20.5,15.2,31.7
			c0,0.1,0.1,0.2,0.1,0.3c-1.6,0.8-3.1,1.9-4.3,3.1c-1.2,1.1-0.5,2.4,1,1.6c6.1-3.4,12.4-6.3,18.6-9.3c5.5-2.7,8.8-4.3,14.8-6
			C630.5,304.3,630.7,303,629.4,303z"/>
	</g>
</g>
<path d="M603.2,121.7c0.1-2.6,1.6-4.7,3.4-4.6s3.1,2.3,3,4.9c-0.1,2.6-1.6,4.7-3.4,4.6C604.4,126.5,603.1,124.3,603.2,121.7z"/>
<path d="M628,121.6c0.1-2.5,1.4-4.4,3-4.3c1.5,0.1,2.7,2.1,2.6,4.6s-1.4,4.4-3,4.3C629.1,126.1,627.9,124.1,628,121.6z"/>
<path d="M629.3,105.5c4.4-1.1,10.5,2.3,10.6,3.3c0.1,0.6-0.5,1.8-0.9,1.7c-1.3-0.4-8.5-1-11-1.7
	C626.8,108.5,628.4,105.7,629.3,105.5z"/>
<path class="st2" d="M621,129.5c1.7,5.7,3.4,7.8,2.7,10.7c-0.8,3.3-2.3,2.8-3.5,2.8c-1.1,0.1-1,1.2,0.2,1.2c0,0,3.3,1.4,4.6-3
	c1.3-4.4-2.1-8.1-3.1-12S620.4,127.6,621,129.5z"/>
<path class="st11" d="M951.9,118c-1.5,6.5-3.3,9-2.2,12.2c1.2,3.6,2.8,2.9,4.1,2.9s1.3,1.2-0.1,1.3c0,0-3.6,1.8-5.3-3.1
	c-1.8-4.9,1.7-9.3,2.6-13.6C951.8,113.5,952.5,115.8,951.9,118z"/>
<path class="st27" d="M613,155.5c0.7-0.6,4.2-0.9,7.6-1.1c3.5-0.3,5.1,0.1,5.5,1c0.4,0.9-1.8,2.4-6.8,2.3
	C614.8,157.5,611.8,156.4,613,155.5z"/>
<path d="M596.9,107.4c6-3.6,16.2-3.9,16.9-2.7c0.7,1.3,0.6,3.6-0.7,3.8c-1.3,0.2-14.4,1.2-16.8,0.9
	C595.1,109.3,596.1,107.9,596.9,107.4z"/>
<path class="st23" d="M533.2,271.7c1.1,1.7,37.8,57.5,42.2,63c14.5,17.9,21.7,18.2,31.6,13.4c3.6-1.7,31.2-22.9,31.2-22.9l2,9.9
	c0,0-6,3.2-14.2,7.2c-12.4,6-22.5,12.6-32.4,10.2c-16.4-4-28.3-28.8-38.5-43.2c-10.6-14.8-19-30.3-21.6-33.8
	C530.8,271.9,532.1,270,533.2,271.7z"/>
<g>
	<path class="st23" d="M646.3,386.8c-7.3,5.8-22.6,9.7-22.6,9.7S637.7,397.9,646.3,386.8z"/>
</g>
<polygon class="st23" points="587.2,216.3 597.3,254.9 599.6,254.9 589.9,216.3 "/>
<path class="st5" d="M595.1,222.7c2-0.2,4.4,4.3,1.7,5C594,228.4,593.1,222.9,595.1,222.7z"/>
<path class="st5" d="M597.7,233.2c2-0.2,4.4,4.3,1.7,5C596.6,239,595.7,233.5,597.7,233.2z"/>
<path class="st5" d="M600.5,244.9c2-0.2,4.4,4.3,1.7,5C599.4,250.7,598.5,245.1,600.5,244.9z"/>
<path class="st28" d="M622.7,250.7c2.2-0.7,5.2,1.2,1.7,3C620.9,255.5,619.5,251.8,622.7,250.7z"/>
<path class="st29" d="M626,250.9c0.9,0.8,0.8,2.5-0.8,1.4C623.6,251.3,624.8,249.8,626,250.9z"/>
<path class="st26" d="M1081.6,838.6c0,0-14.3,3-18,4.5c-3.6,1.5-19.5,11.6-43.9,15.9s-38.5-3.6-38.5-3.6s-0.5,3.8,1.4,6.4
	c2.3,3,21,6.3,35.7,3.5c7.2-0.4,27.7-7.3,34.9-10.8c8.6-3.6,9.7-5,11.5-5.7s11.1-2.6,13.3-3.3c2.3-0.7,3.5-0.6,3.5-2.1
	C1081.7,841.8,1081.6,838.6,1081.6,838.6z"/>
<path class="st26" d="M984.7,826.8c0,0-16.9,3.3-20.5,4.5s-15.4,8.5-41.1,10.5c-23.7,1.8-37.1-2.8-37.1-2.8s0.2,4.4,2.5,6.2
	c1.4,1.2,10.3,4.1,33,2.5c7-0.1,24.4-2,31.5-5c4.1-1.5,4.7-1.8,7.4-3.3c2.6-1.4,7.3-2.3,8.2-2.5c1.7-0.4,9.1-1.5,12.6-2.8
	c3-1.1,3.8-1.9,3.9-3.4S984.7,826.8,984.7,826.8z"/>
<path class="st2" d="M951.2,148.2c0.6,0.6,0.6,1.4,6.4,0.7c3.4-0.4,6.3-1.1,6.6-2c0.8-1.9-2.9-1.9-7.8-1.6
	C951.9,145.7,949.9,147.4,951.2,148.2z"/>
<path class="st24" d="M718.1,150.4c0,0-5.2-8.2-1.6-15.7c3.6-7.5-5.5-12.8,2.9-17.1c8.4-4.3,10.1,5.4,9.9,8
	c-0.2,2.6,6.7,0.6,9.5,17.9L718.1,150.4z"/>
<g>
	<path class="st24" d="M689.8,124l-0.6,0.8l-0.2-1.3l0.8-1l1.3-0.2l1.5,8.4l-1.5,0.3L689.8,124z"/>
	<path class="st24" d="M693.1,128.7l-0.9-4.9c-0.3-1.4,0.4-2,1.5-2.2c1.1-0.2,2,0.1,2.2,1.5l0.9,4.9c0.3,1.4-0.4,2-1.5,2.2
		C694.2,130.4,693.4,130.1,693.1,128.7z M695.4,128.2l-0.9-4.9c-0.1-0.5-0.2-0.6-0.5-0.6c-0.2,0-0.3,0.2-0.2,0.7l0.9,4.9
		c0.1,0.5,0.2,0.7,0.5,0.6C695.4,128.9,695.5,128.8,695.4,128.2z"/>
	<path class="st24" d="M697.6,127.9l-0.9-4.9c-0.3-1.4,0.4-2,1.5-2.2c1.1-0.2,2,0.1,2.2,1.5l0.9,4.9c0.3,1.4-0.4,2-1.5,2.2
		C698.7,129.6,697.9,129.3,697.6,127.9z M699.9,127.4l-0.9-4.9c-0.1-0.5-0.2-0.6-0.5-0.6c-0.2,0-0.3,0.2-0.2,0.7l0.9,4.9
		c0.1,0.5,0.2,0.7,0.5,0.6C699.9,128.1,700,127.9,699.9,127.4z"/>
</g>
<polygon class="st24" points="742.8,108.2 743.2,110.3 741.3,110.9 740.9,108.8 "/>
<polygon class="st24" points="743.4,110.8 743.8,113 741.9,113.6 741.5,111.5 "/>
<polygon class="st24" points="744,113.6 744.4,115.7 742.6,116.3 742.1,114.2 "/>
<polygon class="st24" points="744.7,116.4 745.1,118.6 743.3,119.2 742.8,117.1 "/>
<polygon class="st24" points="696.3,149.2 696.7,151.4 694.8,151.7 694.3,149.6 "/>
<polygon class="st24" points="699,148.8 699.5,151 697.6,151.3 697.1,149.2 "/>
<polygon class="st24" points="701.8,148.3 702.3,150.5 700.4,150.8 699.9,148.7 "/>
<polygon class="st24" points="704.7,147.8 705.2,150 703.2,150.3 702.7,148.2 "/>
<polygon class="st24" points="734,142.8 748.2,138.2 746.8,132 732.4,136.4 "/>
<g>
	<path class="st25" d="M740.4,135.7l-0.3,0.5l-0.2-0.7l0.4-0.6l0.7-0.2l1.2,4.5l-0.8,0.2L740.4,135.7z"/>
	<path class="st25" d="M742.4,138.1l-0.7-2.6c-0.2-0.7,0.2-1.1,0.7-1.3c0.6-0.2,1.1,0,1.3,0.7l0.7,2.6c0.2,0.7-0.1,1.1-0.7,1.3
		C743,139,742.6,138.8,742.4,138.1z M743.6,137.7l-0.7-2.6c-0.1-0.3-0.1-0.3-0.3-0.3c-0.1,0-0.2,0.1-0.1,0.4l0.7,2.6
		c0.1,0.3,0.2,0.3,0.3,0.3C743.6,138.1,743.6,138,743.6,137.7z"/>
	<path class="st25" d="M744.8,137.4l-0.7-2.6c-0.2-0.7,0.2-1.1,0.7-1.3c0.6-0.2,1.1,0,1.3,0.7l0.7,2.6c0.2,0.7-0.1,1.1-0.7,1.3
		C745.4,138.3,745,138.2,744.8,137.4z M746,137.1l-0.7-2.6c-0.1-0.3-0.1-0.3-0.3-0.3c-0.1,0-0.2,0.1-0.1,0.4l0.7,2.6
		c0.1,0.3,0.2,0.3,0.3,0.3C746,137.5,746,137.4,746,137.1z"/>
</g>
</svg>
