<?xml version="1.0" encoding="utf-8"?>
<!-- Generator: Adobe Illustrator 27.0.1, SVG Export Plug-In . SVG Version: 6.00 Build 0)  -->
<svg version="1.1" id="Lager_1" xmlns="http://www.w3.org/2000/svg" xmlns:xlink="http://www.w3.org/1999/xlink" x="0px" y="0px"
	 viewBox="0 0 1600 900" style="enable-background:new 0 0 1600 900;" xml:space="preserve">
<style type="text/css">
	.st0{fill:#500B00;}
	.st1{fill:#D3A472;}
	.st2{fill:#B98A50;}
	.st3{clip-path:url(#SVGID_00000135689355649663936130000015686371170323977124_);}
	.st4{fill:#7D7B7B;}
	.st5{fill:#CECECE;}
	.st6{clip-path:url(#SVGID_00000020379691465881786860000000482262623894751894_);}
	.st7{fill:#002B33;}
	.st8{fill:#013F4B;}
	.st9{fill:#106B7A;}
	.st10{fill:#B9B9B9;}
	.st11{fill:#E5BB86;}
	.st12{fill:#A2A1A1;}
	.st13{fill:#BE6500;}
	.st14{fill:#454545;}
	.st15{fill:#333333;}
	.st16{fill:#FFDFB9;}
	.st17{fill:#FFFFFF;}
	.st18{fill:#CE9D00;}
	.st19{fill:#E6C80A;}
	.st20{fill:#2B2B2B;}
	.st21{fill:#542F06;}
	.st22{fill:#418C9A;}
	.st23{fill:#F3F3F3;}
	.st24{fill:#A7C7D1;}
	.st25{fill:#C2E0EE;}
	.st26{fill:#6B410C;}
	.st27{fill:#96672C;}
	.st28{fill:#226B00;}
	.st29{fill:#ED492E;}
</style>
<ellipse class="st0" cx="796.6" cy="852.3" rx="458.6" ry="40"/>
<g>
	<g>
		<g>
			<g>
				<path class="st1" d="M656.7,754c-5.7,14.2-11.3,37.8-11.1,43.3c0.3,5.5,3.1,13.1-0.3,18.1c-3.4,5-19.7,7.8-24.9,1.2
					c-5.1-6.6-5.4-13.1-1.7-22.3c3.7-9.2,11.9-47.5,12.4-55.8L656.7,754z"/>
			</g>
			<g>
				<path class="st2" d="M628.8,752.8c5,10.8,22.7,16.5,22.7,16.5l3.9-12.2L628.8,752.8z"/>
			</g>
			<g>
				<defs>
					<path id="SVGID_1_" d="M647.8,793.3c-6.5,0.7-7.9,15.1-13,15.7c-14.5,1.7-17.7-10.1-16.1-14.9c1-2.8-2.5-2.3-3.5,0.7
						c-1,3-3.4,13.2-5.2,17.6c-1.8,4.5-6,20.6-2.6,23.4c3.4,2.7,23.5,3.7,27.9,3.2c4.4-0.5,17.4,0,29.1,1.7
						c22.7,3.3,47-0.3,50.6-3.4c6.5-5.7,4.8-15.6-8.8-16.6c-7.8-0.5-25-7.8-33.3-11.7C664.5,805.2,651.3,792.9,647.8,793.3z"/>
				</defs>
				<use xlink:href="#SVGID_1_"  style="overflow:visible;fill:#FFFFFF;"/>
				<clipPath id="SVGID_00000178903360257042902170000009376411948010663314_">
					<use xlink:href="#SVGID_1_"  style="overflow:visible;"/>
				</clipPath>
				<g style="clip-path:url(#SVGID_00000178903360257042902170000009376411948010663314_);">
					<path class="st4" d="M606.2,823.8c9.2,7.3,32.2,3.2,40.3,4.2s34.1,7.6,54.8,6c12.5-1,18.2-4.5,19.9-5.2
						c1.7-0.7-3.7,17.6-3.7,17.6l-116.1-6L606.2,823.8z"/>
				</g>
				<g style="clip-path:url(#SVGID_00000178903360257042902170000009376411948010663314_);">
					<path class="st5" d="M650,810.7c0.8,0,1.6-0.5,2-1.3c0-0.1,3.1-6.3,7.8-10.9c0.9-0.9,0.9-2.3,0-3.2c-0.9-0.9-2.3-0.9-3.2,0
						c-5.2,5.2-8.5,11.8-8.6,12.1c-0.5,1.1-0.1,2.5,1,3C649.3,810.6,649.7,810.7,650,810.7z"/>
				</g>
				<g style="clip-path:url(#SVGID_00000178903360257042902170000009376411948010663314_);">
					<path class="st5" d="M658.7,814.6c0.8,0,1.7-0.5,2-1.3c0-0.1,3.1-6.6,6.4-10.1c0.9-0.9,0.8-2.3-0.1-3.2
						c-0.9-0.9-2.3-0.8-3.2,0.1c-3.8,4-7.1,11-7.2,11.3c-0.5,1.1,0,2.5,1.1,3C658,814.5,658.4,814.6,658.7,814.6z"/>
				</g>
				<g style="clip-path:url(#SVGID_00000178903360257042902170000009376411948010663314_);">
					<path class="st5" d="M668.2,816.6c0.8,0,1.6-0.5,2-1.3c0-0.1,2.5-5.1,4.8-8c0.8-1,0.6-2.4-0.4-3.2c-1-0.8-2.4-0.6-3.2,0.4
						c-2.6,3.3-5.2,8.6-5.3,8.9c-0.5,1.1-0.1,2.5,1,3C667.5,816.5,667.9,816.6,668.2,816.6z"/>
				</g>
			</g>
		</g>
		<g>
			<g>
				<path class="st1" d="M580.5,757.4c-1.4,17.9-3.5,51.4,0.2,56.4c1.8,2.4-10.3,21.5-23.7,15.8c-5.1-2.2-5.5-6.4-3.7-17.6
					c1.8-11.2,2.8-50.2,0.6-61.5L580.5,757.4z"/>
			</g>
			<g>
				<path class="st2" d="M555,765.5c9.9,9.2,24.3,8.3,24.3,8.3l0.6-10.1L555,765.5z"/>
			</g>
			<g>
				<defs>
					<path id="SVGID_00000117643714717801838240000002735301750315234199_" d="M583.8,805.1c-6.7,0.8-8,15.5-13.3,16.1
						c-14.8,1.7-16.7-10.6-16.6-15.7c0.1-3.6-2.4-1.9-3.4,1.2c-1.1,3.1-3.5,13.5-5.3,18.1c-1.8,4.6-6.1,21.1-2.7,23.9
						c3.5,2.8,24,3.8,28.5,3.3c4.5-0.5,17.9,0,29.8,1.7c23.3,3.4,48.1-0.3,51.8-3.5c6.6-5.8,4.9-16-9.1-17
						c-7.9-0.6-25.6-8-34.1-11.9C600.9,817.3,587.3,804.7,583.8,805.1z"/>
				</defs>
				<use xlink:href="#SVGID_00000117643714717801838240000002735301750315234199_"  style="overflow:visible;fill:#FFFFFF;"/>
				<clipPath id="SVGID_00000181810238856068820340000007540867752905715881_">
					<use xlink:href="#SVGID_00000117643714717801838240000002735301750315234199_"  style="overflow:visible;"/>
				</clipPath>
				<g style="clip-path:url(#SVGID_00000181810238856068820340000007540867752905715881_);">
					<path class="st4" d="M541.2,836.4c9.4,7.5,33,3.3,41.2,4.3c8.3,1,34.9,7.8,56.1,6.1c12.8-1,18.6-4.6,20.4-5.3
						c1.8-0.8-3.8,18-3.8,18l-118.8-6.1L541.2,836.4z"/>
				</g>
				<g style="clip-path:url(#SVGID_00000181810238856068820340000007540867752905715881_);">
					<path class="st5" d="M586,822.9c0.9,0,1.7-0.5,2.1-1.3c0-0.1,3.2-6.4,8-11.2c0.9-0.9,0.9-2.4,0-3.3c-0.9-0.9-2.4-0.9-3.3,0
						c-5.3,5.3-8.7,12.1-8.8,12.4c-0.6,1.1-0.1,2.5,1,3.1C585.3,822.8,585.7,822.9,586,822.9z"/>
				</g>
				<g style="clip-path:url(#SVGID_00000181810238856068820340000007540867752905715881_);">
					<path class="st5" d="M594.9,826.9c0.9,0,1.7-0.5,2.1-1.3c0-0.1,3.2-6.8,6.6-10.3c0.9-0.9,0.8-2.4-0.1-3.3
						c-0.9-0.9-2.4-0.8-3.3,0.1c-3.9,4.1-7.2,11.2-7.4,11.5c-0.5,1.2,0,2.5,1.1,3.1C594.2,826.8,594.5,826.9,594.9,826.9z"/>
				</g>
				<g style="clip-path:url(#SVGID_00000181810238856068820340000007540867752905715881_);">
					<path class="st5" d="M604.6,828.9c0.9,0,1.7-0.5,2.1-1.3c0-0.1,2.6-5.3,4.9-8.2c0.8-1,0.6-2.5-0.4-3.2c-1-0.8-2.5-0.6-3.2,0.4
						c-2.6,3.4-5.3,8.8-5.4,9.1c-0.6,1.1-0.1,2.5,1.1,3.1C603.9,828.8,604.3,828.9,604.6,828.9z"/>
				</g>
			</g>
		</g>
		<g>
			<path class="st7" d="M668.3,734.3c-0.1-3.5-34.5-16.1-39.1-12.2l1.7,10.1l30.3,8.9L668.3,734.3z"/>
		</g>
		<g>
			<path class="st7" d="M587.9,735.9c-1.2-3.3-38-4.3-41.2,0.9l4.8,9l31.7-1.2L587.9,735.9z"/>
		</g>
		<g>
			<path class="st8" d="M646.8,396.2c0.4,14.9,1.2,31.7,1.1,35.6c27.3,75.9,38.6,126.6,46.3,159.1c4.6,19.4-0.8,34.5-5.3,47.6
				c-7.8,22.5-22,83.9-28.3,107.3l-28.5-12.1c1.9-32.7,8.1-118.7,15.7-130.8c-10-38.2-43.6-96.2-50.9-116.5c0,0-7.2-89.3-6.1-89.3
				C591.9,397.3,646.8,396.2,646.8,396.2z"/>
		</g>
		<g>
			<path class="st7" d="M694.7,619.2c0.1-0.4,0.1-0.7,0.2-1c-6.3,6.5-18.7,8.2-26.9-4.2c-8.2-12.4-17.1-32.7-30-54
				c-12.9-21.3-27.7-107.2-27.7-107.2c5.6-9.6,10.1-13.7,14-24.6c0,0-26.8,7.6-28.9,8.7l-1,1.7c1.4,26-4.7,48.5-4.7,48.5
				c0.7,1.9,10.3,33.7,29.8,74.7c6.7,14.1,16.5,37.4,24.5,52.5c-7.6,12.1-9.9,86.8-11.7,119.5l28.5,12.1
				c6.3-23.4,20.5-84.8,28.3-107.3C691,632.6,693.3,626.2,694.7,619.2z"/>
		</g>
		<g>
			<path class="st8" d="M538.4,394.6c-5.1,29.9-9.6,40.6-9.8,50.9c-0.2,10.3,4.9,63.4,7.3,91.8c1.8,21.4,8.3,63.4,10.6,91.7
				c-7.8,25.2,0.5,78.1,6.3,118.1h30.1c1.4-17.4,2.7-58.9,5.7-85.1c1.9-17,5.1-28.7,4.7-51.1c-0.3-22.3,1.4-101,3.6-124.4
				c2.2-23.4,5.5-73.9,5.5-73.9s-1.1-16.5-2.2-16.5C599.2,396.2,538.4,394.6,538.4,394.6z"/>
		</g>
		<g>
			<path class="st7" d="M603.3,445.7c0.3,0,0.6-0.1,0.8-0.4c0.3-0.4,7.6-11.3,4.6-49.1c0-0.5-0.5-0.9-1-0.9c-0.5,0-0.9,0.5-0.9,1
				c2.9,36.9-4.2,47.8-4.2,47.9c-0.3,0.4-0.2,1,0.2,1.3C602.9,445.6,603.1,445.7,603.3,445.7z"/>
		</g>
		<g>
			<path class="st7" d="M558.6,740.3c0,0,0.1,0,0.1,0c0.5-0.1,0.9-0.6,0.8-1.1c-9.3-70.7-3.3-111-3.3-111.4l0-0.1
				c0.1-26.7-3.9-74.5-7-113c-2.3-28-4.3-52.2-4.2-61.9c0-14.1,1.2-18.8,3.6-29.2c1.6-6.7,3.8-15.8,6.5-31.3c0.1-0.5-0.3-1-0.8-1.1
				c-0.5-0.1-1,0.3-1.1,0.8c-2.7,15.4-4.9,24.5-6.5,31.2c-2.5,10.5-3.6,15.3-3.7,29.6c0,9.8,2,34,4.3,62.1
				c3.1,38.4,7.1,86.1,7,112.7c-0.3,2-5.8,42.4,3.3,111.9C557.7,740,558.1,740.3,558.6,740.3z"/>
		</g>
		<g>
			<path class="st7" d="M658.1,575.8c0.4,0,0.8-0.3,0.9-0.7c0.1-0.5-0.2-1-0.7-1.2c-0.1,0-14.2-3.9-23.1-10.8
				c-0.4-0.3-1-0.3-1.4,0.2c-0.3,0.4-0.2,1,0.2,1.4c9.2,7.1,23.2,11,23.8,11.1C657.9,575.8,658,575.8,658.1,575.8z"/>
		</g>
		<g>
			<path class="st9" d="M625,747.1c-0.2,9,31.9,18.1,35.9,9.6c4-8.5,7.4-22.3,7.4-22.3c-12.4,2.7-36.1-5.6-39.1-12.2
				C629.1,722.1,625.2,740.1,625,747.1z"/>
		</g>
		<g>
			<path class="st9" d="M550.6,761.6c2.6,8.6,36,7,37.2-2.3c1.2-9.3,0.2-23.4,0.2-23.4c-11,6.4-36.2,6.2-41.2,0.9
				C546.8,736.7,548.5,755,550.6,761.6z"/>
		</g>
		<g>
			<path class="st7" d="M647.1,380.3c0.4,5.3,0.2,30,0.2,30c-17.5,8.7-78.2,24.6-118.6,36.8c0,0-1.2-7.9,3.1-36c1.3-8.7,7-33,7-33
				L647.1,380.3z"/>
		</g>
	</g>
	<g>
		<g>
			<path class="st10" d="M939.1,202.4c-15.2,9.1-22.1,36.8-28.9,66.8c-6.8,30-11.6,53-11.7,61.9c-0.1,12,3.3,30.9,20.7,30.9
				c20.5,0,29.8-25.6,29.8-25.6L939.1,202.4z"/>
		</g>
		<g>
			<path class="st11" d="M895.8,317.4c1.4,3.5,2.3,9.1,2.7,13.6c2.1,5.1,11.8,8.8,18,7.4c12-2.7,13.2-16.5,5.7-29.6
				C914.9,296.1,895.8,317.4,895.8,317.4z"/>
		</g>
		<g>
			<path class="st12" d="M939.3,250.8c-3.2-1.2-12.4-5.3-12.4-5.3l13.8,32.5L939.3,250.8z"/>
		</g>
		<g>
			<path class="st13" d="M937.2,804.2c-3.9,7.4-29.5,20-31.4,20.2c-1.9,0.2-17.4,3.4-19.6,7.7c-1,2-0.5,13.2,3.6,13.9
				c4.1,0.7,19.4,2.6,22.4,2.2c3-0.4,36.9-2.1,45.8-7.5c8.9-5.4,26.4-4.2,27.1-9.8c0-2.2-3-23.1-3-23.1L937.2,804.2z"/>
			<path class="st13" d="M1025.3,820.6c-5.6,8.9-22.4,17.9-25.3,19.1c-3,1.2-16.1,5.8-17.6,8.4c-1.3,2.3-2,11.8,0.7,13.7
				s24.3,4.4,36.6,3.1c11.6-1.2,38.2-11.5,42.6-14.9c4.4-3.4,20.3-4.1,19.4-6.7c0.1-7.1-1.9-29-1.9-29L1025.3,820.6z"/>
			<path class="st14" d="M1083.2,787.4c0.3,8.2,0.8,12.6,0.5,27.6c-0.3,15-52.8,8.3-58.4,5.7c-5.5-2.7,6.7-16.7,8.7-20
				c2-3.2-5.2-6.4-5.3-12.4c-0.1-5.9-0.2-56-1.2-70.1c-1-14.1-9.1-52.1-14.3-66.9c-5.2-14.8-6.6-66.1-6.6-66.1s-13.3,60.6-9.7,77.7
				c3.6,17.1,1.7,27.5-0.3,35.7c-2,8.2-1.4,13.4,0.3,23.9c1.7,10.4,2.8,35,0.8,42.5c-2,7.5-4.3,18-9,24.1
				c-4.8,6.1,1.4,17.9,0.4,22.3c-1,4.4-29.3,5.8-52-7.1c-7.6-6.6,31.9-16.3,2.9-115.8c-1.8-22.4-3.8-56.1-3.6-68
				c0.4-27,7.3-149.8,11.5-215.9c0.3-4.7,2.8-9,2.8-13l108.8-1.9c0,0,5.8,16.8,7.2,21.3c9.3,29.4,2.4,94,2.7,149.7
				c0.2,29.1,2.7,52.8,2,58.3c0.2,12.4,7.5,54.2,7.9,75.1C1079.5,700.2,1082.9,779.1,1083.2,787.4z"/>
			<path class="st15" d="M992.4,466.3l-21.5-11.6l11.2,17.7c0,0-4.6,51.1-5,60.1c-0.4,9,8.9,30.4,8.4,45.4
				c-0.5,14.9-2.2,24.7-6.9,44.9c-4.7,20.2,5.7,39.4,1.1,64.9c-5.1,28.5-34.7,18.3-39.6,0.7c2,24.8,2.9,56.8-0.8,77.8
				c-4.1,23.3-6.7,29.7-2.1,37.9c22.7,13,50.9,11.6,52,7.1c1.1-4.4-5.1-16.2-0.4-22.3c4.8-6.1,7-16.6,9-24.1
				c2-7.5,0.8-32.1-0.8-42.5c-1.7-10.4-2.3-15.6-0.3-23.9c2-8.2,7.6-11.7,5.9-30.8c-1.6-17.4,4.1-82.6,4.1-82.6
				C1004.7,567.8,992.4,466.3,992.4,466.3z"/>
			<path class="st15" d="M1035.1,792.4c20,8.9,34.3-9.9,34.3-9.9S1065.8,819.2,1035.1,792.4z"/>
			<path class="st15" d="M1033.8,714.3c21.6,18.3,29.1,15.2,29.1,15.2S1058.6,750.5,1033.8,714.3z"/>
			<g id="XMLID_254_">
				<path class="st5" d="M1032.6,173.9c38.4,24,45.9,21.8,45.9,31.4c3.9,12.8-1.5,76.2-1.5,76.2s-6.4,87.7-6.4,100.7
					c0,0,3.6,17.8-1.1,22.7l1.1,11.8c-11.3,4.7-50.6,8.6-74.9,7.6c-19-0.8-42.3-6.2-51.1-9.8l0.9-13.6c-5.6-5.8-1-14.6,2.3-24.4
					c-3.3-2-8.3-6.9-3.2-18.4c-7.6-3.6-6.5-20.9-5.1-36.3c1.4-15.2,3.5-32.1-0.7-52.4c-3-14.6-7.2-62.8,0.4-67
					c13-7.2,22.7-6.3,36.3-16.8C986.5,182,1032.6,173.9,1032.6,173.9z"/>
			</g>
			<g>
				<g>
					<path class="st16" d="M1024.6,165.7c2.7,2.7,9.6,11.2,11.2,11.3c-3.1,5.9-34.7,29.6-39.2,55.7c-1.4,0.4-2.3,0-2.3,0
						c-6.9-20.5-23.6-46.8-7.2-54.2c-1.5-4.7-3-8.2-6.5-16.9c-2.5-6.2-4.5-6.9-6.1-6.9c-1.1,0-3.9,0.5-7.9,1.4
						c-1-13.8,10.6-25.2,15.2-27.5c5-2.5,30-17.1,30-17.1c-1.1,5.4,0.9,16.6,0.9,16.6C1012.9,143.7,1024.6,165.7,1024.6,165.7z"/>
				</g>
				<g>
					<path class="st11" d="M964.4,156.6c3.3-0.3,9.3-1.9,10.1-1.9c1.6,0,3.6,0.7,6.1,6.9c0.8,2,3.4,8.8,4.3,10.7
						c15.6-9.5,11.6-42.2,11.6-42.2s-2.4,9.8-7,14.1C987.8,145.7,974.7,152.5,964.4,156.6z"/>
				</g>
				<g>
					<g>
						<path class="st16" d="M933.7,119.6c0.1-6.2-3.7-15.3-5-19.9c-1.3-4.6-1.8-13.9-1.7-25.4c3-17.8,47.7-18.8,63.4-14.1
							c20.8,6.3,23.7,43.7,23.8,61.2l-12.8,4c0,0-0.9,22.8-5.3,26.3c-4,3.3-11.3,12-19.9,16.4c-0.6,0.3-1.3,0.6-1.9,0.9
							c0,0,0,0-0.1,0l0,0c-1.3,0.6-2.7,1.3-4.2,2.1c-7.8,3.9-14.7,1.4-18-3.4c-9-12.8-10.7-18.3-15-29.1
							C932.9,128.2,933.6,125,933.7,119.6z"/>
					</g>
					<g>
						<path class="st14" d="M1006.7,55.4c6.9,7.1,11.2,20.8,11.4,27.8c0.5,16.6-3.1,39.3-3.1,39.3l-1.5,12.7
							c-4.1-5.2-8.7-9.3-7.8-8.5l-6.1-9.3c-11.5-6.8-9.7-19.4-13.8-25.1c-2.7-3.8-8.8-12.2-6.5-25.8
							C979.2,66.4,994.7,58.1,1006.7,55.4L1006.7,55.4z"/>
					</g>
					<g>
						<path d="M949.5,41.6c44-20,65.1,3.1,61.2,19.1l-0.6-0.8c-2.1-2.8-7.5-2.2-7.5-2.2c-12,2.6-18.9,6.9-18.9,6.9
							c-30.3,14.2-49,11.9-56,12.5c-2.4,0.2-7-4.6-5-11.3C923.8,61.6,933.2,49,949.5,41.6z"/>
					</g>
					<g>
						<path class="st16" d="M991.9,114.8c0-10.8,10.9-15.8,16.3-10.9c4.6,4.1,9.2,18-3.9,24.9C986.8,138,991.9,114.8,991.9,114.8z"
							/>
					</g>
				</g>
				<g>
					<path d="M979.2,66.4c-6.4,2.8-18.5,18.3-37.4,22.4c7.2-5.7,10.6-13.6,10.6-13.6c-4.8,6.4-27.4,9-30.1,14.8
						c-0.7-8.6,4.4-13.2,4.4-13.2S914.9,79.7,912,71c5.4,1.3,10.1-2.9,10.2-3.6c0.1-0.7-0.1,0.7-0.1,0.7c-6.5-8.8-2.4-18-2.4-18
						c3.8,9,12.8,0.9,21.3-3.8L979.2,66.4z"/>
				</g>
				<g>
					<path d="M991.7,35.3c-7.4-2.8-31.6-13.7-43.5,7l4.9-2.2c8.9-9.2,17.6-9.2,26.4-1.7L991.7,35.3z"/>
				</g>
				<g>
					<path d="M1005.8,43.6c-3-7,0.7-9.7,0.7-9.7s-8.6,3.1-6.2,7C1002.8,44.9,1005.8,43.6,1005.8,43.6z"/>
				</g>
			</g>
			<g>
				<path class="st11" d="M984.6,186.3c3.2,7.7,9.6,8.1,9.6,12.9c0,4.8,0,33.5,0,33.5L984.6,186.3z"/>
			</g>
			<g>
				<path class="st12" d="M1024.6,165.7c6.7,7.7-17.8,28.4-23.2,32.6c-5.5,4.2-4.8,34.5-4.8,34.5c5.4-15.9,47.5-49.5,41.2-55.6
					C1032.6,173.9,1024.6,165.7,1024.6,165.7z"/>
			</g>
			<g>
				<path class="st12" d="M987.1,178.5c-6.8,7.4,2,16.4,3.5,19.8c1.5,3.4,3.7,34.3,3.7,34.3c-6.9-15-21.9-36.1-18.9-47.1l10.7-9.9
					L987.1,178.5z"/>
			</g>
			<g>
				<path class="st17" d="M992.5,424.2l-2.8-0.3c0.3-2.9,0.4-6.9,0.5-10.4c0.1-2.2,0.1-4.2,0.2-5.6c-4.2-7.7-2.4-13.2-1.2-16.9
					c0.5-1.4,0.9-2.6,0.7-3.4c-2.2-14.6,0.5-21.9,3.2-27.6c1.7-3.6,0-8.9-3.1-15.6c-1.5-3.3-0.8-12.3,0.7-30.8
					c1.8-21.5,4.2-50.9,2.9-82.4l2.8-0.1c1.3,31.7-1.2,61.2-3,82.8c-1.2,14.9-2.2,26.6-0.9,29.4c4.7,10.3,4.6,14.6,3.1,17.9
					c-2.7,5.6-5.1,12.2-3,26c0.2,1.4-0.3,2.9-0.8,4.6c-1.2,3.7-2.7,8.3,1.2,15.1l0.2,0.4l0,0.4c-0.1,1.3-0.2,3.4-0.3,5.9
					C992.9,417.2,992.8,421.2,992.5,424.2"/>
				<path class="st10" d="M995.2,293.2c-0.5,7.5-1.1,14.4-1.6,20.7c-0.2,2.1-0.3,4.1-0.5,6.1c0.1,0,0.2,0,0.3,0c0.4,0,0.7,0,1,0.1
					c17,2,28.6,8.3,41.4,16.2c3-1.4,4.7-2.3,4.7-2.3s-0.1,2.1-1.9,5.2c1.6,2.3,3.4,5.4,4.5,6.1c13.2,9,22.9,19.1,27.7,28.2
					c0.6-13.1,2.2-36.2,3.6-56.1v0C1071.8,316.6,1027.6,303,995.2,293.2 M961.2,283.3C961.2,283.3,961.2,283.4,961.2,283.3
					c-1.5,0.3-20.8,3.7-21,3.7c0,0,0,0,0,0c0.2,10.8-0.5,23.3-0.8,34.8c6.5-1.1,13-1.4,19.4-1.4c7.5,0,14.7,0.5,21.7,1
					c0.2,0,0.4,0,0.6,0c1.7,0,3.9-0.4,6.1-0.7c1.1-0.2,2.1-0.3,3.1-0.5c0.2-2,0.3-4.2,0.5-6.6c0.5-6.4,1.1-13.6,1.7-21.3
					C975.3,287.3,962,283.3,961.2,283.3"/>
				<path class="st5" d="M992.5,292.4c-0.5,7.7-1.1,14.8-1.7,21.3c-0.2,2.3-0.4,4.5-0.5,6.6c1-0.1,2-0.2,2.8-0.2
					c0.2-2,0.3-4,0.5-6.1c0.5-6.3,1.1-13.2,1.6-20.7C994.3,293,993.4,292.7,992.5,292.4"/>
				<path class="st5" d="M995.9,351.6c-0.9,0.3-1.8,0.5-2.6,0.7c0.5,1.9,0.8,3.5,0.7,5c1-0.1,1.9-0.2,2.8-0.3
					C996.7,355.6,996.5,353.8,995.9,351.6"/>
				<g>
					<path class="st10" d="M959.3,357.6c-0.9,0-1.8,0-2.6,0c6.9,0.4,13.2,0.6,19,0.6c6.8,0,12.9-0.3,18.3-0.8c0.1-1.5-0.2-3.2-0.7-5
						C982.1,355.4,970.3,357.6,959.3,357.6z"/>
					<path class="st10" d="M1035.8,336.3c-7.4,3.5-22.6,10.4-40,15.3c0.6,2.2,0.9,4,0.8,5.5c28.4-3,38.4-12.2,41.9-18
						c1.8-3,1.9-5.2,1.9-5.2S1038.8,334.9,1035.8,336.3z"/>
				</g>
				<path class="st10" d="M992.8,388.4c-0.1,1.1-0.5,2.2-0.9,3.5c-0.1,0.2-0.1,0.3-0.2,0.5c7.9,1.7,15,2.2,21,2.2
					c12.8,0,20.6-2.6,20.6-2.6S1013.7,391.5,992.8,388.4 M959.3,380.3c10.7,5.8,20.7,9.4,29.8,11.5c0.1-0.3,0.2-0.5,0.3-0.8
					c0.4-1.2,0.7-2.3,0.8-3C979,386.3,967.8,383.8,959.3,380.3"/>
				<path class="st5" d="M990.1,388c0,0.8-0.4,1.8-0.8,3c-0.1,0.2-0.2,0.5-0.3,0.8c0.9,0.2,1.8,0.4,2.7,0.6c0.1-0.2,0.1-0.3,0.2-0.5
					c0.4-1.3,0.8-2.4,0.9-3.5C991.9,388.3,991,388.2,990.1,388"/>
			</g>
			<g>
				<path class="st10" d="M1005.7,377.9c22-2.4,40-25.6,40-36C1045.7,341.9,1059.6,376.7,1005.7,377.9z"/>
			</g>
		</g>
		<g>
			<polygon class="st10" points="1061.2,241.2 1045.7,236.4 1065.7,300.1 			"/>
		</g>
		<g>
			<path class="st11" d="M898.5,272.7c-6.3-1.4-10.8-7-14.1-6c-3.3,1-5.4,3.4-3.3,6c2.1,2.5,10.2,8.2,10.2,8.2L898.5,272.7z"/>
		</g>
		<g>
			<path d="M947.6,253.7c-19,14.8-29.7,19.6-30.8,20.1c-1,0.6-50.8,14.2-50.5,13.9c0.2-0.2,7.2-10.4,17-11.1c6-0.4,8-2.8,9.7-7.6
				C895.2,263.2,920.9,262.8,947.6,253.7z"/>
		</g>
		<g>
			<g>
				<path class="st18" d="M912,274.3c0.7,2.9,2.9,4.8,5.1,4.3c2.1-0.5,3.3-3.2,2.7-6.1c-0.7-2.9-2.9-4.8-5.1-4.3
					C912.5,268.7,911.4,271.4,912,274.3z"/>
				<path class="st19" d="M910.8,274.6c0.7,2.9,2.9,4.8,5.1,4.3c2.1-0.5,3.3-3.2,2.7-6.1c-0.7-2.9-2.9-4.8-5.1-4.3
					C911.3,269,910.1,271.7,910.8,274.6z"/>
				<g>
					<path class="st18" d="M903.7,274.8c0.7,3,3.1,5,5.3,4.5c2.3-0.5,3.5-3.4,2.8-6.4c-0.7-3-3.1-5-5.3-4.5
						C904.2,268.9,903,271.7,903.7,274.8z"/>
					<path class="st19" d="M902.4,275.1c0.7,3,3.1,5,5.3,4.5s3.5-3.4,2.8-6.4c-0.7-3-3.1-5-5.3-4.5
						C902.9,269.2,901.7,272,902.4,275.1z"/>
					<g>
						<path class="st18" d="M897.5,280.3c0.7,3.1,3.2,5.3,5.6,4.7c2.3-0.5,3.7-3.5,2.9-6.7c-0.7-3.1-3.2-5.3-5.6-4.7
							C898.1,274.2,896.8,277.2,897.5,280.3z"/>
						<path class="st19" d="M896.2,280.6c0.7,3.1,3.2,5.3,5.6,4.7c2.3-0.5,3.7-3.5,2.9-6.7c-0.7-3.1-3.2-5.3-5.6-4.7
							C896.7,274.5,895.4,277.5,896.2,280.6z"/>
					</g>
				</g>
			</g>
		</g>
		<g>
			<g>
				<polygon class="st14" points="947.6,253.7 958.9,290.2 928.6,312.7 916.9,273.8 				"/>
			</g>
			<g>
				<path class="st20" d="M866.4,287.7l10.8,40.2c0,0,50.8-14,51.4-15.2c0.6-1.2-11.8-38.9-11.8-38.9L866.4,287.7z"/>
			</g>
		</g>
		<g>
			<g>
				<path class="st4" d="M1035.8,310.7c0.6,4.2,2.6,5.4,2.6,5.4s5.6-0.1,4.3-3.4C1041.5,309.4,1035.8,310.7,1035.8,310.7z"/>
			</g>
			<g>
				<path class="st5" d="M1112.3,311.9c0-2.2-1.2-8.3-3.1-16.4c-1-4,1.1-13.3,0-15.7c-1.1-2.4-5.9-7.4-5.9-7.4h0
					c0,0,0.9-7.3,0.3-9.4s-7.2-14.8-7.2-14.8c-7.2-23.5-15.1-45.3-20.2-49c-10.3-5.2-18,27.2-18.6,37.2c-1.6,23.9,6.9,53.9,6.9,53.9
					c-3.3,0.2-7.1,0.1-12.4-0.3c0,0,1.3,10.4-1.4,27.5c10.9,4.1,17,9.1,41.5,15.3C1109.8,337.2,1112.6,329.2,1112.3,311.9z"/>
			</g>
			<g>
				<path class="st10" d="M1067.4,290c8.5,1.2,22.9-2.3,29.5,3.4C1096.9,293.4,1097.8,281.7,1067.4,290z"/>
			</g>
			<g>
				<path class="st16" d="M1052.1,290c-4-0.9-48.5-6-51-6.6c-2.5-0.6-7.5,17.9-2.7,18.4c14.9,1.8,48.2,15.6,52.2,15.6
					C1055.1,317.4,1059.5,292.4,1052.1,290z"/>
			</g>
			<g>
				<path class="st10" d="M1070.8,287.4c6.9-6.7,22.3-12.3,22.3-12.3S1078.5,275.1,1070.8,287.4z"/>
			</g>
			<g>
				<path class="st16" d="M1001.1,283.4c-3.4,0-28.4-15-30.8-15.6c-2.4-0.6-16.8-4-19-4c-2.2,0-12.3,0.1-14.5,0.7
					c-2.8,0.8-3,6.4-0.6,6.4s14.7,1,16.5,1.2c1.8,0.2,10.1,3,10.1,3s-20.9-3.9-33.7-0.2c-3,0.9-2.9,7.4-0.1,7c6.1-0.9,15.6,0,15,0
					c-0.6,0-8.2-0.4-11.1,0.6c-1.6,0.5-1.9,6.8,0,6.7c14.7-1.1,26.9-0.2,31.2,1v1.5c0,0-14.5,0.2-20.2,3.3c-1.2,0.7-3,5.9,0.1,5.3
					c13.2-2.5,21.2-1.6,22.4-1.1c0.7,0.3,28.6,3.7,32,2.5L1001.1,283.4z"/>
			</g>
			<g>
				<path class="st12" d="M1041.5,288.5c5.6,14.1-3.1,27.6-3.1,27.6l13.4,1.8c2.7-1.8,10.4-19.2,1.6-27.8L1041.5,288.5z"/>
			</g>
		</g>
		<g>
			<path class="st12" d="M898,326.6c2.7,7.3,10.9,9.5,16.5,8.6c8-1.3,14-11.7,10.9-19.1c2.6,7.3,5.4,22.7-8.6,25.8
				C911,343.3,898.5,341.9,898,326.6z"/>
		</g>
	</g>
</g>
<path d="M973.6,101.8c-10.8-3.3-17.3-2.4-18-0.6c-0.6,1.4-1.1,3.5,1.2,3.5c2.3,0,14-1.7,15.7-1.7
	C974.2,102.9,973.6,101.8,973.6,101.8z"/>
<path d="M937.5,106.6c-2.3-2.9-6.1-3.2-7.3-2.3c-0.8,0.7-0.3,3.7,1.1,4.1c1.1,0.3,2.7-0.8,4.7-0.9
	C937.7,107.5,937.5,106.6,937.5,106.6z"/>
<path d="M969.3,112.3c-0.5-2.3-2.2-3.8-3.9-3.5c-1.7,0.4-2.6,2.5-2.1,4.8c0.5,2.3,2.2,3.8,3.9,3.5
	C968.8,116.7,969.8,114.6,969.3,112.3z"/>
<path d="M941.9,116.3c-0.5-2.3-2.2-3.8-3.9-3.5c-1.7,0.4-2.6,2.5-2.1,4.8c0.5,2.3,2.2,3.8,3.9,3.5
	C941.5,120.7,942.4,118.6,941.9,116.3z"/>
<g>
	<g>
		<g>
			<g>
				<path class="st2" d="M677.1,299.2l20.2-37.1l12.6-17.6c0,0,8.1-7,13.2-11.4c3.4-3,4.6-4.5,5.6-6.1c1.6-2.6,6.4-0.2,6.4,1.8
					c-0.1,4.7-4.4,8.9-4.4,8.9l-12.1,42.6l-18.7,28.3C697.4,313.8,667.6,320.6,677.1,299.2z"/>
			</g>
			<path class="st21" d="M673.5,258.1c23.5-1.9,34.5-5.5,35.6-5.8s53-28,52.6-28.1c-0.2,0-19,1.9-26.5,7.9
				c-4.6,3.7-7.6,3.3-12.1,0.9C717.8,230.3,698.9,247.1,673.5,258.1z"/>
			<g>
				<path class="st17" d="M631.3,210.7c19.2,13.7,23.1,59.2,37.6,90.1c0,0,3.7,0.7,8.2-1.5c0,19.1,18.8,14.6,22.8,9.3
					c-5.7,9.3-10,17.1-18.2,26.2c-12.1,13.3-32.4,2-42.6-17.4C638.4,316.2,631.3,210.7,631.3,210.7z"/>
			</g>
		</g>
		<path d="M572.7,69c-22.4,10.9-26,23.1-25.1,135.2c1,112.1,43.2,21.9,43.2-5.7S572.7,69,572.7,69z"/>
		<g>
			<path class="st22" d="M590,64.3c-17.5-3.5-21.1,6.6-21,15.9C569,86,590,64.3,590,64.3z"/>
		</g>
		<g>
			<path d="M572.5,73.4c11.8-16,45.3-11.8,58.4,1c14,2,26.6,15.7,28.4,23.7c-7.2-6-9.3-6.8-9.3-6.8c7.9,16.3-6,23-6,23l-70.7,35.1
				C559.7,124.6,555.9,96,572.5,73.4z"/>
		</g>
		<g>
			<g>
				<path class="st1" d="M607.7,195.4c0,0-4.3-1.8-7.8-4.5c3-12,4.3-19,9.4-19.4L576,141.6c0,5.4-8.8,46.6-9.7,49.6
					c-0.9,3-7.4,4.2-12.5,7.3c9.3,3.6,12.3,17.1,35.4,15.7C612.4,212.9,609.4,197.1,607.7,195.4z"/>
			</g>
			<g>
				<path class="st2" d="M601.2,185.8c1.8-6.5,4.2-12.9,7.8-13.2l-4.9-3.5L585,157.8C585,157.8,586.9,173.3,601.2,185.8z"/>
			</g>
			<g>
				<g>
					<path class="st1" d="M631.9,81.5c3.3,9.9-13.2,24.1-13.7,21.6c0,0,6.5-10.1,7.2-16.6c-7.3,7.2-16.5,10.2-23.5,13.6c0,0,0,0,0,0
						c7.7-8.2,8.5-12,9.3-14.2c-1.8,2.9-11,15.9-22.5,18.4c0,0-4.8,7-4.9,10.7c-0.4,12.3-6.7,10.9-9.4,23.9
						c1.8,13.3,6.6,19,25.2,32.6c14.6,10.6,25.7,4.5,29.2-3.3c4.1-9,10.4-19.5,11.2-24.2c2.5-14.5-1.2-11.2,3.5-26
						C647,102.1,645.2,92.2,631.9,81.5z"/>
				</g>
				<g>
					<path class="st1" d="M581.8,124.2c-4.7-10.7-14.6-8.7-16,0.2c-1.1,7.1,5.1,17.3,12.4,18.2C588.6,144,586.7,135.4,581.8,124.2z"
						/>
				</g>
			</g>
			<g>
				<path class="st1" d="M594,95.1c1.7-7,7-12.9,7-12.9S596.3,92.5,594,95.1z"/>
			</g>
		</g>
		<g>
			<g>
				<path class="st17" d="M637.9,322.5l-38.1,0.9l-68.3-53.7c0.5,2,1.1,4,1.6,5.8c5.8,21-5.7,112.2-1.9,128.1s113,3.9,117.8-6.4
					c0.4-0.8,0.9-3.2,0.9-4.5c0-1.9-1.5-7.4-1.5-7.4s1.5-2.4,1.1-5.5C646.9,360,638.5,330.5,637.9,322.5z"/>
			</g>
			<g>
				<path class="st17" d="M637.4,241c-3.7-8-3.4-28.2-6.1-30.4c-2.4-1.9-17.3-9.4-17.5-10.1c-4.5,8.9-18,13.8-26,13.9
					c-17.5,0.2-31.9-16.1-31.9-16.1c-10.3,4.1-23.3,11.6-29,16.1c-14.2,15.3-5.5,36,4.5,55.3l71.2,44.2l35.3,8.6
					c-0.6-8.1-0.9-17.6-0.5-28.9C654.8,277.9,640.2,247.1,637.4,241z"/>
			</g>
			<g>
				<path class="st23" d="M565.5,225.4c3.3,2.6,6.5,6.3,6.5,6.3l15.2-15.3l27.1,9.8l3.8-22.9l-4.6-3l-24.3,14L565.5,225.4z"/>
			</g>
			<g>
				<path class="st17" d="M566.3,191.3c3.3,12.7,21.5,23.1,21.5,23.1s15-8,12.1-23.5l0.7-2.8c0,0,10.8,8.2,12.5,10.6
					c1.8,2.4-1.5,23.9-1.5,23.9s-5.4-4.1-11.6-5.4c-6.2-1.3-10.2-0.9-10.2-0.9l9.7,38.5h-2.3l-10-38.5c0,0-6.5,1.1-10.9,4.4
					c-4.4,3.3-8,8.8-8,8.8s-19.9-23.9-17.8-30c5.9-5,17-13.2,17-13.2L566.3,191.3z"/>
			</g>
			<g>
				<path class="st23" d="M582.8,301.2c-0.7,0-1.4-0.6-1.4-1.4s0.6-1.4,1.4-1.4c9.3,0,14.2-2.5,18.9-5c4.4-2.3,8.2-3.7,15.3-3.7
					c0.7,0,2.2,0.5,2.2,1.2s-1.1,0.8-1.9,0.8c-6.4,0-10.1,1.9-14.4,4.1C598.1,298.4,592.7,301.2,582.8,301.2z"/>
			</g>
			<g>
				<path class="st23" d="M645.2,275.8c0.4-7.4-2.3-14.1-6.7-19.9c-1.2-1.6-2.4-3.1-3.7-4.6c0-0.1,0-0.2-0.1-0.3
					c-0.4-0.7,0.2-2.1,0.5-2.8c0.3-1,0.6-2.6,0.7-3.6c0.1-3-1-2-1.7-0.5c-0.5,1.1-1.3,2.6-1.7,4.1c-0.5-0.7-0.9-1.4-1.3-2.1
					c-2.5-4.4-2.9-9.3-3.8-14.2c-0.3-1.6-1.3-0.3-1.3,1.8c0,7.4,1.3,11.9,5.8,17.9c5.7,7.5,11.3,14.3,10.7,24.3
					c-0.4,8.1-5.7,14.4-6.9,22.2c-1,6.8,2.3,13.6,0.6,20.4c-0.4,1.6,2,2.3,2.4,0.7c1.8-7.1-1.7-14.1-0.4-21.2
					C639.7,290.1,644.8,284,645.2,275.8z"/>
			</g>
		</g>
		<g>
			<g>
				<g>
					<polygon class="st24" points="684.5,254.3 707.6,246.6 741.4,231.4 744.2,235.8 712.2,255.6 686.9,260.1 					"/>
					<polygon class="st25" points="687.8,256.8 686.7,255 708.1,249.2 743.8,232.2 745.3,235.1 711.6,255.4 689.1,259.7 					"/>
				</g>
			</g>
			<g>
				<polygon class="st26" points="673.5,258.1 689.5,292 726.2,288.3 709.1,252.4 				"/>
			</g>
			<g>
				<path class="st27" d="M761.6,224.3l11.9,41c0,0-46.1,23.5-47.3,23c-1.2-0.5-17.2-35.9-17.2-35.9L761.6,224.3z"/>
			</g>
			<g>
				<path class="st21" d="M721.4,256.9c-1.9,1.1-3.2-0.3-0.9-1.6s7.7-5.1,10.5-6.4c2.8-1.3,10.3-4,12.7-5.2s9.5-5.1,11.3-6
					c1.8-1,2.6,0.3,1,1.3c-1.6,1.1-8.2,5.8-11.3,7.2c-3,1.4-10.8,4.1-13.2,5.3C729.1,252.7,723.3,255.8,721.4,256.9z"/>
			</g>
			<g>
				<path class="st21" d="M726.2,262.5c-1.9,1.1-3.2-0.3-0.9-1.6c2.2-1.3,7.7-5.1,10.5-6.4s10.3-4,12.7-5.2s9.5-5.1,11.3-6
					s2.6,0.3,1,1.3s-8.2,5.8-11.3,7.2c-3,1.4-10.8,4.1-13.2,5.3C733.9,258.4,728.1,261.4,726.2,262.5z"/>
			</g>
			<g>
				<path d="M876.4,296.4c-2.2,0.7-3.1-1-0.6-1.8c2.5-0.9,8.8-3.5,11.9-4.3c3.1-0.7,11.2-1.8,13.9-2.6s10.7-3.1,12.7-3.7
					c2-0.6,2.5,0.8,0.7,1.5c-1.8,0.7-9.5,4.1-12.9,4.9c-3.4,0.8-11.8,1.9-14.4,2.6C885,293.8,878.5,295.7,876.4,296.4z"/>
			</g>
			<g>
				<path d="M880,303.1c-2.2,0.7-3.1-1-0.6-1.8c2.5-0.9,8.8-3.5,11.9-4.3s11.2-1.8,13.9-2.6c2.7-0.7,10.7-3.1,12.7-3.7
					c2-0.6,2.5,0.8,0.7,1.5s-9.5,4.1-12.9,4.9c-3.4,0.8-11.8,1.9-14.4,2.6C888.7,300.5,882.2,302.4,880,303.1z"/>
			</g>
		</g>
		<g>
			<g>
				<path class="st17" d="M547.7,220.6c18,22,33.8,63.6,56.5,94c9.4-1.5,27-11.3,27-11.3c2.1,13.7,8.6,20.7,8.6,20.7
					s-29.2,22.4-32.9,24.2c-9.9,4.7-17.2,4.5-31.6-13.4c-4.4-5.5-44-65-44-65C518.7,218.9,530.1,216.1,547.7,220.6z"/>
			</g>
			<g>
				<path class="st1" d="M631.3,303.3c0,0,30.2-15,37.6-21.7c4.9,12.4,3.8,21.9,3.8,21.9L639.9,324
					C634.2,327.5,622.8,310.8,631.3,303.3z"/>
			</g>
			<g>
				<path class="st1" d="M668.9,281.6c4.5-5.1,11.1-12.9,15.1-16.1c3.4-2.7,21-8.6,25.4-10.9c1.7-0.9,4.3,4.3,0.5,6.5
					c-3.7,2.2-11.8,4.9-13.7,7.4c11.3-1.9,11.2-2.3,15.7-3.2c3.9-0.8,22.3-3.3,22.5-0.2c0.2,3.1,0.7,3.9-1.5,4.5
					c-5,1.2-27.8,5.2-27.5,6c0.3,0.7,0.3,0.7,0.3,0.7s31.1-5.6,32-3.4c0.9,2.2,2.1,4-0.4,5.3c-2.5,1.2-6,3.4-6.9,3.8
					c-0.9,0.4-3.5,3.3-7,5.2c-7.8,7.3-9.4,7.6-12.6,7.9c-3.3,0.3-12.8,2.5-15,3.2c-2.2,0.7-23.1,5.3-23.1,5.3
					S668.7,280.7,668.9,281.6z"/>
			</g>
		</g>
	</g>
	<g>
		<path class="st23" d="M629.4,303c-5.9,0.1-9.7,2.1-14.9,4.7c-4.5,2.2-8.9,4.3-13.4,6.5c-3.3-10.6-9.9-19.8-14.4-30
			c-5.3-11.9-12.1-22.9-18.1-34.4c-0.8-1.5-2.9-0.2-2.2,1.3c5.6,10.8,12,21.2,17.1,32.3c4.8,10.6,11.7,20.5,15.2,31.7
			c0,0.1,0.1,0.2,0.1,0.3c-1.6,0.8-3.1,1.9-4.3,3.1c-1.2,1.1-0.5,2.4,1,1.6c6.1-3.4,12.4-6.3,18.6-9.3c5.5-2.7,8.8-4.3,14.8-6
			C630.5,304.3,630.7,303,629.4,303z"/>
	</g>
</g>
<path d="M607.5,124.2c0.3-2.6,2-4.5,3.8-4.3c1.7,0.2,2.9,2.5,2.5,5.1c-0.3,2.6-2,4.5-3.8,4.3C608.3,129.1,607.2,126.8,607.5,124.2z"
	/>
<path d="M632.2,126.3c0.3-2.4,1.8-4.2,3.4-4c1.5,0.2,2.5,2.3,2.2,4.8c-0.3,2.4-1.8,4.2-3.4,4C632.9,130.9,631.9,128.7,632.2,126.3z"
	/>
<path d="M634.5,111.9c4.3-1.4,10.7,1.7,10.8,2.7c0.1,0.6-0.4,1.8-0.7,1.8c-1.3-0.3-8.5-0.5-11.1-1
	C632.2,115.1,633.6,112.2,634.5,111.9z"/>
<path class="st2" d="M624.5,133.6c1.2,5.8,2.7,8.1,1.7,10.9c-1.1,3.2-2.6,2.5-3.7,2.5c-1.1,0-1.1,1.1,0.1,1.2c0,0,3.1,1.7,4.8-2.6
	s-1.4-8.3-2-12.2C624.7,129.5,624.1,131.6,624.5,133.6z"/>
<path class="st11" d="M948,123.5c-1,6.6-2.6,9.2-1.3,12.4c1.4,3.5,3,2.7,4.3,2.6s1.3,1.1,0,1.3c0,0-3.4,2.1-5.6-2.6
	c-2.1-4.7,1-9.4,1.6-13.8C947.5,119,948.4,121.3,948,123.5z"/>
<path class="st17" d="M613.4,156.5c0.8-0.6,4.8,1.8,8.2,1.9c3.6,0.1,5.6-1.5,5.8-0.5c0.3,0.9-2.6,4.6-7.6,4
	C615.4,161.4,612.1,157.3,613.4,156.5z"/>
<path d="M602.6,109c6.6-2.1,16.7,0.1,17.1,1.5c0.4,1.4-0.3,3.6-1.6,3.5c-1.3-0.1-14.3-2.3-16.5-3.2
	C600.4,110.4,601.7,109.3,602.6,109z"/>
<path class="st23" d="M533.2,271.7c1.1,1.7,37.8,57.5,42.2,63c14.5,17.9,21.7,18.2,31.6,13.4c3.6-1.7,31.2-22.9,31.2-22.9l2,9.9
	c0,0-6,3.2-14.2,7.2c-12.4,6-22.5,12.6-32.4,10.2c-16.4-4-28.3-28.8-38.5-43.2c-10.6-14.8-19-30.3-21.6-33.8
	C530.8,271.9,532.1,270,533.2,271.7z"/>
<g>
	<path class="st23" d="M646.3,386.8c-7.3,5.8-22.6,9.7-22.6,9.7S637.7,397.9,646.3,386.8z"/>
</g>
<path class="st23" d="M642.2,322.6l30.5-19.1l4.6-1c0,0,0.3,4.2,3.1,7.3c2.8,3.1,6.6,3.2,6.6,3.2l-37.5,18.1
	C649.4,331.1,646,328.3,642.2,322.6z"/>
<polygon class="st23" points="587.2,216.3 597.3,254.9 599.6,254.9 589.9,216.3 "/>
<path class="st5" d="M595.1,222.7c2-0.2,4.4,4.3,1.7,5C594,228.4,593.1,222.9,595.1,222.7z"/>
<path class="st5" d="M597.7,233.2c2-0.2,4.4,4.3,1.7,5C596.6,239,595.7,233.5,597.7,233.2z"/>
<path class="st5" d="M600.5,244.9c2-0.2,4.4,4.3,1.7,5C599.4,250.7,598.5,245.1,600.5,244.9z"/>
<path class="st28" d="M622.7,250.7c2.2-0.7,5.2,1.2,1.7,3C620.9,255.5,619.5,251.8,622.7,250.7z"/>
<path class="st29" d="M626,250.9c0.9,0.8,0.8,2.5-0.8,1.4C623.6,251.3,624.8,249.8,626,250.9z"/>
<path class="st26" d="M1081.6,838.6c0,0-14.3,3-18,4.5c-3.6,1.5-19.5,11.6-43.9,15.9s-38.5-3.6-38.5-3.6s-0.5,3.8,1.4,6.4
	c2.3,3,21,6.3,35.7,3.5c7.2-0.4,27.7-7.3,34.9-10.8c8.6-3.6,9.7-5,11.5-5.7s11.1-2.6,13.3-3.3c2.3-0.7,3.5-0.6,3.5-2.1
	C1081.7,841.8,1081.6,838.6,1081.6,838.6z"/>
<path class="st26" d="M984.7,826.8c0,0-16.9,3.3-20.5,4.5s-15.4,8.5-41.1,10.5c-23.7,1.8-37.1-2.8-37.1-2.8s0.2,4.4,2.5,6.2
	c1.4,1.2,10.3,4.1,33,2.5c7-0.1,24.4-2,31.5-5c4.1-1.5,4.7-1.8,7.4-3.3c2.6-1.4,7.3-2.3,8.2-2.5c1.7-0.4,9.1-1.5,12.6-2.8
	c3-1.1,3.8-1.9,3.9-3.4S984.7,826.8,984.7,826.8z"/>
<path class="st2" d="M950.4,153.5c0.7,0.6,3.2-1.6,6.6-1.6c3.4,0,7.1,2,7.4,1.1c0.8-1.9-3.2-4.2-8.2-3.9
	C951.8,149.3,949.2,152.6,950.4,153.5z"/>
</svg>
