<?xml version="1.0" encoding="utf-8"?>
<!-- Generator: Adobe Illustrator 27.0.1, SVG Export Plug-In . SVG Version: 6.00 Build 0)  -->
<svg version="1.1" id="Lager_1" xmlns="http://www.w3.org/2000/svg" xmlns:xlink="http://www.w3.org/1999/xlink" x="0px" y="0px"
	 viewBox="0 0 1600 900" style="enable-background:new 0 0 1600 900;" xml:space="preserve">
<style type="text/css">
	.st0{fill:#ED492E;}
	.st1{fill:#D1311C;}
	.st2{fill:#96672C;}
	.st3{fill:#6B410C;}
	.st4{fill:#ECB892;}
	.st5{fill:#F3F3F3;}
	.st6{fill:#5B3308;}
	.st7{fill:#3C3D3C;}
	.st8{fill:#272727;}
	.st9{fill:#1C1C1C;}
	.st10{fill:#393A39;}
	.st11{fill:#418C9A;}
	.st12{fill:#500B00;}
	.st13{fill:#333333;}
	.st14{fill:#2B2B2B;}
	.st15{fill:#383938;}
	.st16{fill:#4A4A4A;}
	.st17{fill:#7D7B7B;}
	.st18{fill:#FFFFFF;}
	.st19{fill:#343434;}
	.st20{fill:#868686;}
	.st21{fill:#1B1B1B;}
	.st22{fill:#0E0E0E;}
	.st23{fill:#313131;}
	.st24{fill:url(#SVGID_1_);}
	.st25{fill:url(#SVGID_00000110472628740566697720000014216647645422693000_);}
	.st26{fill:url(#SVGID_00000062871032163172680340000010472635295746460316_);}
	.st27{fill:url(#SVGID_00000181785217740473890560000007808952235099575213_);}
	.st28{fill:url(#SVGID_00000139262817206752835330000013545406860634445718_);}
	.st29{fill:url(#SVGID_00000035502679271514202990000008870347519715476373_);}
	.st30{fill:url(#SVGID_00000155118369691492118580000017172103852468378518_);}
	.st31{fill:url(#SVGID_00000052814926077816902670000001371269973410967476_);}
	.st32{fill:url(#SVGID_00000001637965064140560030000004457182775324845469_);}
	.st33{fill:url(#SVGID_00000012464440918932987510000005642020015441789060_);}
	.st34{fill:url(#SVGID_00000081620053837190886860000009897207996081174158_);}
	.st35{fill:url(#SVGID_00000127003535211686221420000015365294575295314600_);}
	.st36{fill:#363636;}
	.st37{fill:#7A1F10;}
	.st38{fill:#BE6500;}
	.st39{fill:#FFC833;}
	.st40{fill:#002B33;}
	.st41{fill:#106B7A;}
	.st42{fill:#808080;}
	.st43{fill:#4B4C4B;}
	.st44{fill:#E8E8E6;}
	.st45{fill:#BEBEBE;}
	.st46{fill:#BFBFBF;}
	.st47{fill:#2A2B2A;}
	.st48{fill:#373737;}
	.st49{fill:#CECECE;}
	.st50{fill:#A2A1A1;}
	.st51{fill:#A0723F;}
	.st52{fill:#B98A50;}
</style>
<g>
	<g>
		<path d="M761.9,105c2.2,40.6,31.3,67.6,71.9,65.3c40.6-2.2,74.4-37.1,72.2-77.7c-2.2-40.6-39.7-71.5-80.3-69.3
			C785.1,25.6,759.7,64.4,761.9,105z"/>
	</g>
	<g>
		<g>
			<path class="st0" d="M878.3,198.7c0,0,1.4-39.7-48.8-34.9c-38.3,3.6-40.2,23.7-43.6,33L878.3,198.7z"/>
			<g>
				<path class="st0" d="M939,229c-1.2,40.1-31.1,124.9-34,156.3c-1.7,18.9,22.4,53.9,26.1,95.3L752.8,493c0,0,5.7-47.4,13-105.6
					c1.1-8.6,5.5-27.7,0.8-43.1c0,0-26.5-11.7-19.3-35.8c24.1-80.7-10.6-77.7-4.9-86.3c19.3-29,59.5-47.3,88.8-46.8
					C894.7,176.6,939.5,209,939,229z"/>
			</g>
			<g>
				<path class="st1" d="M880.1,380.7c2.1-9.2,31.8-102.9,47.3-141.5c1.2-2.9,0.7-5.6-0.7-7.6c4.4-4.2,7.8-8,10.1-11.1
					c1.5,3,2.2,5.8,2.1,8.5c-1.2,40.1-22.4,124.4-25.2,155.7c-1.7,18.9,15.1,50.5,21.9,91.8c0,0,2.7,8.3-4.6,9.4
					c-1.3,0.2-28.6,4.2-68.6,6.5c-40,2.2-109.6,0.7-109.6,0.7s2.3,8.2,4.1-14.7C800.9,464.8,865.4,446.2,880.1,380.7z"/>
			</g>
			<g>
				<path class="st2" d="M917.2,413.6c-1.5,1.1-4.5,5-4.5,5s-12,1.2-13,1.8c-4.6,2.8-6.2,6.9-6.2,6.9l37.9,23.3c0,0,7.9-7.2,8.5-11
					c0.6-3.9,0-5.4,0-5.4l1.4-4.8c1.1-3.7,0.3-7.7-2-10.7c-1.7-2.2-4.1-4.4-7.1-5.6C923.7,409.7,920.4,411.2,917.2,413.6z"/>
				<path class="st2" d="M890.2,459.4l0.3-1.5c0.2-0.6,0.3-1.2,0.5-1.8c0.4-1.2,0.8-2.5,1.3-3.7c1-2.5,2.2-4.9,3.5-7.2
					c1.3-2.4,2.8-4.6,4.4-6.9c0.8-1.1,1.6-2.2,2.5-3.3l2.6-3.2l0.2-0.2c2.4-2.9,2-7.3-0.9-9.7c-2.9-2.4-7.3-2-9.7,0.9
					c-0.2,0.2-0.3,0.4-0.4,0.6l-2.6,3.9c-0.8,1.4-1.7,2.7-2.4,4c-1.6,2.7-3,5.6-4.3,8.5c-1.3,2.9-2.4,5.9-3.2,9
					c-0.4,1.6-0.8,3.1-1.1,4.8c-0.2,0.8-0.3,1.6-0.4,2.5c0,0.4-0.1,0.8-0.1,1.3c0,0.5-0.1,0.8-0.1,1.5c-0.1,2.8,2,5.1,4.8,5.2
					c2.5,0.1,4.6-1.6,5.1-3.9L890.2,459.4z"/>
				<path class="st3" d="M898,437.8c0.7-0.4,1.3-0.9,1.9-1.5c0.4,0.2,0.8,0.4,1.3,0.6c-0.3,0.4-0.7,0.9-1,1.3
					c-1.6,2.2-3.1,4.5-4.4,6.9c-1.3,2.4-2.5,4.8-3.5,7.2c-0.5,1.2-0.9,2.5-1.3,3.7c-0.2,0.6-0.3,1.2-0.5,1.8l-0.3,1.5l-0.2,0.8
					c-0.5,2.1-2.3,3.7-4.4,3.9C887.5,458.9,894,440.2,898,437.8z"/>
				<path class="st2" d="M895.1,469.9c1.3-2.5,2.8-5.1,4.3-7.7c1.5-2.6,3.1-5.1,4.7-7.6c3.2-5.1,6.6-10,10-14.9
					c2.2-3.1,1.5-7.4-1.6-9.6c-3.1-2.2-7.4-1.5-9.6,1.6c-0.1,0.2-0.3,0.4-0.4,0.6c-3.1,5.4-6,10.9-8.8,16.4
					c-1.4,2.8-2.7,5.6-4.1,8.4c-1.3,2.9-2.5,5.6-3.8,8.7c-1,2.6,0.2,5.5,2.8,6.5c2.4,1,5.1-0.1,6.3-2.3L895.1,469.9z"/>
				<path class="st3" d="M887.7,472c0.3-0.5,0.6-1.1,0.9-1.7c5.8-11.5,13.9-21.6,22.4-31.4c0.9,0.4,1.9,0.8,2.8,1.1
					c-3.4,4.8-6.7,9.7-9.8,14.7c-1.6,2.5-3.2,5.1-4.7,7.6c-1.5,2.5-3,5.2-4.3,7.7l-0.1,0.2c-1.2,2.3-3.9,3.3-6.3,2.3
					C888.3,472.3,888,472.1,887.7,472z"/>
				<path class="st2" d="M902,472.6c2.3-2.4,4.2-4.6,6.2-7c2-2.3,3.9-4.7,5.7-7.1c3.7-4.8,7.3-9.6,10.8-14.6l0,0
					c2.2-3.1,1.5-7.4-1.6-9.6c-3.1-2.2-7.4-1.5-9.6,1.6c-0.1,0.2-0.3,0.4-0.4,0.6c-2.9,5.1-5.9,10.1-9,15.1
					c-1.6,2.5-3.1,4.9-4.8,7.3c-1.6,2.4-3.4,4.8-5,6.9l-0.1,0.2c-1.7,2.2-1.3,5.4,0.9,7.1C897.4,474.7,900.3,474.4,902,472.6z"/>
				<path class="st2" d="M910.9,470.2c2.3-1.6,4.2-3.1,6.1-4.8c1.9-1.6,3.8-3.3,5.6-5.1c3.6-3.5,7.1-7.3,10.3-11.3
					c1.9-2.4,1.6-6-0.9-7.9c-2.4-1.9-6-1.6-7.9,0.9c-0.1,0.1-0.2,0.3-0.3,0.5c-2.5,3.9-5.3,7.6-8.3,11.2c-1.5,1.8-3.1,3.5-4.7,5.2
					c-1.6,1.6-3.3,3.3-4.9,4.7l-0.2,0.1c-1.7,1.5-1.9,4.1-0.4,5.8C906.8,471.1,909.2,471.4,910.9,470.2z"/>
				<path class="st3" d="M905.4,469.5c-0.1-0.1-0.1-0.2-0.2-0.3c1.3-0.5,2.5-1.2,3.7-2c6.5-4.4,11.4-10.7,16.6-16.2
					c2.7-2.8,5.5-5.4,8-8.3c0.3,0.6,4.2-19,1.3-28.5c1.8,1.2,4.3,1.8,5.4,3.3c2.4,3,2.2,7.9,1.1,11.6l-1.4,4.8c0,0,0.5,1.6,0,5.4
					c-0.4,2.7-4.3,7-6.7,9.3c-0.1,0.1-0.1,0.2-0.2,0.3c-3.2,4-6.6,7.7-10.3,11.3c-1.8,1.8-3.7,3.5-5.6,5.1c-2,1.7-3.9,3.2-6.1,4.8
					C909.2,471.4,906.8,471.1,905.4,469.5z"/>
				<path class="st3" d="M895.9,473.5c0.3-0.2,0.6-0.5,0.8-0.7c9.3-9.3,18.8-18.6,25.5-29.6c1.3,0.5,1.3,0.3,2.7,0.5
					c0,0.1-0.1,0.1-0.1,0.2l0,0c-3.5,4.9-7.1,9.8-10.8,14.6c-1.9,2.4-3.8,4.8-5.7,7.1c-2,2.4-3.9,4.6-6.2,7
					C900.4,474.3,897.9,474.6,895.9,473.5z"/>
			</g>
			<g>
				<g>
					<g>
						<path class="st4" d="M844.4,351.6l0.1,0.1C844.4,351.6,844.4,351.6,844.4,351.6z"/>
					</g>
				</g>
			</g>
		</g>
	</g>
	<g>
		<g>
			<path class="st2" d="M856.4,178.4c0,0-12-22-15-42.3c-1.3-8.8-31.9-1.3-30.8,6.2c4,27.7-0.1,34.1-2,36.9
				c-1.9,2.9-3.2,11.6,1.1,21.6c4.3,10,19.6,34,19.6,34l1.7-1.4c0,0,4.7-11.6,10.6-21.5C849.5,198.8,858.8,185.8,856.4,178.4z"/>
		</g>
		<g>
			<path class="st3" d="M812.2,167.2c0.5-5.7-0.1-14.4-1.6-24.8c-1.1-7.5,29.5-15,30.8-6.2c1.2,8,4.7,18.5,7.4,25.5
				C831.8,178,818.9,178.7,812.2,167.2z"/>
		</g>
		<g>
			<g>
				<path class="st2" d="M859.2,113.2c0,0,10.8-13.7,13.3,0.7c1.9,10.8-3.8,24.5-12.1,20.2C852.1,129.8,859.2,113.2,859.2,113.2z"/>
			</g>
			<g>
				<path class="st2" d="M787.6,99c0,0,0.3,42.7,12.4,55.8c14.7,15.9,28.7,12,39,6.7c11.6-6.1,19.8-16.3,23.6-25.1s-2-36.4-2-36.4
					l-5-42.6l-62.8,6.8L787.6,99z"/>
			</g>
			<g>
				<path d="M780.4,111.7c-2.1,2.3-7.6-18.3-7.8-21.4c-1.1-16,11.6-43.5,58.2-41.3c28,1.3,39.3,19.8,40.1,36.4
					c0.4,9.2-2.4,17.8-4.9,23.7c-1.3,2.9-5.4,2.8-6.5-0.1c-4.5-11.6-29-30.3-47.4-27.3C789.5,85.5,780.4,111.7,780.4,111.7z"/>
			</g>
		</g>
	</g>
	<path class="st1" d="M697.9,400.2c0,0,0.9,10.1,15.7,11.7c14.8,1.6,23.2-17.8,23.2-17.8S707.3,386.2,697.9,400.2z"/>
	<g>
		<path class="st0" d="M697.9,400.2c17.6-5.6,41.1,2.3,41.1,2.3s19-44.9,23.9-63.9c4.6-17.8,11.8-37.1,14.7-43.5
			c3-6.6,6-13.2,9.1-19.8c3-6.5,6.2-13.2,9.3-19.5c8.1-16.6,1.3-36.6-15.3-44.8c-16.6-8.1-27.6-4.6-38.5,11.7c-0.7,1-8.5,13-11,20.2
			c-7,18.8-9.6,37.1-10.7,50.5c-1.2,13.4-1.5,35.3-2.8,46c-0.8,6.6-10.9,30.8-16.4,46.1C697.9,395.1,697.9,400.2,697.9,400.2z"/>
	</g>
	<path class="st1" d="M766.7,344.3c0,0-5.2-23.5-5.8-58.8c0,0-1.3,20.9-6.1,65.6c-1.9,17.8-20.1,56.9-21.6,61.9
		c0,0,20.4-23.1,28.1-50.7c3.2-11.4,3.1-13.1,3.5-19L766.7,344.3z"/>
	<path class="st1" d="M830.8,496.8c-1-24.5,2.1-236.3,2.1-236.3c-0.2-5-0.1-13.3-1-16.7c-0.9-3.4-3.5-8.4-3.5-8.4l-27.9-26.7
		l-17.2,9.9c-0.2,0.2-0.4,0.2-0.7,0.1c-0.2-0.1-0.5-0.3-0.5-0.5c0-0.2-3.1-7.4,7.5-33.2c0.1-0.3,0.5-0.5,0.9-0.4
		c0.3,0.1,0.5,0.5,0.4,0.9c-5.2,13.4-7.6,27.1-7.5,31.3l16.6-9.4c0.2-0.2,0.6-0.2,0.8,0l28.2,27l33.1-27.4c0.2-0.2,0.6-0.3,0.8-0.1
		l14.7,10c0.5-4.2,2-21.6-4.5-34.9c-0.2-0.3,0-0.7,0.3-0.9c0.3-0.2,0.7,0,0.9,0.3c8,16.3,4.7,36.6,4.7,36.8c0,0.2-0.1,0.5-0.4,0.6
		c-0.2,0.1-0.5,0.1-0.7,0l-15.3-10.4L830,235.3c0,0,0,0.1,0,0.1c0,0,2.5,4.4,3.2,7.7c0.7,3.3,0.8,12.5,1,17.4
		c0,0-3.4,205.1-2.1,236.2"/>
	<g>
		<path class="st5" d="M827.8,246.7c-0.1-1.5-1.3-2.6-2.8-2.5c-1.5,0.1-2.6,1.3-2.5,2.8c0.1,1.5,1.3,2.6,2.8,2.5
			C826.7,249.4,827.9,248.2,827.8,246.7z"/>
	</g>
	<g>
		<path class="st5" d="M828.3,276.6c-0.1-1.5-1.3-2.6-2.8-2.5c-1.5,0.1-2.6,1.3-2.5,2.8c0.1,1.5,1.3,2.6,2.8,2.5
			C827.3,279.3,828.4,278,828.3,276.6z"/>
	</g>
	<g>
		<path class="st5" d="M828.3,306.4c-0.1-1.5-1.3-2.6-2.8-2.5c-1.5,0.1-2.6,1.3-2.5,2.8c0.1,1.5,1.3,2.6,2.8,2.5
			C827.3,309.1,828.4,307.9,828.3,306.4z"/>
	</g>
	<g>
		<path class="st5" d="M828,336.2c-0.1-1.5-1.3-2.6-2.8-2.5c-1.5,0.1-2.6,1.3-2.5,2.8c0.1,1.5,1.3,2.6,2.8,2.5
			C826.9,338.9,828,337.7,828,336.2z"/>
	</g>
	<g>
		<path class="st5" d="M827.6,366.7c0.4-2-1.4-3.7-3.4-3.1c-0.9,0.3-1.6,1.1-1.8,2c-0.4,2,1.4,3.7,3.4,3.1
			C826.6,368.4,827.4,367.6,827.6,366.7z"/>
	</g>
	<g>
		<path class="st5" d="M827.2,396.5c0.4-2-1.4-3.7-3.4-3.1c-0.9,0.3-1.6,1.1-1.8,2c-0.4,2,1.4,3.7,3.4,3.1
			C826.3,398.3,827,397.5,827.2,396.5z"/>
	</g>
	<path class="st0" d="M898.4,274.2c10.3,21.7,21.1,43.7,27.5,67.1c-0.8,22-7.4,71.4-7.4,71.4s7.2,0.1,13.5,1.9
		c6.3,1.8,12.8,6.6,12.8,6.6s40-52.2,32.6-90.3c-6.6-33.5-10.2-51.7-24.9-82.7c-10.4-22.8-29.4-58.9-59.6-39.4
		C865.9,228.6,887.2,252.5,898.4,274.2z"/>
	<path class="st1" d="M965.5,338.8c4-23.8-25.7-106.4-34.9-125.7c9.5,9.4,16.7,23.8,21.8,35c6.2,13.1,11.2,25.7,15.1,39
		c5.4,18.3,8.7,36.8,10.6,49.3c3.2,21.6-16.1,59.5-16.1,59.5l-21.2,20C940.8,416.1,960.2,370.2,965.5,338.8z"/>
	<polygon class="st1" points="855.7,269.9 856.8,270 885.9,268.2 883.8,259 883.3,257.7 	"/>
	<polygon class="st5" points="854.4,260.4 855.7,269.9 884.5,267.2 883.3,257.7 	"/>
	<path d="M830,106c0.2-0.2,4-3,10.7-2.1c6.7,1,7.6,2.3,4.1,2.9c-3.5,0.6-9,0.1-13.7,1.3C828.6,108.7,829.5,106.4,830,106z"/>
	<path d="M811.2,108.1c-0.2-0.1-3.7-2.6-9.7-0.8c-6,1.8-6.6,3.1-3.3,3.2c3.3,0,4.6-1,11.9-0.4C812.4,110.3,811.8,108.4,811.2,108.1z
		"/>
	<path class="st3" d="M819.3,119.7c0.1-1.1,1.7-1.2,1.7-0.1c-0.1,1.8-0.5,3.5-1.1,5.3c-0.4,1.1-1,2.2-1.2,3.3c-0.1,1,0.6,4,1.8,4.8
		c0.2,0.1,0.4,0.2,0.5,0.5c0,0,0,0.1,0,0.1c0.3,0.7-0.6,1.4-1.2,1c-1.5-0.9-2.7-3.4-2.9-5.1C816.7,126.2,819.1,123.1,819.3,119.7z"
		/>
	<path class="st6" d="M830.1,146.4c-0.4,1.4-5,1.5-8.3,1.9c-3.3,0.4-6.6,0.3-7-0.8c-0.5-1.1,3-2.1,7.2-2.3
		C826.1,145.1,830.4,145.2,830.1,146.4z"/>
	<g>
		<path d="M838.5,117c0-3.3-1.4-4.6-2.7-4.5c-1.3,0-2.1,1.3-2.1,4.6s1.2,4.5,2.5,4.5C837.5,121.6,838.5,120.3,838.5,117z"/>
	</g>
	<g>
		<path d="M807.9,118.1c-0.1-3.1-1.3-4-2.6-4c-1.3,0.1-2.1,1-2,4.2c0.1,3.1,1.3,4.4,2.5,4.3C807.1,122.5,808,121.2,807.9,118.1z"/>
	</g>
	<path class="st3" d="M865.6,130c3.1-2,4.4-9.1,4.1-14s-3.1-4.9-3.1-4.9s-2.6-0.2,0.9,8C869.2,124.6,865.6,130,865.6,130z"/>
</g>
<g>
	<rect x="1037.3" y="219" class="st7" width="201.3" height="122.9"/>
	<rect x="1037.3" y="224.3" class="st8" width="182.2" height="117.6"/>
	<polygon class="st9" points="1219.5,224.3 1219.5,341.9 1188.7,315.2 1182.1,249.2 1188.7,244.7 1218.5,224.3 	"/>
	<polygon class="st9" points="1037.9,219.5 1037.3,341.9 1065.1,315.2 1065.1,243.9 1038.9,219.5 	"/>
	<rect x="1065.1" y="243.9" class="st7" width="123.5" height="71.2"/>
	<rect x="1110.8" y="265.3" class="st8" width="32.1" height="142.5"/>
	<rect x="1188.7" y="427.6" class="st8" width="96.2" height="6.2"/>
	<polygon class="st9" points="1032.4,385.6 1032.4,361.3 1006.5,352.6 958.9,352.6 958.9,385.6 	"/>
	<rect x="958.9" y="352.6" class="st10" width="47.6" height="30.4"/>
	<path class="st9" d="M999.8,362c0,1.4-1.5,2.6-3.2,2.6h-28.4c-1.8,0-3.2-1.2-3.2-2.6c0-1.4,1.5-2.6,3.2-2.6h28.4
		C998.4,359.4,999.8,360.6,999.8,362z"/>
	<rect x="1027.9" y="379.1" class="st7" width="215.2" height="60.5"/>
	<rect x="938.4" y="379.1" class="st8" width="215.2" height="60.5"/>
	<path class="st7" d="M1051.9,166.7c0,8.1-6.5,14.6-14.6,14.6h-20.5c-8.1,0-14.6-6.5-14.6-14.6s6.5-14.6,14.6-14.6h20.5
		C1045.4,152.1,1051.9,158.6,1051.9,166.7z"/>
	<rect x="968.6" y="120.7" class="st7" width="123.3" height="51.9"/>
	<rect x="975.1" y="127.2" class="st9" width="97.3" height="38.9"/>
	<rect x="1018.4" y="168.3" class="st7" width="13" height="271.4"/>
	<path class="st11" d="M1002,135.8h7.1c0.1,0,0.2,0.1,0.2,0.3v2.8h2.2c0.1,0,0.2,0.1,0.2,0.3v5.9c0,0.2-0.1,0.3-0.2,0.3h-2.2v2.8
		c0,0.2-0.1,0.3-0.2,0.3h-2.2v2.8c0,0.2-0.1,0.3-0.2,0.3h-2.2v2.8h7.1c0.1,0,0.2,0.1,0.2,0.3v2.8c0,0.2-0.1,0.3-0.2,0.3h-11.9
		c-0.1,0-0.2-0.1-0.2-0.3v-2.8c0-0.2,0.1-0.3,0.2-0.3h2.2v-2.8c0-0.2,0.1-0.3,0.2-0.3h2.2v-2.8c0-0.2,0.1-0.3,0.2-0.3h2.2v-2.8
		c0-0.2,0.1-0.3,0.2-0.3h2.2v-5.9h-7.1v2.8c0,0.2-0.1,0.3-0.2,0.3h-2.2c-0.1,0-0.2-0.1-0.2-0.3v-2.8c0-0.2,0.1-0.3,0.2-0.3h2.2V136
		C1001.8,135.9,1001.9,135.8,1002,135.8z"/>
	<path class="st11" d="M1016.1,135.6h7.1c0.1,0,0.2,0.1,0.2,0.3v2.8h2.2c0.1,0,0.2,0.1,0.2,0.3v6c0,0.2-0.1,0.3-0.2,0.3h-2.2v2.8
		h2.2c0.1,0,0.2,0.1,0.2,0.3v6c0,0.2-0.1,0.3-0.2,0.3h-2.2v2.9c0,0.2-0.1,0.3-0.2,0.3h-7.1c-0.1,0-0.2-0.1-0.2-0.3v-2.9h-2.2
		c-0.1,0-0.2-0.1-0.2-0.3v-6c0-0.2,0.1-0.3,0.2-0.3h2.2v-2.8h-2.2c-0.1,0-0.2-0.1-0.2-0.3v-6c0-0.2,0.1-0.3,0.2-0.3h2.2v-2.8
		C1015.9,135.7,1016,135.6,1016.1,135.6z M1016.1,139v6h7.1v-6H1016.1z M1016.1,148.3v6h7.1v-6H1016.1z"/>
	<path class="st11" d="M1030.3,151.5h4.5c0.1,0,0.2,0.1,0.2,0.3v5.7c0,0.2-0.1,0.3-0.2,0.3h-4.5c-0.1,0-0.2-0.1-0.2-0.3v-5.7
		C1030.1,151.6,1030.2,151.5,1030.3,151.5z"/>
	<path class="st11" d="M1044.3,135.6h7.1c0.1,0,0.2,0.1,0.2,0.3v2.8h2.2c0.1,0,0.2,0.1,0.2,0.3v6c0,0.2-0.1,0.3-0.2,0.3h-2.2v2.8
		h2.2c0.1,0,0.2,0.1,0.2,0.3v6c0,0.2-0.1,0.3-0.2,0.3h-2.2v2.9c0,0.2-0.1,0.3-0.2,0.3h-7.1c-0.1,0-0.2-0.1-0.2-0.3v-2.9h-2.2
		c-0.1,0-0.2-0.1-0.2-0.3v-6c0-0.2,0.1-0.3,0.2-0.3h2.2v-2.8h-2.2c-0.1,0-0.2-0.1-0.2-0.3v-6c0-0.2,0.1-0.3,0.2-0.3h2.2v-2.8
		C1044.2,135.7,1044.2,135.6,1044.3,135.6z M1044.3,139v6h7.1v-6H1044.3z M1044.3,148.3v6h7.1v-6H1044.3z"/>
	<path class="st11" d="M1056.1,135.6h11.9c0.1,0,0.2,0.1,0.2,0.3v5.9c0,0.2-0.1,0.3-0.2,0.3h-2.2v2.8c0,0.2-0.1,0.3-0.2,0.3h-2.2
		v2.8c0,0.2-0.1,0.3-0.2,0.3h-2.2v9.1c0,0.2-0.1,0.3-0.2,0.3h-2.2c-0.1,0-0.2-0.1-0.2-0.3v-9.1c0-0.2,0.1-0.3,0.2-0.3h2.2v-2.8
		c0-0.2,0.1-0.3,0.2-0.3h2.2v-2.8c0-0.2,0.1-0.3,0.2-0.3h2.2V139h-9.5c-0.1,0-0.2-0.1-0.2-0.3v-2.8
		C1055.9,135.7,1055.9,135.6,1056.1,135.6z"/>
	<ellipse class="st12" cx="800" cy="830.6" rx="717.3" ry="62.4"/>
	<rect x="454.9" y="791.4" class="st13" width="798.6" height="43.8"/>
	<rect x="574.8" y="791.4" class="st14" width="678.7" height="41.8"/>
	<path class="st2" d="M743.1,410.9c-0.9-3.3-0.8-3.8-2.9-7c-4.1-6.4-6.5-9.7-12.3-15.2c-3.1-2.1-7.5-3.6-11.3-0.4
		c-3.6,3.3-3.6,8.8-0.1,12.1c0.2,0.2,0.4,0.3,0.5,0.5l0.1,0.1c2.5,1.9,4.9,4,7.2,6.4c2.3,2.4,2.2,2.1,4.3,4.7c2.1,2.7,4.1,5.5,6,8.3
		c1,1.6-1.3-4.4,0.9-0.3l-0.6-1.2c1.4,0.7,2,1.1,4.7,1.6C743.2,419.5,743.9,414.2,743.1,410.9z"/>
	<path class="st2" d="M735.5,419.4c-2.3-3.2-2.8-3.7-5.2-6.9c-4.8-6.3-9.7-12.5-15-18.5c-2.3-3.2-7.6-4-11.2-1.5
		c-4,2.9-4.5,8.5-1.4,12.1c0.2,0.2,0.3,0.4,0.5,0.5l0,0c5.5,5.2,10.9,10.7,16.1,16.4c2.6,2.8,2.2,1.6,4.8,4.5
		c2.5,2.9,0.8-3.1,3.2-0.2l0,0c1.3,1.5,2.4,3.2,6.5,2C737.9,426.6,737.8,422.7,735.5,419.4z"/>
	<path class="st2" d="M706.6,405.3L706.6,405.3c-2.8-3.6-8-4.2-11.5-1.4c-3.6,2.8-4.2,7.9-1.4,11.5c0.2,0.2,0.3,0.4,0.5,0.6
		c5.3,5.5,8.4,7.9,13.8,13c5.5,5.1,4.7-1.9,10.4,3c2.5,2.2,6.3,1.9,8.5-0.6c0.8-0.9,2.2-3.4,0.7-5.5c-1-1.4-1.6-1.4-6-5.7
		C716,414.6,709.5,408.1,706.6,405.3z"/>
	<path class="st2" d="M700.4,414.1c3.8,3.8,14.2,13.4,16.1,15.3c1.9,1.9,2.5,4.4,0.2,6.1c-2.8,2.1-8.4,0-11-1.8
		c-2-1.3-9.8-7.3-14.6-13.9c-1.5-2.1-1.8-5.3,0.2-7.7C693.9,409.1,697.5,411.1,700.4,414.1z"/>
	<path class="st3" d="M716.1,435.9c0,0,3.2-2.8-8.5-14.4c0,0,3.1,2.5,7.3,6.5C719.1,431.5,719.4,434.2,716.1,435.9z"/>
	<polyline class="st15" points="374.9,463.1 380.5,496.9 385.5,526.7 432.7,811.3 1263.5,811.3 1263.5,463.1 374.9,463.1 	"/>
	<polyline class="st16" points="553,463.1 553,811.3 432.7,811.3 385.5,526.7 380.5,496.9 374.9,463.1 553,463.1 	"/>
	<path class="st14" d="M156,444.2c2.2-6.3,9.9-11,19.1-11h22.3v11v27v24.7h-22.3c-10.9,0-19.7-6.6-19.7-14.7v-10v-23.3
		C155.4,446.6,155.6,445.4,156,444.2z"/>
	<polyline class="st8" points="1288.1,378.6 1266,378.6 1266,333.7 1288.1,333.7 1288.1,378.6 	"/>
	<rect x="1279" y="358" class="st8" width="5.9" height="75.7"/>
	<path class="st17" d="M1255.8,316.8c11.7,19.5,34.1,57.7,39.9,57.2c1.7-1,1.6-0.9,2.2-3.1c0.1-0.6,0.6-2.8,0.8-3.4
		c0.3-1,0.7-5,1.4-5.4c-11.7-19.5-35.8-61-41.7-59.4c-0.6,0.4-1.2,2-1.5,3.1c-0.3,0.7-0.5,1.6-0.6,2.4
		C1255.5,311.5,1255.4,315.3,1255.8,316.8z"/>
	<path class="st18" d="M1295.3,373.5c0.7-0.1,1.2-0.1,2-0.1c0.4-0.1,1.7,0,2.2,0c10.3-1.3,26-3,36.3-5.9c0.2-0.1,0.4-0.2,0.6-0.3
		c0.3-0.1,0.5-0.3,0.8-0.4c0.6-1.3,1.9-6,2.2-7.5c0.3-1.6,0.3-2.6,0.2-3.2c-0.2-1.1-1-3.1-1.1-3.4c-0.1-0.2-0.8-1.7-0.9-1.9
		c-4.1-8.7-17.7-29.9-30.4-49.6c-0.2-0.4-1.2-1.2-2.2-1.5c-0.7-0.3-1.9-0.4-2.1-0.4c-0.3,0-0.6,0-0.9,0c-0.2,0-0.5,0-0.7,0
		c-10.5,0.5-29.1,1.2-40,2.6c-0.5,0.1-1.2,0.2-1.7,0.2c-0.8,0.1-1.2,0.4-1.4,0.7c0.3-0.1,0.7,0.2,1,0.7c0.2,0.3,0.8,1.2,1,1.5
		c8.7,15.5,25.5,36.8,32.9,51.4c0.2,0.5,1.4,2.5,1.6,3c0.2,0.5,1,3,1.1,3.5c0.2,1,0.5,1.9,0.4,3.4
		C1296.1,367.9,1295.8,371.7,1295.3,373.5z"/>
	<path class="st19" d="M1291.8,380.9c3.9-0.2,11.7-1.2,19.6-2.4c6.2-0.9,12.3-2,16.2-2.9c1.1-0.5,3.3-2.3,5.3-4.2
		c0.4-0.4,1.3-0.8,1.7-1.3c1.4-1.4,2.6-3.2,2.6-3.4c-1.7,0.8-9.1,2.2-17.1,3.4c-10.2,1.5-21.7,2.7-25.6,2.8
		c-0.4,1.2-0.9,2.3-1.3,3.5c-0.1,0.2-0.2,0.5-0.3,0.7C1292.5,378.3,1292.3,379.5,1291.8,380.9z"/>
	<path class="st19" d="M1257.1,336.1c0.9,3.7,2.2,3.4,7.1,6.9c0.7,0.5,1.5,1,2.1,1.8c6.5,7.8,16.5,30.7,23.9,35.6
		c0.3,0.2,0.8,0.5,1.1,0.5c0.9,0.1,1,0.1,2.6-0.2c0.2-1.2,0.6-3.2,1.2-4.7c0.1-0.3,0.2-0.6,0.3-0.9c0.3-0.8,0.4-1.1,0.8-2.1
		c-1.5,0-1,0.2-1.8-0.2c-0.2-0.1-0.6-0.4-0.8-0.6c-2.1-2.1-13.5-19.4-26.3-39.3c-3.8-5.9-8.7-12.4-11.8-17.7
		c-0.2,1.1-0.1,7.6,0.1,10.3c0.1,1.2,0.1,1.3,0.2,2C1255.9,329.3,1256.5,334.8,1257.1,336.1"/>
	<path class="st20" d="M1264.5,343.2c0.4,0.4,0.9,0.7,1.4,1.2C1265.5,343.9,1265,343.5,1264.5,343.2 M1258.6,339.1
		c0.2,0.3,0.8,0.8,1.9,1.4c0,0,0,0,0,0C1259.6,340,1259,339.6,1258.6,339.1"/>
	<path class="st21" d="M1259.8,338.8c-0.5,0-1,0.1-1.4,0.2c0,0,0,0.1,0.1,0.2c0.5,0.5,1.1,0.9,1.9,1.4c1.1,0.6,2.3,1.3,4,2.7
		c0.5,0.4,1,0.7,1.4,1.2c0.2,0.2,0.4,0.3,0.6,0.5C1263.8,339.7,1261.4,338.8,1259.8,338.8"/>
	<path class="st22" d="M1255.5,315.2c0.1,0.2,8.9,13.3,17.9,27.1c8.5,13,17.3,26.6,20.4,30c0.8,0.5,1.3,0.6,2,0.6c2,0,19-1.9,27-3.2
		c8-1.3,12.1-2,14.5-2.9c-0.2,0.5-0.4,0.7-0.4,0.7s-8.4,1.9-16.8,3.1c-7,1-23.5,2.9-24.3,3c-0.8,0.1-1.9,0-2.9-1.3
		c-6.4-8.3-20.6-30.7-22.1-33.1c-1.5-2.4-15.3-23.1-15.3-23.1L1255.5,315.2z"/>
	<path class="st23" d="M1270.5,306.9c-0.2-0.3-0.1-0.5,0.3-0.6l31.9-1.7c0.3,0,0.8,0.2,1,0.5l9.6,15.2c0.2,0.3,0,0.6-0.3,0.6
		l-31.8,2.6c-0.3,0-0.8-0.2-1-0.5L1270.5,306.9z"/>
	<path class="st11" d="M1271,307.7c-0.2-0.3-0.1-0.5,0.3-0.5l31-1.7c0.3,0,0.7,0.2,0.9,0.5l9.2,14.5c0.2,0.3,0,0.5-0.3,0.6
		l-30.9,2.6c-0.3,0-0.7-0.2-0.9-0.5L1271,307.7z"/>
	<path class="st17" d="M1278.1,324.9l-11.4-18.9c-0.3-0.4-0.4-0.9-0.3-1.3c0.2-1,1.4-1.6,3-1.7l30-1.6c1.1,0,2,0,2.7,0.2
		c1.3,0.3,2,0.9,2.5,1.8l11.5,18.2l-0.1,0.1l-0.1,0.1l-11.5-18.2c-0.5-0.9-1.1-1.4-2.3-1.6c-0.7-0.1-1.5-0.2-2.6-0.2l-30,1.6
		c-1.6,0.1-2.6,0.7-2.7,1.5c-0.1,0.3,0,0.7,0.2,1.1l11.4,18.9c0.6,1,2,1.8,3.5,2.1c0.7,0.1,1.4,0.2,2.1,0.1l29.9-2.7
		c1.6-0.2,2.3-0.7,2.4-1.3c0.1-0.4-0.1-0.9-0.4-1.4l0.1-0.1l0.1-0.1c0.4,0.6,0.5,1.1,0.4,1.6c-0.2,0.8-1,1.3-2.7,1.5l-29.9,2.7
		c-0.7,0.1-1.5,0-2.2-0.1C1280.2,326.8,1278.7,326,1278.1,324.9z"/>
	<path class="st22" d="M1295.9,331.6c0.4,0.7,0.1,1.2-0.7,1.3l-5.6,0.4c-0.8,0.1-1.8-0.5-2.3-1.1l-0.6-0.9c-0.4-0.7-0.1-1.3,0.8-1.3
		l5.7-0.3c0.8,0,1.7,0.5,2.1,1.1L1295.9,331.6z"/>
	<path class="st23" d="M1296,332.1l0.2-0.8l-0.6-0.2l-0.3-0.5c-0.4-0.7-1.3-1.2-2.1-1.2l-4.1,0.2l-2.2-0.1l-0.2,0.8
		c-0.1,0.2,0,0.5,0.2,0.8l0.6,1c0.4,0.7,1.4,1.3,2.2,1.2l5.4-0.3C1295.8,332.8,1295.9,332.7,1296,332.1z"/>
	
		<linearGradient id="SVGID_1_" gradientUnits="userSpaceOnUse" x1="0" y1="7.217277e-07" x2="1" y2="7.217277e-07" gradientTransform="matrix(47.3322 39.9427 39.9427 -47.3322 1275.3088 316.6737)">
		<stop  offset="0" style="stop-color:#F2F2F3"/>
		<stop  offset="0.5091" style="stop-color:#ECECED"/>
		<stop  offset="0.8787" style="stop-color:#E9E9E9"/>
		<stop  offset="1" style="stop-color:#E6E6E6"/>
	</linearGradient>
	<path class="st24" d="M1296,330.6c0.4,0.6,0.1,1.2-0.7,1.2l-5.4,0.3c-0.8,0.1-1.8-0.4-2.2-1.1l-0.6-0.9c-0.4-0.7-0.1-1.2,0.7-1.3
		l5.5-0.3c0.8,0,1.7,0.5,2.1,1.1L1296,330.6z"/>
	<path class="st22" d="M1307.2,330.8c0.3,0.6,0.1,1.1-0.6,1.1l-5,0.3c-0.7,0-1.6-0.4-2-1l-0.5-0.8c-0.4-0.6-0.1-1.1,0.7-1.2l5.1-0.2
		c0.7,0,1.6,0.4,1.9,1L1307.2,330.8z"/>
	<path class="st23" d="M1307.4,331.1l0.2-0.8l-0.5-0.2l-0.2-0.4c-0.3-0.6-1.2-1.1-1.9-1.1l-3.7,0.2l-2-0.1l-0.1,0.7
		c-0.1,0.2,0,0.5,0.1,0.7l0.5,0.9c0.4,0.7,1.3,1.1,2,1.1l4.9-0.3C1307.1,331.7,1307.3,331.6,1307.4,331.1z"/>
	
		<linearGradient id="SVGID_00000003783821405628770570000016200866155995334281_" gradientUnits="userSpaceOnUse" x1="0" y1="3.853957e-07" x2="1" y2="3.853957e-07" gradientTransform="matrix(47.3326 39.9431 39.9431 -47.3326 1280.6592 310.3326)">
		<stop  offset="0" style="stop-color:#F2F2F3"/>
		<stop  offset="0.5091" style="stop-color:#ECECED"/>
		<stop  offset="0.8787" style="stop-color:#E9E9E9"/>
		<stop  offset="1" style="stop-color:#E6E6E6"/>
	</linearGradient>
	<path style="fill:url(#SVGID_00000003783821405628770570000016200866155995334281_);" d="M1307.4,329.7c0.3,0.6,0.1,1.1-0.6,1.2
		l-4.9,0.3c-0.7,0-1.6-0.4-2-1.1l-0.5-0.9c-0.4-0.6-0.1-1.2,0.7-1.2l5-0.2c0.7,0,1.5,0.4,1.9,1.1L1307.4,329.7z"/>
	<path class="st22" d="M1318,330.1c0.3,0.6,0,1-0.6,1.1l-4.6,0.3c-0.7,0-1.5-0.4-1.9-1l-0.5-0.8c-0.3-0.6-0.1-1.1,0.6-1.1l4.7-0.2
		c0.7,0,1.4,0.4,1.8,0.9L1318,330.1z"/>
	<path class="st23" d="M1318.1,330.4l0.2-0.7l-0.5-0.1l-0.2-0.4c-0.3-0.6-1.1-1-1.7-1l-3.3,0.2l-1.7-0.4l-0.2,1
		c-0.1,0.2,0,0.4,0.1,0.7l0.5,0.8c0.3,0.6,1.2,1.1,1.8,1l4.5-0.3C1317.8,331,1318,330.9,1318.1,330.4z"/>
	
		<linearGradient id="SVGID_00000003800075029894733510000016305862316736686253_" gradientUnits="userSpaceOnUse" x1="0" y1="-3.051118e-07" x2="1" y2="-3.051118e-07" gradientTransform="matrix(47.3316 39.9423 39.9423 -47.3316 1285.5645 304.5212)">
		<stop  offset="0" style="stop-color:#F2F2F3"/>
		<stop  offset="0.5091" style="stop-color:#ECECED"/>
		<stop  offset="0.8787" style="stop-color:#E9E9E9"/>
		<stop  offset="1" style="stop-color:#E6E6E6"/>
	</linearGradient>
	<path style="fill:url(#SVGID_00000003800075029894733510000016305862316736686253_);" d="M1318.1,329.1c0.3,0.6,0.1,1.1-0.6,1.1
		l-4.5,0.3c-0.7,0-1.5-0.4-1.8-1l-0.5-0.8c-0.3-0.6-0.1-1.1,0.6-1.2l4.6-0.2c0.6,0,1.4,0.4,1.7,1L1318.1,329.1z"/>
	<path class="st22" d="M1298.9,336.2c0.4,0.6,0.1,1.2-0.7,1.3l-5.5,0.4c-0.8,0.1-1.8-0.4-2.2-1.1l-0.6-0.9c-0.4-0.7-0.1-1.3,0.8-1.3
		l5.6-0.3c0.8,0,1.7,0.5,2.1,1.1L1298.9,336.2z"/>
	<path class="st23" d="M1299,336.7l0.2-0.8l-0.6-0.2l-0.3-0.5c-0.4-0.7-1.3-1.2-2.1-1.2l-4,0.2l-2.2-0.1l-0.2,0.8
		c-0.1,0.2,0,0.5,0.1,0.8l0.6,1c0.4,0.7,1.4,1.2,2.2,1.2l5.4-0.4C1298.8,337.4,1298.9,337.3,1299,336.7z"/>
	
		<linearGradient id="SVGID_00000133504332947211505350000017237353120030012083_" gradientUnits="userSpaceOnUse" x1="0" y1="-4.712092e-08" x2="1" y2="-4.712092e-08" gradientTransform="matrix(47.3381 39.9478 39.9478 -47.3381 1274.2821 317.8856)">
		<stop  offset="0" style="stop-color:#F2F2F3"/>
		<stop  offset="0.5091" style="stop-color:#ECECED"/>
		<stop  offset="0.8787" style="stop-color:#E9E9E9"/>
		<stop  offset="1" style="stop-color:#E6E6E6"/>
	</linearGradient>
	<path style="fill:url(#SVGID_00000133504332947211505350000017237353120030012083_);" d="M1299,335.3c0.4,0.6,0.1,1.2-0.7,1.2
		l-5.4,0.4c-0.8,0.1-1.8-0.4-2.2-1.1l-0.6-0.9c-0.4-0.7-0.1-1.2,0.7-1.3l5.5-0.3c0.8,0,1.7,0.4,2.1,1.1L1299,335.3z"/>
	<path class="st22" d="M1310.1,335.3c0.3,0.6,0.1,1.1-0.6,1.1l-4.9,0.3c-0.7,0-1.6-0.4-2-1l-0.5-0.8c-0.4-0.6-0.1-1.1,0.7-1.2l5-0.3
		c0.7,0,1.5,0.4,1.9,1L1310.1,335.3z"/>
	<path class="st23" d="M1310.3,335.6l0.2-0.8l-0.5-0.2l-0.2-0.4c-0.3-0.6-1.2-1.1-1.9-1.1l-3.6,0.2l-2-0.1l-0.1,0.7
		c-0.1,0.2,0,0.5,0.1,0.7l0.5,0.9c0.4,0.6,1.3,1.1,2,1.1l4.9-0.3C1310,336.3,1310.2,336.2,1310.3,335.6z"/>
	
		<linearGradient id="SVGID_00000071559505533930730000000011457660774388012704_" gradientUnits="userSpaceOnUse" x1="0" y1="-2.156867e-07" x2="1" y2="-2.156867e-07" gradientTransform="matrix(47.3286 39.9397 39.9397 -47.3286 1279.6194 311.5699)">
		<stop  offset="0" style="stop-color:#F2F2F3"/>
		<stop  offset="0.5091" style="stop-color:#ECECED"/>
		<stop  offset="0.8787" style="stop-color:#E9E9E9"/>
		<stop  offset="1" style="stop-color:#E6E6E6"/>
	</linearGradient>
	<path style="fill:url(#SVGID_00000071559505533930730000000011457660774388012704_);" d="M1310.3,334.3c0.3,0.6,0.1,1.1-0.6,1.2
		l-4.9,0.3c-0.7,0.1-1.6-0.4-2-1l-0.5-0.9c-0.4-0.6-0.1-1.2,0.7-1.2l5-0.2c0.7,0,1.5,0.4,1.9,1L1310.3,334.3z"/>
	<path class="st22" d="M1320.8,334.6c0.3,0.5,0,1-0.6,1.1l-4.6,0.3c-0.7,0-1.5-0.4-1.8-0.9l-0.5-0.8c-0.3-0.6-0.1-1.1,0.6-1.1
		l4.7-0.2c0.6,0,1.4,0.4,1.7,0.9L1320.8,334.6z"/>
	<path class="st23" d="M1320.9,334.9l0.2-0.7l-0.5-0.1l-0.2-0.4c-0.3-0.6-1.1-1-1.7-1l-3.3,0.2l-1.7-0.4l-0.2,1
		c-0.1,0.2,0,0.4,0.1,0.7l0.5,0.8c0.3,0.6,1.1,1,1.8,1l4.4-0.3C1320.7,335.5,1320.8,335.4,1320.9,334.9z"/>
	
		<linearGradient id="SVGID_00000085929537206685898060000003736374031727144327_" gradientUnits="userSpaceOnUse" x1="0" y1="4.919693e-07" x2="1" y2="4.919693e-07" gradientTransform="matrix(47.3314 39.9421 39.9421 -47.3314 1284.5071 305.7738)">
		<stop  offset="0" style="stop-color:#F2F2F3"/>
		<stop  offset="0.5091" style="stop-color:#ECECED"/>
		<stop  offset="0.8787" style="stop-color:#E9E9E9"/>
		<stop  offset="1" style="stop-color:#E6E6E6"/>
	</linearGradient>
	<path style="fill:url(#SVGID_00000085929537206685898060000003736374031727144327_);" d="M1320.9,333.7c0.3,0.6,0.1,1.1-0.6,1.1
		l-4.5,0.3c-0.7,0-1.5-0.4-1.8-1l-0.5-0.8c-0.3-0.6-0.1-1.1,0.6-1.2l4.5-0.2c0.6,0,1.4,0.4,1.7,1L1320.9,333.7z"/>
	<path class="st22" d="M1302.1,341.2c0.4,0.6,0.1,1.2-0.7,1.3l-5.5,0.4c-0.8,0.1-1.8-0.4-2.2-1.1l-0.6-0.9c-0.4-0.7-0.1-1.3,0.8-1.3
		l5.6-0.3c0.8,0,1.7,0.4,2.1,1.1L1302.1,341.2z"/>
	<path class="st23" d="M1302.2,341.7l0.2-0.8l-0.6-0.2l-0.3-0.5c-0.4-0.7-1.3-1.2-2.1-1.2l-4,0.2l-2.2-0.1l-0.2,0.8
		c-0.1,0.2,0,0.5,0.1,0.8l0.6,1c0.4,0.7,1.4,1.2,2.2,1.2l5.3-0.4C1302,342.3,1302.1,342.3,1302.2,341.7z"/>
	
		<linearGradient id="SVGID_00000044875278314901566040000004581004405820686231_" gradientUnits="userSpaceOnUse" x1="0" y1="-2.069191e-08" x2="1" y2="-2.069191e-08" gradientTransform="matrix(47.3313 39.942 39.942 -47.3313 1273.1799 319.1985)">
		<stop  offset="0" style="stop-color:#F2F2F3"/>
		<stop  offset="0.5091" style="stop-color:#ECECED"/>
		<stop  offset="0.8787" style="stop-color:#E9E9E9"/>
		<stop  offset="1" style="stop-color:#E6E6E6"/>
	</linearGradient>
	<path style="fill:url(#SVGID_00000044875278314901566040000004581004405820686231_);" d="M1302.2,340.2c0.4,0.6,0.1,1.2-0.7,1.2
		l-5.4,0.4c-0.8,0.1-1.8-0.4-2.2-1.1l-0.5-0.9c-0.4-0.7-0.1-1.2,0.7-1.3l5.5-0.3c0.8,0,1.7,0.4,2.1,1.1L1302.2,340.2z"/>
	<path class="st22" d="M1313.3,340.3c0.3,0.6,0.1,1.1-0.6,1.1l-4.9,0.3c-0.7,0.1-1.6-0.4-2-1l-0.5-0.8c-0.4-0.6-0.1-1.1,0.7-1.2
		l5-0.3c0.7,0,1.5,0.4,1.9,1L1313.3,340.3z"/>
	<path class="st23" d="M1313.4,340.6l0.2-0.8l-0.5-0.2l-0.2-0.4c-0.3-0.6-1.2-1.1-1.9-1.1l-3.6,0.2l-2-0.1l-0.1,0.7
		c-0.1,0.2,0,0.5,0.1,0.7l0.5,0.9c0.4,0.6,1.2,1.1,2,1.1l4.8-0.3C1313.1,341.2,1313.3,341.1,1313.4,340.6z"/>
	
		<linearGradient id="SVGID_00000157279531769732633320000002853682299302089905_" gradientUnits="userSpaceOnUse" x1="0" y1="-1.995031e-07" x2="1" y2="-1.995031e-07" gradientTransform="matrix(47.3308 39.9416 39.9416 -47.3308 1278.4938 312.9007)">
		<stop  offset="0" style="stop-color:#F2F2F3"/>
		<stop  offset="0.5091" style="stop-color:#ECECED"/>
		<stop  offset="0.8787" style="stop-color:#E9E9E9"/>
		<stop  offset="1" style="stop-color:#E6E6E6"/>
	</linearGradient>
	<path style="fill:url(#SVGID_00000157279531769732633320000002853682299302089905_);" d="M1313.4,339.2c0.3,0.6,0.1,1.1-0.6,1.2
		l-4.8,0.3c-0.7,0.1-1.6-0.4-2-1l-0.5-0.8c-0.4-0.6-0.1-1.2,0.7-1.2l4.9-0.3c0.7,0,1.5,0.4,1.9,1L1313.4,339.2z"/>
	<path class="st22" d="M1323.9,339.5c0.3,0.5,0,1-0.6,1.1l-4.5,0.3c-0.7,0-1.5-0.4-1.8-0.9l-0.5-0.8c-0.3-0.6,0-1.1,0.6-1.1l4.6-0.2
		c0.6,0,1.4,0.4,1.7,0.9L1323.9,339.5z"/>
	<path class="st23" d="M1324,339.8l0.2-0.7l-0.5-0.1l-0.2-0.4c-0.3-0.6-1.1-1-1.7-1l-3.3,0.2l-1.7-0.4l-0.2,0.9
		c-0.1,0.2,0,0.4,0.1,0.7l0.4,0.8c0.3,0.6,1.1,1,1.8,1l4.4-0.3C1323.7,340.4,1323.9,340.3,1324,339.8z"/>
	
		<linearGradient id="SVGID_00000070818892904182966010000008582773706670412695_" gradientUnits="userSpaceOnUse" x1="0" y1="-3.280447e-07" x2="1" y2="-3.280447e-07" gradientTransform="matrix(47.335 39.9452 39.9452 -47.335 1283.3651 307.1228)">
		<stop  offset="0" style="stop-color:#F2F2F3"/>
		<stop  offset="0.5091" style="stop-color:#ECECED"/>
		<stop  offset="0.8787" style="stop-color:#E9E9E9"/>
		<stop  offset="1" style="stop-color:#E6E6E6"/>
	</linearGradient>
	<path style="fill:url(#SVGID_00000070818892904182966010000008582773706670412695_);" d="M1324,338.6c0.3,0.6,0.1,1.1-0.6,1.1
		l-4.4,0.3c-0.7,0-1.5-0.4-1.8-1l-0.4-0.8c-0.3-0.6-0.1-1.1,0.6-1.1l4.5-0.2c0.6,0,1.4,0.4,1.7,1L1324,338.6z"/>
	<path class="st22" d="M1305.6,346.2c0.4,0.6,0.1,1.2-0.7,1.2l-5.4,0.4c-0.8,0.1-1.8-0.4-2.2-1.1l-0.6-0.9c-0.4-0.7-0.1-1.2,0.8-1.3
		l5.6-0.3c0.8,0,1.7,0.4,2.1,1.1L1305.6,346.2z"/>
	<path class="st23" d="M1305.7,346.7l0.2-0.8l-0.6-0.2l-0.3-0.5c-0.4-0.7-1.3-1.2-2-1.1l-4,0.2l-2.1-0.1l-0.2,0.7
		c-0.1,0.2,0,0.5,0.1,0.8l0.5,1c0.4,0.7,1.4,1.2,2.2,1.2l5.3-0.4C1305.5,347.3,1305.6,347.3,1305.7,346.7z"/>
	
		<linearGradient id="SVGID_00000036234725541166364240000001069135132178944442_" gradientUnits="userSpaceOnUse" x1="0" y1="-1.284643e-07" x2="1" y2="-1.284643e-07" gradientTransform="matrix(47.3284 39.9395 39.9395 -47.3284 1272.1593 320.411)">
		<stop  offset="0" style="stop-color:#F2F2F3"/>
		<stop  offset="0.5091" style="stop-color:#ECECED"/>
		<stop  offset="0.8787" style="stop-color:#E9E9E9"/>
		<stop  offset="1" style="stop-color:#E6E6E6"/>
	</linearGradient>
	<path style="fill:url(#SVGID_00000036234725541166364240000001069135132178944442_);" d="M1305.7,345.2c0.4,0.6,0.1,1.2-0.7,1.2
		l-5.3,0.4c-0.8,0.1-1.8-0.4-2.1-1.1l-0.5-0.9c-0.4-0.6-0.1-1.2,0.7-1.3l5.4-0.3c0.8,0,1.7,0.4,2,1.1L1305.7,345.2z"/>
	<path class="st22" d="M1316.7,345.2c0.3,0.6,0.1,1.1-0.6,1.1l-4.9,0.4c-0.7,0.1-1.6-0.4-2-1l-0.5-0.8c-0.4-0.6-0.1-1.1,0.7-1.2
		l5-0.3c0.7,0,1.5,0.4,1.9,1L1316.7,345.2z"/>
	<path class="st23" d="M1316.8,345.6l0.2-0.7l-0.5-0.2l-0.2-0.4c-0.3-0.6-1.2-1.1-1.8-1l-3.6,0.2l-1.9-0.1l-0.1,0.7
		c-0.1,0.2,0,0.4,0.1,0.7l0.5,0.9c0.4,0.6,1.2,1.1,1.9,1.1l4.8-0.4C1316.5,346.2,1316.7,346.1,1316.8,345.6z"/>
	
		<linearGradient id="SVGID_00000147184036749857568530000017127560594992441268_" gradientUnits="userSpaceOnUse" x1="0" y1="-4.166322e-07" x2="1" y2="-4.166322e-07" gradientTransform="matrix(47.3377 39.9474 39.9474 -47.3377 1277.4471 314.131)">
		<stop  offset="0" style="stop-color:#F2F2F3"/>
		<stop  offset="0.5091" style="stop-color:#ECECED"/>
		<stop  offset="0.8787" style="stop-color:#E9E9E9"/>
		<stop  offset="1" style="stop-color:#E6E6E6"/>
	</linearGradient>
	<path style="fill:url(#SVGID_00000147184036749857568530000017127560594992441268_);" d="M1316.8,344.2c0.3,0.6,0.1,1.1-0.6,1.2
		l-4.8,0.4c-0.7,0.1-1.6-0.4-1.9-1l-0.5-0.8c-0.4-0.6-0.1-1.2,0.7-1.2l4.9-0.3c0.7,0,1.5,0.4,1.8,1L1316.8,344.2z"/>
	<path class="st22" d="M1327.3,344.4c0.3,0.5,0,1-0.6,1.1l-4.6,0.3c-0.7,0-1.5-0.4-1.8-0.9l-0.5-0.8c-0.3-0.6,0-1.1,0.6-1.1l4.7-0.3
		c0.7,0,1.4,0.4,1.7,0.9L1327.3,344.4z"/>
	<path class="st23" d="M1327.3,344.7l0.2-0.7l-0.5-0.1l-0.2-0.4c-0.3-0.6-1.1-1-1.7-1l-3.3,0.2l-1.7-0.4l-0.2,0.9
		c-0.1,0.2,0,0.4,0.1,0.7l0.4,0.8c0.3,0.6,1.1,1,1.8,1l4.4-0.3C1327,345.4,1327.2,345.2,1327.3,344.7z"/>
	
		<linearGradient id="SVGID_00000066489685174990048700000017321951695641407148_" gradientUnits="userSpaceOnUse" x1="0" y1="-5.818001e-07" x2="1" y2="-5.818001e-07" gradientTransform="matrix(47.3311 39.9419 39.9419 -47.3311 1282.3086 308.3799)">
		<stop  offset="0" style="stop-color:#F2F2F3"/>
		<stop  offset="0.5091" style="stop-color:#ECECED"/>
		<stop  offset="0.8787" style="stop-color:#E9E9E9"/>
		<stop  offset="1" style="stop-color:#E6E6E6"/>
	</linearGradient>
	<path style="fill:url(#SVGID_00000066489685174990048700000017321951695641407148_);" d="M1327.3,343.5c0.3,0.6,0.1,1.1-0.6,1.1
		l-4.4,0.3c-0.7,0-1.4-0.4-1.8-1l-0.4-0.8c-0.3-0.6-0.1-1.1,0.6-1.1l4.5-0.3c0.6,0,1.4,0.4,1.7,1L1327.3,343.5z"/>
	<path class="st36" d="M1310.6,344.1c-0.3-0.5-0.2-0.7,0.3-0.8c0.5,0,1,0.2,1.3,0.7c0.3,0.5,0.2,0.7-0.3,0.8
		C1311.4,344.8,1310.9,344.6,1310.6,344.1z M1311.8,344c-0.3-0.4-0.5-0.5-0.8-0.5c-0.2,0-0.3,0.1,0,0.5c0.3,0.4,0.5,0.5,0.8,0.5
		C1312,344.6,1312,344.4,1311.8,344z"/>
	<path class="st36" d="M1290.4,330.8L1290.4,330.8l-0.6-0.9l-0.5,0l-0.1-0.2c0.2,0,0.4-0.1,0.5-0.1l0.3,0l0.8,1.2l0,0l0.1,0.2
		l-0.5,0L1290.4,330.8z"/>
	<path class="st36" d="M1291.2,329.9c-0.2-0.2,0-0.4,0.3-0.4c0.3,0,0.6,0.1,0.8,0.4c0.2,0.2,0,0.4-0.3,0.4
		C1291.7,330.3,1291.4,330.2,1291.2,329.9z M1292.1,329.9c-0.1-0.2-0.3-0.3-0.5-0.3c-0.2,0-0.3,0.1-0.2,0.3c0.1,0.2,0.3,0.3,0.5,0.3
		C1292.1,330.2,1292.2,330.1,1292.1,329.9z"/>
	<polygon class="st36" points="1292.6,330.2 1292.9,329.7 1292.3,329.7 1292.2,329.6 1293.1,329.5 1293.1,329.6 1292.9,330.2 
		1293.5,330.1 1293.6,330.3 1292.7,330.3 	"/>
	<path class="st36" d="M1301.5,330c0.3-0.3,0.5-0.5,0.4-0.7c-0.1-0.1-0.3-0.2-0.5-0.2c-0.2,0-0.2,0.1-0.3,0.1l-0.3-0.1
		c0.1-0.1,0.2-0.2,0.5-0.2c0.4,0,0.7,0.1,0.9,0.3c0.1,0.2,0,0.4-0.3,0.7c0.1,0,0.2,0,0.3,0l0.5,0l0.1,0.2l-1.3,0.1L1301.5,330z"/>
	<path class="st36" d="M1303.5,329.3l-0.3,0l0,0.2l-0.2,0l-0.1-0.6l0.2,0l0.7,0.6l-0.2,0L1303.5,329.3z M1303.4,329.2L1303.4,329.2
		l-0.3-0.3l0,0l0,0.2l0,0.1L1303.4,329.2z"/>
	<path class="st36" d="M1303.6,328.9l0.3,0c0.2,0,0.4,0,0.5,0.1c0,0.1,0,0.1-0.1,0.1l0,0c0.2,0,0.3,0.1,0.3,0.1
		c0.1,0.1,0,0.2-0.3,0.2l-0.3,0L1303.6,328.9z M1304.1,329.1c0.1,0,0.2,0,0.1-0.1c0-0.1-0.1-0.1-0.2-0.1l-0.1,0l0.1,0.2
		L1304.1,329.1z M1304.3,329.3c0.1,0,0.2,0,0.2-0.1c0-0.1-0.1-0.1-0.3-0.1l-0.1,0l0.1,0.2L1304.3,329.3z"/>
	<path class="st36" d="M1304.9,328.8c0.1,0,0.2,0,0.3,0.1l-0.1,0.1L1304.9,328.8c-0.1,0.1-0.2,0.2-0.1,0.3c0.1,0.1,0.3,0.2,0.4,0.2
		l0.2-0.1l0.1,0.1c0,0.1-0.1,0.1-0.2,0.1c-0.2,0-0.5-0.1-0.7-0.3C1304.5,328.9,1304.7,328.8,1304.9,328.8z"/>
	<path class="st36" d="M1312.7,329.2c0.2,0.1,0.4,0.1,0.6,0.1c0.2,0,0.3-0.1,0.2-0.2c-0.1-0.1-0.3-0.2-0.7-0.2l-0.1-0.2
		c0.4,0,0.5-0.1,0.4-0.2c-0.1-0.1-0.2-0.2-0.4-0.2c-0.2,0-0.2,0-0.3,0.1l-0.3-0.1c0.1-0.1,0.3-0.1,0.5-0.1c0.4,0,0.7,0.1,0.8,0.3
		c0.1,0.1,0,0.2-0.2,0.3l0,0c0.3,0,0.5,0.1,0.6,0.3c0.1,0.2-0.1,0.3-0.5,0.3c-0.3,0-0.6-0.1-0.8-0.2L1312.7,329.2z"/>
	<path class="st36" d="M1313.8,328.3l0.3,0c0.3,0,0.6,0.1,0.7,0.3c0.1,0.2,0,0.3-0.3,0.3l-0.3,0L1313.8,328.3z M1314.4,328.8
		c0.2,0,0.3-0.1,0.2-0.2c-0.1-0.1-0.3-0.2-0.5-0.2l-0.1,0L1314.4,328.8L1314.4,328.8z"/>
	<polygon class="st36" points="1314.8,328.3 1315.4,328.3 1315.4,328.4 1315,328.4 1315.1,328.5 1315.5,328.5 1315.5,328.6 
		1315.2,328.6 1315.3,328.8 1315.7,328.8 1315.8,328.9 1315.2,328.9 	"/>
	<polygon class="st36" points="1315.6,328.3 1316.2,328.3 1316.3,328.4 1315.8,328.4 1315.9,328.5 1316.3,328.5 1316.4,328.6 
		1316,328.6 1316.2,328.9 1316,328.9 	"/>
	<path class="st36" d="M1294,335.3l-0.3,0l0.2,0.4l-0.4,0l-0.2-0.4l-1.1,0l-0.1-0.2l0.4-0.9l0.5,0l0.6,0.8l0.3,0L1294,335.3z
		 M1293.1,335.2l-0.2-0.3l-0.2-0.3l0,0l-0.1,0.2l-0.2,0.4L1293.1,335.2z"/>
	<path class="st36" d="M1294.4,334.3c0.2,0,0.3,0,0.4,0.1l-0.1,0.1c-0.1,0-0.2-0.1-0.3,0c-0.2,0-0.3,0.1-0.2,0.3
		c0.1,0.2,0.3,0.3,0.6,0.2l0.2,0l-0.1-0.2l-0.2,0l-0.1-0.1l0.4,0l0.2,0.3c-0.1,0.1-0.2,0.1-0.3,0.1c-0.3,0-0.7-0.1-0.8-0.3
		C1293.9,334.4,1294.1,334.3,1294.4,334.3z"/>
	<polygon class="st36" points="1295.1,334.2 1295.3,334.2 1295.5,334.5 1296,334.5 1295.8,334.2 1296,334.2 1296.5,334.9 
		1296.3,334.9 1296.1,334.6 1295.6,334.6 1295.8,334.9 1295.6,335 	"/>
	<polygon class="st36" points="1296.3,334.2 1296.5,334.2 1297,334.9 1296.8,334.9 	"/>
	<path class="st36" d="M1304.5,334.6c0.2,0.1,0.4,0.1,0.6,0.1c0.2,0,0.4-0.1,0.2-0.3c-0.1-0.2-0.3-0.2-0.6-0.2c-0.1,0-0.2,0-0.3,0.1
		l-0.2-0.1l-0.4-0.6l1.2-0.1l0.1,0.2l-0.8,0l0.2,0.3c0.1,0,0.1,0,0.3-0.1c0.4,0,0.8,0.1,1,0.4c0.2,0.3-0.1,0.5-0.5,0.5
		c-0.4,0-0.6-0.1-0.9-0.1L1304.5,334.6z"/>
	<path class="st36" d="M1306.4,334.1l0.2,0.1c0.1,0,0.1,0,0.1-0.1l-0.3-0.4l0.2,0l0.3,0.4c0.1,0.1,0.1,0.2-0.2,0.2
		C1306.5,334.2,1306.4,334.2,1306.4,334.1L1306.4,334.1z"/>
	<polygon class="st36" points="1306.8,333.5 1307,333.5 1307.2,333.8 1307.2,333.8 1307.4,333.5 1307.6,333.5 1307.5,333.8 
		1308.2,334.1 1307.9,334.1 1307.4,333.9 1307.3,334 1307.5,334.2 1307.3,334.2 	"/>
	<polygon class="st36" points="1307.8,333.5 1308,333.5 1308.4,334 1308.9,334 1309,334.1 1308.3,334.1 	"/>
	<path class="st36" d="M1315.9,333.1c-0.1-0.1-0.3-0.1-0.4-0.1c-0.3,0-0.4,0.1-0.2,0.5c0.1-0.1,0.2-0.2,0.3-0.2
		c0.3,0,0.7,0.1,0.8,0.4c0.2,0.2,0,0.4-0.3,0.4c-0.4,0-0.9-0.2-1.1-0.6c-0.3-0.5-0.1-0.7,0.3-0.7c0.2,0,0.5,0,0.6,0.1L1315.9,333.1z
		 M1316.2,333.7c-0.1-0.1-0.3-0.2-0.5-0.2c-0.1,0-0.2,0-0.3,0.1c0.2,0.2,0.4,0.3,0.6,0.3C1316.2,333.9,1316.3,333.8,1316.2,333.7z"
		/>
	<polygon class="st36" points="1316.4,332.8 1316.6,332.8 1317,333.1 1317.1,333.2 1317.1,333.2 1317.1,333.1 1317.1,332.8 
		1317.3,332.8 1317.7,333.4 1317.5,333.4 1317.4,333.1 1317.2,332.9 1317.2,332.9 1317.2,333 1317.3,333.3 1317.2,333.3 1316.8,333 
		1316.6,332.9 1316.6,332.9 1316.8,333.1 1317,333.4 1316.8,333.4 	"/>
	<polygon class="st36" points="1317.5,332.7 1317.7,332.7 1318.3,333.1 1318.5,333.2 1318.5,333.2 1318.3,333 1318.1,332.7 
		1318.3,332.7 1318.7,333.3 1318.5,333.3 1318,333 1317.8,332.9 1317.8,332.9 1318,333.1 1318.1,333.3 1318,333.3 	"/>
	<path class="st36" d="M1318.7,333c-0.1-0.2,0-0.3,0.2-0.3c0.3,0,0.5,0.1,0.7,0.3c0.1,0.2,0,0.3-0.2,0.3
		C1319.1,333.3,1318.8,333.2,1318.7,333z M1319.4,333c-0.1-0.1-0.3-0.2-0.4-0.2c-0.2,0-0.2,0.1-0.1,0.2c0.1,0.1,0.3,0.2,0.4,0.2
		C1319.4,333.2,1319.5,333.1,1319.4,333z"/>
	<path class="st36" d="M1296.3,339.6l-1.2,0.1l-0.2-0.2l1.6-0.1l0.1,0.2c-0.3,0.4-0.2,0.7,0.2,1.3l-0.5,0
		C1296.1,340.3,1296,340,1296.3,339.6z"/>
	<path class="st36" d="M1297.1,339.3l0.4,0c0.3,0,0.5,0,0.6,0.2c0.1,0.2,0,0.2-0.3,0.3l-0.2,0l0.2,0.3l-0.2,0L1297.1,339.3z
		 M1297.8,339.7c0.2,0,0.2-0.1,0.2-0.1c-0.1-0.1-0.2-0.1-0.4-0.1l-0.2,0l0.2,0.2L1297.8,339.7z"/>
	<path class="st36" d="M1299.4,340l-0.5-0.3l-0.2,0l0.2,0.3l-0.2,0l-0.5-0.7l0.4,0c0.3,0,0.5,0,0.6,0.2c0.1,0.1,0,0.2-0.1,0.2
		l0.5,0.3L1299.4,340z M1298.7,339.6l0.2,0c0.2,0,0.2-0.1,0.2-0.1c-0.1-0.1-0.2-0.1-0.3-0.1l-0.2,0L1298.7,339.6z"/>
	<path class="st36" d="M1299.7,339.7c0.1,0,0.3,0.1,0.4,0.1c0.1,0,0.2,0,0.1-0.1c0-0.1-0.1-0.1-0.3-0.1l-0.2,0
		c-0.1,0-0.3-0.1-0.4-0.2c-0.1-0.1,0-0.2,0.3-0.2c0.1,0,0.3,0,0.4,0.1l-0.1,0.1c-0.1,0-0.2-0.1-0.3,0c-0.1,0-0.2,0-0.1,0.1
		c0,0.1,0.1,0.1,0.3,0.1l0.2,0c0.2,0,0.3,0.1,0.4,0.2c0.1,0.1,0,0.2-0.3,0.2C1300,339.9,1299.8,339.9,1299.7,339.7L1299.7,339.7z"/>
	<path class="st36" d="M1322.3,343.6l-0.3,0l-0.1-0.2l0.3,0l-0.1-0.3l-0.3,0l-0.1-0.2l0.3,0l-0.2-0.4l0.2,0l0.2,0.4l0.4,0l-0.2-0.4
		l0.2,0l0.2,0.4l0.3,0l0.1,0.2l-0.3,0l0.1,0.3l0.3,0l0.1,0.2l-0.3,0l0.2,0.4l-0.2,0l-0.2-0.4l-0.4,0l0.2,0.4l-0.2,0L1322.3,343.6z
		 M1322.8,343.4l-0.1-0.3l-0.4,0l0.1,0.3L1322.8,343.4z"/>
	<polygon class="st36" points="1299.5,345.6 1299.6,345.2 1298.8,345 1298.8,344.8 1299.6,344.8 1299.4,344.4 1299.8,344.4 
		1300.2,344.8 1300.9,344.7 1301.2,344.9 1300.6,345.2 1301.3,345.6 1301,345.7 1300.3,345.4 1300,345.8 	"/>
	<path class="st36" d="M1301.6,344.7c0.1,0,0.1-0.1,0.1-0.2l0,0l-0.2-0.1l0.1-0.1c0.1,0,0.2,0,0.3,0.1
		C1302,344.6,1301.9,344.7,1301.6,344.7L1301.6,344.7z"/>
	<path class="st36" d="M1302.6,344.6c0.1,0,0.1-0.1,0.1-0.1l0,0l-0.2-0.1l0.1-0.1c0.1,0,0.2,0,0.3,0.1
		C1302.9,344.6,1302.8,344.7,1302.6,344.6L1302.6,344.6z"/>
	<path class="st36" d="M1303.1,344.6c0.1,0,0.1-0.1,0.1-0.1l0,0l-0.2-0.1l0.1-0.1c0.1,0,0.2,0.1,0.3,0.1
		C1303.4,344.5,1303.4,344.6,1303.1,344.6L1303.1,344.6z"/>
	<path class="st36" d="M1307.5,339.3L1307.5,339.3c-0.2-0.1-0.4-0.2-0.5-0.3c-0.2-0.2,0-0.4,0.4-0.4c0.4,0,0.8,0.1,0.9,0.3
		c0.1,0.1,0,0.2-0.1,0.3l0,0c0.3,0.1,0.5,0.2,0.6,0.3c0.1,0.2,0,0.4-0.5,0.4c-0.4,0-0.9-0.1-1-0.3
		C1307.2,339.5,1307.3,339.3,1307.5,339.3z M1308.3,339.8c0.2,0,0.3-0.1,0.2-0.2c-0.1-0.1-0.4-0.2-0.7-0.2c-0.1,0.1-0.1,0.2-0.1,0.3
		C1307.8,339.7,1308,339.8,1308.3,339.8z M1308,338.9c-0.1-0.1-0.3-0.2-0.5-0.2c-0.2,0-0.3,0.1-0.2,0.2c0.1,0.1,0.3,0.2,0.6,0.2
		L1308,338.9z"/>
	<polygon class="st36" points="1309.1,338.6 1308.8,338.6 1308.7,338.5 1309.5,338.5 1309.6,338.6 1309.3,338.6 1309.7,339.2 
		1309.5,339.2 	"/>
	<path class="st36" d="M1309.7,338.5l0.2,0l0.3,0.4c0.1,0.1,0.2,0.2,0.4,0.2c0.1,0,0.2-0.1,0.1-0.2l-0.3-0.4l0.2,0l0.3,0.4
		c0.2,0.2,0.1,0.3-0.2,0.3c-0.3,0-0.5-0.1-0.6-0.3L1309.7,338.5z"/>
	<path class="st36" d="M1310.7,338.4l0.2,0l0.4,0.3c0.1,0.1,0.2,0.1,0.3,0.2l0,0l-0.1-0.2l-0.1-0.3l0.2,0l0.1,0.7l-0.2,0
		L1310.7,338.4z"/>
	<path class="st36" d="M1318.7,338.8c0.1,0,0.3,0.1,0.4,0.1c0.2,0,0.4-0.1,0.1-0.5c-0.1,0.1-0.2,0.1-0.3,0.2c-0.3,0-0.6-0.1-0.8-0.3
		c-0.2-0.2,0-0.4,0.3-0.4c0.4,0,0.8,0.1,1.1,0.5c0.3,0.5,0.1,0.7-0.3,0.7c-0.2,0-0.4,0-0.6-0.1L1318.7,338.8z M1319.1,338.3
		c-0.2-0.2-0.4-0.3-0.6-0.3c-0.2,0-0.2,0.1-0.1,0.2c0.1,0.1,0.3,0.2,0.5,0.2C1318.9,338.5,1319,338.4,1319.1,338.3z"/>
	<polygon class="st36" points="1319.8,337.8 1320,337.8 1320.2,338.1 1320.4,338.3 1320.4,338.3 1320.4,338.1 1320.3,337.8 
		1320.4,337.8 1320.7,338.1 1320.9,338.3 1320.9,338.3 1320.9,338.1 1320.7,337.8 1320.9,337.8 1321.1,338.4 1320.9,338.4 
		1320.6,338.1 1320.4,337.9 1320.4,337.9 1320.5,338.1 1320.6,338.4 1320.4,338.4 	"/>
	<polygon class="st36" points="1321.4,338 1321,337.8 1321.1,337.8 1321.3,337.9 1321.5,338 1321.5,338 1321.5,337.9 1321.5,337.7 
		1321.7,337.7 1321.6,338 1322.1,338.3 1321.9,338.3 1321.7,338.2 1321.6,338.1 1321.6,338.1 1321.6,338.2 1321.5,338.3 
		1321.4,338.3 	"/>
	<polygon class="st36" points="1322.2,338.1 1321.7,337.7 1321.9,337.7 1322.1,337.9 1322.3,338 1322.3,338 1322.3,337.9 
		1322.3,337.7 1322.4,337.7 1322.4,338.1 1322.6,338.3 1322.4,338.3 	"/>
	<path class="st22" d="M1309.5,352.7c0.4,0.6,0.1,1.2-0.7,1.2l-5.4,0.5c-0.8,0.1-1.8-0.4-2.2-1l-0.8-1.4c-0.4-0.7-0.1-1.2,0.7-1.3
		l5.5-0.4c0.8-0.1,2,0.9,2.4,1.5L1309.5,352.7z"/>
	<path class="st37" d="M1309.6,353.2l0.2-0.8l-0.6-0.2l-0.3-0.5c-0.4-0.7-1.6-1.6-2.3-1.6l-3.9,0.3l-2.1-0.1l-0.1,0.7
		c-0.1,0.2,0,0.5,0.1,0.8l0.8,1.4c0.4,0.7,1.4,1.2,2.2,1.1l5.3-0.5C1309.3,353.9,1309.5,353.8,1309.6,353.2z"/>
	<path class="st0" d="M1309.6,351.8c0.4,0.6,0.1,1.1-0.7,1.2l-5.3,0.5c-0.8,0.1-1.7-0.4-2.1-1l-0.8-1.3c-0.4-0.6-0.1-1.2,0.7-1.3
		l5.4-0.4c1.1-0.1,1.6,0.3,2,0.9L1309.6,351.8z"/>
	<path class="st37" d="M1304.9,351.4l-1.2-0.7l0.7-0.1l0.5,0.3c0.1,0.1,0.1,0.1,0.3,0.2l0.4-0.6l0.7-0.1l-0.4,0.9l1.5,0.8l-0.8,0
		c0,0-0.9-0.5-1.1-0.6l0,0c0,0.1-0.1,0.2-0.1,0.3l-0.1,0.3l-0.7,0L1304.9,351.4z"/>
	<path class="st22" d="M1320.9,351.6c0.3,0.6,0.1,1.1-0.6,1.1l-4.9,0.5c-0.7,0.1-1.5-0.4-1.9-1l-0.8-1.3c-0.4-0.6-0.1-1.1,0.7-1.2
		l4.9-0.3c0.7-0.1,1.9,0.9,2.2,1.4L1320.9,351.6z"/>
	<path class="st38" d="M1321,351.9l0.2-0.7l-0.5-0.2l-0.2-0.4c-0.3-0.6-1.5-1.6-2.2-1.5l-3.6,0.3l-1.9-0.1l-0.1,0.7
		c-0.1,0.2,0,0.4,0.1,0.7l0.8,1.4c0.4,0.6,1.2,1.2,1.9,1.2l4.8-0.6C1320.8,352.5,1320.9,352.4,1321,351.9z"/>
	<path class="st39" d="M1321,350.6c0.3,0.6,0.1,1.1-0.6,1.2l-4.8,0.4c-0.7,0.1-1.6-0.4-1.9-1l-0.8-1.3c-0.4-0.6-0.1-1.1,0.7-1.2
		l4.9-0.3c0.7,0,1.3,0.1,1.6,0.7L1321,350.6z"/>
	<path class="st38" d="M1318.4,349.7l-2.2,0.2l0,0l-0.2-0.4c-0.1-0.1-0.2-0.1-0.2-0.1l-0.8,0.7c-0.1,0.1,0,0.2,0.1,0.2l1.4,0.5
		c0.2,0.1,0.2,0,0.2-0.1l-0.2-0.4l0.1,0l2.3-0.2c0.2,0,0.2-0.1,0.1-0.3C1318.8,349.8,1318.6,349.7,1318.4,349.7z"/>
	<path class="st22" d="M1330.9,350.6c0.3,0.5,0,1-0.6,1l-4.5,0.4c-0.7,0.1-1.5-0.3-1.8-0.9l-0.9-1.2c-0.3-0.6-0.1-1,0.6-1.1l4.4-0.2
		c0.6,0,1.9,0.7,2.2,1.3L1330.9,350.6z"/>
	<path class="st40" d="M1331,350.9l0.1-0.7l-0.5-0.1l-0.5-0.3c-0.3-0.6-1.3-1.5-2-1.5l-3,0.1l-1.9-0.2l-0.2,0.7c0,0.2,0,0.4,0.1,0.6
		l0.9,1.3c0.3,0.6,1.1,1,1.8,0.9l4.3-0.4C1330.7,351.5,1330.9,351.4,1331,350.9z"/>
	<path class="st41" d="M1331,349.7c0.3,0.6,0.1,1-0.5,1.1l-4.3,0.4c-0.6,0.1-1.4-0.4-1.8-0.9l-0.9-1.3c-0.3-0.6-0.1-1,0.6-1l4.3-0.3
		c0.6,0,1,0.1,1.5,0.6L1331,349.7z"/>
	<path class="st40" d="M1328.6,348.4c0-0.1,0-0.2-0.1-0.3c-0.1,0-0.2,0-0.3,0.1c-0.1,0.4-0.2,0.7-0.2,0.8l-1.2,0.1l0,0l-0.2-0.3
		c-0.1-0.1-0.1-0.1-0.2-0.1l-0.8,0.7c-0.1,0.1,0,0.1,0.1,0.2l1.3,0.4c0.1,0,0.2,0,0.1-0.1l-0.2-0.4l0,0l1.1-0.1l0.1,0v0l0.1-0.1
		C1328.3,349.3,1328.4,349.1,1328.6,348.4z"/>
	<path class="st17" d="M1334.8,354.9c0.9,1.9,1.7,5.6,0.7,9.7c0,0.2,0.3,0.4,0.4,0.5c0.7-0.1,0.5-0.1,0.5-0.1s-0.6-0.3-0.5-0.4
		c0.4-1.3,0.9-3.8-0.2-8C1335.4,355.4,1334.8,354.9,1334.8,354.9z"/>
	<path class="st17" d="M1299.1,360.1c0.9,1.9,1.7,5.6,0.7,9.7c0,0.2,0.3,0.4,0.4,0.5c0.7-0.1,0.5-0.1,0.5-0.1s-0.6-0.3-0.5-0.4
		c0.4-1.3,0.9-3.8-0.1-8C1299.7,360.6,1299.1,360.1,1299.1,360.1z"/>
	<polygon class="st22" points="1300.1,369.7 1300.3,368.5 1335.9,363.5 1335.5,364.6 	"/>
	<path class="st14" d="M1491.5,485.5c-2.2,6.4-9.9,11.1-19.1,11.1h-22.3v-11.1v-27.3v-25h22.3c10.9,0,19.7,6.6,19.7,14.9v10.1v23.5
		C1492.2,483,1492,484.3,1491.5,485.5z"/>
	<path class="st42" d="M173.1,444.4h1304.5c-2.2-6.4-9.9-11.2-19.1-11.2H192.2C183,433.2,175.3,437.9,173.1,444.4z"/>
	<path class="st43" d="M172.5,448.1V482c0,8.2,8.8,14.9,19.7,14.9h1266.3c10.9,0,19.7-6.7,19.7-14.9v-33.8c0-1.3-0.2-2.6-0.6-3.8
		H173.1C172.7,445.6,172.5,446.8,172.5,448.1"/>
	<path class="st44" d="M172.5,448.1v23.7h1305.7v-23.7c0-1.3-0.2-2.6-0.6-3.8H173.1C172.7,445.6,172.5,446.8,172.5,448.1z"/>
	<path class="st45" d="M219.4,455.8c0,1.2,1.3,2.2,3,2.2h1225.7c1.6,0,3-1,3-2.2c0-1.2-1.3-2.2-3-2.2H222.4
		C220.7,453.6,219.4,454.6,219.4,455.8z"/>
	<path class="st14" d="M972.7,729.2c0,8.2,6.7,14.9,14.9,14.9h1.5c8.2,0,14.9-6.7,14.9-14.9V565.1c0-8.2-6.7-14.9-14.9-14.9h-1.5
		c-8.2,0-14.9,6.7-14.9,14.9V729.2z"/>
	<path class="st14" d="M1146.2,584.5c27.9,0,50.5,28.1,50.5,62.7c0,34.6-22.6,62.7-50.5,62.7c-27.9,0-50.5-28.1-50.5-62.7
		C1095.7,612.5,1118.3,584.5,1146.2,584.5z"/>
	<ellipse class="st0" cx="1134.5" cy="647.1" rx="50.5" ry="62.7"/>
	<rect x="1100.1" y="635" class="st18" width="68.8" height="24.2"/>
	<path class="st17" d="M985.2,708.4c15.1,0,30.2,0,45.3,0c27.6,0,55.3,0,82.9,0c10.2,0,20.5,0,30.7,0c5.9,0,11.8,0.2,17.6-0.4
		c0.6-0.1,1.3-0.2,1.9-0.2c-1.3,0.2,0.7-0.1,0.8-0.1c1.3-0.2,2.5-0.5,3.7-0.8c2.6-0.6,5.2-1.5,7.8-2.4c1.2-0.4,2.3-0.9,3.4-1.4
		c0.1,0,1.9-0.9,0.7-0.3c0.5-0.3,1.1-0.6,1.6-0.9c2.3-1.2,4.5-2.7,6.7-4.2c1-0.7,1.9-1.4,2.9-2.2c0.5-0.4,0.9-0.8,1.4-1.2
		c-1.1,1,0.3-0.3,0.5-0.4c1.9-1.7,3.6-3.6,5.3-5.7c0.8-0.9,1.5-1.9,2.2-2.8c0.1-0.2,1.2-1.8,0.3-0.4c0.3-0.5,0.6-1,1-1.5
		c1.3-2.2,2.5-4.5,3.6-6.8c0.2-0.5,0.5-1.1,0.7-1.6c0.1-0.3,0.8-2.1,0.2-0.4c0.4-1.1,0.7-2.3,1.1-3.4c0.7-2.5,1.2-5.1,1.5-7.7
		c-0.3,1.9,0-0.1,0-0.5c0.1-0.6,0.1-1.2,0.1-1.8c0-0.8,0.1-1.7,0.1-2.5c0-0.9,0-1.8,0-2.7c0-6.6,0-13.3,0-19.9
		c0-1.6-0.1-3.1-0.2-4.7c0-0.3-0.2-2.4,0-0.5c-0.1-0.6-0.2-1.2-0.3-1.8c-0.2-1.4-0.5-2.8-0.8-4.1c-0.3-1.2-0.6-2.3-1-3.5
		c-0.2-0.6-0.4-1.1-0.6-1.7c0.6,1.7-0.1-0.2-0.2-0.4c-0.9-2.4-2.1-4.7-3.3-6.9c-0.6-1-1.2-2-1.9-3c0.9,1.4-0.2-0.3-0.3-0.4
		c-0.3-0.5-0.7-1-1.1-1.4c-1.6-2.1-3.3-4-5.1-5.8c-0.4-0.4-0.9-0.8-1.3-1.2c-0.1-0.1-1.6-1.4-0.5-0.4c-0.9-0.8-1.8-1.5-2.8-2.3
		c-2.1-1.6-4.3-3.1-6.5-4.4c-3.8-2.2-8.1-4-13.2-5.5c-1.2-0.3-2.5-0.6-3.7-0.9c-0.6-0.1-1.2-0.3-1.9-0.4c-0.1,0-2.2-0.3-0.8-0.1
		c-2.8-0.4-5.6-0.6-8.5-0.6c-1.3,0-2.7,0-4.1,0c-20.9,0-41.8,0-62.6,0c-26.3,0-52.6,0-78.8,0c-6.9,0-13.7,0-20.6,0
		c-8.3,0-8.3-14.9,0-14.9c15.3,0,30.7,0,46,0c27.5,0,55,0,82.6,0c9.7,0,19.3,0,29,0c8.2,0,16.2,0.1,24.4,2
		c19.4,4.4,38.5,18.7,46.6,40c3.2,8.3,4.3,16.8,4.3,25.8c0,6.6,0,13.1,0,19.7c0,22.6-12.2,41.9-28.6,53.2
		c-12.4,8.5-26.6,11.8-40.9,11.8c-19.5,0-39.1,0-58.6,0c-27,0-54,0-81,0c-9.2,0-18.5,0-27.7,0C976.9,723.4,976.9,708.4,985.2,708.4z
		"/>
	<polyline class="st46" points="380.5,496.9 383.8,516.3 383.8,516.3 380.5,496.9 	"/>
	<polyline class="st47" points="1263.5,496.9 553,496.9 553,516.3 1263.5,516.3 1263.5,496.9 	"/>
	<polyline class="st48" points="553,496.9 380.5,496.9 383.8,516.3 553,516.3 553,496.9 	"/>
	<polyline class="st15" points="1263.5,496.9 380.5,496.9 553,496.9 1263.5,496.9 	"/>
	<path class="st16" d="M783.7,569c0.1,5.6,4.3,10.2,10,10.7c0.9,0.1,1.9,0,2.8,0h81.4c5,0,9.1-3.4,10.4-8.1
		c0.9-3.2,0.3-7.2,0.3-10.5v-64.5h5.6V565c0,5.6-0.4,10.5-4.3,15c-4,4.6-9.6,5.2-15.2,5.2h-80.3c-9,0-16.1-7.4-16.3-16.3
		C778,565.4,783.6,565.4,783.7,569z"/>
	<polygon class="st49" points="772.3,772.5 895.3,772.5 881.2,561.7 874.5,561.3 866.3,560.9 866.3,619.8 801.2,619.8 801.2,560.9 
		787.4,561.7 776.9,708 	"/>
	<path class="st50" d="M772.3,772.5h123l-14-210.8l-6.8-0.3c0.4,2.9,0.8,5.8,1.3,8.7c3.4,21.7,2.1,44,0,65.9
		c-2.1,21.2-5.2,50.7-19.6,67.5c-21.1,24.7-53.3,18-79.2,4.6L772.3,772.5z"/>
</g>
<path class="st3" d="M735.7,426.9c0,0,2.6-5.1-11.6-21.4C724.1,405.5,742.1,421.7,735.7,426.9z"/>
<path class="st3" d="M726.9,431.4c0,0,2.4-5.2-12.4-19.8C714.5,411.6,733.9,426.2,726.9,431.4z"/>
<g>
	<rect x="632.6" y="554.6" class="st51" width="93.5" height="31.8"/>
	<path class="st16" d="M637.5,554.5c0.1,5.2,4.2,9.6,9.6,9.6h76.5c4.1,0,7.8-2.5,9.2-6.4c0.6-1.6,0.5-3.2,0.5-4.9v-56h5.6v57
		c0,8.5-6.3,15.9-15.2,15.9h-74.5c-2.1,0-4.1,0-6.1-0.5c-6.6-1.6-11-8-11.1-14.6C631.8,550.8,637.4,550.9,637.5,554.5z"/>
	<rect x="640.1" y="554.6" class="st52" width="93.5" height="153.2"/>
	<path class="st51" d="M640.1,645.3v62.5h93.5V554.6h-6.9c-0.3,5.6-1.3,11.4-2.2,16.9c-3.6,22-6.8,47.6-16.4,67.9
		c-8.2,17.4-24.3,31.7-44,24.4C654.6,660.3,646.9,653.2,640.1,645.3z"/>
</g>
</svg>
