<?xml version="1.0" encoding="utf-8"?>
<!-- Generator: Adobe Illustrator 27.0.1, SVG Export Plug-In . SVG Version: 6.00 Build 0)  -->
<svg version="1.1" id="Lager_1" xmlns="http://www.w3.org/2000/svg" xmlns:xlink="http://www.w3.org/1999/xlink" x="0px" y="0px"
	 viewBox="0 0 1600 900" style="enable-background:new 0 0 1600 900;" xml:space="preserve">
<style type="text/css">
	.st0{fill:#500B00;}
	.st1{fill:#6B410C;}
	.st2{fill:#A44030;}
	.st3{fill:#7A1F10;}
	.st4{fill:#013F4B;}
	.st5{fill:#ED492E;}
	.st6{fill:#FFDFB9;}
	.st7{fill:#D1311C;}
	.st8{fill:#FFC833;}
	.st9{fill:#E8AF1F;}
	.st10{fill:#CECECE;}
	.st11{fill:#A2A1A1;}
	.st12{fill:#F28000;}
	.st13{fill:#7D7B7B;}
	.st14{fill:#F78679;}
	.st15{fill:#418C9A;}
	.st16{fill:#106B7A;}
	.st17{fill:#E5BB86;}
	.st18{fill:#454545;}
	.st19{fill:#B75349;}
	.st20{fill:#9C9C9C;}
	.st21{fill:#B9B9B9;}
	.st22{fill:#929292;}
	.st23{fill:#D5D5D5;}
	.st24{fill:#228F6B;}
	.st25{fill:#D3A472;}
	.st26{fill:#FF9D31;}
	.st27{fill:#FFE3C0;}
	.st28{fill:#485E7B;}
	.st29{fill:#111111;}
	.st30{fill:#FFFFFF;}
	.st31{fill:#B98A50;}
	.st32{fill:#F3F3F3;}
	.st33{fill:#4B8395;}
	.st34{fill:#ECB892;}
	.st35{fill:#96672C;}
	.st36{fill:#E4AE29;}
	.st37{fill:#D4A572;}
	.st38{fill:#5B3308;}
</style>
<ellipse class="st0" cx="502.7" cy="853.1" rx="258.7" ry="38.5"/>
<ellipse class="st0" cx="1168.7" cy="870.4" rx="178.9" ry="26.6"/>
<g>
	<g>
		<g>
			<g>
				<path class="st1" d="M1083.4,824.6c-0.9,9.6-1.2,23.9,0,32.5c0,0-11.3,4.9-14.2,1c0,0-1.7-21.8-0.9-35.4
					C1073.2,825.3,1078.1,825.8,1083.4,824.6z"/>
			</g>
		</g>
		<path class="st2" d="M1086.3,857.2l-0.7-2.3c-0.4-3.3-0.4-13.9-0.4-14c0-0.4-0.2-0.8-0.5-1.1c-0.3-0.3-0.8-0.4-1.2-0.2
			c-11.1,2.8-15.9-0.1-16-0.2c-0.4-0.3-1-0.3-1.5,0c-0.4,0.3-0.6,0.7-0.6,1.2c0,0,0,0.1,0,0.1c0.2,1.9,0.3,4.5,0.3,6.9
			c0,2.8-0.1,5.3-0.1,6.6c-8.1,2.8-12.3,5.9-12.3,9.3c0,0.1,0,0.3,0,0.4c0.3,2.7,2.8,4.2,7.3,4.8c7.7,0.9,15.3,0.6,21.9-1.9
			C1088.8,864.3,1087.3,860,1086.3,857.2z"/>
		<g>
			<path class="st3" d="M1068.8,845.8c-0.1-0.5-0.1-1-0.2-1.4c-0.1-0.5-0.9-0.7-1-0.1c-0.3,0.9,0,2,0.1,2.9c0,0.2,0.2,0.4,0.4,0.5
				c0.3,0.1,0.4,0,0.7-0.1c0.2-0.1,0.3-0.4,0.2-0.6C1068.9,846.6,1068.8,846.2,1068.8,845.8z"/>
			<path class="st3" d="M1068.4,850.1c-0.1-0.4-0.7-0.2-0.7,0.1c0,0.4,0,0.9,0,1.3c0,0.5-0.1,1,0.1,1.4c0.1,0.3,0.6,0.4,0.8,0.1
				c0.2-0.4,0.2-0.8,0.1-1.3C1068.6,851.2,1068.6,850.6,1068.4,850.1z"/>
			<path class="st3" d="M1066.8,855.7c-0.4,0.1-0.7,0.3-1.1,0.5c-0.4,0.1-0.7,0.3-1.1,0.4c-0.4,0.2-0.3,0.9,0.2,0.9
				c0.9,0.1,1.9-0.2,2.7-0.7C1068.1,856.4,1067.4,855.5,1066.8,855.7z"/>
			<path class="st3" d="M1070.9,848.1c-0.2-0.2-0.7-0.2-0.8,0.1c-0.1,0.4-0.1,0.9-0.1,1.3c0,0.5,0,1.5,0.8,1.3
				c0.7-0.1,0.6-0.9,0.6-1.4C1071.3,849,1071.3,848.5,1070.9,848.1z"/>
		</g>
	</g>
	<g>
		<g>
			<g>
				<path class="st1" d="M1122.6,819c2.8,9.2,8.1,22.5,12.5,30.1c0,0-8.5,8.9-12.7,6.3c0,0-9.9-19.5-14.4-32.4
					C1113.5,823.5,1118.2,822.1,1122.6,819z"/>
			</g>
		</g>
		<path class="st2" d="M1137.8,848l-1.5-1.9c-1.7-2.9-5.7-12.7-5.8-12.8c-0.2-0.4-0.5-0.7-0.9-0.8s-0.8,0-1.2,0.2
			c-9.1,6.8-14.8,6-14.8,6c-0.5-0.1-1,0.1-1.3,0.6c-0.3,0.4-0.3,0.9-0.2,1.3c0,0,0,0.1,0.1,0.1c0.9,1.7,2,4,2.9,6.2
			c1.1,2.6,1.7,3.6,2.2,4.8c-4.9,6.5-7,12.8-5.8,15.9c0.1,0.1,0.1,0.3,0.2,0.4c1.3,2.4,4.3,4,8.6,2.8c6.1-1.7,11.7-6,15.9-11.6
			C1141.1,852.8,1139.8,850.2,1137.8,848z"/>
		<g>
			<path class="st3" d="M1117.4,844.8c-0.2-0.4-0.4-0.9-0.7-1.2c-0.3-0.4-1.1-0.3-1,0.3c0.1,0.9,0.7,1.8,1.2,2.6
				c0.1,0.2,0.4,0.3,0.6,0.3c0.3,0,0.4-0.1,0.6-0.4c0.1-0.2,0.1-0.5,0-0.7C1117.8,845.4,1117.6,845.1,1117.4,844.8z"/>
			<path class="st3" d="M1118.7,851.9c-0.2,0.3-0.4,0.7-0.6,1c-0.2,0.3-0.5,0.6-0.7,0.9c-0.3,0.4,0.2,0.9,0.7,0.7
				c0.8-0.5,1.5-1.3,1.8-2.1C1120.2,851.7,1119.1,851.4,1118.7,851.9z"/>
			<path class="st3" d="M1120.2,846.1c-0.3-0.1-0.7,0.1-0.7,0.4c0.1,0.4,0.2,0.8,0.4,1.3c0.2,0.5,0.5,1.3,1.2,0.9
				c0.6-0.4,0.2-1,0-1.5C1120.9,846.8,1120.7,846.3,1120.2,846.1z"/>
		</g>
	</g>
	<g>
		<path class="st4" d="M1058.7,711.9c0,0-14.2,4.7-28.3,34.4c-14.1,29.7-14.5,57.3-26.1,70.4c0,0,13.4,13.8,34.1,13.8
			c21,0,28.2,8.9,50.1,8c21.8-1,24-4.7,38.8-3.3c14.8,1.4,23.7,3.2,41-4.7c9.4-4.4,22.9-0.7,37-16c0,0-9.1-10.1-16-32.7
			c-6.9-22.5-24.6-65.6-50.5-73.3C1111.9,700.5,1058.7,711.9,1058.7,711.9z"/>
	</g>
	<path class="st5" d="M1070.7,649.6c0,0-36.6,15.4-42.5,12c-5.9-3.4-27.8,15.4-12.4,25.5c15.4,10,38,4.1,45.9-1.7
		C1069.5,679.5,1070.7,649.6,1070.7,649.6z"/>
	<path class="st5" d="M1071.8,647.3c0,0-19.1,23-13,64.7c0,0,51,12.7,89,0.8c0,0-2.2-24.1-1.2-42.3c1-18.2-3.4-18.6-16.6-21.7
		C1116.8,645.6,1071.8,647.3,1071.8,647.3z"/>
	<g>
		<path class="st6" d="M1176,746.4c-0.7,1.6,0,10.8,1.7,12.5c9,8.6,0.9-4.6,0.9-4.6s2.5,10.8,5,11.2c2.5,0.4,2.3-5.8,2.3-5.8
			s-3.8,6.6,2,6.7c2.9-1,4-3.6,4-3.6s2.4,0.4,3-2.3c0,0,3.8,0.3,2.4-9.5C1196,741.2,1182.6,731.1,1176,746.4z"/>
		<path class="st7" d="M1173.7,739.3c0,0,0.3,5.4,2.9,6.5c2.6,1.1,13.7-0.5,15-3.9c1.2-3.4-1.4-12.4-1.4-12.4L1173.7,739.3z"/>
		<g>
			<path class="st5" d="M1131.6,680.6c0,0,15.2,10.6,25.1,28.3c6.4,11.3,11.9,31.2,17.6,31.6c2.2,0.2,15.8-1.6,17-6
				c3.8-14.1-9.5-56.7-36.7-71.6C1140.4,655.1,1136.4,669.3,1131.6,680.6z"/>
			<g>
				<path class="st7" d="M1179.1,698.2c0.2,0.4,0.8,0.3,0.8-0.2c-0.2-1.3-0.8-2.5-1.7-3.5c-0.4-0.5-1.3,0.1-0.8,0.6
					C1178.1,696.1,1178.6,697.1,1179.1,698.2z"/>
				<path class="st7" d="M1175.3,689.9c-0.5-1.1-1.1-2.6-2.1-3.4c-0.4-0.3-1,0.1-0.8,0.6c0.4,1.1,1.4,2.2,2,3.2
					C1174.7,690.9,1175.5,690.5,1175.3,689.9z"/>
				<path class="st7" d="M1170.9,696.1c0.2,0.3,0.7,0.1,0.7-0.3c-0.1-0.9-0.5-2.5-1.5-2.6c-0.2,0-0.4,0.1-0.4,0.3
					C1169.4,694.3,1170.5,695.4,1170.9,696.1z"/>
			</g>
		</g>
	</g>
	<g>
		<g>
			<path class="st8" d="M1162.2,785.1c-1.1-18-9.3-51.4-19.4-67.4c4.1-1.6,7-3.6,7-3.6c-1.7-5.8-2.8-8.4-2.8-8.4
				c-2.9,2.3-9.4,2.4-13.5,2.2c-3.3-3.6-7-9.1-8-16c-1.8-13.3-0.8-31,17.1-39.6l-20.6-0.9c0,0-10,16-9.9,38.3c0,0-27.2,4.7-39.5-2.8
				c0,0-2.6-22.4,10.1-37.2l-10.5-1.5c0,0-8.5,18.7-9.2,29.8c-0.7,11.1-7.2,19.1-7.2,19.1s-2.1,13.3,0.7,14.8
				c0,0-15.3,14.9-23.2,40.5c-7.9,25.6-12.8,52.5-16,58.8c0,0,9.4,5.1,29.8,7.3c18.9,2,33.4,13.8,69.7,4.5c21.7-5.5,38,2.3,54.5-6.2
				C1171.2,816.6,1163.4,805,1162.2,785.1z"/>
			<path class="st9" d="M1137.3,718.2c-27.3,5.5-52.7,8.7-78.3-4.9c-0.5-0.3-1.1,0.4-0.6,0.8c24.2,16,52.4,11.4,79.2,6
				C1138.9,719.9,1138.5,717.9,1137.3,718.2z"/>
		</g>
		<g>
			<path class="st9" d="M1061.9,750.2c17.6,8.1,43.5,11.3,61.4,2.6c0.5-0.3,0.1-1-0.4-0.8c-20.3,7.9-40.6,3.2-60.9-2.1L1061.9,750.2
				z"/>
			<path class="st9" d="M1060.7,755.9c-0.3,8.7-3.1,18.6,5.1,24.7c9.3,7.1,20.8,7.6,32.2,7.4c21.4-0.3,27.8-16.9,27-35.6
				c0-1.1-1.7-1.2-1.7-0.1c0.5,15.5-2.2,29.2-19.3,33.4c-7.1,1.7-15.4,0.8-22.6-0.1c-9.6-1.1-19.8-6.4-20.3-18.4
				c-0.2-3.8,0.5-7.5,0.3-11.3C1061.4,755.5,1060.8,755.5,1060.7,755.9z"/>
		</g>
	</g>
	<g>
		<path class="st10" d="M1105.5,673.1c0,0-17.1,15.2-35.2,9.8c-18.1-5.4-29.1-24.2-29.1-24.2s9.2-2,17.1-6.5
			C1066.8,647.3,1096.4,629.5,1105.5,673.1z"/>
		<g>
			<path class="st11" d="M1091.8,680.4c1,0.1,1.2-1.5,0.2-1.6c-16.6-2-31.3-10.9-42-22.8c-0.4,0.1-0.7,0.2-1.1,0.4
				C1059.1,669,1075.2,678.4,1091.8,680.4z"/>
			<path class="st11" d="M1096.5,663.4c-12.9-1.3-24.3-7.7-34.5-13.3c-0.2,0.1-0.7,0.4-1,0.5c9.6,6.3,22.6,14.1,35.4,13.7
				C1097,664.3,1097.1,663.5,1096.5,663.4z"/>
		</g>
		<g>
			<path class="st1" d="M1315.7,648.1c1.8,1.7,2.9,2.3,1.4,4.1c-1,1.1-3.7,5-5.2,5.2c-1.1,0.2-3.3-1.7-4.5-2.1
				c-0.2,1,1.2,2.7,0.9,3.5c-0.3,0.9-3.6,1.8-4.5,2.1c-0.2-5.7-1-10.4-5.2-14.9c-1.3-1.5-2.5-1.5-1.8-3.2c0.6-1.3,3.1-1.9,4.5-1.5
				C1308.1,642.9,1313.5,645.9,1315.7,648.1z"/>
		</g>
		<g>
			<path class="st8" d="M1174.4,669c0.1-1.3,1.5-3.1,2.1-4.2c0.6-1.3,0.9-1.3,0.6-2.7c-0.5-2.1-1.6-4.2-0.8-6.5
				c0.6-1.6,7.4-0.4,7.3,1.2c0.1,1.4-0.9,3.3-1.7,4.3c-0.5,0.7-1.8,1.1-1.8,2.1c0,0.8,1.1,2.1,1.5,3
				C1183.9,672.1,1174.4,671.3,1174.4,669z"/>
			<g>
				<path class="st12" d="M1149.9,643.3c1-4-1.5-6.8-5.6-7.3c-6.1-0.8-15.5,4.8-5.4,11.7C1143.3,650.6,1148.7,648.4,1149.9,643.3z"
					/>
				<path class="st12" d="M1155.2,648.9c-2.6-2.9-7.4-1.8-9.1,1.5c-1.8,3.6,1.6,9.2,5.7,8.7C1156.9,658.4,1158.4,652.4,1155.2,648.9
					z"/>
				<path class="st12" d="M1161.8,655c-3.8-2.1-7.6,3.8-5.7,7C1159.6,667.8,1168.2,658.6,1161.8,655z"/>
				<path class="st12" d="M1169.2,656.1c-4.1,0.1-5.9,6.7-1.8,8.3c1.8,0.7,5.3-0.1,6.1-1.9C1174.6,659.9,1172,656.1,1169.2,656.1z"
					/>
				<path class="st12" d="M1193.2,665.1c1.9-3.8-3.7-5.8-6.5-6.1c-2.1-0.2-5.5,0.4-7,2c-1.7,1.8,0.6,3.4,2,4.5
					c2,1.6,3.6,2.4,6.2,2.2C1189.7,667.5,1192.3,666.8,1193.2,665.1z"/>
			</g>
		</g>
		<path class="st10" d="M1083,657.4c0,0,4.4,30.5,33.8,32.3c29.4,1.8,34.1-18.5,57.3-18.1c0,0-18.1-18.5-29.4-22.1
			C1133.5,645.8,1091.7,645.1,1083,657.4z"/>
		<g>
			<path class="st11" d="M1150.2,666.6c-16.4,8.2-28.8,18.3-48.4,11.7c-1-0.4-1.6,1.2-0.6,1.6c10.3,3.5,20,2.4,30.3-0.9
				c4.2-1.3,8.3-3.6,11.9-6.1c8.5-5.8,14.9-7.7,23.5-8.1c-0.6-0.5-1.2-1.1-1.9-1.7C1160.1,663,1155.5,663.9,1150.2,666.6z"/>
			<path class="st11" d="M1099.9,665.3c-0.5-0.1-0.7,0.8-0.2,0.9c8.4,2.5,17.1,1.9,25.4-0.9c11.3-3.9,20.5-7.5,31.5-9.1
				c-0.6-0.4-1.1-0.8-1.7-1.2C1136.1,657.9,1119.6,668.7,1099.9,665.3z"/>
		</g>
		<path class="st10" d="M1088,662.2c0,0-13,23.4-14.8,33c-1.8,9.6-2.3,15.9,0,18.5c3.4,3.9,15.7-6.4,18.9-15.2
			c6.5-18.1,3.1-36.5,3.5-40.9C1096.1,653.1,1091.4,651.3,1088,662.2z"/>
		<g>
			<path class="st11" d="M1095.6,657.5c0.1-0.9,0-1.6-0.3-2.2c-2,5.5-4.2,10.9-6.6,16.4c-4.3,9.9-11,18.2-16.2,27.4
				c-0.2,1.5-0.4,2.8-0.6,4.1c7.7-14.6,16.9-28.2,23.7-42.9C1095.6,659.2,1095.5,658.2,1095.6,657.5z"/>
			<path class="st11" d="M1096.1,670.7c-1.7,3.5-3.4,6.9-5.1,10.3c-5.1,10.3-10.2,21-12.1,32.4c0.6-0.3,1.2-0.7,1.8-1.1
				c3.1-13.1,8.7-26.3,15.4-38.8C1096.1,672.6,1096.1,671.7,1096.1,670.7z"/>
		</g>
		<path class="st10" d="M1093.5,661.1c0,0-2.5,18.5,0.5,28.3c2,6.3,5.4,18.8,8.8,23.2c4.5,5.8,9.4,9.3,10.9,9.1
			c3.6-0.5,7.6-16.8,0.9-28.9C1110.6,685.3,1105,664.8,1093.5,661.1z"/>
		<g>
			<path class="st11" d="M1092.9,669.5c1.9,4.1,3.8,8.4,5.1,12.8c3.4,11.2,6,22.1,7.5,33.4c1,1,1.9,1.9,2.8,2.7
				c-1.2-18.3-8.3-34.7-15.6-51.4C1092.8,667.8,1092.9,668.6,1092.9,669.5z"/>
			<path class="st11" d="M1117.8,714c-2.6-12.9-8.3-25.6-13.1-37.5c-1.7-4-3.4-8.1-5.2-12.1c-1-1.1-2.1-2.2-3.2-3
				c9.6,17.7,16.1,38.2,20.2,57.1C1117,717.3,1117.5,715.8,1117.8,714z"/>
		</g>
		<g>
			<path class="st13" d="M1094.9,689.6c-4.3-13.1-2.1-24.2,3.4-36.6c0.3-0.8-0.8-1.2-1.2-0.4c-6,12-8.2,24.8-2.9,37.4
				C1094.3,690.5,1095.1,690.1,1094.9,689.6z"/>
			<path class="st13" d="M1077.5,683.8c1.6-4.9,5.4-9,8.1-13.4c2.8-4.5,5.7-10.4,6.8-15.7c0.1-0.5-0.6-0.7-0.8-0.2
				c-2.1,5.9-4.9,12.3-8.3,17.6c-2.3,3.6-5.6,7.2-6.7,11.4C1076.6,684.1,1077.3,684.3,1077.5,683.8z"/>
			<path class="st13" d="M1113,689c-1.1-8-6.5-15.5-9.6-22.9c-0.2-0.5-1-0.2-0.9,0.3c0.5,3.8,2.6,7.3,4.4,10.6c2.1,4,4,7.9,5.4,12.2
				C1112.4,689.6,1113,689.4,1113,689z"/>
			<path class="st13" d="M1099.2,667c-0.1,5.1,0.8,10.4,2.9,15.1c0.2,0.4,0.9,0.2,0.8-0.2c-1.2-5.1-2.7-9.6-3-14.9
				C1099.8,666.6,1099.2,666.7,1099.2,667z"/>
		</g>
	</g>
	<g>
		<g>
			<path class="st5" d="M1022.7,688.4c9.2-0.6,19.6-7.9,12.3-20.2c-5.5-9.2-20.3-16.6-29.2-19.8c-5.4-1.9-11.2,4.1-13.9,11.8
				C990.4,664.7,1008.8,689.2,1022.7,688.4z"/>
			<g>
				<path class="st7" d="M1016,682.5c-0.4-0.2-0.9,0.2-0.6,0.6c0.8,1,2,1.7,3.2,2.1c0.6,0.2,1-0.7,0.4-1
					C1017.9,683.7,1017,683.1,1016,682.5z"/>
				<path class="st7" d="M1023.5,687.5c1,0.7,2.3,1.6,3.6,1.8c0.5,0.1,0.8-0.6,0.4-1c-1-0.7-2.3-1.2-3.4-1.7
					C1023.4,686.3,1023,687.2,1023.5,687.5z"/>
				<path class="st7" d="M1024,679.9c-0.4-0.2-0.7,0.3-0.4,0.6c0.5,0.7,1.7,1.9,2.7,1.5c0.2-0.1,0.3-0.3,0.2-0.5
					C1026.2,680.6,1024.7,680.3,1024,679.9z"/>
				<path class="st7" d="M1011.9,679.4c-0.4-0.3-0.8-0.6-1.2-0.8c-0.9-0.4-1.6,0.7-0.8,1.3c0.2,0.2,0.5,0.3,0.8,0.5
					c0.1,0.1,0.8,0.5,0.5,0.3C1012.6,681.7,1012.9,679.3,1011.9,679.4z"/>
			</g>
		</g>
		<path class="st7" d="M989.4,656c-0.7,2.3,2.5,5.7,4.2,6.4c1.7,0.7,9,0,12.2-4.3c1.4-1.9,1.7-4.9,1.2-6.6c-1-3.5-5.8-5.7-9.1-3.7
			C992.9,650.8,989.4,656,989.4,656z"/>
	</g>
	<g>
		<g>
			<g>
				<path class="st1" d="M1122.3,569.6c-8.5-2.2-19.5-3-28-0.3c-7.5,2.2-16,6.8-21.2,12.6c-5.5,6.1-10.9,16.9-8.2,25.1
					c1.9,6.4,6.6,9.3,13.2,8.7c4.6-0.5,8.9-2,13.6-2.7c5.7-0.9,11.7-0.9,17.5-0.1c8.1,1,16.6,3.3,23.5,7.8c2.2,1.4,3.4,3.9,5.7,5.1
					c4.6,2.4,8.3-4,9.7-7.1C1159.8,593.3,1136.6,573.3,1122.3,569.6z"/>
				<g>
					<g>
						<g>
							<g>
								<g>
									<path class="st6" d="M1121.8,648c-16.5,5.1-45.8-1.8-52-18.8c-6.1-16.6-1.5-34.6,13.3-43.9c19.6-12.3,49.5-7.2,58,15.5
										C1148,619,1141.8,641.4,1121.8,648z"/>
								</g>
							</g>
							<g>
								<g>
									<path class="st14" d="M1140.7,633.5c-0.4,8.7-6.9,10.3-14.4,8.4c-6.5-1.7-9.2-6.3-8-13c0.7-3.6,3.4-6.6,6.9-7.6
										C1133.7,618.9,1141.1,624.7,1140.7,633.5z"/>
									<path d="M1116.9,610.8c-0.1,1.3,0,3.2-1.9,3.1c-2-0.1-1.5-2.8-1.3-3.8c0.1-0.5,0.5-1,1-1.1
										C1115.9,608.7,1117,609.5,1116.9,610.8z"/>
									<path d="M1089.5,607.6c-0.2,1.2-0.7,3.1,1.2,3.5c2,0.4,2.1-2.4,2.2-3.4c0-0.5-0.3-1.1-0.7-1.3
										C1091,605.8,1089.7,606.4,1089.5,607.6z"/>
									<path class="st14" d="M1066.3,620.8c-3.7,7.5,1.1,11.9,8.3,13.7c6.3,1.6,10.6-1.1,12.7-7.3c1.1-3.4,0.2-7.1-2.3-9.6
										C1078.8,611.7,1069.9,613.3,1066.3,620.8z"/>
								</g>
							</g>
						</g>
					</g>
				</g>
			</g>
		</g>
		<path class="st12" d="M1065.1,603.1c0,0,11.1-1.6,20.7-17c0,0-2.6,8.3-1.4,11.7c1.2,3.4,3.8,5,4.5,3.3c0.8-1.7,0.1-8.7,2.3-14.1
			c0,0-0.9,8.2,0.6,12.8c1.5,4.6,3.6,6.9,5.3,5.3c1.7-1.6-0.6-7.9,2.3-14.7c0,0,0.5,8.8,3.1,13.6c2.2,4.1,5.7,4.7,5.4-2.8
			c0-1.1-0.1-7.4-0.2-8.9c0,0,1.7,6.5,2.4,8.7c0.9,2.5,1.8,5.9,3.9,5.8c3.9-0.3,1.6-14.1,1.6-14.1s4.3,14.8,8.4,12.8
			c4.1-1.9-0.9-18-0.9-18s11.3,22.9,23.4,19.4c9.3-2.7-14.2-28.9-22.7-31C1098.2,569.4,1073.3,581,1065.1,603.1z"/>
		<g>
			<g>
				<path class="st15" d="M1099.8,649.4c-2.4-0.3-2.4-1.4-0.6-2.4c0,0,18,0.4,28.7-8.3c10.7-8.7,11.2-25.1,7.1-36.6
					c-4.1-11.5-13.6-24.6-28.9-26.1c-15.4-1.6-25.2,11.9-29.8,23.7c-9,23,9,45.5,21.2,46.8c0,0,1,2-2.5,2c-2.4,0-9.9-1-15.4-3.9
					c-10.2-5.5-14.9-14.4-17.1-28.2c-2.7-16.8,8.5-38.2,22.4-47.7c7.6-5.2,16.3-7.3,24.4-8.2c14.6-1.5,45.3,5.3,48.4,7.7
					c2.2,1.7-0.8,10.4-5.6,17.3c0.8,5.5,2.1,12.7,3.1,22c1.9,17.6-2.4,28.3-12.1,34.9C1131.8,649.8,1116.2,651.2,1099.8,649.4z"/>
				<path class="st15" d="M1086.7,657.2c4.3-1.9,8.6-1,10.4-5.5c1.3-3.2-2.5-4.1-2.5-4.1s1.8-2.3-3.1-1.7c-4.3,0.6-10.3,9-9.6,13.2
					C1082.2,660.3,1083.5,658.6,1086.7,657.2z"/>
				<path class="st15" d="M1109.6,657.4c-2.2-4.1-1.7-8.5-6.4-10c-3.3-1-3.9,2.8-3.9,2.8s-2.4-1.6-1.4,3.3c0.9,4.2,9.8,9.5,13.9,8.5
					C1113.1,661.6,1111.2,660.4,1109.6,657.4z"/>
				<g>
					<path class="st16" d="M1092.4,651.4c-0.6,0.6-1.3,1-2.1,1.1c-1.1,0.2-0.5-0.9-0.1-1.3c0.3-0.4,0.8-0.7,1.2-0.9
						c1.6-1,3.4-0.9,5.2-1.4c0.2-0.1,0.1-0.3,0-0.4c-2.4-0.3-6.7,1-7.6,3.6c-0.2,0.6,0.4,0.9,0.9,0.9c1,0,2.1-0.7,2.7-1.5
						C1092.7,651.5,1092.5,651.3,1092.4,651.4z"/>
					<path class="st16" d="M1101,653.2c-0.1,0.6,0,1.2,0.6,1.6c0.5,0.3,1,0,1.3-0.5c1.1-2.1-1.4-4.2-3-5c-0.5-0.2-0.8,0.5-0.3,0.7
						c1.3,0.6,2.7,1.5,2.9,3c0.1,0.4,0,1.3-0.5,1.3c-0.5,0-0.7-0.8-0.7-1.1C1101.2,653.1,1101,653.1,1101,653.2z"/>
				</g>
				<path class="st15" d="M1098.3,652.3c-1.9,1.4-3.8-1.9-3.3-4.6c0.6-2.9,2.9-2.3,4.3-1.5C1100.8,647.1,1100,651.1,1098.3,652.3z"
					/>
				<g>
					<path class="st16" d="M1121.2,647.4c-5,0.8-9.8,0.9-14.8,1c-0.4,0-0.4,0.6,0.1,0.6c5,0.1,9.9-0.3,14.8-1.1
						C1121.5,647.8,1121.5,647.3,1121.2,647.4z"/>
					<path class="st16" d="M1077.7,640.7c3.4,3.2,7.9,5.1,12.5,5.7c0.3,0,0.4-0.5,0.1-0.5c-4.6-0.7-8.9-2.4-12.3-5.5
						C1077.8,640.2,1077.5,640.5,1077.7,640.7z"/>
				</g>
				<g>
					<path class="st16" d="M1137.7,634.2c8.7-14.1,7.2-32.4,2.4-47.6c-0.2-0.7-1.3-0.3-1,0.4c4.9,15.3,6.1,32.6-1.8,47
						C1137.1,634.3,1137.5,634.5,1137.7,634.2z"/>
					<path class="st16" d="M1075.2,630.8c-4.9-7.9-7.6-16.8-5.9-26c1.6-8.3,6.7-17.3,12.9-22.9c0.5-0.4-0.1-1.3-0.6-0.9
						c-13.8,12.5-18.9,34.6-6.8,50C1075,631.3,1075.3,631.1,1075.2,630.8z"/>
				</g>
			</g>
			<g>
				<path class="st16" d="M1096.4,567.3c-1.4-0.3-3.2,0.7-4.4,1.4c-0.4,0.2-0.2,0.9,0.3,0.7c0.7-0.3,1.4-0.5,2-0.7
					c0.7-0.2,1.5-0.2,2.2-0.5C1096.9,568,1096.8,567.4,1096.4,567.3z"/>
				<path class="st16" d="M1101.3,566.2c-0.5-0.2-1.2,0.1-1.7,0.3c-0.4,0.2-0.3,0.7,0.2,0.7c0.6,0,1.3,0,1.7-0.4
					C1101.7,566.6,1101.6,566.3,1101.3,566.2z"/>
				<path class="st16" d="M1106.9,564.8c-0.7,0.1-1.4,0.3-2.1,0.5c-0.5,0.2-0.3,0.8,0.2,0.8c0.7,0,1.3-0.1,2-0.2
					c0.6-0.1,1.2-0.1,1.7-0.4c0.2-0.2,0.3-0.7-0.1-0.8C1108,564.5,1107.5,564.7,1106.9,564.8z"/>
				<path class="st16" d="M1115.8,563.9c-0.6-0.5-1.6-0.1-2.3-0.1c-0.4,0-0.6,0.7-0.1,0.8c0.7,0.2,2,0.7,2.5-0.1
					C1116,564.3,1116,564.1,1115.8,563.9z"/>
				<path class="st16" d="M1100.2,568.8c-0.6,0-1.2,0.1-1.8,0.4c-0.4,0.2-0.4,0.8,0.1,0.8c0.6,0,1.2,0,1.8-0.2
					C1100.7,569.7,1100.8,568.9,1100.2,568.8z"/>
			</g>
			<g>
				<path class="st16" d="M1152.6,591.9c-1.5-6.7-4.6-16.1-10.1-20.7c-0.5-0.4-1.1,0.4-0.6,0.8c5.5,4.6,8.4,13.4,10.4,20
					C1152.5,592.9,1152.7,592.1,1152.6,591.9z"/>
			</g>
		</g>
		<g>
			<path class="st17" d="M1094.9,614.5c-0.4-0.1-0.8,0.2-0.8,0.6c0,0.2,0,0.5,0.2,0.7c0.3,0.3,0.6,0.4,0.9,0.1
				c0.3-0.2,0.3-0.5,0.3-0.8C1095.5,614.8,1095.2,614.5,1094.9,614.5z"/>
			<path class="st17" d="M1098.9,613.3c-0.2-0.2-0.6-0.2-0.8,0c-0.2,0.1-0.4,0.3-0.4,0.5c0,0.3,0.1,0.5,0.4,0.7
				c0.4,0.3,1,0.1,1.1-0.5C1099.2,613.7,1099.1,613.4,1098.9,613.3z"/>
			<path class="st17" d="M1088.7,613.4c-0.3,0-0.6,0.1-0.8,0.3c-0.2,0.3-0.2,0.5-0.1,0.8c0,0.1,0.1,0.2,0.1,0.2
				c0.3,0.3,0.8,0.5,1.1,0.1c0.1-0.1,0.2-0.2,0.3-0.4C1089.6,614.1,1089.2,613.5,1088.7,613.4z"/>
			<path class="st17" d="M1092.2,617.2c-0.6,0-1.1,0.3-1.2,0.9c-0.1,0.5,0.3,1.1,0.9,1.2c0.6,0,1.1-0.3,1.2-0.9
				C1093.1,617.9,1092.7,617.3,1092.2,617.2z"/>
			<path class="st17" d="M1107.3,613.9c-0.4-0.1-0.8-0.1-1.1,0.3c-0.2,0.2-0.2,0.6-0.1,0.9c0.1,0.4,0.4,0.7,0.8,0.7
				c0.6,0.1,1.1-0.5,1.1-1.1C1107.9,614.4,1107.6,614,1107.3,613.9z"/>
			<path class="st17" d="M1108.5,617.5c-0.3-0.2-0.5-0.3-0.8-0.2c-0.4,0.1-0.8,0.4-0.8,0.8c-0.1,0.4,0.2,0.9,0.6,1
				c0.3,0.1,0.6,0.1,0.8,0c0.3-0.2,0.5-0.4,0.6-0.8C1108.9,618.1,1108.8,617.7,1108.5,617.5z"/>
			<path class="st17" d="M1116,620.5c-0.5-0.8-1.7-0.8-1.9,0.3c-0.1,0.9,1.2,1.6,1.7,0.7l0,0C1116.1,621.2,1116.2,620.8,1116,620.5
				L1116,620.5z"/>
			<path class="st17" d="M1113.5,616.6c-0.5-0.1-1.1,0.3-1.1,0.9l0,0.1c0,0.5,0.3,1,0.9,1.1c0.5,0.1,1.1-0.3,1.1-0.9l0-0.1
				C1114.4,617.2,1114.1,616.7,1113.5,616.6z"/>
			<path class="st17" d="M1120.6,617.9c-0.6,0-1.1,0.3-1.2,0.9c-0.1,0.5,0.3,1.2,0.9,1.2c0.6,0,1.1-0.3,1.2-0.9
				C1121.5,618.6,1121.1,617.9,1120.6,617.9z"/>
		</g>
	</g>
</g>
<g>
	<g>
		<path class="st6" d="M1192.1,742.3c-1.6,0.8-9.4,6.6-9.2,9c0.1,2.4,6.8-0.9,6.8-0.9s-5.2,9.8-3.5,11.8c1.7,1.9,5.5-2.9,5.5-2.9
			s-6,6.1-3.2,7.2c2.8,1.1,5.7-0.9,5.7-0.9s1.5,1.9,3.8,0.3c0,0,2.6,2.7,8-5.6C1211.4,751.9,1207.1,735.1,1192.1,742.3z"/>
		<g>
			<path class="st16" d="M1195.6,734.8c0,0-3.9,3.7-3.1,6.4c0.8,2.7,9.1,10.2,12.5,9c3.4-1.2,8.6-9,8.6-9L1195.6,734.8z"/>
			<g>
				<path class="st15" d="M1221.6,660.7c0,0-6.3,22.6-13.5,41.5c-4.6,12.2-16.4,29.1-13,33.8c1.3,1.8,11.3,11.1,15.5,9.2
					c13.3-6.1,37.5-43.5,31.6-74C1239,655.3,1233.4,657.3,1221.6,660.7z"/>
			</g>
		</g>
	</g>
	<g>
		<g>
			<g>
				<path class="st1" d="M1273.7,826.6c2,9.4,6,23.2,9.8,31c0,0-9.3,8.1-13.2,5.2c0,0-8.2-20.3-11.5-33.5
					C1264.2,830.3,1269,829.3,1273.7,826.6z"/>
			</g>
		</g>
		<path class="st13" d="M1286.2,856.8l-1.3-2c-1.4-3-4.6-13.1-4.6-13.2c-0.1-0.4-0.4-0.7-0.8-0.9c-0.4-0.1-0.8-0.1-1.2,0.1
			c-9.7,5.9-15.3,4.6-15.3,4.6c-0.5-0.1-1.1,0-1.4,0.4c-0.3,0.4-0.4,0.9-0.3,1.3c0,0,0,0.1,0.1,0.1c0.8,1.8,1.6,4.2,2.3,6.5
			c0.8,2.6,1.5,5.1,1.8,6.3c-2.5,1.8-7.4,4.7-8.4,6.5c-1.2,2.2-1.2,6.8,7.7,7.4c7.7,0.5,15.1-2.6,20.7-7
			C1290.7,862.8,1288,859.2,1286.2,856.8z"/>
		<g>
			<path class="st18" d="M1266.1,851.2c-0.2-0.4-0.3-0.9-0.6-1.3c-0.3-0.4-1-0.4-1,0.2c0,0.9,0.6,1.9,1,2.7c0.1,0.2,0.3,0.4,0.6,0.4
				c0.3,0,0.4-0.1,0.6-0.3c0.1-0.2,0.1-0.5,0-0.7C1266.4,851.9,1266.2,851.5,1266.1,851.2z"/>
			<path class="st18" d="M1267,855.4c-0.2-0.3-0.7,0-0.7,0.3c0.1,0.4,0.3,0.8,0.4,1.3c0.1,0.4,0.2,1,0.5,1.3
				c0.2,0.2,0.7,0.2,0.7-0.2c0.1-0.5-0.1-0.8-0.3-1.3C1267.6,856.3,1267.4,855.9,1267,855.4z"/>
			<path class="st18" d="M1267.2,861.2c-0.3,0.2-0.6,0.5-0.9,0.8c-0.3,0.2-0.6,0.5-0.9,0.7c-0.4,0.3,0,1,0.4,0.9
				c0.9-0.2,1.8-0.8,2.3-1.5C1268.6,861.5,1267.7,860.8,1267.2,861.2z"/>
			<path class="st18" d="M1268.8,852.7c-0.3-0.2-0.7,0-0.7,0.4c0,0.5,0.2,0.9,0.3,1.3c0.1,0.5,0.4,1.4,1.1,1c0.6-0.3,0.3-1,0.1-1.5
				C1269.5,853.5,1269.3,853,1268.8,852.7z"/>
		</g>
	</g>
	<g>
		<g>
			<g>
				<path class="st1" d="M1259,836.2c-4,8.7-9,22.2-10.7,30.7c0,0-12.3,0.9-13.7-3.7c0,0,5.6-21.1,10.8-33.7
					C1249.2,833.4,1253.7,835.5,1259,836.2z"/>
			</g>
		</g>
		<path class="st13" d="M1251.1,867.9l0.1-2.4c0.7-3.3,4.2-13.3,4.2-13.4c0.1-0.4,0.1-0.8-0.1-1.2c-0.2-0.4-0.6-0.6-1-0.6
			c-11.3-1-15-5.4-15.1-5.4c-0.3-0.4-0.9-0.6-1.4-0.5c-0.5,0.1-0.8,0.4-1,0.9c0,0,0,0.1,0,0.1c-0.4,1.9-1.2,4.3-2,6.6
			c-0.9,2.6-1.1,3.9-1.6,5.1c-8.2-1.4-12.7,1-13.8,4.2c0,0.1-0.1,0.3-0.1,0.4c-1.5,4.8,12.7,12.9,23.5,13.1
			C1250.9,874.9,1251.1,870.9,1251.1,867.9z"/>
		<g>
			<path class="st18" d="M1238,851.9c0.1-0.5,0.3-0.9,0.3-1.4c0-0.5-0.6-0.9-0.9-0.4c-0.5,0.8-0.7,1.9-0.9,2.8c0,0.2,0,0.5,0.2,0.6
				c0.2,0.2,0.4,0.2,0.7,0.1c0.2-0.1,0.4-0.3,0.4-0.5C1237.8,852.6,1237.9,852.2,1238,851.9z"/>
			<path class="st18" d="M1234.2,858.1c-0.4,0.1-0.7,0.2-1.1,0.3c-0.4,0.1-0.8,0.2-1.1,0.3c-0.5,0.1-0.4,0.9,0,1
				c0.9,0.2,1.9,0,2.8-0.4C1235.5,858.9,1234.9,858,1234.2,858.1z"/>
			<path class="st18" d="M1239.2,854.8c-0.1-0.3-0.6-0.4-0.8-0.1c-0.3,0.4-0.4,0.8-0.5,1.2c-0.2,0.5-0.5,1.4,0.3,1.5
				c0.7,0.1,0.8-0.6,1-1.1C1239.3,855.7,1239.4,855.2,1239.2,854.8z"/>
		</g>
	</g>
	<g>
		<path class="st2" d="M1224.8,721.9c0,0-13.2,5.2-24.9,35.1c-11.7,29.8-10.6,57.1-20.8,70.4c0,0,13.5,13,33,12.1
			c19.9-0.9,27.2,7.6,47.8,5.7c20.6-1.9,22.4-5.7,36.6-4.9c14.1,0.8,22.7,2.2,38.5-6.4c8.7-4.7,21.6-1.7,34.1-17.3
			c0,0-9.1-9.6-16.9-31.5c-7.8-21.9-26.9-63.5-51.9-70C1274.4,708.3,1224.8,721.9,1224.8,721.9z"/>
	</g>
	<g>
		<path class="st19" d="M1230.5,751.9c14.3,1.3,28.6,2.7,43.1,1.9c13.6-0.7,27.6-2,40.9-5.2c5.6-1.3,11.2-3.1,15.9-6.4
			c0.2-0.2,0.5-0.3,0.7-0.5c-0.4-0.6-0.8-1.1-1.1-1.7c-5.2,3.5-11.2,5.3-17.3,6.7c-11.9,2.8-24.2,3.4-36.3,4.5
			c-13.5,1.1-27.4-0.2-40.9-1.5c-6.4-0.6-12.8-1.1-19.1-1.7c-2.9-0.3-5.8-0.7-8.6-1.2c-1-0.2-2-0.4-2.9-0.6
			c-0.5,0.9-0.9,1.8-1.4,2.8c2.7,0.6,5.7,0.8,6.9,1C1216.9,751.1,1223.7,751.3,1230.5,751.9z"/>
		<path class="st19" d="M1266.6,773.9c14.5-0.5,29.2-0.2,43.7-1.9c7.2-0.9,14.5-2.4,21.2-5.4c3.7-1.7,6.9-4,10.2-6.3
			c-0.3-0.7-0.7-1.3-1-2c-2.6,1.7-5.2,3.5-7.9,5.1c-6.5,3.7-14.3,5.1-21.5,6.1c-14.2,2-28.8,1.4-43.2,1.7
			c-23.9,0.6-48.5,1.7-71.1-6.3c-0.3,1-0.7,2.1-1,3.1C1218,776.3,1243.9,774.6,1266.6,773.9z"/>
		<path class="st19" d="M1256.1,801.2c16.9-0.4,34.4-2,51.1-5c15.6-2.8,29.3-9.1,42.9-17c-0.2-0.6-0.5-1.2-0.7-1.8
			c-6.2,2.6-12,6.1-18,9c-7.4,3.5-15.2,5.5-23.2,7c-15.6,3-31.5,3.7-47.4,4.7c-16.9,1.1-33.5-1.7-50.2-4.3
			c-5.6-0.9-11.1-1.2-16.7-1.5c-1.2-0.1-2.4-0.1-3.7-0.2c-0.2,1-0.4,1.9-0.6,2.8c4.8,0.5,9.7,0.4,14.5,0.9
			C1221.6,797.5,1238.4,801.6,1256.1,801.2z"/>
		<path class="st19" d="M1262.8,828.6c16.7,0.7,33.8-1,49.4-7c9.7-3.7,19.7-4.6,29.6-7.3c7.1-1.9,12.5-7.2,18-11.7
			c-0.3-0.6-0.6-1.1-0.9-1.7c-6.3,4-11.6,9.2-19.1,11.2c-8.3,2.2-16.9,2.8-25.1,5.6c-7.9,2.7-15.3,5.3-23.5,6.7
			c-8.9,1.5-17.9,1.8-26.9,1.6c-18.3-0.5-36.1-5-53.9-9c-7.5-1.7-15-3.3-22.6-4.9c-0.7-0.1-1.4-0.3-2-0.4c-0.2,0.9-0.5,1.8-0.8,2.7
			c7.1,1.7,14.3,2.9,21.3,4.5C1225.1,823.1,1243.7,827.8,1262.8,828.6z"/>
	</g>
	<g>
		<path class="st19" d="M1304.2,716.9c9.7,5.8,15.4,16.2,20,26.1c4.6,9.9,7.9,20.2,11.8,30.3c6.8,17.4,12.6,36.7,24.5,51.5
			c0.6-0.4,1.2-0.8,1.7-1.2c-5.1-6.3-9.1-13.6-12.6-21.1c-5-10.8-9.1-22.1-13.4-33.2c-4-10.4-7.6-20.9-12.5-30.9
			c-3.3-6.7-7.5-13.7-13.3-18.6c-2.1-1.3-4.2-2.5-6.4-3.4C1303.9,716.5,1304,716.7,1304.2,716.9z"/>
		<path class="st19" d="M1309.5,740c5.7,13.2,8.6,27.7,12.3,41.5c3.5,13.1,7.2,26,11.3,38.9c1.3,4.2,2.9,8.3,4.7,12.3
			c0.7-0.3,1.5-0.5,2.2-0.7c-2.4-4.8-4-9.9-5.6-15c-4.4-13.9-8.4-27.8-12.2-41.9c-3.6-13.2-6.7-27.3-12.9-39.5
			c-4.4-8.8-11.5-15.7-18.9-22c-0.8-0.1-1.5-0.1-2.3-0.2C1296.8,721,1304.8,729.2,1309.5,740z"/>
		<path class="st19" d="M1316,822.5c-2.8-7.9-5.4-15.7-7.5-23.8c-1.8-6.9-2.9-13.6-2.8-20.7c0.1-3.7,0.2-9.1-3.2-11.5
			c-0.6-0.4-1.5,0.3-1.2,1c2.6,5.4,1.9,10.8,2,16.6c0.2,7.5,3,15.5,5,22.7c2.2,7.7,5.2,15.1,7.8,22.6c1,2.9,1.6,7.3,3.2,10.6
			c0.7-0.1,1.4-0.3,2.1-0.5c-0.9-2-1.3-4.5-1.9-6.2C1318.5,829.6,1317.2,826,1316,822.5z"/>
		<path class="st19" d="M1270,810.5c0.1-6.9,0.1-13.8,0.4-20.6c0.3-7.3,2-14.7,2-21.9c0-0.7-1-1-1.3-0.3c-2.4,6.2-2.3,13.8-2.7,20.5
			c-0.4,7.4-0.4,14.8-0.5,22.2c0,7.4-0.2,14.6-1.1,22c-0.5,4.1-1,8.2-1.2,12.3c0.7-0.1,1.3-0.2,1.9-0.3c0.4-3.9,0.9-7.9,1.4-11.8
			C1269.7,825.2,1269.9,817.9,1270,810.5z"/>
		<path class="st19" d="M1253.1,799.8c0.9-7.2,3.2-13.5,5.2-20.4c0.2-0.8-0.8-1.4-1.3-0.7c-3.1,4.5-4.2,10.5-5.1,15.9
			c-1.2,6.4-1.6,12.9-2,19.3c-0.7,10.6-1.5,21-4.7,30.9c0.7,0.1,1.4,0.2,2.1,0.3c2.9-8.2,3.6-17.3,4.2-25.8
			C1252,812.8,1252.3,806.3,1253.1,799.8z"/>
		<path class="st19" d="M1232.9,813.1c1.2-6.4,2.2-12.8,3-19.2c0.7-5.8,1.6-12,0.8-17.8c-0.1-0.8-1.2-0.7-1.4,0.1
			c-0.9,5.8-0.9,11.7-1.5,17.5c-0.7,6.4-1.8,12.8-3,19.2c-1.1,6.4-2.8,12.3-4.9,18.4c-1,2.9-2,5.7-2.7,8.7c0.5,0.1,1.1,0.2,1.6,0.2
			c1.1-3.7,2.5-7.4,3.9-11C1230.6,823.9,1231.9,818.6,1232.9,813.1z"/>
		<path class="st19" d="M1213.8,791.8c1.4-6.5,3.7-13.1,4.4-19.7c0.1-0.7-0.8-0.8-1.1-0.3c-2.7,5.5-3.7,12.2-5,18.2
			c-1.4,6.6-2.6,13.3-3.7,20c-1.1,6.6-2.2,13.2-3,19.8c-0.4,3-1.1,6.1-1.5,9.1c0.6,0.1,1.1,0.2,1.7,0.2c1.3-9.2,3.1-18.3,4.6-27.4
			C1211.2,805.1,1212.4,798.4,1213.8,791.8z"/>
		<path class="st19" d="M1196.4,800c2.2-7.5,4.9-15,6.7-22.7c1.6-6.5,2.8-12.7,5.5-18.9c0.3-0.6-0.6-1-1-0.5
			c-3.9,4.4-4.7,10.8-5.9,16.3c-1.7,7.9-4.4,15.7-6.7,23.5c-2.1,7.1-4,14.3-5.6,21.5c-0.8,3.9-1.5,7.9-2.3,11.8
			c-0.1,0.6-0.2,1.2-0.3,1.8c0.5,0.3,1,0.6,1.5,0.8c0.8-3.3,1.4-6.6,2.1-9.9C1192,815.9,1194.2,807.9,1196.4,800z"/>
	</g>
	<path class="st16" d="M1227.3,656.1c0,0-5.6,25.7-9.7,65.2c0,0,51.6,10.1,88.9-3.7c0,0-3.5-24-3.4-42.2
		c0.1-18.2-4.4-18.4-17.6-20.8C1272.1,652.2,1227.3,656.1,1227.3,656.1z"/>
	<g>
		<g>
			<path class="st5" d="M1318,781.8c-2-17.9-9.5-42.2-20.4-57.6c4-1.8,11-5.3,11-5.3c-2-5.7-3.2-8.3-3.2-8.3
				c-2.8,2.5-10.1,8.8-14.2,8.8c-3.5-3.5-9.8-14.2-11.1-21.1c-2.5-13.2,0.7-31.3,18.2-40.9l-20.6,0.1c0,0-12.6,16.9-11.5,39.2
				c0,0-23.4,5.7-36.1-1.2c0,0-3.7-22.2,8.1-37.7l-10.5-1c0,0-9.7,17.4-9.8,28.5c-0.2,11.1-4.1,21.1-4.1,21.1s-1.4,13.4,1.5,14.7
				c0,0-14.5,15.7-21.1,41.7c-6.6,26-8.2,49.8-15.8,56.5c0,0,8.7,7.4,29.2,8.5c19,1,37.8,12.4,73.6,1.3c21.4-6.6,32.5,2.6,48.5-6.7
				C1329.6,822.4,1320.2,801.7,1318,781.8z"/>
			<path class="st7" d="M1296.3,723.6c-27,6.9-52.2,11.4-78.5-0.9c-0.5-0.3-1.1,0.5-0.5,0.8c25,14.7,52.9,8.7,79.4,2
				C1298,725.2,1297.5,723.3,1296.3,723.6z"/>
		</g>
		<g>
			<path class="st7" d="M1215.3,753.8c14.4,9.1,36.2,13.9,51.7,6.2c0.4-0.2,0.1-1-0.3-0.8c-17.6,6.6-34.5,0.8-51.4-5.7L1215.3,753.8
				z"/>
			<path class="st7" d="M1214,759.5c-0.8,8.7-3.6,18.4,2.9,25c7.5,7.6,17.2,8.8,26.8,9.3c18.1,1,24.5-15.2,24.9-34
				c0-1.1-1.4-1.3-1.4-0.2c-0.4,15.5-3.6,29-18.2,32.2c-6.1,1.3-13-0.1-19.1-1.4c-8.1-1.7-16.4-7.5-16.1-19.5
				c0.1-3.8,0.9-7.5,0.9-11.3C1214.6,759.1,1214,759,1214,759.5z"/>
		</g>
	</g>
	<g>
		<g>
			<g>
				<path class="st20" d="M1273.8,761.9c-3.2,6.1-7.8,8.1-7.1,15.3c0.4,4,1.2,8,2,11.9c0.7,3.2,4.9,5.3,5.1,8.4
					c0.2,2.7,5.2,2.4,5-0.3c-0.2-2-0.5-4.1-2.6-5.4c-4.3-2.8-4.9-7.3-5.6-11.6c-0.8-4.5-1-8.4,2.8-12c1.9-1.8,2.6-3.7,2.1-6.1
					C1275.4,761.4,1274.2,761.2,1273.8,761.9z"/>
			</g>
			<path class="st1" d="M1296.9,758.6c-6.2,0.9-20,3.1-22,2.6c-3.4-0.9-3.6,2.4-3.3,3.9c0.3,1.5,0.9,4.1,4,2.1
				c1.7-1.1,16.5-1.9,23.1-2.6c1.1-0.1,1.8,1.2,3.6-0.5c1.5-1.4,1-7.1-2.3-6.6C1299.5,757.6,1298.2,758.4,1296.9,758.6z"/>
		</g>
		<g>
			<g>
				<path class="st21" d="M1273.5,793.3c0,0-0.5-2.8,1.2-4.1c1.7-1.3,30.1-4,32.1-2.2c2,1.8,1.3,4.2,1.3,4.2L1273.5,793.3z"/>
				<path class="st21" d="M1274.1,837.6c0,0-0.8,3,2.4,4.3c3.2,1.3,23.8-0.7,31.1-2.2c7.4-1.5,13.3-1.4,12.8-7.5
					C1319.9,826.3,1274.1,837.6,1274.1,837.6z"/>
				<path class="st21" d="M1290.8,789.9c-12.4,0.8-23.6,2.6-26,7.2c-2.4,4.6-0.7,38.8,8.1,41.3c8.9,2.5,47.8-0.8,50.2-7.5
					c2.4-6.6,0.5-35.3-3.8-38.5C1315,789.2,1303.4,789,1290.8,789.9z"/>
				<path class="st21" d="M1267.4,814.2c0,0-6.5,4-9.3-0.5c-3.8-6-1.6-11.7-7.1-16c0,0-2.3,0.4-3.5,2.2c0,0,2.2,0.3,3.6,5.4
					c1,3.8-3,22.9,17.4,20.8C1268.3,826.2,1270.7,820,1267.4,814.2z"/>
				<path class="st21" d="M1320.1,803.1c0,0,2-7.3,8.8-7.5c6.8-0.2,9.2,10,6.8,18.9c-2.4,8.9-10.5,13-14.2,8.2l-0.1-3.7
					c0,0,3.6,4,7.4,1.4c3.8-2.6,5.9-9.2,5.7-13.8c-0.4-6.6-7.9-13.7-13,0.6L1320.1,803.1z"/>
				<g>
					<path class="st21" d="M1302,759.2c4,5.1,8.2,5.6,9.3,12.4c0.6,3.7,1.4,7.2,0.9,11.5c-0.4,3-3.6,5.2-3,8.1
						c0.5,2.5-3.8,3-4.2,0.5c-0.3-1.8-0.5-3.8,0.9-5.3c3-3.2,2.4-7.4,2.1-11.4c-0.4-4.3-1.7-8.2-5.7-10.9c-2-1.4-2.1-2.1-2.2-4.4
						C1299.9,759,1301.5,758.6,1302,759.2z"/>
				</g>
			</g>
			<g>
				<path class="st22" d="M1264.5,815.5c2-0.1,4.2-0.4,5.8-1.7c0.4-0.3-0.1-1-0.5-0.7c-1.6,1-3.4,1.5-5.3,1.9
					C1264.2,815.1,1264.2,815.5,1264.5,815.5z"/>
				<path class="st22" d="M1266.2,826.5c1.6,0.1,4.7,0.1,5.7-1.5l-0.2-0.3c-0.9,0.1-1.7,0.6-2.6,0.8c-0.9,0.2-1.9,0.2-2.8,0.4
					C1265.7,825.9,1265.8,826.5,1266.2,826.5z"/>
				<path class="st22" d="M1272.2,825.3c4.8-2.1,3.2-7.9,0.8-11.2c-0.5-0.7-1.4,0.2-0.9,0.9c2.2,2.9,3.3,7.1-0.3,9.3
					C1271.1,824.7,1271.6,825.5,1272.2,825.3z"/>
				<path class="st22" d="M1304,789.3c-9.9,0.3-19.1,0.2-28.9,2c-0.5,0.1-0.3,0.8,0.2,0.7c9.7-1.7,19-1.6,28.7-2.2
					C1304.3,789.8,1304.4,789.3,1304,789.3z"/>
				<path class="st22" d="M1308.8,790.9c0.1,1.5-1.4,2.9-2.8,2.2c-1.1-0.6-1-2.7-0.6-3.7c0.3-0.6-0.4-1-0.8-0.5
					c-1.2,1.5-0.3,4.3,1.3,5c1.9,0.9,3.7-1.3,3.4-3.1C1309.3,790.5,1308.8,790.6,1308.8,790.9z"/>
				<path class="st22" d="M1319.1,833.3c-5.3,2.8-12.4,3.1-18.3,3.8c-8.2,1-16.5,1.2-24.7,0.6c-0.7-0.1-0.7,1,0,1.1
					c8.4,0.6,16.6,0.3,25-0.5c5.9-0.6,13.3-1,18.5-4.1C1320.2,833.9,1319.7,833,1319.1,833.3z"/>
				<path class="st22" d="M1323.7,821.2c0,1.2-0.3,2.5-0.1,3.6c0,0.4,0.6,0.4,0.7,0c0.3-1.2,0.3-2.5,0-3.7
					C1324.2,820.8,1323.7,820.9,1323.7,821.2z"/>
				<path class="st22" d="M1323.1,803.4c0.2-0.9,0-2-0.3-2.9c-0.2-0.7-1.3-0.5-1.1,0.2c0.2,0.9-0.1,2.3,0.8,2.8
					C1322.7,803.7,1323.1,803.6,1323.1,803.4z"/>
			</g>
			<g>
				<path class="st22" d="M1267.4,811.1c0.2-0.9,0.3-2.1-0.2-3c-0.2-0.3-0.8-0.3-0.9,0.1c-0.2,0.9,0,2,0.3,2.8
					C1266.7,811.5,1267.3,811.6,1267.4,811.1z"/>
				<path class="st22" d="M1267.1,803.8c0.3-0.8,0.3-1.8-0.3-2.5c-0.2-0.3-0.6-0.1-0.7,0.2c-0.1,0.7-0.1,1.6,0.2,2.3
					C1266.5,804.3,1267,804.2,1267.1,803.8z"/>
				<path class="st22" d="M1267.3,799.1c0.6-0.5,1.1-1,1.7-1.5c0.3-0.3,0-0.7-0.4-0.7c-0.9,0.2-1.5,1-1.9,1.6
					C1266.4,798.9,1266.9,799.4,1267.3,799.1z"/>
				<path class="st22" d="M1270.1,808.6c0.1-1,0.3-2.8-0.4-3.6l-0.5,0c-0.6,0.9-0.3,2.7-0.1,3.7
					C1269.2,809.2,1270.1,809.1,1270.1,808.6z"/>
			</g>
			<g>
				<path class="st23" d="M1314.3,795.1c0.6,12.2,2.6,24.3,1.6,36.6c-0.1,0.9,1.3,0.9,1.3,0.1c0.6-12.3-0.7-24.5-2.4-36.7
					C1314.8,794.7,1314.3,794.8,1314.3,795.1z"/>
				<path class="st23" d="M1311.2,814.8c0,5.7-0.9,11.4-0.4,17c0.1,0.9,1.5,1.1,1.5,0.1c0-5.7,0.5-11.5-0.3-17.2
					C1311.8,814.4,1311.1,814.4,1311.2,814.8z"/>
			</g>
		</g>
	</g>
	<g>
		<path class="st15" d="M1291.5,681.8c0,0,6.7,13.1,0.5,32.4c-4,12.4-14,30-10.5,34.5c1.4,1.8,13.8,5.3,18.4,5.1
			c6.2-0.3,15.7-15.1,20.6-30.9c5-16.1-0.1-42-5-50.8C1307.5,657.9,1303.1,677.8,1291.5,681.8z"/>
		<g>
			<path class="st24" d="M1288.2,737.2c-0.1,0.4-0.8,0.4-0.8-0.1c0-1.3,0.5-2.6,1.2-3.7c0.4-0.5,1.3-0.1,0.9,0.5
				C1289,735,1288.6,736.1,1288.2,737.2z"/>
			<path class="st24" d="M1291,728.6c0.3-1.2,0.8-2.7,1.7-3.6c0.4-0.4,1,0,0.9,0.5c-0.3,1.2-1.1,2.4-1.6,3.5
				C1291.7,729.5,1290.8,729.1,1291,728.6z"/>
			<path class="st24" d="M1296.1,734.2c-0.2,0.4-0.7,0.2-0.7-0.2c0-0.9,0.2-2.5,1.2-2.8c0.2,0,0.4,0.1,0.5,0.3
				C1297.4,732.3,1296.5,733.5,1296.1,734.2z"/>
		</g>
	</g>
	<g>
		<path class="st8" d="M1262.3,680.1c0,0-16.3,16.1-34.7,11.6c-18.4-4.5-22.8-13.5-22.8-13.5s9.5-7.5,12.5-16.2
			C1220.3,653.5,1251,637.1,1262.3,680.1z"/>
		<path class="st8" d="M1239,665.7c0,0,5.9,30.2,35.4,30.5c29.5,0.3,29.8-7.9,53-8.7c0,0-9.2-27.8-23.8-32.1
			C1292.2,652.1,1247.1,652.9,1239,665.7z"/>
		<path class="st8" d="M1244.3,670.2c0,0-11.8,24.1-13.1,33.7c-1.3,9.6-1.5,16,0.9,18.5c3.6,3.7,15.3-7.2,18.1-16.2
			c5.6-18.5,1.2-36.6,1.4-41.1C1251.8,660.6,1247.1,659.1,1244.3,670.2z"/>
		<path class="st8" d="M1249.7,668.8c0,0-1.6,18.6,2,28.2c2.3,6.2,6.3,18.5,10,22.8c4.7,5.5,9.9,8.8,11.4,8.5
			c3.6-0.7,6.8-17.2-0.6-28.9C1267.9,692.1,1261.4,671.9,1249.7,668.8z"/>
		<g>
			<path class="st9" d="M1252.5,697.2c-4.9-12.8-3.3-24,1.5-36.7c0.3-0.8-0.9-1.1-1.2-0.4c-5.4,12.3-6.9,25.2-1,37.5
				C1252,698.1,1252.7,697.7,1252.5,697.2z"/>
			<path class="st9" d="M1234.9,692.3c1.4-5,5-9.3,7.4-13.8c2.5-4.7,5.1-10.7,6-16c0.1-0.5-0.6-0.7-0.8-0.2c-1.8,6-4.3,12.6-7.4,18
				c-2.1,3.7-5.2,7.5-6.1,11.8C1233.9,692.6,1234.7,692.8,1234.9,692.3z"/>
			<path class="st9" d="M1270.5,695.6c-1.5-7.9-7.3-15.2-10.8-22.4c-0.3-0.5-1-0.2-0.9,0.3c0.7,3.8,3,7.2,4.9,10.4
				c2.3,3.8,4.4,7.7,6,11.9C1270,696.3,1270.6,696,1270.5,695.6z"/>
			<path class="st9" d="M1255.7,674.4c0.2,5.1,1.3,10.4,3.6,14.9c0.2,0.4,0.9,0.2,0.8-0.3c-1.5-5-3.2-9.4-3.7-14.7
				C1256.3,674,1255.6,674.1,1255.7,674.4z"/>
		</g>
	</g>
	<g>
		<g>
			<g>
				<g>
					<path class="st1" d="M1274.3,574.4c-8.8-1.8-20-2-28.6,1.1c-7.5,2.6-13,9.4-18,15.7c-5.3,6.5-10.2,17.8-7.1,26.1
						c2.3,6.4,4.3,7.5,11,6.6c4.7-0.7,9-2.5,13.7-3.4c5.8-1.2,11.9-1.6,17.8-1.1c8.3,0.6,17.1,2.5,24.4,6.8c2.3,1.3,3.6,3.8,6,4.9
						c4.8,2.2,8.3-4.5,9.6-7.7C1313.9,596.7,1289.2,577.4,1274.3,574.4z"/>
					<g>
						<g>
							<g>
								<g>
									<g>
										<path class="st6" d="M1278,654.4c-16.5,6-46.9,0.5-54.1-16.5c-7.1-16.6-3.3-35.2,11.3-45.5c19.3-13.6,50.1-10,60.1,12.8
											C1303.2,623.5,1298,646.7,1278,654.4z"/>
									</g>
								</g>
								<g>
									<g>
										<path class="st14" d="M1296.4,638.7c0.1,8.9-6.5,10.9-14.3,9.4c-6.8-1.4-9.7-6-8.8-12.8c0.5-3.7,3.1-6.9,6.7-8.1
											C1288.5,624.3,1296.3,629.8,1296.4,638.7z"/>
										<path d="M1270,617.6c0,1.3,0.2,3.3-1.8,3.3c-2.1,0-1.7-2.8-1.5-3.8c0.1-0.5,0.5-1,1-1.2
											C1268.9,615.4,1270,616.3,1270,617.6z"/>
										<path d="M1242.3,615.1c-0.2,1.3-0.6,3.2,1.4,3.5c2,0.3,2-2.6,2-3.6c0-0.6-0.3-1.1-0.8-1.3
											C1243.7,613.1,1242.5,613.8,1242.3,615.1z"/>
										<path class="st14" d="M1218.6,629.2c0.8,3.1,1.1,4.3,1.9,6.3c1.3,3.3,2.6,6.3,7.3,7.3c6.5,1.3,10.8-1.7,12.6-8.1
											c1-3.5-0.2-7.3-2.9-9.7C1230.9,619.2,1222,621.3,1218.6,629.2z"/>
									</g>
									<g>
										<path class="st25" d="M1254.9,619.6c-0.7,2.1-1.5,3.9-2.3,5.2s-2.4,1.9-2.8,4c-0.5,2.6,2.2,4.6,4.6,3.5
											c0.7-0.3,0.7-1.5-0.1-1.6c-1.1-0.1-2.5,0.1-2.7-1.3c-0.2-1.5,1.4-2.2,2.2-3.6c0.8-1.3,1.9-3.6,2.1-6.1
											C1255.9,619.4,1255.1,619,1254.9,619.6z"/>
										<path class="st25" d="M1101.5,612.3c-0.7,2.1-1.5,3.9-2.3,5.2c-0.8,1.3-2.4,1.9-2.8,4c-0.5,2.6,2.2,4.6,4.6,3.5
											c0.7-0.3,0.7-1.5-0.1-1.6c-1.1-0.1-2.5,0.1-2.7-1.3c-0.2-1.5,1.4-2.2,2.2-3.6s1.9-3.6,2.1-6.1
											C1102.5,612.1,1101.7,611.7,1101.5,612.3z"/>
									</g>
								</g>
							</g>
						</g>
					</g>
				</g>
			</g>
			<path class="st1" d="M1217.7,611.6c0,0,11.2-2.2,20.3-18.5c0,0-2.2,8.6-0.8,12c1.4,3.4,4.1,4.9,4.8,3.1c0.7-1.8-0.4-8.8,1.6-14.5
				c0,0-0.5,8.4,1.3,13c1.8,4.7,4,6.8,5.7,5.1c1.7-1.7-1-8,1.6-15.1c0,0,1,9,3.9,13.7c2.5,4.1,6,4.6,5.4-3.1
				c-0.1-1.2-0.5-7.5-0.7-9.1c0,0,2.1,6.6,2.9,8.7c1,2.5,2.1,6,4.3,5.7c4-0.5,0.9-14.4,0.9-14.4s5.1,14.8,9.2,12.7
				c4.1-2.2-1.8-18.3-1.8-18.3s12.7,22.8,24.9,18.6c9.4-3.3-16-28.8-24.8-30.5C1249.7,575.5,1224.9,588.6,1217.7,611.6z"/>
			<g>
				<path class="st17" d="M1247.4,621.4c-0.4,0-0.8,0.3-0.8,0.6c0,0.3,0,0.5,0.2,0.7c0.3,0.2,0.7,0.4,1,0.1c0.3-0.3,0.3-0.5,0.3-0.9
					C1248,621.7,1247.7,621.5,1247.4,621.4z"/>
				<path class="st17" d="M1251.4,620.1c-0.2-0.2-0.6-0.2-0.8,0c-0.2,0.1-0.3,0.3-0.4,0.5c0,0.3,0.1,0.5,0.4,0.7
					c0.4,0.3,1.1,0,1.1-0.5C1251.7,620.5,1251.6,620.2,1251.4,620.1z"/>
				<path class="st17" d="M1241,620.6c-0.3,0-0.6,0.1-0.8,0.4c-0.2,0.3-0.2,0.6-0.1,0.9c0,0.1,0.1,0.2,0.1,0.2
					c0.3,0.3,0.8,0.4,1.2,0.1c0.1-0.1,0.2-0.2,0.3-0.4C1241.9,621.3,1241.5,620.7,1241,620.6z"/>
				<path class="st17" d="M1244.7,624.4c-0.6,0-1.1,0.3-1.1,0.9c0,0.5,0.4,1.1,0.9,1.1c0.6,0,1.1-0.3,1.1-0.9
					C1245.7,625,1245.2,624.4,1244.7,624.4z"/>
				<path class="st17" d="M1261.7,620.9c-0.4-0.1-0.8,0-1.1,0.3c-0.2,0.3-0.2,0.6-0.1,0.9c0.1,0.4,0.4,0.7,0.8,0.7
					c0.6,0.1,1.1-0.5,1-1.1C1262.3,621.4,1262,621,1261.7,620.9z"/>
				<path class="st17" d="M1259.3,624c-0.3-0.1-0.5-0.2-0.8-0.2c-0.4,0.1-0.8,0.4-0.8,0.9c0,0.4,0.2,0.9,0.6,1
					c0.3,0.1,0.6,0.1,0.9,0c0.3-0.2,0.5-0.4,0.6-0.8C1259.8,624.6,1259.6,624.2,1259.3,624z"/>
				<path class="st17" d="M1269.7,627.3c-0.5-0.8-1.8-0.7-1.9,0.3c-0.1,1,1.3,1.5,1.8,0.7l0-0.1
					C1269.8,628,1269.9,627.6,1269.7,627.3L1269.7,627.3z"/>
				<path class="st17" d="M1265.5,623.4c-0.5,0-1.1,0.4-1.1,0.9v0.1c0,0.6,0.3,1.1,0.9,1.1c0.5,0,1.1-0.4,1.1-0.9v-0.1
					C1266.4,623.9,1266.1,623.4,1265.5,623.4z"/>
				<path class="st17" d="M1273.5,624c-0.6,0-1.1,0.4-1.2,1c-0.1,0.6,0.4,1.2,1,1.2c0.6,0,1.1-0.4,1.2-1
					C1274.5,624.6,1274.1,624,1273.5,624z"/>
			</g>
		</g>
		<g>
			<g>
				<path class="st26" d="M1255.5,657c-2.4-0.2-2.5-1.3-0.8-2.4c0,0,20.2,1,30.8-8.5c10.5-9.5,10.1-26.2,5.3-37.8
					c-4.8-11.6-17-25.8-32.8-26.6c-15.8-0.8-25.8,15.4-29.9,27.8c-7.9,24,12.2,44,24.7,44.7c0,0,1.1,2-2.4,2.1
					c-2.4,0.1-8.1-0.3-13.9-3c-10.7-5.1-16.6-13-19.6-27c-3.6-17,6.7-40.8,20.4-51.2c7.5-5.7,15.3-7.2,23.5-8.5
					c14.8-2.3,43.9,4.5,47.3,6.8c2.4,1.6,0.4,8.7-4.2,16c1.1,5.5,3,13,4.6,22.4c2.9,17.8-1.2,29-10.8,36.2
					C1286.7,656.2,1272.4,658,1255.5,657z"/>
				<path class="st26" d="M1242.6,665.7c4.3-2.1,8.8-1.5,10.4-6.2c1.1-3.4-2.7-4-2.7-4s1.7-2.4-3.3-1.5c-4.4,0.8-10,9.7-9.1,13.9
					C1238.1,669.1,1239.4,667.2,1242.6,665.7z"/>
				<path class="st26" d="M1266,664.7c-2.5-4.1-2.2-8.6-7-9.8c-3.4-0.9-3.8,3-3.8,3s-2.6-1.5-1.3,3.4c1.1,4.3,10.5,9.2,14.6,7.9
					C1269.7,668.8,1267.8,667.7,1266,664.7z"/>
				<g>
					<path class="st12" d="M1248.1,659.5c-0.6,0.6-1.3,1-2.1,1.3c-1.1,0.3-0.5-0.9-0.2-1.3c0.3-0.4,0.8-0.7,1.2-1
						c1.6-1.1,3.5-1.1,5.2-1.7c0.2-0.1,0.1-0.3-0.1-0.4c-2.5-0.1-6.8,1.4-7.6,4c-0.2,0.6,0.4,0.9,0.9,0.9c1,0,2.1-0.8,2.7-1.6
						C1248.4,659.5,1248.2,659.3,1248.1,659.5z"/>
					<path class="st12" d="M1256.9,660.9c-0.1,0.6,0,1.3,0.6,1.6c0.5,0.3,1.1-0.1,1.3-0.6c1-2.2-1.6-4.2-3.3-4.9
						c-0.5-0.2-0.8,0.5-0.3,0.7c1.3,0.5,2.8,1.4,3.2,2.9c0.1,0.4,0.1,1.4-0.4,1.4c-0.5,0-0.7-0.8-0.8-1.1
						C1257.2,660.7,1256.9,660.7,1256.9,660.9z"/>
				</g>
				<path class="st26" d="M1254.2,660.1c-1.8,1.5-4-1.8-3.6-4.5c0.4-3,2.9-2.5,4.4-1.7C1256.4,654.7,1255.9,658.7,1254.2,660.1z"/>
				<g>
					<path class="st12" d="M1277.3,653.9c-5,1.1-10,1.5-15.1,1.8c-0.4,0-0.3,0.7,0.1,0.7c5.1-0.1,10.1-0.8,15-1.9
						C1277.6,654.3,1277.6,653.8,1277.3,653.9z"/>
					<path class="st12" d="M1232.5,649.3c3.7,3.1,8.3,4.8,13.1,5.2c0.3,0,0.4-0.5,0.1-0.5c-4.7-0.5-9.2-1.9-12.9-5
						C1232.6,648.8,1232.3,649.2,1232.5,649.3z"/>
				</g>
				<g>
					<path class="st12" d="M1293.6,640.7c8.2-14.8,5.7-33.5-0.1-48.7c-0.3-0.7-1.3-0.2-1,0.4c5.8,15.3,8,32.9,0.6,48.1
						C1293,640.8,1293.4,640.9,1293.6,640.7z"/>
					<path class="st12" d="M1230.5,638.3c-5.4-7.9-8.6-16.7-7.3-26.2c1.2-8.5,5.9-18,12-24c0.5-0.5-0.2-1.3-0.7-0.8
						c-13.5,13.5-17.5,36.3-4.4,51.4C1230.4,638.8,1230.7,638.5,1230.5,638.3z"/>
				</g>
			</g>
			<g>
				<path class="st12" d="M1248.1,574c-1.5-0.3-3.2,0.9-4.4,1.6c-0.4,0.2-0.2,0.9,0.3,0.7c0.7-0.3,1.4-0.6,2-0.8
					c0.7-0.3,1.5-0.3,2.2-0.6C1248.6,574.6,1248.5,574,1248.1,574z"/>
				<path class="st12" d="M1253,572.6c-0.6-0.1-1.2,0.1-1.8,0.4c-0.4,0.2-0.2,0.8,0.2,0.8c0.6,0,1.3-0.1,1.7-0.5
					C1253.4,573,1253.3,572.6,1253,572.6z"/>
				<path class="st12" d="M1258.6,570.9c-0.7,0.2-1.4,0.3-2.1,0.6c-0.5,0.2-0.3,0.9,0.2,0.8c0.7,0,1.3-0.2,2-0.3
					c0.6-0.1,1.2-0.1,1.7-0.5c0.2-0.2,0.3-0.7-0.1-0.8C1259.8,570.5,1259.2,570.7,1258.6,570.9z"/>
				<path class="st12" d="M1267.7,569.5c-0.6-0.5-1.6-0.1-2.3,0c-0.4,0-0.5,0.7-0.1,0.8c0.7,0.2,2,0.6,2.5-0.2
					C1267.9,569.9,1267.9,569.6,1267.7,569.5z"/>
				<path class="st12" d="M1252.1,575.3c-0.6,0-1.2,0.2-1.8,0.5c-0.4,0.2-0.4,0.9,0.1,0.9c0.6,0,1.3,0,1.8-0.3
					C1252.6,576.2,1252.7,575.3,1252.1,575.3z"/>
			</g>
			<g>
				<path class="st12" d="M1305.3,596.2c-1.9-6.8-5.5-16.2-11.4-20.6c-0.5-0.4-1.1,0.4-0.6,0.8c5.9,4.4,9.3,13.2,11.6,19.9
					C1305.2,597.3,1305.3,596.5,1305.3,596.2z"/>
			</g>
		</g>
	</g>
	<path class="st16" d="M1282,751.8c0,0-2.2-3.3-0.3-6.7c1.9-3.3,10-4.2,14.4-2.5c4.4,1.7,9.4,10.5,2.8,12.7
		C1292.2,757.6,1282,751.8,1282,751.8z"/>
	<path class="st27" d="M1298.3,758.4l-2.1,4.1c3.3,3.1-0.5,5.8-3.5,3.4c-0.9,3.6-4.1,2.8-5.9,0.5c-1.2,3.7-4.5,2.1-5.9-0.2
		c-2.4,4.4-5.8-0.4-6.6-3.9c-1.7-8.1,7.1-16.1,10.8-16.1c3.7,0,9.2-0.2,12.2,2.5C1300.2,751.1,1302.1,755.5,1298.3,758.4z"/>
</g>
<g>
	<g>
		<g>
			<path class="st17" d="M403.2,544.6c6.1,43.2,11.9,90.6,17.2,134c3.4,33.2,15,111.7,17,125.9c1.2,8.8-7.5,19.3,11,17.5
				c15.6-2.5,6,10.3,9.3-1.5c2.2-7.9-2.4-9.7-1.8-16.1c3.2-32,5.7-75.8,5.7-93.9c0.2-55.3,3.6-113.4,6.2-168.7
				C469.1,494.9,398,497.8,403.2,544.6z"/>
		</g>
		<g>
			<path class="st17" d="M342.4,533.6c-1.4,63.9-0.2,127.2-6.9,190.8c-1.4,23.7-3.5,52.4-4.2,76.3c-0.2,5.4-3.1,8-3.2,13.3
				c-0.6,12.8,19,15.4,21.8,2.9c1.5-6-0.8-6.4,0.6-12.4c0.9-3.7,6.8-27.6,7.6-31.3c18.4-81.7,29.6-150.8,48.5-232.3
				C415.2,494.6,344.5,486.5,342.4,533.6z"/>
		</g>
		<path class="st28" d="M450.5,821.4c-0.7,0.3-1.4,0.5-2.2,0.6c-2,0.2-3.7,0-5.2-0.6H450.5z"/>
		<path class="st29" d="M329.3,793.7c0.7-17.9,1.7-49.9,2.8-67.7c6.6-63.5,7.4-128.5,12-192.2c2.1-29.7,5.8-56.3,5.8-56.3h109.7
			c3.6,8.6,5.1,17.8,6.5,31.2c0.3,2.4,1.7,6.2,1.9,8.7c0.7,8.4,0.7,18.3,0.8,27.7c0.8,57.1-7.1,128.6-7.2,165.4
			c0,22.1-1.9,83.1-2,83.7c0,0-25.5-0.3-25.5-0.5c-3.7-46.8-11.5-81.9-14.9-115.2c-4.4-36.4-8.4-75.7-13.1-112.9l-4.9-0.1
			c-16,73.5-30.5,157.1-46.2,228.2H329.3z"/>
		<path d="M434.6,699.7c-1.2-11.2-19.3-121.2-28.6-134c4.5,36,8.9,77.8,13.1,112.9c3.4,33.2,11.2,68.4,14.9,115.2
			c0,0.1,1.5,0.3,9.1,0.4C440.8,785.1,435.6,708.9,434.6,699.7z"/>
		<path d="M338.6,731.4c4.8-31,12-61.7,14.7-93c1.4-15.5,1.7-105.3,6.7-112.8c0,0,44.9,0.9,57.5,0c14.3-1,36.4-8.3,48.8-15.3
			c-1.4-13.1-3.8-24.3-7.3-32.7H349.3c0,0-1.9,12.6-4.2,31c-0.3,2.8-1.4,3.4-2.3,9.6c-0.9,6.1-1.2,9.8-1.6,15.2
			c-4.6,63.7-3.1,129.2-9.7,192.8c-1.1,17.7-2,49.8-2.8,67.7h3.2C332.9,772.9,335.4,752.1,338.6,731.4z"/>
		<g>
			<g>
				<path class="st30" d="M435.1,849.8h37.4c0-2.6,0-5.3-0.1-5.9c-0.4-1.1-6.9-10.7-8.4-12.2c-1.1-1.1-2.6-9.6-3.3-14
					c-0.2-1.5-1.6-2.7-3.1-2.7h-19.8c-1.8,0-3.2,1.5-3.2,3.2l0.5,26.4V849.8z"/>
			</g>
			<g>
				<path class="st11" d="M473.4,845.8c0.1,2.2,0,5.6-0.1,7.6c0,0.9-0.8,1.6-1.7,1.6h-35.7c-1,0-1.7-0.8-1.7-1.7l0-7.5
					c0-0.9,0.8-1.7,1.7-1.7c0,0,2.7,0.9,17.9,1.3c13.6,0.4,17.9-1.3,17.9-1.3C472.6,844.1,473.4,844.9,473.4,845.8z"/>
			</g>
			<g>
				<path class="st31" d="M458.8,835.8l-2.9-20.8c0,0-0.7-6.5-9.4-6.5c-6.5,0-8.2,6.5-8.2,6.5l3.9,21.4c0,0,3.8-1.4,9.1-1.4
					C457,835,458.8,835.8,458.8,835.8z"/>
			</g>
			<g>
				<g>
					<circle class="st18" cx="457.7" cy="820.5" r="1.1"/>
				</g>
				<g>
					<circle class="st18" cx="438.5" cy="821.6" r="1.1"/>
				</g>
				<g>
					<path class="st30" d="M458,820.1c-1.6-0.8-3.2-1.3-4.9-1.6c-1.7-0.3-3.5-0.4-5.2-0.3c-1.7,0.1-3.5,0.4-5.1,0.9
						c-1.7,0.5-3.2,1.3-4.7,2.1c-0.2,0.1-0.3,0.4-0.2,0.7c0.1,0.2,0.3,0.3,0.6,0.2l0,0c1.6-0.5,3.1-1,4.7-1.3
						c1.6-0.4,3.2-0.6,4.8-0.7c1.6-0.1,3.2-0.1,4.8,0.1c1.6,0.1,3.2,0.4,4.8,0.8l0,0c0.2,0.1,0.5-0.1,0.6-0.3
						C458.3,820.4,458.2,820.2,458,820.1z"/>
				</g>
			</g>
			<g>
				<g>
					<path class="st18" d="M457.3,825.1c0,0.6,0.5,1.1,1.1,1.1c0.6,0,1.1-0.5,1.1-1.1s-0.5-1.1-1.1-1.1
						C457.8,824,457.3,824.5,457.3,825.1z"/>
				</g>
				<g>
					<circle class="st18" cx="439.3" cy="826.2" r="1.1"/>
				</g>
				<g>
					<path class="st30" d="M458.8,824.7c-1.6-0.8-3.2-1.3-4.9-1.6c-1.7-0.3-3.5-0.4-5.2-0.3c-1.7,0.1-3.5,0.4-5.1,0.9
						c-1.7,0.5-3.2,1.3-4.7,2.1c-0.2,0.1-0.3,0.4-0.2,0.7c0.1,0.2,0.3,0.3,0.6,0.2l0,0c1.6-0.5,3.1-1,4.7-1.3
						c1.6-0.4,3.2-0.6,4.8-0.7c1.6-0.1,3.2-0.1,4.8,0.1c1.6,0.1,3.2,0.4,4.8,0.8l0,0c0.2,0.1,0.5-0.1,0.6-0.3
						C459.1,825,459,824.8,458.8,824.7z"/>
				</g>
			</g>
			<g>
				<g>
					<circle class="st18" cx="459.3" cy="829.6" r="1.1"/>
				</g>
				<g>
					<circle class="st18" cx="440.1" cy="830.8" r="1.1"/>
				</g>
				<g>
					<path class="st30" d="M459.6,829.2c-1.6-0.8-3.2-1.3-4.9-1.6c-1.7-0.3-3.5-0.4-5.2-0.3c-1.7,0.1-3.5,0.4-5.1,0.9
						c-1.7,0.5-3.2,1.3-4.7,2.1c-0.2,0.1-0.3,0.4-0.2,0.7c0.1,0.2,0.3,0.3,0.6,0.2l0,0c1.6-0.5,3.1-1,4.7-1.3
						c1.6-0.4,3.2-0.6,4.8-0.7c1.6-0.1,3.2-0.1,4.8,0.1c1.6,0.1,3.2,0.4,4.8,0.8l0,0c0.2,0.1,0.5-0.1,0.6-0.3
						C459.9,829.5,459.8,829.3,459.6,829.2z"/>
				</g>
			</g>
			<g>
				<g>
					<circle class="st18" cx="460.1" cy="834.2" r="1.1"/>
				</g>
				<g>
					<circle class="st18" cx="440.9" cy="835.3" r="1.1"/>
				</g>
				<g>
					<path class="st30" d="M460.5,833.8c-1.6-0.8-3.2-1.3-4.9-1.6c-1.7-0.3-3.5-0.4-5.2-0.3c-1.7,0.1-3.5,0.4-5.1,0.9
						c-1.7,0.5-3.2,1.3-4.7,2.1c-0.2,0.1-0.3,0.4-0.2,0.7c0.1,0.2,0.3,0.3,0.6,0.2l0,0c1.6-0.5,3.1-1,4.7-1.3
						c1.6-0.4,3.2-0.6,4.8-0.7c1.6-0.1,3.2-0.1,4.8,0.1c1.6,0.1,3.2,0.4,4.8,0.8l0,0c0.2,0.1,0.5-0.1,0.6-0.3
						C460.7,834.1,460.6,833.9,460.5,833.8z"/>
				</g>
			</g>
		</g>
		<g>
			<g>
				<path class="st30" d="M352.9,849.8v-7.6l0.5-26.4c0-1.8-1.4-3.2-3.2-3.2h-19.8c-1.6,0-2.9,1.1-3.1,2.7c-0.7,4.4-2.2,12.9-3.3,14
					c-1.5,1.5-8,11.1-8.4,12.2c-0.2,0.7-0.2,5.3-0.1,8.3H352.9z"/>
			</g>
			<g>
				<path class="st11" d="M314.6,843.3c-0.1,2.2,0,5.6,0.1,7.6c0,0.9,0.8,1.6,1.7,1.6h35.7c1,0,1.7-0.8,1.7-1.7l0-7.5
					c0-0.9-0.8-1.7-1.7-1.7c0,0-2.7,0.9-17.9,1.3c-13.6,0.4-17.9-1.3-17.9-1.3C315.4,841.7,314.6,842.4,314.6,843.3z"/>
			</g>
			<g>
				<path class="st31" d="M329.2,833.4l2.9-20.8c0,0,0.7-6.5,9.4-6.5c6.5,0,8.2,6.5,8.2,6.5l-3.9,21.4c0,0-3.8-1.4-9.1-1.4
					C331,832.6,329.2,833.4,329.2,833.4z"/>
			</g>
			<g>
				<g>
					<circle class="st18" cx="330.3" cy="818.1" r="1.1"/>
				</g>
				<g>
					<circle class="st18" cx="349.5" cy="819.2" r="1.1"/>
				</g>
				<g>
					<path class="st30" d="M329.9,817.7c1.6-0.8,3.2-1.3,4.9-1.6c1.7-0.3,3.5-0.4,5.2-0.3c1.7,0.1,3.5,0.4,5.1,0.9
						c1.7,0.5,3.2,1.3,4.7,2.1c0.2,0.1,0.3,0.4,0.2,0.7c-0.1,0.2-0.3,0.3-0.6,0.2l0,0c-1.6-0.5-3.1-1-4.7-1.3
						c-1.6-0.4-3.2-0.6-4.8-0.7c-1.6-0.1-3.2-0.1-4.8,0.1c-1.6,0.1-3.2,0.4-4.8,0.8l0,0c-0.2,0.1-0.5-0.1-0.6-0.3
						C329.6,818,329.7,817.8,329.9,817.7z"/>
				</g>
			</g>
			<g>
				<g>
					<circle class="st18" cx="329.5" cy="822.6" r="1.1"/>
				</g>
				<g>
					<circle class="st18" cx="348.7" cy="823.8" r="1.1"/>
				</g>
				<g>
					<path class="st30" d="M329.1,822.2c1.6-0.8,3.2-1.3,4.9-1.6c1.7-0.3,3.5-0.4,5.2-0.3c1.7,0.1,3.5,0.4,5.1,0.9
						c1.7,0.5,3.2,1.3,4.7,2.1c0.2,0.1,0.3,0.4,0.2,0.7c-0.1,0.2-0.3,0.3-0.6,0.2l0,0c-1.6-0.5-3.1-1-4.7-1.3
						c-1.6-0.4-3.2-0.6-4.8-0.7c-1.6-0.1-3.2-0.1-4.8,0.1c-1.6,0.1-3.2,0.4-4.8,0.8l0,0c-0.2,0.1-0.5-0.1-0.6-0.3
						C328.8,822.5,328.9,822.3,329.1,822.2z"/>
				</g>
			</g>
			<g>
				<g>
					<circle class="st18" cx="328.7" cy="827.2" r="1.1"/>
				</g>
				<g>
					<circle class="st18" cx="347.9" cy="828.3" r="1.1"/>
				</g>
				<g>
					<path class="st30" d="M328.3,826.8c1.6-0.8,3.2-1.3,4.9-1.6c1.7-0.3,3.5-0.4,5.2-0.3c1.7,0.1,3.5,0.4,5.1,0.9
						c1.7,0.5,3.2,1.3,4.7,2.1c0.2,0.1,0.3,0.4,0.2,0.7c-0.1,0.2-0.3,0.3-0.6,0.2l0,0c-1.6-0.5-3.1-1-4.7-1.3
						c-1.6-0.4-3.2-0.6-4.8-0.7c-1.6-0.1-3.2-0.1-4.8,0.1c-1.6,0.1-3.2,0.4-4.8,0.8l0,0c-0.2,0.1-0.5-0.1-0.6-0.3
						C328,827.1,328.1,826.9,328.3,826.8z"/>
				</g>
			</g>
			<g>
				<g>
					<path class="st18" d="M329,831.8c0,0.6-0.5,1.1-1.1,1.1c-0.6,0-1.1-0.5-1.1-1.1s0.5-1.1,1.1-1.1
						C328.5,830.6,329,831.1,329,831.8z"/>
				</g>
				<g>
					<circle class="st18" cx="347.1" cy="832.9" r="1.1"/>
				</g>
				<g>
					<path class="st30" d="M327.5,831.3c1.6-0.8,3.2-1.3,4.9-1.6c1.7-0.3,3.5-0.4,5.2-0.3c1.7,0.1,3.5,0.4,5.1,0.9
						c1.7,0.5,3.2,1.3,4.7,2.1c0.2,0.1,0.3,0.4,0.2,0.7c-0.1,0.2-0.3,0.3-0.6,0.2l0,0c-1.6-0.5-3.1-1-4.7-1.3
						c-1.6-0.4-3.2-0.6-4.8-0.7c-1.6-0.1-3.2-0.1-4.8,0.1c-1.6,0.1-3.2,0.4-4.8,0.8l0,0c-0.2,0.1-0.5-0.1-0.6-0.3
						C327.2,831.7,327.3,831.4,327.5,831.3z"/>
				</g>
			</g>
		</g>
		<g>
			<g>
				<path class="st17" d="M469.3,167.3c0.3,7.9,0.6,16,0.8,24c0.2,8,0.4,16,0.5,23.9c0.1,7.9,0.1,15.8-0.1,23.5
					c-0.1,3.8-0.3,7.6-0.8,10.8l-0.2,1.2l-0.2,1c-0.2,0.7-0.2,0.4-0.5,1.7l-1.5,5.6c-2.1,7.4-4.4,14.7-6.9,22
					c-2.6,7.3-5.3,14.4-8.3,21.6c-2.9,7.1-6.1,14.1-9.5,21.1c-3.3,7-6.8,13.8-10.4,20.6l-0.1,0.2c-4.9,9.2-1.4,20.7,7.9,25.6
					c9.2,4.9,20.7,1.4,25.6-7.9c0.2-0.4,0.4-0.8,0.5-1.1c3.4-7.6,6.8-15.3,9.8-23.1c3.1-7.8,5.9-15.7,8.4-23.7
					c5.2-15.9,9.3-32.3,12.3-48.8l1.1-6.2c0.1-0.7,0.5-3,0.5-4.2l0.1-2l0-1.8c0-4.8-0.3-9-0.6-13.3c-0.7-8.4-1.7-16.5-2.8-24.6
					c-1.1-8.1-2.4-16.1-3.7-24.1c-1.4-8-2.8-16-4.3-24c-0.9-4.9-5.6-8.1-10.4-7.1C472.2,159,469.1,162.9,469.3,167.3L469.3,167.3z"
					/>
			</g>
			<g>
				<path class="st25" d="M470.1,191.3c0,1,0.1,2.1,0.1,3.1c0,0,0.1,0,0.1,0c1.8-0.6,5.8-1.6,6.9-3.5c0.8-1.3-0.2-4.7-0.3-6.3
					c-0.4-8.5-0.6-19,5.5-25.7c-1.7-0.9-3.7-1.2-5.8-0.9c-4.4,0.8-7.5,4.8-7.3,9.2l0,0.1C469.6,175.3,469.9,183.3,470.1,191.3z"/>
			</g>
			<g>
				<path class="st5" d="M423.8,344.3c15.7-29.3,33.7-57.9,41.9-90.2c2.5-20.8,3.3-45.1,3-66.2c7-0.2,16.4-0.5,23.4-0.9
					c3.4,25.8,11.6,54.2,8.1,73.5c-6.2,33.4-17.1,74.7-43.9,119.9C443.7,401.9,411.9,366.3,423.8,344.3z"/>
			</g>
			<g>
				<g>
					<path class="st17" d="M325.8,170.6l13.6,4.6c0,0,15-10.7,4.8-24.4c-9-12.1-21.4-13.5-21.4-13.5l-4.6,6.5c0,0-1.7,4,0.4,9.1
						C322.6,162.6,325.8,170.6,325.8,170.6z"/>
				</g>
			</g>
			<g>
				<g>
					<path class="st17" d="M469.7,172.4h10.9l5.4-1.8c0,0,3.8-8.3,7.7-18c2-5-0.1-8.7-0.1-8.7l-4.6-6.7c0,0-12.4,1.4-21.4,13.5
						c-7.1,9.6-2,17.7,1.8,21.7C469.4,172.5,469.5,172.4,469.7,172.4z"/>
				</g>
			</g>
			<g>
				<g>
					<path class="st25" d="M480,153.4c0-0.8,7.6-3.9,7.8-4.5c-0.7-0.2-8.7-2.2-9.3-2.4c-1.7-0.7-2.7-1.9-3.3-3.3
						c-2.6,1.9-5.3,4.4-7.7,7.6c-7.5,10.1-1.3,18.6,2.4,22.3c3,0,6.1-0.1,9.1-0.2l1.3-0.1C480,165,480,161.2,480,153.4z"/>
				</g>
			</g>
			<g>
				<path class="st17" d="M324.7,165.3c-1.5,8-2.9,16-4.3,24c-1.3,8-2.6,16-3.7,24.1c-1.1,8.1-2.1,26-2.8,34.4
					c-0.3,4.2-0.7,8.4-0.6,13.3l0,1.8l0.1,2c0.1,1.3,0.4,3.5,0.5,4.2l1.1,6.2c3,16.5,7.1,23.1,12.3,39c2.6,8,5.4,15.9,8.4,23.7
					c3,7.8,6.4,15.5,9.8,23.1c4.3,9.5,15.5,13.8,25,9.5c9.5-4.3,13.8-15.5,9.5-25c-0.2-0.4-0.3-0.7-0.5-1.1l-0.1-0.3
					c-3.6-6.8-7.2-13.7-10.4-20.6c-3.3-7-6.5-14-9.5-21.1c-2.9-7.1-5.7-14.3-8.3-21.6c-2.5-7.3-4.8-14.6-6.9-22l-1.5-5.6
					c-0.3-1.3-0.3-1-0.5-1.7l-0.2-1l-0.2-1.2c-0.4-3.2-0.6-7-0.8-10.8c-0.3-7.7-0.2-15.6-0.1-23.5c0.1-7.9,0.3-15.9,0.5-23.9
					c0.2-8,0.4-16,0.8-24l0-0.1c0.2-4.9-3.6-9.1-8.6-9.3C329.4,157.8,325.5,161,324.7,165.3z"/>
			</g>
			<g>
				<path class="st25" d="M335,158.1c0.1,0.3,0.2,0.6,0.3,0.9c0.4,2.5,0.5,4.9,0.5,7.3c1.1,0.9,1.8,2.2,1.9,4
					c0.2,6.7,1.8,13.3,1.9,20c0,0.2,0,0.4,0,0.6c0.8,0,1.5-0.1,2.3-0.1c0.2-7.8,0.4-15.7,0.7-23.5l0-0.1
					C342.7,162.7,339.4,158.8,335,158.1z"/>
			</g>
			<g>
				<path class="st5" d="M320,184.5h23.1c-0.4,21.9,2,72.8,2.5,74.4c6.7,24.9,15.9,43.8,25.8,64.7c7,15.2,21,35.9-0.9,47
					c-21.7,9-25.4-4.4-31.9-19.4c-17.9-41-23.9-52.5-28.1-80.6C308,253.2,318.4,194.1,320,184.5z"/>
			</g>
			<g>
				<path class="st7" d="M434.3,326.3c8.9-7,35.6-54,38.7-84.2c1.8-18.1-0.7-36.2-1.1-54.3c-1.1,0-2.2,0.1-3.2,0.1
					c0.3,21.1-0.5,45.4-3,66.2C459.2,279.8,445.9,303.1,434.3,326.3z"/>
			</g>
			<g>
				<path class="st5" d="M351.3,418.6c3.4-19.7-12.1-67.4-12.1-67.4l18.1-33.4l46.3-6.6v0l45.6,6.5l20.7,34.9
					c0,0-16.3,41.1-12.9,60.7c2.5,14.5,7.7,56.7,10.6,78.8c1,7.9,1,8.8,1,11.9s-0.6,3.3-2.7,3.9c-8.5,2.2-31.2,7.6-56.2,7.6
					c-38.9,0-65.2-7.2-65.2-7.2S347.9,438.2,351.3,418.6z"/>
			</g>
			<path class="st7" d="M340.7,501.2c-0.3,3.7,1.4,6.8,4.1,7.4c2.7,0.6,3.4,0.7,8.3,1.6c-1.8-14.5,0.1-29.6,0.7-44.1
				c1.1-26.6,7.1-36.4,1.9-68.4c-8.2-50.4-32.7-118.8-34.3-134.9c-1.5-14.6,3.4-60.3,5-78.3H320c-1.7,9.6-12,68.7-9.5,86.1
				c4.2,28.1,12.2,46.1,28.1,80.6c0,0,12.3,45.2,10.9,64.2c-1,14.1-4.5,45.6-7.3,67.7C341.2,492.3,341,497.5,340.7,501.2z"/>
			<g>
				<path class="st5" d="M336.4,158.5c2.6,0.9,4.6,2.8,5.6,5.4h-5.4C336.9,162,336.8,160.2,336.4,158.5z"/>
			</g>
			<g>
				<g>
					<path class="st25" d="M335.1,159.4c0,4.4,1.1,9.9,2.8,14l4.4-0.6c3.8-3.9,9.3-12.1,2-21.9c-9-12.1-21.4-13.5-21.4-13.5
						l-4.6,6.5c0,0-0.2,0.6-0.4,1.6c1.4,0.2,1.9,2,3.8,2.6C332.8,151.7,335.1,157.1,335.1,159.4z"/>
				</g>
			</g>
			<g>
				
					<rect x="337.3" y="9" transform="matrix(-1 -1.224647e-16 1.224647e-16 -1 815.5676 180.5019)" class="st30" width="141" height="162.4"/>
			</g>
			<path class="st17" d="M326.3,124.6c0-0.2,0-0.4,0.1-0.6c0.4-2,2.3-3.3,4.3-2.9l8.2,1.6l0.3,0.1c0.4,0.1,0.8,0.3,1.2,0.6l7,6.1
				c1,0.9-1.4,4.4-5.5,2.3l-4.9-3.1l-3.5,0.5l-0.2,5.1c-0.1,2-1.8,3.6-3.8,3.5c-2-0.1-3.6-1.8-3.5-3.8L326.3,124.6z"/>
			<path class="st25" d="M338.5,127.2c-2.4,0.1-4.7-0.1-7.1-0.1c-1.7,1.2-5.2,4.9-5.4,4.9l-0.1,2c-0.1,2,1.5,3.7,3.5,3.8
				c2,0.1,3.7-1.5,3.8-3.5l0.2-5.1l3.5-0.5l4.9,3.1c1.2,0.7,2.3,0.8,3.2,0.6C342.5,131.1,340.1,129.4,338.5,127.2z"/>
			<path class="st17" d="M324.6,133l6-4.3l0.1-0.1c1.3-0.9,3.1-0.8,4.3,0.3l13.7,12.8c1.2,1.2-1.8,4.1-6,1.5l-10.1-7.3l-3.6,2.9
				c-0.1,0-0.1,0.1-0.2,0.1c-1.7,1.2-3.9,0.8-5.1-0.9C322.5,136.4,322.9,134.1,324.6,133z"/>
			<path class="st25" d="M343.9,142.2c-1.7-1.1-2.8-2-4.1-2.9c-1.9-1.4-4-2.7-5.7-4.4c-0.4-0.4-0.7-0.8-0.9-1.1
				c-3.2,1.4-10.6,2.4-9.8,3.7c0.1,0.2,0.2,0.4,0.3,0.6c1.2,1.7,3.5,2,5.1,0.9c0.1,0,0.1-0.1,0.2-0.1l3.6-2.9l10.1,7.3
				c2.2,1.3,4,1.2,5.2,0.6C346.5,143.5,345.2,143,343.9,142.2z"/>
			<g>
				<g>
					<path d="M352.5,48.7h7.7c6.3,0,7.8,2.3,7.8,6.9v6.1c0,2.8-0.6,4.2-2.3,5.1l2.9,15.5H362l-2.4-14.6h-0.6v14.6h-6.5V48.7z
						 M360.1,63.5c1.2,0,1.5-0.4,1.5-2.2v-5.5c0-1.5-0.2-2.1-1.5-2.1h-1.1v9.8H360.1z"/>
					<path d="M369.7,75.1V55.9c0-5.7,3.3-7.7,7.8-7.7c4.6,0,7.8,1.9,7.8,7.7V75c0,5.7-3.2,7.8-7.9,7.8S369.7,80.9,369.7,75.1z
						 M370.8,44.5c0-1.7,1.4-3.1,3.1-3.1c1.8,0,3.1,1.4,3.1,3.1s-1.4,3.1-3.1,3.1C372.2,47.6,370.8,46.2,370.8,44.5z M378.8,75V55.8
						c0-1.7-0.3-2.3-1.2-2.3c-0.8,0-1.2,0.5-1.2,2.3V75c0,1.9,0.4,2.4,1.2,2.4C378.4,77.4,378.8,76.9,378.8,75z M378,44.5
						c0-1.7,1.4-3.1,3.1-3.1c1.8,0,3.2,1.4,3.2,3.1s-1.4,3.1-3.2,3.1C379.4,47.6,378,46.2,378,44.5z"/>
					<path d="M387.4,48.7h7.7c6.3,0,7.8,2.3,7.8,6.9v6.1c0,2.8-0.6,4.2-2.3,5.1l2.9,15.5h-6.7l-2.4-14.6H394v14.6h-6.5V48.7z
						 M395,63.5c1.2,0,1.5-0.4,1.5-2.2v-5.5c0-1.5-0.2-2.1-1.5-2.1H394v9.8H395z"/>
					<path d="M409.2,48.7h6.6v33.6h-6.6V48.7z"/>
					<path d="M418,48.7h6.8l2.8,12.7l0.8,3.7V48.7h5.6v33.6h-6.1l-3.5-15.7l-0.8-3.7v19.4H418V48.7z"/>
					<path d="M439.6,53.9h-4v-5.2h14.5v5.2h-4v28.4h-6.5V53.9z"/>
					<path d="M451.7,48.7h12.1v5.2h-5.5V62h4.4v5h-4.4v10h5.8v5.2h-12.4V48.7z"/>
					<path d="M352.5,98.8h6.6l1.7,20.8l0.3,5.1l0.3-5.1l1.6-20.8h5.9l-3.8,33.6h-8.9L352.5,98.8z"/>
					<path d="M377.7,125.1h-2.9l-0.5,7.3h-5.9l3.3-33.6h9.7l3.3,33.6h-6.5L377.7,125.1z M372.3,94c0-2.3,1.7-4.1,4.2-4.1
						c2.5,0,4.3,1.8,4.3,4.1s-1.7,4.1-4.3,4.1C374.1,98.1,372.3,96.2,372.3,94z M375.9,109.4l-0.8,11h2.3l-0.8-11l-0.3-5.4
						L375.9,109.4z M377.9,94c0-0.8-0.6-1.5-1.4-1.5c-0.8,0-1.3,0.7-1.3,1.5c0,0.8,0.5,1.5,1.3,1.5C377.4,95.5,377.9,94.8,377.9,94z
						"/>
					<path d="M386.1,98.8h7.7c6.3,0,7.8,2.3,7.8,6.9v6.1c0,2.8-0.6,4.2-2.3,5.1l2.9,15.5h-6.7l-2.4-14.6h-0.6v14.6h-6.5V98.8z
						 M393.6,113.6c1.2,0,1.5-0.4,1.5-2.2v-5.5c0-1.5-0.2-2.1-1.5-2.1h-1.1v9.8H393.6z"/>
					<path d="M406.8,104h-4v-5.2h14.5v5.2h-4v28.4h-6.5V104z"/>
					<path d="M422.8,125.2V106c0-5.7,3.3-7.7,7.8-7.7c4.6,0,7.8,1.9,7.8,7.7v19.1c0,5.7-3.2,7.8-7.9,7.8S422.8,131,422.8,125.2z
						 M431.8,125.1v-19.1c0-1.7-0.3-2.3-1.2-2.3c-0.8,0-1.2,0.5-1.2,2.3v19.2c0,1.9,0.4,2.4,1.2,2.4
						C431.5,127.5,431.8,127,431.8,125.1z"/>
					<path d="M440.5,98.8h7.6c5.7,0,7.5,1.9,7.5,6.3v4.6c0,3.1-1.5,4.4-4.1,4.9c3.1,0.6,4.6,2.3,4.6,5.9v4.6c0,5.7-2.4,7.2-7.8,7.2
						h-7.7V98.8z M447.8,112.5c1.3,0,1.6-0.5,1.6-2.3v-4.3c0-1.9-0.4-2.3-1.6-2.3H447v8.9H447.8z M447.9,127.6c1.4,0,1.7-0.7,1.7-3
						v-4.9c0-2.4-0.5-2.8-1.8-2.8H447v10.6H447.9z"/>
					<path d="M457.4,129.3c0-1.9,1.5-3.3,3.6-3.3c2,0,3.5,1.4,3.5,3.3c0,2-1.5,3.4-3.5,3.4C459,132.7,457.4,131.3,457.4,129.3z
						 M457.6,98.8h6.7l-0.9,24.8h-4.9L457.6,98.8z"/>
				</g>
				<path class="st17" d="M464.4,129.5l7-6.1c0.3-0.3,0.7-0.5,1.2-0.6l0.3-0.1l8.2-1.6c0.2,0,0.4-0.1,0.6-0.1c2-0.1,3.7,1.5,3.8,3.5
					l0.3,9.4c0.1,2-1.5,3.7-3.5,3.8c-2,0.1-3.7-1.5-3.8-3.5l-0.2-5.1l-3.4,0.7l-6.4,3.2c-2.4,1.3-4.1,1.3-5,0.3
					C462.4,132.1,463.2,130.5,464.4,129.5z"/>
				<path class="st25" d="M485.7,132.6c-1.4-1.7-2.8-3.5-4.3-5.3c-2.3,0-4.6,0.1-6.8,0.5c-0.3,0.3-0.6,0.6-1,0.8
					c-2.8,1.8-5.8,4.2-9.1,5.1c-0.2,0-0.4,0.1-0.6,0.1c1,0.5,2.5,0.3,4.5-0.7l6.4-3.2l3.4-0.7l0.2,5.1c0.1,2,1.8,3.6,3.8,3.5
					c2-0.1,3.6-1.8,3.5-3.8L485.7,132.6z"/>
				<path class="st17" d="M464.6,140.4l12.1-11.5c1.1-1.1,2.9-1.2,4.3-0.3l0.1,0.1l6,4.3c0.1,0,0.1,0.1,0.2,0.1
					c1.6,1.3,1.8,3.6,0.6,5.1c-1.3,1.6-3.6,1.8-5.1,0.6l-3.6-2.9l-8.7,7.6c-1.3,1.1-5.8,2.1-6.9,0.8
					C462.9,143.5,463.4,141.6,464.6,140.4z"/>
				<path class="st25" d="M484.7,136.7c-0.7-0.4-5.5-2.1-5.9-2.7c-4.2,3.8-8.6,7.6-13.4,10.7c-0.2,0.1-0.4,0.2-0.5,0.3
					c1.8,0.2,4.6-0.5,5.6-1.4l8.7-7.6l3.6,2.9c1.1,0.9,2.6,1,3.9,0.4C484.5,138.1,486.9,137.9,484.7,136.7z"/>
				<path class="st17" d="M465.3,148.6l11.7-12.1c0.7-0.7,1.7-1.1,2.7-1l0.1,0l8.8,0.9c0.1,0,0.1,0,0.2,0c2,0.3,3.4,2.2,3.1,4.2
					c-0.3,2-2.2,3.4-4.2,3.1l-6.7,0l-9.6,7.9c-1.2,1.2-5.4,1.9-6.6,0.8C463.9,151.6,464.1,149.8,465.3,148.6z"/>
				<path class="st25" d="M479.7,141.9c-4.1,3.7-8.3,7.5-13.1,10.3c-0.4,0.2-0.8,0.4-1.2,0.5c1.6,0.6,5-0.1,6-1.1l9.6-7.9l6.7,0
					c1.2,0.2,2.4-0.3,3.2-1.1C487.2,142.2,483.5,141.9,479.7,141.9z"/>
				<path class="st17" d="M469.5,152.6l9-7.9c0.3-0.3,0.7-0.5,1.1-0.6l0.2,0l9.1-2.7c0,0,0.1,0,0.2,0c2-0.5,3.9,0.7,4.4,2.7
					c0.5,2-0.7,3.9-2.7,4.4l-8.5,2.1l-6.9,4.5c-2.1,1.7-5.9,2-6.9,0.6C467.8,154.7,468.2,153.8,469.5,152.6z"/>
				<path class="st25" d="M481.8,148.4c-1.1,0.8-2.2,1.6-3.5,2.3c-2.5,1.5-4.8,3.3-7.5,4.5c-0.7,0.3-1.4,0.5-2.1,0.6
					c1.1,1.2,4.7,0.9,6.7-0.8l6.9-4.5l8.5-2.1c0.9-0.2,1.7-0.8,2.2-1.6C489.3,147.3,485.6,148.1,481.8,148.4z"/>
			</g>
			<path class="st17" d="M323.1,136.5l8.8-0.9l0.2,0c1-0.1,2,0.2,2.7,1l12.6,12.5c1.2,1.2-1.7,3.4-4.5,1.6c-4.2-2.8-10.5-8-10.5-8
				l-8.4,1.1c-0.1,0-0.1,0-0.2,0c-2,0.2-4-0.3-4-3.3C319.9,138.4,321.1,136.7,323.1,136.5z"/>
			<path class="st25" d="M333.1,141.7c-0.6,0-1.2-0.1-1.7-0.1c-2.2,0.2-4.4-0.1-6.6,0.1c-1.6,0.1-3.1,0.3-4.7,0.4
				c0.6,1.5,2.2,1.7,3.7,1.6c0.1,0,0.1,0,0.2,0l8.4-1.1c0,0,6.2,5.2,10.5,8c1.4,0.9,2.8,0.8,3.7,0.4
				C344.2,150.1,335.2,143.7,333.1,141.7z"/>
			<path class="st17" d="M318.3,143.8c0.6-1.9,2.4-3.6,4.4-3l9.3,3.2l0.2,0.1c0.4,0.1,0.8,0.3,1.1,0.6l9,7.9c1.2,1.1,0.2,4.4-4,3
				l-8.8-5.1l-8.5-2.1c0,0-2.1,0.2-2.1,0.2C317.3,147.9,317.7,145.8,318.3,143.8z"/>
			<path class="st25" d="M329.5,149.2c-2.3-0.6-7.2-0.7-7.4-0.4l7.3,1.8l8.8,5.1c1.9,0.6,3.1,0.3,3.8-0.3
				C338.7,155,329.9,149.6,329.5,149.2z"/>
		</g>
		<g>
			<g>
				<path class="st6" d="M444.3,301.8c0,0-20.9,19.3-77.3,3.2c0,0-13.9-32.7,6.4-69.4c0,0,56.5-1.5,58.7,14
					C438.5,293.2,444.3,301.8,444.3,301.8z"/>
			</g>
			<path class="st5" d="M433.9,320.3c0,0-5.8-18.8-31.3-15.8c-25.5,3-24.3,8.2-26.7,18.9C373.5,334.2,433.9,320.3,433.9,320.3z"/>
			<g>
				<path class="st17" d="M420.3,313.3c0,0,1.8,2,0.3,10.3c-1.5,8.2-11,25.9-11,25.9s-4-6.5-8.8-13c-3.2-4.2-7.2-8.3-9-11
					c-4.5-6.8-4.5-12-4.5-12s3.8-25.7,9.3-30.8c4.7-4.3,21.2-1,20.8,4.4C415.7,306.9,420.3,313.3,420.3,313.3z"/>
			</g>
			<g>
				<path class="st25" d="M417.8,305.3c-0.7-4.1-1-10-0.3-18.2c0.5-5.4-16.1-8.7-20.8-4.4c-3,2.8-5.5,11.6-7.1,19.2
					C403.2,312.5,413.3,312.7,417.8,305.3z"/>
			</g>
			<g>
				<g>
					<path class="st17" d="M432.1,255.4c0,0,1.5,30.4-6.6,40.2c-9.8,11.9-18.6,9-27.5,6.3c-8-2.4-14.7-10.8-17.8-17
						c-3.1-6.1,0-25.9,0-25.9l18.3-26.4L432.1,255.4z"/>
				</g>
				<g>
					<path class="st6" d="M396.9,247.7c0,0,23.4,8.7,39.7,8c0,0,3.7-39.8-39.4-35.4c-19.9,2-26,15.2-25.9,27
						c0.1,11.9,7.6,24.9,7.6,24.9S390.8,252.3,396.9,247.7z"/>
				</g>
				<g>
					<path class="st17" d="M381.7,268.3c0,0-8.2-9.3-9.4,1c-0.9,7.8,3.7,17.3,9.4,13.9C387.5,279.8,381.7,268.3,381.7,268.3z"/>
				</g>
			</g>
		</g>
		
			<rect x="328.2" y="789.7" transform="matrix(0.998 6.340806e-02 -6.340806e-02 0.998 50.9898 -20.1181)" class="st18" width="28.6" height="7.1"/>
		<polygon class="st18" points="460.8,798.2 432.9,799.4 432.7,792.6 460.6,791.4 		"/>
	</g>
</g>
<g>
	<g>
		<g>
			<path class="st32" d="M687.2,850.9l-32,1c-2.3,0-4.3-1.7-4.6-4c-0.5-3.3-1-7.5-0.9-12.2c0,0,3.3-10.1,3.4-20.1
				c0-5.9-6.6-42.6-7.2-46.2l27.6-7.8l1.3,55.3c0,0,15.8,18.9,16.7,23.2c0.4,1.9,0.5,4.3,0.4,6.3
				C691.7,848.9,689.7,850.9,687.2,850.9z"/>
		</g>
		<g>
			<path class="st10" d="M691.5,840.1c-0.4-1.6-2-4-5.2-8.3c-9,1.9-32.9-15.5-30.1-19.5c4.3-6.2,11.1-9.1,18.2-9.6l-1-41.1
				l-27.6,7.8c0.6,3.6,7.3,40.3,7.2,46.2c-0.1,9.9-3.4,20.1-3.4,20.1c-0.1,4.8,0.4,9,0.9,12.2c0.3,2.3,2.3,4,4.6,4l32-1
				c2.5,0,4.6-2,4.7-4.5C691.9,844.4,691.9,842,691.5,840.1z"/>
		</g>
		<g>
			<path class="st29" d="M678.8,822.1c0,0,12.6,11.9,13.7,19.7c1.1,7.9,0.5,10.2-4.3,10.8c-4.8,0.6-32.9,0-32.9,0s-7.9,1-6.2-13.8
				c0.5-4.2,3.5-16.5,3.5-16.5l0.6,11c0,0,15.4-14.8,30.1-3.8C683.3,829.5,681.2,825.1,678.8,822.1z"/>
		</g>
		<g>
			<path d="M673.9,845.5c-7.9-1.8-14.3-7.3-18.4-14.1c-1.5,1.1-2.3,1.9-2.3,1.9l-0.6-11c0,0-3,12.3-3.5,16.5
				c-1.7,14.7,6.2,13.8,6.2,13.8s28.1,0.6,32.9,0c4.5-0.6,5.3-2.6,4.5-9.3C687.6,846.8,678.9,846.6,673.9,845.5z"/>
		</g>
	</g>
	<g>
		<path class="st32" d="M531.9,851.7l31.1-0.4c2.3,0,4.2-1.7,4.6-3.9c0.5-3.2,1.3-6.6,1.2-11.3c0,0-1.6-6.8-2.8-20.4
			c-0.4-4.4,2.9-29.4,3.4-32.2l-23.4,7.2l-2.1,25.7c0,0-15.3,20.6-16.2,24.8c-0.4,1.9-0.5,4.2-0.4,6.2
			C527.4,849.7,529.4,851.7,531.9,851.7z"/>
	</g>
	<g>
		<path class="st10" d="M566.9,838c-7.4-0.9-17.1-4-20.5-11.3c-3.7-7.8,4.6-14.7,9.6-19.6c1.7-1.7,3.8-1.9,5.5-1.2
			c1.5-0.5,3.3-0.6,5.1-0.6c0.9-8.9,2.4-20.2,2.8-22l-23.4,7.2l-2.1,25.7c0,0-15.3,20.6-16.2,24.8c-0.4,1.9-0.5,4.2-0.4,6.2
			c0.1,2.5,2.1,4.4,4.6,4.4l31.1-0.4c2.3,0,4.2-1.7,4.6-3.9c0.4-2.8,1.2-5.4,1.2-9.5C568.2,838,567.6,838.1,566.9,838z"/>
	</g>
	<g>
		<path d="M660.2,242.7c0,28.6-19.4,48.7-48,48.7s-53.8-23.2-53.8-51.8c0-28.6,25.1-51.8,53.8-51.8S660.2,214.1,660.2,242.7z"/>
	</g>
	<g>
		<g>
			<path class="st5" d="M683.2,431.9c1.8,4.2,3.6,8.4,5.3,12.6c12.7-1.7,25.5-6.5,23.6-20c-0.6-4.1,0.7-8.2,4.6-9.9
				c-2.8-8.7-5.8-17.4-8.9-25.9c-3.6-10-7.4-19.9-11.2-29.8c-1.9-4.9-3.9-9.8-5.9-14.8c-2-4.9-4-9.7-6.2-14.8l0,0
				c-0.3-0.7-0.7-1.5-1.1-2.2c-6.4-11.3-20.7-15.4-32-9c-11.3,6.4-15.4,20.7-9,32c2.4,4.3,4.9,8.8,7.3,13.3c2.4,4.5,4.8,9,7.2,13.6
				c4.7,9.1,9.3,18.2,13.8,27.4C674.8,413.4,679.2,422.7,683.2,431.9z"/>
		</g>
		<g>
			<g>
				<path class="st33" d="M564.1,501.3l-2.5,24.9c-1.6,17.6,21.7,33.8,47.4,36.1h0c42.1,3.4,56.2-13.8,57.9-31.4l-3.6-35
					L564.1,501.3z"/>
			</g>
			<g>
				<path class="st29" d="M621.6,599.2c6.2,65,13.5,139.5,23.1,204.7h35.8c4.5-114.9,4.4-186.7,0.2-278.2
					c-3.4-46.1-74.9-38.7-68.3,7.2C616.1,554.8,619.1,576.9,621.6,599.2z"/>
			</g>
			<path d="M653.3,754.7c-4.5-23.4-8.6-46.9-12.5-70.4c-7.4-44.6-8.8-90.5-25.6-133c2.4,15.9,4.5,31.9,6.3,48
				c6.2,65,13.5,139.5,23.1,204.7h17.4C660.7,787.3,656.4,771,653.3,754.7z"/>
			<g>
				<path class="st29" d="M572.8,803.9c24.2-122,42.1-228.4,45.5-244.3c8.1-25.3,1.5-53.2-29.2-58.5c-30.2-1.2-37.6,21.1-38.4,46.9
					c-1.6,16.8-3,35.1-4.1,51.7c-5,67.3-1.4,136.8-4.3,204.2H572.8z"/>
			</g>
			<path d="M589.1,501.2c-18.2-2-34.6,11.2-36.6,29.4l-0.9,8.8l-0.8,8.6l-1.6,17.2c-1,11.5-1.8,23-2.5,34.5l-1,17.3
				c-0.3,5.8-0.6,11.5-0.8,17.3c-0.5,11.5-0.8,23.1-1,34.7c-0.2,11.8,0,22.8-0.1,34.2l-0.1,34l-0.1,34.1c0,10.8-1.2,21.7-1.2,32.5
				h8.8c-0.3-4.6-0.4-9.3-0.4-13.9c0-16.5,2.6-96.9,3.2-120.6c0.4-15.4,10.5-107.8,19.5-113.4c7.3-4.6,29.9-5.7,38.1-5.7
				c2.4,0,67.6-5.5,68.9-4.3C680.4,546.1,607.3,503.1,589.1,501.2z"/>
			<path class="st5" d="M582.1,313.1c0,0-2.5-27.8,32.9-26.4c27,1.1,29.2,15.1,32,21.5L582.1,313.1z"/>
			<g>
				<path class="st5" d="M540.6,336.7c2.4,28.2,26.7,86.6,29.9,108.5c2,13.2-13.6,38.8-14.6,68l125.8,1.8c0,0-5.8-33.1-13.3-73.7
					c-1.1-6-4.9-19.2-2.3-30.3c0,0,18.1-9.2,12.2-25.9c-20.1-55.8,7.9-54.3,3.6-60.1c-14.7-19.6-47.2-31.7-67.8-30.2
					C569.7,298.2,539.5,322.7,540.6,336.7z"/>
			</g>
			<g>
				<path class="st7" d="M589.3,449.6c-2.3-6.2,2.2-32.7,2.2-32.7c-26.1-2.5-30-46.9-42.4-73.4c-0.9-2-0.7-3.9,0.2-5.4
					c-3.2-2.8-5.8-5.3-7.5-7.4c-0.9,2.1-1.3,4.2-1.2,6c2.4,28.2,22.1,87.6,25.4,109.5c2,13.2-10.2,35.1-13.4,64.3
					c0,0-1.5,5.9,3.6,6.4c0.9,0.1,20.3,1.9,48.5,1.9s77-3.8,77-3.8s-1.3,5.9-3.4-10.2C646.8,497.1,600.2,479.5,589.3,449.6z"/>
			</g>
			<g>
				<g>
					<g>
						<path class="st34" d="M611.8,419.2L611.8,419.2C611.9,419.2,611.8,419.2,611.8,419.2z"/>
					</g>
				</g>
			</g>
		</g>
	</g>
	<g>
		<g>
			<path class="st35" d="M596.7,298c0,0,7.5-15.9,8.9-30.3c0.6-6.2,22.3-2.2,21.9,3.2c-1.7,19.6,1.4,23.9,2.8,25.9s2.7,8,0.1,15.2
				s-12.5,24.7-12.5,24.7l-1.3-0.9c0,0-3.8-8-8.3-14.7C602.3,312,595.3,303.3,596.7,298z"/>
		</g>
		<g>
			<path class="st1" d="M627.3,288.3c-0.5-4-0.5-10.1,0.1-17.5c0.5-5.3-21.3-9.4-21.9-3.2c-0.5,5.6-2.6,13.2-4.2,18.2
				C614,296.7,623,296.7,627.3,288.3z"/>
		</g>
		<g>
			<g>
				<path class="st35" d="M592.2,252.2c0,0-8.2-9.2-9.3,1c-0.9,7.7,3.6,17.1,9.3,13.7S592.2,252.2,592.2,252.2z"/>
			</g>
			<g>
				<path class="st35" d="M642,239.5c0,0,1.5,30-6.5,39.7c-9.7,11.7-19.7,9.6-27.1,6.2c-8.4-3.8-14.6-10.7-17.6-16.7s0-25.6,0-25.6
					l1.8-30.1l44.4,2.3L642,239.5z"/>
			</g>
			<g>
				<path d="M647.5,248.1c1.6,1.5,4.7-13.2,4.7-15.3c0.2-11.3-9.9-30.1-42.5-26.8c-19.6,2-26.9,15.4-26.8,27.2
					c0.1,6.5,2.3,12.5,4.4,16.5c1,2,3.9,1.7,4.5-0.4c2.7-8.3,19.2-22.4,32.2-21C640.1,230,647.5,248.1,647.5,248.1z"/>
			</g>
		</g>
	</g>
	<g>
		<path class="st29" d="M541.1,820.1c0,0-13.2,14.2-14.3,21.9c-1.1,7.7-0.5,10,4.2,10.6s32.3,0,32.3,0s6.3,1.1,6.1-13.5l-2.1-12
			l-1.9,6.6c0,0-11.5-14-29.1-2.2C536.3,831.5,536,827,541.1,820.1z"/>
	</g>
	<g>
		<path d="M568.9,840.3c-9.9,7.6-33.2,3.6-34.3-10.7c0-0.6-0.6-0.8-0.5-1.3c-3.6,4.6-6.8,9.8-7.4,13.7c-1.1,7.7-0.5,10,4.2,10.6
			c4.7,0.6,32.3,0,32.3,0s6.1,1,6.1-12.7C569.2,840.1,569.1,840.2,568.9,840.3z"/>
	</g>
	<path class="st36" d="M661.3,412.5c10.2-0.4,17.3-19.9,17.3-19.9c3.1,13.5-7.8,22.7-17.4,20.4L661.3,412.5z"/>
	<path class="st36" d="M675.2,364.2c-0.5,1.1-0.9,2.3-1.2,3.5c-0.3,1.2-0.6,2.4-0.5,3.4c0,0.6,0.2,0.8,0.4,1.5l0.6,1.8l1.1,3.6
		l4.6,14.2l0,0.1l0,0.2c0.2,2.8,0,5.4-0.7,8.1c-0.7,2.6-1.9,5.2-3.7,7.4c-0.9,1.1-2,2-3.1,2.8c-1.2,0.8-2.4,1.4-3.7,1.8
		c-2.6,0.8-5.3,1-7.8,0.6l0-0.4c2.5-0.5,4.9-1.2,7-2.3c1-0.6,2-1.3,2.8-2c0.8-0.8,1.6-1.6,2.2-2.6c1.3-1.9,2.1-4,2.7-6.3
		c0.6-2.2,1-4.7,1-6.9l0.1,0.3l-3.7-14.4l-0.9-3.6l-0.5-1.8c-0.1-0.3-0.2-0.6-0.2-1c-0.1-0.4,0-0.8,0-1.1c0.2-1.4,0.7-2.6,1.2-3.8
		c0.6-1.2,1.2-2.2,1.9-3.3L675.2,364.2z"/>
	<path class="st7" d="M624.5,520.9c-0.2-17.3-0.4-166.6-0.4-166.6c0-3.5-0.4-8.7-1.3-10.6c-0.8-1.9-2-3.9-4.3-6.8l19.3-20.9
		l12.5,6.3c0.1,0.1,0.3,0.1,0.5,0c0.2-0.1,0.3-0.2,0.3-0.4c0-0.1,1.2-4.3-7.3-22c-0.1-0.2-0.4-0.3-0.6-0.2c-0.2,0.1-0.3,0.4-0.2,0.6
		c4.2,9.2,7.2,17.7,7.2,20.6l-12-6c-0.2-0.1-0.4-0.1-0.6,0L618,336.1l-24.3-18c-0.2-0.1-0.4-0.2-0.6,0l-9.9,7.6
		c-0.5-2.9-2.3-15.1,1.8-24.7c0.1-0.2,0-0.5-0.2-0.6c-0.2-0.1-0.5,0-0.6,0.2c-5,11.7-1.9,25.9-1.9,26c0,0.2,0.1,0.3,0.3,0.4
		c0.2,0.1,0.3,0,0.5-0.1l10.3-7.9l24.1,17.8c0,0,0,0.1,0,0.1l0.1,0.2c2.3,3,3.6,5.1,4.4,6.9c0.8,1.8,1.2,6.8,1.2,10.3
		c0,0,0.1,144.6,0.4,166.5"/>
	<g>
		<path class="st32" d="M615.6,345.3c0-1,0.8-1.9,1.8-1.9c1,0,1.9,0.8,1.9,1.8c0,1-0.8,1.9-1.9,1.9
			C616.5,347.2,615.6,346.4,615.6,345.3z"/>
	</g>
	<path class="st7" d="M415.2,514.1c-0.3-21.9-0.4-147.2-0.4-147.2c0-3.5-0.4-8.4-1.2-10.3c-0.8-1.8-2.1-4-4.4-6.9l-0.1-0.2
		c0,0,0,0,0-0.1l-21.5-15.4c0,0-2,1.3-4.4,3.1c-2.4,1.8-5.9,4.8-5.9,4.8c-0.1,0.1-0.3,0.1-0.5,0.1c-0.2-0.1-0.3-0.2-0.3-0.4
		c0-0.1-3.7-15.2,1.3-26.9c0.1-0.2,0.4-0.3,0.6-0.2c0.2,0.1,0.3,0.4,0.2,0.6c-4.1,9.7-1.7,22.7-1.3,25.6c0,0,3.3-2.8,5.7-4.7
		c2.4-1.8,4.2-3,4.2-3c0.2-0.1,0.4-0.1,0.6,0l21.8,15.6l17.4-19.1c0.2-0.2,0.4-0.2,0.6,0c0,0,3.3,1.5,5.8,3c2.5,1.5,4.7,2.7,4.7,2.7
		c-0.5-3.8-4.4-15.3-7.5-19.5c-0.2-0.2,0-0.5,0.2-0.6c0.2-0.1,0.5,0,0.6,0.2c6,9.5,7.6,20.7,7.6,20.8c0,0.2-0.2,0.3-0.3,0.4
		c-0.2,0.1-0.3,0.1-0.5,0c0,0-2.4-1.3-5-2.9c-2.6-1.5-6-3.1-6-3.1l-17.2,18.9c2.2,2.9,3.4,4.9,4.3,6.8c0.8,1.9,1.2,7.1,1.3,10.6
		c0,0,0.2,130,0.4,147.3c0,0,0,0.5-0.5,0.5C415.1,514.7,415.2,514.1,415.2,514.1z"/>
	<g>
		<path class="st32" d="M407.2,357.9c0-1,0.8-1.9,1.8-1.9c1,0,1.9,0.8,1.9,1.8c0,1-0.8,1.9-1.9,1.9
			C408.1,359.8,407.2,359,407.2,357.9z"/>
	</g>
	<g>
		<path class="st32" d="M408.5,379.1c0-1,0.8-1.9,1.8-1.9c1,0,1.9,0.8,1.9,1.8c0,1-0.8,1.9-1.9,1.9
			C409.4,380.9,408.5,380.1,408.5,379.1z"/>
	</g>
	<g>
		<path class="st32" d="M408.8,400.2c0-1,0.8-1.9,1.8-1.9c1,0,1.9,0.8,1.9,1.8c0,1-0.8,1.9-1.9,1.9
			C409.6,402,408.8,401.2,408.8,400.2z"/>
	</g>
	<g>
		<path class="st32" d="M408.8,421.3c0-1,0.8-1.9,1.8-1.9c1,0,1.9,0.8,1.9,1.8c0,1-0.8,1.9-1.9,1.9
			C409.7,423.2,408.8,422.3,408.8,421.3z"/>
	</g>
	<g>
		<path class="st32" d="M408.8,442.4c0-1,0.8-1.9,1.8-1.9c1,0,1.9,0.8,1.9,1.8c0,1-0.8,1.9-1.9,1.9
			C409.7,444.3,408.8,443.5,408.8,442.4z"/>
	</g>
	<g>
		<path class="st32" d="M409.1,463.5c0-1,0.8-1.9,1.8-1.9c1,0,1.9,0.8,1.9,1.8c0,1-0.8,1.9-1.9,1.9
			C410,465.4,409.1,464.6,409.1,463.5z"/>
	</g>
	<g>
		<path class="st32" d="M409.1,484.7c0-1,0.8-1.9,1.8-1.9c1,0,1.9,0.8,1.9,1.8c0,1-0.8,1.9-1.9,1.9
			C409.9,486.5,409.1,485.7,409.1,484.7z"/>
	</g>
	<g>
		<path class="st32" d="M617.3,364c0-1,0.8-1.9,1.8-1.9c1,0,1.9,0.8,1.9,1.8c0,1-0.8,1.9-1.9,1.9C618.1,365.9,617.3,365.1,617.3,364
			z"/>
	</g>
	<rect x="571" y="364.8" class="st30" width="147.7" height="181.3"/>
	<path class="st35" d="M710.2,413.5c2.1-0.2,4-0.3,5.9-0.4c2,0,3.9,0,5.9,0.1c3.9,0.3,7.8,0.9,11.8,2.2c1.7,0.9,3.5,2.5,3,5
		c-0.6,2.4-3.1,3.8-5.4,3c-0.1,0-0.2-0.1-0.3-0.1l-0.1,0c-1.5-0.6-3-1.2-4.7-1.7c-1.6-0.5-3.3-0.9-5-1.1c-1.7-0.3-3.5-0.5-5.2-0.6
		c-1.7-0.1-3.6-0.2-5.2-0.2l-0.1,0c-0.4-1.4-1.7-2.4-3.1-2.3C707.1,415.5,708.4,413.8,710.2,413.5z"/>
	<path class="st1" d="M727.5,420.1c-2.1-1.3-4.4-2.2-6.8-2.9c-4.4-0.4-8.8-0.2-13.1-0.2c0,0-0.1,0-0.1,0c0.2,1.5,1.5,2.7,3.1,2.7
		l0.1,0c1.6,0,3.5,0.1,5.2,0.2c1.8,0.1,3.5,0.4,5.2,0.6c1.7,0.3,3.4,0.7,5,1.1c1.6,0.5,3.2,1,4.7,1.7l0.1,0c0.1,0,0.2,0.1,0.3,0.1
		c0.5,0.2,1.1,0.2,1.6,0.2C731.2,422.5,729.4,421.2,727.5,420.1z"/>
	<path class="st35" d="M710.1,418.8c2.1,0.2,4.1,0.4,6.2,0.7c2,0.3,4.1,0.5,6.1,0.8c4,0.6,8,1.3,12.1,2.2c2,0.3,3.7,2.5,3.4,4.7
		c-0.3,2.5-2.7,4.1-5.1,3.6c-0.1,0-0.2-0.1-0.4-0.1l0,0c-3.7-1.2-7.5-2.3-11.4-3.2c-1.9-0.5-3.9-0.9-5.8-1.4
		c-1.9-0.4-3.9-0.8-5.8-1.2l0,0c-0.2-1.3-1.2-2.3-2.5-2.4C706.4,420.3,708.2,418.6,710.1,418.8z"/>
	<path class="st1" d="M730.2,427.7C730.2,427.7,730.2,427.7,730.2,427.7c-1-0.4-1.9-0.9-2.7-1.4c-5.7-1.6-11.3-3.3-17.2-4
		c-1.2-0.2-2.4-0.4-3.5-0.8c-0.2,1.6,0.9,3.1,2.5,3.4l0,0c1.9,0.4,3.9,0.8,5.8,1.2c1.9,0.4,3.9,0.9,5.8,1.4c3.7,0.9,7.4,1.9,11,3.1
		C731.4,429.6,730.8,428.7,730.2,427.7z"/>
	<path class="st35" d="M709.6,424.3c3.6,0.9,7.3,1.9,11,2.7c3.7,0.8,7.3,1.6,10.9,2.2l0,0c2.3,0.4,3.9,2.6,3.5,4.9
		c-0.4,2.3-2.6,3.9-4.9,3.5c-0.1,0-0.3-0.1-0.4-0.1c-3.8-1-7.5-2.2-11.1-3.4c-3.6-1.2-7.2-2.5-10.9-3.8c-1.6-0.6-2.4-2.4-1.8-4
		C706.4,424.7,708,423.9,709.6,424.3L709.6,424.3z"/>
	<path class="st35" d="M729,434.1c-2.7-0.4-5.5-1-8.2-1.7c-1.4-0.3-2.7-0.7-4.1-1.1c-1.3-0.4-2.7-0.9-4-1.3l-0.1,0
		c-1.4-0.5-2.9,0.1-3.6,1.4c-0.7,1.4-0.2,3.2,1.3,3.9c1.4,0.7,2.7,1.3,4.1,2c1.4,0.6,2.8,1.2,4.2,1.7v5.1c0,0,7.9-0.2,11.4-2.4
		c1.2-0.5,2.1-1.6,2.3-3C732.6,436.5,731.2,434.5,729,434.1z"/>
	<path class="st1" d="M723.6,437.4c-1.5-0.6-3-1.2-4.6-1.8c-0.7-0.2-1.4-0.4-2.1-0.7c-0.4-0.1-0.6-0.2-0.7-0.2
		c-2.8-0.4-5.3-1.5-7.2-3.1c-0.6,1.4,0,3,1.4,3.7c1.4,0.7,2.7,1.3,4.1,2c1.4,0.6,2.8,1.2,4.2,1.7v5.1c0,0,7.9-0.2,11.4-2.4
		c1-0.5,1.8-1.3,2.1-2.4C729.2,439.1,726.3,438.4,723.6,437.4z"/>
	<path class="st5" d="M572.5,322.9c-20.9-14.3-34.9,10.7-42.7,26.6c-11,21.5-18.9,44.1-25,67.3c-3,12.9,5.5,22.5,17,27
		c12,4.1,37.6,11.5,44.4-2.9c5.6-15.2-9.1-19.5-19.5-25.4c4.9-16.3,12.9-31.6,20.6-46.7C575.5,353.7,591,337.3,572.5,322.9z"/>
	<path class="st1" d="M731.6,436.7c-0.1-0.1-1-0.8-1.1-0.9c-0.6-0.4-1.2-0.8-1.8-1.2c-1-0.6-4.4-2.1-0.6-0.5c-0.8-0.3-1.5-0.6-2.1-1
		c-0.9-0.3-1.7-0.5-2.6-0.8c-5.2-1.7-10.4-2.3-15.5-4.8c-0.7-0.4-1.4-0.8-2-1.3c0,0,0,0,0,0.1c-0.6,1.6,0.2,3.4,1.8,4
		c3.6,1.3,7.2,2.6,10.9,3.8c3.7,1.2,7.3,2.4,11.1,3.4c0.1,0,0.3,0.1,0.4,0.1c0.7,0.1,1.5,0,2.1-0.2
		C732,437.1,731.8,436.9,731.6,436.7z"/>
	<path class="st7" d="M518.8,413c-2.3-16.8,20.1-74.4,27-87.8c-6.9,6.5-12.2,16.4-16,24.2c-11,21.5-18.9,44.1-25,67.3
		c-3,12.9,5.5,22.5,17,27c11.4,3.9,35.2,10.8,43.3-1C544.9,441.7,521.9,435.2,518.8,413z"/>
	<path class="st35" d="M557.5,427c1.1-0.7,4.4-1.7,4.4-1.7s3.9-7.5,4.5-8c3-2.3,6.1-2.3,6.1-2.3l5.4,30.8c0,0-6.8,3.3-9.4,2.7
		c-2.7-0.6-3.6-1.4-3.6-1.4l-3.5-0.3c-2.7-0.2-5.1-1.8-6.5-4.1c-1-1.7-1.8-3.8-1.8-6.1C553.3,430.3,555,428.5,557.5,427z"/>
	<g>
		<path d="M589.9,393.8l6.1,0l0.2,30.9l-6.1,0L589.9,393.8z"/>
		<path d="M598.9,393.8l6.3,0l2.6,11.7l0.8,3.4l-0.1-15.1l5.1,0l0.2,30.9l-5.6,0l-3.3-14.5l-0.8-3.4l0.1,17.9l-5.1,0L598.9,393.8z"
			/>
		<path d="M623.6,408l7,0l0.1,10.3c0,4.9-2.7,6.7-7,6.7c-4.4,0-7.2-1.9-7.2-7.3l-0.1-17.2c0-5.2,2.8-7.3,7.1-7.3
			c4.4,0,7.1,1.7,7.1,7.1l0,1.6l-5.9,0l0-2c0-1.4-0.3-1.9-1.1-1.9s-1.2,0.5-1.2,2.1l0.1,17.6c0,1.8,0.4,2.2,1.2,2.2
			c1,0,1.2-0.4,1.2-2.1l0-5.4l-1.3,0L623.6,408z"/>
		<path d="M633.2,393.6l11.1-0.1l0,4.8l-5.1,0l0,7.5l4,0l0,4.6l-4,0l0,9.2l5.4,0l0,4.8l-11.4,0.1L633.2,393.6z"/>
		<path d="M650.1,398.3l-3.7,0l0-4.8l13.4-0.1l0,4.8l-3.7,0l0.1,26.2l-6,0L650.1,398.3z"/>
		<path d="M666.7,417.8l-0.1-17.7c0-5.2,3-7.1,7.2-7.1c4.3,0,7.2,1.7,7.3,7l0.1,17.6c0,5.3-2.9,7.2-7.2,7.2
			C669.6,424.8,666.7,423.1,666.7,417.8z M675,417.6l-0.1-17.6c0-1.6-0.3-2.1-1.1-2.1c-0.7,0-1.1,0.5-1.1,2.1l0.1,17.6
			c0,1.7,0.4,2.2,1.1,2.2C674.7,419.8,675,419.4,675,417.6z"/>
		<path d="M683.8,393.3l7,0c5.3,0,6.9,1.7,7,5.8l0,4.2c0,2.9-1.3,4.1-3.8,4.6c2.8,0.5,4.2,2.1,4.3,5.4l0,4.3c0,5.3-2.2,6.6-7.2,6.7
			l-7.1,0L683.8,393.3z M690.5,405.9c1.2,0,1.5-0.5,1.5-2.2l0-4c0-1.7-0.4-2.1-1.5-2.1l-0.7,0l0,8.2L690.5,405.9z M690.7,419.8
			c1.3,0,1.6-0.6,1.6-2.7l0-4.5c0-2.2-0.4-2.5-1.7-2.5l-0.7,0l0.1,9.8L690.7,419.8z"/>
		<path d="M604.9,456.4l14.3-0.1l0,3.6l-14.3,0.1L604.9,456.4z"/>
		<path d="M626.3,439.8l6.1,0l0.2,30.9l-6.1,0L626.3,439.8z"/>
		<path d="M635.3,439.7l6.3,0l2.6,11.7l0.8,3.4l-0.1-15.1l5.1,0l0.2,30.9l-5.6,0l-3.3-14.5l-0.8-3.4l0.1,17.9l-5.1,0L635.3,439.7z"
			/>
		<path d="M660,454l7,0l0.1,10.3c0,4.9-2.7,6.7-7,6.7c-4.4,0-7.2-1.9-7.2-7.3l-0.1-17.2c0-5.2,2.8-7.3,7.1-7.3
			c4.4,0,7.1,1.7,7.1,7.1l0,1.6l-5.9,0l0-2c0-1.4-0.3-1.9-1.1-1.9s-1.2,0.5-1.2,2.1l0.1,17.6c0,1.8,0.4,2.2,1.2,2.2
			c1,0,1.2-0.4,1.2-2.1l0-5.4l-1.3,0L660,454z"/>
		<path d="M677.4,463.7l-2.7,0l-0.4,6.7l-5.4,0l2.9-30.9l9,0l3.2,30.9l-6,0L677.4,463.7z M675.7,449.3l-0.7,10.2l2.1,0l-0.8-10.2
			l-0.3-5L675.7,449.3z"/>
		<path d="M589.3,486.1l6.9,0c5.8,0,7.1,2.1,7.2,6.3l0,5.8c0,4.5-1.8,5.9-7,6l-1,0l0.1,12.9l-6,0L589.3,486.1z M596.1,499.9
			c1.1,0,1.4-0.4,1.4-2l0-5.2c0-1.4-0.2-1.9-1.4-1.9l-0.8,0l0,9.2L596.1,499.9z"/>
		<path d="M612.9,510.2l-2.7,0l-0.4,6.7l-5.4,0l2.9-30.9l9,0l3.2,30.9l-6,0L612.9,510.2z M607.8,481.6c0-2.1,1.6-3.8,3.8-3.8
			c2.3,0,3.9,1.7,4,3.7s-1.6,3.8-3.9,3.8C609.4,485.3,607.8,483.6,607.8,481.6z M612.9,481.5c0-0.8-0.5-1.4-1.3-1.4
			c-0.7,0-1.2,0.6-1.2,1.4c0,0.8,0.5,1.4,1.2,1.4C612.4,482.9,613,482.3,612.9,481.5z M611.2,495.8l-0.7,10.2l2.1,0l-0.8-10.2
			l-0.3-5L611.2,495.8z"/>
		<path d="M620.8,510.3l0-2.3l5.8,0l0,2.8c0,1.4,0.3,1.9,1.2,1.9c0.8,0,1-0.6,1-2.1l0-0.9c0-2.6-1.3-3.7-3.7-6.6
			c-2.7-3.3-4.2-5.4-4.2-9.9l0-0.5c0-4.6,2.4-6.9,6.9-7c4.5,0,6.7,2.2,6.7,6.5l0,2.2l-5.7,0l0-2.4c0-1.2-0.4-1.5-1-1.5
			c-0.7,0-1,0.4-1,1.7l0,0.5c0,2.2,1,2.9,3.3,5.8c2.4,3.1,4.8,5.3,4.8,10.4l0,1.4c0,5-2.5,7.2-7.1,7.2
			C623.9,517.3,620.9,515.4,620.8,510.3z"/>
		<path d="M646.7,516.7l-3.4-14.4l0.1,14.4l-6,0l-0.2-30.9l6,0l0.1,13l3.4-13l5.9,0l-3.9,14.5l4.3,16.4L646.7,516.7z"/>
		<path d="M662.7,510l-2.7,0l-0.4,6.7l-5.4,0l2.9-30.9l9,0l3.2,30.9l-6,0L662.7,510z M655.3,481.9c0-1.6,1.2-2.9,2.9-2.9
			c1.6,0,2.9,1.2,2.9,2.8c0,1.6-1.2,2.9-2.9,2.9S655.3,483.5,655.3,481.9z M661,495.5l-0.7,10.2l2.1,0l-0.8-10.2l-0.3-5L661,495.5z
			 M662,481.8c0-1.6,1.2-2.9,2.8-2.9c1.6,0,2.9,1.2,3,2.8c0,1.6-1.3,2.9-2.9,2.9C663.2,484.7,662,483.4,662,481.8z"/>
		<path d="M678.1,500.1l7,0l0.1,10.3c0,4.9-2.7,6.7-7,6.7c-4.4,0-7.2-1.9-7.2-7.3l-0.1-17.2c0-5.2,2.8-7.3,7.1-7.3
			c4.4,0,7.1,1.7,7.1,7.1l0,1.6l-5.9,0l0-2c0-1.4-0.3-1.9-1.1-1.9s-1.2,0.5-1.2,2.1l0.1,17.6c0,1.8,0.4,2.2,1.2,2.2
			c1,0,1.2-0.4,1.2-2.1l0-5.4l-1.3,0L678.1,500.1z"/>
		<path d="M694.9,500l7,0l0.1,10.3c0,4.9-2.7,6.7-7,6.7c-4.4,0-7.2-1.9-7.2-7.3l-0.1-17.2c0-5.2,2.8-7.3,7.1-7.3
			c4.4,0,7.1,1.7,7.1,7.1l0,1.6l-5.9,0l0-2c0-1.4-0.3-1.9-1.1-1.9s-1.2,0.5-1.2,2.1l0.1,17.6c0,1.8,0.4,2.2,1.2,2.2
			c1,0,1.2-0.4,1.2-2.1l0-5.4l-1.3,0L694.9,500z"/>
	</g>
	<path class="st35" d="M594.5,421.3l-1.1-0.2c-0.4-0.1-0.9-0.1-1.3-0.1c-0.9-0.1-1.8-0.1-2.8-0.1c-1.9,0-3.8,0.2-5.6,0.4
		c-1.9,0.3-3.8,0.6-5.6,1.1c-0.9,0.2-1.9,0.5-2.8,0.8l-2.8,0.9l-0.2,0.1c-2.5,0.8-5.3-0.6-6.1-3.1c-0.8-2.5,0.6-5.3,3.1-6.1
		c0.2-0.1,0.3-0.1,0.5-0.1l3.2-0.7c1.1-0.2,2.2-0.4,3.3-0.5c2.2-0.3,4.4-0.5,6.7-0.6c2.2-0.1,4.5,0,6.7,0.2c1.1,0.1,2.3,0.3,3.4,0.5
		c0.6,0.1,1.1,0.2,1.7,0.4c0.3,0.1,0.6,0.1,0.9,0.2c0.3,0.1,0.6,0.2,1,0.3c1.8,0.6,2.8,2.7,2.1,4.5c-0.6,1.6-2.2,2.6-3.9,2.3
		L594.5,421.3z"/>
	<path class="st1" d="M578.3,420.8c-0.5,0.3-1,0.6-1.5,0.9c0,0.3,0,0.7,0.1,1c0.4-0.1,0.7-0.2,1.1-0.3c1.9-0.5,3.7-0.8,5.6-1.1
		c1.9-0.2,3.8-0.4,5.6-0.4c0.9,0,1.9,0,2.8,0.1c0.5,0,0.9,0.1,1.3,0.1l1.1,0.2l0.5,0.1c1.5,0.3,3-0.5,3.7-1.9
		C594.9,419.4,580.9,418.8,578.3,420.8z"/>
	<path class="st35" d="M600.1,427.2c-1.9,0.2-4.1,0.5-6.1,0.8c-2.1,0.3-4.1,0.7-6.2,1.1c-4.1,0.8-8.3,1.7-12.4,2.7
		c-2.6,0.6-5.2-1-5.8-3.6c-0.6-2.6,1-5.2,3.6-5.8c0.2,0,0.3-0.1,0.5-0.1c4.3-0.6,8.7-1.1,13-1.5c2.2-0.2,4.4-0.3,6.6-0.5
		c2.2-0.1,4.3-0.2,6.7-0.2c2,0,3.5,1.6,3.5,3.5c0,1.8-1.4,3.3-3.2,3.5L600.1,427.2z"/>
	<path class="st1" d="M603.3,423c-0.4,0.1-0.9,0.1-1.3,0.2c-9,0.8-17.7,3.5-26.4,6.4c0,0.7,0,1.4,0,2.1c4-1,8.1-1.8,12.2-2.6
		c2.1-0.4,4.1-0.7,6.2-1.1c2.1-0.3,4.2-0.6,6.1-0.8l0.1,0c1.8-0.2,3.2-1.7,3.2-3.5C603.4,423.4,603.4,423.2,603.3,423z"/>
	<path class="st35" d="M600,432.5c-2.2,0.9-4.1,1.5-6.2,2.2c-2,0.7-4.1,1.3-6.1,1.9c-4.1,1.2-8.2,2.3-12.4,3.3l0,0
		c-2.6,0.6-5.2-1-5.8-3.6c-0.6-2.6,1-5.2,3.6-5.8c0.2,0,0.3-0.1,0.5-0.1c4.1-0.6,8.1-1.2,12.2-1.9c2-0.4,4-0.8,6-1.2
		c2-0.4,4-0.9,5.8-1.4l0.1,0c1.9-0.5,3.8,0.6,4.4,2.4C602.6,430,601.7,431.8,600,432.5z"/>
	<path class="st35" d="M596.1,437.6c-1.6,1.1-3.1,1.9-4.7,2.8c-1.6,0.8-3.2,1.6-4.8,2.4c-3.3,1.5-6.6,2.7-10,3.8
		c-2.1,0.6-4.3-0.5-4.9-2.6c-0.6-2.1,0.5-4.3,2.6-4.9c0.1,0,0.3-0.1,0.4-0.1c3.2-0.6,6.4-1.5,9.5-2.5c1.6-0.5,3.1-1.1,4.6-1.7
		c1.5-0.6,3.1-1.3,4.4-2l0.1-0.1c1.4-0.7,3.2-0.2,3.9,1.2C597.8,435.2,597.4,436.8,596.1,437.6z"/>
	<path class="st1" d="M597.1,433.9c0-0.1-0.1-0.1-0.1-0.2c-0.7,0.7-1.4,1.3-2.2,1.9c-4.6,3.1-10,4.6-14.9,6.6c-2.5,1-5,2.2-7.5,3.1
		c0.3,0.4-13.5-2.2-19-6.6c0.3,1.5,0.9,2.9,1.6,4c1.4,2.3,3.8,3.9,6.5,4.1l3.5,0.3c0,0,0.9,0.8,3.6,1.4c1.9,0.4,5.7-1,7.9-2
		c0.1,0,0.2,0,0.2-0.1c3.4-1.1,6.8-2.3,10-3.8c1.6-0.7,3.2-1.5,4.8-2.4c1.6-0.9,3.1-1.7,4.7-2.8
		C597.4,436.8,597.8,435.2,597.1,433.9z"/>
	<path class="st1" d="M602.2,428.7c-0.2,0.1-0.4,0.3-0.7,0.4c-8.5,3.7-17.1,7.5-26,8.9c0,1-0.1,1-0.4,1.9c0,0,0.1,0,0.1,0l0,0
		c4.1-1,8.3-2.1,12.4-3.3c2-0.6,4.1-1.2,6.1-1.9c2.1-0.7,4-1.4,6.2-2.2C601.5,431.9,602.4,430.3,602.2,428.7z"/>
</g>
<path class="st6" d="M974.3,633.3c-1.9,3.2,3.2,6.6,4.7,7.5c0,0-0.4,0.8-0.7,1.5c-0.2,0.7-0.3,1.3-0.3,1.3s-0.9-0.5-1.9,1.1
	s0.8,3.8,2.7,5c1.9,1.1,3.1,1.6,3.9,2.1c1.1,0.7,1.9,2.8,4.2,4.2c4.4,2.7,6.4,3,8.3,2.9c2.4-0.1,3.8-0.3,5.8-2.5
	c2.6-2.8,1.7-5.4,0.7-7.2c-0.9-1.8-1.5-2.6-6.6-5.7c-1-0.6-2.1-1-3.1-1.6c-1-0.6-7-4.6-7.7-4.9C983.8,636.5,975.2,631.8,974.3,633.3
	z"/>
<path class="st17" d="M982.1,643l-1,1.9c0,0,1.8,0.9,3.6,2.7c0,0,0.2-0.6-0.1-1.7C984.3,644.7,982.1,643,982.1,643z"/>
<path class="st31" d="M1097.9,630.4c2.8,0.4,3.7,3.3,3.7,5.1c0,1.5-1.3,4.6-4.6,3.9c-3.3-0.6-3.3-5.4-2.6-7
	C1095.2,630.5,1097.9,630.4,1097.9,630.4z"/>
<path class="st31" d="M1253.6,638.1c2.8,0.4,3.7,3.3,3.7,5.1c0,1.5-1.3,4.6-4.6,3.9c-3.3-0.6-3.3-5.4-2.6-7
	C1251,638.2,1253.6,638.1,1253.6,638.1z"/>
<polygon class="st7" points="639.2,359.8 640.1,359.9 660.6,359.6 659.4,353.1 659.1,352.1 "/>
<polygon class="st32" points="638.7,353 639.2,359.8 659.6,358.8 659.1,352.1 "/>
<polygon class="st7" points="429.2,367.7 430,367.7 450.2,364.1 447.9,357.9 447.5,357 "/>
<polygon class="st32" points="427.5,361.2 429.2,367.7 449.1,363.5 447.5,357 "/>
<path class="st6" d="M404.3,262.1c-0.2-0.1-3.2-1.5-7.7,0.2c-4.5,1.7-4.9,2.7-2.4,2.6c2.5-0.1,6.2-1.3,9.6-1.2
	C405.7,263.8,404.7,262.4,404.3,262.1z"/>
<path class="st6" d="M417.8,263c0.2-0.1,2.8-1.6,6.9,0.1c4.1,1.7,4.4,2.7,2.1,2.5c-2.3-0.2-3.1-1-8.3-1.1
	C416.8,264.4,417.4,263.2,417.8,263z"/>
<path class="st37" d="M412.4,272.3c-0.1-0.7-1.3-0.8-1.2,0c0.2,1.3,0.5,2.5,1,3.7c0.3,0.7,0.8,1.5,0.9,2.3c0.1,0.7-0.3,2.8-1.1,3.5
	c-0.1,0.1-0.3,0.2-0.3,0.4c0,0,0,0,0,0.1c-0.2,0.5,0.4,0.9,0.9,0.7c1-0.7,1.8-2.5,1.8-3.7C414.5,276.7,412.7,274.6,412.4,272.3z"/>
<path class="st31" d="M405.5,291.5c0.4,1.1,4,0.6,6.5,0.7c2.5,0.1,4.8,0.3,5.1-0.5c0.3-0.8-2.2-1.8-5.4-1.8
	C408.6,289.9,405.2,290.5,405.5,291.5z"/>
<g>
	<path d="M398.9,271.1c-0.1-2.3,0.8-3.3,1.8-3.3c0.9,0,1.5,0.8,1.6,3.2s-0.6,3.2-1.6,3.3C399.7,274.3,399,273.4,398.9,271.1z"/>
</g>
<g>
	<path d="M420.4,270.7c0-2.2,0.8-2.9,1.7-2.9c0.9,0,1.5,0.6,1.5,2.9c0,2.2-0.7,3.1-1.6,3.1C421.2,273.8,420.5,272.9,420.4,270.7z"/>
</g>
<path d="M612.4,246c-0.2-0.1-2.9-2-7.6-1c-4.7,0.9-5.3,1.9-2.7,2.2c2.5,0.3,6.3-0.3,9.7,0.4C613.5,247.9,612.8,246.3,612.4,246z"/>
<path d="M625.7,246.8c0.2-0.1,2.5-2,6.8-0.9c4.3,1.1,4.8,2,2.5,2.1c-2.3,0.2-3.2-0.5-8.4,0.2C625,248.4,625.3,247,625.7,246.8z"/>
<path class="st1" d="M620.5,255.3c-0.1-0.7-1.3-0.8-1.2,0c0.2,1.3,0.5,2.5,1,3.7c0.3,0.7,0.8,1.5,0.9,2.3c0.1,0.7-0.3,2.8-1.1,3.5
	c-0.1,0.1-0.3,0.2-0.3,0.4c0,0,0,0,0,0.1c-0.2,0.5,0.4,0.9,0.9,0.7c1-0.7,1.8-2.5,1.8-3.7C622.6,259.7,620.7,257.6,620.5,255.3z"/>
<path class="st38" d="M613.5,274.4c0.4,1.1,3.6,1.2,6.2,1.3c2.5,0.1,5.2-0.3,5.5-1.1c0.3-0.8-2.6-1.2-5.7-1.2
	C616.3,273.5,613.2,273.5,613.5,274.4z"/>
<g>
	<path d="M606.9,254.1c-0.1-2.3,0.8-3.3,1.8-3.3c0.9,0,1.5,0.8,1.6,3.2c0.1,2.3-0.6,3.2-1.6,3.3C607.8,257.3,607,256.4,606.9,254.1z
		"/>
</g>
<g>
	<path d="M628.5,253.7c0-2.2,0.8-2.9,1.7-2.9c0.9,0,1.5,0.6,1.5,2.9c0,2.2-0.7,3.1-1.6,3.1C629.2,256.8,628.5,255.9,628.5,253.7z"/>
</g>
<path class="st37" d="M377.7,280.3c-2.3-1.3-3.4-6.2-3.4-9.7s2-3.6,2-3.6s1.8-0.2-0.3,5.6C374.9,276.7,377.7,280.3,377.7,280.3z"/>
<path class="st1" d="M588.4,264.3c-2.3-1.3-3.4-6.2-3.4-9.7s2-3.6,2-3.6s1.8-0.2-0.3,5.6C585.6,260.6,588.4,264.3,588.4,264.3z"/>
</svg>
