<?xml version="1.0" encoding="utf-8"?>
<!-- Generator: Adobe Illustrator 27.0.1, SVG Export Plug-In . SVG Version: 6.00 Build 0)  -->
<svg version="1.1" xmlns="http://www.w3.org/2000/svg" xmlns:xlink="http://www.w3.org/1999/xlink" x="0px" y="0px"
	 viewBox="0 0 1600 900" style="enable-background:new 0 0 1600 900;" xml:space="preserve">
<style type="text/css">
	.st0{fill:#500B00;}
	.st1{fill:#E5BB86;}
	.st2{fill:#D3A472;}
	.st3{fill:#272A2F;}
	.st4{fill-rule:evenodd;clip-rule:evenodd;fill:#FFDFB9;}
	.st5{fill:#BE6500;}
	.st6{fill-rule:evenodd;clip-rule:evenodd;fill:#D3A472;}
	.st7{fill-rule:evenodd;clip-rule:evenodd;fill:#E5BB86;}
	.st8{fill:#B98A50;}
	.st9{fill:#F28000;}
	.st10{fill:#E07000;}
	.st11{fill:#FFFFFF;}
	.st12{fill:#D6E5F0;}
	.st13{fill:#E6BC87;}
	.st14{fill:#191919;}
	.st15{fill:#002B33;}
	.st16{fill:#BF6500;}
	.st17{fill:#AFAFB1;}
	.st18{fill:#A9917C;}
	.st19{fill:#999999;}
	.st20{fill:#D4A572;}
	.st21{fill:none;stroke:#272425;stroke-width:0.8215;stroke-miterlimit:10;}
	.st22{fill:#573B1C;}
	.st23{fill:#DBB378;}
	.st24{fill:#CCA06E;}
	.st25{fill:#1D1D1D;}
	.st26{fill:#97672C;}
	.st27{fill:#CECECE;}
	.st28{fill:#96672C;}
	.st29{fill:#485E7B;}
	.st30{fill:#013F4B;}
	.st31{fill:#A2A1A1;}
	.st32{fill:#6B410C;}
	.st33{fill:#454545;}
	.st34{fill:#01363D;}
	.st35{fill:#00171C;}
	.st36{fill:#A3A2A2;}
	.st37{fill:#ED492E;}
	.st38{fill-rule:evenodd;clip-rule:evenodd;fill:#CBD0DB;}
	.st39{fill-rule:evenodd;clip-rule:evenodd;fill:#CECECE;}
	.st40{fill:#1E1E1E;}
	.st41{fill:url(#SVGID_1_);}
	.st42{fill:#FFDFB9;}
	.st43{fill:#F7DCBB;}
	.st44{fill:url(#SVGID_00000004506205319238111690000004885854699409912467_);}
	.st45{fill:url(#SVGID_00000003800450798299717490000007112677463771294861_);}
	.st46{fill:#1C1C1E;}
	.st47{fill:url(#SVGID_00000181800382938636097980000003369568416756341647_);}
</style>
<g id="Lager_1">
	<ellipse class="st0" cx="666.1" cy="867.8" rx="175.4" ry="26.8"/>
	<g>
		<g>
			<g>
				<g>
					<ellipse class="st0" cx="1009.4" cy="592.5" rx="138.1" ry="21.1"/>
					<path class="st1" d="M982.9,308.9c-0.5,0.9-4,34.3-4.6,83c-0.2,10.7,4.7,43.2,1.3,63.7c-2.4,14.7-10.2,32-10.5,49.4
						c-0.3,13.4,12.5,59.3,11.9,69.9c-1.2,7.4,10.5,7.8,11.2,0.3c0-0.4-0.1-3.3,0.3-6.5c0.2-1.7,0.2-2.2,0.3-4.3
						c0.6-14.7,5.4-31.4,6.2-37s4.8-18.7,3.8-28.9c-1-10.2-0.3-20,0.5-25.7c0.7-5.8,3.9-13.9,7.3-38.9c3.4-25,10-49.7,11.7-60.4
						c1.7-10.7,3.3-36.9,3.3-36.9s-17-20.4-22.5-25.6C997.5,305.7,982.9,308.9,982.9,308.9z"/>
					<path class="st1" d="M1032,335.7c0,4,2.6,61.1,2.3,74.9c-0.4,13.7-3.3,29.3-2.5,35.8c0.7,6.5,1.4,18.4,0.7,27.5
						c-0.7,9-5.4,24.9,0,44.1c1,4.9,0.1,12-0.3,18.3c-0.8,11.9-2.3,22.7-2.3,22.7s0.4,6.3,1.2,7.7c6.1,10.6,9.2-1.8,9.2-1.8
						s22.2-53.9,21.9-73.4c-0.4-19.5-2.9-46.3-1.1-53.9s22.5-100.9,22.1-107.4c0,0,1.3-11.4-2-35.4
						C1077.8,270.5,1032,335.7,1032,335.7z"/>
					<g>
						<path class="st2" d="M980.6,432.7c0.1,2.8,0.1,5.6,0,8.4l0,0c0.6,0,19.7,0.6,28.6,0.9c0.4-2.5,0.8-5.2,1.2-8.1
							c0.3-2.3,0.7-4.7,1-7C1003.4,428.5,989,431.2,980.6,432.7z"/>
						<path class="st2" d="M1033.5,422.3c-0.6,6.4-1.4,12.5-1.7,17.4l31-9.1c0.8-3.4,1.9-7.7,3.1-12.6L1033.5,422.3z"/>
					</g>
				</g>
				<g>
					<g>
						<path class="st3" d="M1005.8,132.8c0,0,12.6-7.2,20.1-6.8c5.7,0.3,19.2,8.1,19.2,8.1l0.5,10.5l-38.4-3.4L1005.8,132.8z"/>
					</g>
					<g>
						<path class="st4" d="M1051.4,191.9c17-16.5,13-67.2,10.5-89.7c-2.9-26.3-15.1-51.4-31.3-48.3c-24.3-6.6-37,21.1-37.8,49.6
							c-0.7,23.6-5,76.3,22.7,90.3c5.3,0.9,10.8,1.3,16.4,1.1C1038.6,194.8,1045.2,193.7,1051.4,191.9L1051.4,191.9L1051.4,191.9z"
							/>
						<path class="st5" d="M1005,133.6c0,0,0.4-2.5,7.1-2.5s33.1-1.8,34,4.8s-31.3,6.4-31.3,6.4s-7.4-2.6-7.3-2.8
							C1007.5,139.3,1005,133.6,1005,133.6z"/>
						<path class="st1" d="M980.5,147.2c3.3,91.2,9.4,90.3,9.4,90.3l-10.3,47.8l1,23l41.5,28.7l10-1.3l49.1-41.5
							c0,0-12.2-27.6-25.7-47.3c-5-12,21.9-89.9,21.9-89.9s-30.6-9-34-20.1c-3.1-10.2-0.6-18.5-0.6-24.3c0-13-9.6-14.2-15.4-14.6
							c-6-0.4-15.2,1.9-16.1,7.5c-1.1,6.5,5.3,22.8-4.4,31.8C1002.3,141.7,995.4,146.6,980.5,147.2z"/>
						<path class="st6" d="M1011.6,113.8c1.5,8.7,0.2,14.7,0.2,14.7s22.9,13.3,29.9-9.5c0.8-2.7,1.3-6.7,1.3-6.7L1011.6,113.8z"/>
						<path class="st7" d="M1050.1,88.3c2.1-0.1,3.5,4.6,2.5,9.2c-1,4.6-1.5,8.7-3.6,8.8c-2.1,0.1-1.3-2.9-1.5-8.2
							C1047.3,92.7,1048,88.4,1050.1,88.3L1050.1,88.3L1050.1,88.3z"/>
						<path class="st6" d="M1049.5,90c0.9-0.1,1.6,2.3,1.9,3.6c0.3,1.3,0.3,4.6-0.3,6.4c-0.5,1.4-1.3,5.2-1.8,0.7
							c-0.1-1.1,0.4-1.4,0.6-2.8c0.2-1.4-0.5-2.3-0.9-2.7C1047.5,93.7,1048.6,90.1,1049.5,90L1049.5,90L1049.5,90z"/>
						<path class="st7" d="M1002.9,89.9c-2.1,0.1-3.2,4.8-1.8,9.3c1.4,4.5,2.2,8.6,4.2,8.5c2.1-0.1,1.1-3,0.9-8.3
							C1006,94.1,1005,89.9,1002.9,89.9L1002.9,89.9L1002.9,89.9z"/>
						<path class="st6" d="M1003.6,91.6c-0.9-0.1-1.5,2.4-1.6,3.7c-0.2,1.3,0,4.6,0.8,6.3c0.6,1.4,1.7,5.1,1.9,0.6
							c0.1-1.2-0.5-1.4-0.8-2.8c-0.3-1.4,0.4-2.4,0.7-2.8C1005.8,95.1,1004.5,91.7,1003.6,91.6L1003.6,91.6L1003.6,91.6z"/>
						<path class="st7" d="M1025.7,61.6c-23.8,0.8-21.3,14.9-20.6,34.3c0.7,19.4,14.4,31.8,23.2,30.8c8-0.5,20.9-12.2,20.2-31.6
							c-0.5-14.8,0.8-26.9-9.7-31.5C1035.5,62.1,1031.3,61.5,1025.7,61.6L1025.7,61.6L1025.7,61.6z"/>
						<path class="st4" d="M1048.4,90.8c-3.3-11.5-3.3-15.2-14.3-23.5c-12.3,14.2-27.2,10-29.2,27c-3.2-2.2-2.4-8-2.4-10.7
							c0-12.8,11.3-27.1,23.2-26c17,2.8,20.2,7.7,26.2,27.9L1048.4,90.8L1048.4,90.8L1048.4,90.8z"/>
						<g>
							<path d="M1039.4,96.2c0-1.7-0.9-2.8-1.9-2.8c-1.1,0-1.9,1.1-1.9,2.8c0,1.7,0.9,3,1.9,3C1038.6,99.2,1039.4,97.9,1039.4,96.2
								L1039.4,96.2z"/>
						</g>
						<g>
							<path class="st8" d="M1041.9,91.6c0.1,0,0.2,0,0.3-0.1c0.3-0.2,0.2-0.7,0-1c-1.2-1.1-2.1-1.4-3.9-1.7c-2-0.3-3.8,0.2-5.4,1.5
								c-0.3,0.2-0.3,0.7-0.1,1c0.2,0.2,1,0.2,1.3,0.1c2.3-0.9,2.7-1.2,3.8-1.2c1.4,0,2.5,0.4,3.5,1.2
								C1041.5,91.4,1041.7,91.6,1041.9,91.6z"/>
						</g>
						<g>
							<path d="M1015.5,96.3c0-1.7,0.9-2.8,1.9-2.8c1.1,0,1.9,1.1,1.9,2.8c0,1.7-0.9,3-1.9,3C1016.4,99.3,1015.5,98,1015.5,96.3
								L1015.5,96.3z"/>
						</g>
						<g>
							<path class="st8" d="M1031.2,105c0,0-1.8-3.4-2-3.9c-1.3-3-1.6-4.9-1.1-6.1c0.1-0.2,0.3-0.3,0.5-0.2c0.2,0.1,0.3,0.3,0.2,0.5
								c-0.4,1-0.1,2.8,1.1,5.5c0.2,0.4,2.7,4.6,2.6,4.7c0,0.2-4.8,1.4-5.4,1.6c-0.4,0.1-0.7-0.6-0.2-0.8
								C1027.5,106.1,1031.2,105,1031.2,105z"/>
						</g>
						<g>
							<path class="st8" d="M1013.1,91.5c-0.1,0-0.2,0-0.3-0.1c-0.3-0.2-0.2-0.7,0-1c1.2-1.1,2.1-1.4,3.9-1.7c2-0.3,3.8,0.2,5.4,1.5
								c0.3,0.2,0.3,0.7,0.1,1c-0.2,0.2-1,0.2-1.3,0.1c-2.3-0.9-2.7-1.2-3.8-1.2c-1.4,0-2.5,0.4-3.5,1.2
								C1013.4,91.3,1013.3,91.5,1013.1,91.5z"/>
						</g>
						<g>
							<path class="st2" d="M1022.4,147.5c0.3,0.4,1.9,3.7,3.1,3.8c1.2,0.2,3.9-2.9,3.9-2.9l-3.7,1.2L1022.4,147.5z"/>
						</g>
					</g>
				</g>
				<g>
					<path class="st9" d="M1081.5,295c0-0.2-0.3-0.9-0.3-0.9s-10.3-25.8-23.5-45.5c-17.3,4-61.4,8.6-75.4,12
						c-1.3,12.2-2.6,24.7-2.6,24.7s0.8,18.2,0,23c-3.4,11-4.3,34.3-6.1,82.9c-0.3,8.4-2.1,30.3-2.9,49.2l99.1-10.1
						c5.8-23.6,15.1-92.1,15.7-97.8C1086.6,323.9,1087.4,314.9,1081.5,295z"/>
					<g>
						<path class="st10" d="M1034.9,434.1c-4.9-27-9-76.4-14.3-76.7c-6.4-0.3-16.6,64.3-18.8,80L1034.9,434.1z"/>
					</g>
					<path class="st10" d="M1016.2,294.2c0,0,5-9.4,5.3-8.6c0.3,0.8,3.6,6,3.6,6l55.2,0.2c-2-4.9-7.1-16.7-13.7-28.9
						c-19.1,3.9-71.4,13.7-86.3,16.9c0,0.1,0,0.1,0,0.2c0,0.1,0,0.2,0,0.2c-0.2,1.6-0.3,2.9-0.4,3.8c0,0.1,0,0.2,0,0.3
						c0,0.1,0,0.2,0,0.3c0,0.1,0,0.1,0,0.2c0,0.3-0.1,0.5-0.1,0.5l0.3,18.5L1016.2,294.2z"/>
				</g>
				<path class="st11" d="M1053.7,215.1c6.2-26.2,23.8-58.1,23.8-58.1s-7.9-2.6-16.2-6.5c-1.5,4.4-13.4,23.1-13.4,23.1
					s-15.9,1.5-24.6,0.8c-8.7-0.7-26.4-3.8-26.4-3.8s-1.2-23.2-0.9-28.4c-1,0.2-2.2,0.3-3.3,0.5h0c-0.1,0-0.3,0-0.4,0.1h0
					c-0.6,0.1-1.2,0.1-1.8,0.2c-0.1,0-0.2,0-0.3,0l0,0c-0.3,0-0.6,0.1-0.9,0.1c-0.4,0-0.8,0.1-1.3,0.1c0,0,0,0,0,0
					c-2.2,0.2-4.5,3.9-7.2,4c0,0,4.4,40.4,5.5,68H1053.7z"/>
				<path class="st9" d="M1046.1,141l-25.4,57.5c0,0-7.5-43.9-12.7-62.9c-0.4,0.5-0.9,1.1-1.5,1.6c-4.7,4.3-20.4,5.2-34.9,9.6
					c0,0,4.8,25.2,8.6,39.5c-2.6,3.8-2.3,7.1-2.3,11.5c0,4.8,2.7,11,6.1,14.3c0.8,20.5-0.5,24.3-0.3,25.2c0.3,1.5-5.1,44.7-6.6,58.2
					l37.2-4.4l5.9-10.3l5.5,8.1l51.6-6.3c-2.4-4.3-18.3-32.2-21-36.1c-1.8-4,0.6-18.3,5.2-36.5c3.8-2.6,6.9-7.3,7.7-11.9
					c0.7-3.7,0.9-10.2-0.7-13.5c6-15.7,6.2-29.4,6.2-29.4S1054.7,149.5,1046.1,141z"/>
				<g>
					<g>
						<polygon class="st5" points="1020.7,281 1015.4,237.1 1021.5,208.8 1018.5,236.7 						"/>
					</g>
					<path class="st5" d="M1027.1,237.5c0,1.9-1.5,3.4-3.4,3.4c-1.9,0-3.4-1.5-3.4-3.4c0-1.9,1.5-3.4,3.4-3.4
						C1025.6,234.1,1027.1,235.6,1027.1,237.5z"/>
				</g>
			</g>
			<g>
				<path class="st10" d="M1071.7,273.3c-2.3-2.2-4.4-4.3-5.3-6.5c-4.4-1.5-9-2.2-13.5-1.2c-1.8,0.4-3.6,1.1-4.7,2.6
					c1.4,0.3,2.9,0.7,4.3,1c0.9,0.2,2.1,0.9,1.7,1.7c-0.2,0.5-0.9,0.7-1.2,1.2c-0.2,0.5,0.1,1.1,0,1.6c-0.1,0.7-0.8,1.1-1.3,1.6
					c-0.6,0.4-1.1,1.2-0.7,1.8c0.3,0.5,1,0.6,1.5,0.6c1.4,0,2.8,0.1,4.1,0.1c0.5,0,0.9,0,1.3,0.3c1,0.6,0.8,2.2,0.2,3.3
					c-0.6,1.1-0.9,2.8-0.4,3.9c2.6-1.3,10.2-4.5,13-4c0.7,0.1,1.9,0.5,3.3,1c0.1-0.1,0.3-0.2,0.4-0.3
					C1073.6,278.8,1072.7,276,1071.7,273.3z"/>
				<g>
					<path class="st1" d="M1086.4,269.1c-0.5-0.3-2.2,1.5-5.3-0.5c-8.6-5.4-16.2-6-16.2-6s-1.3,1.1-1.6,1.8c-0.3,0.7,7,12.6,7,12.6
						s5.8,2.2,7.2,3.5c1.5,1.3,7,1.8,13.7-3.4C1093.4,275.4,1087.6,269.8,1086.4,269.1z"/>
					<path class="st1" d="M1047.1,267.7c0,0,2.3-2.9,7-4.5c4.7-1.6,10.9-0.6,10.9-0.6s2.6,2.7,1.9,3s-2.1,1.4-2.1,1.4s-7.6-1.1-9-1
						c-0.9,0.2-6.2,2.2-7.1,2.3C1047.7,268.5,1047.1,267.7,1047.1,267.7z"/>
					<path class="st1" d="M1047.3,274.4c-0.2-0.4,0-1.3,0.8-1.7c0.7-0.4,7.6-4.5,8.6-4.7c1-0.2,6.2-1.9,9.6-2.6
						c0.9-0.2,3.8,6.7,3.8,6.7l-2.2,1.6c0,0-7.4,1.1-8.5,1.5c-1.2,0.4-8,3.3-9,2c-1.4-1.1,1.2-2.5,1.2-2.5S1048,276.1,1047.3,274.4z
						"/>
					<path class="st1" d="M1056.5,283.6c0.3-1.1,4.8-6.4,4.8-6.4s8.6-5.2,9-5c0.3,0.2,1.9,2.4,1.8,2.8c-0.1,0.4-0.1,1.3-0.9,1.8
						c0,0-5.4,2.2-6.4,2.5c-1,0.2-6,5.6-6.8,6C1057.2,285.5,1056.1,285.1,1056.5,283.6z"/>
				</g>
				<path class="st11" d="M1101.2,271.8l-10.9-11c-2.1,3.5-4.8,7.8-4.8,7.8l6.2,11C1091.8,279.7,1096.9,276.6,1101.2,271.8z"/>
			</g>
			<g>
				<g>
					<g>
						<g>
							<g>
								<path class="st1" d="M951.9,185.9l-4.1-24.2l-1.3-17.8l-11.9,10.9c0,0-0.1,14.4,0.4,31.1H951.9z"/>
							</g>
						</g>
						<path class="st12" d="M958.1,197l1.2-5.8c-0.8,2.9-2.9,7-3.8,7.7c-1.5,1.2-4.8-30.3-4.8-30.3l-17.1-2.6c0,0,0.2,51.7,4.4,58.5
							c4.2,6.9,9.2,17.5,15.7,17.1c10.7-0.7,20.3-25.6,20.3-25.6c2.1-4.5,4.6-12.8,5.9-19H958.1z"/>
					</g>
					<g>
						<polygon class="st11" points="933.5,165.6 933.7,179.5 952.5,179.5 951,167.1 						"/>
					</g>
				</g>
				<g>
					<path class="st9" d="M958.4,185.9c-0.2,2.4-1.6,9.7-3.1,10.9c-1.5,1.2-3.1-26.2-3.1-26.2l-20.7-0.2c0,0,2.5,44,5.8,54.4
						c3.3,10.4,9.7,17.2,16.3,16.8c10.7-0.7,20.3-25.6,20.3-25.6c2.9-6.1,7.6-19.3,7.9-24.5c-1-2.6,0.4-9.3,0.7-10.9
						c0.5-2.9-9.8-33.2-10.1-33.8c-0.3-0.6-4.6,2.3-6.6,5.8C961.9,159.3,958.7,183.4,958.4,185.9z"/>
				</g>
				<g>
					<path class="st1" d="M940.5,136.3c0,0,0.6-10.3,1.2-18.9c0.4-6.2,0.4-11.4-0.8-11.5c-1.2-0.1-1.3-0.2-1.6,0.8
						c-2.1,6.5-2.4,29.3-2.4,29.3L940.5,136.3z"/>
					<path class="st1" d="M937,135.8c0,0,0.4-6.9,0.9-13.8c0.5-6.3,0.9-12.5,0.7-13.1c-0.4-1-1.1-0.8-1.7-0.9
						c-1-0.2-1.4,2.6-1.6,3.6c-0.9,5-1.2,24.4-1.2,24.4L937,135.8z"/>
					<path class="st1" d="M934.1,136.1c0,0,0.2-6.2,0.7-12.3c0.4-5.7,0.4-11.4-1.1-11.5c-0.7-0.1-0.9,1.1-1.2,2
						c-0.3,1.1-0.9,6.2-1.2,10.5c-0.4,6-0.3,11.6-0.3,11.6L934.1,136.1z"/>
					<g>
						<g>
							<path class="st2" d="M943.4,132.7c-0.6,0.1-12.3,0.6-12.4,0.8c0,0-1.3,21.7,4.2,24.2c5.5,2.5,13.8-9.8,13.8-9.8
								s-2.5-4.1-3.8-6.1C944.1,140.1,943.4,132.7,943.4,132.7z"/>
							<g>
								<path class="st1" d="M941.7,155.2c2.8,1.5,12.4-7.9,13.4-9.6c0.5-2.6,0.7-8.7,0.7-8.7s-1.4-4.1-2.2-6.5
									c-2.4-0.3-1.6,6.7-2.1,8.8c-1.3,4.9-9.5,0.4-12.4,6.4C936.9,150,939.7,154.1,941.7,155.2z"/>
								<path class="st1" d="M943,153.9c0.5-5.2-4.3-9.9-9.4-13.9c-1.1,0-1.4,7.3-0.8,9.4c0.4,1.4,1.4,5.9,4.3,6.9
									C937.8,156.5,942.8,156.5,943,153.9z"/>
							</g>
						</g>
						<path class="st2" d="M950,129.8c-0.6-0.7-2-3.2-2-3.2s-3,0.8-3.7,1.7c-0.8,1.1-1.1,5.4-1.1,5.4l-3.7-0.1c0,0,0.7-7.7,1.9-9.4
							c1.3-1.8,7.2-4,8.6-2.2c1.4,1.7,3,7.8,2.7,8.7C952.5,131.5,950.6,130.4,950,129.8z"/>
						<path class="st1" d="M943.2,122.9c2.3-1.3,5.9-2.2,7-0.9c1.4,1.7,3,7.8,2.7,8.7c-0.1,0.3-0.5,0.3-0.8,0.2
							c-0.5-0.4-1-1-1.3-1.7c-0.6-1.5-0.9-3.2-1.6-4.6c-0.7-1.5-2.2-2.7-3.5-2.1c-0.6,0.3-1.2,0.9-1.9,0.8
							C943.5,123.2,943.3,123.1,943.2,122.9z"/>
					</g>
					<path class="st2" d="M934.8,114.8c0,0,0.1,4.7-0.1,9.4c0,2.3-0.2,4.7-0.2,6.4c-0.1,1.8-0.1,2.9-0.1,2.9s0.2-1.2,0.5-2.9
						c0.3-1.7,0.5-4.1,0.6-6.5c0.1-2.4,0-4.7-0.2-6.5C935,115.9,934.8,114.8,934.8,114.8z"/>
					<path class="st2" d="M938.6,109.5c0,0-0.1,1.5-0.2,3.8c-0.1,2.3-0.2,5.3-0.3,8.3c-0.1,6-0.1,12-0.1,12s0.2-1.5,0.4-3.8
						c0.2-2.3,0.3-5.3,0.4-8.3c0-3,0-6-0.1-8.3C938.7,111,938.6,109.5,938.6,109.5z"/>
					<path class="st1" d="M932.8,130.9c-0.6,0.6-0.2,6.7-0.1,8.8c0.1,1.9,0.3,3.9,1.3,5.3c1.4,1.9,4,2.1,5.9,1c-1.6-3.4-1.2-8,1-11
						c0.6-0.9,1.5-1.9,1-3c-0.3-0.8-1.2-1-1.9-1c-1.8-0.2-3.6-0.4-5.4-0.5C934,130.4,933.3,130.4,932.8,130.9z"/>
				</g>
			</g>
		</g>
	</g>
	<ellipse class="st0" cx="444.5" cy="849.4" rx="184.6" ry="28.2"/>
	<path class="st13" d="M389.6,271c-0.1,1.8-9.4,50.6-9.1,62.5c0.3,11.8,5.7,92.9,7.1,97.7c1.4,4.8,4.9,4.9,12.2,3.3
		c4.3-0.9,12.9-49.1,13.2-81.2c0.3-32.1,6.1-77.7,6.1-77.7L389.6,271z"/>
	<path d="M494.3,773c0,0,0.3,34.7,3.4,39.2c3.1,4.5,19.7,6.3,26,2.1c6.3-4.2,5-44.6,5-44.6L494.3,773z"/>
	<path class="st14" d="M457.9,851c-0.6,1.7-2.6,5.5,1.8,9.9s12.6,8,24.5,5.8c7.2-1.3,43.9-13.1,49-21.1c3.6-6.4-0.2-12.8-3.5-12.7
		C528,831.5,460.4,842.8,457.9,851z"/>
	<path d="M527.9,800.6c0,0-6.6,7.2-16.3,8.1c-9.7,0.9-15.5-2.7-15.5-2.7s3.1,10.5-13.4,22.1c-9.1,6.5-26.3,14.8-24.2,23.4
		c1.2,5.2,9.1,9.8,21,8.5c11.9-1.2,21.8-4.8,35.1-9.5c8.8-3.1,12.8-5.8,15.7-8.2c5.5-4,1.8-12.1-0.5-23
		C527.7,809.3,527.9,800.6,527.9,800.6z"/>
	<path d="M407.2,774.8l2.1,33.6c0,0,19.7,9.3,25.6,5.3c6-4,4.7-42,4.7-42L407.2,774.8z"/>
	<path class="st14" d="M377,843.1c-0.9,1.4-19.7-1.7-19.5,4.5c0.2,6-1.7,10.5,17.8,11.4c6.9,0.3,60.7-3.7,69.3-9.2
		c2.7-2.1,3.6-9.8,0.6-10.5C443.9,837.5,381.1,836.1,377,843.1z"/>
	<path d="M438.9,800.8c0,0-6.2,6.8-15.4,7.6c-9.1,0.8-14.1,0-14.1,0s-2.1,4.4-9.9,11.1c-11.1,9.5-39,14.4-40.4,21.4
		c-1,4.9-1.2,7.5,1.3,8.5c4.3,1.7,8.3,3.8,25.7,2.9c10.4-0.5,25.9-3.1,38-4.8c9.9-1.4,17.2-1.7,19.7-3.9c3.4-2.9,2.1-10-2.1-21.8
		C438.2,812.4,438.9,800.8,438.9,800.8z"/>
	<path d="M490.2,858.5c0,0,2.9-21.8-21.1-21.7c0,0,2.3-2,3.7-2.9c1.2-0.7,3.5-1.8,3.5-1.8s11.8-1.9,19.5,5.5
		c5.4,5.1,6.5,17.9,6.5,17.9l-6,1.2L490.2,858.5z"/>
	<path class="st15" d="M470.5,503.1c1.4,2.4-19.9,133.2-21.2,149.4c-1.3,16.2,5,150.7-7.3,154.9c-12.4,4.1-35.4,3.5-39-0.1
		c-3.5-3.6-13.4-120.3-15.5-158.7c-2.1-38.4,8.4-169.5,8.4-169.5l77.9,7.3L470.5,503.1z"/>
	<path class="st10" d="M390.1,396.2c0,0-9.5-2.2-9.6,1.1c-2.6,48.1,9.1,62.4,9.1,62.4l13.4-53.6L390.1,396.2z"/>
	<path class="st15" d="M547.5,471.8c0,0-3.6,124.3-6.2,166.1c-2.6,41.8-0.9,164.5-10.7,169.3c-9.7,4.9-32.5,3.1-37.8-0.7
		c-5.3-3.8-7.1-26.4-7.5-61.2c-0.4-34.7-19.9-224.3-19.9-235.6c0-11.4-5.2-25.9-5.2-25.9L547.5,471.8z"/>
	<path class="st10" d="M399.9,190.2c0,0-8,6.5-13.1,37.3c-3.2,19.3-8.8,58.9-9.5,91.6c-0.7,34.3,3.5,61.4,4.1,64.1
		c1.1,5.4,23.5,8.7,23.5,8.7s16.5-145.5,13.1-153.9C414.6,229.7,399.9,190.2,399.9,190.2z"/>
	<path class="st16" d="M381.2,382.4c-2.6-0.5-4.4,4.1-1.2,5.5c3.3,1.4,17.4,3.7,29.7-3.6c4.5-3.1,1.6-6.3-0.9-5
		C406.3,380.7,399.5,386.2,381.2,382.4z"/>
	<path class="st16" d="M383.3,378.9c-2.6-0.7-7.9,3.2-3.2,4.9c3.4,1.3,18.6,5.2,31.6-1.7c4.8-3,1.9-6.4-0.7-5.2
		C408.3,378.1,401.9,383.8,383.3,378.9z"/>
	<path class="st9" d="M496.5,162.2c0,0,40.6,15.7,47.1,19.9s0.9,97.9,0.7,128.4c-0.2,30.6,16.8,156.1,10.3,169.3
		C548,493,469,499.7,449.6,498.4c-19.4-1.3-53.6-5.1-58.3-12.2c-4.7-7.1,1.8-190,4.2-228.3c1.2-18.9,5.9-52.9,5.9-52.9
		s0.1-9.8-1.5-14.8c8.3-7.3,41-22.6,41-22.6s9.4,32.7,16.4,33.1C464.2,201.1,496.5,162.2,496.5,162.2z"/>
	<path class="st17" d="M390.9,368c0,0,17.2,4.9,56.2,6.6c54.5,2.8,101.9-3.3,101.9-3.3l1.6,17.9c0,0-49.8,7.8-102,4.8
		c-51.6-3-58-6.2-58-6.2L390.9,368z"/>
	<path class="st13" d="M573.4,295.9l-3.7,43.4l-52.4,62.3c0,0-7.3,0.3-13.5,0.6c-6.2,0.3-10.9,0.7-10.9,0.7s44.9-59.2,47.9-72.5
		c3-13.3-1.6-27.9-1.6-27.9L573.4,295.9z"/>
	<path class="st17" d="M392.1,302.8c0,0,17.3,4.7,56.3,5.8c54.5,2,101.8-4.8,101.8-4.8l1.3,17.9c0,0-49.1,8.5-101.3,6.3
		c-51.7-2.2-58.7-6.5-58.7-6.5L392.1,302.8"/>
	<path class="st9" d="M505.4,380.6c0,0,17.2-37.7,21.2-52.5c4.1-14.8,6.9-30.5,6.9-30.5l44.3-6c0,0,5.3,42.4,0.6,52.8
		c-4.7,10.4-45.7,45.6-45.7,45.6S516.4,389.7,505.4,380.6z"/>
	<path class="st9" d="M543.5,182.1c0,0,13.1,7.1,20.1,24.5c7.9,19.7,24.9,81.9,16,91.5s-43.7,18.3-46,17.1
		C531.3,314,543.5,182.1,543.5,182.1z"/>
	<g>
		<path class="st10" d="M531.4,324.5c-1.9,0.2-4,0.5-6.2,0.7l-3.7,13.2l-13.8,37.3c0,0,11.3-21.4,18.9-38.8
			C528.4,332.6,530.1,328.2,531.4,324.5 M525.7,261.3c0,0,0.7,28.8,1.3,45c2.2-0.2,4.3-0.4,6.3-0.6
			C530.9,294.5,526.7,273.7,525.7,261.3"/>
		<path class="st18" d="M533.3,305.7c-2,0.2-4.1,0.4-6.3,0.6c0.2,5.4,0.4,9.4,0.6,10.5l-2.4,8.4c2.2-0.2,4.2-0.5,6.2-0.7
			c2.2-6.3,3.5-11,3.5-11S534.3,310.4,533.3,305.7"/>
	</g>
	<path class="st17" d="M533.3,305.5c0,0,25.6-1.7,36.4-3.5c7.6-1.3,6-1.6,15.1-5.9l-2.2,43.1c0,0-12-13.8-51.8-13.4l4.1-12.4
		L533.3,305.5z"/>
	<g>
		<path class="st16" d="M538.5,312c0,0,15-4.5,29.8-1.4l0.3-0.5c-13.9-3.4-30.4,1.3-30.4,1.3L538.5,312z"/>
	</g>
	<g>
		<path class="st16" d="M541.3,308.6c9-3.7,11.3-4.2,18.7-10.9l0.5,0.4c-7.5,6.4-8.8,7.4-19,11.1L541.3,308.6z"/>
	</g>
	<path class="st16" d="M483.6,400.7c9,1.9,17.6,0.8,26.8,0.3c9-0.5,20.2-2.1,26.4-5.5c1-0.5,2.3,0.6,1.3,1.2
		c-7.5,4.4-15.8,5.1-24.5,5.8c-10.4,0.9-22.3,1.6-30.4-0.1C482.1,402.2,482.5,400.4,483.6,400.7z"/>
	<path class="st19" d="M392.7,297.7c0,0-5.9,0.3-14.3-1.5c0,0-0.5,6.6-0.7,11.6c-0.2,4.9-0.3,7.5-0.3,7.5s5.9,1.8,14.4,1.3
		L392.7,297.7z"/>
	<path class="st16" d="M400.5,205c0.1-1.1,1.9-1.1,1.8,0c-2.2,18.7-6.6,58.2-8.9,95.5c-1.9,30.4-1.6,59.2-1.8,74.6
		c0,1.1-1.8,1.1-1.8,0c0.2-15.3-0.1-44,1.7-74.3C393.9,263.4,398.3,223.8,400.5,205z"/>
	<path class="st15" d="M453.2,309.8c0.1-0.4,0.5-0.7,0.9-0.6c0.3,0,0.6,0,0.9,0c0,0,0,0,0,0c0.1,0,0.2,0,0.4,0
		c0.5,0,0.9,0.4,0.9,0.9c0,0.1,0,0.1,0,0.2c0.5,0.3,0.8,0.9,0.2,1.4c-0.1,0.1-0.2,0.1-0.2,0.2c0,0.3-0.2,0.6-0.4,0.7
		c-0.5,0.2-0.9,0.2-1.2,0c0,0,0,0-0.1,0c0,0-0.1-0.1-0.1-0.1c0,0-0.1-0.1-0.1-0.1C453.5,311.7,453.1,310.8,453.2,309.8z"/>
	<path class="st15" d="M452.8,374c0.1-0.1,0.1-0.2,0.2-0.3c0.3-0.5,1-0.5,1.4-0.2c0,0,0.1,0.1,0.1,0.1c0.1,0,0.3,0.1,0.4,0.1
		c1.3,0.6,1.4,2.3,0.6,3.3c-0.3,0.4-0.7,0.4-1,0.1c-1.1,0.6-2.1-0.9-2.3-1.8C452.1,374.8,452.3,374.3,452.8,374z"/>
	<path class="st15" d="M454,440.2c0-1.2,0.9-2.2,2.1-2.3c0.3,0,0.6,0.2,0.8,0.4c0.4,0.6,0.8,1.9,0.5,2.7c0,0.1,0,0.3-0.1,0.4
		c-0.6,1.4-2.3,1-3-0.1c-0.1-0.1-0.1-0.1-0.2-0.2C453.8,441,453.8,440.5,454,440.2z"/>
	<path class="st15" d="M448.2,510.2c6.2,5.6,12,11.6,17.2,18.2c0.7,0.9-0.5,2.1-1.2,1.2C459,523,453.2,517,447,511.4
		C446.1,510.7,447.4,509.4,448.2,510.2z"/>
	<path class="st16" d="M436.8,165.4c0,0-6.4,8.6-6.7,14.4c-0.3,5.8,13.5,13.7,19.5,10.1S436.8,165.4,436.8,165.4z"/>
	<path class="st20" d="M488.2,141.4c-29.5,34.8-49.1,29.7-49.1,29.7s6.7,15,6.3,25.2l12.3,1.3l-0.2,2.3
		c13.3-3.5,30.4-12.5,38.6-39.3c0,0-4.5-2.6-6.8-6.8C488.3,152,487.5,147.3,488.2,141.4z"/>
	<path class="st13" d="M488,147.5c0,0-7.1,47.9-42.3,44.9c0,0,8.6,14.3,33.4-1.7c27.6-17.8,13.6-28.1,10.3-36.4
		C488.3,151.5,488,147.5,488,147.5z"/>
	<path class="st11" d="M443.8,190.9c0,0,10.6,10.6,36.7-2.8l2.5,52.4l-52.1-2.6L443.8,190.9z"/>
	<path class="st9" d="M449.3,220.2c0,0,2.6,8.7,4.5,16.6l10-18.6l19-28.7l20.3,13l-9.3,46.7l-74.3-5.7l20.5-53.5L449.3,220.2z"/>
	<path class="st15" d="M457.7,244.8c0.1-0.4,0.5-0.6,0.9-0.6c2.8-0.1,3.8,3.7,1.2,4.9c-0.3,0.1-0.8,0.2-1.1-0.1
		c-0.6-0.7-1.1-1.4-1.1-2.3C457.5,246,457.6,245.4,457.7,244.8z"/>
	<path class="st16" d="M447.3,324.7c0.5-18.5,3.4-50.5,3.6-55.3c0.3-4.8,1.4-7.9,2.1-28.5c0-1.1,1.8-0.9,1.8,0.2
		c-1.3,36.8-4.1,40-5.5,76.6c-1.4,37.4,0.2,74.8,1.2,112.2c0.6,21,1.8,42.1,4.6,63c0.1,1.1-1.6,1.3-1.8,0.2
		c-4.9-37.1-5-74.8-5.9-112.2C446.9,362.1,446.7,343.4,447.3,324.7z"/>
	<path class="st16" d="M449.3,220.2c0,0-11.4-26.4-13.3-27.8c-1.9-1.4-6.8-0.4-6.8-0.4s-0.9-7.9,1.8-16.5c0.9-2.7,12.7,8.7,12.7,8.7
		l2.1,8.1c0,0,0.3,8.2,1,13.3C447.4,210.7,449.3,220.2,449.3,220.2z"/>
	<path class="st21" d="M493.4,160.1"/>
	<path class="st16" d="M463.6,218.6c0,0,23.1-29.5,25-30.1c1.9-0.6,11.9,2.4,11.9,2.4s8.2-17.4,5.7-25c-1.3-3.8-16.9-12-16.9-12
		l3.5,8.3c0,0-7.4,15.9-11.3,21.6C477.6,189.5,463.6,218.6,463.6,218.6z"/>
	<g>
		<path class="st13" d="M420.2,88.7c0,0-3.7,6.7-5.1,17.6c-0.5,3.9,0.3,1.9,0.1,6.4c-0.1,2.6,1.5,5,1.5,7.7c0.1,3.3,0,7.4,0.3,11.1
			c0.6,5.5,3.2,11.6,4.7,16.9c3.6,12.1,7.3,20.8,16,24.6c8.4,3.6,20.9,2.4,37.3-13c5.4-5.1,7.5-6.7,12.9-17.3
			c8.2,2.3,24.3-33.9,0.4-28.7C488.5,114,483.7,70.6,420.2,88.7z"/>
		<path class="st22" d="M498.2,83.5c-16-49.1-79.5-15.5-79.5-15.5c-24.8,6-3.1,47.8-3.1,47.8c0.2-12.1,10.6-24.2,10.6-24.2
			c4.8,4.5,41.4,3.3,41.4,3.3c13.2,9.7,5.1,23.6,5.1,23.6s10.6,7.3,9.7,17.8l2.3,0.5l2.5-11.4c2.9-6.5,8.8-11.4,8.8-11.4
			C505,95.6,498.2,83.5,498.2,83.5z"/>
		<path class="st23" d="M491.5,122.9c3.4-2.6,4.6,8.9-2.1,12.7C488.1,135.6,488.1,125.6,491.5,122.9z"/>
	</g>
	<g>
		<path class="st24" d="M438.4,131.5c-1.4-1.4-4.3,17-3.1,18.6c1.2,1.6,10.6,0.7,11-1.4c0.4-2.2-7.3,0-8.3-1.2
			C437.1,146.4,439.9,133,438.4,131.5z"/>
		<path class="st25" d="M429.5,131.6c0.3,2.6-1.1,4.9-3.1,5.1c-2,0.2-3.9-1.7-4.2-4.3c-0.3-2.6,1.1-4.9,3.1-5.1
			C427.4,127.1,429.3,129,429.5,131.6z"/>
		<path class="st25" d="M456.7,128.7c0.2,2.6-1.3,4.9-3.3,5c-2,0.1-3.8-1.9-4-4.5s1.3-4.9,3.3-5
			C454.8,124.1,456.6,126.1,456.7,128.7z"/>
		<path class="st22" d="M445.5,115c0,0-1.3,2.9-0.5,3.7c0.8,0.9,6.8-0.5,12.2-0.4c5.4,0.1,6.8,0.3,6.8,0.3s-1.7-3.2-5.1-4
			C455.6,113.8,447.2,113.4,445.5,115z"/>
		<path class="st22" d="M427.2,118.1c0,0,0.6,1.5-0.3,2.8c-0.9,1.3-3.6,2.1-5.5,3.3c-1.9,1.2-4.4,3.3-4.4,3.3s0-1.1-0.1-2.2
			c0-1.2-0.1-2.3,0-2.6C416.9,122.3,421.9,117.5,427.2,118.1z"/>
	</g>
	<path class="st26" d="M450.4,160.1c-4.6-0.4-7.3,0.6-12,2.5c-0.9,0.4-1.5-0.4-0.9-1.2c3.6-4.3,8.8-4.7,13.4-2.4
		C451.8,159.5,451.4,160.2,450.4,160.1z"/>
	<path class="st27" d="M447.4,196.6c-0.6-0.2-1.2,0.7,0,1c1.2,0.3,11.7,4.5,26.5-2c1.3-0.6,0.6-1.4-0.7-0.9S460.1,200.6,447.4,196.6
		z"/>
	<g>
		<g>
			<path d="M747,228.7c-5.5-10.8-8.7-20-10.6-26.3c-7.9-26.2-7.1-48.9-12.5-101.2c-0.6-6-1.8-16.3-9-25.6
				c-7.1-9.2-16.3-13.3-20.9-14.8c-3.4-1.2-15.6-4.9-29.9,0c-4.6,1.6-13.8,5.7-20.9,14.8c-7.2,9.3-8.4,19.6-9,25.6
				c-5.4,52.3-4.7,75-12.5,101.2c-1.9,6.3-5.1,15.5-10.6,26.3c22.7,2.4,45.3,4.9,68,7.3C701.7,233.6,724.3,231.1,747,228.7z"/>
			<g>
				<g>
					<path class="st8" d="M756.2,225.9c-0.3-0.2-0.7-0.4-0.8-0.5c-1.1-0.6-3.5-1.6-15.2-5.5c-3.1-1-6.9-8.1-11.7-10.2
						c-7.3-3.1-10.9-4.7-13.7-7.1c-11-9.5-14.1-18.9-14.9-24c-1.5-9.8-0.3-18.1,1-23.4c-7-11.7-14-23.4-21.1-35
						c-0.3-0.5-0.6-1-0.9-1.5c-0.3,0.5-0.6,1-0.9,1.5c-7,11.7-14,23.4-21.1,35c1.3,5.3,2.5,13.7,1,23.4c-0.8,5.2-3.9,14.6-14.9,24
						c-2.8,2.4-6.5,4-13.7,7.1c-4.8,2.1-8.6,9.1-11.7,10.2c-11.8,3.9-14.1,4.9-15.2,5.5c-0.1,0.1-0.5,0.3-0.8,0.5
						c-2.9,1.8-8.2,6.6-12,20.3c2.1,3.3,31.8,48.5,87.7,49.4c57.9,0.9,89.2-46.7,90.9-49.4C764.4,232.5,759.1,227.8,756.2,225.9z"/>
					<path class="st28" d="M658.1,163.2c0.3,1.8,0.4,3.8,0.5,6c0.1,2.9-0.1,5.4-0.4,7.7c4.3,7.2,7.9,11.1,10.9,13.1
						c3.1,2,6,3.9,10,3.7c4-0.2,6.8-2.3,9.6-4.3c4.7-3.5,9.2-7.9,11.1-11.7c-0.3-2.2-0.5-4.7-0.5-7.5c0-2.3,0.1-4.4,0.2-6.4
						c-3.7,1.9-10.5,4.6-19.4,4.8C669.8,168.7,661.9,165.2,658.1,163.2z"/>
				</g>
				<g>
					<g>
						<g>
							<path class="st8" d="M644.5,120.1c-1.7-1.8-4.8-3-6.2-2c-1.2,0.9-0.6,2.9,0.4,9.2c1.7,10.3,1.3,10.9,2.6,13.3
								c2.3,4.1,6.8,8.2,8.7,7.3c2.3-1.2-2.2-8.9-3.3-21.9C646.7,125,646.5,122.2,644.5,120.1z"/>
							<path class="st8" d="M714,120.1c1.7-1.8,4.8-3,6.2-2c1.2,0.9,0.6,2.9-0.4,9.2c-1.7,10.3-1.3,10.9-2.6,13.3
								c-2.3,4.1-6.8,8.2-8.7,7.3c-2.3-1.2,2.2-8.9,3.3-21.9C711.8,125,712,122.2,714,120.1z"/>
						</g>
						<path class="st8" d="M698.7,72.3c-11.8-7.3-27.2-7.2-38.9,0C649,79,643.4,90.3,642.4,99.2c-0.2,1.4-0.2,3-0.2,6
							c-0.1,3.8,0.4,11.7,1.3,21.5c0.5,5.8,1.4,15.5,5.9,25.9c1.2,2.8,6.8,14.9,18.5,23c5.6,3.9,9.1,4.4,11.3,4.4
							c2.2,0,5.7-0.5,11.3-4.4c11.7-8.1,17.3-20.2,18.5-23c4.6-10.4,5.4-20.1,5.9-25.9c0.8-9.3,1.5-16.2,1.3-21.5
							c-0.1-2.4-0.1-4-0.3-5.6C715.1,91.6,710.2,79.5,698.7,72.3z"/>
						<g>
							<g>
								<path d="M672.4,119.1c-0.2,0.7-2.6,0.8-4.2,0.6c-1.9-0.2-2.8-0.9-4.4-1.7c-0.7-0.3-4.4-1.9-8-1.6c-4.2,0.3-6.8,3.1-7.1,2.8
									c-0.2-0.3,1.9-3.5,5.4-4.9C661.7,111.3,672.8,117.6,672.4,119.1z"/>
							</g>
							<g>
								<path d="M686.1,119.1c0.2,0.7,2.6,0.8,4.2,0.6c1.9-0.2,2.8-0.9,4.4-1.7c0.6-0.3,4.4-2,8.1-1.7c4.1,0.3,6.7,3.1,6.9,2.8
									c0.2-0.3-1.9-3.5-5.4-4.9C696.7,111.3,685.7,117.6,686.1,119.1z"/>
							</g>
						</g>
					</g>
					<g>
						<g>
							<path d="M679.9,64c-3.1-0.1-16.6-0.3-28,10.2c-2.7,2.5-10.6,10.2-12.2,21.7c-0.8,5.7-0.3,12.5,0,15.5
								c0.2,1.9,0.6,4.8,1.5,10.6c0.1,0.8,0.4,2.2,1,3.9c0.5,1.4,1.1,2.4,1.5,3.1c0-2.6,0.1-6.4,0.6-11.2c0,0,0,0,0,0
								c0,0,0.1-0.9,0.2-1.8c0.9-7.3,3.2-13,3.2-13c0.8-1.9,1.8-4.4,3.7-7.2c4.6-6.5,10.7-9.4,13.5-10.6c2.7-1.2,7-2.8,12.8-3.2
								c0.5-2.8,1-5.7,1.3-8.8C679.4,70.1,679.6,67.1,679.9,64z"/>
						</g>
						<g>
							<g>
								<path d="M678.5,64c3.1-0.1,16.7-0.3,28.1,10.2c2.7,2.5,10.7,10.2,12.2,21.7c0.8,5.7,0.3,12.5,0,15.5
									c-0.2,1.9-0.6,4.8-1.6,10.6c-0.1,0.8-0.4,2.2-1,3.9c-0.5,1.4-1.1,2.4-1.5,3.1c0-2.6-0.1-6.4-0.6-11.2c0,0-0.1-1-0.2-1.8
									c-0.4-3.5-2.3-13.8-7-20.3C698,83.4,682.7,82.2,680.8,82C680,76,679.3,70,678.5,64z"/>
							</g>
						</g>
					</g>
				</g>
			</g>
			<g>
				<g>
					<g>
						<g>
							<path class="st29" d="M737.2,830.7c-0.9,0.3-1.8,0.6-2.8,0.8c-2.6,0.2-4.8-0.1-6.7-0.8H737.2z"/>
							<path class="st8" d="M616.7,776.6l-31.2-4.6c-0.6,11-1.1,21.9-1.4,32c-0.2,6.9-3.9,10.2-4.1,17.1c-0.7,16.4,24.5,19.7,28,3.7
								c1.9-7.7-1.1-8.2,0.7-16C609.6,805.4,614.1,787.5,616.7,776.6z"/>
							<path class="st8" d="M744.1,808.9c1-9.6,1.9-20.1,2.7-30.8l-30.8,1.1c2,14,3.6,24.8,4.3,29.7c1.6,11.3-9.6,24.8,14.2,22.5
								c6.8-1.1,9.9,0.1,11.1,1.5c0.1-0.9,0.4-2,0.8-3.4C749.2,819.4,743.3,817.2,744.1,808.9z"/>
							<path class="st30" d="M577.1,803.6c-5.8-5.3,1.3-95.8,6.5-159.3s10.9-101.1,16.8-183c2.7-38.1,7.5-72.4,7.5-72.4h140.9
								c4.7,11,6.5,20.8,7.8,28.5s2.8,19.5,3.1,22.6c0.9,10.8,0.9,23.5,1,35.6c1,73.3-0.2,129.9-0.2,170.8
								c0,40.9-3.4,156.5-9.4,160.6c-6,4.1-31.3,5.3-37.5,0.7c-3.2-2.4-9.4-32.4-12.4-68.4c-2.9-34.1-5.5-71.3-7.7-92.1
								c-5.7-46.8-9.1-86.2-15.2-134c0,0-12.6,67.8-21.8,118.8s-15.2,79.1-18.2,100.3c-2.9,21.2-14.8,69.4-21.3,73
								C610.6,809,582.8,808.9,577.1,803.6z"/>
							<g>
								<g>
									<path class="st11" d="M717.4,867.2h48c0.1-3.3,0.1-6.8-0.2-7.5c-0.5-1.4-8.8-13.8-10.7-15.7c-1.4-1.4-3.3-12.3-4.2-18
										c-0.3-2-2-3.4-4-3.4h-25.4c-2.3,0-4.1,1.9-4.1,4.1l0.6,33.9V867.2z"/>
								</g>
								<g>
									<path class="st31" d="M766.6,862.1c0.1,2.8,0,7.2-0.1,9.8c0,1.2-1,2.1-2.2,2.1h-45.9c-1.2,0-2.2-1-2.2-2.2l0-9.6
										c0-1.2,1-2.2,2.2-2.2c0,0,3.4,1.1,23,1.7c17.5,0.5,23-1.7,23-1.7C765.6,859.9,766.6,860.9,766.6,862.1z"/>
								</g>
								<g>
									<path class="st32" d="M747.8,849.3l-3.7-26.7c0,0-0.9-8.4-12.1-8.4c-8.4,0-10.6,8.4-10.6,8.4l5,27.5c0,0,4.9-1.8,11.7-1.8
										C745.5,848.2,747.8,849.3,747.8,849.3z"/>
								</g>
								<g>
									<g>
										<circle class="st33" cx="746.4" cy="829.6" r="1.4"/>
									</g>
									<g>
										<circle class="st33" cx="721.7" cy="831.1" r="1.4"/>
									</g>
									<g>
										<path class="st11" d="M746.9,829.1c-2-1.1-4.1-1.7-6.3-2.1c-2.2-0.4-4.4-0.5-6.7-0.4c-2.2,0.1-4.5,0.5-6.6,1.2
											c-2.1,0.6-4.2,1.6-6,2.7c-0.3,0.2-0.4,0.6-0.2,0.9c0.1,0.2,0.4,0.4,0.7,0.3l0,0c2-0.6,4-1.3,6.1-1.7
											c2-0.5,4.1-0.7,6.1-0.9c2.1-0.2,4.1-0.1,6.2,0.1c2.1,0.2,4.2,0.5,6.2,1.1l0,0c0.3,0.1,0.6-0.1,0.7-0.4
											C747.2,829.5,747.1,829.2,746.9,829.1z"/>
									</g>
								</g>
								<g>
									<g>
										<path class="st33" d="M745.9,835.5c0,0.8,0.6,1.4,1.4,1.4c0.8,0,1.4-0.6,1.4-1.4s-0.6-1.4-1.4-1.4
											C746.6,834,745.9,834.7,745.9,835.5z"/>
									</g>
									<g>
										<circle class="st33" cx="722.8" cy="836.9" r="1.4"/>
									</g>
									<g>
										<path class="st11" d="M747.9,834.9c-2-1.1-4.1-1.7-6.3-2.1c-2.2-0.4-4.4-0.5-6.7-0.4c-2.2,0.1-4.5,0.5-6.6,1.2
											c-2.1,0.6-4.1,1.6-6,2.7c-0.3,0.2-0.4,0.6-0.2,0.8c0.1,0.2,0.4,0.4,0.7,0.3l0,0c2-0.6,4-1.3,6.1-1.7
											c2-0.5,4.1-0.7,6.1-0.9c2.1-0.2,4.1-0.1,6.2,0.1c2.1,0.2,4.2,0.5,6.1,1.1l0,0c0.3,0.1,0.6-0.1,0.7-0.4
											C748.3,835.3,748.1,835.1,747.9,834.9z"/>
									</g>
								</g>
								<g>
									<g>
										<circle class="st33" cx="748.4" cy="841.3" r="1.4"/>
									</g>
									<g>
										<circle class="st33" cx="723.8" cy="842.8" r="1.4"/>
									</g>
									<g>
										<path class="st11" d="M748.9,840.8c-2-1.1-4.1-1.7-6.3-2.1c-2.2-0.4-4.4-0.5-6.7-0.4c-2.2,0.1-4.5,0.5-6.6,1.2
											c-2.1,0.6-4.1,1.6-6,2.7c-0.3,0.2-0.4,0.6-0.2,0.9c0.1,0.2,0.4,0.4,0.7,0.3l0,0c2-0.6,4-1.3,6.1-1.7
											c2-0.5,4.1-0.7,6.1-0.9c2.1-0.2,4.1-0.1,6.2,0.1c2.1,0.2,4.2,0.5,6.2,1.1l0,0c0.3,0.1,0.6-0.1,0.7-0.4
											C749.3,841.2,749.2,840.9,748.9,840.8z"/>
									</g>
								</g>
								<g>
									<g>
										<circle class="st33" cx="749.5" cy="847.2" r="1.4"/>
									</g>
									<g>
										<circle class="st33" cx="724.8" cy="848.6" r="1.4"/>
									</g>
									<g>
										<path class="st11" d="M749.9,846.6c-2-1.1-4.1-1.7-6.3-2.1c-2.2-0.4-4.4-0.5-6.7-0.4c-2.2,0.1-4.5,0.5-6.6,1.2
											c-2.1,0.6-4.2,1.6-6,2.7c-0.3,0.2-0.4,0.6-0.2,0.8c0.2,0.2,0.4,0.4,0.7,0.3l0,0c2-0.6,4-1.3,6.1-1.7
											c2-0.5,4.1-0.7,6.1-0.9c2.1-0.2,4.1-0.1,6.2,0.1c2.1,0.2,4.2,0.5,6.2,1.1l0,0c0.3,0.1,0.6-0.1,0.7-0.4
											C750.3,847.1,750.2,846.8,749.9,846.6z"/>
									</g>
								</g>
							</g>
							<g>
								<g>
									<path class="st11" d="M611.7,867.2v-9.7l0.6-33.9c0-2.3-1.8-4.1-4.1-4.1h-25.4c-2,0-3.7,1.4-4,3.4
										c-0.9,5.7-2.8,16.6-4.2,18c-1.9,1.9-10.3,14.3-10.7,15.7c-0.3,0.9-0.2,6.8-0.1,10.7H611.7z"/>
								</g>
								<g>
									<path class="st31" d="M562.5,858.9c-0.1,2.8,0,7.2,0.1,9.8c0,1.2,1,2.1,2.2,2.1h45.9c1.2,0,2.2-1,2.2-2.2l0-9.6
										c0-1.2-1-2.2-2.2-2.2c0,0-3.4,1.1-23,1.7c-17.5,0.5-23-1.7-23-1.7C563.5,856.8,562.5,857.7,562.5,858.9z"/>
								</g>
								<g>
									<path class="st32" d="M581.3,846.2l3.7-26.7c0,0,0.9-8.4,12.1-8.4c8.4,0,10.6,8.4,10.6,8.4l-5,27.5c0,0-4.9-1.8-11.7-1.8
										C583.6,845.1,581.3,846.2,581.3,846.2z"/>
								</g>
								<g>
									<g>
										<circle class="st33" cx="582.7" cy="826.5" r="1.4"/>
									</g>
									<g>
										<circle class="st33" cx="607.4" cy="827.9" r="1.4"/>
									</g>
									<g>
										<path class="st11" d="M582.2,825.9c2-1.1,4.1-1.7,6.3-2.1c2.2-0.4,4.4-0.5,6.7-0.4c2.2,0.1,4.5,0.5,6.6,1.2
											c2.1,0.6,4.2,1.6,6,2.7c0.3,0.2,0.4,0.6,0.2,0.8c-0.1,0.2-0.4,0.4-0.7,0.3l0,0c-2-0.6-4-1.3-6.1-1.7
											c-2-0.5-4.1-0.7-6.1-0.9c-2.1-0.2-4.1-0.1-6.2,0.1c-2.1,0.2-4.2,0.5-6.2,1.1l0,0c-0.3,0.1-0.6-0.1-0.7-0.4
											C581.9,826.3,582,826.1,582.2,825.9z"/>
									</g>
								</g>
								<g>
									<g>
										<circle class="st33" cx="581.7" cy="832.3" r="1.4"/>
									</g>
									<g>
										<circle class="st33" cx="606.3" cy="833.8" r="1.4"/>
									</g>
									<g>
										<path class="st11" d="M581.2,831.8c2-1.1,4.1-1.7,6.3-2.1c2.2-0.4,4.4-0.5,6.7-0.4c2.2,0.1,4.5,0.5,6.6,1.2
											c2.1,0.6,4.1,1.6,6,2.7c0.3,0.2,0.4,0.6,0.2,0.9c-0.2,0.2-0.4,0.4-0.7,0.3l0,0c-2-0.6-4-1.3-6.1-1.7
											c-2-0.5-4.1-0.7-6.1-0.9c-2.1-0.2-4.1-0.1-6.2,0.1c-2.1,0.2-4.2,0.5-6.1,1.1l0,0c-0.3,0.1-0.6-0.1-0.7-0.4
											C580.8,832.2,581,831.9,581.2,831.8z"/>
									</g>
								</g>
								<g>
									<g>
										<circle class="st33" cx="580.7" cy="838.2" r="1.4"/>
									</g>
									<g>
										<circle class="st33" cx="605.3" cy="839.6" r="1.4"/>
									</g>
									<g>
										<path class="st11" d="M580.2,837.6c2-1.1,4.1-1.7,6.3-2.1c2.2-0.4,4.4-0.5,6.7-0.4c2.2,0.1,4.5,0.5,6.6,1.2
											c2.1,0.6,4.1,1.6,6,2.7c0.3,0.2,0.4,0.6,0.2,0.9c-0.1,0.2-0.4,0.4-0.7,0.3l0,0c-2-0.6-4-1.3-6.1-1.7
											c-2-0.5-4.1-0.7-6.1-0.9c-2.1-0.2-4.1-0.1-6.2,0.1c-2.1,0.2-4.2,0.5-6.2,1.1l0,0c-0.3,0.1-0.6-0.1-0.7-0.4
											C579.8,838.1,579.9,837.8,580.2,837.6z"/>
									</g>
								</g>
								<g>
									<g>
										<path class="st33" d="M581.1,844.1c0,0.8-0.6,1.4-1.4,1.4c-0.8,0-1.4-0.6-1.4-1.4s0.6-1.4,1.4-1.4
											C580.4,842.6,581.1,843.3,581.1,844.1z"/>
									</g>
									<g>
										<circle class="st33" cx="604.3" cy="845.5" r="1.4"/>
									</g>
									<g>
										<path class="st11" d="M579.1,843.5c2-1.1,4.1-1.7,6.3-2.1c2.2-0.4,4.4-0.5,6.7-0.4c2.2,0.1,4.5,0.5,6.6,1.2
											c2.1,0.6,4.2,1.6,6,2.7c0.3,0.2,0.4,0.6,0.2,0.8c-0.2,0.2-0.4,0.4-0.7,0.3l0,0c-2-0.6-4-1.3-6.1-1.7
											c-2-0.5-4.1-0.7-6.1-0.9c-2.1-0.2-4.1-0.1-6.2,0.1c-2.1,0.2-4.2,0.5-6.2,1.1l0,0c-0.3,0.1-0.6-0.1-0.7-0.4
											C578.8,843.9,578.9,843.6,579.1,843.5z"/>
									</g>
								</g>
							</g>
							<g>
								<path class="st1" d="M745.6,833C744.7,838.5,747.6,835.4,745.6,833L745.6,833z"/>
							</g>
							<path class="st30" d="M648.1,197.6c0,0-14,7-30.5,12.4c-10.5,3.4-17.4,2.7-27.1,6.8c-4.6,2.4,9.7,90.3,12.1,108.2
								c1.5,11.6,4,30.6,2.1,49.6c-3.1,31.4-12.2,65.8-8,72.8s51.8,11.4,85.2,11.4s78.7-7.6,83.1-11.4s-6.6-44.7-8.6-70.7
								c-0.6-7.4,0.1-14,0.1-18.8c0-20.6-5.9-105.5-3.7-117.9c2.1-12.4,8.9-25.6,3.5-27.1c-5.6-1.6-17.1-3.4-25.4-5.9
								c-11.5-3.5-19.4-7.5-19.4-7.5s-29.4,31.4-32.1,31.5C676.7,230.7,648.1,197.6,648.1,197.6z"/>
							<path class="st15" d="M717.3,208.1c-5.2,6.6-10.8,12.9-16.8,18.8c-3.1,3-6.3,5.9-9.6,8.8c-3.5,2.9-7.3,6.8-11.8,8.1
								c-5.8,1.7-8.7-2.6-11.8-6.6c-2.9-3.7-5.8-7.4-8.6-11.1c-5.8-7.4-11.5-14.9-17.3-22.3c-0.6-0.8-1.8,0.3-1.1,1.1
								c6.7,8.7,13.4,17.3,20.1,26c3,3.9,5.8,8.2,9.2,11.8c2.2,2.3,4.8,3.6,8.1,3.1c3.5-0.5,6.6-2.6,9.3-4.7c3.8-3,7.5-6.2,11-9.5
								c7.4-6.9,14.2-14.4,20.4-22.3C719.1,208.5,718,207.3,717.3,208.1z"/>
							<path class="st15" d="M685.8,475.8c0.3,5.2-5.6,27.2-7.1,32.2c-0.3,1,1.2,1.5,1.5,0.5c1.6-5.3,7.5-27.1,7.2-32.6
								C687.4,474.9,685.8,474.8,685.8,475.8z"/>
							<path class="st15" d="M756.5,450.7c-39.9,8.3-111.8,8.3-151.8,0.3c-1-0.2-1.3,1.4-0.2,1.6c40.2,8,112.1,8,152.2-0.3
								C757.7,452.1,757.6,450.5,756.5,450.7z"/>
						</g>
					</g>
					<path class="st15" d="M733.9,274.1c-5.1,10.3-7.8,21.4-10.9,32.4c-3.3,11.9-8,23.1-14.1,33.9c-12.2,21.3-27.3,41-44.3,58.7
						c-0.7,0.7,0.4,1.9,1.1,1.1c16.8-17.5,31.7-36.8,43.8-57.8c5.9-10.2,10.7-20.8,14-32.1c3.5-11.9,6.1-24.2,11.7-35.4
						C735.8,274,734.4,273.2,733.9,274.1z"/>
					<path class="st34" d="M756.7,379.6c0,0-0.5-6.9-0.7-12.6l-150.8-6.2l-0.1,7.9l-0.4,5.2l42-2.2L756.7,379.6z"/>
					<g>
						<path class="st35" d="M693.5,364.5c-2.5,3.4-5,6.8-7.6,10.1l1.9,0.1c2.6-3.3,5.1-6.7,7.6-10.2L693.5,364.5"/>
					</g>
					<path class="st8" d="M768,221.7c0.7,1.2,2.2,3.8,3.7,7.2c10.3,22.8,6.9,43.6,9.9,65c0.8,5.9,1.8,11.5,3.1,22.5
						c1.3,10.5,1.8,17.3,2.1,22.5c1.5,26.1-1.6,29.4-3.9,31.2c-1.8,1.4-6.7,2.7-9.8,2.7c-9.4-0.1-15.7-0.3-25-1.3
						c-12.9-1.3-53-3.4-108.4-6.3c10.2-6.3,29-21.6,29-21.6l80.8-4.9l0.8-13.9c0,0,0.1-8.3,0.1-14.6c0-5.7-0.5-14-2.5-24.2
						C754.5,264.6,761.2,243.1,768,221.7z"/>
					<path class="st30" d="M749.1,259.1c-1.2,5.9-3.2,15-4.7,26.3c-0.6,4.4-1.2,8.9-1.8,13.3c-0.5,3.9-0.9,7.9-1.8,11.7
						c-0.7,3.1-1.6,6.2-2.1,9.4c-0.3,2.5-0.4,5.4,0.8,7.7c7.2-0.2,13.3-0.7,17.8-1.1c7.2-0.6,10.8-1,15.6-2c3-0.6,6.4-0.6,13.7-3.1
						c6.8-2.4,11.5-4.9,19.9-12.4C794,264.3,782,233.9,777,225.5c-1.3-2.2-3-4.5-7.2-7.3c-4.6-3.1-9.6-4.5-13.5-5.5
						C753.6,235.1,751,249.7,749.1,259.1z"/>
					<path class="st15" d="M752.2,224.7c-0.4-0.1-2.6,11.9-2.7,12.5c-4.7,25.1-4.9,54.1-4.3,72.1c0.2,0,0.4,0.1,0.6,0.2
						c-0.3-12.3-0.1-30.7,2.4-53.1C749.9,241.8,752.7,224.7,752.2,224.7z"/>
				</g>
				<g>
					<path class="st28" d="M733,326.4c2.5,0.6,5.2,1.1,7.8,0.8c3.3-0.4,5.4-2.7,7.8-4.8c-2.6,0-4.9,0.2-6.5,0.5
						c2.8-1.4,6.9,0.7,8.4,0c0.8-0.3,1.9-0.8,3.3-0.8c1.4,0,2.4,0.4,3.6,0.9c3.4,1.4,5.1,2.1,5.7,2.3c4.2,2,4.8,3,7.4,3.5
						c1.5,0.3,2.8,0.3,4-0.4c0.6-0.3,1-0.8,1.2-1.1c-5.1-2.8-9-5.3-11.6-6.9c-6.8-4.4-8.7-6.3-12.1-6c-0.6,0-2.9,0.5-7.6,1.3
						c-1.4,0.3-2.6,0.5-3.4,0.6c3.9-1.6,7.8,0.8,9.6,0.3c0.6-0.2,2-0.6,3.9-0.3c1,0.2,1.7,0.5,3,1.1c4.7,2.2,6.4,3.2,6.4,3.2
						c2.9,1.5,3.5,2,4.7,1.9c1.3-0.1,2.3-0.8,3-1.4c-2.2-1.9-5.7-4.5-10.4-6.9c-3.1-1.5-5.9-3-9.3-3.4c-6.3-0.8-14.2,3.2-15.4,5.3
						c-1.8,3.1-6.2,5.9-8.3,9.2C729.7,325.7,731.3,326.1,733,326.4z"/>
					<path class="st28" d="M769,335.5c0.9,0.2,1.8,0.4,2.9,0.2c1.7-0.2,2.9-1.1,3.5-1.6c-2.2-2-4.3-3.9-6.5-5.9
						c-2.1-1.4-5-2.9-8.5-4.1c-3.1-1-6-1.5-8.6-1.6c-1.4,1-2.6,2.3-4,3.5c-1.6,1.4-3.5,2.4-5.7,2.7c-4.7,0.5-9.3-1.1-13.9-2
						c-6.1,9-14.9,17.2-22.6,22.1c-6.8,4.3-15.8,6.5-31.5,10.5c-11.5,3-21.1,4.8-28.1,6c8.8-0.1,13.6-0.7,20.6-1
						c22.9-1,28.1-1.6,33.2-1.9c5-0.3,11.1-0.7,17.4-2.3c0.5-0.1,1.4-0.4,2.5-0.9c3.3-1.5,5.5-3.2,6.4-4c4.3-3.6,2.9-2.5,8.6-7.9
						c3.1-3,4.2-4.3,6.9-5.8c2.2-1.3,4.1-1.9,4.8-2.1c1.2-0.4,0.9-0.2,7-1.3c1.8-0.3,3.1-0.6,4.8-0.4c1.5,0.2,2.4,0.5,2.7,0.7
						c0.7,0.3,1.1,0.6,2.6,1.7c2.3,1.7,2.1,1.6,2.7,2c1.7,1.1,2.8,1.8,4.1,1.9c2.2,0,3.8-1.8,4.4-2.5c-3.4-2.7-6.8-5.3-10.2-8
						C766.3,334.8,767.9,335.3,769,335.5z"/>
					<g>
						<path class="st8" d="M759.7,329.6c0.3,0.1,2.1,1,3.6,1.6c1.8,0.8,2.1,1.6,3.8,2.4c1.8,0.9,3.8,1.4,5.5,1.1
							c1.3-0.2,2.5-1.1,3.1-1.6c-2.8-2.6-5.8-5.2-7.8-6.7c-3.9-2.8-6.1-3.8-8.5-4.1c-0.2,0-1.1-0.2-2.2-0.4
							c-5.6-0.6-7.1-0.3-9.6-0.3c-1.8,0-4.1,0.2-7.3,0c2.9-0.7,6.9-0.8,8-0.8c1.2,0,4.6,0,7,0.1c2.4,0.2,4.4,0.5,5.7,0.9
							c4.6,1.3,5.5,2.8,6.3,3.2c0.7,0.4,2.2,2.3,5,3.2c0.4,0.1,1.1,0.1,1.9-0.1c1.4-0.3,2.5-1.9,2.8-2.4c-3-1.9-5.3-3.5-6.9-4.6
							c0,0-5.3-3.8-10.5-6.8c-0.4-0.2-1.3-0.7-2.5-1.1c-1.8-0.5-3.2-0.4-4.1-0.4c-4.8,0.3-10.2,0.9-11,1c2.1-1.4,4.2-1.1,5.4-1.1
							c3.3-0.1,6.7,2.1,8.1,2.4c1.1,0.3,2.1,0.7,3.9,1.6c1.5,0.7,2,1,4.3,2.3c4.6,2.5,5.7,2.9,6.8,2.6c1.1-0.3,1.8-1,2.2-1.6
							c-1-0.7-3.2-2.4-6.1-4.6c-0.5-0.4-3.1-2.1-8.3-5.7c-0.7-0.5-2-1.4-3.9-1.8c-1.5-0.3-2.7-0.2-3.1-0.2
							c-5.5,0.4-16.5,1.9-20.9,5.3c-6.9,5.2-14.2,10.2-20.2,16.6c-3.6,3.8-7.2,8.3-12.1,9.4c-1,0.2-3.3,0.6-5.6,0.8
							c-1.4,0.2-3.6,0.2-4.8,0.2c-23.3-0.6-52.8-3.2-78.6-3.9c-1.1-8.6-1.9-18.3-2-28.9c-0.1-8.8,0.3-16.9,1-24.3
							c-5.7-21.9-11.6-43.1-17.2-65c-5.5,3.7-8.4,6.8-10.2,9.5c-12.4,18.4-4.2,44.1-5.8,65.5c-0.5,6-1.1,11.6-1.7,22.6
							c-0.6,10.6-0.7,17.4-0.7,22.6c0.1,26.1,3.4,29.7,5.8,30.9c1,0.5,3,0.6,6.9,0.7c8.8,0.3,15.6-0.4,17.2-0.6c7-0.7,14-0.8,21-1.4
							c28-2.3,58.8-6,83.8-8.2c1-0.1,6-0.6,10-1.8c0.3-0.1,0.6-0.2,0.7-0.3c0.4-0.2,0.8-0.3,1-0.4c5-2.2,7.4-4.5,12.5-8.6
							c7.5-6,8.7-7.8,13-9.4c2.1-0.8,4-1.1,6.4-1.6c6.8-1.3,8.9-0.4,9.7-0.1c1.3,0.4,2.5,1.1,3.2,1.5c2.2,1.2,3,2.4,5.1,3.2
							c1.9,0.7,3,0.5,3.5,0.4c1-0.4,1.7-1.6,1.9-2.1c-2.5-2-6.1-4.7-10.3-8c-0.5-0.4-1.5-1.1-2.9-1.8c-1.1-0.5-2.9-0.9-3.5-1.1
							C758,329.4,758.4,329.3,759.7,329.6z"/>
						<path class="st28" d="M736.4,330.1c0-0.1,1.5-0.9,3.2-1.4c1.5-0.4,2.7-0.4,3.6-0.4c3.5,0,6.4,0.2,6.7,0.2
							c5.3,0.3,9.9,0.9,9.9,1.2c0,0.1-5.8-0.5-9.7-0.6c-3.7-0.1-4.9-0.3-7.2,0c-2.9,0.3-4.5,0.7-4.5,0.7
							C737.2,330,736.4,330.2,736.4,330.1z"/>
					</g>
					<path class="st30" d="M610.1,306.3c-1.1-54.5-11.4-75.1-14.4-80.7c-2.1-4-4.1-7-5.3-8.8c-0.5,0.2-1,0.5-1.4,0.7
						c-8.8,5.3-11.9,14.9-13.4,19.2c-4.2,12.4-14.2,43.5-21.5,71.1c5.3,6.7,8.4,9.1,20.5,14c16.7,6.8,29.8,7,35.4,6.9
						C610.3,319.3,610.2,311.6,610.1,306.3z"/>
					<path class="st15" d="M597.8,224.2c0.4-0.1,3.5,11.7,3.6,12.2c10.4,39.3,8.4,87.3,7.7,87.3c-0.5,0,1.7-26.8-5.1-68.3
						C601.7,241,597.4,224.3,597.8,224.2z"/>
				</g>
			</g>
		</g>
	</g>
	<path class="st28" d="M681.5,128.1c-0.1-1.2-2-1.2-1.9,0c0.2,2,0.7,3.9,1.6,5.8c0.5,1.2,1.3,2.4,1.5,3.6c0.2,1-0.5,4.5-1.7,5.5
		c-0.2,0.1-0.4,0.3-0.5,0.6c0,0,0,0.1,0,0.1c-0.2,0.8,0.7,1.5,1.4,1c1.6-1.1,2.8-4,2.9-5.9C684.8,135.1,681.9,131.8,681.5,128.1z"/>
	<path class="st32" d="M671.5,158.9c0.5,1.6,4.9-1.9,8.6-1.7c3.7,0.2,7.9,3.3,8.4,2c0.5-1.2-4.1-5.5-8.7-5.4
		C675.2,153.9,671,157.6,671.5,158.9z"/>
	<g>
		<path d="M693.1,126.8c-0.2-3.5,1-4.7,2.4-4.8c1.4-0.1,2.5,0.9,2.7,4.4c0.2,3.5-0.9,5.1-2.3,5.1
			C694.5,131.7,693.3,130.3,693.1,126.8z"/>
	</g>
	<g>
		<path d="M660.7,126.6c0.1-3.6,1.4-4.6,2.8-4.6c1.4,0,2.4,1.1,2.4,4.6c-0.1,3.6-1.3,5-2.7,4.9C661.7,131.6,660.6,130.1,660.7,126.6
			z"/>
	</g>
	<path class="st16" d="M505.1,379c-2-1.7-5.9,1.5-3.6,4.3s13.6,11.6,27.8,11c5.5-0.6,4.4-4.8,1.5-4.8S519.3,391,505.1,379z"/>
	<path class="st16" d="M508,376.6c-2-1.9-8-0.7-4.6,3.1c2.4,2.7,13.9,13.4,28.6,13.5c5.7-0.3,4.8-4.7,1.8-4.9
		C530.9,388.2,522.1,389.7,508,376.6z"/>
	<path class="st16" d="M526.7,207.8c-1.9,9.6-1.9,21.2-2.2,31.5c-0.7,25.3,3.8,49.5,8.8,74.3c0.2,1.1,1.9,0.6,1.7-0.5
		c-4.7-23.5-9.2-46.4-8.8-70.4c0.2-10.8,0.3-24.3,2.4-34.7c0,0,0.4-1.5-0.9-1.6C526.8,206.3,526.7,207.8,526.7,207.8z"/>
	<path class="st36" d="M541.6,633.5c0,0-37.8,15.4-64.6,4.2c0,0,1.3,13.7,2.3,25.5c0,0,21.2,13.4,61.2-3.8
		C540.4,659.3,540.7,648.1,541.6,633.5z"/>
	<path class="st36" d="M452.4,629.3c0,0-51.8,14-65.1-1.1c0,0-0.4,14.4,0.6,26.1c0,0,10.7,16.7,61.3,0.9c0,0,0.1-2.4,0.4-5.3
		C450.3,643.4,451.9,633,452.4,629.3z"/>
	<path d="M457.7,504.4c1.2,5.1,7,18.8,9.1,23.6c0.4,0.9-1,1.7-1.5,0.7c-2.2-5.1-7.9-18.4-9.1-23.7
		C456,503.9,457.5,503.4,457.7,504.4z"/>
	<path class="st37" d="M953.6,130.4c0,0-0.6,0.4-0.6,1.2s0.1,2.2,0.1,2.2s1.2,0.2,1.7,0.1C954.2,131.8,953.6,130.4,953.6,130.4z"/>
	<path class="st37" d="M952,130.9c0,0,0.7,0.2,0.8-0.2c0.3-0.7,0-1.4-0.3-2.7c0,0-0.6-0.2-1.5,0.3C951,128.3,951.3,130.4,952,130.9z
		"/>
	<path class="st37" d="M1047.1,267.7c0,0,0.6,0.1,2.1-0.9c0,0,0.1-0.4-0.3-0.9C1049,265.9,1047,267.5,1047.1,267.7z"/>
	<path class="st37" d="M1058.4,282.6c0.6,0.5-0.1,2.7-1.2,2.6c-1.1-0.1-0.9-1.1-0.7-1.6C1056.7,283,1057.5,281.9,1058.4,282.6z"/>
	<path class="st37" d="M1052.9,275.1c0.7,0.7-0.1,1.9-2.5,2.1c-1.6-0.5,0.3-2,0.7-2.2C1051.5,274.8,1052.3,274.5,1052.9,275.1z"/>
	<path class="st37" d="M1050,271.6c0,0,0.6,0.9,0.1,1.7c-0.5,0.8-2.4,1.6-2.8,1.1c-0.4-0.4,0-1.3,0.5-1.7S1050,271.6,1050,271.6z"/>
	<g>
		<path class="st5" d="M981,182.8c0.1-0.6-0.4-8.4-0.5-8.9c-0.8-4.4-1.2-9.2-3.1-13.2c0,2,0.6,4.8,1,7c1,3.2,1.1,13.7,1.9,16.9
			C980.7,184.1,981,183.4,981,182.8z"/>
	</g>
	<g>
		<path class="st16" d="M955.5,197.2c0,0,4.5,2.9,7.1,7.4l0.6-0.2c-2.3-4.4-7.4-7.7-7.4-7.7L955.5,197.2z"/>
	</g>
	<g>
		<path class="st16" d="M957.4,196.4c3,1.5,3.5,1.8,6.9,2.3l-0.1,0.6c-3.4-0.5-3.9-0.6-7.2-2.4L957.4,196.4z"/>
	</g>
	<path class="st1" d="M956.5,586.3c0,0,6.3-4.3,7.9-6.1c1.7-1.9,6.1-5.8,7.3-6.5c1.1-0.8,9.1-5.9,7.1-15.5
		c-2.2-10.6,7.9,18.6,7.9,18.6l-2.9,8.7l-14.2,6.1L956.5,586.3z"/>
	<path d="M960.2,583.6c0-0.4-6.8,4.4-10.6,7.5c-2,1.6-3.6,4.1-4.1,4.8c-1.5,2.1-1.7,3.9-0.7,5.4s3.6,2.4,4.4,2.6
		c15.5,2.2,22.6-10.1,31-13.5c1.5-0.6,3.6,0.9,5,0.9c3.4-0.1,4.2-0.4,5.9-1.7c0.7-0.5,2.1-2.3,2.7-4.8c0.5-2.1,1.5-2.8,0.6-5.8
		c0,0-0.5-3.5-2-5.3c0,0-2.2,3.5-9.6,7s-10.6,5.4-14,6.9C968.7,587.5,960.9,588.7,960.2,583.6z"/>
	<path class="st1" d="M1030.5,554.6c0,0-0.6,8.4-3.8,10.9c0,0,15.1,16.1,18.7,17.6c3.5,1.5,15-1.4,15-1.4l-1.4-1.7
		c0,0-4.5-4.1-5.4-5.3c-1-1.1-5.1-5.9-7.2-8.5c-2.2-2.6-4.5-4.8-2.6-10.4C1045.7,550.1,1030.5,554.6,1030.5,554.6z"/>
	<path d="M1057.4,578.4c0.1-0.4,4.8,3.8,7.8,7.6c1.6,2,2.3,5.3,2.4,6.2c0.4,2.5-0.6,4.1-2,5.1c-1.4,1-6.4,1.9-7.2,1.8
		c-15.3-0.9-14.1-13.2-21.5-18c-1.3-0.9-3.7,0.8-4.9,0.5c-3.2-0.8-3.6-0.8-5.1-2.3c-0.3-0.3-0.6-1.3-1-2.7c-0.3-1.1-0.9-2.3-0.9-3.5
		c0-2.1-0.1-2.7,0.6-5.7c0,0,1.2-3.3,3-4.7c0,0,1.4,3.8,7.9,8.6c6.5,4.8,6.4,7.3,9.4,9.4C1045.7,580.6,1055.6,583.2,1057.4,578.4z"
		/>
	<path class="st1" d="M1057.4,572"/>
	<path class="st11" d="M1022.8,114.4c0.2,0.7,2.1,2.6,4.8,2.7c2.7,0.1,4.8-1.6,5.2-2.4c0.4-0.7,0.3-2-0.9-1.2
		c-1.3,0.8-3,1.2-4.3,1.1c-1.2-0.1-3.3-0.5-4.3-1.1C1022.4,113,1022.8,114.4,1022.8,114.4z"/>
	<path class="st13" d="M489.1,148.4"/>
	<g>
		<path class="st5" d="M998.4,161l10.6-1.9l-9.5,9.5l17.7,35l3.9,7.7l29.3-43.1l-9.1-8.3l10.2,2.7l-0.4-17.6
			c0.1-4.3-4.5-9.1-5.8-10.3l-23.9,62.5c0,0-8.9-46.2-14.2-65.2c-0.9,0.1-1.5,0.4-2,0.9c-1.1,1.1-3.4,4.3-3.8,7
			C1000.2,149,998.4,161,998.4,161z"/>
	</g>
	<path class="st9" d="M1085.8,267.6c1.8,3.9,8,10,10.9,13.2c5-5.1,17-22,25.1-39.1c10.1-21.4,12.1-31.3,11.2-35.9
		c-0.9-4.6-12.9-16.5-40.8-37.2c0,0-11.3-11.2-17.5-13.3c-3.2-1.1-4,17.3-8.1,29.9c2.5,1.2,41.4,28.1,41.4,28.1s-6.9,27.1-8.4,30.3
		C1098.5,246.3,1089,262.4,1085.8,267.6z"/>
	<ellipse class="st0" cx="1197.3" cy="607.2" rx="138.1" ry="21.1"/>
	<g>
		<path class="st4" d="M1176.6,103.3c0.5-3.2,0.5-6.4,0.5-7.1c0-3.1-0.1-6.2-0.3-9.5c4.1,7.7,10.9,12.6,20.8,12.4
			c6.9-0.1,13-5.9,17-13.6c-0.5,4-0.7,6.8-0.8,10.6c0,0.2,0.4,3.5,0.4,4.9c0.2,5.6,1.5,18.5,1.5,18.5l-31.5,5.9
			C1184.1,125.4,1175.8,109,1176.6,103.3z"/>
		<path class="st38" d="M1174.2,43.2C1174.2,43.2,1174.2,43.2,1174.2,43.2C1174.2,43.2,1174.2,43.2,1174.2,43.2L1174.2,43.2
			L1174.2,43.2L1174.2,43.2z"/>
		<path class="st38" d="M1176.2,45.5c-0.1,0-0.2,0.1-0.3,0.1C1176,45.6,1176.1,45.6,1176.2,45.5L1176.2,45.5L1176.2,45.5z"/>
		<path class="st38" d="M1217.9,54.1C1217.9,54.1,1218,54.1,1217.9,54.1C1218,54.1,1217.9,54.2,1217.9,54.1L1217.9,54.1L1217.9,54.1
			z"/>
		<path class="st7" d="M1176.8,100.7c21.5,13,34.6-0.2,37.8-15.6c-2.1,5-4.4,8.9-7.6,11.9c-3.1,2.4-6.4,3.4-10.8,3.7
			c-4.9,0.1-9.6-0.8-13.4-4.2c-2.7-2.4-4.5-7.4-6.2-10.6c0.3,3.3,0.4,7,0.4,10C1177,96.6,1176.8,100.7,1176.8,100.7z"/>
		<path class="st4" d="M1197.2,99.2c-9.9,0.2-16.4-4.7-20.6-12.4c-1.4-2.7-2.5-5.6-3.3-8.9c0-1.7-0.5-4.4-0.8-8
			c-0.2-2.8-0.6-5.3-1.1-7.2c0,0,0,0,0,0c0.1,0.1,0.2,0.2,0.2,0.3c0.4-7,2.8-19.1,3.8-22.1c2.2-1.9,5-5.7,28.6-5
			c2.7-0.8,10.3,4.9,10.4,5.1c0.8,1.3,2,4,2.7,7.9c2.3,13,1.1,9.3,1.9,14.1c0.1-0.1,0.4-0.4,0.9-0.9c0,0.3-0.1,0.6-0.1,0.9
			c-0.5,1.9-0.8,4.2-0.9,6.7c-0.1,2-0.3,3.6-0.5,5c-0.8,3.8-1.8,7.9-3.5,11.3c-4,7.7-10.4,13-17.4,13.1L1197.2,99.2L1197.2,99.2
			L1197.2,99.2z"/>
		<path class="st4" d="M1219,63.1c-0.8-4.8,0.4-1.1-1.9-14.1c-0.7-3.9-2.4-6.2-3.3-7.6c-1.6-2.5-37.7,4.1-37.8,4.2
			c-1,3-3,11.5-4.3,17.4c-0.1-0.1-0.2-0.2-0.2-0.3c0,0,0,0,0,0c-0.8-2.6-2.3-3.3-2.3-3.3s-0.4-0.1-0.4,0.1
			c-0.5-22.5,11.2-33.6,27.8-33.1c18,0.5,26.7,18.5,25.5,32.9C1220.7,61,1221,61.7,1219,63.1L1219,63.1L1219,63.1z"/>
		<path class="st39" d="M1168.7,59c0,0,2.4,0.3,2.6-2c0,0,1.6-0.9,1.6-4.1s-0.8-3.7-0.8-3.7s2.5-2,2.5-4.5s-0.9-3.3-1.5-3.6
			s-2.4-0.4-3.7,1.7c-1.2,1.9-1.9,4.9-1.6,6.1c0,0-0.8,0.7-1.5,2.2c0,0-1.2,2.3-0.4,4.3c0,0-1.2,2.7-0.3,4
			C1166.4,60.6,1168.7,59.8,1168.7,59"/>
		<path class="st39" d="M1221.7,59c0,0-2.4,0.3-2.6-2c0,0-1.6-0.9-1.6-4.1s0.8-3.7,0.8-3.7s-2.5-2-2.5-4.5s0.9-3.3,1.5-3.6
			s2.4-0.4,3.7,1.7c1.2,1.9,1.9,4.9,1.6,6.1c0,0,0.8,0.7,1.5,2.2c0,0,1.2,2.3,0.4,4.3c0,0,1.2,2.7,0.3,4
			C1223.9,60.6,1221.6,59.8,1221.7,59"/>
		<path d="M1208.2,65.7c0-1.8-0.9-3-2.1-3c-1.2,0-2.1,1.2-2.1,3s0.9,3.3,2.1,3.3C1207.2,68.9,1208.2,67.5,1208.2,65.7L1208.2,65.7z"
			/>
		<path d="M1182.7,65.8c0-1.8,0.9-3,2.1-3c1.2,0,2.1,1.2,2.1,3c0,1.8-0.9,3.3-2.1,3.3C1183.6,69,1182.7,67.6,1182.7,65.8
			L1182.7,65.8z"/>
		<path class="st1" d="M1199.4,74.6c0.1-1.8-2-3.8-2.5-5c-1.4-3.2-1.7-5.3-1.1-6.6c0.1-0.2,0.3-0.3,0.6-0.2c0.2,0.1,0.3,0.3,0.2,0.6
			c-0.5,1.1-0.1,3,1.2,5.9c0.4,1,3.1,3.1,2.8,5.8c-0.2,2-4.5,1.9-5,1.9c-0.4,0-0.7-0.7-0.2-0.9C1195.8,76,1199.4,75.9,1199.4,74.6z"
			/>
		<path class="st27" d="M1196.4,83.6c-0.3,0-2.6,1.3-4.1,2.2c-1.5,0.9-4.7,1.7-4.7,1.7l0.5-4c0,0,2.3-0.6,3.8-1.5
			c1.5-1,3.6-3,4.6-3.1c0.4,0,2.3,1.7,4.1,2.9c2.4,1.6,4.3,1.7,4.3,1.7l0.8,3.9c0,0-3.1-0.6-5.6-1.9
			C1198.3,84.6,1196.7,83.6,1196.4,83.6z"/>
		<path class="st27" d="M1201.8,60.1c0,0-0.4-2.5,0.2-2.8c0.6-0.3,5.7-0.1,9.6,0.6c3.8,0.7,1,1.6-2.5,1.6
			C1207.6,59.5,1201.8,60.1,1201.8,60.1z"/>
		<path class="st27" d="M1189.7,60c0,0,0.4-2.5-0.2-2.8c-0.6-0.3-5.7-0.1-9.6,0.6c-3.8,0.7-1,1.6,2.5,1.6
			C1184,59.4,1189.7,60,1189.7,60z"/>
		<path class="st5" d="M1178.1,63c0,0-7-3.2-8-3.6c-1-0.4-1.6-0.5-1.9-0.1l-0.5-0.4c0.7-0.9,2.2-0.3,2.7,0c1,0.4,8.1,3.5,8.1,3.5
			L1178.1,63z"/>
		<path class="st5" d="M1213.5,63l-0.5-0.7c0,0,7.1-3.1,8.1-3.5c0.5-0.2,2-0.9,2.7,0l-0.5,0.4c-0.3-0.3-0.9-0.3-1.9,0.1
			C1220.3,59.8,1213.5,63,1213.5,63z"/>
		<path class="st4" d="M1219.6,63.1L1219.6,63.1c-0.5,1.9-0.8,4.2-0.9,6.7c-0.1,2-0.3,3.6-0.5,5c-0.4,3.2-0.5,4.9,1.4,5
			c2.7,0.2,3.9-4.7,5.7-10.1c1.6-4.7,0.8-9.7-1.2-11c-0.3-0.2-0.6-0.3-1-0.3c-1.4-0.1-2.5,1.3-3.2,3.6
			C1219.8,62.2,1219.7,62.6,1219.6,63.1L1219.6,63.1z M1221.8,69.8L1221.8,69.8c0.4-1.7-0.4-2.9-0.9-3.4c-1.6-1.9,0.1-6.1,1.3-6.1
			c1.2-0.1,1.9,3,2.1,4.5c0.2,1.5-0.1,5.6-1.1,7.7c-0.9,1.6-2.3,6.1-2.5,0.7C1220.6,71.8,1221.4,71.5,1221.8,69.8L1221.8,69.8z"/>
		<path class="st7" d="M1222.2,60.3c1.2-0.1,1.9,3,2.1,4.5c0.2,1.5-0.1,5.6-1.1,7.7c-0.9,1.6-2.3,6.1-2.5,0.7
			c-0.1-1.4,0.7-1.6,1.1-3.3c0.4-1.7-0.4-2.9-0.9-3.4C1219.2,64.5,1221,60.4,1222.2,60.3L1222.2,60.3L1222.2,60.3z"/>
		<path class="st4" d="M1171.4,62.7L1171.4,62.7c-0.8-2.6-1.9-4.2-3.5-4.1c-0.2,0-0.3,0-0.4,0.1c-2.4,0.7-3.4,6.2-1.6,11.3
			c1.9,5.4,3.1,10.3,5.8,10.1c1.2-0.1,1.6-0.8,1.6-2.1c0-1.7-0.5-4.4-0.8-8C1172.4,67.3,1172,64.7,1171.4,62.7
			C1171.4,62.8,1171.4,62.7,1171.4,62.7L1171.4,62.7z M1168.1,72.8L1168.1,72.8c-1.1-2-1.4-6.1-1.2-7.7c0.2-1.6,0.8-4.6,2-4.5
			c1.2,0,3,4.2,1.3,6.1c-0.4,0.5-1.3,1.7-0.8,3.4c0.4,1.7,1.2,1.9,1.2,3.3C1170.4,78.9,1169,74.4,1168.1,72.8L1168.1,72.8z"/>
		<path class="st7" d="M1168.9,60.6c1.2,0,3,4.2,1.3,6.1c-0.4,0.5-1.3,1.7-0.8,3.4c0.4,1.7,1.2,1.9,1.2,3.3c-0.2,5.5-1.6,1-2.5-0.6
			c-1.1-2-1.4-6.1-1.2-7.7C1167.1,63.6,1167.7,60.6,1168.9,60.6L1168.9,60.6L1168.9,60.6z"/>
		<path class="st5" d="M1184.7,74.8c-4.4,0-7.9-3.5-7.9-7.9c0-4.4,3.5-7.9,7.9-7.9c4.4,0,7.9,3.5,7.9,7.9
			C1192.6,71.3,1189.1,74.8,1184.7,74.8z M1184.7,59.6c-4,0-7.3,3.3-7.3,7.3c0,4,3.3,7.3,7.3,7.3c4,0,7.3-3.3,7.3-7.3
			C1192,62.9,1188.7,59.6,1184.7,59.6z"/>
		<path class="st5" d="M1207,74.8c-4.4,0-7.9-3.5-7.9-7.9c0-4.4,3.5-7.9,7.9-7.9c4.4,0,7.9,3.5,7.9,7.9
			C1214.9,71.3,1211.4,74.8,1207,74.8z M1207,59.6c-4,0-7.3,3.3-7.3,7.3c0,4,3.3,7.3,7.3,7.3c4,0,7.3-3.3,7.3-7.3
			C1214.3,62.9,1211,59.6,1207,59.6z"/>
		<path class="st5" d="M1191.4,63.6l-0.4-0.5c5.1-4.4,9.4,0,9.5,0l-0.5,0.4C1199.8,63.4,1196,59.6,1191.4,63.6z"/>
		<g>
			<path d="M1134.8,577.8c0,0,0.3,5.3-0.6,7.8c-1.4,3.7-13,16.8-13.2,20.1c-0.5,5.8,2.1,5.3,2.1,5.3s10.9,1.7,19.6,1.2
				c5.8-0.3,10.4-2.5,10.9-3.2c1.4-2.1,3.1-5.7,3.1-5.7l7.8-1.1c0,0,0.1-8.7-0.9-9.2l-2.2-11.9
				C1161.3,581.1,1136.8,576.5,1134.8,577.8z"/>
			<path d="M1156.7,603.4c0,0,0.2-7.1,3.5-8.7c2.1-1,2.6-1.2,3.4-1.7c1.1,0.6,1,9.3,1,9.3S1162.6,602.6,1156.7,603.4z"/>
			<path d="M1121.8,610.6c0,0,24.9,3.5,31.7-1.6c0,0-2.2,4-14.8,4.4C1124.7,613.8,1121.8,610.6,1121.8,610.6z"/>
			<path class="st40" d="M1128.9,604.4c0,0,12.7,0.4,19.8-3.2c7.1-3.6,5.5,8.5-4.5,8.4C1134.2,609.6,1117,603.6,1128.9,604.4z"/>
			<path d="M1266,577.8c0,0-0.3,5.3,0.6,7.8c1.4,3.7,13,16.8,13.2,20.1c0.5,5.8-2.1,5.3-2.1,5.3s-10.9,1.7-19.6,1.2
				c-5.8-0.3-10.4-2.5-10.9-3.2c-1.4-2.1-3.1-5.7-3.1-5.7l-7.8-1.1c0,0-0.1-8.7,0.9-9.2l2.2-11.9
				C1239.5,581.1,1264,576.5,1266,577.8z"/>
			<path d="M1244.2,603.4c0,0-0.2-7.1-3.5-8.7c-2.1-1-2.6-1.2-3.4-1.7c-1.1,0.6-1,9.3-1,9.3S1238.3,602.6,1244.2,603.4z"/>
			<path d="M1279,610.6c0,0-24.9,3.5-31.7-1.6c0,0,2.2,4,14.8,4.4C1276.1,613.8,1279,610.6,1279,610.6z"/>
			<path class="st40" d="M1271.9,604.4c0,0-12.7,0.4-19.8-3.2c-7.1-3.6-5.5,8.5,4.5,8.4C1266.6,609.6,1283.8,603.6,1271.9,604.4z"/>
			<path class="st40" d="M1148.1,530.6c3-14.4,3.6-97.1,3.6-100.2c0-3,16.9-120.2,23.7-148.1c3.4-13.9,9-20.5,16.1-23l-42,1.4
				l-9.8,63.5l-2.3,150.4l-1.3,78.4l-3.9,11.1l2.5,18.4c4,0,7.2-0.3,15.5,0.6c-6.6-1.6-10.9-2.7-10.9-2.7S1145.1,544.9,1148.1,530.6
				z"/>
			<path class="st40" d="M1267.4,550.8l-5.3-50.6l-0.8-56.7l-0.8-121.7l-18.1-64.2l-37,1.2l24.1,68.3c0,0,10.8,93.5,10.8,101.8
				c0,8.3,3.8,76,4.6,82.1c0.8,6,9,70.2,9,70.2s-7.3,3.8-16.2,8l0.1,0.2c0,0,12.8-4.5,16.6-6s12,1.6,12,1.6l1.6-15.9L1267.4,550.8z"
				/>
			<path class="st40" d="M1251.1,510c-0.8-6-9.8-73.3-9.8-81.6c0-8.3-6.8-102.8-6.8-102.8l-29-66.8l-14,0.5
				c-7.1,2.6-14.9,8.6-18.3,22.5c-6.8,28-22.7,145.1-22.7,148.1c0,3-2.3,83.1-5.3,97.5c-3,14.4-6.3,54.9-6.3,54.9s5.4,0.3,12.6,0.9
				c7.3,0.8,10.6,1.7,10.6,1.7s2.5-6.1,5.5-11.4c3-5.3,3-15.1,3-15.1l3.8-22.7l3.8-77.8c0,0,10.6-58.2,12.1-60.5
				c1.5-2.3,11.3-50.2,11.3-50.2c10.6,34.8,17.4,93.3,17.4,93.3l5.3,66.5l8.3,34.8l-1.5,17.4l-0.8,8.3l3.8,9.1l3.8,12.9
				c9.2-3.1,17-6.2,17-6.2S1251.8,516.1,1251.1,510z"/>
			<path d="M1139.6,329.9l-0.2,8l23.9,2.9c0,0,20.8,0,27.6-4.6c6.8-4.6,20.9-43.5,20.9-43.5l-19.2-5.6L1139.6,329.9z"/>
			<path d="M1260.7,334c0,0-7.5,4.6-23.3,4.6c0,0-20.3-0.5-22-1.7c-1.7-1.2-16.6-30.1-16.6-30.1l5.3-18.3l46,7.5l10.9,29.5
				L1260.7,334z"/>
			<path class="st40" d="M1139.9,239.8l-9.4,92.9c0,0,8,2.5,14.9,3.3c6.9,0.7,37.8,4.7,43.9-5.4c6.2-10.2,12-24.7,16.3-53.4
				c4.4-28.7-2.2-49.7-2.2-49.7l-62.4-3.3L1139.9,239.8z"/>
			<path d="M1137.7,264.8c0,0,21.8,3.7,24.2,3.6c3,0,7.9,0.8,7.7-6.5c-0.2-7.3-0.5-9.4-0.5-9.4l2.7,0.2c0,0,0.6,16.4-3.2,16.8
				C1157.8,270.7,1137.7,264.8,1137.7,264.8z"/>
			<path d="M1139.7,240.2l-1.1,12c0,0,21.4,2.9,26.5,4.9c5.1,1.9,31.6,10.3,31.6,10.3l2.7-6.5c-0.2-8.5-0.4-14.5-2.5-22.8
				L1139.7,240.2z"/>
			<path class="st40" d="M1221.6,114.4c0,0,36.8,11.1,42.6,12.6c0,0-10.6,42.3-13.3,55.2c-3.1,14.8-3.9,29.5-3.9,29.5l-50,2.4
				l-0.5-4.6L1221.6,114.4z"/>
			<path class="st40" d="M1128.4,129.9c0,0,37.8-13.1,41.6-15l29.4,82.5l-0.7,16.7l-49.7-1.2c0,0-3-27.8-4-30.5
				C1144,179.8,1129.4,131.9,1128.4,129.9z"/>
			<path class="st40" d="M1221.8,114.5l43,12.6C1264.8,127.1,1240.9,127.3,1221.8,114.5z"/>
			<path class="st40" d="M1128.4,129.9l43.7-16.3C1172.1,113.6,1150.8,130.3,1128.4,129.9z"/>
			<path class="st11" d="M1179.6,135.4c0,0,7.4-13.6,10.2-14.2c2.7-0.5,16.2-0.5,16.7-0.2c0.5,0.4,13.6,15.6,13.6,15.6l-11.6,31.4
				l-20.5,5.6L1179.6,135.4z"/>
			<linearGradient id="SVGID_1_" gradientUnits="userSpaceOnUse" x1="1196.9788" y1="119.6053" x2="1200.3862" y2="142.5207">
				<stop  offset="0" style="stop-color:#D9DADD"/>
				<stop  offset="0.5507" style="stop-color:#DCDDE0"/>
				<stop  offset="0.9104" style="stop-color:#E4E5E8"/>
				<stop  offset="1" style="stop-color:#E8E9EB"/>
			</linearGradient>
			<path class="st41" d="M1179.2,138.7l0.4-3.2c0,0,9.2-13.9,10.9-14.6c1.7-0.7,12.4-0.5,12.4-0.5s10.5,8.7,17.2,16.4l-0.4,2.6
				c0,0-15.9-12.3-16.2-12.4c-0.3-0.1-10.8-1.1-11.5-0.8C1191.3,126.4,1179.2,138.7,1179.2,138.7z"/>
			<path class="st40" d="M1198,200c-8.8-0.4-12.4-2.2-15.8-2.9c-5-1.2-34.8-12.1-34.8-12.1l2.9,20.8l45.3,7.2
				c0.4-1.2,0.9-2.5,1.4-3.7C1198.1,206.8,1197.7,200.5,1198,200z"/>
			<path d="M1169.5,114.4c-6.3,5.4-10.9,10.9-10.9,10.9l12.7-0.7l-10.9,5.6c0,0,11.8,24.2,13.2,27.1c2.5,5.4,9,18,30,54.2l0.4-6.3
				C1203.9,205.2,1170.2,116.8,1169.5,114.4z"/>
			<path d="M1223.6,115c7.6,5.7,9.9,8.4,9.9,8.4l-8.9,1.1l9.8,3.3c0,0-7.7,23.6-9.1,26.5c-1.3,2.9-28,60.6-28,60.6l-0.7-4.8
				C1196.6,210,1223.3,117.6,1223.6,115z"/>
			<path class="st40" d="M1220.9,196.6c-6.5,3-16.8,3.7-22.9,3.4c-0.3,0.4,0.1,6.7-1,9.3c-0.5,1.2-0.9,2.5-1.4,3.7l26.8,3.4
				l20.3-20.3l2.2-17.9C1244.9,178.2,1227.6,193.5,1220.9,196.6z"/>
			<path d="M1197.2,253.4c0,0,1.4,44.3,3.7,47.4l3.5-13.9l-5.1-40.8L1197.2,253.4z"/>
			<path class="st40" d="M1197.6,226.4l54.8,3.3l19.3,97.7c0,0-12.7,4.7-18.9,6.5c-6.2,1.8-31.2,2.5-34.5,0.4
				c-3.3-2.2-15.6-43.2-16.7-46.5C1200.5,284.4,1197.6,226.4,1197.6,226.4z"/>
			<path d="M1253.5,235.1l-56.6,3c2.1,8.3,1.9,14.6,2.6,22.8l4-7.9l11.6-6.5c0,0,30,3.7,41.1,2.7L1253.5,235.1z"/>
			<path d="M1233.5,203.6c0,0,7.7-17.2,13.1-37c5.6-20.7,13.7-39.3,18.2-39.3l-13.8,64L1233.5,203.6z"/>
			<path class="st40" d="M1279.3,206.7c0.5-8.5-6.3-34.8-6.5-38.2c-0.2-3.4-4.2-40.7-8-41.2c-3.8-0.6-12.5,30.1-12.8,31.1
				c-1.3,4.4-6.8,33.1-6.8,33.1l2.7,18.5c5.5,0.5,11.6,0,15.1,5c5.8,7.8,8.8,17.6,9.6,27.3c0.2,0,0.4-0.1,0.6-0.1
				C1275.6,241.6,1278.8,215.2,1279.3,206.7z"/>
			<path d="M1250.9,162.4l-7.4,35.3l11.6,12.7c0,0,12.3,4.4,15.6,4.9c6.4,0.9-3.4-11.8-3.4-11.8s6.4-6.7,0-8.5c0,0,1.3-7.6-7.3-5.6
				c0,0,4.5-5.4-0.7-6.4C1254,182.1,1250.1,167.1,1250.9,162.4z"/>
			<path class="st42" d="M1199,246.1c0,0,21-7.1,26-9.7c5-2.6,24-21.8,25.1-22.6c1.2-0.9,11.4-7.4,12.1-8.2c0.7-0.8,1.2-3.9-1.2-3.9
				c0,0,4.2-0.9,5.2-1.2c1.5-0.5,4.6-4.5-2.7-4.5c0,0,3.3-1.3,2.2-3.6c-1.1-2.3-7.2-1.6-9-1.3c-1.8,0.3-11.1,2.6-11.1,2.6
				s10.5-4.3,11.8-6.3c1.1-1.6,0.2-3.4-2.6-3.3c-2.8,0.1-9.9,3.2-10.7,3.6c-0.9,0.4-6.2,4.3-6.8,4.8c-0.6,0.4-18.6,20.6-18.6,20.6
				l-19.4,24.8L1199,246.1z"/>
			<path class="st1" d="M1219.5,211.5l4.9-5c0,0,6.4,1.9,22.5,1.4c3.6-0.1,9.1,0,9.8-0.2c0.7-0.2,5.9-2.3,5.8-5.1c0,0,0.8,1.4-0.3,3
				c-1.6,2-8.6,5.7-8.6,5.7L1219.5,211.5z"/>
			<path class="st43" d="M1252.4,184.6c0,0-0.9,2.6,1.7,2.5c1.5-0.1,0.3,0.1,1.9-0.3c1.6-0.4,1.1-3-0.1-3
				C1253.7,183.8,1252.4,184.6,1252.4,184.6z"/>
			<path class="st43" d="M1260.3,191.1c0,0-1.6,2.5,1.1,3c1.5,0.3,0.3,0.1,2.1,0.1c1.8,0,1.9-2.8,0.6-3.1
				C1261.8,190.6,1260.3,191.1,1260.3,191.1z"/>
			<path class="st43" d="M1258.1,203c0,0-0.3,2.2,1.8,1.7c1.2-0.3,0.3,0,1.6-0.6c1.3-0.6,0.4-2.5-0.6-2.3
				C1259,202.2,1258.1,203,1258.1,203z"/>
			<path class="st1" d="M1235,199.8c0,0,10.1-6,13-6.9c3-1,6.8-3.5,6.8-3.5s2.5-1.3,2.8-2.2c0.3-0.9,0-1.5,0-1.5s0.1,0.5-0.8,1.2
				c-0.9,0.8-5.9,3.2-6.8,3.9c-0.9,0.7-3.8,1.1-4.7,1.6C1244.5,192.8,1235,199.8,1235,199.8z"/>
			<path class="st1" d="M1265.8,194c0,0-0.7,1.7-1.7,1.9c-1,0.2-4.9,0.8-6,1c-1.1,0.2-7.5,1.2-7.8,1.3c-0.3,0.1-9.9,6.5-9.9,6.5
				s7.5-6.9,8.8-7.5C1250.5,196.7,1264.2,195.4,1265.8,194z"/>
			<path class="st1" d="M1268.1,198.5c0,0-0.5,1.7-2.1,2.2c-1.7,0.6-6.1,1.1-6.6,1.3c-0.6,0.1-7.4,3.1-8.3,3.4
				c-0.9,0.2-7.7,4.5-7.7,4.5s5.6-4.9,7.3-5.8c1.7-0.9,6.4-3,7.9-3.4C1259.9,200.3,1265.2,200.5,1268.1,198.5z"/>
			
				<linearGradient id="SVGID_00000034771888276350853970000014249317603227096243_" gradientUnits="userSpaceOnUse" x1="1246.1713" y1="195.2079" x2="1246.5793" y2="204.0841">
				<stop  offset="0" style="stop-color:#FFD9B3"/>
				<stop  offset="1" style="stop-color:#F7D4AB"/>
			</linearGradient>
			<path style="fill:url(#SVGID_00000034771888276350853970000014249317603227096243_);" d="M1237.2,198.5c0,0,8.2-4.8,9.2-5.1
				c4-1.1,8.7-2,8.7-2s-5.9,1.9-8.1,3C1244.8,195.4,1237.2,198.5,1237.2,198.5z"/>
			
				<linearGradient id="SVGID_00000031899247412653195520000006328694805181117072_" gradientUnits="userSpaceOnUse" x1="1238.328" y1="195.6789" x2="1239.5479" y2="222.2116">
				<stop  offset="0" style="stop-color:#FFD9B3"/>
				<stop  offset="1" style="stop-color:#F7D4AB"/>
			</linearGradient>
			<path style="fill:url(#SVGID_00000031899247412653195520000006328694805181117072_);" d="M1225.8,204.9c0,0,10-11.4,10.9-12.3
				c0.9-0.8,6.2-4.3,7.1-5c0.9-0.6,6.9-2.6,6.9-2.6s-5.4,2.6-6.5,3.2c-1.1,0.5-6.4,4.6-7,5.1
				C1236.6,193.9,1225.8,204.9,1225.8,204.9z"/>
			<path class="st43" d="M1262.6,196.3c0,0-1.3,2.6,1.4,2.8c1.5,0.1,0.3,0.1,2-0.1c1.7-0.2,1.5-3,0.2-3.1
				C1264,195.6,1262.6,196.3,1262.6,196.3z"/>
			<polygon class="st1" points="1197.2,247.4 1216.5,240.5 1196.4,237 			"/>
			<path d="M1158.3,204.8c0,0-11.6-32.9-16.7-51.3c-0.9-3.2-6.4-24-12.4-23.9l18.7,75.9L1158.3,204.8z"/>
			<polygon class="st11" points="1195.4,249 1204.7,248.6 1206.1,237.4 1196.9,238 			"/>
			<path class="st40" d="M1129.8,129.6c2.5,0.6,6.9,11.2,9.4,21.3c2,8.2,6.3,35.6,7.5,41.6c1.5,7.3,2.7,19.4,2.7,19.4l56.2,17.9
				c0,0-5.3,19.9-6.7,23.5c-1.4,3.5-3.8,10.6-3.8,10.6s-31.8-11.5-38.2-13.1c-6.4-1.6-35.2-5.9-35.2-5.9s-8.1-1.4-6-39.1
				c0.6-11.5,3.4-26.5,4-35.2c1.7-23.7,4.9-33.1,5.6-34.9C1126.3,132.4,1127.7,129.1,1129.8,129.6z"/>
			<path d="M1143,170.2c0,0,6.5,21.8,6.7,23.1c0.2,1.3,0.2,9.6,0.2,9.6l-5.1,9.1l12,8.2l16.2,2l32.3,9.5l-3.3,11.3l-7.9-1.4
				c0,0-1.5-4-2.2-6.9c-6-2.2-22.5-6.9-25-7.1c-2.5-0.2-13.3-3.1-20.5-8.5c-1.8-1.3-18.6,3-16.7,0.4
				C1133.9,213.3,1147.6,205.8,1143,170.2z"/>
			<path class="st27" d="M1191.5,228.1l0.8,4.4c0,0,4,0.4,4.6-2.4c0.6-2.8,0.6-2.8,0.6-2.8l0,0L1191.5,228.1z"/>
			<path class="st42" d="M1198.8,231.7c0,0-24.5-7.5-26.1-8c-1.6-0.5-3.9,0.8-5.2,0.7c-1.3-0.1-11.5-2.4-12.1-2.9
				c-0.7-0.4-12-8.3-12.5-8.9c-0.5-0.6,3.2-13.4,9-12.9c4.7,0.4,13.7,4.8,15.1,5.7c1.4,0.8,16.6,4.3,18.2,4.3
				c1.6,0,12.9,0.7,12.9,0.7L1198.8,231.7z"/>
			<path class="st1" d="M1142.2,212.9c0,0,2-7.5,4-10.2c2.5-3.4,5.1-3.6,8-2.7c0,0-3.1,0.7-4.9,2.2c-1.8,1.5-3.1,2-3.1,3.1
				c0,1.1-1.1,1.5-1.3,2.9c-0.2,1.5,0.9,2.5,2.9,4.5c2,2,7.3,6.7,9.1,6.9c1.8,0.2,9.8,1.2,14.2,1.6c3.8,0.4,23.2,2.7,23.2,2.7
				l-0.7,6.2c0,0-19.9-6.3-21-6.4c-1.1-0.2-4.7,1-5.1,0.9c-0.9-0.2-11.4-2.8-12.5-3.3C1154.1,221.2,1142.2,212.9,1142.2,212.9z"/>
			<path class="st1" d="M1189.3,209.7l3.1,0.2c0,0,4.5,17.2,2.8,20.6l-3.5-1C1191.7,229.5,1193.9,222.4,1189.3,209.7z"/>
			<path class="st46" d="M1194.9,231.6l1.9,8.2c0,0,3.2-7.3,3.1-8.8L1194.9,231.6z"/>
			<path class="st11" d="M1190.8,209.8l4.1,0.1l9.2,23.7l-11.9-1.1c0,0,1.6-2.2,1.6-5.9C1193.8,222.9,1191.9,212.2,1190.8,209.8z"/>
			<polygon points="1201.2,200.1 1204.4,199.6 1199.3,211.3 1196.3,210.8 			"/>
			<path class="st40" d="M1247.9,210.4l-53.6-0.4c0.7,0.5,5.4,24.4,2.6,29.8c10.4,1.1,21.2,2.3,25.5,2.7c26.9,2.1,46.1,0.4,50.2-0.2
				c0.2-10.4-3.1-20.4-8.9-28.2C1260.2,209.1,1247.9,210.4,1247.9,210.4z"/>
			<path d="M1234.7,254.2c0,0-0.1,9.4,0.4,10.6c0.5,1.2,2.7,1.8,4.4,1.6c1.5-0.2,18-3,18-3s-16.4,4.6-18.9,4.8c-5.3,0.5-4.7-4-4.7-4
				L1234.7,254.2z"/>
			<path class="st40" d="M1272.5,169.4c0.4,18-0.5,21.3-6.2,10.9c-5.3-9.6-15.3-39.3-2.2-53.2
				C1270.4,125.3,1272.5,169.4,1272.5,169.4z"/>
			<path class="st40" d="M1128.9,129.6c1.3-0.4,6.2,4.8,7.6,17.9c1.5,13.1-4.6,45.5-9.4,47.4c-4.8,1.9-6.2-16.8-7.4-22.1
				c-1.2-5.3,2.7-28.4,3.7-32.6C1124.3,136,1125.4,130.7,1128.9,129.6z"/>
			<path class="st40" d="M1115.3,223.5c0,0,0.4,20.7,6.5,21.5c6.1,0.8,16.4,2.6,16.4,2.6l16,2.5c0,0-26.7-7.4-29.5-8.7
				C1122.1,240.2,1115.5,228.5,1115.3,223.5z"/>
			<path d="M1277.6,222.9c0,0-1.6,19.2-4.4,19.4c-42.6,3.7-76.3-2.6-76.3-2.6s0.9-2.3,0.9-4.9c45.7,4.7,67.2,2.2,71.2,0.2
				C1274.9,232,1277.6,222.9,1277.6,222.9z"/>
			<path d="M1178.2,457.9c0,0,13.4-63.2,14.1-64.5c0.8-1.3,9.3-44.3,9.3-44.3s12.4,58.6,12.9,63.4c0.5,4.8,5.1,34,6.9,58
				c0,0,0.6-63.7,0.1-66.4c-0.5-2.8-19.4-69.3-19.4-69.3s-8.6,18.1-9.6,23.7C1191.6,363.9,1178.2,457.9,1178.2,457.9z"/>
			<polygon class="st37" points="1193.9,134.9 1190.8,149 1190,171.3 1200,195.4 1208.1,170.2 1206.3,149 1201.8,134.4 			"/>
			<path class="st37" d="M1190.7,123.9c0,0,3.5-3.8,6-3.7c2.5,0.1,7.3,1.8,7.5,2.4c0.2,0.6-1.2,9.8-2.1,11.5c-1,1.7-6.3,1.9-8.1,0.8
				C1192.1,133.8,1190.7,123.9,1190.7,123.9z"/>
			<path class="st11" d="M1196.2,120.2c0,0,15.2-6.4,16.9-12.5c1.3-4.9,1.1-6.9,1.1-6.9s0.8,0.4,2,4.4c1.6,5.4,3.8,10.2,3.8,10.2
				l-4.7,20.4c0,0-10.2-11.2-11.7-12.6C1202.4,122.2,1199.6,120.7,1196.2,120.2z"/>
			<path class="st11" d="M1196.2,120.2c0,0-16.3-7.7-17.8-12.5c-1.3-4.3-1.7-5.4-1.7-5.4s-1.3,1.2-2.5,5.2
				c-1.6,5.4,0.7,13.4,0.7,13.4l5.3,16.9c0,0,8.8-11.9,10.6-13.9C1192.5,121.9,1196.2,120.2,1196.2,120.2z"/>
			<path class="st40" d="M1175,105.2c0,0-1.7,2-3,4c-1.6,2.5-11.5,14.9-11.5,14.9l8-0.5l-7.2,4.4c0,0,9.6,20.3,12.2,24.9
				c3.8,6.9,25.8,48.5,25.8,48.5s0.6-8,0.1-9.6c-0.5-1.6-6.6-16.7-12.8-33.4c-2-5.5-7.8-27.8-10.8-37.8
				C1173.6,113,1175,105.2,1175,105.2z"/>
			
				<linearGradient id="SVGID_00000058587424881182560600000009214883995708164994_" gradientUnits="userSpaceOnUse" x1="1199.0073" y1="190.7768" x2="1198.2938" y2="199.0709">
				<stop  offset="0" style="stop-color:#1C1B1C"/>
				<stop  offset="2.977949e-02" style="stop-color:#1C1B1C"/>
				<stop  offset="1" style="stop-color:#242326"/>
			</linearGradient>
			<polygon style="fill:url(#SVGID_00000058587424881182560600000009214883995708164994_);" points="1198.8,190 1200.2,193.5 
				1198.4,199.9 1197,197.1 			"/>
			<path class="st40" d="M1216,104.9c0,0,2.6,2.7,4.1,4.6c1.4,1.9,11.6,12.9,11.6,12.9l-7.7,0.7l9.2,3.4c0,0-8,24-10.2,28.9
				c-2.2,4.8-26.8,56.8-26.8,56.8s1.2-12.2,1.4-13.8c0.2-1.7,7.9-19.5,12-36.7c1.4-5.7,6.5-29.8,8-40.2
				C1218.8,113.5,1216,104.9,1216,104.9z"/>
			<path class="st40" d="M1195.8,211.5l1.6-11.6c0,0,4.1,0.2,4.5,0.2l-5,11.1L1195.8,211.5z"/>
			<path class="st40" d="M1194.2,209.9c59.8,0.4,59.8,0.4,61,0.5c13.4,1.8,18.5,9.6,5.1,12.2c-15.1,2.9-63.4,0.3-63.4,0.3
				S1195.7,214.1,1194.2,209.9z"/>
		</g>
	</g>
</g>
<g id="Lager_2">
</g>
</svg>
