<?xml version="1.0" encoding="utf-8"?>
<!-- Generator: Adobe Illustrator 27.0.1, SVG Export Plug-In . SVG Version: 6.00 Build 0)  -->
<svg version="1.1" id="Lager_1" xmlns="http://www.w3.org/2000/svg" xmlns:xlink="http://www.w3.org/1999/xlink" x="0px" y="0px"
	 viewBox="0 0 1600 900" style="enable-background:new 0 0 1600 900;" xml:space="preserve">
<style type="text/css">
	.st0{fill:#500B00;}
	.st1{fill:#191919;}
	.st2{fill:#002B33;}
	.st3{fill:#A3A2A2;}
	.st4{fill:#E07000;}
	.st5{fill:#F28000;}
	.st6{fill:#AFAFB1;}
	.st7{fill:#E6BC87;}
	.st8{fill:#A9917C;}
	.st9{fill:#BF6500;}
	.st10{fill:#FFFFFF;}
	.st11{fill:none;stroke:#272425;stroke-width:0.8215;stroke-miterlimit:10;}
	.st12{fill:#CECECE;}
	.st13{fill:#A2A1A1;}
	.st14{fill:#B98A50;}
	.st15{fill:#013F4B;}
	.st16{fill:#454545;}
	.st17{fill:#6B410C;}
	.st18{fill:#96672C;}
	.st19{fill:#CCA06E;}
	.st20{fill:#D3A472;}
	.st21{fill:#E5BB86;}
	.st22{fill:#272A2F;}
	.st23{fill-rule:evenodd;clip-rule:evenodd;fill:#FFDFB9;}
	.st24{fill:#BE6500;}
	.st25{fill-rule:evenodd;clip-rule:evenodd;fill:#D3A472;}
	.st26{fill-rule:evenodd;clip-rule:evenodd;fill:#E5BB86;}
	.st27{fill:#1E1E1E;}
	.st28{fill:url(#SVGID_1_);}
	.st29{fill:#FFDFB9;}
	.st30{fill:#F7DCBB;}
	.st31{fill:url(#SVGID_00000158728173959852850280000017848281690572877725_);}
	.st32{fill:url(#SVGID_00000179642384041431507220000016751459720899857799_);}
	.st33{fill:#1C1C1E;}
	.st34{fill:#ED492E;}
	.st35{fill:url(#SVGID_00000170980365919039957150000004956800152051412904_);}
	.st36{fill:#573B1C;}
	.st37{fill:#DBB378;}
	.st38{fill:#1D1D1D;}
	.st39{fill-rule:evenodd;clip-rule:evenodd;fill:#96672C;}
	.st40{fill-rule:evenodd;clip-rule:evenodd;fill:#CECECE;}
</style>
<ellipse class="st0" cx="731.6" cy="825.1" rx="175.4" ry="26.8"/>
<path d="M769.4,749.6c0,0,0.9,32.3,3.9,36.5c3,4.2,18.5,5.6,24.3,1.6c5.8-4,3.9-41.7,3.9-41.7L769.4,749.6z"/>
<path class="st1" d="M736.8,823c-0.5,1.6-2.3,5.2,1.9,9.2c4.2,4.1,11.9,7.2,23,5c6.7-1.3,40.7-13,45.3-20.5c3.3-6-0.4-11.9-3.5-11.8
	C801.8,803.6,738.9,815.3,736.8,823z"/>
<path d="M801.2,774.8c0,0-6.1,6.9-15.1,7.8s-14.5-2.3-14.5-2.3s3,9.7-12.1,20.8c-8.4,6.2-24.3,14.2-22.2,22.2
	c1.2,4.8,8.7,9,19.8,7.6c11.1-1.3,20.2-4.9,32.6-9.5c8.2-3.1,11.8-5.7,14.5-7.9c5.1-3.8,1.5-11.3-0.9-21.4
	C801.1,782.9,801.2,774.8,801.2,774.8z"/>
<path d="M688.2,752.8l2.6,31.3c0,0,18.5,8.3,24,4.5c5.5-3.8,3.7-39.3,3.7-39.3L688.2,752.8z"/>
<path class="st1" d="M661.1,817c-0.8,1.4-18.4-1.2-18.1,4.5c0.3,5.6-1.4,9.8,16.8,10.4c6.4,0.2,56.6-4.5,64.5-9.8
	c2.5-2,3.2-9.2,0.4-9.8C723.5,810.6,664.9,810.4,661.1,817z"/>
<path d="M718.2,776.5c0,0-5.7,6.5-14.2,7.4c-8.5,0.9-13.2,0.2-13.2,0.2s-1.9,4.1-9.1,10.5c-10.2,9.1-36.1,14.1-37.3,20.7
	c-0.9,4.6-1,7,1.4,7.9c4,1.5,7.8,3.4,24,2.3c9.7-0.6,24.2-3.3,35.3-5.1c9.2-1.5,16-1.9,18.3-4c3.1-2.8,1.7-9.3-2.4-20.3
	C717.7,787.3,718.2,776.5,718.2,776.5z"/>
<path d="M767,829.5c0,0,2.3-20.4-20-19.9c0,0,2.1-1.9,3.4-2.8c1.1-0.7,3.3-1.8,3.3-1.8s10.9-1.9,18.3,4.8c5.1,4.7,6.4,16.6,6.4,16.6
	l-5.6,1.2L767,829.5z"/>
<path class="st2" d="M742.7,498.2c1.3,2.2-16.3,124.6-17.2,139.7c-0.9,15.1,7.3,140.5-4.2,144.6c-11.5,4.1-33,3.9-36.3,0.6
	c-3.3-3.3-14.5-112-17.1-147.8c-2.7-35.8,7.6-163.9,7.6-163.9l70.1,11.2L742.7,498.2z"/>
<path class="st2" d="M813.9,467.7c0,0-1.2,116-3,155c-1.7,39,1.9,153.4-7.1,158.1c-9,4.7-30.3,3.5-35.2,0s-7.1-24.5-8.1-56.9
	c-1-32.4-22.4-208.9-22.6-219.5c-0.2-10.6-5.2-24.1-5.2-24.1L813.9,467.7z"/>
<path class="st2" d="M722,505.2c5.9,5.1,11.4,10.7,16.3,16.7c0.7,0.8-0.5,2-1.1,1.2c-5-6-10.4-11.6-16.3-16.7
	C720,505.7,721.2,504.5,722,505.2z"/>
<path class="st3" d="M811.1,618.6c0,0-35,15-60.2,5c0,0,1.5,12.8,2.6,23.7c0,0,20,12.2,57-4.6C810.5,642.7,810.6,632.3,811.1,618.6z
	"/>
<path class="st3" d="M727.9,616.3c0,0-48.1,13.9-60.7,0.1c0,0-0.1,13.5,1,24.4c0,0,10.3,15.4,57.2-0.2c0,0,0-2.2,0.3-5
	C726.2,629.5,727.4,619.7,727.9,616.3z"/>
<path d="M730.7,499.6c1.2,4.7,6.9,17.4,8.9,21.9c0.4,0.9-0.9,1.6-1.3,0.7c-2.1-4.7-7.7-17-8.9-22
	C729.1,499.2,730.5,498.7,730.7,499.6z"/>
<path class="st4" d="M676.6,401.1c0,0-8.5-1.6-8.5,1.4c-0.5,43,10.4,55.3,10.4,55.3l9.9-48.2L676.6,401.1z"/>
<path class="st5" d="M773,195.4c0,0,33.4,24.1,39,28.1c5.6,4-1.1,78.8-2.5,106c-1.4,27.2,13.9,139.6,7.5,151
	c-6.4,11.5-82.3,14.3-99.5,12.4c-17.2-1.9-39.3-11-43.2-17.5c-3.9-6.5,1.2-164.9,4.9-198.9c1.8-16.8,7.4-46.9,7.4-46.9l-5.3-31.8
	c0,0,8,1.7,21.1,1.1c12.9-0.6,20.9-1,20.9-1s7,29.5,13.2,30.2C742.6,228.8,773,195.4,773,195.4z"/>
<path class="st6" d="M674.1,374.9c0,0,1.3,1.3,3.4,1.9c6.8,2,22.6,4.9,49,6.6c48.5,3.6,86.1,0,86.1,0l1.5,16.5
	c0,0-40.2,4.5-86.6,0.8c-33.5-2.7-46.2-5.3-51.4-6.9c-1.9-0.6-2.4-1.5-2.4-1.5L674.1,374.9z"/>
<path class="st6" d="M676.6,314c0,0,1.9,1.3,4,2c6.7,2.1,17.4,4.9,43.8,7.2c48.4,4.7,86.7,1.8,86.7,1.8l1.1,16.2
	c0,0-41,4.1-87.3-0.7c-33.4-3.5-41.1-5.9-46.2-7.6c-1.9-0.6-2.9-1.9-2.9-1.9L676.6,314z"/>
<path class="st7" d="M840.1,318.3l-5.1,38.5l-50.1,54.4c0,0-2,0-7.5,0c-5.5,0-13.4-0.9-13.4-0.9s42.4-50.9,45.6-62.6
	c3.2-11.7-0.3-24.9-0.3-24.9L840.1,318.3z"/>
<path class="st5" d="M776,391c0,0,16.8-32.9,21.1-45.9c4.3-13,7.4-26.8,7.4-26.8l41.1-6.8c0,0,7,35-3,50.4
	c-5.5,8.5-42.6,38.8-42.6,38.8S785.4,399.5,776,391z"/>
<path class="st5" d="M811.9,223.5c0,0,14.1,10.1,19.7,26c6.2,17.9,20.2,72.8,11.9,80.9c-8.3,8.2-39.7,14.5-41.7,13.3
	C799.7,342.5,811.9,223.5,811.9,223.5z"/>
<g>
	<path class="st4" d="M801.8,342c-1.7,0.1-3.9,0.2-5.9,0.4l-3.9,11.6l-13.9,32.7c0,0,11.8-18.2,18.5-33.8
		C798.3,349,800.5,345.3,801.8,342 M797.1,285.8c0,0,1.3,25.4,1.2,39.8c2-0.1,3.9-0.2,5.6-0.3C802.3,315.3,797.5,296.9,797.1,285.8"
		/>
	<path class="st8" d="M803.9,325.4c-1.8,0.1-3.6,0.2-5.6,0.3c0,4.8,0,8.4,0.1,9.3l-2.5,7.4c1.9-0.1,5.1-0.2,6.8-0.4
		c2.2-5.5,2.5-6.8,2.5-6.8S804.6,329.6,803.9,325.4"/>
</g>
<path class="st6" d="M804,331.3c0,0,14.1,1.2,32.1,0.1c8.2-0.5,10.2-0.9,11.6-3.5c0,0,0.9,8.2-0.3,19.8c-1,9.9-5.7,15.4-5.7,15.4
	s-1.5-11.4-43-14.5l5.9-12.6L804,331.3z"/>
<g>
	<path class="st9" d="M807.2,335.7c0,0,13.9-0.5,26.1,5.4l0.3-0.4c-11.2-6-26.5-5.6-26.5-5.6L807.2,335.7z"/>
</g>
<g>
	<path class="st9" d="M810.3,333.3c8.6-1.2,10.7-1.1,18.6-5.3l0.3,0.4c-7.9,3.9-9.3,4.5-18.9,5.4L810.3,333.3z"/>
</g>
<path class="st9" d="M755.9,407c7.7,2.8,15.5,2.8,23.7,3.5c8,0.7,18.1,0.5,23.9-1.7c0.9-0.4,2,0.8,1,1.2c-7.2,3-14.6,2.6-22.3,2.2
	c-9.3-0.5-19.9-1.3-26.8-3.8C754.4,408.2,754.9,406.7,755.9,407z"/>
<path class="st2" d="M732.5,325.7c0.1-0.3,0.5-0.6,0.8-0.5c0.3,0,0.5,0,0.8,0c0,0,0,0,0,0c0.1,0,0.2,0,0.3,0c0.4,0,0.8,0.4,0.8,0.8
	c0,0,0,0.1,0,0.1c0.4,0.2,0.6,0.8,0.2,1.2c-0.1,0.1-0.2,0.1-0.2,0.2c0,0.2-0.2,0.5-0.4,0.6c-0.4,0.2-0.8,0.1-1.1,0c0,0,0,0,0,0
	c0,0-0.1-0.1-0.1-0.1c0,0-0.1-0.1-0.1-0.1C732.6,327.5,732.3,326.6,732.5,325.7z"/>
<path class="st2" d="M729.4,382.9c0.1-0.1,0.1-0.2,0.2-0.3c0.3-0.5,0.9-0.4,1.2-0.1c0,0,0.1,0.1,0.1,0.1c0.1,0,0.3,0.1,0.4,0.1
	c1.2,0.6,1.2,2.1,0.4,3c-0.3,0.3-0.6,0.3-0.9,0.1c-1,0.5-1.9-0.9-2-1.7C728.7,383.6,729,383.2,729.4,382.9z"/>
<path class="st2" d="M727.8,442c0.1-1,0.9-1.9,2-2c0.3,0,0.5,0.2,0.7,0.4c0.4,0.6,0.6,1.7,0.3,2.4c0,0.1,0,0.2-0.1,0.4
	c-0.6,1.2-2.1,0.8-2.7-0.2c-0.1,0-0.1-0.1-0.2-0.2C727.5,442.6,727.6,442.2,727.8,442z"/>
<path class="st9" d="M723.7,196.4c0,0-6.1,7.4-6.6,12.5c-0.5,5.1,11.5,12.8,17,9.8c3-1.6,16.7-31.6,16.7-31.6s-10.7,1.9-18,3.9
	C725.5,193.1,723.7,196.4,723.7,196.4z"/>
<path class="st7" d="M733.5,197c1.6-10.4-0.3-23.7-0.3-23.7l34.7-4.8c0,0,1.1,22,8.7,32.7l-6.3,10.3l-20.5,19.3l-24.3-5.1
	c0,0,0.6-10.8,1.5-18.3C728,199.9,733.5,197,733.5,197z"/>
<path class="st10" d="M728.9,219.5c0,0,9,9.8,32.8-1l0.1,46.8l-46.3-4.5L728.9,219.5z"/>
<path class="st5" d="M732.7,245.8c0,0,1.9,7.9,3.3,15l9.6-16.1l18.1-24.7l17.5,12.4l-10.2,41.2l-65.9-8.2l20.5-46.9L732.7,245.8z"/>
<path class="st2" d="M739.1,268c0.1-0.3,0.4-0.5,0.8-0.5c2.5,0,3.3,3.5,0.9,4.4c-0.3,0.1-0.7,0.1-0.9-0.2c-0.5-0.6-0.9-1.3-0.9-2.1
	C738.9,269.1,739,268.5,739.1,268z"/>
<path class="st9" d="M726.5,338.8c1.2-16.5,5.1-44.8,5.5-49.1c0.4-4.3,1.6-7,3-25.3c0.1-1,1.6-0.7,1.5,0.3c-2.7,32.7-5.3,35.5-8,68
	c-2.8,33.2-2.9,66.7-3.5,100c-0.3,18.7-0.1,37.6,1.5,56.3c0.1,1-1.5,1.1-1.6,0.1c-2.8-33.2-1.4-66.9-0.6-100.2
	C724.7,372.1,725.3,355.4,726.5,338.8z"/>
<path class="st9" d="M732.7,245.8c0,0-9.1-24-10.7-25.3c-1.6-1.3-6-0.6-6-0.6s-0.5-7,2.2-14.6c0.9-2.4,10.9,8.2,10.9,8.2l1.5,7.3
	c0,0-0.1,7.3,0.4,11.9C731.4,237.2,732.7,245.8,732.7,245.8z"/>
<path class="st11" d="M774.4,194"/>
<path class="st9" d="M745.5,244.9c0,0,21.8-25.4,23.5-25.8c1.7-0.5,10.5,2.6,10.5,2.6s8-15.2,6.1-22.1c-1-3.4-14.6-11.4-14.6-11.4
	l2.8,7.5c0,0-7.2,13.8-11,18.8C759.1,219.6,745.5,244.9,745.5,244.9z"/>
<path class="st12" d="M731.9,224.6c-0.5-0.2-1.1,0.6,0,0.9c1,0.3,10.3,4.5,23.7-0.7c1.2-0.4,0.5-1.2-0.6-0.8
	C753.9,224.5,743,228.7,731.9,224.6z"/>
<path class="st9" d="M775.8,389.5c-1.7-1.6-5.3,1.1-3.4,3.7c1.9,2.5,11.6,10.9,24.3,10.9c4.9-0.3,4.1-4.1,1.6-4.2
	S788,400.8,775.8,389.5z"/>
<path class="st9" d="M778.5,387.5c-1.7-1.7-7.1-0.9-4.3,2.6c2,2.5,11.8,12.5,24.9,13.2c5.1,0,4.4-4,1.8-4.3S790.5,399.8,778.5,387.5
	z"/>
<path class="st9" d="M797.9,242.3c-1.8,8.5-2,14.5-1.9,23.7c0.2,22.5,3.9,47.3,8.1,69.5c0.2,1,1.7,0.6,1.5-0.4
	c-3.9-21-7.6-44.7-8-66.1c-0.2-9.7-0.1-17.2,1.9-26.5c0,0,0.4-1.4-0.8-1.4C798.1,241,797.9,242.3,797.9,242.3z"/>
<path class="st7" d="M771,183.4"/>
<ellipse class="st0" cx="444.5" cy="849.4" rx="196.1" ry="29.9"/>
<path class="st13" d="M480.6,826.9c-1.7,5.1-0.3,9.4-0.3,9.4s7.9,3.9,32,4.2c0,0,2.1,0,3.4,0.3c4.3,0.9,13.9,3,29.9,3.1
	c20.9,0.1,28.5-3.8,29.6-5.2s0.7-8.1,0.7-8.1s-22.3-2.5-23.3-2.3C551.6,828.5,480.6,826.9,480.6,826.9z"/>
<path class="st14" d="M483.2,806.7c0,0,0.8-1.5,1.2-3.3s-0.5-7.8,0.3-13.2c0.8-5.4,29.1-3.9,29.1-3.9c0.8-0.3-2.9,10.3,0.7,18.5
	c3.9,8.6-6.9,13.4-13.9,13.7C493.6,818.9,483.2,806.7,483.2,806.7z"/>
<path class="st10" d="M483.3,804.8c-0.9,0.6-2.4,4.7-2.9,11.3c-0.6,6.6,0,11.6,0.4,12c0.4,0.4,14.7,4.6,25.8,4.4
	c11.1-0.2,22.2,4.7,39.2,4.5c16.9-0.2,28.2-3.5,29.6-4.7c1.8-1.6,0.9-8.6-12.6-12.1c-5.5-1.4-10.2-1.6-17-4.1
	c-3.2-1.2-7-2.6-12.4-5.6c-3.6-1.9-8.5-4.5-11.4-7.7c-0.9-0.6-2.2,1-4,1.8c-1.1,0.5-1.9-0.5-2.6-0.5c-1.1-0.1-2.7,1.4-4.3,2.3
	c-3.4,1.9-5.8,3.2-8.8,3.6C491.8,811.2,484.5,804,483.3,804.8z"/>
<path class="st15" d="M487.1,389.2c4,37,20.8,103.7,25.6,153.6c4.8,49.9,8.6,139.9,8.9,169.7c0.2,28.4,2.6,76.8-3.3,80.8
	s-40.4,4.7-43,1.3c-2.6-3.4-7.2-27.1-9.7-53.9c-2.5-26.6-11.2-96.2-10.5-110.1l-0.4-5c0,0-1-1.3-1.2-2.9c-0.1-1.6,1.9-4.6,1.9-4.6
	l-8.1-87L405.1,386L487.1,389.2z"/>
<path class="st13" d="M328.4,831.5c-2.9,4.6-2.1,8.4-2.1,8.4s3.3,7.3,29.5,12.6c0,0,2.1,0.5,3.3,1.1c3.9,1.9,10.5,8.2,26,12.2
	c20.2,5.2,30.7,1.4,32.2,0.5c1.5-1,2.7-7.6,2.7-7.6s-21-7.9-22-8C396.8,850.5,328.4,831.5,328.4,831.5z"/>
<path class="st10" d="M334.3,812.6c0,0,2.4-4.3,5.1-5c2.6-0.7,2.4,8.6,2.4,8.6L334.3,812.6z"/>
<path class="st14" d="M335.9,812.5c0,0,1.8-2.7,2.6-4.4c0.8-1.6,3.8-5.5,2.9-11.3c-0.9-5.4,31.1,3.6,31.1,3.6s-3.2,7.7-2.9,17.8
	c4.1,8.5-12.9,11.4-19.8,10C343,826.9,335.9,812.5,335.9,812.5z"/>
<path class="st10" d="M336.9,809.2c0,0-3.7,3.8-6,10.2c-2.2,6.2-2.7,11.9-2.4,12.3c0.3,0.5,9,9.4,23.7,11.4
	c11,1.5,19.6,12.2,36.1,16.2c16.5,4,29,1.4,30.6,0.6c2.1-1.1,3.7-8.3-8.4-15.8c-4.8-3-9.9-4.3-15.9-7.6c-3-1.7-6.5-3.8-11-8
	c-3-2.8-7.2-6.1-9.2-9.9c-0.8-0.8-6.3,0.8-6.3,0.8s-1.1-1.2-2.4-1.2c-1.3,0-1.2,0.4-3,0.9c-3.7,1-6.2,1.5-9.1,1.2
	C343.2,819,336.9,809.2,336.9,809.2z"/>
<g>
	<g>
		<g>
			
				<ellipse transform="matrix(0.3319 -0.9433 0.9433 0.3319 -533.9854 925.8022)" class="st16" cx="386.6" cy="839.9" rx="1" ry="1.4"/>
		</g>
		<g>
			
				<ellipse transform="matrix(0.3319 -0.9433 0.9433 0.3319 -534.8358 917.0171)" class="st16" cx="380" cy="836.1" rx="1" ry="1.4"/>
		</g>
		<g>
			
				<ellipse transform="matrix(0.3319 -0.9433 0.9433 0.3319 -530.9255 898.7269)" class="st16" cx="369" cy="824.2" rx="1" ry="1.4"/>
		</g>
		<g>
			
				<ellipse transform="matrix(0.3319 -0.9433 0.9433 0.3319 -533.3118 907.5545)" class="st16" cx="374" cy="830.3" rx="1" ry="1.4"/>
		</g>
	</g>
</g>
<path class="st17" d="M396.4,837.5l-3.2,3.6c0,0-2.9-1-7.6-3.8c-4.2-2.5-7.3-5-7.9-5.7c-1.4-1.4-4-5.1-5.7-7.2
	c-2.7-3.3-4.3-5.4-4.3-5.4s-0.3-0.6-0.2-0.8c0.6-2.1,3-3,5.9-1.3C377.1,819.2,381.6,827.7,396.4,837.5z"/>
<path class="st10" d="M386.3,840.3c0.7,0.4,1.2-0.2,1.3-1c0.2-0.8,3.4-4.2,4.9-4.7c0,0-0.3-0.6-0.9-0.6c-0.4,0-2.8,1.6-4.3,3.4
	C386.3,838.6,385.7,840,386.3,840.3z"/>
<path class="st10" d="M379.6,836.4c0.7,0.4,1.2-0.1,1.4-0.9s5.1-4.3,6.6-4.7c0,0-0.3-0.6-0.9-0.7c-0.4-0.1-3.6,1.7-5.6,3.5
	C379.8,834.8,379,836.1,379.6,836.4z"/>
<path class="st10" d="M373.6,830.6c0.6,0.4,1.2,0,1.4-0.8c0.3-0.8,5.7-3.4,7.2-3.7c0,0-0.2-0.7-0.8-0.9c-0.4-0.1-3.9,1.2-6.1,2.7
	C373.8,828.9,373,830.2,373.6,830.6z"/>
<path class="st10" d="M368.6,824.5c0.6,0.5,1.2,0.2,1.5-0.6c0.4-0.7,5.7-2.7,7.3-2.8c0,0-0.1-0.7-0.7-0.9c-0.4-0.2-4.1,0.8-6.4,2.1
	C369,823,368.1,824,368.6,824.5z"/>
<path class="st15" d="M380.2,391c-4.6,15.6-11.9,52.9-13.9,87c-1.2,19.6,3.7,52.3,5.5,84.2c1.3,24.3-0.1,50.4-1.6,56.6l-0.1,5
	c0,0-2.6,1.4-3.1,3c-0.5,1.6-0.1,6.1-0.1,6.1s-5.7,23.8-9.5,51.2c-3.8,27.4-23.2,102-21.7,112.4c1.5,10.3,36.4,16.9,48.3,12.7
	s46.9-142.5,54.3-170.5c7.4-28,19.9-179.8,19.9-179.8l11.5-38.9l-21.8-32.9L380.2,391z"/>
<path class="st14" d="M489.6,253.1c2.8,21,8.2,66.6,8.2,66.6s12.2,14.6,26.9,34.6c14.9,20.2,30.3,41.2,34.7,46
	c4.4,4.8,12.8,3.2,16.1,5.8c3.2,2.5,7.5,8.7,8.7,10.6c1.3,1.8,3.8,6.2,6.1,8.3c2.3,2.1,4.1,4.7,2.1,5.4c-2,0.7-3.8,1.4-5.4,0
	c0,0-8.2,11.1-12.5,12.7c-4.4,1.6-6.9,1.8-12-0.8c-5.1-2.7-9.7-9.7-10-11.7c-0.3-2,0.6-2.4,0.6-2.4s-3.9-4.4-5-6.9
	c-1.1-2.4-8.3-10.3-12.4-14c-4.1-3.7-37-30.1-50.9-46.8c-13.8-16.7-9.2-40-9.2-40L489.6,253.1z"/>
<path d="M382.5,214.2c0,0,14.7-17.7,18.8-46.6c4.1-28.9,6.4-70.2,12.3-79.1s42.6,42.3,42.6,42.3l-26.2,64.8
	C429.9,195.6,404.4,212.4,382.5,214.2z"/>
<path class="st14" d="M436.3,154.2c-3.7,23.9-9.6,24.7-9.6,24.7l3.4,14.5l39.4,2.3c0,0-2.3-22.7,0.5-28.3
	c2.8-5.6-11.4-10.4-11.4-10.4l-16-13.2l-7.1-10.1C435.7,133.7,438.4,141.5,436.3,154.2z"/>
<path class="st18" d="M444.1,151.5c0,0,3.3,24.9,24.7,30.2c0,0-0.1-11.2,0.8-13.6L444.1,151.5z"/>
<path class="st10" d="M473.6,153.5c1.2-1.7,5.2-3,7.8-2.6c2.6,0.4,5.2-0.5,5.2-0.5s0.8,6.4-4.5,7.1
	C476.8,158.3,473.6,153.5,473.6,153.5z"/>
<path class="st15" d="M485.8,299.7c0,0,12.9-1.4,14.7-3.9c2.6-3.7-9-61.3-9-61.3L485.8,299.7z"/>
<path class="st15" d="M426.7,179c1.2,5.2,6.3,9.4,6.3,9.4s32.7-5.4,44.8,7.3c12.1,12.7,16.3,30.2,15.5,60.3
	c1.7,36.8-5.2,59.9-5.6,63.9c-0.4,4,1.1,20.1,5.1,42.6c6.2,34.6,14.8,76.3,10.4,82.2c-7.3,9.8-37.1,9.4-77,9.6
	c-39.8,0.2-56.9-4.6-63.4-15.5c-6.5-10.9,10-78,14.2-114.5s6.3-70.2,13.6-99.6C398.1,195.4,426.7,179,426.7,179z"/>
<path class="st2" d="M451.6,257.7c9.3-2,19.4-22.8,19.4-22.8l-22.8-5.4l-18,7.9l11.2,19.5L451.6,257.7z"/>
<path class="st9" d="M616,107.7c0,0-22.7,2.2-34.8,10.7c0,0,9.4,5.9,18.9,2.4C609.5,117.2,614.7,113.2,616,107.7z"/>
<path class="st7" d="M608.8,115.2c-2.9-9.7-1.4-17.8,1.9-21.3c3.2-3.5,3.3-12.3,2.5-15.8c-0.8-3.5-2.4-13.9-1.9-17
	c0.5-3.1-5.2-1.7-7,3.3c0,0-2.3-18.9-3.4-21.1c-1.1-2.3-5.2-6.6-8.1-5.6c-3,1-9,3.7-10.4,8.8c-1.4,5.1-0.4,19.9-0.4,19.9
	s-3.6-15.8-6.9-14.4c-3.3,1.4-0.7,11.3,0.4,15.5c1.1,4.2,1.6,7.8,2.3,12c0.7,4.5,1.5,8.9,2.2,15.1c0.7,6.2,3.7,9.5,3.7,9.5l1.3,16.2
	L608.8,115.2z"/>
<g>
	<path class="st19" d="M589.9,62.9c0,0-2.3-5.4-2.5-10.5c-0.2-5,1.5-9.6,1.5-9.6s-0.2,5.3,0,9.6C589.1,56.7,589.9,62.9,589.9,62.9z"
		/>
</g>
<g>
	<path class="st19" d="M594.7,62c0,0,1.6-5.7,1-10.7c-0.5-5-2.8-9.3-2.8-9.3s0.9,5.2,1.3,9.5S594.7,62,594.7,62z"/>
</g>
<path class="st5" d="M702.2,203.7c0,0-16.9-4.4-30.9-8.8c-13.1-4.1-20-6.4-33.2-11.3c0,0-6.9-20.9-13-30.6c0,0-1.8-20.4-9-45.3
	c0,0-5.1,5.8-14.9,8.6c-9.8,2.8-21.3,2.3-21.3,2.3c3.8,18.3,15.8,91.5,23.1,103.8c5,7.7,55.3,30.2,83.8,31"/>
<g>
	<path class="st9" d="M619.3,170.4c-0.5,0.2-0.5,0-0.8-0.1c-0.5-0.3-0.1-4.4,1.6-9c1.7-4.6,4.8-8.1,4.8-8.1s-2.1,4.3-3.6,8.7
		C619.9,166.3,619.8,170.2,619.3,170.4z"/>
</g>
<g>
	<path class="st9" d="M629.2,190.4c-0.3,0.1-0.6,0.1-0.9-0.1c-0.5-0.3-0.7-0.9-0.4-1.4c2.9-5.2,8.7-5.7,9-5.7c0.6-0.1,1.3,0,1.3,0.2
		s-0.1,0.6-0.6,0.6c-0.5,0-5.4,1.6-7.8,5.9C629.7,190.2,629.5,190.3,629.2,190.4z"/>
</g>
<g>
	<path class="st19" d="M604.1,82.4C604,82.4,604,82.4,604.1,82.4c-0.6,0.1-1.2-2.9-1.4-7.7c-0.2-4.7,1.7-10.4,1.7-10.4
		s-0.5,6.1-0.4,9.6S604.6,82.3,604.1,82.4z"/>
</g>
<g>
	<path class="st19" d="M592.9,106.7c-3.6,0.6-9-2.6-9-2.6s5.6,1.1,9,0.4c0.5-0.1,1.1,0.3,1.2,0.8c0.1,0.6-0.3,1.1-0.8,1.2
		C593.1,106.6,593,106.6,592.9,106.7z"/>
</g>
<path class="st14" d="M434.7,247.9c36.4-7.6,91.7-32.1,99-36.1s17.9-26.7,29.6-49.9s25.9-52.8,27.6-54.2c1.7-1.4,5.9-9,7.6-20.3
	c1.6-11.3,3.2-17.4,3.6-20.4c0.5-3.8,2.8-18.1-0.4-19.8c-1.4-0.7-3.7-0.2-4.4,10.9c0,0,0.8-17-1.1-19.5c-1.9-2.5-9.9-4.3-12.7-3.3
	c-2.8,0.9-5.6,4.5-6.8,8.9c-1,3.8-1,20.9-1.3,24.8c-0.2,3.9-3,14.3-3,14.3s-3.7-5.3-8.6-4.6c-4.9,0.7-6.4,4.2-3.6,6.3
	s4.1,4.9,4.6,8.1c0.5,3.2,4.8,8.1,4.8,8.1s-8.1,12.7-13.4,21.4c-5.3,8.8-26.1,34.9-35.7,49.6c0,0-30.7,11.2-48.8,17.3
	c-16.8,5.6-28.4,14.5-28.4,14.5l-13.1,22L434.7,247.9z"/>
<path class="st15" d="M433,188.4c17-4.2,42.2-0.1,42.2-0.1s-20.8,5.7-26.3,35.9c-5.6,30.6,3.9,33.2,3.9,33.2s-27.1,8.8-39.5,16.7
	c-12.4,7.9-18-20.6-14.7-41.2C402,212.4,433,188.4,433,188.4z"/>
<g>
	<path class="st2" d="M419.2,198.5c-0.2,0-0.4-0.1-0.6-0.2c-0.5-0.4-0.5-1-0.2-1.5c4.5-5.9,13.7-8,14.1-8.1c0.6-0.1,1.1,0.2,1.3,0.8
		c0.1,0.6-0.2,1.1-0.8,1.3c-0.1,0-8.8,2.1-12.9,7.3C419.8,198.3,419.5,198.5,419.2,198.5z"/>
</g>
<g>
	<path class="st2" d="M410.7,274.6c-0.3-0.5,0-1.2,0.5-1.4c0.2-0.1,24.6-12,40.6-17.6c0.5-0.2,1.1,0.1,1.3,0.6
		c0.2,0.5-0.1,1.1-0.6,1.3c-15.9,5.6-38.4,16.2-38.6,16.3C413.7,273.9,410.8,275,410.7,274.6z"/>
</g>
<g>
	<path class="st2" d="M404.8,299.2c-0.4-0.4-0.5-1-0.2-1.5c0.1-0.1,8.5-10.4,19.7-18.6c0.5-0.3,1.1-0.2,1.5,0.2
		c0.3,0.5-1.6,2.1-2.1,2.5c-10.6,9.1-15.1,14.3-16.5,15.6S405,299.3,404.8,299.2z"/>
</g>
<g>
	<path class="st2" d="M450.5,550.1c-0.6-0.1-0.6-1.2-0.4-1.8c0.1-0.4,10-38.5,8.1-54.3c-0.1-0.6-0.2-2.2,0.4-2.2
		c0.6-0.1,0.9,2.4,1,3c2,16.2-6.9,50.9-7.3,52.5C451.3,549.2,450.7,550.2,450.5,550.1z"/>
</g>
<g>
	<path class="st2" d="M490.7,275.7c-1.2-6.7-4.3-20.6-4-20.6c0.3-0.1,3.9,12.2,5.2,20.4s0.3,22.2-0.2,22.1
		C491.2,297.6,491.8,282.5,490.7,275.7z"/>
</g>
<g>
	<path class="st18" d="M583,63.8C583,63.8,582.9,63.8,583,63.8c-0.6,0-1.8-5.1-1.7-11.4c0.2-6.3,2-11.7,2-11.7s-0.4,7-0.5,11.7
		S583,63.8,583,63.8z"/>
</g>
<g>
	<path class="st18" d="M587.9,61.8C587.9,61.8,587.8,61.8,587.9,61.8c-0.6,0-1.8-5.1-1.7-11.4s2-11.7,2-11.7s-0.4,7-0.5,11.7
		S587.9,61.8,587.9,61.8z"/>
</g>
<g>
	<path class="st18" d="M492.9,324.9c-0.2,0-0.4-0.1-0.6-0.2c-0.5-0.3-0.6-1-0.3-1.5c0.1-0.1,1.6-2.5,4.6-4.3
		c0.5-0.3,1.1-0.1,1.4,0.4c0.3,0.5,0.1,1.1-0.4,1.4c-2.6,1.5-3.9,3.6-3.9,3.6C493.6,324.7,493.3,324.9,492.9,324.9z"/>
</g>
<g>
	<path class="st18" d="M562.9,403.1c0,0,0-0.1,0-0.2c-0.1-0.6-0.6-1-1.2-0.9c-0.1,0-1.9,0.4-3.3,1.2c-1.8,1.1-3.2,2.7-3,2.9
		c0.2,0.3,2.5-1,4.3-1.7c1.1-0.4,2.2-0.3,2.2-0.3C562.5,404,562.9,403.6,562.9,403.1z"/>
</g>
<path class="st17" d="M760.4,171.5c0,0-2.9,6.9-7.5,8.8c-4.6,1.8-19.9,0.4-19.9,0.4s-0.1-2.7-0.8-7.1
	C731.5,169.2,760.4,171.5,760.4,171.5z"/>
<path class="st17" d="M760.4,174.6c0,0-2.9,6.9-7.5,8.8s-19.9,0.4-19.9,0.4s-0.1-2.7-0.8-7.1C731.5,172.4,760.4,174.6,760.4,174.6z"
	/>
<path class="st20" d="M767.3,175.6c0,0-8.8,24-33.5,18.8c0.1-2.4,0.3-3.8-0.3-8.2C732.9,182,767.3,175.6,767.3,175.6z"/>
<g>
	<path class="st9" d="M682.7,252C682.7,252,682.6,252,682.7,252c0,0-0.6-3.9,0.6-8.5c1.3-4.7,2.9-7.1,3.5-6.9c0.2,0.1,0.5,0.3,0.4,1
		c-0.3,1.3-1.5,3.8-2.2,6.5C683.8,248,683.2,252.1,682.7,252z"/>
</g>
<g>
	<g>
		<g>
			<g>
				<ellipse class="st0" cx="1009.4" cy="592.5" rx="138.1" ry="21.1"/>
				<path class="st21" d="M982.9,308.9c-0.5,0.9-4,34.3-4.6,83c-0.2,10.7,4.7,43.2,1.3,63.7c-2.4,14.7-10.2,32-10.5,49.4
					c-0.3,13.4,12.5,59.3,11.9,69.9c-1.2,7.4,10.5,7.8,11.2,0.3c0-0.4-0.1-3.3,0.3-6.5c0.2-1.7,0.2-2.2,0.3-4.3
					c0.6-14.7,5.4-31.4,6.2-37s4.8-18.7,3.8-28.9c-1-10.2-0.3-20,0.5-25.7c0.7-5.8,3.9-13.9,7.3-38.9c3.4-25,10-49.7,11.7-60.4
					c1.7-10.7,3.3-36.9,3.3-36.9s-17-20.4-22.5-25.6C997.5,305.7,982.9,308.9,982.9,308.9z"/>
				<path class="st21" d="M1032,335.7c0,4,2.6,61.1,2.3,74.9c-0.4,13.7-3.3,29.3-2.5,35.8c0.7,6.5,1.4,18.4,0.7,27.5
					c-0.7,9-5.4,24.9,0,44.1c1,4.9,0.1,12-0.3,18.3c-0.8,11.9-2.3,22.7-2.3,22.7s0.4,6.3,1.2,7.7c6.1,10.6,9.2-1.8,9.2-1.8
					s22.2-53.9,21.9-73.4c-0.4-19.5-2.9-46.3-1.1-53.9s22.5-100.9,22.1-107.4c0,0,1.3-11.4-2-35.4
					C1077.8,270.5,1032,335.7,1032,335.7z"/>
				<g>
					<path class="st20" d="M980.6,432.7c0.1,2.8,0.1,5.6,0,8.4l0,0c0.6,0,19.7,0.6,28.6,0.9c0.4-2.5,0.8-5.2,1.2-8.1
						c0.3-2.3,0.7-4.7,1-7C1003.4,428.5,989,431.2,980.6,432.7z"/>
					<path class="st20" d="M1033.5,422.3c-0.6,6.4-1.4,12.5-1.7,17.4l31-9.1c0.8-3.4,1.9-7.7,3.1-12.6L1033.5,422.3z"/>
				</g>
			</g>
			<g>
				<g>
					<path class="st22" d="M1005.8,132.8c0,0,12.6-7.2,20.1-6.8c5.7,0.3,19.2,8.1,19.2,8.1l0.5,10.5l-38.4-3.4L1005.8,132.8z"/>
				</g>
				<g>
					<path class="st23" d="M1051.4,191.9c17-16.5,13-67.2,10.5-89.7c-2.9-26.3-15.1-51.4-31.3-48.3c-24.3-6.6-37,21.1-37.8,49.6
						c-0.7,23.6-5,76.3,22.7,90.3c5.3,0.9,10.8,1.3,16.4,1.1C1038.6,194.8,1045.2,193.7,1051.4,191.9L1051.4,191.9L1051.4,191.9z"/>
					<path class="st24" d="M1005,133.6c0,0,0.4-2.5,7.1-2.5s33.1-1.8,34,4.8s-31.3,6.4-31.3,6.4s-7.4-2.6-7.3-2.8
						C1007.5,139.3,1005,133.6,1005,133.6z"/>
					<path class="st21" d="M980.5,148.3c3.3,91.2,9.4,89.2,9.4,89.2l-10.3,47.8l1,23l41.5,28.7l10-1.3l49.1-41.5
						c0,0-12.2-27.6-25.7-47.3c-5-12,21.9-89.9,21.9-89.9s-30.6-9-34-20.1c-3.1-10.2-0.6-18.5-0.6-24.3c0-13-9.6-14.2-15.4-14.6
						c-6-0.4-15.2,1.9-16.1,7.5c-1.1,6.5,5.3,22.8-4.4,31.8C1002.3,141.7,995.4,147.7,980.5,148.3z"/>
					<path class="st25" d="M1011.6,113.8c1.5,8.7,0.2,14.7,0.2,14.7s22.9,13.3,29.9-9.5c0.8-2.7,1.3-6.7,1.3-6.7L1011.6,113.8z"/>
					<path class="st26" d="M1050.1,88.3c2.1-0.1,3.5,4.6,2.5,9.2c-1,4.6-1.5,8.7-3.6,8.8c-2.1,0.1-1.3-2.9-1.5-8.2
						C1047.3,92.7,1048,88.4,1050.1,88.3L1050.1,88.3L1050.1,88.3z"/>
					<path class="st25" d="M1049.5,90c0.9-0.1,1.6,2.3,1.9,3.6c0.3,1.3,0.3,4.6-0.3,6.4c-0.5,1.4-1.3,5.2-1.8,0.7
						c-0.1-1.1,0.4-1.4,0.6-2.8c0.2-1.4-0.5-2.3-0.9-2.7C1047.5,93.7,1048.6,90.1,1049.5,90L1049.5,90L1049.5,90z"/>
					<path class="st26" d="M1002.9,89.9c-2.1,0.1-3.2,4.8-1.8,9.3c1.4,4.5,2.2,8.6,4.2,8.5c2.1-0.1,1.1-3,0.9-8.3
						C1006,94.1,1005,89.9,1002.9,89.9L1002.9,89.9L1002.9,89.9z"/>
					<path class="st25" d="M1003.6,91.6c-0.9-0.1-1.5,2.4-1.6,3.7c-0.2,1.3,0,4.6,0.8,6.3c0.6,1.4,1.7,5.1,1.9,0.6
						c0.1-1.2-0.5-1.4-0.8-2.8c-0.3-1.4,0.4-2.4,0.7-2.8C1005.8,95.1,1004.5,91.7,1003.6,91.6L1003.6,91.6L1003.6,91.6z"/>
					<path class="st26" d="M1025.7,61.6c-23.8,0.8-21.3,14.9-20.6,34.3c0.7,19.4,14.4,31.8,23.2,30.8c8-0.5,20.9-12.2,20.2-31.6
						c-0.5-14.8,0.8-26.9-9.7-31.5C1035.5,62.1,1031.3,61.5,1025.7,61.6L1025.7,61.6L1025.7,61.6z"/>
					<path class="st23" d="M1048.4,90.8c-3.3-11.5-3.3-15.2-14.3-23.5c-12.3,14.2-27.2,10-29.2,27c-3.2-2.2-2.4-8-2.4-10.7
						c0-12.8,11.3-27.1,23.2-26c17,2.8,20.2,7.7,26.2,27.9L1048.4,90.8L1048.4,90.8L1048.4,90.8z"/>
					<g>
						<path d="M1039.4,96.2c0-1.7-0.9-2.8-1.9-2.8c-1.1,0-1.9,1.1-1.9,2.8c0,1.7,0.9,3,1.9,3C1038.6,99.2,1039.4,97.9,1039.4,96.2
							L1039.4,96.2z"/>
					</g>
					<g>
						<path class="st14" d="M1041.9,91.6c0.1,0,0.2,0,0.3-0.1c0.3-0.2,0.2-0.7,0-1c-1.2-1.1-2.1-1.4-3.9-1.7c-2-0.3-3.8,0.2-5.4,1.5
							c-0.3,0.2-0.3,0.7-0.1,1c0.2,0.2,1,0.2,1.3,0.1c2.3-0.9,2.7-1.2,3.8-1.2c1.4,0,2.5,0.4,3.5,1.2
							C1041.5,91.4,1041.7,91.6,1041.9,91.6z"/>
					</g>
					<g>
						<path d="M1015.5,96.3c0-1.7,0.9-2.8,1.9-2.8c1.1,0,1.9,1.1,1.9,2.8c0,1.7-0.9,3-1.9,3C1016.4,99.3,1015.5,98,1015.5,96.3
							L1015.5,96.3z"/>
					</g>
					<g>
						<path class="st14" d="M1031.2,105c0,0-1.8-3.4-2-3.9c-1.3-3-1.6-4.9-1.1-6.1c0.1-0.2,0.3-0.3,0.5-0.2c0.2,0.1,0.3,0.3,0.2,0.5
							c-0.4,1-0.1,2.8,1.1,5.5c0.2,0.4,2.7,4.6,2.6,4.7c0,0.2-4.8,1.4-5.4,1.6c-0.4,0.1-0.7-0.6-0.2-0.8
							C1027.5,106.1,1031.2,105,1031.2,105z"/>
					</g>
					<g>
						<path class="st14" d="M1013.1,91.5c-0.1,0-0.2,0-0.3-0.1c-0.3-0.2-0.2-0.7,0-1c1.2-1.1,2.1-1.4,3.9-1.7c2-0.3,3.8,0.2,5.4,1.5
							c0.3,0.2,0.3,0.7,0.1,1c-0.2,0.2-1,0.2-1.3,0.1c-2.3-0.9-2.7-1.2-3.8-1.2c-1.4,0-2.5,0.4-3.5,1.2
							C1013.4,91.3,1013.3,91.5,1013.1,91.5z"/>
					</g>
					<g>
						<path class="st20" d="M1022.4,147.5c0.3,0.4,1.9,3.7,3.1,3.8c1.2,0.2,3.9-2.9,3.9-2.9l-3.7,1.2L1022.4,147.5z"/>
					</g>
				</g>
			</g>
			<g>
				<path class="st5" d="M1081.5,295c0-0.2-0.3-0.9-0.3-0.9s-10.3-25.8-23.5-45.5c-17.3,4-61.4,8.6-75.4,12
					c-1.3,12.2-2.6,24.7-2.6,24.7s0.8,18.2,0,23c-3.4,11-4.3,34.3-6.1,82.9c-0.3,8.4-2.1,30.3-2.9,49.2l99.1-10.1
					c5.8-23.6,15.1-92.1,15.7-97.8C1086.6,323.9,1087.4,314.9,1081.5,295z"/>
				<g>
					<path class="st4" d="M1034.9,434.1c-4.9-27-9-76.4-14.3-76.7c-6.4-0.3-16.6,64.3-18.8,80L1034.9,434.1z"/>
				</g>
				<path class="st4" d="M1016.2,294.2c0,0,5-9.4,5.3-8.6c0.3,0.8,3.6,6,3.6,6l55.2,0.2c-2-4.9-7.1-16.7-13.7-28.9
					c-19.1,3.9-71.4,13.7-86.3,16.9c0,0.1,0,0.1,0,0.2c0,0.1,0,0.2,0,0.2c-0.2,1.6-0.3,2.9-0.4,3.8c0,0.1,0,0.2,0,0.3
					c0,0.1,0,0.2,0,0.3c0,0.1,0,0.1,0,0.2c0,0.3-0.1,0.5-0.1,0.5l0.3,18.5L1016.2,294.2z"/>
			</g>
			<path class="st10" d="M1053.7,215.1c6.2-26.2,23.8-58.1,23.8-58.1s-7.9-2.6-16.2-6.5c-1.5,4.4-13.4,23.1-13.4,23.1
				s-15.9,1.5-24.6,0.8c-8.7-0.7-26.4-3.8-26.4-3.8s-1.2-23.2-0.9-28.4c-1,0.2-2.2,0.3-3.3,0.5h0c-0.1,0-0.3,0-0.4,0.1h0
				c-0.6,0.1-1.2,0.1-1.8,0.2c-0.1,0-0.2,0-0.3,0l0,0c-0.3,0-0.6,1.2-0.9,1.2c-0.4,0-0.8,0.1-1.3,0.1c0,0,0,0,0,0
				c-2.2,0.2-4.5,3.9-7.2,4c0,0,4.4,39.3,5.5,66.9H1053.7z"/>
			<g>
				<g>
					<g>
						<path class="st5" d="M1046.1,141l-25.4,57.5c0,0-7.5-43.9-12.7-62.9c-0.4,0.5-0.9,1.1-1.5,1.6c-4.7,4.3-20.5,7.9-34.2,14.2
							c0,0,4.1,20.5,7.9,34.9c-2.6,3.8-2.3,7.1-2.3,11.5c0,4.8,2.7,11,6.1,14.3c0.8,20.5-0.5,24.3-0.3,25.2
							c0.3,1.5-5.1,44.7-6.6,58.2l37.2-4.4l5.9-10.3l5.5,8.1l51.6-6.3c-2.4-4.3-18.3-32.2-21-36.1c-1.8-4,0.6-18.3,5.2-36.5
							c3.8-2.6,6.9-7.3,7.7-11.9c0.7-3.7,0.9-10.2-0.7-13.5c6-15.7,8.4-28.7,8.4-28.7s-2.6-1.9-7.9-3.9
							C1062.3,149.8,1052.4,147.2,1046.1,141z"/>
					</g>
					<polygon class="st24" points="1020.7,281 1015.4,237.1 1021.5,208.8 1018.5,236.7 					"/>
				</g>
				<path class="st24" d="M1027.1,237.5c0,1.9-1.5,3.4-3.4,3.4c-1.9,0-3.4-1.5-3.4-3.4c0-1.9,1.5-3.4,3.4-3.4
					C1025.6,234.1,1027.1,235.6,1027.1,237.5z"/>
			</g>
		</g>
		<g>
			<path class="st4" d="M1071.7,273.3c-2.3-2.2-4.4-4.3-5.3-6.5c-4.4-1.5-9-2.2-13.5-1.2c-1.8,0.4-3.6,1.1-4.7,2.6
				c1.4,0.3,2.9,0.7,4.3,1c0.9,0.2,2.1,0.9,1.7,1.7c-0.2,0.5-0.9,0.7-1.2,1.2c-0.2,0.5,0.1,1.1,0,1.6c-0.1,0.7-0.8,1.1-1.3,1.6
				c-0.6,0.4-1.1,1.2-0.7,1.8c0.3,0.5,1,0.6,1.5,0.6c1.4,0,2.8,0.1,4.1,0.1c0.5,0,0.9,0,1.3,0.3c1,0.6,0.8,2.2,0.2,3.3
				c-0.6,1.1-0.9,2.8-0.4,3.9c2.6-1.3,10.2-4.5,13-4c0.7,0.1,1.9,0.5,3.3,1c0.1-0.1,0.3-0.2,0.4-0.3
				C1073.6,278.8,1072.7,276,1071.7,273.3z"/>
			<g>
				<path class="st21" d="M1086.4,269.1c-0.5-0.3-2.2,1.5-5.3-0.5c-8.6-5.4-16.2-6-16.2-6s-1.3,1.1-1.6,1.8c-0.3,0.7,7,12.6,7,12.6
					s5.8,2.2,7.2,3.5c1.5,1.3,7,1.8,13.7-3.4C1093.4,275.4,1087.6,269.8,1086.4,269.1z"/>
				<path class="st21" d="M1047.1,267.7c0,0,2.3-2.9,7-4.5c4.7-1.6,10.9-0.6,10.9-0.6s2.6,2.7,1.9,3s-2.1,1.4-2.1,1.4s-7.6-1.1-9-1
					c-0.9,0.2-6.2,2.2-7.1,2.3C1047.7,268.5,1047.1,267.7,1047.1,267.7z"/>
				<path class="st21" d="M1047.3,274.4c-0.2-0.4,0-1.3,0.8-1.7c0.7-0.4,7.6-4.5,8.6-4.7c1-0.2,6.2-1.9,9.6-2.6
					c0.9-0.2,3.8,6.7,3.8,6.7l-2.2,1.6c0,0-7.4,1.1-8.5,1.5c-1.2,0.4-8,3.3-9,2c-1.4-1.1,1.2-2.5,1.2-2.5S1048,276.1,1047.3,274.4z"
					/>
				<path class="st21" d="M1056.5,283.6c0.3-1.1,4.8-6.4,4.8-6.4s8.6-5.2,9-5c0.3,0.2,1.9,2.4,1.8,2.8c-0.1,0.4-0.1,1.3-0.9,1.8
					c0,0-5.4,2.2-6.4,2.5c-1,0.2-6,5.6-6.8,6C1057.2,285.5,1056.1,285.1,1056.5,283.6z"/>
			</g>
			<path class="st10" d="M1101.2,271.8l-10.9-11c-2.1,3.5-4.8,7.8-4.8,7.8l6.2,11C1091.8,279.7,1096.9,276.6,1101.2,271.8z"/>
			<path class="st5" d="M1085.8,267.6c1.8,3.9,8,10,10.9,13.2c5-5.1,17-22,25.1-39.1c10.1-21.4,12.1-31.3,11.2-35.9
				c-0.9-4.6-12.9-16.5-40.8-37.2c0,0-12.3-12-17.5-13.9c-3.2-1.1-4,17.9-8.1,30.5c2.5,1.2,41.4,28.1,41.4,28.1s-7.6,26.4-9,29.6
				C1097.8,245.6,1089,262.4,1085.8,267.6z"/>
		</g>
	</g>
</g>
<ellipse class="st0" cx="1197.3" cy="607.2" rx="138.1" ry="21.1"/>
<g>
	<path class="st23" d="M1176.6,103.3c0.5-3.2,0.5-6.4,0.5-7.1c0-3.1-0.1-6.2-0.3-9.5c4.1,7.7,7.5-11.9,17.4-12.1
		c6.9-0.1,16.5,18.5,20.5,10.9c-0.5,4-0.7,6.8-0.8,10.6c0,0.2,0.4,3.5,0.4,4.9c0.2,5.6,1.5,18.5,1.5,18.5l-31.5,5.9
		C1184.1,125.4,1175.8,109,1176.6,103.3z"/>
	<g>
		<path d="M1134.8,577.8c0,0,0.3,5.3-0.6,7.8c-1.4,3.7-13,16.8-13.2,20.1c-0.5,5.8,2.1,5.3,2.1,5.3s10.9,1.7,19.6,1.2
			c5.8-0.3,10.4-2.5,10.9-3.2c1.4-2.1,3.1-5.7,3.1-5.7l7.8-1.1c0,0,0.1-8.7-0.9-9.2l-2.2-11.9
			C1161.3,581.1,1136.8,576.5,1134.8,577.8z"/>
		<path d="M1156.7,603.4c0,0,0.2-7.1,3.5-8.7c2.1-1,2.6-1.2,3.4-1.7c1.1,0.6,1,9.3,1,9.3S1162.6,602.6,1156.7,603.4z"/>
		<path d="M1121.8,610.6c0,0,24.9,3.5,31.7-1.6c0,0-2.2,4-14.8,4.4C1124.7,613.8,1121.8,610.6,1121.8,610.6z"/>
		<path class="st27" d="M1128.9,604.4c0,0,12.7,0.4,19.8-3.2c7.1-3.6,5.5,8.5-4.5,8.4C1134.2,609.6,1117,603.6,1128.9,604.4z"/>
		<path d="M1266,577.8c0,0-0.3,5.3,0.6,7.8c1.4,3.7,13,16.8,13.2,20.1c0.5,5.8-2.1,5.3-2.1,5.3s-10.9,1.7-19.6,1.2
			c-5.8-0.3-10.4-2.5-10.9-3.2c-1.4-2.1-3.1-5.7-3.1-5.7l-7.8-1.1c0,0-0.1-8.7,0.9-9.2l2.2-11.9C1239.5,581.1,1264,576.5,1266,577.8
			z"/>
		<path d="M1244.2,603.4c0,0-0.2-7.1-3.5-8.7c-2.1-1-2.6-1.2-3.4-1.7c-1.1,0.6-1,9.3-1,9.3S1238.3,602.6,1244.2,603.4z"/>
		<path d="M1279,610.6c0,0-24.9,3.5-31.7-1.6c0,0,2.2,4,14.8,4.4C1276.1,613.8,1279,610.6,1279,610.6z"/>
		<path class="st27" d="M1271.9,604.4c0,0-12.7,0.4-19.8-3.2c-7.1-3.6-5.5,8.5,4.5,8.4C1266.6,609.6,1283.8,603.6,1271.9,604.4z"/>
		<path class="st27" d="M1148.1,530.6c3-14.4,3.6-97.1,3.6-100.2c0-3,16.9-120.2,23.7-148.1c3.4-13.9,9-20.5,16.1-23l-42,1.4
			l-9.8,63.5l-2.3,150.4l-1.3,78.4l-3.9,11.1l2.5,18.4c4,0,7.2-0.3,15.5,0.6c-6.6-1.6-10.9-2.7-10.9-2.7S1145.1,544.9,1148.1,530.6z
			"/>
		<path class="st27" d="M1267.4,550.8l-5.3-50.6l-0.8-56.7l-0.8-121.7l-18.1-64.2l-37,1.2l24.1,68.3c0,0,10.8,93.5,10.8,101.8
			c0,8.3,3.8,76,4.6,82.1c0.8,6,9,70.2,9,70.2s-7.3,3.8-16.2,8l0.1,0.2c0,0,12.8-4.5,16.6-6s12,1.6,12,1.6l1.6-15.9L1267.4,550.8z"
			/>
		<path class="st27" d="M1251.1,510c-0.8-6-9.8-73.3-9.8-81.6c0-8.3-6.8-102.8-6.8-102.8l-29-66.8l-14,0.5
			c-7.1,2.6-14.9,8.6-18.3,22.5c-6.8,28-22.7,145.1-22.7,148.1c0,3-2.3,83.1-5.3,97.5c-3,14.4-6.3,54.9-6.3,54.9s5.4,0.3,12.6,0.9
			c7.3,0.8,10.6,1.7,10.6,1.7s2.5-6.1,5.5-11.4c3-5.3,3-15.1,3-15.1l3.8-22.7l3.8-77.8c0,0,10.6-58.2,12.1-60.5
			c1.5-2.3,11.3-50.2,11.3-50.2c10.6,34.8,17.4,93.3,17.4,93.3l5.3,66.5l8.3,34.8l-1.5,17.4l-0.8,8.3l3.8,9.1l3.8,12.9
			c9.2-3.1,17-6.2,17-6.2S1251.8,516.1,1251.1,510z"/>
		<path d="M1139.6,329.9l-0.2,8l23.9,2.9c0,0,20.8,0,27.6-4.6c6.8-4.6,20.9-43.5,20.9-43.5l-19.2-5.6L1139.6,329.9z"/>
		<path d="M1260.7,334c0,0-7.5,4.6-23.3,4.6c0,0-20.3-0.5-22-1.7c-1.7-1.2-16.6-30.1-16.6-30.1l5.3-18.3l46,7.5l10.9,29.5
			L1260.7,334z"/>
		<path class="st27" d="M1139.9,239.8l-9.4,92.9c0,0,8,2.5,14.9,3.3c6.9,0.7,37.8,4.7,43.9-5.4c6.2-10.2,12-24.7,16.3-53.4
			c4.4-28.7-2.2-49.7-2.2-49.7l-62.4-3.3L1139.9,239.8z"/>
		<path d="M1137.7,264.8c0,0,21.8,3.7,24.2,3.6c3,0,7.9,0.8,7.7-6.5c-0.2-7.3-0.5-9.4-0.5-9.4l2.7,0.2c0,0,0.6,16.4-3.2,16.8
			C1157.8,270.7,1137.7,264.8,1137.7,264.8z"/>
		<path d="M1139.7,240.2l-1.1,12c0,0,21.4,2.9,26.5,4.9c5.1,1.9,31.6,10.3,31.6,10.3l2.7-6.5c-0.2-8.5-0.4-14.5-2.5-22.8
			L1139.7,240.2z"/>
		<path class="st27" d="M1221.6,114.4c0,0,36.8,11.1,42.6,12.6c0,0-10.6,42.3-13.3,55.2c-3.1,14.8-3.9,29.5-3.9,29.5l-50,2.4
			l-0.5-4.6L1221.6,114.4z"/>
		<path class="st27" d="M1128.4,129.9c0,0,37.8-13.1,41.6-15l29.4,82.5l-0.7,16.7l-49.7-1.2c0,0-3-27.8-4-30.5
			C1144,179.8,1129.4,131.9,1128.4,129.9z"/>
		<path class="st27" d="M1221.8,114.5l43,12.6C1264.8,127.1,1240.9,127.3,1221.8,114.5z"/>
		<path class="st27" d="M1128.4,129.9l43.7-16.3C1172.1,113.6,1150.8,130.3,1128.4,129.9z"/>
		<path class="st10" d="M1179.6,135.4c0,0,7.4-13.6,10.2-14.2c2.7-0.5,16.2-0.5,16.7-0.2c0.5,0.4,13.6,15.6,13.6,15.6l-11.6,31.4
			l-20.5,5.6L1179.6,135.4z"/>
		<linearGradient id="SVGID_1_" gradientUnits="userSpaceOnUse" x1="1196.9788" y1="119.6053" x2="1200.3862" y2="142.5207">
			<stop  offset="0" style="stop-color:#D9DADD"/>
			<stop  offset="0.5507" style="stop-color:#DCDDE0"/>
			<stop  offset="0.9104" style="stop-color:#E4E5E8"/>
			<stop  offset="1" style="stop-color:#E8E9EB"/>
		</linearGradient>
		<path class="st28" d="M1179.2,138.7l0.4-3.2c0,0,9.2-13.9,10.9-14.6c1.7-0.7,12.4-0.5,12.4-0.5s10.5,8.7,17.2,16.4l-0.4,2.6
			c0,0-15.9-12.3-16.2-12.4c-0.3-0.1-10.8-1.1-11.5-0.8C1191.3,126.4,1179.2,138.7,1179.2,138.7z"/>
		<path class="st27" d="M1198,200c-8.8-0.4-12.4-2.2-15.8-2.9c-5-1.2-34.8-12.1-34.8-12.1l2.9,20.8l45.3,7.2
			c0.4-1.2,0.9-2.5,1.4-3.7C1198.1,206.8,1197.7,200.5,1198,200z"/>
		<path d="M1169.5,114.4c-6.3,5.4-10.9,10.9-10.9,10.9l12.7-0.7l-10.9,5.6c0,0,11.8,24.2,13.2,27.1c2.5,5.4,9,18,30,54.2l0.4-6.3
			C1203.9,205.2,1170.2,116.8,1169.5,114.4z"/>
		<path d="M1223.6,115c7.6,5.7,9.9,8.4,9.9,8.4l-8.9,1.1l9.8,3.3c0,0-7.7,23.6-9.1,26.5c-1.3,2.9-28,60.6-28,60.6l-0.7-4.8
			C1196.6,210,1223.3,117.6,1223.6,115z"/>
		<path class="st27" d="M1220.9,196.6c-6.5,3-16.8,3.7-22.9,3.4c-0.3,0.4,0.1,6.7-1,9.3c-0.5,1.2-0.9,2.5-1.4,3.7l26.8,3.4
			l20.3-20.3l2.2-17.9C1244.9,178.2,1227.6,193.5,1220.9,196.6z"/>
		<path d="M1197.2,253.4c0,0,1.4,44.3,3.7,47.4l3.5-13.9l-5.1-40.8L1197.2,253.4z"/>
		<path class="st27" d="M1197.6,226.4l54.8,3.3l19.3,97.7c0,0-12.7,4.7-18.9,6.5c-6.2,1.8-31.2,2.5-34.5,0.4
			c-3.3-2.2-15.6-43.2-16.7-46.5C1200.5,284.4,1197.6,226.4,1197.6,226.4z"/>
		<path d="M1253.5,235.1l-56.6,3c2.1,8.3,1.9,14.6,2.6,22.8l4-7.9l11.6-6.5c0,0,30,3.7,41.1,2.7L1253.5,235.1z"/>
		<path d="M1233.5,203.6c0,0,7.7-17.2,13.1-37c5.6-20.7,13.7-39.3,18.2-39.3l-13.8,64L1233.5,203.6z"/>
		<path class="st27" d="M1279.3,206.7c0.5-8.5-6.3-34.8-6.5-38.2c-0.2-3.4-4.2-40.7-8-41.2c-3.8-0.6-12.5,30.1-12.8,31.1
			c-1.3,4.4-6.8,33.1-6.8,33.1l2.7,18.5c5.5,0.5,11.6,0,15.1,5c5.8,7.8,8.8,17.6,9.6,27.3c0.2,0,0.4-0.1,0.6-0.1
			C1275.6,241.6,1278.8,215.2,1279.3,206.7z"/>
		<path d="M1250.9,162.4l-7.4,35.3l11.6,12.7c0,0,12.3,4.4,15.6,4.9c6.4,0.9-3.4-11.8-3.4-11.8s6.4-6.7,0-8.5c0,0,1.3-7.6-7.3-5.6
			c0,0,4.5-5.4-0.7-6.4C1254,182.1,1250.1,167.1,1250.9,162.4z"/>
		<path class="st29" d="M1199,246.1c0,0,21-7.1,26-9.7c5-2.6,24-21.8,25.1-22.6c1.2-0.9,11.4-7.4,12.1-8.2c0.7-0.8,1.2-3.9-1.2-3.9
			c0,0,4.2-0.9,5.2-1.2c1.5-0.5,4.6-4.5-2.7-4.5c0,0,3.3-1.3,2.2-3.6c-1.1-2.3-7.2-1.6-9-1.3c-1.8,0.3-11.1,2.6-11.1,2.6
			s10.5-4.3,11.8-6.3c1.1-1.6,0.2-3.4-2.6-3.3c-2.8,0.1-9.9,3.2-10.7,3.6c-0.9,0.4-6.2,4.3-6.8,4.8c-0.6,0.4-18.6,20.6-18.6,20.6
			l-19.4,24.8L1199,246.1z"/>
		<path class="st21" d="M1219.5,211.5l4.9-5c0,0,6.4,1.9,22.5,1.4c3.6-0.1,9.1,0,9.8-0.2c0.7-0.2,5.9-2.3,5.8-5.1c0,0,0.8,1.4-0.3,3
			c-1.6,2-8.6,5.7-8.6,5.7L1219.5,211.5z"/>
		<path class="st30" d="M1252.4,184.6c0,0-0.9,2.6,1.7,2.5c1.5-0.1,0.3,0.1,1.9-0.3c1.6-0.4,1.1-3-0.1-3
			C1253.7,183.8,1252.4,184.6,1252.4,184.6z"/>
		<path class="st30" d="M1260.3,191.1c0,0-1.6,2.5,1.1,3c1.5,0.3,0.3,0.1,2.1,0.1c1.8,0,1.9-2.8,0.6-3.1
			C1261.8,190.6,1260.3,191.1,1260.3,191.1z"/>
		<path class="st30" d="M1258.1,203c0,0-0.3,2.2,1.8,1.7c1.2-0.3,0.3,0,1.6-0.6c1.3-0.6,0.4-2.5-0.6-2.3
			C1259,202.2,1258.1,203,1258.1,203z"/>
		<path class="st21" d="M1235,199.8c0,0,10.1-6,13-6.9c3-1,6.8-3.5,6.8-3.5s2.5-1.3,2.8-2.2c0.3-0.9,0-1.5,0-1.5s0.1,0.5-0.8,1.2
			c-0.9,0.8-5.9,3.2-6.8,3.9c-0.9,0.7-3.8,1.1-4.7,1.6C1244.5,192.8,1235,199.8,1235,199.8z"/>
		<path class="st21" d="M1265.8,194c0,0-0.7,1.7-1.7,1.9c-1,0.2-4.9,0.8-6,1c-1.1,0.2-7.5,1.2-7.8,1.3c-0.3,0.1-9.9,6.5-9.9,6.5
			s7.5-6.9,8.8-7.5C1250.5,196.7,1264.2,195.4,1265.8,194z"/>
		<path class="st21" d="M1268.1,198.5c0,0-0.5,1.7-2.1,2.2c-1.7,0.6-6.1,1.1-6.6,1.3c-0.6,0.1-7.4,3.1-8.3,3.4
			c-0.9,0.2-7.7,4.5-7.7,4.5s5.6-4.9,7.3-5.8c1.7-0.9,6.4-3,7.9-3.4C1259.9,200.3,1265.2,200.5,1268.1,198.5z"/>
		
			<linearGradient id="SVGID_00000000206148817675495810000014818668629760465034_" gradientUnits="userSpaceOnUse" x1="1246.1713" y1="195.2079" x2="1246.5793" y2="204.0841">
			<stop  offset="0" style="stop-color:#FFD9B3"/>
			<stop  offset="1" style="stop-color:#F7D4AB"/>
		</linearGradient>
		<path style="fill:url(#SVGID_00000000206148817675495810000014818668629760465034_);" d="M1237.2,198.5c0,0,8.2-4.8,9.2-5.1
			c4-1.1,8.7-2,8.7-2s-5.9,1.9-8.1,3C1244.8,195.4,1237.2,198.5,1237.2,198.5z"/>
		
			<linearGradient id="SVGID_00000174572357065866950140000006614938876614512008_" gradientUnits="userSpaceOnUse" x1="1238.328" y1="195.6789" x2="1239.5479" y2="222.2116">
			<stop  offset="0" style="stop-color:#FFD9B3"/>
			<stop  offset="1" style="stop-color:#F7D4AB"/>
		</linearGradient>
		<path style="fill:url(#SVGID_00000174572357065866950140000006614938876614512008_);" d="M1225.8,204.9c0,0,10-11.4,10.9-12.3
			c0.9-0.8,6.2-4.3,7.1-5c0.9-0.6,6.9-2.6,6.9-2.6s-5.4,2.6-6.5,3.2c-1.1,0.5-6.4,4.6-7,5.1C1236.6,193.9,1225.8,204.9,1225.8,204.9
			z"/>
		<path class="st30" d="M1262.6,196.3c0,0-1.3,2.6,1.4,2.8c1.5,0.1,0.3,0.1,2-0.1c1.7-0.2,1.5-3,0.2-3.1
			C1264,195.6,1262.6,196.3,1262.6,196.3z"/>
		<polygon class="st21" points="1197.2,247.4 1216.5,240.5 1196.4,237 		"/>
		<path d="M1158.3,204.8c0,0-11.6-32.9-16.7-51.3c-0.9-3.2-6.4-24-12.4-23.9l18.7,75.9L1158.3,204.8z"/>
		<polygon class="st10" points="1195.4,249 1204.7,248.6 1206.1,237.4 1196.9,238 		"/>
		<path class="st27" d="M1129.8,129.6c2.5,0.6,6.9,11.2,9.4,21.3c2,8.2,6.3,35.6,7.5,41.6c1.5,7.3,2.7,19.4,2.7,19.4l56.2,17.9
			c0,0-5.3,19.9-6.7,23.5c-1.4,3.5-3.8,10.6-3.8,10.6s-31.8-11.5-38.2-13.1c-6.4-1.6-35.2-5.9-35.2-5.9s-8.1-1.4-6-39.1
			c0.6-11.5,3.4-26.5,4-35.2c1.7-23.7,4.9-33.1,5.6-34.9C1126.3,132.4,1127.7,129.1,1129.8,129.6z"/>
		<path d="M1143,170.2c0,0,6.5,21.8,6.7,23.1c0.2,1.3,0.2,9.6,0.2,9.6l-5.1,9.1l12,8.2l16.2,2l32.3,9.5l-3.3,11.3l-7.9-1.4
			c0,0-1.5-4-2.2-6.9c-6-2.2-22.5-6.9-25-7.1c-2.5-0.2-13.3-3.1-20.5-8.5c-1.8-1.3-18.6,3-16.7,0.4
			C1133.9,213.3,1147.6,205.8,1143,170.2z"/>
		<path class="st12" d="M1191.5,228.1l0.8,4.4c0,0,4,0.4,4.6-2.4c0.6-2.8,0.6-2.8,0.6-2.8l0,0L1191.5,228.1z"/>
		<path class="st29" d="M1198.8,231.7c0,0-24.5-7.5-26.1-8c-1.6-0.5-3.9,0.8-5.2,0.7c-1.3-0.1-11.5-2.4-12.1-2.9
			c-0.7-0.4-12-8.3-12.5-8.9c-0.5-0.6,3.2-13.4,9-12.9c4.7,0.4,13.7,4.8,15.1,5.7c1.4,0.8,16.6,4.3,18.2,4.3
			c1.6,0,12.9,0.7,12.9,0.7L1198.8,231.7z"/>
		<path class="st21" d="M1142.2,212.9c0,0,2-7.5,4-10.2c2.5-3.4,5.1-3.6,8-2.7c0,0-3.1,0.7-4.9,2.2c-1.8,1.5-3.1,2-3.1,3.1
			c0,1.1-1.1,1.5-1.3,2.9c-0.2,1.5,0.9,2.5,2.9,4.5c2,2,7.3,6.7,9.1,6.9c1.8,0.2,9.8,1.2,14.2,1.6c3.8,0.4,23.2,2.7,23.2,2.7
			l-0.7,6.2c0,0-19.9-6.3-21-6.4c-1.1-0.2-4.7,1-5.1,0.9c-0.9-0.2-11.4-2.8-12.5-3.3C1154.1,221.2,1142.2,212.9,1142.2,212.9z"/>
		<path class="st21" d="M1189.3,209.7l3.1,0.2c0,0,4.5,17.2,2.8,20.6l-3.5-1C1191.7,229.5,1193.9,222.4,1189.3,209.7z"/>
		<path class="st33" d="M1194.9,231.6l1.9,8.2c0,0,3.2-7.3,3.1-8.8L1194.9,231.6z"/>
		<path class="st10" d="M1190.8,209.8l4.1,0.1l9.2,23.7l-11.9-1.1c0,0,1.6-2.2,1.6-5.9C1193.8,222.9,1191.9,212.2,1190.8,209.8z"/>
		<polygon points="1201.2,200.1 1204.4,199.6 1199.3,211.3 1196.3,210.8 		"/>
		<path class="st27" d="M1247.9,210.4l-53.6-0.4c0.7,0.5,5.4,24.4,2.6,29.8c10.4,1.1,21.2,2.3,25.5,2.7c26.9,2.1,46.1,0.4,50.2-0.2
			c0.2-10.4-3.1-20.4-8.9-28.2C1260.2,209.1,1247.9,210.4,1247.9,210.4z"/>
		<path d="M1234.7,254.2c0,0-0.1,9.4,0.4,10.6c0.5,1.2,2.7,1.8,4.4,1.6c1.5-0.2,18-3,18-3s-16.4,4.6-18.9,4.8c-5.3,0.5-4.7-4-4.7-4
			L1234.7,254.2z"/>
		<path class="st27" d="M1272.5,169.4c0.4,18-0.5,21.3-6.2,10.9c-5.3-9.6-15.3-39.3-2.2-53.2
			C1270.4,125.3,1272.5,169.4,1272.5,169.4z"/>
		<path class="st27" d="M1128.9,129.6c1.3-0.4,6.2,4.8,7.6,17.9c1.5,13.1-4.6,45.5-9.4,47.4c-4.8,1.9-6.2-16.8-7.4-22.1
			c-1.2-5.3,2.7-28.4,3.7-32.6C1124.3,136,1125.4,130.7,1128.9,129.6z"/>
		<path class="st27" d="M1115.3,223.5c0,0,0.4,20.7,6.5,21.5c6.1,0.8,16.4,2.6,16.4,2.6l16,2.5c0,0-26.7-7.4-29.5-8.7
			C1122.1,240.2,1115.5,228.5,1115.3,223.5z"/>
		<path d="M1277.6,222.9c0,0-1.6,19.2-4.4,19.4c-42.6,3.7-76.3-2.6-76.3-2.6s0.9-2.3,0.9-4.9c45.7,4.7,67.2,2.2,71.2,0.2
			C1274.9,232,1277.6,222.9,1277.6,222.9z"/>
		<path d="M1178.2,457.9c0,0,13.4-63.2,14.1-64.5c0.8-1.3,9.3-44.3,9.3-44.3s12.4,58.6,12.9,63.4c0.5,4.8,5.1,34,6.9,58
			c0,0,0.6-63.7,0.1-66.4c-0.5-2.8-19.4-69.3-19.4-69.3s-8.6,18.1-9.6,23.7C1191.6,363.9,1178.2,457.9,1178.2,457.9z"/>
		<polygon class="st34" points="1193.9,134.9 1190.8,149 1190,171.3 1200,195.4 1208.1,170.2 1206.3,149 1201.8,134.4 		"/>
		<path class="st34" d="M1190.7,123.9c0,0,3.5-3.8,6-3.7c2.5,0.1,7.3,1.8,7.5,2.4c0.2,0.6-1.2,9.8-2.1,11.5c-1,1.7-6.3,1.9-8.1,0.8
			C1192.1,133.8,1190.7,123.9,1190.7,123.9z"/>
		<path class="st10" d="M1196.2,120.2c0,0,15.2-6.4,16.9-12.5c1.3-4.9,1.1-6.9,1.1-6.9s0.8,0.4,2,4.4c1.6,5.4,3.8,10.2,3.8,10.2
			l-4.7,20.4c0,0-10.2-11.2-11.7-12.6C1202.4,122.2,1199.6,120.7,1196.2,120.2z"/>
		<path class="st10" d="M1196.2,120.2c0,0-16.3-7.7-17.8-12.5c-1.3-4.3-1.7-5.4-1.7-5.4s-1.3,1.2-2.5,5.2
			c-1.6,5.4,0.7,13.4,0.7,13.4l5.3,16.9c0,0,8.8-11.9,10.6-13.9C1192.5,121.9,1196.2,120.2,1196.2,120.2z"/>
		<path class="st27" d="M1175,105.2c0,0-1.7,2-3,4c-1.6,2.5-11.5,14.9-11.5,14.9l8-0.5l-7.2,4.4c0,0,9.6,20.3,12.2,24.9
			c3.8,6.9,25.8,48.5,25.8,48.5s0.6-8,0.1-9.6c-0.5-1.6-6.6-16.7-12.8-33.4c-2-5.5-7.8-27.8-10.8-37.8
			C1173.6,113,1175,105.2,1175,105.2z"/>
		
			<linearGradient id="SVGID_00000011752129647429724680000009022149482499550901_" gradientUnits="userSpaceOnUse" x1="1199.0073" y1="190.7768" x2="1198.2938" y2="199.0709">
			<stop  offset="0" style="stop-color:#1C1B1C"/>
			<stop  offset="2.977949e-02" style="stop-color:#1C1B1C"/>
			<stop  offset="1" style="stop-color:#242326"/>
		</linearGradient>
		<polygon style="fill:url(#SVGID_00000011752129647429724680000009022149482499550901_);" points="1198.8,190 1200.2,193.5 
			1198.4,199.9 1197,197.1 		"/>
		<path class="st27" d="M1216,104.9c0,0,2.6,2.7,4.1,4.6c1.4,1.9,11.6,12.9,11.6,12.9l-7.7,0.7l9.2,3.4c0,0-8,24-10.2,28.9
			c-2.2,4.8-26.8,56.8-26.8,56.8s1.2-12.2,1.4-13.8c0.2-1.7,7.9-19.5,12-36.7c1.4-5.7,6.5-29.8,8-40.2
			C1218.8,113.5,1216,104.9,1216,104.9z"/>
		<path class="st27" d="M1195.8,211.5l1.6-11.6c0,0,4.1,0.2,4.5,0.2l-5,11.1L1195.8,211.5z"/>
		<path class="st27" d="M1194.2,209.9c59.8,0.4,59.8,0.4,61,0.5c13.4,1.8,18.5,9.6,5.1,12.2c-15.1,2.9-63.4,0.3-63.4,0.3
			S1195.7,214.1,1194.2,209.9z"/>
	</g>
</g>
<path class="st34" d="M1047.1,267.7c0,0,0.6,0.1,2.1-0.9c0,0,0.1-0.4-0.3-0.9C1049,265.9,1047,267.5,1047.1,267.7z"/>
<path class="st34" d="M1058.4,282.6c0.6,0.5-0.1,2.7-1.2,2.6c-1.1-0.1-0.9-1.1-0.7-1.6C1056.7,283,1057.5,281.9,1058.4,282.6z"/>
<path class="st34" d="M1052.9,275.1c0.7,0.7-0.1,1.9-2.5,2.1c-1.6-0.5,0.3-2,0.7-2.2C1051.5,274.8,1052.3,274.5,1052.9,275.1z"/>
<path class="st34" d="M1050,271.6c0,0,0.6,0.9,0.1,1.7c-0.5,0.8-2.4,1.6-2.8,1.1c-0.4-0.4,0-1.3,0.5-1.7S1050,271.6,1050,271.6z"/>
<g>
	<path class="st4" d="M983.4,277.5c2.4-2,4.6-4.1,5.6-6.2c4.5-1.3,9.1-1.7,13.5-0.5c1.8,0.5,3.5,1.3,4.6,2.8
		c-1.4,0.3-2.9,0.5-4.3,0.8c-0.9,0.2-2.1,0.8-1.8,1.6c0.2,0.5,0.9,0.7,1.1,1.2c0.2,0.5-0.2,1.1-0.1,1.6c0.1,0.7,0.7,1.2,1.2,1.6
		c0.5,0.5,1,1.2,0.7,1.8c-0.3,0.5-1,0.5-1.6,0.5c-1.4,0-2.8-0.1-4.1-0.1c-0.5,0-0.9,0-1.3,0.2c-1.1,0.6-0.9,2.2-0.4,3.3
		c0.5,1.1,0.7,2.8,0.2,3.9c-2.6-1.4-9.9-5-12.8-4.6c-0.7,0.1-1.9,0.4-3.3,0.8c-0.1-0.1-0.3-0.2-0.4-0.3
		C981.2,282.8,982.3,280,983.4,277.5z"/>
	<g>
		<path class="st21" d="M968.9,272.5c0.5-0.3,2.1,1.6,5.3-0.2c8.8-5,16.5-5.3,16.5-5.3s1.2,1.2,1.5,1.9c0.3,0.7-7.6,12.3-7.6,12.3
			s-5.9,1.9-7.4,3.2c-1.5,1.2-7.1,1.4-13.5-4.1C961.6,278.4,967.7,273.2,968.9,272.5z"/>
		<path class="st21" d="M1008.2,273c0,0-2.2-3-6.8-4.8c-4.6-1.8-10.8-1.1-10.8-1.1s-2.7,2.6-2.1,2.9c0.6,0.4,2.1,1.5,2.1,1.5
			s7.6-0.7,9-0.5c0.8,0.3,6.1,2.5,7,2.7C1007.5,273.8,1008.2,273,1008.2,273z"/>
		<path class="st21" d="M1007.7,279.7c0.2-0.4,0-1.3-0.7-1.7c-0.7-0.5-7.4-4.8-8.4-5.1c-0.9-0.3-6.1-2.2-9.5-3
			c-0.8-0.3-4.2,6.5-4.2,6.5l2.2,1.7c0,0,7.3,1.4,8.4,1.9c1.1,0.5,7.9,3.7,8.9,2.4c1.4-1-1.1-2.6-1.1-2.6S1006.9,281.4,1007.7,279.7
			z"/>
		<path class="st21" d="M998,288.4c-0.3-1.1-4.5-6.6-4.5-6.6s-8.4-5.7-8.7-5.5c-0.3,0.2-2,2.3-1.9,2.7c0.1,0.4,0.1,1.3,0.8,1.8
			c0,0,5.3,2.5,6.3,2.8c0.9,0.3,5.7,5.9,6.5,6.3C997.3,290.3,998.4,289.9,998,288.4z"/>
	</g>
	<path class="st10" d="M953.9,276.2l10.5-11.3c2.3,3.4,6,7.7,6,7.7l-7.5,11.1C962.8,283.6,958.3,280.8,953.9,276.2z"/>
	<path class="st5" d="M970.5,269.9c0,0-9.9,9.8-12.7,13.1c-5.5-6-12.5-16.5-21.2-33.3c-10.9-21-12.9-29.7-12.2-34.4
		c0.7-4.6,20.6-35,27-42.7c6.4-7.8,15.9-19.1,21-21.1c3.1-1.3,6.7,20.2,11.3,32.6c-2.5,1.3-34,37.9-34,37.9s7.4,21.2,9,24.3
		C960,248.9,970.5,269.9,970.5,269.9z"/>
</g>
<path class="st34" d="M996.2,287.4c-0.7,0.5-0.1,2.7,1.1,2.6c1.1,0,1-1.1,0.8-1.6C997.8,287.9,997.1,286.7,996.2,287.4z"/>
<path class="st34" d="M1002.1,280.1c-0.7,0.7,0,1.9,2.4,2.3c1.6-0.4-0.2-2-0.6-2.3C1003.5,279.9,1002.7,279.5,1002.1,280.1z"/>
<path class="st34" d="M1005.1,276.7c0,0-0.6,0.8-0.2,1.7c0.4,0.8,2.4,1.7,2.8,1.3c0.4-0.4,0-1.3-0.5-1.7
	C1006.7,277.6,1005.1,276.7,1005.1,276.7z"/>
<g>
	<path class="st24" d="M980.1,185.5c0.1-0.6-0.4-8.4-0.5-8.9c-0.8-4.4-1.2-9.2-3.1-13.2c0,2,0.6,4.8,1,7c1,3.2,1.1,13.7,1.9,16.9
		C979.7,186.7,980,186.1,980.1,185.5z"/>
</g>
<g>
	<path class="st24" d="M1068,185c-0.2-0.6-1.1-8.3-1.1-8.9c0-4.5-0.5-9.2,0.7-13.5c0.4,2,0.3,4.8,0.2,7.1c-0.4,3.4,1.4,13.7,1.1,17
		C1068.6,186.2,1068.2,185.7,1068,185z"/>
</g>
<path class="st21" d="M956.5,586.3c0,0,6.3-4.3,7.9-6.1c1.7-1.9,6.1-5.8,7.3-6.5c1.1-0.8,9.1-5.9,7.1-15.5
	c-2.2-10.6,7.9,18.6,7.9,18.6l-2.9,8.7l-14.2,6.1L956.5,586.3z"/>
<path d="M960.2,583.6c0-0.4-6.8,4.4-10.6,7.5c-2,1.6-3.6,4.1-4.1,4.8c-1.5,2.1-1.7,3.9-0.7,5.4s3.6,2.4,4.4,2.6
	c15.5,2.2,22.6-10.1,31-13.5c1.5-0.6,3.6,0.9,5,0.9c3.4-0.1,4.2-0.4,5.9-1.7c0.7-0.5,2.1-2.3,2.7-4.8c0.5-2.1,1.5-2.8,0.6-5.8
	c0,0-0.5-3.5-2-5.3c0,0-2.2,3.5-9.6,7s-10.6,5.4-14,6.9C968.7,587.5,960.9,588.7,960.2,583.6z"/>
<path class="st21" d="M1030.5,554.6c0,0-0.6,8.4-3.8,10.9c0,0,15.1,16.1,18.7,17.6c3.5,1.5,15-1.4,15-1.4l-1.4-1.7
	c0,0-4.5-4.1-5.4-5.3c-1-1.1-5.1-5.9-7.2-8.5c-2.2-2.6-4.5-4.8-2.6-10.4C1045.7,550.1,1030.5,554.6,1030.5,554.6z"/>
<path d="M1057.4,578.4c0.1-0.4,4.8,3.8,7.8,7.6c1.6,2,2.3,5.3,2.4,6.2c0.4,2.5-0.6,4.1-2,5.1c-1.4,1-6.4,1.9-7.2,1.8
	c-15.3-0.9-14.1-13.2-21.5-18c-1.3-0.9-3.7,0.8-4.9,0.5c-3.2-0.8-3.6-0.8-5.1-2.3c-0.3-0.3-0.6-1.3-1-2.7c-0.3-1.1-0.9-2.3-0.9-3.5
	c0-2.1-0.1-2.7,0.6-5.7c0,0,1.2-3.3,3-4.7c0,0,1.4,3.8,7.9,8.6c6.5,4.8,6.4,7.3,9.4,9.4C1045.7,580.6,1055.6,583.2,1057.4,578.4z"/>
<path class="st21" d="M1057.4,572"/>
<path class="st18" d="M1024.1,115.6c0.5-0.2,1.1-1,3.9-0.9c2.7,0.1,2.8,0.6,3.6,0.8c0.9,0.3,1.2-0.3,0-1.2c-1.1-0.9-1.5-1.1-3.6-1.2
	c-2.1-0.1-3.2,0.8-4.1,1.4C1023.1,115.2,1023.6,115.8,1024.1,115.6z"/>
<path class="st34" d="M1008.2,273c0,0-0.6,0.1-2.1-1c0,0-0.1-0.4,0.3-0.9C1006.5,271.2,1008.3,272.8,1008.2,273z"/>
<path class="st24" d="M998.4,161l10.6-1.9l-9.5,9.5l17.7,35l3.9,7.7l29.3-43.1l-9.1-8.3l10.2,2.7l-0.4-17.6
	c0.1-4.3-4.5-9.1-5.8-10.3l-23.9,62.5c0,0-8.9-46.2-14.2-65.2c-0.9,0.1-1.5,0.4-2,0.9c-1.1,1.1-3.4,4.3-3.8,7
	C1000.2,149,998.4,161,998.4,161z"/>
<g>
	<path class="st7" d="M724.3,105.6c0,0-4.9,5.2-8.7,14.7c-1.4,3.4-0.2,1.8-1.4,5.8c-0.7,2.3,0.2,4.9-0.4,7.3
		c-0.7,3-1.7,6.7-2.3,10.1c-0.8,5.1,0.2,11.2,0.3,16.3c0.4,11.7,1.8,20.5,8.7,25.9c6.7,5.2,18.4,7,36.7-3.1
		c6.1-3.3,8.3-4.3,15.7-12.6c6.9,4,29.8-25,7-25.8C780,144.3,785.8,104,724.3,105.6z"/>
	<path class="st36" d="M795.9,118.9c-3.1-48.1-68.3-33.3-68.3-33.3c-23.8-0.3-13.9,43.3-13.9,43.3c3-10.8,15.2-19.4,15.2-19.4
		c3.3,5.2,36.7,12.6,36.7,12.6c9.7,11.8-0.9,22.5-0.9,22.5s7.9,9.1,4.7,18.3l1.9,1l4.9-9.7c4.2-5.2,10.6-8.2,10.6-8.2
		C799.3,131.5,795.9,118.9,795.9,118.9z"/>
	<path class="st37" d="M782.5,153.9c3.9-1,0.6,9.3-6.5,10.1C774.9,163.4,778.6,154.9,782.5,153.9z"/>
</g>
<path class="st10" d="M721.8,171.5c0,0,9.8,1.3,13.5,1c3.8-0.2,3.8-0.2,3.8-0.2s-3,7.3-9.1,6.8C723.9,178.6,721.2,174,721.8,171.5z"
	/>
<g>
	<path class="st19" d="M730.3,148.3c-1.1-1.5-6.8,13.3-6,15c0.8,1.7,8.5,3.5,9.2,1.5c0.7-1.9-5.3-1.9-6-3.1S731.4,149.9,730.3,148.3
		z"/>
	<path class="st38" d="M722.7,146.5c-0.3,2.4-2.1,4.2-4,3.9c-1.9-0.3-3.1-2.4-2.8-4.9c0.3-2.4,2.1-4.2,4-3.9
		C721.8,141.9,723,144.1,722.7,146.5z"/>
	<path class="st38" d="M747.9,150.2c-0.4,2.4-2.3,4.1-4.2,3.7c-1.9-0.3-3-2.6-2.5-5s2.3-4.1,4.2-3.7
		C747.2,145.5,748.4,147.8,747.9,150.2z"/>
	<path class="st36" d="M741.3,134.2c0,0-1.8,2.3-1.3,3.3c0.5,1,6.3,1.1,11.1,2.5c4.9,1.4,6.1,1.8,6.1,1.8s-0.8-3.3-3.7-4.8
		C750.7,135.5,743.1,133.1,741.3,134.2z"/>
	<path class="st36" d="M723.9,134c0,0,0.1,1.5-1.1,2.4c-1.2,0.9-3.8,0.8-5.9,1.3c-2.1,0.5-4.6,1.6-4.6,1.6s0.9-3.8,1-4.2
		C713.5,134.9,719.3,132,723.9,134z"/>
</g>
<path class="st1" d="M614.5,50.2"/>
<path class="st18" d="M572.4,83.2c0,0-0.5,1.1-0.3,3.9c0,0-2.2-6.4-4.5-8C567.5,79.2,569.6,79.9,572.4,83.2z"/>
<path class="st14" d="M496.8,93.5c1.2,4.3,0,11.2-0.2,19.1c-0.1,5,2.8,17.7,3,24c0.5,14.9-7.4,40.1-19,41.4
	c-11.6,1.3-32.8-15.2-37-21c-4.2-5.7-4.9-11.8-5.7-15.4c-0.2-0.9-0.4-1.8-0.5-2.7c-7.4,8.9-30.8-23.9-8.2-23.2
	C429.3,115.8,476.9,32.2,496.8,93.5z"/>
<g>
	<path class="st38" d="M490.7,124.7c0,2.5,1.3,4.5,2.8,4.4c1.5,0,2.7-2,2.7-4.5c0-2.5-1.3-4.5-2.8-4.4
		C491.9,120.2,490.7,122.2,490.7,124.7z"/>
	<path class="st38" d="M471.4,127.9c0.2,2.5,1.6,4.4,3.2,4.2c1.6-0.1,2.7-2.2,2.5-4.7c-0.2-2.5-1.6-4.4-3.2-4.2
		C472.3,123.3,471.2,125.4,471.4,127.9z"/>
</g>
<path class="st10" d="M473.3,154.8c0,0,8.5,1.8,12.9,0.6c4.4-1.3,4.4-1.3,4.4-1.3s-1.4,6.9-7.7,7.9
	C476.7,163,473.3,154.8,473.3,154.8z"/>
<path class="st18" d="M486.8,129.2c-0.2-1.3-2.2-1.2-2,0c0.3,2.2,1.3,4.4,2.2,6.4c0.6,1.2,2.7,4,2.9,5.3c0.2,1.1-2.1,3.1-3.5,4.2
	c-0.2,0.1-0.4,0.3-0.5,0.6c0,0,0,0.1,0,0.1c-0.3,0.8,0.8,1.6,1.5,1.1c1.7-1.2,4.5-3.4,4.5-5.5C492,137.6,487.4,133.2,486.8,129.2z"
	/>
<g>
	<path d="M479.4,117.2c-0.1,0.7-1,1.3-2.7,1.3c-2-0.1-2.9-0.6-4.9-1.2c-0.8-0.2-1.6-0.2-2.6,0c-4.5,0.8-7,3.9-7.3,3.5
		c-0.3-0.3,1.7-4,5.3-5.8C474.9,111.1,479.6,115.6,479.4,117.2z"/>
</g>
<path d="M496.6,112.2c-5.4-1.9-8.6,1-8.6,2.4c0,0.7,0.8,1.5,2.6,1.6c2,0.2,3-0.2,5-0.5c0.6-0.1,0.7,0,1.4,0.1c0,0,0.3-0.4,0.2-1.7
	C497.1,112.7,496.6,112.2,496.6,112.2z"/>
<path d="M486.8,69.9C470.2,57.4,458,59.7,440.9,65c-14.5,1.2-24.3,11.2-29,27.6c-4.7,16.4,11.2,75.8,11.2,75.8l5-8l4.3-17.9
	c0,0-0.2-26.8,3.7-26.1c5.7,1.5,9.6,14.2,9.6,14.2s6-24.1,12.4-31c4.7-5.1,18.3-11,21.2-11.9l-2.3-3.1l5.3,2.9
	c1.1,0.2,3.5,1.1,8.3,4.8c6.9,5.3,6.7,12.5,6.7,12.5S505.3,83.7,486.8,69.9z"/>
<path class="st14" d="M440.5,119.8c-3.8-5.4-10.3-5.6-11.9-1.7c-1.6,3.9,0.5,21.4,5.5,24.2c5,2.7,6.7,0,6.7,0s-2.2-7.2-0.9-11
	C441.1,127.5,440.5,119.8,440.5,119.8z"/>
<path class="st39" d="M434.7,119.1c1.5,0.1,3.9,5.5,1.8,8c-0.6,0.7-1.6,2.2-1.1,4.4c0.6,2.2,1.6,2.5,1.5,4.4
	c-0.2,7.2-2.6,1.5-3.3-0.8c-1-3.6-2-10.6-1.8-12.6C432.1,120.5,433.1,119.1,434.7,119.1L434.7,119.1L434.7,119.1z"/>
<path d="M433.8,164.3c0,0-1,9.1-9.6,21.4c-8.6,12.2-18.1,19.5-16.8,41.3c0,0-9.6-10.5-7.4-25.5s18.7-29.9,23.2-42.5
	C427.6,146.5,433.8,164.3,433.8,164.3z"/>
<g>
	<g>
		<g>
			
				<ellipse transform="matrix(8.958473e-02 -0.996 0.996 8.958473e-02 -325.0057 1283.8208)" class="st16" cx="539.7" cy="819.7" rx="1" ry="1.4"/>
		</g>
		<g>
			
				<ellipse transform="matrix(8.958473e-02 -0.996 0.996 8.958473e-02 -329.6664 1274.6321)" class="st16" cx="532.4" cy="817.6" rx="1" ry="1.4"/>
		</g>
		<g>
			
				<ellipse transform="matrix(8.958473e-02 -0.996 0.996 8.958473e-02 -332.4304 1252.6646)" class="st16" cx="519" cy="808.2" rx="1" ry="1.4"/>
		</g>
		<g>
			
				<ellipse transform="matrix(8.958473e-02 -0.996 0.996 8.958473e-02 -332.0339 1263.6971)" class="st16" cx="525.2" cy="813.5" rx="1" ry="1.4"/>
		</g>
	</g>
</g>
<path class="st17" d="M547.7,816.8l-1.4,2.6c0,0-3.1-0.3-8.3-1.8c-4.7-1.3-8.3-3.1-9.1-3.5c-1.7-1-4.2-4.1-6.4-5.7
	c-3.5-2.6-6.4-4-6.4-4s-0.1-0.4-0.1-0.6c-0.3-3.1,2.8-3.8,5.3-1.8C524.8,804.6,530.9,810.9,547.7,816.8z"/>
<path class="st10" d="M539.6,820.2c0.8,0.2,1.1-0.5,1-1.3s0.9-3.2,2.2-4.1c0,0-0.4-0.5-1.1-0.4C541.1,814.6,537.7,819.8,539.6,820.2
	z"/>
<path class="st10" d="M532.2,818.1c0.8,0.2,1.1-0.4,1.1-1.2c0-0.8,2.3-3.8,3.6-4.6c0,0-0.4-0.5-1-0.4
	C535.2,811.9,530.3,817.5,532.2,818.1z"/>
<path class="st10" d="M524.9,813.9c0.7,0.3,1.1-0.3,1.2-1.1s2.8-3.5,4.1-4.2c0,0-0.4-0.7-1-0.7C528.6,808,523.1,813.2,524.9,813.9z"
	/>
<path class="st10" d="M518.7,808.6c0.7,0.4,1.2-0.1,1.4-0.9c0.2-0.8,3-2.8,4.4-3.2c0,0-0.3-0.7-0.9-0.8
	C522.9,803.6,517,807.7,518.7,808.6z"/>
<path class="st2" d="M471.7,609.9c-4.3,2.9-10.2,5.2-15.2,6.5c-1,0.3-0.7,1.8,0.3,1.6c5.3-1.4,11.1-3.6,15.6-6.6
	C473.3,610.7,472.6,609.3,471.7,609.9z"/>
<path class="st2" d="M387.2,616.4c-4.3,2.9-10.2,5.2-15.2,6.5c-1,0.3-0.7,1.8,0.3,1.6c5.3-1.4,11.1-3.6,15.6-6.6
	C388.8,617.3,388.1,615.8,387.2,616.4z"/>
<path class="st2" d="M491.4,450.4c-29.2,6.2-80.8,6.4-119.5-4.3c-1-0.3-1.3,1.3-0.4,1.5c38.9,10.8,95.4,10.3,120,4.3
	C492.5,451.7,492.4,450.2,491.4,450.4z"/>
<g>
	<path class="st18" d="M564.6,422.4C564.6,422.4,564.7,422.3,564.6,422.4c0.5-0.4,3.7,1,6.5,3.9s4,6.6,4,6.6s-3-3.4-5.1-5.5
		C567.9,425.2,564.6,422.4,564.6,422.4z"/>
</g>
<g>
	<path class="st18" d="M572.6,415.9C572.6,415.9,572.6,415.9,572.6,415.9c0.5-0.4,2.3-0.7,5.5,2.7c3.3,3.4,6.8,9.6,6.8,9.6
		s-3.6-4.5-6.1-6.9C576.3,418.8,572.6,415.9,572.6,415.9z"/>
</g>
<g>
	<path class="st18" d="M559,428C559,428,559.1,427.9,559,428c0.5-0.5,3.7,0.8,6.6,3.6s4.3,6.4,4.3,6.4s-3.1-3.3-5.3-5.3
		C562.4,430.7,559,428,559,428z"/>
</g>
<path class="st18" d="M570.6,415.4c-5.7,0.2-7.1,5.4-7.1,5.4s-5.2,0-5.4,4.7c0,0-2.3-0.7-4,1.5c-1.7,2.2-1.6,0.9-0.8-0.3
	c0.8-1.1,2.8-2.5,3.8-2.2c0,0,1.1-4.3,5.6-4.8c0,0,1.2-4.5,6.2-4.6C570.4,415,570.6,415.4,570.6,415.4z"/>
<polygon class="st0" points="566.1,38.7 546.5,39.7 547.8,29.8 "/>
<polygon class="st0" points="569.8,31.2 554,18.7 563.9,11.8 "/>
<polygon class="st0" points="605.3,32.4 611.8,16.6 619.9,22.4 "/>
<polygon class="st0" points="610.9,39.1 627.2,32.4 628,42.5 "/>
<g>
	<g>
		<path class="st24" d="M1222.6,63.2c-0.2,2.6-0.1,4.8,0.3,6.2c0.3,1,0.7,1.8,1.2,1.9c0.7,0.1,1.2-0.7,1.6-2.3
			c0.4-1.4,0.5-2.4,0.6-4.3c0-0.1,0-0.5,0-0.9c-0.1-3.4-0.7-5.4-1.6-5.5l0,0c-0.7-0.1-1,0.5-1.5,2c-0.4,1.1-0.5,2.4-0.5,2.4
			L1222.6,63.2z M1222.9,64.5c0.1-1.7,0.3-3.2,0.7-4.3c0.3-1,0.8-1.5,1.1-1.5c0.8,0.1,1.4,3.1,1.3,6.3c-0.1,1.7-0.3,3.2-0.7,4.3
			c-0.3,1-0.8,1.5-1.1,1.5l0,0C1223.3,70.7,1222.7,67.7,1222.9,64.5z"/>
	</g>
</g>
<path class="st29" d="M1221.4,39.9c0,0-5.1-11.6-22.6-13.2c-8.1-0.7-15.9,2.9-21.4,9.2c-5.3,6.1-8.4,20-3.7,36.9
	c0.3,1.6,1.2,4.1,2.1,8.7c0.9,4.6,1.2,11.2,1.2,11.2l24.4-11.5L1221.4,39.9z"/>
<path class="st26" d="M1185.7,82.9c2.1,5,4.5,8.4,10.1,13.4c5.5,4.9,18.3,5,18.3,5s0,0.6-0.3,2.7c-0.1,1.1-9.9,4.5-18.4,0.1
	C1189.6,101,1187,89.3,1185.7,82.9z"/>
<g>
	<g>
		<g>
			<g>
				<g>
					<path class="st29" d="M1219.8,37.3c2.7,3.9,4.7,8.6,4.7,14.3c0,3.5-1.7,8-2.3,12.1c-0.1,2.3,1.4,3.7,3.2,6.6
						c3.1,4.6,1.4,7.2-2.4,7.4c-1,9.1,0,27.8-13.5,22.8c-13.4-5-15.3-4.5-17.3-16.5c-2-11.6-1.6-15-1.6-26.1c0-3.1,3.6-2.7,5.5-5.2
						c2.2-2.8,0.4-9.4,3.4-11.8c3-2.4,7-3.7,18.2-3C1218.5,37.9,1219.3,36.6,1219.8,37.3z"/>
				</g>
			</g>
		</g>
	</g>
</g>
<path class="st40" d="M1188.2,44.7c0,0-0.4-1.8-3-1.9c-2.5-0.1-5.4,0.8-5.9,2.4c0,0-0.7-1.4-2.6-0.8c-1.9,0.5-5.4,2.1-6.3,5.3
	c-0.8,3.3-1,5.4-0.6,7.4s-0.6,6.4,0.1,9.1c0.6,2.8,1.7,5.5,4.1,7.8c0,0,2.8-1.8,3.6-4.3c0.8-2.5,2.1-3.5,2.6-7.2
	c0.5-3.7,6.7-5.9,7.1-8.1C1187.6,52.1,1188.2,44.7,1188.2,44.7z"/>
<path class="st40" d="M1187.5,63.7c0,0,2.8,0.4,3-2.3c0,0,1.8-1.1,1.8-4.8s-1-4.3-1-4.3s1.5-2,1.5-5s-1.5-3.5-2.3-3.8
	c-0.7-0.3-3.3-0.9-4.8,1.5c-1.3,2.2-2.1,5.7-1.8,7.1c0,0-1,0.9-1.7,2.6c0,0-1.4,2.7-0.5,5c0,0-1.3,3.1-0.3,4.6
	C1182.4,65.7,1187.6,64.6,1187.5,63.7"/>
<g>
	<g>
		<g>
			<g>
				<g>
					<path d="M1214.6,65.9c0.1-1.7-0.5-3-1.3-3.1c-0.8-0.1-1.5,1.2-1.6,2.9c-0.1,1.7,0.5,3,1.3,3.1
						C1213.7,68.9,1214.5,67.6,1214.6,65.9z"/>
				</g>
			</g>
		</g>
	</g>
</g>
<path class="st12" d="M1216.9,60.1l-0.1-2.9c0,0-4.8,0.4-8.6-0.6c-3.8-1-1.6,1.3,1.6,2.3C1211.3,59.3,1216.9,60.1,1216.9,60.1z"/>
<g>
	<g>
		<path class="st24" d="M1183,63.7l25.7,0.5c-0.5,2.9-0.5,4.6,0.9,7.5c0.6,1.2,1.6,2,2.8,2.1c1.6,0.1,2.7-0.9,3.7-2.6
			c0.9-1.6,1.1-2.7,1.3-4.9c0-0.2-0.1-1.7,0-1.9c1.6-0.8,5-1.8,5.3-0.4l0-0.6c-0.6-0.9-2.6-0.6-5.4,0.4c-0.6-2.2-1.6-4.6-3.9-4.8
			l0,0c-1.6-0.1-2.4,0.6-3.5,2.3c-0.7,1.1-1.1,2.4-1.1,2.4l-25.7-0.7c0,0-0.1,0-0.1,0c-0.4,0-0.8-0.1-0.8,0.3
			C1182.2,63.7,1182.5,63.6,1183,63.7z M1209,66.1c0.1-1.9,0.7-3.6,1.6-4.9c0.8-1.1,1.8-1.7,2.8-1.7c2.1,0.1,3.7,3.5,3.5,7.1
			c-0.1,1.9-0.7,3.6-1.6,4.9c-0.8,1.1-1.8,1.7-2.8,1.7l0,0C1210.4,73.1,1208.8,69.7,1209,66.1z"/>
	</g>
</g>
<path class="st21" d="M1175.7,72.4c0,0,5.3,11.7,9.2,7.7L1175.7,72.4z"/>
<g>
	<g>
		<g>
			<g>
				<g>
					<path class="st29" d="M1187,69.5c0-2.9-1.6-7.7-4.7-9.4c-1.5-0.9-3.5-0.7-4.8,0c-2.4,1.3-3.6,4.8-2.9,8.6
						c1,5.6,4.9,9.6,10.4,11.3L1187,69.5z"/>
				</g>
			</g>
		</g>
	</g>
</g>
<g>
	<g>
		<path class="st21" d="M1179.9,64c0.2-0.2,0.4-0.3,0.7-0.3c0.2,0,0.4,0.1,0.5,0.2c1.6,1.2,4.1,5.3,4.3,5.7c0.1,0.2,0.2,0.5,0.1,0.7
			l-0.9,3.3c-0.1,0.4-0.4,0.6-0.8,0.6c-0.1,0-0.2,0-0.2,0c-0.5-0.1-0.7-0.6-0.6-1.1l-0.4-3.2c-0.1-0.2-2.8-4.9-2.8-5.1
			C1179.7,64.5,1179.8,64.2,1179.9,64z"/>
	</g>
</g>
<g>
	<path class="st21" d="M1223.4,46.6c-0.7-0.2-1.1-0.2-2.2,0c0,0-5-1.1-11,1.7c-0.6,0.3-1-0.4-0.3-0.8c0,0,5.7-2.9,11.3-1.7
		c0,0,1-0.4,2.5,0C1224.2,46.1,1224,46.8,1223.4,46.6z"/>
	<path class="st21" d="M1222.4,43.3c-0.7-0.2-0.9-0.3-1.6-0.2c0,0-3.6-0.9-6.8,0.4c-0.6,0.2-1-0.5-0.2-0.8c0,0,3.7-1.3,7.1-0.4
		c0,0,1-0.1,1.9,0.4C1223.2,42.9,1223,43.5,1222.4,43.3z"/>
</g>
<path class="st12" d="M1221.8,83.8c0.1,0,0.7,1,0.8,0.5c0.2-1.2,0.8-4,0.3-5.1c-0.1-0.3-1-0.8-1.2-0.8c-0.5,0-3,2-5.1,3.3
	c-2.8,1.9-4.9,2-4.9,2l-0.9,4.5c0,0,3.6-0.7,6.5-2.2C1219.5,84.9,1221.4,83.8,1221.8,83.8z"/>
</svg>
