<?xml version="1.0" encoding="utf-8"?>
<!-- Generator: Adobe Illustrator 27.0.1, SVG Export Plug-In . SVG Version: 6.00 Build 0)  -->
<svg version="1.1" id="Lager_1" xmlns="http://www.w3.org/2000/svg" xmlns:xlink="http://www.w3.org/1999/xlink" x="0px" y="0px"
	 viewBox="0 0 1600 900" style="enable-background:new 0 0 1600 900;" xml:space="preserve">
<style type="text/css">
	.st0{fill:#500B00;}
	.st1{fill:#CDCDCD;}
	.st2{fill:#7D7B7B;}
	.st3{fill:#714E29;}
	.st4{fill:#14120E;}
	.st5{fill:#292724;}
	.st6{fill:#6C4D2B;}
	.st7{fill:#594124;}
	.st8{fill:#856033;}
	.st9{fill:#4E3A21;}
	.st10{fill:#1D1C24;}
	.st11{fill:#312D3F;}
	.st12{fill:#454545;}
	.st13{fill:#353330;}
	.st14{fill:#675640;}
	.st15{fill:#C8C8C8;}
	.st16{fill:#A1A1A1;}
	.st17{fill:#626060;}
	.st18{fill:#593D20;}
	.st19{fill:#46331C;}
	.st20{fill:#3D2D1A;}
	.st21{fill:#363636;}
	.st22{fill:#100E0B;}
	.st23{fill:#2A2826;}
	.st24{fill:#514332;}
	.st25{fill:#EC492E;}
	.st26{fill:#FFFFFF;}
	.st27{fill:#7A1F10;}
	.st28{fill:#A1A0A0;}
	.st29{fill:#B93924;}
	.st30{fill:#F2F2F2;}
	.st31{fill:#E2E0E1;}
	.st32{fill:#F18000;}
	.st33{fill:#BD6500;}
	.st34{fill:#EFEFEF;}
	.st35{fill:url(#SVGID_1_);}
	.st36{fill:#D2A372;}
	.st37{fill:#E4BA85;}
	.st38{fill:#3D414A;}
	.st39{fill:#2F333A;}
	.st40{fill:#CFCFCF;}
	.st41{fill:#191919;}
	.st42{fill:#FFDEB8;}
	.st43{fill:#C2E0EE;}
	.st44{fill:#A7C7D1;}
	.st45{fill:#494948;}
	.st46{fill:#013F4B;}
	.st47{fill:#B88950;}
</style>
<ellipse class="st0" cx="808.8" cy="829" rx="656.7" ry="61.6"/>
<g>
	<polyline class="st1" points="1232.2,821.9 366.9,821.9 366.9,99.9 1232.2,99.9 1232.2,821.9 	"/>
	<polyline class="st2" points="1133.5,409.6 1133.5,790.8 1140.3,790.8 1140.4,790.8 1140.4,416.4 1197.6,416.4 1197.6,783.9 
		1197.6,790.8 1204.5,790.8 1204.5,409.6 1133.5,409.6 	"/>
	<rect x="1140.4" y="787.5" class="st2" width="57.2" height="3.3"/>
	<rect x="1140.4" y="783.6" class="st2" width="57.2" height="3.9"/>
	<polyline class="st2" points="403.2,409.6 403.2,790.8 409.9,790.8 410,790.8 410,416.4 467.3,416.4 467.3,783.9 467.3,790.8 
		474.1,790.8 474.1,409.6 403.2,409.6 	"/>
	<rect x="410" y="787.5" class="st2" width="57.2" height="3.3"/>
	<rect x="410" y="783.6" class="st2" width="57.2" height="3.9"/>
	<polyline class="st2" points="827.9,409.6 827.9,790.8 834.6,790.8 834.7,790.8 834.7,416.4 892,416.4 892,783.9 892,790.8 
		898.8,790.8 898.8,409.6 827.9,409.6 	"/>
	<rect x="834.7" y="787.5" class="st2" width="57.2" height="3.3"/>
	<rect x="834.7" y="783.6" class="st2" width="57.2" height="3.9"/>
	<polyline class="st3" points="936.2,409.3 1102.6,409.3 1102.6,821.9 936.2,821.9 936.2,409.3 	"/>
	<polyline class="st4" points="1088.9,453.5 949.2,453.5 949.2,683.9 1088.9,683.9 1088.9,453.5 	"/>
	<polyline class="st5" points="994.6,453.5 950,453.5 950,471 1088.9,609.9 1088.9,547.8 994.6,453.5 	"/>
	<path class="st5" d="M995.3,542.3c-4.1,0-8.1,1.6-11.2,4.7c-6.2,6.2-6.2,16.3,0,22.5l104.8,104.9v-45l-82.3-82.4
		C1003.4,543.9,999.3,542.3,995.3,542.3"/>
	<rect x="948" y="700.4" class="st6" width="142.7" height="106.6"/>
	<rect x="948" y="699.3" class="st3" width="142.7" height="106.6"/>
	<rect x="948" y="700.4" class="st7" width="142.7" height="6.4"/>
	<rect x="948" y="800.9" class="st7" width="142.7" height="6.4"/>
	<rect x="954.3" y="796.1" class="st8" width="130.1" height="4.9"/>
	<rect x="954.3" y="706.8" class="st8" width="130.4" height="4.9"/>
	<rect x="948.2" y="678" class="st8" width="140.7" height="6.2"/>
	<rect x="1083.5" y="700.4" class="st7" width="7.3" height="106.6"/>
	<rect x="948" y="700.4" class="st7" width="6.5" height="106.6"/>
	<rect x="948" y="453.4" class="st7" width="6.2" height="230.8"/>
	<rect x="1084.8" y="453.5" class="st7" width="6" height="230.7"/>
	<rect x="948" y="453.4" class="st9" width="142.9" height="7"/>
	<rect x="948.2" y="434.6" class="st8" width="140.7" height="6.2"/>
	<rect x="948" y="415.3" class="st7" width="6.2" height="25.4"/>
	<polyline class="st7" points="1082.7,415.3 1088.9,415.3 1088.9,440.7 1082.7,440.7 1082.7,415.3 	"/>
	<polyline class="st9" points="1088.9,415.3 1088.9,421.1 948,421.1 948,415.3 1088.9,415.3 	"/>
	<path class="st7" d="M958,689.5c0,4.4-3.6,8-8,8c-4.4,0-8-3.6-8-8c0-4.4,3.6-8,8-8C954.4,681.5,958,685.1,958,689.5z"/>
	<path class="st10" d="M957.4,687.9c0,4.4-3.6,8-8,8c-4.4,0-8-3.6-8-8c0-4.4,3.6-8,8-8C953.8,679.9,957.4,683.5,957.4,687.9z"/>
	<path class="st11" d="M952.8,682.6c1.5,1.1,2,3,1.1,4.2c-0.9,1.2-2.8,1.2-4.3,0.1c-1.5-1.1-2-3-1.1-4.2
		C949.3,681.4,951.3,681.4,952.8,682.6z"/>
	<path class="st3" d="M788,746.9V490.1c0-75.8-61.7-137.5-137.5-137.5c-75.8,0-137.4,61.7-137.4,137.5v256.8H788"/>
	<path class="st12" d="M790.3,749.2H510.8V490.1c0-77.1,62.7-139.7,139.7-139.7c77.1,0,139.8,62.7,139.8,139.7V749.2 M515.4,744.6
		h270.3V490.1c0-74.5-60.6-135.2-135.2-135.2c-74.5,0-135.2,60.6-135.2,135.2V744.6"/>
	<path class="st4" d="M770.7,729.2v-245c0-63.1-53.8-114.2-120.2-114.2c-66.3,0-120.1,51.1-120.1,114.2v245H770.7"/>
	<rect x="530.2" y="721.4" class="st8" width="240.8" height="8.4"/>
	<path class="st9" d="M773,734.3H528.2V484.2c0-64.2,54.9-116.5,122.4-116.5c67.5,0,122.4,52.2,122.4,116.5V734.3 M532.7,729.8
		h235.7V484.2c0-61.7-52.9-111.9-117.9-111.9c-65,0-117.8,50.2-117.8,111.9V729.8"/>
	<path class="st13" d="M570.4,402.3c-7.5,6.7-14.1,14.4-19.6,22.7l144.5,144.5c6.4,6.4,14.8,9.6,23.1,9.6s16.8-3.2,23.1-9.6
		c12.8-12.8,12.8-33.5,0-46.3l-109-109c-5.6,2.3-12,3.7-18.7,3.7h-8.6C590.7,417.9,577.9,411.7,570.4,402.3"/>
	<path class="st13" d="M540.8,444.1c-4.6,11.3-7.4,23.5-8,36.2c0,1.3-0.1,2.6-0.1,3.9V503l168.5,168.5c4.6,4.6,10.7,7,16.8,7
		c6.1,0,12.1-2.3,16.8-7c9.3-9.3,9.3-24.3,0-33.6L540.8,444.1"/>
	<path class="st14" d="M532.8,480.3c-0.1,1.7-0.1,3.4-0.1,5.1V503l0,0v-18.9C532.7,482.9,532.8,481.6,532.8,480.3"/>
	<rect x="525.5" y="480.8" class="st3" width="249.8" height="12.7"/>
	<rect x="529.1" y="493.5" class="st9" width="242" height="4.2"/>
	<polyline class="st15" points="366.8,370.7 366.8,382.5 366.9,382.5 366.9,370.7 366.8,370.7 	"/>
	<polyline class="st16" points="392.5,355.4 392.4,355.4 380.1,370.7 366.9,370.7 366.9,382.5 380.1,382.5 389.6,370.7 380.1,370.7 
		392.5,355.4 	"/>
	<path class="st15" d="M366.9,382.8L366.9,382.8l-0.1,25.9c0,0,0,0,0.1-0.1V382.8"/>
	<path class="st16" d="M442.5,416.4H410v0.1c3.7,0.9,7.6,1.4,11.7,1.4h8.6C434.6,417.9,438.6,417.4,442.5,416.4 M892,416.4h-23.4
		c3.8,1,7.9,1.5,12.1,1.5h8.6c0.9,0,1.8,0,2.6-0.1V416.4 M1176.9,416.4H1144c3.8,1,7.9,1.5,12.1,1.5h8.7
		C1169,417.9,1173,417.4,1176.9,416.4 M578,370.7h-14.3h-91.8h-82l-9.7,12.1h-13.3v25.9c8.1-6.2,13.2-15.1,13.2-24.9
		c0,13.3,9.4,24.9,23.1,30.5v-4.8h54.4c8.8-6.3,14.4-15.5,14.4-25.8c0,18.8,18.7,34.1,41.6,34.1h8.6c3.2,0,6.4-0.3,9.4-0.9
		C543.1,398.2,559.1,382.3,578,370.7 M1107.3,355.4L1107.3,355.4l7.4,15.4h-91.8l-5-15.4l5,15.4H931l-2.5-15.4l2.5,15.4h-91.8v-15.4
		v15.4h-91.8h-24.3c8.6,5.2,16.5,11.3,23.7,18.2c0.3-1.7,0.5-3.4,0.5-5.1c0,2.1,0.2,4.2,0.7,6.3c7,6.8,13.3,14.4,18.8,22.6
		c6.4,3.3,14,5.2,22.1,5.2h8.6c22.9,0,41.6-15.4,41.6-34.1c0,10.3,5.6,19.5,14.4,25.8h45.3v7.5c18.3-3.6,32.1-17.1,32.1-33.2
		c0,10.1,5.4,19.3,14,25.5h63.7c8.6-6.3,14-15.4,14-25.5c0,10.1,5.4,19.3,14,25.5h63.7c8.6-6.3,14-15.4,14-25.5
		c0,12,7.6,22.5,19,28.6v-2.8h58.4c8.8-6.3,14.4-15.5,14.4-25.8c0,13.8,10.1,25.7,24.5,31.1v-44.2l-24.3,0h-91.8L1107.3,355.4"/>
	<path class="st17" d="M1191.9,409.6h-58.4v2.8c3.2,1.7,6.7,3.1,10.5,4h32.9C1182.5,415,1187.6,412.7,1191.9,409.6"/>
	<path class="st17" d="M457.5,409.6h-54.4v4.8c2.2,0.9,4.5,1.6,6.9,2.2v-0.1h32.4C448.1,415,453.2,412.7,457.5,409.6"/>
	<path class="st17" d="M898.8,409.6h-45.3c4.3,3.1,9.5,5.5,15.1,6.9H892v1.4c2.3-0.1,4.6-0.4,6.9-0.8V409.6"/>
	<path class="st18" d="M1008.7,409.3H945c3.4,2.5,7.2,4.5,11.4,5.9h40.8C1001.5,413.8,1005.3,411.8,1008.7,409.3 M1100.5,409.3
		h-63.7c3.4,2.5,7.2,4.5,11.4,5.9h40.7v0h0v0C1093.2,413.8,1097.1,411.8,1100.5,409.3"/>
	<path class="st19" d="M1088.9,415.3L1088.9,415.3L1088.9,415.3C1088.9,415.3,1088.9,415.3,1088.9,415.3L1088.9,415.3"/>
	<path class="st20" d="M997.3,415.3h-40.8c5,1.7,10.4,2.7,16.1,2.7h8.6C986.8,417.9,992.3,417,997.3,415.3 M1088.9,415.3h-40.7
		c5,1.7,10.4,2.7,16.1,2.7h8.6C1078.6,417.9,1084,417,1088.9,415.3L1088.9,415.3L1088.9,415.3"/>
	<path class="st18" d="M563.6,386.8c-9.8,8.2-18.4,17.9-25.5,28.5C552,410.5,562.2,399.7,563.6,386.8 M622.8,370.7h-35.5
		c-8.4,4.5-16.2,9.8-23.4,15.8c0.4,4.2,1.8,8.3,3.9,11.9C583.1,385.1,601.9,375.4,622.8,370.7 M713.9,370.7h-35.5
		c23.6,5.2,44.7,17,60.9,33.2c2.7-3,4.8-6.4,6.2-10C736.1,384.8,725.5,376.9,713.9,370.7"/>
	<path class="st21" d="M748,390.1c2.2,9.5,9.2,17.6,18.8,22.6C761.4,404.5,755.1,396.9,748,390.1 M587.3,370.7H578
		c-18.9,11.5-34.9,27.4-46.5,46.3c2.3-0.4,4.4-1,6.5-1.7c7.1-10.7,15.7-20.3,25.5-28.5c0.1-1,0.2-2,0.2-3c0,0.9,0,1.8,0.1,2.7
		C571.1,380.5,578.9,375.2,587.3,370.7 M723.1,370.7h-9.2c11.6,6.2,22.2,14,31.5,23.2c0.6-1.6,1.1-3.3,1.4-5
		C739.6,382.1,731.7,376,723.1,370.7"/>
	<path class="st22" d="M578.1,396c-2.7,2-5.2,4-7.7,6.2c0,0,0,0,0.1,0.1C572.9,400.1,575.4,398,578.1,396 M650.6,372.3
		c-17.7,0-34.5,3.7-49.5,10.4l31.6,31.6c13.5-5.6,22.9-17.2,22.9-30.5c0,18.8,18.7,34.1,41.6,34.1h8.6c11.9,0,22.6-4.1,30.2-10.8
		C714.5,385.7,684.2,372.3,650.6,372.3"/>
	<path class="st20" d="M678.4,370.7h-22.8h-32.8c-20.9,4.6-39.7,14.4-55,27.7c0.8,1.3,1.6,2.6,2.6,3.8c2.5-2.2,5-4.3,7.7-6.2
		c7-5.3,14.6-9.9,22.8-13.6l0.2,0.2c15.1-6.7,31.8-10.4,49.5-10.4c33.6,0,63.9,13.4,85.4,34.9c1.2-1,2.3-2.1,3.3-3.2
		C723.1,387.8,702,376,678.4,370.7"/>
	<path class="st23" d="M601,382.7c-8.2,3.6-15.9,8.1-23,13.4c-2.6,2-5.2,4.1-7.6,6.3c7.4,9.4,20.3,15.6,34.9,15.6h8.6
		c6.7,0,13.1-1.3,18.7-3.7L601,382.7"/>
	<path class="st24" d="M600.8,382.5c-8.1,3.7-15.8,8.3-22.8,13.6c7.1-5.2,14.8-9.8,23-13.4L600.8,382.5"/>
	<polyline class="st25" points="366.7,289.3 288.3,370.6 380.1,370.7 445.4,289.3 366.7,289.3 	"/>
	<polyline class="st26" points="445.4,289.8 380.1,370.7 471.9,370.7 524.2,289.8 445.4,289.8 	"/>
	<polyline class="st25" points="524.2,289.8 471.9,370.7 563.7,370.7 602.9,289.8 524.2,289.8 	"/>
	<polyline class="st26" points="602.9,289.8 563.7,370.7 655.6,370.7 681.7,289.8 602.9,289.8 	"/>
	<polyline class="st25" points="681.7,289.8 655.6,370.7 747.4,370.7 760.5,289.8 681.7,289.8 	"/>
	<polyline class="st26" points="760.5,289.8 747.4,370.7 839.2,370.7 839.2,289.8 760.5,289.8 	"/>
	<polyline class="st25" points="839.2,289.8 839.2,370.7 931,370.7 918,289.8 839.2,289.8 	"/>
	<polyline class="st26" points="918,289.8 931,370.7 1022.9,370.7 996.7,289.8 918,289.8 	"/>
	<polyline class="st25" points="996.7,289.8 1022.9,370.7 1114.7,370.7 1075.5,289.8 996.7,289.8 	"/>
	<polyline class="st25" points="1154.2,289.8 1206.5,370.7 1298.1,370.6 1233,289.8 1154.2,289.8 	"/>
	<polyline class="st26" points="1075.5,289.8 1114.7,370.7 1206.5,370.7 1154.2,289.8 1075.5,289.8 	"/>
	<path class="st27" d="M288.3,370.6v1c0,18.8,18.7,34.1,41.6,34.1h8.6c22.9,0,41.6-15.4,41.6-34.1v-1H288.3z"/>
	<path class="st1" d="M380.1,370.6v1c0,18.8,18.7,34.1,41.6,34.1h8.6c22.9,0,41.6-15.4,41.6-34.1v-1H380.1z"/>
	<path class="st27" d="M471.9,370.6v1c0,18.8,18.7,34.1,41.6,34.1h8.6c22.9,0,41.6-15.4,41.6-34.1v-1H471.9z"/>
	<path class="st1" d="M563.7,370.6v1c0,18.8,18.7,34.1,41.6,34.1h8.6c22.9,0,41.6-15.4,41.6-34.1v-1H563.7z"/>
	<path class="st27" d="M655.5,370.6v1c0,18.8,18.7,34.1,41.6,34.1h8.6c22.9,0,41.6-15.4,41.6-34.1v-1H655.5z"/>
	<path class="st1" d="M747.3,370.6v1c0,18.8,18.7,34.1,41.6,34.1h8.6c22.9,0,41.6-15.4,41.6-34.1v-1H747.3z"/>
	<path class="st27" d="M839.1,370.6v1c0,18.8,18.7,34.1,41.6,34.1h8.6c22.9,0,41.6-15.4,41.6-34.1v-1H839.1z"/>
	<path class="st1" d="M930.9,370.6v1c0,18.8,18.7,34.1,41.6,34.1h8.6c22.9,0,41.6-15.4,41.6-34.1v-1H930.9z"/>
	<path class="st27" d="M1022.7,370.6v1c0,18.8,18.7,34.1,41.6,34.1h8.6c22.9,0,41.6-15.4,41.6-34.1v-1H1022.7z"/>
	<path class="st27" d="M1206.3,370.6v1c0,18.8,18.7,34.1,41.6,34.1h8.6c22.9,0,41.6-15.4,41.6-34.1v-1H1206.3z"/>
	<path class="st1" d="M1114.5,370.6v1c0,18.8,18.7,34.1,41.6,34.1h8.7c22.9,0,41.6-15.4,41.6-34.1v-1H1114.5z"/>
	<rect x="357.3" y="75.5" class="st28" width="884.5" height="34"/>
	<rect x="366.9" y="108.6" class="st2" width="865.2" height="7.5"/>
	<path class="st15" d="M366.9,289.2l-0.2,0.2h0.2V289.2 M1232.2,288.7v1h0.8l4.8,6L1232.2,288.7"/>
	<polyline class="st16" points="1231.9,288.3 367.7,288.3 366.9,289.2 366.9,289.3 445.4,289.3 440.2,295.8 440.5,295.8 
		445.4,289.8 524.2,289.8 602.9,289.8 681.7,289.8 760.5,289.8 839.2,289.8 839.2,295.8 839.2,289.8 918,289.8 918.9,295.8 
		918,289.8 996.7,289.8 998.7,295.8 996.7,289.8 1075.5,289.8 1078.4,295.8 1075.5,289.8 1154.2,289.8 1232.2,289.8 1232.2,288.7 
		1231.9,288.3 	"/>
	<polyline class="st29" points="445.4,289.3 366.9,289.3 366.7,289.3 360.5,295.8 440.2,295.8 445.4,289.3 	"/>
	<polyline class="st15" points="524.2,289.8 445.4,289.8 440.5,295.8 520.3,295.8 524.2,289.8 	"/>
	<polyline class="st29" points="602.9,289.8 524.2,289.8 520.3,295.8 600,295.8 602.9,289.8 	"/>
	<polyline class="st15" points="681.7,289.8 602.9,289.8 600,295.8 679.7,295.8 681.7,289.8 	"/>
	<polyline class="st29" points="760.5,289.8 681.7,289.8 679.7,295.8 759.5,295.8 760.5,289.8 	"/>
	<polyline class="st15" points="839.2,289.8 760.5,289.8 759.5,295.8 839.2,295.8 839.2,289.8 	"/>
	<polyline class="st29" points="918,289.8 839.2,289.8 839.2,295.8 918.9,295.8 918,289.8 	"/>
	<polyline class="st15" points="996.7,289.8 918,289.8 918.9,295.8 998.7,295.8 996.7,289.8 	"/>
	<polyline class="st29" points="1075.5,289.8 996.7,289.8 998.7,295.8 1078.4,295.8 1075.5,289.8 	"/>
	<polyline class="st29" points="1233,289.8 1232.2,289.8 1154.2,289.8 1158.1,295.8 1237.9,295.8 1237.8,295.7 1233,289.8 	"/>
	<polyline class="st15" points="1154.2,289.8 1075.5,289.8 1078.4,295.8 1158.1,295.8 1154.2,289.8 	"/>
	<rect x="357.3" y="256.6" class="st28" width="884.5" height="34"/>
	<rect x="519.3" y="151.2" class="st2" width="545.5" height="81.8"/>
	<rect x="519.3" y="145.5" class="st27" width="545.5" height="81.8"/>
	<path class="st1" d="M557.8,210v-3.3h5.6v-39h-5.6v-3.3h18.3c9.7,0,17.8,4.3,17.8,12.5c0,6.2-4.6,10.1-11.1,11.7l13.5,18.2h6.4v3.3
		h-12.8l-14-20.7h-5.3v17.4h5.7v3.3H557.8z M570.7,167.7v18.7h4.9c6,0,11.3-2.7,11.3-9.5c0-6.7-5.3-9.2-11.3-9.2H570.7z"/>
	<polygon class="st1" points="606.7,210 606.7,206.7 612.4,206.7 612.4,167.7 606.7,167.7 606.7,164.4 642.1,164.4 642.1,177.4 
		638.6,177.4 637.5,167.7 619.6,167.7 619.6,185.1 630.7,185.1 630.7,179.8 634.2,179.8 634.2,193.8 630.7,193.8 630.7,188.4 
		619.6,188.4 619.6,206.7 638.7,206.7 639.9,196.5 643.3,196.5 643.3,210 	"/>
	<path class="st1" d="M676,199.8c0-3.8-2.8-6-6.6-8.1l-7.6-4.1c-4.7-2.6-8.6-6-8.6-11.4c0-7.5,5.5-12.6,13.5-12.6
		c4.8,0,7.7,2,9.7,4.1l0.9-3.3h2.8v14.7h-2.7l-0.8-3.1c-1.4-5.5-4.9-9.2-10.2-9.2c-3.7,0-7.2,2.5-7.2,7.1c0,4.5,3.7,6,7.4,8.1
		l6.7,3.8c5,2.8,8.9,5.9,8.9,11.8c0,7.8-6.5,13.3-14.6,13.3c-5.3,0-9.2-2.5-11.2-4.6l-0.9,3.8h-2.8v-16.2h2.7l0.6,3.5
		c1.2,6.6,6.4,10.1,11.4,10.1C672.3,207.5,676,205.1,676,199.8z"/>
	<polygon class="st1" points="698.6,210 698.6,206.7 705.9,206.7 705.9,167.7 693.6,167.7 692.4,178.3 689,178.3 689,164.4 
		730.1,164.4 730.1,178.3 726.6,178.3 725.4,167.7 713.1,167.7 713.1,206.7 720.4,206.7 720.4,210 	"/>
	<path class="st1" d="M747.5,210h-15.8v-3.3h5l15.4-42.3h6l15.9,42.3h4.9v3.3h-18.3v-3.3h5.7l-5.3-14.8H746l-5.2,14.8h6.6V210z
		 M747.2,188.7h12.5l-6.4-17.8L747.2,188.7z"/>
	<path class="st1" d="M804.5,210.8c-11.4,0-18.3-7.4-18.3-18.5v-24.6h-5.7v-3.3h18.7v3.3h-5.7v23.8c0,9.3,4.1,15.1,11.9,15.1
		c7.4,0,12.1-4.8,12.1-14.7v-24.1h-6.7v-3.3H828v3.3h-6.5v24.7C821.5,203.4,814.2,210.8,804.5,210.8z"/>
	<path class="st1" d="M833.3,210v-3.3h5.6v-39h-5.6v-3.3h18.3c9.7,0,17.8,4.3,17.8,12.5c0,6.2-4.6,10.1-11.1,11.7l13.5,18.2h6.4v3.3
		h-12.8l-14-20.7h-5.3v17.4h5.7v3.3H833.3z M846.2,167.7v18.7h4.9c6,0,11.3-2.7,11.3-9.5c0-6.7-5.3-9.2-11.3-9.2H846.2z"/>
	<path class="st1" d="M896.3,210h-15.8v-3.3h5l15.4-42.3h6l15.9,42.3h4.9v3.3h-18.3v-3.3h5.7l-5.3-14.8h-14.9l-5.2,14.8h6.6V210z
		 M896.1,188.7h12.5l-6.4-17.8L896.1,188.7z"/>
	<polygon class="st1" points="949.7,210 932.3,210 932.3,206.7 938.9,206.7 938.9,167.7 932.3,167.7 932.3,164.4 947.8,164.4 
		970.5,197.1 970.5,167.7 963.7,167.7 963.7,164.4 981.1,164.4 981.1,167.7 974.6,167.7 974.6,210 971.7,210 943,168.9 943,206.7 
		949.7,206.7 	"/>
	<path class="st1" d="M1011.1,210.8c-12.4,0-24.7-8.8-24.7-23.6c0-14.1,10.9-23.6,22.8-23.6c5.1,0,9.4,2,11.5,4.1l0.9-3.3h2.8v14.7
		h-2.7l-0.8-3.1c-1.4-5.5-5.4-9.2-11.7-9.2c-8.5,0-15,7.7-15,20c0,12.5,8,20.5,17.4,20.5c2,0,4.3-0.5,5.9-0.9v-14h-5.9v-3.3h17.2
		v3.3h-4.3v15.1C1021.5,209.3,1016.5,210.8,1011.1,210.8z"/>
	<path d="M1125.6,50.2c0,4.2-3.4,7.6-7.6,7.6c-4.2,0-7.6-3.4-7.6-7.6c0-4.2,3.4-7.6,7.6-7.6C1122.2,42.6,1125.6,46,1125.6,50.2z"/>
	<path d="M1158.8,75.4h5.2V15.3c0-1-0.6-1.9-1.5-2.4c-0.9-0.4-2-0.3-2.7,0.3l-40.9,32.4c-1.1,0.9-1.3,2.5-0.4,3.7
		c0.9,1.1,2.5,1.3,3.7,0.4l36.7-29.1V75.4z"/>
	<path class="st30" d="M1108.7,95.1c0.3-0.2,0.5-0.3,0.7-0.5c15.1-12.3,19-32.6,8.7-45.3c-10.3-12.7-31-12.9-46.1-0.6
		c-0.2,0.2-0.5,0.4-0.7,0.6L1108.7,95.1z"/>
	<path d="M464.9,50.6c0,4.2,3.4,7.6,7.6,7.6c4.2,0,7.6-3.4,7.6-7.6c0-4.2-3.4-7.6-7.6-7.6C468.3,43,464.9,46.4,464.9,50.6z"/>
	<path d="M471.6,46.1l-40.9-32.4c-0.8-0.6-1.9-0.7-2.8-0.3c-0.9,0.4-1.5,1.3-1.5,2.3v59.8h5.2V21.1l36.7,29.1
		c1.1,0.9,2.8,0.7,3.7-0.4C473,48.7,472.8,47,471.6,46.1z"/>
	<path class="st30" d="M481.7,95.5c-0.2-0.2-0.5-0.3-0.7-0.5c-15.1-12.3-19.1-32.6-8.7-45.3c10.3-12.7,31-12.9,46.1-0.6
		c0.2,0.2,0.5,0.4,0.7,0.6L481.7,95.5z"/>
	<polygon class="st26" points="671,637.7 692,699.9 735.5,685.3 716.3,628.3 708,625.2 	"/>
	<polygon class="st30" points="717.7,628.8 737,686 691.2,701.4 669.5,637 706.2,624.6 703.6,623.6 667.3,635.9 690.1,703.6 
		739.2,687.1 719.8,629.6 	"/>
	<polygon class="st31" points="691.2,701.4 737,686 717.7,628.8 716.3,628.3 735.5,685.3 692,699.9 671,637.7 708,625.2 
		706.2,624.6 669.5,637 	"/>
	
		<rect x="693.3" y="679.7" transform="matrix(0.9483 -0.3175 0.3175 0.9483 -179.9426 260.918)" class="st1" width="34.5" height="5.8"/>
	<polygon class="st1" points="718.9,663 692.1,672 691,668.6 717.8,659.7 	"/>
	
		<rect x="688.7" y="657.6" transform="matrix(0.9482 -0.3176 0.3176 0.9482 -173.0201 257.3385)" class="st1" width="28.3" height="3.5"/>
	<polygon class="st1" points="714.9,650.9 688.1,659.9 687,656.6 713.8,647.6 	"/>
	<polygon class="st1" points="706.8,640 688,646.2 685.5,638.9 704.3,632.6 	"/>
	<path class="st32" d="M902,609.4c0,0.1,0.1,0.2,0.1,0.4c1.1,3.5,2.3,7.6,1.1,11.3c-0.4,1.3-1,2.5-1.6,3.6l222.8,61.8l4-14.3
		L902,609.4z"/>
	<path class="st33" d="M1123.5,496.8l-204.6,27.5l2,14.7l185.6-24.9C1112.3,508.5,1118,502.7,1123.5,496.8z"/>
	<path class="st32" d="M1125.7,572.1L922.9,584c0,0.1-0.1,0.3-0.1,0.4c-0.5,1.7-0.9,3.5-1.7,5.1c-1.7,3.2-4.5,8.3-7.6,9.1l0.2,0.8
		l212.9-12.5L1125.7,572.1z"/>
	
		<rect x="1011.3" y="437.8" transform="matrix(0.1013 -0.9949 0.9949 0.1013 364.8681 1510.8672)" class="st32" width="14.8" height="231.3"/>
	<path class="st32" d="M911.1,718.8c4.5,5.3,8.5,11,13.1,16.3l190.9,19.5l1.5-14.8L911.1,718.8z"/>
	
		<rect x="886.2" y="642.9" transform="matrix(0.729 -0.6845 0.6845 0.729 -166.1725 880.8514)" class="st33" width="286.4" height="14.8"/>
	
		<rect x="945.8" y="587.6" transform="matrix(0.999 -4.465246e-02 4.465246e-02 0.999 -26.1634 46.1534)" class="st34" width="148.4" height="42.3"/>
	
		<linearGradient id="SVGID_1_" gradientUnits="userSpaceOnUse" x1="2.700490e-07" y1="3.024434e-08" x2="1" y2="3.024434e-08" gradientTransform="matrix(148.2262 -6.6323 -6.6323 -148.2262 945.4572 602.0547)">
		<stop  offset="0" style="stop-color:#FFFFFF"/>
		<stop  offset="1" style="stop-color:#F2F3F4"/>
	</linearGradient>
	<polygon class="st35" points="1094.2,606.5 946,613.2 945,590.9 1093.2,584.3 	"/>
	<path class="st25" d="M962.6,617.6c0.3,0.5,0.7,0.9,1.1,1.2c0.5,0.3,1,0.5,1.6,0.6c0.6,0.1,1.2,0.2,1.9,0.1c0.4,0,0.9-0.1,1.4-0.2
		c0.5-0.1,1-0.3,1.4-0.5c0.4-0.2,0.8-0.5,1.1-0.9c0.3-0.4,0.4-0.8,0.4-1.4c0-0.6-0.2-1.1-0.6-1.4c-0.4-0.4-0.9-0.6-1.6-0.9
		c-0.6-0.2-1.4-0.4-2.2-0.6c-0.8-0.1-1.6-0.3-2.4-0.5c-0.8-0.2-1.7-0.4-2.5-0.6c-0.8-0.3-1.5-0.6-2.2-1.1c-0.6-0.4-1.2-1-1.6-1.7
		c-0.4-0.7-0.7-1.6-0.7-2.6c-0.1-1.1,0.1-2.2,0.6-3s1.1-1.6,1.8-2.2c0.8-0.6,1.6-1.1,2.6-1.4c1-0.3,2-0.5,3-0.6
		c1.2-0.1,2.3,0,3.4,0.2c1.1,0.2,2.1,0.6,2.9,1.1c0.9,0.5,1.6,1.3,2.1,2.1c0.5,0.9,0.8,2,0.9,3.3l-4.8,0.2c-0.1-0.7-0.2-1.2-0.5-1.6
		c-0.3-0.4-0.6-0.8-1-1c-0.4-0.2-0.9-0.4-1.4-0.5c-0.5-0.1-1.1-0.1-1.7-0.1c-0.4,0-0.8,0.1-1.2,0.2c-0.4,0.1-0.7,0.3-1.1,0.5
		c-0.3,0.2-0.6,0.5-0.8,0.8c-0.2,0.3-0.3,0.7-0.3,1.2c0,0.4,0.1,0.8,0.3,1.1c0.2,0.3,0.5,0.5,1,0.7c0.5,0.2,1.2,0.4,2.1,0.6
		c0.9,0.2,2,0.4,3.4,0.7c0.4,0.1,1,0.2,1.8,0.4c0.8,0.2,1.5,0.5,2.3,0.9c0.8,0.4,1.4,1.1,2,1.8c0.6,0.8,0.9,1.8,0.9,3
		c0,1-0.1,2-0.5,2.9c-0.4,0.9-0.9,1.7-1.7,2.4c-0.8,0.7-1.7,1.2-2.8,1.6c-1.1,0.4-2.5,0.7-4,0.7c-1.2,0.1-2.4,0-3.6-0.3
		c-1.2-0.2-2.2-0.7-3.1-1.3c-0.9-0.6-1.7-1.4-2.2-2.4c-0.6-1-0.9-2.2-0.9-3.5l4.8-0.2C962.1,616.5,962.3,617.1,962.6,617.6z"/>
	<polygon class="st25" points="976.8,604.2 976.6,600.1 994.9,599.2 995.1,603.4 988.4,603.7 989.3,621.9 984.3,622.1 983.5,603.9 	
		"/>
	<path class="st25" d="M1008.6,598.6l9.4,21.9l-5.1,0.2l-1.9-4.9l-8.3,0.4l-1.5,5.1l-4.9,0.2l7.4-22.7L1008.6,598.6z M1004.6,592.6
		l0.2,3.7l-4.2,0.2l-0.2-3.7L1004.6,592.6z M1009.5,612.3l-3.2-8.1l-0.1,0l-2.5,8.3L1009.5,612.3z M1011,592.3l0.2,3.7l-4.2,0.2
		l-0.2-3.7L1011,592.3z"/>
	<polygon class="st25" points="1023.7,597.9 1033.8,612.4 1033.8,612.4 1033.1,597.4 1037.7,597.2 1038.8,619.5 1033.9,619.8 
		1023.9,605.3 1023.8,605.3 1024.5,620.2 1019.9,620.4 1018.9,598.1 	"/>
	<path class="st25" d="M1056.3,618.5c-1,0.5-2.1,0.8-3.2,0.8c-1.7,0.1-3.3-0.1-4.7-0.7c-1.4-0.5-2.6-1.3-3.6-2.3
		c-1-1-1.8-2.2-2.3-3.6c-0.6-1.4-0.9-2.9-1-4.5c-0.1-1.7,0.1-3.2,0.5-4.7c0.4-1.5,1.1-2.7,2-3.8c0.9-1.1,2-2,3.3-2.7
		c1.3-0.7,2.9-1,4.6-1.1c1.1-0.1,2.3,0.1,3.4,0.4c1.1,0.3,2.1,0.8,3,1.4c0.9,0.6,1.6,1.4,2.3,2.4c0.6,1,1,2.1,1.2,3.3l-4.7,0.2
		c-0.4-1.2-1-2.1-1.8-2.7c-0.9-0.6-1.9-0.8-3.1-0.8c-1.1,0.1-2,0.3-2.8,0.8c-0.8,0.5-1.3,1.1-1.8,1.8c-0.4,0.7-0.8,1.6-0.9,2.5
		c-0.2,0.9-0.2,1.9-0.2,2.9c0,0.9,0.2,1.8,0.5,2.7c0.3,0.9,0.6,1.7,1.2,2.3c0.5,0.7,1.2,1.2,2,1.6c0.8,0.4,1.7,0.6,2.8,0.5
		c1.6-0.1,2.9-0.5,3.7-1.4s1.3-2.1,1.4-3.7l-4.9,0.2l-0.2-3.7l9.4-0.4l0.6,12.1l-3.1,0.2l-0.6-2.5
		C1058.3,617.2,1057.3,618,1056.3,618.5z"/>
	<polygon class="st25" points="1064.2,600.1 1064,595.9 1082.3,595.1 1082.5,599.2 1075.8,599.5 1076.7,617.7 1071.8,617.9 
		1070.9,599.7 	"/>
</g>
<g>
	<path d="M488.6,795c-1.9-15-13.3-34.4-13.3-34.4h-34.5h-1.5h-34.5c0,0-11.3,19.4-13.3,34.4c-1.9,15,5.3,27.2,36.5,27.9
		c5.3,0.1,18.6,0.1,23.9,0C483.4,822.2,490.6,810,488.6,795z"/>
	<path class="st36" d="M457.2,675c0,0-8.6-3.4-9.2-8.8c-0.6-6.2,0-16.3,0-16.3h-8.4h-3.2H428c0,0,0.5,10.1,0,16.3
		c-0.4,5.4-9.2,8.8-9.2,8.8s4.5,7.2,14.3,9.7c0.9,0.5,9,0.5,9.8,0C452.8,682.2,457.2,675,457.2,675z"/>
	<ellipse class="st37" cx="437.8" cy="630.4" rx="21.8" ry="29.4"/>
	<path class="st38" d="M473.9,742.8c-0.6-11.3,5.9-21.4,6.3-29.7c0.5-10.5-0.5-24.6-5.6-37.3c-5.4-1.9-18.9-1.4-18.9-1.4
		c-2.8,5.4-15.3,14.2-18.4,20.5c-5.6-8-13.7-14.5-15.1-21.5c0,0-15.5,0.4-20.9,2.4c-5.1,12.7-5.3,26.8-4.8,37.3
		c0.4,8.3,5.4,18.4,6.3,29.7c0.5,6.9-11.5,33.9-11.5,33.9s14.9,3.9,50.2,5.6c12.4,0.6,39.4-3.6,39.4-3.6S475.4,773,473.9,742.8z"/>
	<path d="M422.5,626c3,0.9,9.8,5.4,15.4,5.4c5.6,0,8.4,0,8.4,0l-4.5-5.5c0,0,11.8,0.9,14.6,3.3c1.8,3.1,2.1,10,2.1,10
		s10.7-14.5,9-23.2c-1.7-8.8-5.3-15.7-11-19.2c-7.2-4.4-13.2-4.7-13.2-4.7s3.6-3.6,6.5-7.1c-4.8,0.9-6.8,0.3-11.9,4.7
		c-3.5-3-7.9-2.6-7.9-2.6s1.8,2.3,2.3,4.5c-3.3-0.6-11.2,2.4-17.8,8.2c-6.1,5.4-9.8,20.5-5.7,27.9c4.2,7.5,8.5,13.2,8.5,13.2
		S417,634.2,422.5,626z"/>
	<path class="st37" d="M418.8,631.7c0,0-2.8-4.3-5.7-0.9c-3,3.4,0,9.3,4.3,10.1C421.8,641.8,418.8,631.7,418.8,631.7z"/>
	<path class="st37" d="M457.5,630.9c0,0,2.8-4.6,5.7-1c3,3.6,0,9.9-4.3,10.8C454.5,641.6,457.5,630.9,457.5,630.9z"/>
	<path class="st1" d="M427.1,678.3c0,0,14.2,4,21.4,0c-8.1,9-11.2,16.5-11.2,16.5S426.1,683,427.1,678.3z"/>
	<path class="st38" d="M422.5,670.1c0,0-6.6-2.3-24.7,0c-14,1.8-19.3,20.6-26.3,23.1c-7,2.4-16.2,8.9-14.9,19.8
		c0.7,6,4.4,18.9,17.5,17.6c11.5-1.1,4.3-2,11.4-6.3c7-4.3,21.6-15.2,26.6-21.4C416.8,696.6,422.5,670.1,422.5,670.1z"/>
	<path class="st38" d="M451.3,673.2c0,0,14-3.2,26.7,0.1c9.1,2.4,21.7,17.4,28.8,19.8c7,2.4,16.2,8.9,14.9,19.8
		c-0.7,6-4.4,18.9-17.5,17.6c-11.5-1.1-4.3-2-11.4-6.3c-7-4.3-21.6-15.2-26.6-21.4C461.3,696.6,451.3,673.2,451.3,673.2z"/>
	<path class="st39" d="M428.2,656.8c0,0-7.7-1.5-12.3,3c-4.6,4.5-8.5,7.6-8.5,7.6s13.9,10.4,19.1,17.6c5.2,7.2,10.8,9.8,10.8,9.8
		s-5.1-14.4-7.2-21.5C428,666.2,428.2,656.8,428.2,656.8z"/>
	<path class="st39" d="M446.2,656.6c0,0,0.6,10.9-2.3,18.2c-2,4.9-6.6,20.1-6.6,20.1s10.8-8.9,16.6-17.6c5.1-7.6,11.5-9.8,11.5-9.8
		S453.2,657.5,446.2,656.6z"/>
	<path class="st1" d="M400.2,772.8l-2.4,8.2c0,0,30.2,13.6,50.8,10.2c20.6-3.4,36.8-5.6,36.8-7c0-1.4-3.4-7.6-3.4-7.6
		s-23.6,3.4-37.1,1.5C431.3,776.3,400.2,772.8,400.2,772.8z"/>
	<g>
		<path class="st12" d="M350.9,849.2c0,0-2.1-3.2,4.1-4.3c6.6-1.2,21.3,8.7,14.9,9.6C363.8,855.4,350.9,849.2,350.9,849.2z"/>
		<g>
			<path class="st12" d="M350.5,847.8c0,0,18.6,10.6,38.9-2.9c0,0,9.4-9.4,15-14.3l-0.1,5.8c0,0-12.4,17.3-24.3,19.8
				c-12.7,2.7-23.3,1.3-29.3-3.9L350.5,847.8z"/>
		</g>
		<path class="st40" d="M366.6,851.5c0,0-4.5,0.3-7.3-0.9c-2.7-1.1-2.3-1.6-2.7-1.8c-0.5-0.2-2.4-0.1-3.2-0.8
			c-0.9-0.7-2.3-1.7-0.9-3.8c1.4-2.2,14.9-1.2,15.1-1C367.7,843.4,366.6,851.5,366.6,851.5z"/>
		<g>
			<path d="M405.1,817.9c-1.7,4.1,1.1,8.6-0.7,12.7c-1.7,3.8-6.9,7.2-10.2,10.5c-4.5,4.5-8,7.2-13.8,9.8
				c-14.2,3.9-16.8-1.4-23.8-4.7c-4.9-2.3-6.7-3.2-6.7-3.2s-1.5-4.6,1.5-6.2c3.1-2.2,8.2-2.8,10.8-5.1c6.1-5.4,8.7-9.2,11.9-16.8
				C383.2,813.1,394.7,816.2,405.1,817.9z"/>
		</g>
		<path class="st40" d="M359.3,848.1l-0.2-1.6l0.6,0c0,0-0.9-1.1-0.1-2.3l-0.9,1.6l-0.7,0.1l0.8,1.9
			C358.8,847.7,359.2,847.9,359.3,848.1z"/>
		<path class="st40" d="M353.5,844.9l0.8-0.7l0.7-0.1l-0.8-1l1,0l-0.3-1.5l-0.3,1c0,0-1.2,0.1-1.1,0.3s0.5,0.6,0.5,0.6l-0.9,1.2
			L353.5,844.9z"/>
		<path d="M350,841.1c0,0,0.1,0.6,0.1,1.3c0,0.4-0.1,0.9-0.2,1c-0.1,0.2-0.4,0.6-0.6,0.9c-0.2,0.3-0.2,0.5,0,0.6
			c0.3,0.3,0.3,0.3,0.3,0.6c0,0.3,0.1,0.3,0.1,0c0-0.3-0.1-0.5-0.4-0.7c-0.2-0.1-0.1-0.3,0.2-0.6c0.1-0.2,0.3-0.3,0.5-0.7
			C350.5,842.4,350,841.1,350,841.1z"/>
		<path d="M350.8,841.4c0,0-0.2,0.4-0.3,0.9c-0.1,0.3-0.1,0.7-0.1,0.8c0,0.1,0.2,0.5,0.3,0.8c0.1,0.2,0.1,0.4-0.1,0.4
			c-0.3,0.2-0.3,0.2-0.3,0.4c0,0.2-0.1,0.2-0.1,0c0-0.2,0.2-0.3,0.4-0.4c0.2-0.1,0.1-0.2,0-0.5c-0.1-0.2-0.1-0.3-0.2-0.6
			C350.2,842.2,350.8,841.4,350.8,841.4z"/>
		<path d="M355.5,842.6c0,0,0.1,0.6,0.1,1.3c0,0.4-0.1,0.9-0.2,1.1c-0.1,0.2-0.4,0.6-0.6,0.9c-0.2,0.3-0.2,0.5,0,0.6
			c0.3,0.3,0.3,0.4,0.3,0.6c0,0.3,0.1,0.3,0.1,0c0-0.3-0.1-0.5-0.4-0.7c-0.2-0.2-0.1-0.3,0.2-0.6c0.1-0.2,0.3-0.3,0.5-0.7
			C356,843.9,355.5,842.6,355.5,842.6z"/>
		<path d="M356.3,842.9c0,0-0.2,0.4-0.3,0.9c-0.1,0.3-0.1,0.7-0.1,0.8c0,0.1,0.2,0.5,0.3,0.8c0.1,0.3,0.1,0.4-0.2,0.4
			c-0.3,0.2-0.3,0.2-0.3,0.4c0,0.2-0.1,0.2-0.1,0c0-0.2,0.2-0.3,0.4-0.4c0.2-0.1,0.1-0.2,0-0.5c-0.1-0.2-0.2-0.3-0.2-0.7
			C355.7,843.7,356.3,842.9,356.3,842.9z"/>
		<path d="M357.4,842.5c0,0,0.1,0.7,0.1,1.3c0,0.4-0.1,0.9-0.2,1.1c-0.1,0.2-0.4,0.6-0.7,0.9c-0.2,0.3-0.2,0.5,0,0.6
			c0.3,0.3,0.3,0.4,0.3,0.6c0,0.3,0.1,0.3,0.2,0c0-0.3-0.1-0.5-0.4-0.8c-0.2-0.2-0.1-0.3,0.2-0.6c0.1-0.2,0.3-0.3,0.5-0.7
			C357.9,843.9,357.4,842.5,357.4,842.5z"/>
		<path d="M358.3,842.8c0,0-0.2,0.4-0.4,0.9c-0.1,0.3-0.1,0.7-0.1,0.8c0,0.1,0.2,0.5,0.3,0.8c0.1,0.3,0.1,0.4-0.2,0.5
			c-0.3,0.2-0.3,0.2-0.3,0.4c0,0.2-0.1,0.2-0.1,0c0-0.2,0.2-0.3,0.4-0.4c0.2-0.1,0.1-0.2,0-0.5c-0.1-0.2-0.2-0.3-0.2-0.7
			C357.6,843.7,358.3,842.8,358.3,842.8z"/>
		<path d="M360.4,845.8c0,0,0.1,0.7,0.1,1.3c0,0.4-0.1,1-0.2,1.1c-0.1,0.2-0.4,0.6-0.7,0.9c-0.2,0.3-0.3,0.5,0,0.6
			c0.3,0.3,0.3,0.4,0.3,0.6c0,0.3,0.1,0.3,0.2,0c0-0.3-0.1-0.5-0.4-0.8c-0.2-0.2-0.1-0.3,0.2-0.6c0.1-0.2,0.3-0.3,0.5-0.7
			C360.9,847.2,360.4,845.8,360.4,845.8z"/>
		<path d="M361.3,846.2c0,0-0.2,0.4-0.4,0.9c-0.1,0.3-0.1,0.7-0.1,0.8c0,0.1,0.2,0.5,0.3,0.8c0.1,0.3,0.1,0.4-0.2,0.5
			c-0.3,0.2-0.3,0.2-0.3,0.4c0,0.2-0.1,0.2-0.1,0c0-0.2,0.2-0.3,0.5-0.4c0.2-0.1,0.1-0.2,0-0.5c-0.1-0.2-0.2-0.3-0.2-0.7
			C360.6,847,361.3,846.2,361.3,846.2z"/>
		<path d="M352.8,840.5c0,0,0.1,0.6,0.1,1.3c0,0.4-0.1,0.9-0.2,1.1c-0.1,0.2-0.4,0.6-0.6,0.9c-0.2,0.3-0.2,0.5,0,0.6
			c0.3,0.3,0.3,0.3,0.3,0.6c0,0.3,0.1,0.3,0.1,0c0-0.3-0.1-0.5-0.4-0.7c-0.2-0.1-0.1-0.3,0.2-0.6c0.1-0.2,0.3-0.3,0.5-0.7
			C353.3,841.8,352.8,840.5,352.8,840.5z"/>
		<path d="M353.7,840.8c0,0-0.2,0.4-0.3,0.9c-0.1,0.3-0.1,0.7-0.1,0.8c0,0.1,0.2,0.5,0.3,0.8c0.1,0.2,0.1,0.4-0.1,0.4
			c-0.3,0.2-0.3,0.2-0.3,0.4s-0.1,0.2-0.1,0c0-0.2,0.2-0.3,0.4-0.4c0.2-0.1,0.1-0.2,0-0.5c-0.1-0.2-0.1-0.3-0.2-0.6
			C353,841.6,353.7,840.8,353.7,840.8z"/>
	</g>
	<path class="st41" d="M411.2,729.8c-8.4-3.8-18.4-5.1-23,3.9c-4.2,8.2-9.4,23.4-12.4,34.8c-1.2,4.4-3.8,22.5-6.4,36.6
		c-2.1,11-3.6,20.9-3.7,21.6c-0.3,3.4,1.6-2.8,10.8-2c10.5,0.8,25.3,9,28,4.6c2.8-4.4,9.8-41,13.2-57.9
		C421.2,754.5,422.2,734.8,411.2,729.8z"/>
	<path class="st37" d="M501.5,809.7c0,0,3.1,9.3,9.9,17.6s9.4,15.2,2.4,23.8c-7,8.6-12.8,5.7-19.4,0.2c-7.6-6.2-11.9-16.4-14.7-18.8
		c-2.8-2.3-4.1-19.3-4.1-19.3L501.5,809.7z"/>
	<path class="st41" d="M469.3,729.8c8.4-3.8,18.4-5.1,23,3.9c4.2,8.2,9.4,23.4,12.4,34.8c2.1,7.9,11,50.7,11,50.7s-9.3,5.4-14.1,7.4
		c-15.5,6.6-17.9,7.3-28.4,2.7c-2.1-10.9-7-41-10.4-57.9C459.4,754.5,458.3,734.8,469.3,729.8z"/>
	<path class="st37" d="M378.6,702.1c-10.2,3.4-13.8,9.5-13.8,17.9s10.2,9.2,18.8,10.6c8.5,1.4,29.4,3.1,33.4,5.4
		c4.1,2.4,2.8,10.2,5.3,16.5c1.4,3.4,3.6,10.7,8,6.5c1.4-1.3,7.5-14.9,4.2-23.8c-3.3-8.9-4.3-14-12.2-16.3
		C414.5,716.7,378.6,702.1,378.6,702.1z"/>
	<path class="st37" d="M499.5,702.1c10.2,3.4,13.8,9.5,13.8,17.9s-10.2,9.2-18.8,10.6c-8.5,1.4-29.4,3.1-33.4,5.4
		c-4.1,2.4-2.8,10.2-5.3,16.5c-1.4,3.4-3.6,10.7-8,6.5c-1.4-1.3-7.5-14.9-4.2-23.8c3.3-8.9,4.3-14,12.2-16.3
		C463.7,716.7,499.5,702.1,499.5,702.1z"/>
	<rect x="441.7" y="775.1" class="st26" width="114" height="83.8"/>
	<polygon class="st1" points="513,846.9 484.7,847.6 484.6,844.1 512.9,843.4 	"/>
	
		<rect x="474.1" y="835.6" transform="matrix(0.9997 -2.536076e-02 2.536076e-02 0.9997 -21.077 12.915)" class="st1" width="49" height="3.5"/>
	<polygon class="st1" points="527.4,830.9 469.6,832.3 469.5,828.8 527.3,827.3 	"/>
	<g>
		<g>
			<polygon class="st42" points="573.2,814.9 555.6,814.9 538.1,814.9 539.2,821.5 572.1,821.5 			"/>
			<path class="st42" d="M545.5,858.9c0,0,3.9,0.7,10.1,0.7c6.2,0,10.1-0.7,10.1-0.7l0.7-4.2h-21.7L545.5,858.9z"/>
			<polygon class="st42" points="544.3,851.6 567,851.6 568.2,844.7 543.1,844.7 			"/>
			<polygon class="st42" points="539.7,824.7 540.9,831.5 570.4,831.5 571.6,824.7 			"/>
			<polygon class="st42" points="542.6,841.5 568.7,841.5 569.9,834.7 541.4,834.7 			"/>
			<polygon class="st42" points="572.1,821.5 539.2,821.5 539.7,824.7 571.6,824.7 			"/>
			<polygon class="st42" points="541.4,834.7 569.9,834.7 570.4,831.5 540.9,831.5 			"/>
			<polygon class="st42" points="543.1,844.7 568.2,844.7 568.7,841.5 542.6,841.5 			"/>
			<polygon class="st42" points="544.8,854.7 566.5,854.7 567,851.6 544.3,851.6 			"/>
		</g>
		<path class="st33" d="M575.6,818.1c0,0-10.8,0.7-20.3,0.7s-19.5-0.7-19.5-0.7V812c0,0,10.3-0.3,19.6-0.3c9.3,0,20.2,0.3,20.2,0.3
			V818.1z"/>
	</g>
	<g>
		<g>
			<g>
				<polygon class="st43" points="445.4,843.1 453.4,837.6 465.7,825.5 474.7,837.9 463.4,849.2 455.2,854.6 				"/>
			</g>
		</g>
		<path class="st44" d="M464.3,848.3c0,0-3.7-2.2-3.7-5.8c-0.1-3.6-4.6-3.9-2.2-7.2c2.4-3.3,5,0.1,5.4,1.2c0.4,1,2.7-1.1,7.2,5.1
			L464.3,848.3z"/>
		<g>
			<path class="st44" d="M448.1,843.6l-0.1,0.4l-0.4-0.5l0.1-0.6l0.5-0.3l2.3,3l-0.5,0.4L448.1,843.6z"/>
			<path class="st44" d="M450.3,844.8l-1.3-1.7c-0.4-0.5-0.2-0.9,0.2-1.2c0.4-0.3,0.8-0.3,1.2,0.2l1.3,1.7c0.4,0.5,0.2,0.9-0.2,1.2
				C451.1,845.3,450.7,845.3,450.3,844.8z M451.1,844.2l-1.3-1.7c-0.1-0.2-0.2-0.2-0.3-0.1c-0.1,0.1-0.1,0.2,0,0.3l1.3,1.7
				c0.1,0.2,0.2,0.2,0.3,0.1C451.3,844.5,451.3,844.4,451.1,844.2z"/>
			<path class="st44" d="M451.9,843.6l-1.3-1.7c-0.4-0.5-0.2-0.9,0.2-1.2c0.4-0.3,0.8-0.3,1.2,0.2l1.3,1.7c0.4,0.5,0.2,0.9-0.2,1.2
				C452.7,844.1,452.3,844.1,451.9,843.6z M452.7,843l-1.3-1.7c-0.1-0.2-0.2-0.2-0.3-0.1c-0.1,0.1-0.1,0.2,0,0.3l1.3,1.7
				c0.1,0.2,0.2,0.2,0.3,0.1C452.9,843.3,452.9,843.2,452.7,843z"/>
		</g>
		<polygon class="st44" points="465.6,827.1 466.2,827.8 465.6,828.4 465,827.7 		"/>
		<polygon class="st44" points="466.4,828 467,828.7 466.4,829.3 465.8,828.6 		"/>
		<polygon class="st44" points="467.2,828.9 467.8,829.7 467.2,830.3 466.6,829.6 		"/>
		<polygon class="st44" points="468,829.9 468.6,830.7 468,831.3 467.4,830.5 		"/>
		<polygon class="st44" points="455.6,852.2 456.2,852.9 455.5,853.5 454.9,852.7 		"/>
		<polygon class="st44" points="456.6,851.5 457.2,852.2 456.5,852.7 455.9,852 		"/>
		<polygon class="st44" points="457.6,850.7 458.2,851.5 457.5,852 456.9,851.3 		"/>
		<polygon class="st44" points="458.6,850 459.2,850.7 458.5,851.3 457.9,850.5 		"/>
		<polygon class="st44" points="469,842.3 473.6,837.7 471.9,835.6 467.1,840.1 		"/>
		<g>
			<path class="st43" d="M470.1,838.2l0,0.2l-0.2-0.2l0-0.3l0.2-0.2l1.3,1.5l-0.3,0.2L470.1,838.2z"/>
			<path class="st43" d="M471.4,838.8l-0.8-0.9c-0.2-0.2-0.2-0.5,0-0.6c0.2-0.2,0.4-0.2,0.6,0l0.8,0.9c0.2,0.2,0.2,0.5,0,0.6
				C471.8,839,471.6,839,471.4,838.8z M471.8,838.4l-0.8-0.9c-0.1-0.1-0.1-0.1-0.2-0.1c0,0,0,0.1,0,0.2l0.8,0.9
				c0.1,0.1,0.1,0.1,0.2,0.1C471.8,838.6,471.8,838.5,471.8,838.4z"/>
			<path class="st43" d="M472.2,838.1l-0.8-0.9c-0.2-0.2-0.2-0.5,0-0.6c0.2-0.2,0.4-0.2,0.6,0l0.8,0.9c0.2,0.2,0.2,0.5,0,0.6
				C472.6,838.3,472.4,838.3,472.2,838.1z M472.6,837.7l-0.8-0.9c-0.1-0.1-0.1-0.1-0.2-0.1c0,0,0,0.1,0,0.2l0.8,0.9
				c0.1,0.1,0.1,0.1,0.2,0.1C472.7,837.8,472.6,837.8,472.6,837.7z"/>
		</g>
	</g>
	<g>
		<g>
			<g>
				<polygon class="st43" points="441.7,826.6 447.1,833.6 458.9,844.1 448.2,853.1 437.1,843.5 431.7,836.3 				"/>
			</g>
		</g>
		<path class="st44" d="M438,844.3c0,0,1.8-3.5,5.1-3.8c3.3-0.3,3.3-4.5,6.5-2.5c3.2,2,0.2,4.6-0.7,5s1.2,2.4-4.2,6.9L438,844.3z"/>
		<g>
			<path class="st44" d="M441.3,829.2l-0.4-0.1l0.4-0.4l0.5,0.1l0.3,0.4l-2.6,2.2l-0.4-0.5L441.3,829.2z"/>
			<path class="st44" d="M440.4,831.3l1.5-1.3c0.4-0.4,0.8-0.3,1.1,0.1c0.3,0.3,0.4,0.7-0.1,1.1l-1.5,1.3c-0.4,0.4-0.8,0.3-1.1-0.1
				C440,832,439.9,831.6,440.4,831.3z M441,831.9l1.5-1.3c0.1-0.1,0.2-0.2,0.1-0.3c-0.1-0.1-0.1-0.1-0.3,0.1l-1.5,1.3
				c-0.2,0.1-0.2,0.2-0.1,0.3C440.7,832.1,440.8,832.1,441,831.9z"/>
			<path class="st44" d="M441.6,832.6l1.5-1.3c0.4-0.4,0.8-0.3,1.1,0.1c0.3,0.3,0.4,0.7-0.1,1.1l-1.5,1.3c-0.4,0.4-0.8,0.3-1.1-0.1
				C441.2,833.4,441.1,833,441.6,832.6z M442.2,833.3l1.5-1.3c0.1-0.1,0.2-0.2,0.1-0.3c-0.1-0.1-0.1-0.1-0.3,0.1l-1.5,1.3
				c-0.2,0.1-0.2,0.2-0.1,0.3C441.9,833.5,442,833.5,442.2,833.3z"/>
		</g>
		<polygon class="st44" points="457.5,844.2 456.9,844.7 456.3,844.2 456.9,843.6 		"/>
		<polygon class="st44" points="456.7,844.9 456.1,845.5 455.5,845 456.1,844.4 		"/>
		<polygon class="st44" points="455.9,845.7 455.3,846.3 454.7,845.8 455.3,845.2 		"/>
		<polygon class="st44" points="455.1,846.5 454.4,847.1 453.8,846.6 454.5,846 		"/>
		<polygon class="st44" points="433.9,836.5 433.3,837.1 432.8,836.5 433.4,835.9 		"/>
		<polygon class="st44" points="434.7,837.4 434,838 433.5,837.4 434.1,836.8 		"/>
		<polygon class="st44" points="435.4,838.2 434.7,838.9 434.2,838.3 434.9,837.7 		"/>
		<polygon class="st44" points="436.1,839.1 435.5,839.7 435,839.1 435.6,838.5 		"/>
		<polygon class="st44" points="443.8,848.2 448.3,852.1 450.1,850.4 445.7,846.3 		"/>
		<g>
			<path class="st43" d="M447.6,848.9l-0.2,0l0.2-0.2l0.3,0l0.2,0.2l-1.3,1.3l-0.2-0.2L447.6,848.9z"/>
			<path class="st43" d="M447.1,850.1l0.8-0.8c0.2-0.2,0.4-0.2,0.6,0c0.2,0.2,0.2,0.4,0,0.6l-0.8,0.8c-0.2,0.2-0.4,0.2-0.6,0
				C447,850.5,446.9,850.3,447.1,850.1z M447.5,850.5l0.8-0.8c0.1-0.1,0.1-0.1,0-0.2c0,0-0.1,0-0.2,0l-0.8,0.8
				c-0.1,0.1-0.1,0.1,0,0.2C447.4,850.5,447.4,850.5,447.5,850.5z"/>
			<path class="st43" d="M447.9,850.8l0.8-0.8c0.2-0.2,0.4-0.2,0.6,0c0.2,0.2,0.2,0.4,0,0.6l-0.8,0.8c-0.2,0.2-0.4,0.2-0.6,0
				C447.7,851.2,447.6,851,447.9,850.8z M448.2,851.1l0.8-0.8c0.1-0.1,0.1-0.1,0-0.2c0,0-0.1,0-0.2,0l-0.8,0.8
				c-0.1,0.1-0.1,0.1,0,0.2C448.1,851.2,448.1,851.2,448.2,851.1z"/>
		</g>
		<path class="st45" d="M430.8,841.7v7.2c0,5.7,3.7,10.4,8.3,10.4c0,0,7.3,0.7,17.7,0.7c10.5,0,15.5-0.7,15.5-0.7
			c4.6,0,8.3-4.7,8.3-10.4v-7.2H430.8z"/>
		<path d="M481.6,844.9c0,0-15.6,1-26.1,1c-10.5,0-26.2-1-26.2-1c-2.1,0-3.7-1.7-3.7-3.7l0,0c0-2.1,1.7-3.7,3.7-3.7c0,0,17,1,26.3,1
			c9.3,0,26-1,26-1c2.1,0,3.7,1.7,3.7,3.7l0,0C485.3,843.2,483.6,844.9,481.6,844.9z"/>
	</g>
</g>
<g>
	<path class="st46" d="M476.7,791.7c0.8,0.1,1.5,0.4,2.1,1.1c0.1,1-0.1,2.1-0.5,3.4l0.1,1.1c0,0.2-0.1,0.5-0.3,0.7
		c0,0.5,0,1-0.3,1.6l0,0.7c0.1,0.8,0.2,1.8,0.1,3l0.1,0.5l-0.1,0.4l-0.1,0.6l0.2,0.5l-0.4,1.7l0,1.9l0,0.5l0,0.4l-0.2,0.9l0.2,0.6
		l0,0.3c-0.1,0.4-0.2,0.9-0.1,1.5c-0.1,0.3-0.1,0.6-0.2,1c0.1,1.5,0.6,3,1.6,4.5c-0.1,0.5-0.5,1-1,1.5c-0.5,0-1.1-0.1-2-0.2
		c-0.3-0.8-0.6-1.9-0.7-3.1c-0.2-0.3-0.3-0.7-0.4-1.2l-0.1-0.8c0-0.3,0-0.6-0.2-1l-0.1-0.8c0.1-0.5,0.1-1,0-1.7l-0.3-2.3l0.1-0.2
		l0.3-0.9l0-0.4c-1.2,0-2.3,0.4-3.5,1.1c-1.6,0.4-3.4,0.4-5.3,0l-0.2,0c-0.1,0.7,0,1.7,0.1,2.8l-0.1,0.4l-0.1,0.4l0.2,0.7l-0.1,0.8
		l-0.1,0.4l0,0.3l0.2,1.7c0.3,0.3,0.4,0.6,0.5,1c0,0.7-0.2,1.4-0.7,2.1c-1.9,0.3-2.7-0.7-2.5-2.8c0-0.7-0.1-1.7-0.3-2.8l0.1-0.4
		l-0.2-0.8l-0.3-0.9l0.1-0.5c0-0.5-0.1-1.2-0.3-1.9c0-0.2,0.1-0.4,0.2-0.6c-0.1-0.8-0.4-1.5-1-2.2c-0.1-0.3-0.2-0.7-0.2-1.2
		c0.8-1.9,0.7-3.6-0.1-5.3l0-3.3c-0.1-0.6,0-1.2,0.2-1.8c0.5-1.1,1.4-1.7,2.7-1.7c0.4,0.6,0.8,1.5,1.1,2.6c-0.2,0.7-0.2,2.2,0,4.5
		l-0.1,0.4l0,0.4l-0.1,0.4l-0.1,0.4l0,0.5l0,0.3l0,0.4c1.6,2.2,3.7,3.3,6.3,3.4l0.7-0.4c0.6,0.1,1.1-0.1,1.5-0.6
		c0.6,0,1.1-0.3,1.6-0.7c-0.2-0.4-0.2-0.9,0-1.4l-0.2-3.5l0.1-0.7l0.1-0.6l0.1-0.4c0-0.3,0-0.7,0.1-1l0-0.4l0.1-0.4l-0.2-0.7
		l0.2-0.5l0-0.5c0.3-0.6,0.6-1.3,0.7-2.2C476.3,791.9,476.5,791.8,476.7,791.7z"/>
	<path class="st46" d="M486.4,801.8c0.9,0.1,1.6,0.5,2.2,1.2c-0.2,0.6-0.3,1.3-0.2,2.2c-0.3,0.4-0.4,1-0.5,1.6c0.1,0.5,0.1,1,0,1.5
		l0.1,1l-0.1,0.7l0.1,0.3c-0.2,0.4-0.3,0.9-0.4,1.4l-0.1,0.7l-0.4,1.4l0,1.2c-0.2,0.3-0.4,0.7-0.4,1l-0.2,0.1l-0.1,0.7l0,0.3
		l-0.5,0.7c-0.1,0.4-0.2,0.8-0.3,1.4c-0.3,0.3-0.5,0.6-0.6,1c-0.3,0.2-0.6,0.5-0.8,0.9l-0.2,0.3l-0.2,0.2c-0.1,0.2-0.2,0.5-0.5,0.8
		l-0.2,0.2l-0.3,0.4l-0.1,0.4c-0.4,0.2-0.7,0.6-0.9,1.1c-0.3,0.1-0.7,0.2-1.1,0.1c-0.2-0.2-0.4-0.4-0.7-0.6c0.2-0.6,0.2-1.2,0.2-2
		c1-0.8,1.7-1.8,2-3.1l0.6-0.4c0.1-0.5,0.3-1.1,0.6-1.7l0-0.3l0.5-0.3c0.1-0.6,0.3-1.4,0.7-2.3l-0.1-1.3l0-1.7l0.1-0.3
		c-0.1-0.2-0.2-0.4-0.2-0.8l0.1-0.6c0-0.3-0.2-0.7-0.3-1.1c0.2-0.6,0.2-1.3,0-2c0.3-0.8,0.4-1.8,0.4-3l0-0.3l0.3-0.5
		C485.5,802.3,485.9,802.1,486.4,801.8z M485.4,796.4l1.9,0.5l0.3,0.1c0.1,0.2,0.3,0.5,0.5,0.7c0.1,0.7,0.1,1.2,0.1,1.4
		c0,0.2,0.1,0.4,0.3,0.7l0,0.2c-0.3,0.1-0.7,0-1.2-0.1c0.5,0.1,0.3,0.3-0.7,0.7c-0.4-0.4-0.8-0.6-1.4-0.9c0-0.1-0.1-0.1-0.2-0.2
		c-0.2-0.4-0.2-1.1-0.2-2.3l0-0.2l0.6-0.6L485.4,796.4z"/>
	<path class="st46" d="M499,800.3c0.4-0.1,0.8,0,1.1,0.2c0.8-0.2,1.7-0.1,2.6,0.4c0.5,0,1-0.1,1.4-0.4c0.5,0.4,1,0.6,1.6,0.7
		l0.6-0.2l0.6,0.1l0.3,1.2c-0.2,0.1-0.1,0.7,0.3,1.8c-0.4,0.6-0.7,2-0.7,4c0.2,1.9,0.8,3.2,1.8,3.9c3,0.4,3.2,1.4,0.7,3
		c-3.4,0.4-5.2-1.7-5.3-6.5c-0.2,0.2-0.3,0.4-0.4,0.7c-0.3,0.2-0.6,0.6-1,1.2l-0.2,0.2l-0.2,0.3c-0.2,0.4-0.5,0.7-0.9,1.2l-0.3,0.4
		l-1.1,1.3c-0.3,0.2-0.5,0.5-0.8,0.9c-0.1,0-0.1,0.1-0.2,0.3l-2.7,1.4l-0.2,0.3l-0.7-0.2l-2.4,0.2c-0.3-0.5-0.7-0.9-1.3-1.3
		c-0.2-0.4-0.4-0.7-0.8-0.9c0.1-0.3,0-0.6-0.2-1c0-0.6-0.1-1.2-0.2-1.7l0-0.4c0.4-0.7,0.6-1.5,0.6-2.4c0.4-0.2,0.7-0.5,0.9-1
		l0.1-0.4l-0.1-0.4c0.3-0.3,0.5-0.7,0.5-1.3c0.4-0.3,0.8-0.8,1.1-1.3l0.1-0.6c0.3-0.2,0.6-0.5,0.9-0.9c0.4-0.1,0.8-0.4,1.1-0.9
		c0.4-0.1,0.7-0.3,1-0.8l0.3-0.2l2-0.8C498.9,800.5,498.9,800.5,499,800.3z M494.7,795c0.8,0.2,1.8,0.6,2.7,1.3l0.6,0.2l0.6,0.1
		l0.1,1c-1.2,0.7-2.6,0.9-3.9,0.8C493.4,797.5,493.4,796.3,494.7,795z M499.7,804.9c-1.3,0.1-2.2,0.5-2.6,1.2c-1,0.2-1.7,1-2.1,2.2
		c-1.4,1.3-1.5,2.8-0.2,4.5c1,0,1.9-0.4,2.8-1.2c0.2-0.1,0.6-0.2,1-0.2l0.3-1c0.9-0.1,1.5-0.7,1.8-1.7c0.6-0.4,1.1-1.1,1.4-2
		l0.5-0.2C502,805.3,501,804.8,499.7,804.9z M504.9,794.7c2.5,0.6,2.9,1.8,1.4,3.7C503.6,798.5,503.2,797.3,504.9,794.7z"/>
	<path class="st46" d="M515.1,791.7c0.4-0.1,0.9,0,1.4,0.3c-0.1,0.6,0.2,1.1,0.8,1.5c0,0.4,0.1,0.7,0.3,1c0,0.5-0.2,0.9-0.7,1.3
		c0.1,1.4-0.1,2.9-0.6,4.4l0,0.4l0,0.6l-0.1,0.4l-0.5,0.4l-0.1,0.8c-0.1,0.6-0.1,1.4,0,2.2l-0.2,0.2c0,0.8-0.2,1.7-0.5,2.7l-0.1,0.3
		l0.2,0.4l0,0.4c-0.6,1.6-0.7,3.4-0.3,5.3l-0.1,0.8l-0.3,0.5c-0.3,0.1-0.7,0-1-0.1l-0.4,0c-0.2-0.5-0.6-1-1.1-1.3
		c-0.1-0.7-0.1-1.6-0.2-2.6c-0.2-1.6-0.1-2.9,0.4-4c0-0.3,0-0.6,0.1-1l0-0.4l0.1-0.3l-0.1-0.8l0.5-0.7c0-0.7-0.1-1.6-0.1-2.6
		l-0.1-1.9l-0.2-0.4c0.2-0.6,0.4-1.4,0.4-2.4c0.1,0,0.2-0.1,0.2-0.3l-0.2-2.7c0.4-0.4,0.7-0.9,0.8-1.6L515.1,791.7z"/>
	<path class="st46" d="M524.1,797.3c0.6-0.1,1.3,0,2.2,0l0.4-0.1c0.3,0.2,0.8,0.3,1.3,0.5c0,0.1,0,0.1,0.1,0.2l0.3,0.1
		c0.2,0.2,0.6,0.4,1,0.6c0.1,0,0.2,0.1,0.4,0.1c0.2,0.4,0.6,0.6,1,0.8c0.2,0.4,0.6,0.8,1.1,1l0.2,0.2c0.1,0.3,0.3,0.6,0.6,0.9
		l0.4,0.3c0,0.4,0.2,0.8,0.5,1.2l0.1,0.8l0.2,0.2l-0.6,1.3l-0.1,0.3l-0.1,0.2L533,806l-0.2,0.2l-0.1,0.3l-0.1,0.3
		c-0.1,0-0.1,0.1-0.2,0.2c-0.2,0.2-0.5,0.4-0.6,0.7c-0.1,0-0.1,0.1-0.2,0.2c-0.4,0.1-0.7,0.4-1,0.8c-0.7,0.1-1.3,0.3-1.9,0.8
		l-0.4,0.1l-0.3,0.1l-0.3,0.2l-2.2,0.5l-0.7,0.1l-0.5-0.7c-0.2,0.1-0.4,0.2-0.6,0.3c-0.1,0.3-0.1,0.6,0,1c-0.1,0.6-0.2,1.3-0.1,2.1
		l-0.1,0.2l-0.1,0.5l0.1,0.3c0.1,0.3,0.1,0.6,0.1,1l-0.1,0.5l0.3,0.8c-0.1,0.3-0.1,0.7-0.1,1.2c-0.2,0.3-0.4,0.6-0.4,1
		c-0.2,0.1-0.4,0.3-0.5,0.6c-0.7,0.1-1.5,0-2.3-0.3c0-0.3-0.2-0.7-0.5-1.1c0.1-0.5,0.1-1,0.1-1.7l-0.3-0.6l-0.1-0.2
		c0-0.1-0.1-0.2-0.1-0.3c0-0.5-0.1-1.1-0.2-1.8l-0.2-2.2l-0.1-3.4l0.3-0.5c-0.1-0.4-0.1-1,0-1.6l-0.1-0.2l0-0.7
		c0.4-0.6,0.6-1.3,0.7-2.1c0.3-0.4,0.5-0.9,0.6-1.4l0.4-0.5l0.1-0.3l0.1-0.4l0.4-0.2l0.1-0.7c0.4-0.2,0.8-0.6,1-1.1
		C523.2,798.1,523.7,797.8,524.1,797.3z M525.1,799.9c-1.5,0.5-2.4,1.6-2.7,3.3c-0.7,1-0.8,1.8-0.2,2.4l0.8-0.1
		c0.1,0.3,0.2,0.7,0.4,1.1l0,0.3c0.2,0.2,0.3,0.4,0.3,0.7c2.8-0.4,5.2-1.8,7.3-4.1l-0.1-0.8c-0.3-0.6-0.8-1-1.7-1.2
		C528.2,800.3,526.8,799.8,525.1,799.9z"/>
</g>
<path d="M444.7,641.5c1.3,0,2.4,4,0,4C442.3,645.6,442.9,641.5,444.7,641.5z"/>
<path d="M431.7,641.5c1.3,0,2.4,4,0,4C429.3,645.6,429.9,641.5,431.7,641.5z"/>
<path class="st36" d="M438.4,645.9c0.2,0.6,1.6,4.2,1.3,5.1s-0.8,1.1-1.4,1.1c-0.5,0-0.7,0.5,0,0.7c0.6,0.1,1.8,0.3,2.2-1.4
	c0.3-1.7-1.5-5-1.7-5.5C438.5,645.1,438.2,645.3,438.4,645.9z"/>
<path class="st47" d="M436,655.1c0.3-0.1,1.1-0.5,2.5-0.5c1.5,0,2.3,0.5,2.6,0.6c0.4,0.2,0.2,1-0.3,0.9c-0.3-0.1-0.7-0.4-2.3-0.5
	c-0.8,0-1.1,0-2.2,0.4C435.5,656.2,435.5,655.3,436,655.1z"/>
<path d="M449.7,638.7c-0.3-0.1-0.8-0.3-1.5-0.5l-1,0.3l-0.1-0.6c-1.1-0.2-2.5-0.3-4.3,0.1c-0.9,0.2-0.7,1.4-0.7,1.4
	c0.6,0.8,3.6-0.7,6.7,0.4C452,640.9,450.5,639,449.7,638.7z"/>
<path d="M427.2,639c0.3-0.1,1.4-0.6,2.9-0.7l1,0.3l0.1-0.6c1.4,0,1.5,0,2.9,0.3c0.9,0.2,0.7,1.4,0.7,1.4c-0.6,0.8-3.6-0.7-6.7,0.4
	C424.9,641.2,426.4,639.3,427.2,639z"/>
<path class="st36" d="M459.3,638.7c-0.7,0.4,0.5-1,1.2-3.1c0.5-1.7-2.1-5.1,1-4.8C461.4,630.8,464.3,635.4,459.3,638.7z"/>
<path class="st36" d="M416.2,638.4c0.6,0.3-0.4-0.8-1-2.5c-0.5-1.4,1.7-4.1-0.8-3.8C414.4,632.1,412,635.8,416.2,638.4z"/>
</svg>
