<?xml version="1.0" encoding="utf-8"?>
<!-- Generator: Adobe Illustrator 27.0.1, SVG Export Plug-In . SVG Version: 6.00 Build 0)  -->
<svg version="1.1" id="Lager_1" xmlns="http://www.w3.org/2000/svg" xmlns:xlink="http://www.w3.org/1999/xlink" x="0px" y="0px"
	 viewBox="0 0 1600 900" style="enable-background:new 0 0 1600 900;" xml:space="preserve">
<style type="text/css">
	.st0{fill:#500B00;}
	.st1{fill:#97672C;}
	.st2{fill:#F4F4F4;}
	.st3{fill:#013F4B;}
	.st4{fill:#6B410C;}
	.st5{fill:#FFFFFF;}
	.st6{fill:#002B33;}
	.st7{fill:#BA8B50;}
	.st8{fill:#57A9B8;}
	.st9{fill:#418D9B;}
	.st10{fill:#E6BC87;}
	.st11{fill:#A3A2A2;}
	.st12{fill:#D4A572;}
	.st13{fill:#7D7B7B;}
	.st14{clip-path:url(#SVGID_00000044884890513061584330000007583644594278527366_);}
	.st15{fill:#EE492E;}
</style>
<ellipse class="st0" cx="814.7" cy="810.9" rx="519.8" ry="63.1"/>
<g>
	<path class="st1" d="M1067.1,746c0,0-0.2,21.9-2.2,24.7c-1.9,2.8-12.4,4-16.4,1.3c-4-2.7-3.1-28.1-3.1-28.1L1067.1,746z"/>
	<path class="st2" d="M1046,763.4c0,0,4.2,4.6,10.3,5.1s9.5,0,9.5,0s0.5-0.2,1,0.1c2.7,1.8,8.4,8,13.8,11.8
		c5.8,4.1,11.4,7.9,10.2,15.1c-0.5,3.3-9.1,5.4-14.3,5.2c-5-0.1-28.6-4.9-33.6-9s1-23.3,2.3-28.1
		C1045.4,763.1,1046,763.4,1046,763.4z"/>
	<path class="st1" d="M1139.1,746c0,0-0.2,21.9-2.2,24.7c-1.9,2.8-12.4,4-16.4,1.3c-4-2.7-3.1-28.1-3.1-28.1L1139.1,746z"/>
	<path class="st2" d="M1118,763.4c0,0,4.2,4.6,10.3,5.1s9.5,0,9.5,0s0.8-0.2,1.2,0c3.3,1.9,11.2,8.2,17.6,10.9
		c7.3,3.1,17.3,7.5,16.6,11.3c-0.6,3.3-1,5.6-2.7,6.2c-2.9,1.1-5.5,2.5-17.2,2c-12.7-0.6-34.6-3.3-38.6-5.9
		c-3.8-2.5,0.5-23.4,2-29.4C1117.1,762.5,1118,763.4,1118,763.4z"/>
	<path class="st1" d="M1158.7,318.8c0.1,1.4,7.7,41.7,7.5,51.4c-0.2,9.7-4.7,76.5-5.8,80.4c-1.1,4-4.1,4-10,2.7
		c-3.5-0.8-10.6-40.4-10.9-66.8c-0.3-26.4-5-63.9-5-63.9L1158.7,318.8z"/>
	<path class="st3" d="M1092.1,509.9c-1.2,2,16.4,109.6,17.4,122.9c1,13.3-4.2,124.1,6,127.5c10.2,3.4,26.7,2.8,29.6-0.2
		c2.9-3,13.5-98.9,15.3-130.6s-6.9-139.5-6.9-139.5l-64.1,6L1092.1,509.9z"/>
	<path class="st3" d="M1158.3,421.9c0,0,7.8-1.8,7.9,0.9c2.1,39.6-7.5,51.4-7.5,51.4l-11-44.1L1158.3,421.9z"/>
	<path class="st3" d="M1028.7,484.1c0,0,2.9,102.3,5.1,136.7c2.2,34.4,0.8,135.4,8.8,139.4c8,4,19.7,4.1,25.9-0.1
		c6.3-4.2,11-22.2,11.4-50.8c0.3-28.6,16.4-184.6,16.4-194c0-9.3,4.2-21.3,4.2-21.3L1028.7,484.1z"/>
	<path d="M1115.2,126c20.8,7.6,23.5,24.1,23.5,38.7c0.1,14.6,0,34.9,1.7,43.4c1.7,8.5,15.4,22.4,13.5,36c-1.9,13.6-3.7,25.2-11.7,28
		c-8,2.7-93.6-6.5-93.6-6.5s15.7-35.5,17.3-64.4c1.4-24.9-2-44.2-0.3-52.9C1069.2,130,1094.4,118.3,1115.2,126z"/>
	<path class="st1" d="M1120.1,137.6c5.5,5.3,8.8,6.5,12,18c3,11.1,2.8,26.1,2.3,31.9c-1.2,13.1-9.5,24.3-12.6,25.4
		c-3.1,1.1-37-6.5-40-9.2c-3-2.7-6.4-18.6-8.8-30.7c-2.5-12.1-5.7-20.9,3.4-33.4C1084.8,127.9,1106.2,124.2,1120.1,137.6z"/>
	<path class="st1" d="M1134.4,245.8l-24.3,37l-61.8-40.3c0,0,24.1-12.9,27.7-17.4c3.6-4.6,4.7-34.3,4.7-34.3l36.3,14.6
		c0,0-0.5,1.9-1.1,4.6c-0.7,3.1-1.6,7.3-2.2,11.1c-0.5,3-0.8,5.8-0.6,7.6C1113.6,234.6,1134.4,245.8,1134.4,245.8z"/>
	<path class="st4" d="M1115.3,212.4c-0.7,3.1-1.6,8.6-1.6,8.6s-2.9-0.6-6.3-2c-3.4-1.4-5.9-3-9.8-6.5c-3.8-3.4-7.4-11.4-4.7-9.6
		c3.7,2.4,6.6,3.8,9.6,5.1C1111.8,212.2,1115.3,212.4,1115.3,212.4z"/>
	<path class="st5" d="M1111.7,195c0.6-0.7,4.1,0.9,7.5,0.5c3.4-0.4,5.7-2,6.2-1.1c0.4,0.9-1.4,4.7-6.4,5.1
		C1114.5,199.8,1110.6,196,1111.7,195z"/>
	<path d="M1106.1,165.1c-1.8-0.2-4.3,0-7,1.8c-2.6,1.8,0,2.1,1.1,1.7c1.1-0.4,7.8-0.7,8-1.9C1108.5,165.6,1106.9,165.2,1106.1,165.1
		z"/>
	<path d="M1123,164.8c1.7-0.5,4.3-0.6,7.2,0.8c2.9,1.4,0.3,2-0.9,1.8c-1.1-0.2-7.8,0.3-8.2-0.7C1120.7,165.6,1122.3,165,1123,164.8z
		"/>
	<path d="M1097.9,148.9c0,0-1.1,6.1-7,11.9c-6,5.8-11.5,13.1-10,18.5c1.5,5.3-0.8,21.6-0.8,21.6s-13.1-33.1-12.4-34.6
		c0.7-1.5,3.5-19.9,3.5-21.4c0-1.5,9.4-14,11.1-14.5c1.7-0.5,16.3-3.3,18.1-3.3s33.6,9.3,33.5,16.8s0.4,14.1,0.4,14.1
		s-10.6-8.7-20.3-8.6C1104.2,149.3,1097.9,148.9,1097.9,148.9z"/>
	<path class="st4" d="M1122.2,182.6c-0.5-2.4-1.9-4.7-2.7-7c-0.3-0.9-1.7-0.5-1.4,0.4c0.5,1.5,1,2.9,1.6,4.3
		c1.1,2.6,1.5,4.1,0.2,6.7c-0.4,0.8,0.8,1.6,1.3,0.7C1122,186.1,1122.6,184.5,1122.2,182.6z"/>
	<path class="st3" d="M1070.7,229.2c0,0-34.6,12.5-39.9,15.9c-5.3,3.4,0.4,81,0.6,106.2c0.1,25.2-13.8,128.5-8.4,139.4
		c5.4,10.9,70.4,16.3,86.4,15.3c16-1.1,44.1-4.2,48-10c3.8-5.9-0.8-156.4-2.7-187.9s2.3-51.1-4.5-57.1s-33.6-17.2-33.6-17.2
		s-7.7,26.9-13.5,27.3C1097.3,261.3,1070.7,229.2,1070.7,229.2z"/>
	<path class="st3" d="M1150,250.9c0,0,6.5-0.5,11,32.1c4.4,32.7,9.9,57.7,9,62.2c-0.9,4.4-19.3,7.2-19.3,7.2s-18.1-53.7-15.3-60.6
		C1138.1,284.8,1150,250.9,1150,250.9z"/>
	<path class="st1" d="M1008,339.3c0,0-5.7,26.2-3.7,35.9c2,9.7,43.4,49.3,47.8,49.7s15.9,2.4,16.9-0.1c1-2.5-28.3-45.8-30.8-56.7
		c-2.5-11-2-23.3-2-23.3L1008,339.3z"/>
	<path class="st3" d="M1030.8,245.2c0,0-9.2,4.4-15.4,20.7c-6.2,16.3-20.5,67.4-13.2,75.3c7.3,7.9,35.9,15.1,37.9,14.1
		C1042,354.2,1030.8,245.2,1030.8,245.2z"/>
	<path class="st3" d="M1035.6,420.2c5.6,0,7.5,2.3,22.6,3.2c15,0.8,20.8,0.4,22.8,2.6c2,2.1,0.5,45-3.9,48.2
		c-4.3,3.2-40.5,0.1-41.7-3.2C1031.8,461.4,1032.1,420.3,1035.6,420.2z"/>
	<path class="st6" d="M1124.1,241.7c-1.4,8.5-9.1,14.8-15.9,19.3c-0.8,0.5-0.1,1.8,0.7,1.3c7.1-4.7,15.2-11.3,16.6-20.2
		C1125.6,241.2,1124.2,240.8,1124.1,241.7z"/>
	<path class="st6" d="M1100.9,263.4c-7.3-1.9-14.4-4.7-21-8.5c-6.4-3.7-14.2-8.2-17-15.4c-0.3-0.9-1.7-0.5-1.4,0.4
		c2.7,6.9,9.4,11.3,15.5,15c7.3,4.5,15.3,7.8,23.5,10C1101.4,265.1,1101.8,263.7,1100.9,263.4z"/>
	<path class="st6" d="M1081.3,423.2c-7.4,1.5-14.5,0.7-22.1,0.2c-7.4-0.4-16.6-1.8-21.7-4.5c-0.8-0.4-1.9,0.5-1.1,1
		c6.2,3.6,13,4.2,20.1,4.8c8.5,0.7,18.3,1.3,25-0.1C1082.5,424.5,1082.2,423.1,1081.3,423.2z"/>
	<path class="st6" d="M1111.5,361.8c-0.4-15.2-1.7-30.4-3-45.5c-1.4-16.9-2.3-33.8-0.6-50.7c0.1-0.9-1.4-0.9-1.5,0
		c-3.1,30.2,2.3,60.4,3.4,90.5c1.2,30.8-0.1,61.6-1,92.4c-0.5,17.3-1,34.6-1.5,51.9c0,0.9,1.4,0.9,1.5,0c0.9-30.8,1.8-61.5,2.6-92.3
		C1111.7,392.6,1111.9,377.2,1111.5,361.8z"/>
	<path class="st6" d="M1047.6,292.7c-0.4-15-0.4-34.8-13.4-45c-0.7-0.6-1.8,0.5-1,1c13.4,10.5,12.8,31.5,13.1,46.8
		c0.4,19.8-1.5,39.5-5.4,58.8c-0.2,0.9,1.2,1.3,1.4,0.4C1046.4,334.3,1048.2,313.5,1047.6,292.7z"/>
	<path class="st6" d="M1150.6,257.1c-0.1-0.9-1.6-0.9-1.5,0c3.3,28,5.1,56.1,5.5,84.3c0,0.9,1.5,0.9,1.5,0
		C1155.7,313.3,1153.9,285.1,1150.6,257.1z"/>
	<path class="st6" d="M1111.9,289.2c-0.1-0.3-0.4-0.5-0.7-0.5c-2.3-0.1-3.1,3.1-1,4c0.3,0.1,0.7,0.1,0.9-0.1
		c0.5-0.5,0.9-1.2,0.9-1.9C1112.1,290.2,1112,289.7,1111.9,289.2z"/>
	<path class="st6" d="M1115.6,339.8c0-0.3-0.4-0.5-0.7-0.5c-0.2,0-0.5,0-0.7,0c0,0,0,0,0,0c-0.1,0-0.2,0-0.3,0
		c-0.4,0-0.7,0.3-0.7,0.7c0,0,0,0.1,0,0.1c-0.4,0.2-0.6,0.7-0.2,1.1c0.1,0.1,0.1,0.1,0.2,0.2c0,0.2,0.1,0.5,0.3,0.6
		c0.4,0.2,0.7,0.2,1,0c0,0,0,0,0,0c0,0,0.1,0,0.1-0.1c0,0,0.1-0.1,0.1-0.1C1115.4,341.5,1115.7,340.7,1115.6,339.8z"/>
	<path class="st6" d="M1116.1,399.5c0-0.1-0.1-0.2-0.1-0.3c-0.2-0.4-0.8-0.4-1.1-0.1c0,0-0.1,0.1-0.1,0.1c-0.1,0-0.2,0.1-0.4,0.1
		c-1.1,0.5-1.2,1.9-0.5,2.7c0.3,0.3,0.6,0.3,0.8,0.1c0.9,0.5,1.8-0.7,1.9-1.5C1116.7,400.2,1116.5,399.8,1116.1,399.5z"/>
	<path class="st6" d="M1114.8,461.8c0-1-0.8-1.8-1.7-1.9c-0.3,0-0.5,0.2-0.6,0.4c-0.3,0.5-0.7,1.5-0.4,2.2c0,0.1,0,0.2,0.1,0.3
		c0.5,1.1,1.9,0.8,2.5-0.1c0.1,0,0.1-0.1,0.2-0.1C1115,462.4,1115,462.1,1114.8,461.8z"/>
	<path class="st6" d="M1110.4,515.7c-5.1,4.6-9.9,9.6-14.1,15c-0.6,0.7,0.4,1.8,1,1c4.3-5.4,9-10.4,14.1-15
		C1112.1,516.1,1111.1,515.1,1110.4,515.7z"/>
</g>
<g>
	<path class="st7" d="M626.3,753.2c0,0,1.7,20.5,1.2,25c-0.3,3.3,18.4,3.3,18.8-1.3c0.5-4.8,1-25.7,1-25.7L626.3,753.2z"/>
	<path class="st2" d="M646.9,772.5c0,0-4.2,4.6-10.3,5.1s-9.5,0-9.5,0s-0.5-0.2-1,0.1c-2.7,1.8-8.4,8-13.8,11.8
		c-5.8,4.1-12.5,7.9-10.9,14.7c0.8,3.3,10.1,5,15.1,5.2c4.9,0.2,28.5-4.4,33.4-8.5s-1-23.3-2.3-28.1
		C647.5,772.2,646.9,772.5,646.9,772.5z"/>
	<path class="st8" d="M586.6,495.6c0,0,21.9,173.9,24.7,193.8c2.9,19.9,5.3,64.2,10.4,71.3c5.1,7.1,25.4,3.3,31.1,1.6
		s4.7-192.9,1.5-234.6c-3.2-41.7-5.1-46-5.1-46L586.6,495.6z"/>
	<path class="st7" d="M539.4,753.9c0,0,1.7,20.5,1.2,25c-0.3,3.3,18.4,3.3,18.8-1.3c0.5-4.8,1-25.7,1-25.7L539.4,753.9z"/>
	<path class="st8" d="M528.1,484.3c0,0,0.7,150.7,1.2,186.1c0.3,18.3,1.5,86.7,6.1,89.8c4.6,3.1,9.5,2.7,18.5,3.2
		c9,0.5,11.8-0.1,15.2-8.1c3.5-8,7.1-58.6,11.6-96.9c4.5-38.3,12.8-152.5,12.8-152.5L528.1,484.3z"/>
	<path class="st7" d="M556.7,156c-4.3,5.6-7.3,7.2-8.6,18.2c-1.3,10.7,1,24.5,2.2,29.8c2.9,12,12.4,24.1,15.5,24
		c7.9,0,30.3-12.1,32.8-15c2.4-2.9,5.9-19.2,6.6-30.7s2.5-20.1-7.7-30.5C588.1,142.2,567.8,141.7,556.7,156z"/>
	<path class="st7" d="M628.6,250.7L571,288.8l-23-34.4c0,0,19-10.3,19.8-16c0-0.1,0-0.1,0-0.2c0.1-1.7-0.1-4.3-0.6-7.1
		c-0.1-0.7-0.2-1.3-0.4-2c-0.1-0.4-0.1-0.7-0.2-1.1c-0.5-2.6-1.1-5.2-1.5-7.2c-0.6-2.5-1.1-4.3-1.1-4.3l33.8-13.9
		c0,0,0.3,5.9,0.8,12.6c0.1,0.7,0.1,1.4,0.2,2.1c0.7,7.4,1.8,15.2,3.5,17.3C606,238.8,628.6,250.7,628.6,250.7z"/>
	<path class="st1" d="M583.6,229.1c-3.1,3.6-8.1,4-11.5,6.8c-1.2,1-3.4,1.9-4.1,2.5c0-0.1,0-0.1,0-0.2c0.2-1.7-0.1-4.3-0.6-7.1
		c-0.1-0.7-0.2-1.3-0.4-2c-0.1-0.4-0.1-0.8-0.2-1.1c0,0,0,0,0,0c0.6-0.2,13.3-4.4,16.3-4.8C586.1,222.7,586.7,225.5,583.6,229.1z"/>
	<path class="st8" d="M561,246.1c0,0-36.7,11.8-39.7,14.7c-3,3,4.5,91.2,4.1,103.9c-0.6,15.9-3,82.6-1.5,134.2
		c0.1,3.5,41.7,17.2,64.6,16.4c22.9-0.7,60-16,66.1-22.7c3-3.3-2.5-39.3-3.4-89c-0.9-51.2,0.4-110.7,1.7-117.5
		c2.6-13.4-13.3-32.2-14.6-33.2c-1.4-1-19.3-7.5-19.3-7.5s-38.9,28.5-41.6,28.9C574.7,274.7,561,246.1,561,246.1z"/>
	<path class="st9" d="M583.8,375.6c-0.9-13.8-2.6-27.5-4.2-41.3c-1.8-15.3-3.2-30.6-2.2-46c0.1-0.8-1.3-0.8-1.3,0
		c-1.8,27.5,4,54.7,6.1,82.1c2.1,27.9,1.9,55.9,2.1,83.9c0.1,15.7,0.3,31.4,0.4,47.2c0,0.9,1.3,0.8,1.3,0c-0.2-28-0.3-55.9-0.7-83.9
		C585,403.5,584.7,389.5,583.8,375.6z"/>
	<path class="st9" d="M581.7,309.7c-0.1-0.3-0.4-0.5-0.7-0.5c-2.1,0-2.8,2.9-0.8,3.7c0.3,0.1,0.6,0.1,0.8-0.1
		c0.4-0.5,0.8-1.1,0.8-1.7C581.9,310.6,581.9,310.1,581.7,309.7z"/>
	<path class="st9" d="M586.7,355.5c0-0.3-0.4-0.5-0.7-0.5c-0.2,0-0.4,0-0.7,0c0,0,0,0,0,0c-0.1,0-0.2,0-0.3,0
		c-0.4,0-0.6,0.3-0.6,0.7c0,0,0,0.1,0,0.1c-0.4,0.2-0.5,0.7-0.1,1c0.1,0.1,0.1,0.1,0.2,0.2c0,0.2,0.1,0.4,0.3,0.5
		c0.4,0.2,0.7,0.1,0.9,0c0,0,0,0,0,0c0,0,0,0,0.1-0.1c0,0,0.1-0.1,0.1-0.1C586.6,357,586.9,356.3,586.7,355.5z"/>
	<path class="st9" d="M589.2,409.7c0-0.1-0.1-0.2-0.1-0.3c-0.2-0.4-0.7-0.4-1-0.1c0,0-0.1,0.1-0.1,0.1c-0.1,0-0.2,0.1-0.3,0.1
		c-1,0.5-1,1.7-0.3,2.5c0.2,0.3,0.5,0.2,0.8,0.1c0.8,0.4,1.6-0.7,1.7-1.4C589.8,410.2,589.6,409.9,589.2,409.7z"/>
	<path class="st9" d="M590.1,466.3c-0.1-0.9-0.7-1.6-1.7-1.7c-0.2,0-0.4,0.2-0.6,0.3c-0.3,0.5-0.6,1.4-0.3,2c0,0.1,0,0.2,0.1,0.3
		c0.5,1,1.7,0.7,2.2-0.1c0.1,0,0.1-0.1,0.2-0.1C590.3,466.8,590.2,466.5,590.1,466.3z"/>
	<path class="st1" d="M566.1,188c0.3-0.8-1-1.2-1.3-0.4c-0.7,2-1.4,4-2,6c-0.5,1.4-1.4,3.2-1.4,4.7c-0.1,2.1,2,3.3,3.5,4.4
		c0.7,0.5,1.4-0.7,0.7-1.2c-1.3-0.9-2.8-1.7-2.7-3.5c0-0.9,0.7-2.1,0.9-3C564.5,192.7,565.3,190.4,566.1,188z"/>
	<path class="st5" d="M571.8,209.4c-3.4,1.6-5.8,1.5-9.9,1.2c-0.8,0-1,1.7-0.4,2.1c3.9,2.4,8,1.3,11-1.7
		C573,210.6,572.5,209.1,571.8,209.4z"/>
	<path d="M558.4,177.2c-1.1-0.8-3.7-0.6-7,0.7c-3.3,1.3-4.2,1.7-3.5,2.5c0.7,0.8,5.8-0.7,8.6-1.1C558.4,179,558.8,177.5,558.4,177.2
		z"/>
	<path d="M573.5,176.1c0.8-1.1,3.4-1.6,6.9-1.3c3.6,0.3,4.5,0.5,4,1.5c-0.5,1-5.8,0.9-8.6,1.3C574,177.8,573.2,176.5,573.5,176.1z"
		/>
	<path d="M598.7,213.7c0,0-0.1-0.3-0.1-0.7c-0.5-2.5-2-10.7-1.4-15c0.6-5.1,4.5-10.2,3.1-16.2c-1.4-6-4.6-5.3-6-9.6
		c-1.4-4.3-2.5-8.6-6.6-9.1c-4.1-0.5-9.5,4.6-16.3,2.8c-6.8-1.8-9.4-3-13.9-0.2c-4.4,2.7-8.6,4-8.6,4s-4.4-2.5-3.9-6.4
		s-5-23,30.6-30.7c5-1.1,8.6,5.2,12,6.2c3.4,1,7.1-1.4,13.4,0.8c6.3,2.2,8.3,2.7,9.1,9.8c0.6,5.9-0.8,7.3,1.8,12
		c2.6,4.7,2.5,14,0.1,18.9S598.7,213.7,598.7,213.7z"/>
	<path class="st7" d="M506.6,331.6c0,0-5.4,49.9-3.4,53.7c5.2,9.5,21.1,12.8,26.2-0.2c5-13,6.1-49.9,6.1-49.9L506.6,331.6z"/>
	<path class="st8" d="M521.3,260.8c0,0-12.9,0.2-17.3,61.1c-0.9,12.3,4.7,17,20.2,17c39.8-0.2,8.1-53,8.1-53l-1.8-16.7L521.3,260.8z
		"/>
	<path class="st7" d="M535.1,340.7c1.6-5.6,7.8-8.4,13.1-6.1c21.2,9.4,76.1,32.5,79.7,35.2c4.4,3.4,4.5,25.4-10.8,27.9
		c-18.1,3-76.2-40.1-81.2-47.2C533.9,347.8,534.1,344.2,535.1,340.7z"/>
	<path class="st7" d="M599.1,368.7c0.3-1,20.4-37.8,24.8-40.7c4.4-2.9,17.4,12.9,23.5,16.1s-20.2,46.8-20.2,46.8l-22.7-11.6
		L599.1,368.7z"/>
	<path class="st7" d="M557.6,346.8c0,0-8.8-7.6-11.5-13c-2.7-5.4-4.1-15.8-10.5-19.8c-6.4-4-15.2-10.9-21-3.2
		c-8.6,11.2,0.8,21.1,3.2,24.8c2.4,3.6,11.7,13,23.3,17.5C552.7,357.7,557.6,346.8,557.6,346.8z"/>
	<path class="st7" d="M625.2,341.8c0,0-13.9-7.1-24.2-6.3c-5.1,0.4-26.1,5.1-58.8,14.6c-32.7,9.5-35.4,18.2-35.4,18.2l13.7,24.9
		c0,0,86.4-34.5,86.7-40.3l19.8,17.5L625.2,341.8z"/>
	<path class="st8" d="M638.3,252.9c0,0,34.5,8.9,29.7,41.9c-5.5,37.7-10.9,50-13.6,52.6c-2.7,2.7-41.2-16.4-41.2-16.4L638.3,252.9z"
		/>
	<path class="st1" d="M563.7,344.2c-6.4,1.7-12.8,3.3-19.2,5c-0.8,0.2-0.5,1.5,0.4,1.3c6.4-1.7,12.8-3.3,19.2-5
		C565,345.2,564.6,343.9,563.7,344.2z"/>
	<path class="st1" d="M593.3,359.7c-3.7,0.4-6.9,2.6-10.2,4.2c-4.2,2.2-8.4,4.3-12.6,6.5c-0.8,0.4-0.1,1.6,0.7,1.2
		c3.4-1.8,6.9-3.5,10.3-5.3c3.6-1.9,7.7-4.7,11.8-5.2C594.2,361,594.2,359.6,593.3,359.7z"/>
	<path class="st1" d="M615.5,339c-2.7,4.6-5.3,9.2-8,13.8c-0.4,0.8,0.7,1.4,1.2,0.7c2.7-4.6,5.3-9.2,8-13.8
		C617.1,338.9,615.9,338.2,615.5,339z"/>
	<path class="st1" d="M534.7,349.2c-5.4-1.8-10.1-4.8-13.9-9c-0.6-0.6-1.5,0.3-1,1c4,4.4,8.9,7.5,14.5,9.3
		C535.1,350.8,535.5,349.5,534.7,349.2z"/>
	<path class="st9" d="M647.6,263.5c-8.8,6-14.5,15.1-18.3,24.9c-4.6,12-7.3,24.9-10.6,37.3c-0.2,0.8,1.1,1.2,1.3,0.4
		c3-11.3,5.5-22.7,9.3-33.8c3.7-10.8,9.3-21.1,19-27.6C649,264.2,648.3,263,647.6,263.5z"/>
	<path class="st9" d="M524.3,304.2c-2.6-11.7-3.6-23.6-3.2-35.6c0-0.9-1.3-0.9-1.4,0c-0.4,12.1,0.7,24.1,3.3,35.9
		C523.1,305.4,524.4,305.1,524.3,304.2z"/>
	<path class="st9" d="M571.8,285.6c-1-1-5.2-8.1-7.1-11.4c-4-7-7.7-14.3-11-21.6c-0.4-0.8-1.5-0.1-1.2,0.7
		c3.9,8.7,8.3,17.2,13.2,25.4c3.1,5.1,4.9,7.3,5.2,7.8C571.3,287,572.2,286.3,571.8,285.6z"/>
	<path class="st9" d="M582.4,284.8c1.3-0.5,8.1-5.3,11.1-7.5c6.5-4.8,23.7-18.8,29.7-24.2c0.7-0.6,1.4,0.5,0.8,1.1
		c-7.2,6.3-25.5,21.2-33.3,26.7c-4.9,3.4-7.4,4.7-7.9,5C582.3,286.3,581.7,285.2,582.4,284.8z"/>
	<path class="st9" d="M639.1,498.2c-6.9,5.2-15.2,7.4-23.6,8.9c-9.4,1.7-18.9,2.9-28.5,3.4c-18.6,1-37.4-0.6-55-6.9
		c-0.8-0.3-1.2,1-0.4,1.3c18.1,6.5,37.5,8.1,56.6,6.9c9.2-0.6,18.5-1.8,27.6-3.4c8.5-1.5,16.9-3.8,23.9-9.1
		C640.5,498.8,639.8,497.7,639.1,498.2z"/>
	<path class="st9" d="M590.6,529.9c-4.3-4.3-8.6-8.7-12.7-13.1c-0.6-0.6-1.6,0.3-1,1c4.2,4.4,8.4,8.8,12.7,13.1
		C590.3,531.4,591.2,530.5,590.6,529.9z"/>
</g>
<g>
	<g>
		<path class="st10" d="M663.9,467.5c0,0-1.4,15,2.2,26.2c3.6,11.2,8.7,17,11.5,16.7c2.9-0.3,5-2.7,5.7-6.7c0.7-4-1.2-30.9-4.2-36.7
			c-3-5.7-8-6.2-8-6.2L663.9,467.5z"/>
		<path class="st10" d="M654.9,332.1c0,1.5-4.6,43.4-3.5,53.4c1,10,11,78.1,12.5,82.1c1.5,4,4.5,3.8,10.5,2
			c3.5-1.1,7.6-42.3,5.8-69.4s0-66,0-66L654.9,332.1z"/>
		<path class="st3" d="M675.3,242.4c0,0-8,1.9-14.5,20.8c-6.5,18.9-19,82.8-17.5,89.3c1.5,6.5,2.9,6.8,15.9,8.2
			c13,1.3,20.9,0,20.9,0l18.6-76.9L675.3,242.4z"/>
		<path class="st10" d="M711.5,754.2c0,0,1.8,21.9,1.3,26.6c-0.4,3.5,19.6,3.6,20.1-1.4c0.5-5.1,1-27.4,1-27.4L711.5,754.2z"/>
		<path class="st10" d="M829,469.3c0,0,1.4,15-2.2,26.2c-3.6,11.2-8.7,17-11.5,16.7c-2.9-0.3-5-2.7-5.7-6.7
			c-0.7-4,1.2-30.9,4.2-36.7c3-5.7,8-6.2,8-6.2L829,469.3z"/>
		<path class="st10" d="M838,333.8c0,1.5,4.6,43.4,3.5,53.4c-1,10-11,78.1-12.5,82.1c-1.5,4-4.5,3.8-10.5,2
			c-3.5-1.1-7.6-42.3-5.8-69.4c1.8-27.1,0-66,0-66L838,333.8z"/>
		<path class="st11" d="M716.9,161.9c0,2-3.7,9.1-5.5,17c-1.8,7.9,2.1,11.4,2.7,17.1c0.6,5.7-4.9,8.1-8.4,16.3s-2.9,19.5,1,23.2
			c3.9,3.7,57.6,21.6,71.3,18.7c13.6-2.9,12-26.5,9-37.1c-3.1-10.6,1.8-12.2-1.1-21.6c-1.6-5.1-4.6-8.2-8.8-15.6
			c-4.2-7.4-2.5-20.8-2.5-20.8L716.9,161.9z"/>
		<path class="st10" d="M786.9,233.1l-35.2,44.5l-45-44.5c0,0,12.8-8.8,18.1-16.1c2.4-3.4,3-9.7,2.9-15.5
			c-0.1-6.8-1.1-12.9-1.1-12.9l37.7,0.9c0,0-0.8,6.8-0.7,13.8v0c0.1,4,0.5,8,1.5,10.9C768.4,223.4,786.9,233.1,786.9,233.1z"/>
		<path class="st12" d="M763.7,203.3L763.7,203.3c-6.4,4.3-14.6,9.3-18.3,9c-4.3-0.3-12.4-6.4-17.6-10.8c-0.1-6.8-1.1-12.9-1.1-12.9
			l37.7,0.9C764.3,189.5,763.5,196.3,763.7,203.3z"/>
		<path class="st10" d="M768.7,186.7c-5,10.4-19,17.5-22.6,17.5c-3.4,0-19.4-8.2-23.8-17.5c-2.3-5-6.5-30.7-8.5-46.3
			c-0.9-7.3,3.1-14.3,9.8-17.3c6.9-3.1,15.4-6.4,21.1-6.9c10.9-0.9,28.8,5.9,32.2,14.5C777.9,133.3,770.4,183.3,768.7,186.7z"/>
		<path class="st10" d="M716.5,151.8c0,0-6.6,0.8-4.7,11.9s8.3,12.9,8.3,12.9l-1.6-19.2L716.5,151.8z"/>
		<path class="st10" d="M773.9,151.3c0,0,6.6,0.8,4.7,11.9c-1.9,11.1-7.9,12.8-7.9,12.8l1.2-19L773.9,151.3z"/>
		<path class="st11" d="M714.3,150.1c1.4,2.5,5.1,3.2,8.2-2.1c2.1-3.6,0.4-9.3,5.8-9.9c4.8-0.5,7.6,6,16.3,5.8c8.7-0.1,8-3.5,12-2.9
			c5.1,0.9,2.6,10.2,10.3,11.3c7.7,1.1,8.8-1,8.8-1s2.9-4,0.5-9c-2.4-5-7.8-4.8-12.6-8c-4.8-3.3-10.1-10.2-18.2-8.2
			c-8.1,2-10.5,4-18.6,5.4C711.9,134.2,712.8,147.6,714.3,150.1z"/>
		<path class="st13" d="M735.8,153.2c-0.2-0.1-3.2-1.4-7.4,0.8c-4.2,2.2-4.5,3.3-2,2.9c2.5-0.5,7.9-0.5,9.3-1.6
			C737.1,154.1,736.2,153.4,735.8,153.2z"/>
		<path class="st13" d="M755.7,153.5c0.2-0.1,3.1-1.6,7.4,0.5c4.3,2,4.7,3.1,2.2,2.8s-7.9-0.1-9.4-1.2
			C754.4,154.5,755.2,153.7,755.7,153.5z"/>
		<path class="st3" d="M718.4,223.8c0,0-42.6,17-46,20.4c-3.5,3.4,0.8,81.3,3,97.9c3.7,28,0.3,101,5.1,106c4.8,5,51.6,16,69.6,14
			c18-2,63.7-12,65.7-16s2.7-54.2,2.7-73.4s-5.4-98.1-3.4-109.6c2-11.5,5-14.3,2.5-18.9c-2.5-4.6-42-18.3-42-18.3
			s-26.2,28.7-28.7,28.7C744.3,254.6,718.4,223.8,718.4,223.8z"/>
		<path class="st3" d="M685.6,433.1c0,0-2.2,51.1,0,130.4c2.2,79.3,16,169.9,16.6,184.1c0.6,14.2,9.5,18.1,20.8,15.4
			c11.2-2.7,13.7-0.9,17.7-6.2c4-5.2,0.5-78.8,2-125.2c1.5-46.4,0.9-111.5,7.4-128.7c6.5-17.2,17.1-56.9,17.1-56.9L685.6,433.1z"/>
		<path class="st10" d="M782.1,752.2c0,0-1.8,22.9-1.3,27.7c0.4,3.5-19.6,3.6-20.1-1.4c-0.5-5.1-1-28.4-1-28.4L782.1,752.2z"/>
		<path class="st3" d="M811.7,433.1c0,0,2.2,51.1,0,130.4s-16,169.9-16.6,184.1c-0.6,14.2-9.5,18.1-20.8,15.4
			c-11.3-2.7-17.4-1.2-21.4-6.4c-4-5.2,2.8-77.6,1.3-124s-0.5-112.5-7-129.7C740.6,485.7,730,446,730,446L811.7,433.1z"/>
		<path class="st3" d="M817.5,244.2c0,0,8,1.9,14.5,20.8c6.5,18.9,19,82.8,17.5,89.3c-1.5,6.5-2.9,6.8-15.9,8.2
			c-13,1.3-20.9,0-20.9,0l-18.6-76.9L817.5,244.2z"/>
		<path class="st12" d="M748.1,164.5c-0.1-0.9-1.6-1-1.5,0c0.2,1.6,0.6,3.1,1.3,4.6c0.4,0.9,1,1.9,1.2,2.9c0.1,0.8-0.4,3.6-1.4,4.4
			c-0.2,0.1-0.3,0.2-0.4,0.5c0,0,0,0,0,0.1c-0.2,0.6,0.6,1.2,1.1,0.8c1.3-0.9,2.3-3.2,2.3-4.7C750.7,170.1,748.4,167.5,748.1,164.5z
			"/>
		<path class="st6" d="M782.1,235.1c-4.8,6.2-10,12-15.6,17.5c-2.9,2.8-5.8,5.5-8.9,8.1c-3.2,2.7-6.8,6.3-10.9,7.5
			c-5.4,1.5-8.1-2.4-11-6.2c-2.7-3.5-5.3-6.9-8-10.4c-5.3-6.9-10.7-13.8-16-20.7c-0.6-0.8-1.6,0.3-1.1,1.1
			c6.2,8.1,12.5,16.1,18.7,24.2c2.8,3.6,5.4,7.6,8.6,11c2,2.2,4.5,3.3,7.5,2.9c3.2-0.4,6.1-2.5,8.6-4.4c3.6-2.8,6.9-5.7,10.2-8.8
			c6.9-6.4,13.2-13.3,19-20.7C783.8,235.4,782.7,234.4,782.1,235.1z"/>
		<path class="st6" d="M820.4,247.6c-4.6,5.4-6.2,12.1-6.5,19c-0.4,9.1,0.5,18.3,0.8,27.3c0.7,20.5,0.9,41.1,0.7,61.6
			c0,1,1.5,1,1.5,0c0.2-19.1,0-38.1-0.6-57.2c-0.3-8.9-0.8-17.7-1-26.6c-0.1-8.1,0.6-16.7,6.1-23.1
			C822.1,247.9,821.1,246.9,820.4,247.6z"/>
		<path class="st6" d="M672.5,245.9c4.6,5.4,6.2,12.1,6.5,19c0.4,9.1-0.5,18.3-0.8,27.3c-0.7,20.5-0.9,41.1-0.7,61.6
			c0,1-1.5,1-1.5,0c-0.2-19.1,0-38.1,0.6-57.2c0.3-8.9,0.8-17.7,1-26.6c0.1-8.1-0.6-16.7-6.1-23.1
			C670.8,246.2,671.8,245.1,672.5,245.9z"/>
		<path class="st6" d="M801.6,292.1c-4.8,9.5-7.3,19.9-10.1,30.1c-3.1,11.1-7.4,21.5-13.1,31.5c-11.3,19.8-25.4,38.1-41.2,54.6
			c-0.7,0.7,0.4,1.8,1.1,1.1c15.6-16.2,29.4-34.2,40.7-53.7c5.5-9.5,9.9-19.4,13-29.9c3.3-11.1,5.7-22.5,10.9-32.9
			C803.3,292,802,291.2,801.6,292.1z"/>
		<path class="st6" d="M718.3,427.5c-3,3.8-6.9,6.6-11.6,8.1c-0.9,0.3-0.5,1.7,0.4,1.4c4.9-1.6,9.1-4.5,12.2-8.5
			C719.9,427.8,718.9,426.8,718.3,427.5z"/>
		<path class="st6" d="M801.5,453.4c-35.5,13-74.8,13.8-110.8,2c-0.9-0.3-1.3,1.1-0.4,1.4c36.2,11.9,75.8,11.2,111.6-2
			C802.8,454.5,802.4,453.1,801.5,453.4z"/>
		<path class="st6" d="M1148.5,499c-35.9,11.9-78.1,10.6-113.6-2.4c-0.9-0.3-1.3,1.1-0.4,1.4c35.8,13,78.3,14.4,114.4,2.4
			C1149.8,500.2,1149.4,498.7,1148.5,499z"/>
		<path class="st6" d="M772.5,473.5c-4.3,3.9-7.6,8.8-11,13.4l-12.3,16.8c-0.6,0.8,0.7,1.5,1.3,0.8c3.8-5.2,7.6-10.4,11.4-15.6
			c3.6-4.9,7-10.1,11.6-14.3C774.3,473.9,773.2,472.8,772.5,473.5z"/>
		<path class="st5" d="M739.5,185.8c0.5-1.4,4.3,0.7,7.5,0.5c3.2-0.2,6.9-1.9,7.3-0.8c0.4,1.1-3.6,4.8-7.6,4.7
			C742.7,190.2,739.1,187,739.5,185.8z"/>
	</g>
	<path class="st11" d="M775.5,145.9c0,0,3.3-9.4,2.3-15.7c-1-6.3-6.2-11.6-9.7-12.1c-3.4-0.6-4.7-7.6-15.6-8.8
		c-10.9-1.2-14.4,3-16.9,4.4c-2.5,1.3-7.6-1.3-13.4,2s-5.6,7-8.1,10.6c-2.5,3.6-4,13.3,0.4,18.9c4.5,5.6,4.5-9.8,10.9-12.7
		c6.4-3,33.2-0.8,35.9,2.8s7.4,12.1,10.1,11.6C774,146.3,775.5,145.9,775.5,145.9z"/>
</g>
<g>
	<g>
		<path class="st12" d="M854,751.8c0,0-2.8,22.9-1.5,26.1c1.3,3.2,11.3,6.6,15.8,4.8c4.5-1.7,7.4-28.3,7.4-28.3L854,751.8z"/>
		<path class="st2" d="M872.8,774.8c0,0-3.1,3.7-11.1,2.6c-7.8-1.1-9.4-4.7-9.4-4.7s-0.7-3.3-2.9-2.5c-2.2,0.8-9,10.9-11.7,13
			c-2.6,2.1-17.4,10.1-18.4,12.3c-1,2.2-0.6,8.5,0.7,9.2c13.1,7.5,36.3-0.2,45.8-0.7c9.5-0.5,9.2-8.5,9-18.3
			C874.6,775.9,872.8,774.8,872.8,774.8z"/>
		<path class="st2" d="M760.2,775c0,0,2.8,3.7,10.5,2.9c7.5-0.8,9.2-4.2,9.2-4.2s0.8-3.1,2.8-2.3c2.1,0.8,8.3,10.7,10.7,12.8
			c2.4,2.1,16.3,10.2,17.2,12.3c0.9,2.1,0.4,8.3-0.9,8.8c-15.3,5.1-34.6-1.4-43.6-2.2c-9-0.8-8.5-8.4-8-17.8
			C758.5,776,760.2,775,760.2,775z"/>
		<path class="st2" d="M733.7,776.5c0,0-2.8,3.7-10.5,2.9c-7.5-0.8-9.2-4.2-9.2-4.2s-0.8-3.1-2.8-2.3c-2.1,0.8-8.3,10.7-10.7,12.8
			c-2.4,2.1-16.3,10.2-17.2,12.3c-0.9,2.1-0.4,8.3,0.9,8.8c13.7,4.7,34.6-1.4,43.6-2.2c9-0.8,8.5-8.4,8-17.8
			C735.4,777.5,733.7,776.5,733.7,776.5z"/>
		<path class="st2" d="M560.7,774.2c0,0-3,3.6-10.5,2.5c-7.5-1-9-4.5-9-4.5s-0.7-3.2-2.8-2.4c-2.1,0.8-8.6,10.4-11.1,12.4
			c-2.5,2-19.9,10.6-20.8,12.8c-0.9,2.1-0.8,8.4,0.6,8.8c16.5,5.2,34.6-0.3,46.9-1.7c9.4-1,8.8-8.1,8.7-17.5
			C562.4,775.2,560.7,774.2,560.7,774.2z"/>
		<path class="st12" d="M987.7,751.8c0,0,2.8,22.9,1.5,26.1c-1.3,3.2-11.3,6.6-15.8,4.8c-4.5-1.7-7.4-28.3-7.4-28.3L987.7,751.8z"/>
		<path class="st2" d="M968.9,774.8c0,0,3.1,3.7,11.1,2.6c7.8-1.1,9.4-4.7,9.4-4.7s0.7-3.3,2.9-2.5c2.2,0.8,9,10.9,11.7,13
			c2.6,2.1,17.4,10.1,18.4,12.3c1,2.2,0.7,8.6-0.7,9.2c-13.2,6.4-36.3-0.2-45.8-0.7c-9.5-0.5-9.2-8.5-9-18.3
			S968.9,774.8,968.9,774.8z"/>
		<path class="st8" d="M852.9,442.4c0,0-5.7,152.8-5.7,189.3c0,19.8-1.5,73.2-1.5,99.4s-8,28.5,9.5,31.7c17.4,3.2,32.6-3,33.4-9.7
			c0.8-6.7,14-83.8,16.4-112.8c2.4-29.1,10.6-81.2,12.5-96.2c3.6-28,17.5-77.7,17.5-77.7L852.9,442.4z"/>
		<path class="st12" d="M957.3,229.3L921,261.7l-38.3-31.5c0,0,14.6-12.6,16.8-23.3c0.7-3.1,0.9-6.1,0.9-8.8
			c0-6.4-1.3-10.8-1.3-11.3l39.7-0.7c0,0,0,5.3,0.7,12.7c0.2,2.3,0.5,4.7,0.9,7.3C942,217.2,957.3,229.3,957.3,229.3z"/>
		<path class="st7" d="M939.4,198.8c-6.4,5.3-13.4,12-21,12.2c-6.7,0.1-13.3-8.5-18.2-12.8c0-6.4-1.3-10.8-1.3-11.3l39.7-0.7
			C938.7,186.1,938.7,191.3,939.4,198.8z"/>
		<path class="st12" d="M944,180.9c-3.2,9.3-16.5,20.7-24.3,20.8c-5.1,0-20.8-9.3-24.6-21.4c-2-6.4-5.8-51.9-5.8-51.9
			s19.1-12,28.7-13c9.6-1,29.1,10.7,29.4,13.5C947.7,131.3,945.2,177.4,944,180.9z"/>
		<path class="st12" d="M890.9,144.2c0,0-5.6,0.8-3.8,10.2c1.8,9.4,6,13.8,6,13.8l-0.4-19.2L890.9,144.2z"/>
		<path class="st12" d="M946.5,145c0,0,5.6,0.6,4.2,10c-1.4,9.5-5.4,14-5.4,14l-0.4-19.2L946.5,145z"/>
		<path class="st1" d="M926.6,146.1c1.5-1.2,4.2-1.5,8.1-1.1c3.9,0.3,5.8,1.8,5.1,2.4c-0.6,0.7-11.3,1-12.4,0.2
			C926.2,146.8,926.3,146.3,926.6,146.1z"/>
		<path class="st1" d="M910,145.9c-1.6-1.1-4.3-1.1-8.1-0.4c-3.9,0.7-5.6,2.3-4.9,2.9c0.7,0.6,11.3,0,12.4-0.9
			C910.5,146.6,910.4,146.2,910,145.9z"/>
		<path class="st5" d="M910.8,179.8c0.5-1.5,4.5-0.3,9-1c4.6-0.7,7.3-1.4,8-0.3c0.7,1.1-2.7,5.8-8.4,6.3
			C913.8,185.4,910.4,181.1,910.8,179.8z"/>
		<path class="st1" d="M890.6,144.2c0,0,3.1-2,7.9-10.9c4.8-8.9,9.3-7.6,18.6-4c9.3,3.6,7.7,1.4,17.5,2.5c9.8,1,12.2,13.8,12.2,13.8
			s11.7-2.4,10.4-12.5c-1.3-10.1-3.9-12.1-8-15.3c-4.1-3.2-2.5-9.1-9.4-13c-4.8-2.6-8.9-1.5-15.9-1c-6.9,0.5-12.2-7.3-22.8-2.3
			c-10.6,5-15.3,13.3-14.7,19c0.6,5.7-3.3,12.5-1.3,18C887,144.1,890.6,144.2,890.6,144.2z"/>
		<path class="st7" d="M918.8,157c0.4-0.8-0.9-1.6-1.3-0.7c-1.2,2.7-3.2,6.2-3.4,9.2c-0.2,2.2,1.6,4.1,3,5.6c0.7,0.7,1.7-0.4,1-1
			c-1.9-2-2.9-3.9-1.9-6.6C917,161.2,917.9,159.1,918.8,157z"/>
		<path class="st8" d="M988,466.1c-4.8-0.4-46.8,12-64.6,12.6c-17.8,0.6-75-13.3-75.1-20c-0.1-6.7-1.9-77.5-2.7-91.5
			c-0.7-14.1-4.4-109.3-1.8-118.2c1-3.6,26.4-16.8,39.5-23.5c0.9-0.5,1.8-0.9,2.5-1.3c3.2-1.6,5.2-2.6,5.2-2.6s21.7,24.2,28,23.9
			c6.4-0.4,31-22.9,31-22.9s3,1.5,7.3,3.8c0.8,0.5,1.7,0.9,2.6,1.4c11.3,6,28.3,15.6,30.3,19.7c3,6.3-3,91.9,0.7,112.8
			C993.3,372.8,998.8,467,988,466.1z"/>
		<path class="st8" d="M987.4,447.2c0,0,4.3,61.4,7.1,106.5c5.3,85.8,2.2,198.3,1.7,204.1c-0.7,8.9-32,11.5-37.8,9.8
			c-5.8-1.7-4.9-22-9-43.9c-4.1-21.8-30.2-198.9-30.2-198.9v-60.8c0,0,10.9-23.2,21.4-21.7C951.1,444,987.4,447.2,987.4,447.2z"/>
		<path class="st12" d="M830.2,340.3c0.1,1.8,2.7,42.3,5.5,50.1c3.1,8.7,52.7,63.4,61.5,70.3c8.8,6.9,15.2-7.1,15.3-10
			c0.2-2.9-45.8-70.4-46.1-76.4c-0.3-6-1.1-37.8-1.1-37.8L830.2,340.3z"/>
		<path class="st12" d="M1008.2,341.6c-0.1,1.8,1.9,35.4-5.9,49.3c-6.7,11.9-55,62.7-64,69.4c-9,6.7-15-7.4-15.1-10.3
			c-0.1-2.9,47.4-69.3,47.9-75.3c0.5-6,2-37.7,2-37.7L1008.2,341.6z"/>
		<path class="st8" d="M845.2,247.2c0,0-9.9,8.3-12.1,18.8c-1.4,6.7-14.5,71.5-11,75.5c3.5,4,53.2,6.6,53.2,6.6s-9.3-62.3-9.4-66.2
			C865.8,277.8,845.2,247.2,845.2,247.2z"/>
		<path class="st8" d="M987.4,244.2c0,0,16.7,11.8,20.4,32.7c3.6,20.9,6.9,62.2,1.5,66.6c-5.5,4.4-46.5,1.9-46.5,1.9L987.4,244.2z"
			/>
		<path class="st12" d="M923.2,450c0,0-12,5.6-15.9,10.3c-4,4.8-8.1,12.1-4.3,16.2c3.8,4.1,17.6,4.6,25.3,2.2
			c7.8-2.4,10-18.4,10-18.4L923.2,450z"/>
		<path class="st12" d="M911.5,448.1c0,0,11.4,7.4,15.4,12.2c4,4.8,8.1,12.1,4.3,16.2c-3.8,4.1-17.6,4.6-25.3,2.2
			c-7.8-2.4-10.8-20-10.8-20L911.5,448.1z"/>
		<path class="st9" d="M953.7,231.1c-5.4,4.6-11,9.1-16.7,13.3c-2.9,2.2-5.8,4.3-8.7,6.3c-2.9,2-6.1,4.5-9.8,4.5
			c-3.5-0.1-6.7-2.4-9.5-4.4c-3-2.1-5.8-4.3-8.5-6.7c-4.8-4.3-9.2-9.2-13-14.4c-0.5-0.7-1.8,0-1.3,0.7c4.3,5.8,9.1,11.2,14.6,15.9
			c4.5,3.9,10.3,9.4,16.4,10.2c6.8,0.9,13.3-5.6,18.3-9.3c6.6-4.8,12.9-9.9,19.1-15.2C955.4,231.5,954.4,230.5,953.7,231.1z"/>
		<path class="st9" d="M872.8,312.8c-0.3-8.4-0.3-16.9-1.5-25.2c-2.1-14.7-9.3-28.1-20.6-37.8c-0.7-0.6-1.7,0.4-1,1
			c11.8,10.2,18.8,24.1,20.5,39.6c1.9,16.5,1.5,33.5,2,50.1c0,0.9,1.5,0.9,1.5,0C873.4,331.3,873.1,322.1,872.8,312.8z"/>
		<path class="st9" d="M982.8,249.4c-8.7,10.7-11.1,26.3-13.3,39.5c-2.6,15.3-3.5,30.8-2.9,46.3c0,0.9,1.5,0.9,1.5,0
			c-0.6-14.9,0.2-29.8,2.6-44.5c1.1-7,2.6-14,4.5-20.9c1.8-6.9,4.1-13.7,8.7-19.3C984.4,249.7,983.4,248.7,982.8,249.4z"/>
		<path class="st9" d="M954.4,309.3C946.6,347,934,383.6,917,418.1c-0.4,0.8,0.8,1.6,1.3,0.7c17.1-34.6,29.7-71.3,37.5-109.1
			C956,308.8,954.6,308.4,954.4,309.3z"/>
		<path class="st9" d="M894.3,478.7c-12.3-2.1-24.4-5.6-36-10.3c-0.9-0.4-1.2,1.1-0.4,1.4c11.6,4.7,23.6,8.2,36,10.3
			C894.8,480.2,895.2,478.8,894.3,478.7z"/>
		<path class="st9" d="M977.9,470.4c-12.9,5.1-26.7,6.9-40.3,9.3c-0.9,0.2-0.5,1.6,0.4,1.4c13.6-2.3,27.4-4.2,40.3-9.3
			C979.1,471.5,978.7,470.1,977.9,470.4z"/>
		<path class="st9" d="M941.8,503.8c-7.1,5.1-14,10.6-20.7,16.4c-0.7,0.6,0.3,1.6,1,1c6.5-5.7,13.3-11.1,20.4-16.1
			C943.3,504.5,942.6,503.3,941.8,503.8z"/>
		<path class="st7" d="M917.1,452.6c-6.7,4.2-11.9,10.2-15.1,17.5c-0.4,0.8,0.9,1.6,1.3,0.7c3.1-7.1,8-12.9,14.6-17
			C918.6,453.4,917.9,452.1,917.1,452.6z"/>
	</g>
</g>
<g>
	<path d="M729.5,162.8c-0.1-2.8,1-3.9,2.1-4c1.1,0,1.9,1,2,3.8c0.1,2.8-0.8,3.9-1.9,3.9S729.7,165.6,729.5,162.8z"/>
</g>
<g>
	<path d="M758.1,162.6c0-2.8,1-3.7,2.1-3.7c1.1,0,1.9,0.8,2,3.6c0,2.8-0.9,4-2,4C759,166.6,758.2,165.5,758.1,162.6z"/>
</g>
<g>
	<path d="M553.6,186.5c-0.4-2.4,0.5-3.5,1.5-3.7c1-0.1,1.7,0.7,2.1,3.1c0.4,2.4-0.3,3.5-1.3,3.6C554.9,189.7,554,188.9,553.6,186.5z
		"/>
</g>
<g>
	<path d="M576.6,184.4c0-2.6,0.9-3.4,2-3.4c1,0,1.8,0.8,1.8,3.4c0,2.6-0.8,3.6-1.9,3.7C577.4,188,576.6,187,576.6,184.4z"/>
</g>
<g>
	<path d="M902,156.4c-0.1-2.8,1-3.9,2.1-4c1.1,0,1.9,1,2,3.8c0.1,2.8-0.8,3.9-1.9,3.9C903.1,160.2,902.1,159.2,902,156.4z"/>
</g>
<g>
	<path d="M931,156c0-2.8,1-3.7,2.1-3.7c1.1,0,1.9,0.8,2,3.6c0,2.8-0.9,4-2,4C931.9,159.9,931.1,158.8,931,156z"/>
</g>
<g>
	<path d="M1124.5,173.7c-0.2-2.6,0.7-3.5,1.8-3.6c1.1-0.1,1.9,0.7,2,3.3c0.2,2.6-0.6,3.8-1.7,3.8
		C1125.6,177.4,1124.7,176.4,1124.5,173.7z"/>
</g>
<g>
	<path d="M1103,175.1c-0.2-2.6,0.8-3.7,1.8-3.8c1.1-0.1,1.8,0.9,2,3.5c0.2,2.6-0.6,3.7-1.6,3.8
		C1104.1,178.7,1103.2,177.8,1103,175.1z"/>
</g>
<g>
	<path class="st2" d="M1180.4,803.5c-1.1-0.8-2-0.7-0.6,0.6s9.7,8.8,11.6,10.5c1.9,1.7,3,0.5,0.9-1.3S1180.4,803.5,1180.4,803.5z"/>
	<path class="st2" d="M1176.7,805.9c-0.4-1-1-1.3-0.6,0.2c0.4,1.5,3.1,9.8,3.7,11.6c0.6,1.9,1.9,1.5,1.1-0.5
		C1180.2,815.2,1176.7,805.9,1176.7,805.9z"/>
	<path class="st2" d="M1184.5,794.7c-1.5,0-1.3-0.6,0-0.7s8.6-0.6,11.2-0.7s2.7,1,0,1.1C1193,794.5,1184.5,794.7,1184.5,794.7z"/>
	<path class="st2" d="M1183.5,800.2c-2.6-0.8-2.1-1.7,0.4-1.2c2.5,0.5,15.3,3.5,20,4.5c4.7,1.1,4.3,3.1-0.6,2
		C1198.5,804.4,1183.5,800.2,1183.5,800.2z"/>
</g>
<g>
	<path class="st2" d="M498.2,809.5c1.1-0.7,2-0.6,0.5,0.7c-1.5,1.2-10.4,8-12.4,9.5c-2,1.5-3,0.2-0.8-1.4
		C487.7,816.6,498.2,809.5,498.2,809.5z"/>
	<path class="st2" d="M501.7,812.1c0.5-0.9,1.2-1.2,0.6,0.3c-0.5,1.4-3.9,9.5-4.6,11.3c-0.8,1.8-2,1.3-1.1-0.6
		C497.5,821.1,501.7,812.1,501.7,812.1z"/>
	<path class="st2" d="M494.9,800.3c1.5,0.1,1.4-0.5,0-0.7c-1.4-0.2-8.5-1.3-11.1-1.7c-2.6-0.4-2.8,0.7-0.1,1.1
		C486.5,799.5,494.9,800.3,494.9,800.3z"/>
	<path class="st2" d="M495.4,805.9c2.7-0.5,2.2-1.6-0.3-1.2c-2.5,0.3-15.5,2.2-20.3,2.9c-4.8,0.7-4.5,2.8,0.4,2
		C480.1,808.8,495.4,805.9,495.4,805.9z"/>
</g>
<g>
	<path class="st2" d="M802.2,820.9c0.4-1.4,1.3-1.9,0.9,0.2s-2.8,13.9-3.4,16.6c-0.6,2.6-2.3,2.3-1.7-0.5
		C798.8,834.3,802.2,820.9,802.2,820.9z"/>
	<path class="st2" d="M781.9,819.3c0.9-1,1.8-1.1,0.7,0.5c-1.1,1.6-7.7,10.3-9.1,12.3c-1.5,2-2.8,1-1.2-1.1
		C774,828.9,781.9,819.3,781.9,819.3z"/>
	<path class="st2" d="M791.5,822c1-2.5-0.1-2.6-1.2-0.4c-1,2.2-6.3,13.8-8.3,18c-1.9,4.3-0.1,5.1,1.9,0.7
		C786,836,791.5,822,791.5,822z"/>
	<path class="st2" d="M826.7,821.1c-0.4-1.4-1.3-1.9-0.9,0.2c0.4,2.1,2.8,13.9,3.4,16.6c0.6,2.6,2.3,2.3,1.7-0.5
		C830.1,834.4,826.7,821.1,826.7,821.1z"/>
	<path class="st2" d="M847,819.5c-0.9-1-1.8-1.1-0.7,0.5c1.1,1.6,7.7,10.3,9.1,12.3c1.5,2,2.8,1,1.2-1.1S847,819.5,847,819.5z"/>
	<path class="st2" d="M837.3,822.2c-1-2.5,0.1-2.6,1.2-0.4c1,2.2,6.3,13.8,8.3,18c1.9,4.3,0.1,5.1-1.9,0.7S837.3,822.2,837.3,822.2z
		"/>
	<path class="st2" d="M814.9,818.7c0-3-1.2-2.7-1.4,0c-0.2,2.7-1.1,17-1.4,22.2c-0.3,5.3,2,5.4,2.3,0
		C814.7,835.6,814.9,818.7,814.9,818.7z"/>
</g>
<polygon class="st9" points="951.4,294.9 938.1,293.5 951.2,281.5 951.3,283.4 "/>
<rect x="938.4" y="281.2" transform="matrix(0.999 4.452136e-02 -4.452136e-02 0.999 13.7374 -41.7727)" class="st7" width="12.5" height="12.6"/>
<g>
	<defs>
		
			<rect id="SVGID_1_" x="939" y="281.8" transform="matrix(0.999 4.452136e-02 -4.452136e-02 0.999 13.7374 -41.7727)" width="11.4" height="11.4"/>
	</defs>
	<clipPath id="SVGID_00000034077208454152295080000000838037233477244326_">
		<use xlink:href="#SVGID_1_"  style="overflow:visible;"/>
	</clipPath>
	<g style="clip-path:url(#SVGID_00000034077208454152295080000000838037233477244326_);">
		<path class="st15" d="M950.3,293.5c-3.9-0.2-7.8-0.3-11.8-0.5c0.2-3.8,0.3-7.6,0.5-11.4c3.9,0.2,7.8,0.3,11.8,0.5
			C950.6,285.9,950.5,289.7,950.3,293.5z M943.8,286.7c1-0.9,1.9-1.8,2.9-2.7c-0.7,0-1.4-0.1-2.1-0.1c-1.5,1.4-2.9,2.8-4.4,4.2
			c0,0.9-0.1,1.8-0.1,2.7c0.6,0,1.2,0.1,1.8,0.1c0-0.8,0.1-1.6,0.1-2.4c0.2-0.2,0.4-0.4,0.6-0.6c0.6,1.1,1.3,2.1,1.9,3.2
			c0.7,0,1.4,0.1,2.1,0.1C945.6,289.6,944.7,288.2,943.8,286.7z M940.2,287.3C940.2,287.2,940.2,287.2,940.2,287.3
			c0.6-0.6,1.2-1.2,1.8-1.7c0,0,0-0.1,0-0.1c0-0.5,0-1.1,0.1-1.6c0,0,0,0,0-0.1c-0.6,0-1.2-0.1-1.8-0.1
			C940.3,284.9,940.2,286.1,940.2,287.3z M948,291.2c0.6,0.1,1.3-0.5,1.3-1.2c0-0.7-0.5-1.3-1.2-1.3c-0.7,0-1.3,0.5-1.3,1.2
			C946.8,290.6,947.4,291.2,948,291.2z"/>
		<path class="st5" d="M943.8,286.7c0.9,1.5,1.8,2.9,2.7,4.4c-0.7,0-1.4-0.1-2.1-0.1c-0.6-1-1.3-2.1-1.9-3.2
			c-0.2,0.2-0.4,0.4-0.6,0.6c0,0.8-0.1,1.6-0.1,2.4c-0.6,0-1.2-0.1-1.8-0.1c0-0.9,0.1-1.8,0.1-2.7c1.5-1.4,2.9-2.8,4.4-4.2
			c0.7,0,1.4,0.1,2.1,0.1C945.7,284.9,944.8,285.8,943.8,286.7z"/>
		<path class="st5" d="M940.2,287.3c0.1-1.2,0.1-2.4,0.2-3.6c0.6,0,1.2,0.1,1.8,0.1c0,0,0,0,0,0.1c0,0.5,0,1.1-0.1,1.6
			c0,0,0,0.1,0,0.1C941.4,286.1,940.8,286.7,940.2,287.3C940.2,287.2,940.2,287.2,940.2,287.3z"/>
		<path class="st5" d="M948,291.2c-0.7,0-1.2-0.6-1.2-1.3c0-0.6,0.6-1.2,1.3-1.2c0.7,0,1.2,0.6,1.2,1.3
			C949.3,290.8,948.7,291.3,948,291.2z M947.5,289.9c0,0.3,0.2,0.6,0.6,0.7c0.3,0,0.6-0.2,0.7-0.6c0-0.3-0.2-0.6-0.6-0.6
			C947.8,289.3,947.5,289.6,947.5,289.9z"/>
		<path class="st15" d="M947.5,289.9c0-0.4,0.3-0.6,0.7-0.6c0.3,0,0.6,0.3,0.6,0.6c0,0.3-0.3,0.6-0.7,0.6
			C947.7,290.6,947.5,290.3,947.5,289.9z"/>
	</g>
</g>
</svg>
