<?xml version="1.0" encoding="utf-8"?>
<!-- Generator: Adobe Illustrator 27.0.1, SVG Export Plug-In . SVG Version: 6.00 Build 0)  -->
<svg version="1.1" id="Lager_1" xmlns="http://www.w3.org/2000/svg" xmlns:xlink="http://www.w3.org/1999/xlink" x="0px" y="0px"
	 viewBox="0 0 1600 900" style="enable-background:new 0 0 1600 900;" xml:space="preserve">
<style type="text/css">
	.st0{fill:#500B00;}
	.st1{fill:#97672C;}
	.st2{fill:#013F4B;}
	.st3{fill:#6B410C;}
	.st4{fill:#002B33;}
	.st5{fill:#BA8B50;}
	.st6{fill:#57A9B8;}
	.st7{fill:#418D9B;}
	.st8{fill:#E6BC87;}
	.st9{fill:#A3A2A2;}
	.st10{fill:#D4A572;}
	.st11{fill:#7D7B7B;}
	.st12{fill:#454545;}
	.st13{fill:#CFCFCF;}
	.st14{clip-path:url(#SVGID_00000062187102246793478630000011615238314165152943_);}
	.st15{fill:#EE492E;}
	.st16{fill:#FFFFFF;}
</style>
<g>
	<ellipse class="st0" cx="800" cy="814.9" rx="580.8" ry="70.6"/>
	<g>
		<path class="st1" d="M1082.1,742.4c0,0-0.2,24.4-2.4,27.6c-2.2,3.2-13.9,4.5-18.4,1.5c-4.5-3-3.5-31.4-3.5-31.4L1082.1,742.4z"/>
		<path d="M1109.2,798.1c0.4,1.3,2,4.1-1.4,7.5c-3.3,3.3-9.4,6-18.4,4.3c-5.4-1-32.9-9.8-36.7-15.8c-2.7-4.8,0.2-9.6,2.6-9.5
			C1056.7,783.5,1107.4,792,1109.2,798.1z"/>
		<path class="st1" d="M1058.4,761.8c0,0,4.7,5.1,11.5,5.7c6.8,0.6,10.9-1.9,10.9-1.9s-2.2,7.4,9.4,15.6
			c6.4,4.6,18.5,10.4,17.1,16.5c-0.9,3.6-6.4,6.9-14.8,6s-15.4-3.4-24.7-6.7c-6.2-2.2-9-4.1-11.1-5.8c-3.9-2.8-1.3-8.5,0.4-16.2
			C1058.6,767.9,1058.4,761.8,1058.4,761.8z"/>
		<path class="st1" d="M1162.6,742.4l-1.6,25.1c0,0-14.7,6.9-19.2,4c-4.5-3-3.5-31.4-3.5-31.4L1162.6,742.4z"/>
		<path d="M1186.3,793.3c0.7,1.1,15.5-1.3,15.4,3.5c-0.1,4.7,1.3,8.3-14,9c-5.4,0.3-47.9-2.9-54.6-7.3c-2.1-1.7-2.9-7.7-0.5-8.3
			C1133.5,788.9,1183,787.8,1186.3,793.3z"/>
		<path class="st1" d="M1138.9,761.8c0,0,4.7,5.1,11.5,5.7s10.6,0,10.6,0s1.6,3.3,7.4,8.3c8.3,7.1,29.1,10.8,30.2,16
			c0.8,3.7,0.9,5.6-1,6.3c-3.2,1.3-6.2,2.8-19.2,2.2c-7.8-0.4-19.4-2.3-28.4-3.6c-7.4-1.1-12.8-1.3-14.7-2.9
			c-2.5-2.2-1.5-7.5,1.6-16.3C1139.4,770.5,1138.9,761.8,1138.9,761.8z"/>
		<path class="st1" d="M1184.4,265.1c0.1,1.6,8.6,46.6,8.4,57.5c-0.3,10.9-5.2,85.4-6.5,89.9c-1.3,4.4-4.5,4.5-11.2,3.1
			c-3.9-0.8-11.9-45.2-12.2-74.6c-0.3-29.5-5.6-71.4-5.6-71.4L1184.4,265.1z"/>
		<path class="st2" d="M1109.9,478.5c-1.3,2.2,18.3,122.5,19.5,137.4c1.2,14.9-4.6,138.6,6.8,142.4c11.4,3.8,29.8,3.1,33-0.2
			c3.2-3.3,15.1-110.5,17.1-145.9c2-35.3-7.7-155.9-7.7-155.9l-71.6,6.7L1109.9,478.5z"/>
		<path class="st2" d="M1183.9,380.2c0,0,8.7-2,8.9,1c2.4,44.3-8.3,57.4-8.3,57.4l-12.3-49.3L1183.9,380.2z"/>
		<path class="st2" d="M1039.2,449.7c0,0,3.3,114.3,5.7,152.7c2.4,38.4,0.8,151.3,9.8,155.7c9,4.5,22,4.6,29-0.2
			s12.3-24.8,12.7-56.7c0.4-32,18.3-206.3,18.3-216.7c0-10.4,4.7-23.9,4.7-23.9L1039.2,449.7z"/>
		<path d="M1135.8,49.5c23.2,8.5,26.2,27,26.3,43.3c0.1,16.3-0.1,39,1.9,48.5c1.9,9.5,17.2,25,15.1,40.2
			c-2.1,15.2-4.2,28.2-13.1,31.2c-8.9,3-104.6-7.3-104.6-7.3s17.5-39.6,19.3-72c1.5-27.8-2.2-49.4-0.3-59.1
			C1084.4,54,1112.6,41,1135.8,49.5z"/>
		<path class="st1" d="M1141.3,62.6c6.1,5.9,9.8,7.2,13.4,20.1c3.4,12.4,3.1,29.2,2.5,35.6c-1.3,14.7-10.6,27.1-14.1,28.4
			c-3.5,1.2-41.3-7.3-44.7-10.3c-3.4-3-7.1-20.8-9.8-34.3s-6.4-23.4,3.8-37.4C1101.8,51.8,1125.8,47.6,1141.3,62.6z"/>
		<path class="st1" d="M1157.2,183.4l-27.2,41.3l-69.1-45.1c0,0,26.9-14.4,31-19.5c4-5.1,5.2-38.3,5.2-38.3l40.6,16.3
			c0,0-0.5,2.1-1.2,5.1c-0.8,3.4-1.8,8.1-2.4,12.4c-0.5,3.4-0.8,6.5-0.7,8.5C1134,171,1157.2,183.4,1157.2,183.4z"/>
		<path class="st3" d="M1135.9,146.1c-0.8,3.4-1.8,9.6-1.8,9.6s-3.3-0.7-7.1-2.2c-3.8-1.5-6.6-3.3-11-7.2
			c-4.2-3.8-8.3-12.8-5.2-10.8c4.2,2.7,7.4,4.3,10.7,5.7C1132,146,1135.9,146.1,1135.9,146.1z"/>
		<path class="st3" d="M1132.8,130.8c0.7,0.8,3.6-1.6,7.4-1.1c3.8,0.5,5.7,2.9,6.2,1.9c0.5-1-1-4.4-6.5-4.8
			C1135,126.4,1131.6,129.7,1132.8,130.8z"/>
		<path d="M1125.7,93.3c-2-0.3-4.8,0-7.8,2c-2.9,2,0,2.3,1.2,1.9c1.2-0.4,8.7-0.8,8.9-2.1C1128.3,93.8,1126.5,93.4,1125.7,93.3z"/>
		<path d="M1144.5,92.9c2-0.5,4.8-0.7,8,0.9c3.2,1.6,0.3,2.3-1,2c-1.3-0.2-8.7,0.4-9.1-0.8C1141.9,93.8,1143.7,93.1,1144.5,92.9z"/>
		<path d="M1116.5,75.2c0,0-1.2,6.8-7.9,13.3c-6.7,6.5-12.9,14.7-11.2,20.6c1.7,5.9-0.9,24.1-0.9,24.1s-14.6-37-13.8-38.7
			c0.8-1.6,3.9-22.2,3.9-23.9c0-1.6,10.5-15.6,12.4-16.3c1.9-0.6,18.2-3.7,20.2-3.7s37.5,10.4,37.4,18.7c-0.1,8.4,0.4,15.7,0.4,15.7
			s-11.9-9.7-22.7-9.6C1123.5,75.7,1116.5,75.2,1116.5,75.2z"/>
		<path class="st3" d="M1143.6,112.9c-0.6-2.7-2.2-5.2-3-7.9c-0.3-1-1.9-0.6-1.6,0.4c0.5,1.6,1.2,3.2,1.8,4.8
			c1.3,2.9,1.6,4.5,0.2,7.5c-0.5,0.9,0.9,1.8,1.4,0.8C1143.3,116.8,1144,115,1143.6,112.9z"/>
		<path class="st2" d="M1086.1,164.9c0,0-38.7,14-44.6,17.8s0.5,90.5,0.7,118.7c0.2,28.1-15.5,143.6-9.4,155.7
			c6,12.1,78.6,18.2,96.5,17c17.9-1.2,49.3-4.6,53.6-11.2c4.3-6.6-0.9-174.8-3-210c-2.1-35.2,2.6-57.1-5-63.8
			c-7.6-6.7-37.5-19.2-37.5-19.2s-8.6,30.1-15,30.5C1115.8,200.8,1086.1,164.9,1086.1,164.9z"/>
		<path class="st2" d="M1174.7,189.2c0,0,7.3-0.6,12.2,35.9c5,36.5,11.1,64.5,10,69.4c-1.1,4.9-21.6,8-21.6,8s-20.2-60-17.1-67.7
			S1174.7,189.2,1174.7,189.2z"/>
		<path class="st1" d="M1016.1,288c0,0-6.3,29.3-4.1,40.1c2.2,10.8,48.5,55.1,53.4,55.5c4.9,0.5,17.8,2.7,18.9-0.1
			c1.1-2.8-31.7-51.2-34.4-63.4c-2.8-12.2-2.3-26.1-2.3-26.1L1016.1,288z"/>
		<path class="st2" d="M1041.5,182.8c0,0-10.3,4.9-17.2,23.1c-6.9,18.2-22.9,75.3-14.7,84.2c8.2,8.8,40.2,16.9,42.3,15.7
			C1054.1,304.6,1041.5,182.8,1041.5,182.8z"/>
		<path class="st2" d="M1046.9,378.3c6.2,0,8.4,2.6,25.2,3.5c16.8,0.9,23.3,0.5,25.5,2.9c2.2,2.4,0.5,50.3-4.3,53.9
			c-4.9,3.5-45.2,0.1-46.6-3.5C1042.6,424.4,1042.9,378.4,1046.9,378.3z"/>
		<path class="st4" d="M1145.7,178.9c-1.5,9.5-10.2,16.6-17.8,21.6c-0.9,0.6-0.1,2,0.8,1.4c8-5.3,16.9-12.6,18.5-22.6
			C1147.5,178.3,1145.9,177.8,1145.7,178.9z"/>
		<path class="st4" d="M1119.8,203.2c-8.2-2.2-16.1-5.3-23.5-9.5c-7.2-4.1-15.8-9.2-19-17.2c-0.4-1-1.9-0.5-1.6,0.4
			c3,7.7,10.5,12.6,17.3,16.8c8.2,5,17,8.7,26.3,11.1C1120.4,205,1120.8,203.4,1119.8,203.2z"/>
		<path class="st4" d="M1097.9,381.7c-8.3,1.7-16.2,0.7-24.7,0.3c-8.3-0.4-18.5-2-24.2-5c-0.9-0.5-2.1,0.6-1.2,1.1
			c6.9,4.1,14.6,4.7,22.5,5.4c9.5,0.8,20.5,1.4,27.9-0.1C1099.3,383.1,1099,381.5,1097.9,381.7z"/>
		<path class="st4" d="M1131.6,313c-0.5-17-1.9-33.9-3.3-50.9c-1.5-18.9-2.6-37.8-0.7-56.7c0.1-1-1.5-1-1.6,0
			c-3.4,33.7,2.5,67.4,3.8,101.1c1.3,34.4-0.2,68.8-1.1,103.2c-0.5,19.3-1.1,38.7-1.6,58c0,1,1.6,1,1.6,0c1-34.4,2.1-68.7,2.8-103.1
			C1131.9,347.5,1132.1,330.2,1131.6,313z"/>
		<path class="st4" d="M1060.3,235.8c-0.5-16.8-0.4-38.8-15-50.3c-0.8-0.6-2,0.5-1.1,1.1c14.9,11.7,14.3,35.1,14.6,52.3
			c0.4,22.1-1.7,44.1-6,65.7c-0.2,1,1.4,1.5,1.6,0.4C1058.9,282.3,1061,259.1,1060.3,235.8z"/>
		<path class="st4" d="M1175.3,196.1c-0.1-1-1.7-1-1.6,0c3.7,31.3,5.7,62.7,6.1,94.2c0,1,1.6,1,1.6,0
			C1181,258.9,1179,227.4,1175.3,196.1z"/>
		<path class="st4" d="M1132.1,232c-0.1-0.4-0.4-0.6-0.8-0.6c-2.6-0.1-3.5,3.4-1.1,4.5c0.3,0.1,0.7,0.2,1-0.1c0.5-0.6,1-1.3,1-2.1
			C1132.3,233.1,1132.2,232.5,1132.1,232z"/>
		<path class="st4" d="M1136.2,288.5c0-0.3-0.5-0.6-0.8-0.6c-0.3,0-0.5,0-0.8,0c0,0,0,0,0,0c-0.1,0-0.2,0-0.3,0
			c-0.4,0-0.8,0.4-0.8,0.8c0,0,0,0.1,0,0.1c-0.4,0.2-0.7,0.8-0.2,1.3c0.1,0.1,0.2,0.1,0.2,0.2c0,0.3,0.2,0.5,0.4,0.6
			c0.4,0.2,0.8,0.2,1.1,0c0,0,0,0,0,0c0,0,0.1-0.1,0.1-0.1c0,0,0.1-0.1,0.1-0.1C1136,290.3,1136.3,289.5,1136.2,288.5z"/>
		<path class="st4" d="M1136.8,355.2c-0.1-0.1-0.1-0.2-0.2-0.3c-0.3-0.5-0.9-0.5-1.3-0.2c0,0-0.1,0.1-0.1,0.1
			c-0.1,0-0.3,0.1-0.4,0.1c-1.2,0.6-1.3,2.1-0.5,3c0.3,0.3,0.6,0.3,0.9,0.1c1,0.5,2-0.8,2.1-1.7
			C1137.5,355.9,1137.2,355.5,1136.8,355.2z"/>
		<path class="st4" d="M1135.3,424.8c0-1.1-0.8-2-2-2.1c-0.3,0-0.5,0.2-0.7,0.4c-0.4,0.6-0.7,1.7-0.5,2.5c0,0.1,0,0.3,0.1,0.4
			c0.6,1.3,2.1,0.9,2.8-0.1c0.1,0,0.1-0.1,0.2-0.1C1135.6,425.5,1135.5,425.1,1135.3,424.8z"/>
		<path class="st4" d="M1130.4,485c-5.7,5.1-11,10.7-15.8,16.7c-0.6,0.8,0.5,2,1.1,1.1c4.8-6,10-11.6,15.8-16.7
			C1132.4,485.5,1131.2,484.3,1130.4,485z"/>
	</g>
	<g>
		<path class="st5" d="M589.5,750.4c0,0,1.9,23,1.3,27.9c-0.4,3.7,20.5,3.7,21-1.4c0.5-5.3,1.1-28.7,1.1-28.7L589.5,750.4z"/>
		<path class="st3" d="M561,807.6c0,0-1.5,0.2,0.1,4.7c0.9,3.6,10.7,3.8,16.2,4c5.4,0.2,34.2-5.2,40-10.8c1.8-2,1.2-7.4-1.2-7.5
			C614.9,796.9,561,807.6,561,807.6z"/>
		<path class="st5" d="M612.3,770.3c0,0-4.3,6.7-11.2,7.3c-6.8,0.6-10.2-0.6-10.2-0.6s-2.3,7.7-8.4,12c-6.4,4.6-22.6,10.8-20.8,18.4
			c0.9,3.6,10.4,3.9,16,4.1c5.4,0.2,30.5-4.3,36-8.8c3.8-3.1,2.1-10.2-0.5-21.8C612.4,777.1,612.3,770.3,612.3,770.3z"/>
		<path class="st6" d="M545.2,462.6c0,0,24.5,194.3,27.7,216.5c3.2,22.2,6,71.7,11.6,79.6c5.7,7.9,28.4,3.7,34.7,1.8
			s5.2-215.5,1.7-262.1c-3.5-46.6-5.7-51.4-5.7-51.4L545.2,462.6z"/>
		<path class="st5" d="M492.5,751.2c0,0,1.9,23,1.3,27.9c-0.4,3.7,20.5,3.7,21-1.4c0.5-5.3,1.1-28.7,1.1-28.7L492.5,751.2z"/>
		<path class="st6" d="M479.8,449.9c0,0,0.8,168.4,1.4,207.9c0.3,20.5,1.7,96.9,6.8,100.4c5.2,3.5,10.6,3,20.7,3.5
			c10,0.5,13.1-0.1,17-9c3.9-8.9,7.9-65.5,13-108.3c5.1-42.8,14.2-170.4,14.2-170.4L479.8,449.9z"/>
		<path class="st5" d="M511.8,83.1c-4.9,6.3-8.1,8-9.6,20.4c-1.5,11.9,1.1,27.4,2.5,33.3c3.2,13.4,13.8,26.9,17.3,26.9
			c8.9,0,33.9-13.5,36.6-16.8c2.7-3.3,6.6-21.5,7.3-34.3c0.7-12.9,2.7-22.5-8.6-34C546.8,67.7,524.1,67.1,511.8,83.1z"/>
		<path class="st5" d="M592.1,188.9l-64.3,42.5L502.1,193c0,0,21.2-11.5,22.2-17.9c0-0.1,0-0.1,0-0.2c0.2-1.9-0.1-4.8-0.7-8
			c-0.1-0.7-0.3-1.5-0.4-2.2c-0.1-0.4-0.2-0.8-0.2-1.3c-0.5-2.9-1.2-5.8-1.7-8.1c-0.7-2.8-1.2-4.8-1.2-4.8l37.8-15.5
			c0,0,0.3,6.5,0.9,14.1c0.1,0.8,0.1,1.5,0.2,2.3c0.8,8.3,2.1,17,3.9,19.4C566.8,175.7,592.1,188.9,592.1,188.9z"/>
		<path class="st1" d="M541.8,164.8c-3.5,4-9.1,4.4-12.9,7.6c-1.3,1.1-3.8,2.1-4.6,2.8c0-0.1,0-0.1,0-0.2c0.2-1.9-0.1-4.8-0.7-8
			c-0.1-0.7-0.3-1.5-0.4-2.2c-0.1-0.4-0.2-0.8-0.3-1.3c0,0,0,0,0,0c0.6-0.2,14.8-5,18.2-5.4C544.6,157.6,545.3,160.8,541.8,164.8z"
			/>
		<path class="st6" d="M516.6,183.8c0,0-41,13.1-44.4,16.5c-3.4,3.3,5.1,101.9,4.6,116.1c-0.6,17.8-3.3,92.3-1.7,149.9
			c0.1,3.9,46.6,19.2,72.2,18.3c25.6-0.8,67.1-17.9,73.9-25.4c3.3-3.7-2.8-43.9-3.8-99.4c-1-57.3,0.4-123.7,1.9-131.3
			c2.9-15-14.8-36-16.3-37.1c-1.5-1.1-21.6-8.4-21.6-8.4s-43.4,31.8-46.5,32.3C531.9,215.8,516.6,183.8,516.6,183.8z"/>
		<path class="st7" d="M542,328.4c-1-15.4-2.9-30.7-4.7-46.1c-2-17.1-3.6-34.2-2.5-51.4c0.1-0.9-1.4-0.9-1.5,0.1
			c-2,30.7,4.5,61.2,6.8,91.7c2.3,31.2,2.1,62.5,2.4,93.7c0.1,17.6,0.3,35.1,0.4,52.7c0,1,1.5,0.9,1.5-0.1
			c-0.3-31.2-0.4-62.5-0.8-93.7C543.4,359.7,543,344,542,328.4z"/>
		<path class="st7" d="M539.7,254.8c-0.1-0.3-0.4-0.5-0.7-0.5c-2.3,0-3.1,3.2-0.9,4.1c0.3,0.1,0.7,0.1,0.9-0.1
			c0.4-0.6,0.9-1.2,0.9-2C540,255.8,539.9,255.3,539.7,254.8z"/>
		<path class="st7" d="M545.4,306c-0.1-0.3-0.4-0.5-0.7-0.5c-0.2,0-0.5,0-0.7,0c0,0,0,0,0,0c-0.1,0-0.2,0-0.3,0
			c-0.4,0-0.7,0.4-0.7,0.8c0,0,0,0.1,0,0.1c-0.4,0.2-0.6,0.8-0.2,1.2c0.1,0.1,0.1,0.1,0.2,0.2c0,0.2,0.2,0.5,0.4,0.6
			c0.4,0.2,0.7,0.1,1,0c0,0,0,0,0,0c0,0,0.1,0,0.1-0.1c0,0,0.1-0.1,0.1-0.1C545.2,307.7,545.5,306.9,545.4,306z"/>
		<path class="st7" d="M548.1,366.6c0-0.1-0.1-0.2-0.2-0.3c-0.3-0.4-0.8-0.4-1.2-0.1c0,0-0.1,0.1-0.1,0.1c-0.1,0-0.2,0.1-0.4,0.1
			c-1.1,0.5-1.1,1.9-0.4,2.8c0.3,0.3,0.6,0.3,0.8,0.1c0.9,0.4,1.8-0.8,1.9-1.6C548.7,367.2,548.5,366.8,548.1,366.6z"/>
		<path class="st7" d="M549.1,429.8c-0.1-1-0.8-1.8-1.8-1.8c-0.3,0-0.5,0.2-0.6,0.4c-0.3,0.5-0.6,1.6-0.3,2.3c0,0.1,0,0.2,0.1,0.4
			c0.6,1.1,2,0.7,2.5-0.1c0.1,0,0.1-0.1,0.2-0.1C549.3,430.4,549.3,430.1,549.1,429.8z"/>
		<path class="st1" d="M522.2,118.9c0.3-0.9-1.1-1.3-1.5-0.4c-0.8,2.2-1.5,4.4-2.2,6.6c-0.5,1.6-1.5,3.6-1.6,5.2
			c-0.1,2.3,2.2,3.7,3.9,4.9c0.8,0.5,1.6-0.8,0.8-1.3c-1.5-1-3.1-1.9-3-3.9c0-1.1,0.7-2.4,1-3.3
			C520.5,124.1,521.3,121.5,522.2,118.9z"/>
		<path class="st1" d="M528.7,148c-3.8-1.7-6.5-1.7-11.1-1.4c-0.9,0.1-1.2-0.8-0.4-1.3c4.4-2.7,9-1.4,12.3,1.9
			C530,147.9,529.5,148.4,528.7,148z"/>
		<path d="M513.6,106.8c-1.2-0.9-4.1-0.7-7.8,0.7c-3.7,1.5-4.7,1.9-3.9,2.8c0.8,0.9,6.5-0.8,9.7-1.2
			C513.7,108.8,514.1,107.2,513.6,106.8z"/>
		<path d="M530.6,105.5c0.9-1.2,3.8-1.8,7.8-1.4c4,0.4,5,0.6,4.5,1.6c-0.6,1.1-6.5,1-9.6,1.4C531.1,107.5,530.2,106,530.6,105.5z"/>
		<path d="M558.7,147.6c0,0-0.1-0.3-0.2-0.8c-0.5-2.8-2.2-12-1.6-16.7c0.7-5.7,5-11.4,3.5-18.1c-1.6-6.7-5.2-5.9-6.7-10.7
			c-1.6-4.8-2.8-9.6-7.4-10.1c-4.6-0.5-10.6,5.2-18.3,3.2c-7.6-2-10.6-3.3-15.5-0.3c-5,3.1-9.6,4.5-9.6,4.5s-4.9-2.8-4.3-7.1
			c0.5-4.3-5.6-25.6,34.2-34.3c5.6-1.2,9.6,5.8,13.4,6.9c3.8,1.1,7.9-1.6,15,0.8c7,2.4,9.3,3,10.1,10.9c0.7,6.6-0.9,8.2,2,13.5
			c2.9,5.3,2.8,15.7,0.1,21.1S558.7,147.6,558.7,147.6z"/>
		<path class="st5" d="M455.8,279.3c0,0-6.1,55.8-3.8,60c5.8,10.6,23.6,14.3,29.2-0.2c5.6-14.5,6.8-55.8,6.8-55.8L455.8,279.3z"/>
		<path class="st6" d="M472.2,200.2c0,0-14.4,0.3-19.3,68.3c-1,13.7,5.3,19,22.6,19c44.5-0.2,9.1-59.2,9.1-59.2l-2-18.7L472.2,200.2
			z"/>
		<path class="st5" d="M487.7,289.5c1.8-6.2,8.7-9.4,14.6-6.8c23.6,10.5,85.1,36.3,89.1,39.3c5,3.8,5,28.3-12.1,31.2
			c-20.2,3.4-85.2-44.8-90.8-52.7C486.4,297.5,486.6,293.4,487.7,289.5z"/>
		<path class="st5" d="M559.1,320.8c0.3-1.1,22.8-42.3,27.7-45.5c4.9-3.3,19.5,14.4,26.3,18c6.9,3.6-22.6,52.3-22.6,52.3l-25.4-13
			L559.1,320.8z"/>
		<path class="st5" d="M512.8,296.3c0,0-9.9-8.5-12.9-14.5c-3-6-4.6-17.6-11.7-22.1c-7.1-4.5-17-12.1-23.5-3.6
			c-9.6,12.6,0.9,23.6,3.6,27.7c2.7,4.1,13.1,14.5,26.1,19.6C507.3,308.4,512.8,296.3,512.8,296.3z"/>
		<path class="st5" d="M588.3,290.7c0,0-15.5-7.9-27-7c-5.7,0.5-29.2,5.7-65.7,16.3c-36.5,10.6-39.5,20.4-39.5,20.4l15.4,27.8
			c0,0,96.5-38.6,96.9-45l22.2,19.6L588.3,290.7z"/>
		<path class="st6" d="M603,191.4c0,0,38.6,9.9,33.2,46.8c-6.2,42.2-12.2,55.8-15.2,58.8c-3,3-46-18.3-46-18.3L603,191.4z"/>
		<path class="st1" d="M519.6,293.3c-7.2,1.8-14.3,3.7-21.5,5.5c-0.9,0.2-0.5,1.7,0.4,1.5c7.2-1.8,14.3-3.7,21.5-5.5
			C521,294.6,520.6,293.1,519.6,293.3z"/>
		<path class="st1" d="M552.7,310.7c-4.1,0.5-7.7,2.9-11.4,4.7c-4.7,2.4-9.4,4.8-14.1,7.2c-0.9,0.4-0.1,1.8,0.8,1.3
			c3.8-2,7.7-3.9,11.5-5.9c4.1-2.1,8.6-5.3,13.2-5.8C553.6,312.1,553.6,310.6,552.7,310.7z"/>
		<path class="st1" d="M577.4,287.6c-3,5.1-6,10.3-9,15.4c-0.5,0.8,0.8,1.6,1.3,0.8c3-5.1,6-10.3,9-15.4
			C579.2,287.5,577.9,286.7,577.4,287.6z"/>
		<path class="st1" d="M487.2,299c-6-2-11.3-5.4-15.5-10.1c-0.7-0.7-1.7,0.4-1.1,1.1c4.4,4.9,9.9,8.4,16.2,10.4
			C487.7,300.8,488.1,299.3,487.2,299z"/>
		<path class="st7" d="M613.3,203.2c-9.9,6.7-16.2,16.9-20.5,27.8c-5.2,13.4-8.2,27.8-11.8,41.7c-0.2,0.9,1.2,1.3,1.5,0.4
			c3.3-12.6,6.2-25.4,10.4-37.7c4.1-12,10.4-23.6,21.2-30.9C614.9,204,614.2,202.7,613.3,203.2z"/>
		<path class="st7" d="M475.5,248.7c-2.9-13.1-4.1-26.4-3.6-39.7c0-1-1.5-1-1.5,0c-0.5,13.5,0.8,26.9,3.7,40.1
			C474.3,250.1,475.7,249.7,475.5,248.7z"/>
		<path class="st7" d="M528.7,227.9c-1.1-1.1-5.8-9.1-7.9-12.7c-4.5-7.9-8.6-15.9-12.3-24.2c-0.4-0.9-1.7-0.1-1.3,0.8
			c4.4,9.7,9.3,19.2,14.8,28.4c3.4,5.8,5.4,8.1,5.8,8.7C528.1,229.5,529.1,228.7,528.7,227.9z"/>
		<path class="st7" d="M540.4,227c1.4-0.5,9-5.9,12.4-8.4c7.3-5.3,26.4-21,33.2-27c0.7-0.6,1.6,0.6,0.9,1.2
			c-8,7.1-28.5,23.7-37.2,29.8c-5.5,3.8-8.3,5.2-8.9,5.6C540.3,228.7,539.7,227.5,540.4,227z"/>
		<path class="st7" d="M603.8,465.4c-7.7,5.8-17,8.3-26.3,10c-10.5,1.9-21.1,3.2-31.8,3.8c-20.8,1.2-41.8-0.7-61.4-7.7
			c-0.9-0.3-1.3,1.1-0.4,1.5c20.3,7.2,41.9,9,63.2,7.7c10.3-0.6,20.6-2,30.8-3.8c9.5-1.7,18.9-4.2,26.7-10.1
			C605.4,466.2,604.6,464.9,603.8,465.4z"/>
		<path class="st7" d="M549.7,500.8c-4.8-4.8-9.6-9.7-14.2-14.6c-0.7-0.7-1.7,0.4-1.1,1.1c4.6,5,9.4,9.8,14.2,14.6
			C549.3,502.6,550.4,501.5,549.7,500.8z"/>
	</g>
	<g>
		<g>
			<path class="st8" d="M631.5,431.2c0,0-1.6,16.7,2.4,29.3s9.7,19,12.9,18.7s5.6-3.1,6.4-7.5c0.8-4.5-1.4-34.6-4.7-41
				c-3.3-6.4-9-7-9-7L631.5,431.2z"/>
			<path class="st8" d="M621.5,279.9c0,1.7-5.1,48.5-3.9,59.6c1.2,11.1,12.3,87.2,14,91.7c1.7,4.5,5,4.3,11.8,2.2
				c4-1.2,8.5-47.3,6.5-77.6s0-73.8,0-73.8L621.5,279.9z"/>
			<path class="st2" d="M644.3,179.7c0,0-8.9,2.1-16.2,23.3c-7.2,21.2-21.2,92.5-19.5,99.8c1.7,7.2,3.2,7.6,17.8,9.1
				c14.6,1.5,23.3,0,23.3,0l20.8-86L644.3,179.7z"/>
			<path class="st8" d="M684.8,751.5c0,0,2,24.5,1.4,29.8c-0.4,3.9,21.9,4,22.4-1.5c0.6-5.7,1.1-30.6,1.1-30.6L684.8,751.5z"/>
			<path class="st8" d="M816.1,433.1c0,0,1.6,16.7-2.4,29.3c-4,12.5-9.7,19-12.9,18.7c-3.2-0.3-5.6-3.1-6.4-7.5
				c-0.8-4.5,1.4-34.6,4.7-41s9-7,9-7L816.1,433.1z"/>
			<path class="st8" d="M826.1,281.8c0,1.7,5.1,48.5,3.9,59.6s-12.3,87.2-14,91.7c-1.7,4.5-5,4.3-11.8,2.2c-4-1.2-8.5-47.3-6.5-77.6
				c2.1-30.3,0-73.8,0-73.8L826.1,281.8z"/>
			<path class="st9" d="M690.8,89.7c0,2.2-4.1,10.2-6.2,19c-2,8.9,2.4,12.8,3,19.1c0.6,6.4-5.5,9.1-9.4,18.2
				c-3.9,9.1-3.2,21.8,1.1,25.9c4.3,4.1,64.4,24.1,79.6,20.9c15.2-3.2,13.4-29.6,10-41.4c-3.4-11.8,2.1-13.6-1.2-24.1
				c-1.8-5.7-5.2-9.1-9.8-17.4c-4.7-8.3-2.8-23.2-2.8-23.2L690.8,89.7z"/>
			<path class="st8" d="M769,169.3l-39.4,49.8l-50.3-49.8c0,0,14.3-9.8,20.3-18c2.7-3.8,3.4-10.8,3.3-17.3
				c-0.1-7.6-1.2-14.4-1.2-14.4l42.1,1c0,0-0.9,7.6-0.7,15.4v0c0.1,4.4,0.5,8.9,1.7,12.1C748.3,158.4,769,169.3,769,169.3z"/>
			<path class="st10" d="M743,135.9L743,135.9c-7.1,4.8-16.3,10.4-20.5,10.1c-4.8-0.3-13.9-7.2-19.6-12.1
				c-0.1-7.6-1.2-14.4-1.2-14.4l42.1,1C743.8,120.5,742.8,128.1,743,135.9z"/>
			<path class="st8" d="M748.7,117.5c-5.6,11.7-21.2,19.6-25.3,19.6c-3.8,0-21.7-9.2-26.6-19.6c-2.6-5.5-7.3-34.2-9.5-51.7
				c-1-8.2,3.4-16,10.9-19.4c7.7-3.4,17.2-7.2,23.6-7.7c12.2-1,32.2,6.6,35.9,16.2C758.9,57.8,750.5,113.6,748.7,117.5z"/>
			<path class="st8" d="M690.3,78.5c0,0-7.3,0.9-5.2,13.3s9.3,14.5,9.3,14.5l-1.8-21.4L690.3,78.5z"/>
			<path class="st8" d="M754.5,77.9c0,0,7.3,0.9,5.2,13.3s-8.8,14.3-8.8,14.3l1.3-21.2L754.5,77.9z"/>
			<path class="st9" d="M687.8,76.6c1.6,2.8,5.7,3.6,9.2-2.3c2.4-4,0.4-10.4,6.4-11.1c5.4-0.6,8.5,6.7,18.2,6.5
				c9.7-0.2,8.9-3.9,13.4-3.2c5.7,1,2.9,11.3,11.5,12.6c8.6,1.2,9.9-1.1,9.9-1.1s3.2-4.5,0.6-10.1c-2.7-5.6-8.8-5.3-14.1-8.9
				c-5.3-3.6-11.3-11.5-20.3-9.2c-9.1,2.3-11.7,4.5-20.8,6.1C685.1,58.8,686.2,73.8,687.8,76.6z"/>
			<path class="st11" d="M711.8,80c-0.2-0.1-3.5-1.6-8.3,0.9c-4.7,2.5-5,3.7-2.3,3.2c2.8-0.5,8.8-0.6,10.4-1.8
				C713.3,81.1,712.4,80.2,711.8,80z"/>
			<path class="st11" d="M734.1,80.3c0.2-0.1,3.5-1.8,8.3,0.5c4.8,2.3,5.2,3.5,2.4,3.1c-2.8-0.4-8.8-0.1-10.5-1.3
				S733.5,80.5,734.1,80.3z"/>
			<path class="st2" d="M692.5,158.8c0,0-47.5,19-51.4,22.8c-3.9,3.8,0.9,90.8,3.3,109.4c4.1,31.3,0.3,112.8,5.7,118.4
				c5.4,5.6,57.7,17.8,77.8,15.6c20.1-2.2,71.1-13.5,73.4-17.9c2.2-4.5,3-60.6,3-82s-6.1-109.6-3.8-122.4c2.2-12.9,5.6-16,2.8-21.1
				c-2.8-5.2-47-20.4-47-20.4s-29.2,32-32.1,32.1C721.4,193.3,692.5,158.8,692.5,158.8z"/>
			<path d="M710.9,751.8c0,0-3.1,2.7-11.6,1.8c-8.4-0.9-14.4,0.5-14.4,0.5s0.2,15.1-0.3,17.5c-1.7,9.5-8.8,12.6-12,14.3
				c-3.2,1.7-18.9,7.6-19.2,11.5c-0.4,3-0.5,11.5,1,12.1c17.1,5.7,34.2-2.6,44.3-2.4c3.6,0.1,10.4-0.5,13.3-4
				c0.4-0.5,0.5-8.2,0.1-15.9C711.8,776.8,710.9,751.8,710.9,751.8z"/>
			<path class="st2" d="M655.8,392.7c0,0-2.5,57.1,0,145.7s17.9,189.8,18.6,205.7c0.7,15.9,10.6,20.2,23.2,17.2
				c12.6-3,15.3-1,19.8-6.9c4.5-5.9,0.6-88.1,2.2-139.9c1.7-51.8,1-124.6,8.3-143.8c7.3-19.2,19.1-63.6,19.1-63.6L655.8,392.7z"/>
			<path class="st8" d="M763.7,749.2c0,0-2,25.6-1.4,30.9c0.4,3.9-21.9,4-22.4-1.5c-0.6-5.7-1.1-31.8-1.1-31.8L763.7,749.2z"/>
			<path d="M795.7,799.5c0,0,0.9-3.3-0.3-6.6c-2-4.7-16-6.3-19.2-8c-3.2-1.6-10.3-4.8-12-14.3c-0.4-2.4-0.3-17.5-0.3-17.5
				s-6-1.4-14.4-0.5c-8.5,0.9-11.6-1.8-11.6-1.8s-0.9,25-1.4,35.4c-0.4,7.6-0.3,15.4,0.1,15.9c2.9,3.6,9.6,4.1,13.3,4
				c10.1-0.3,27.2,8.1,44.3,2.4c0.6-0.2,1-1.7,1.1-3.6c-0.3-1.8-5.6-2-5.6-2s1.3-0.5,2.5-1.1l0.1-0.9l-0.5-0.2c0,0,0.2-0.5-0.1-1.3
				l0.9,1.1l0.2,1c0.1-0.1,0.3-0.1,0.4-0.2c0.4-0.2,0.7-0.4,1.1-0.7l-0.3-0.2l0.1-0.4l-0.5-0.3l0-0.5l-0.5-1l0.6,0.3l0.2,0.7
				l0.7,0.5l0.2,0.4C795.4,799.9,795.7,799.5,795.7,799.5z"/>
			<path class="st9" d="M783.6,805.1c0,0,9.1-0.1,10.2-2c1.2-2.1,1.4-6.4-2.5-8.4c-3.9-2-19,2.2-16.7,4.2
				C777,800.9,783.6,805.1,783.6,805.1z"/>
			<path d="M750,806.2c-3.6,0.1-10.4-0.5-13.3-4c-0.4-0.5-0.5-8.2-0.1-15.9c0.6-10.4,1.4-35.4,1.4-35.4s3.1,2.7,11.6,1.8
				c8.4-0.9,14.4,0.5,14.4,0.5s-0.2,15.1,0.3,17.5c1.7,9.5,8.8,12.6,12,14.3c3.2,1.7,17.7,3.7,19.2,8c0.2,0.9,0.7,2.2,0.7,3.4
				c0,1.7-0.4,3.2-0.4,3.2s-0.3,0.4-0.8,0.9l-0.2-0.4l-0.7-0.5l-0.2-0.7l-0.6-0.3l0.5,1l0,0.5l0.5,0.3l-0.1,0.4l0.3,0.2
				c-0.3,0.2-0.7,0.5-1.1,0.7c-0.1,0.1-0.3,0.1-0.4,0.2l-0.2-1l-0.9-1.1c0,0.9-0.1,1.2-0.1,1.2l0.5,0.3l-0.2,1
				c-4.2,2.4-8.3,3.2-8.3,3.2"/>
			<path class="st12" d="M775,784.3c0,0-2.4,0.8-3.8,2.7l-1.1-0.6c0,0,0.9-1.6,3.9-2.7C774.5,784.1,775,784.3,775,784.3z"/>
			<path class="st12" d="M772.1,782.6c0,0-3,0.9-4,2.5l-1.3-0.8c0,0,1.6-1.8,4.2-2.5C771,781.8,771.4,782.2,772.1,782.6z"/>
			<path class="st12" d="M769.7,780.8c0,0-2.9,0.4-4.6,1.9l-0.9-1c0,0,0.9-1.5,4.5-1.9L769.7,780.8z"/>
			<path class="st12" d="M767.4,778.2c0,0-2.4,0.1-4.7,1.5l-0.6-1.2c0,0,1.6-1.2,4.5-1.4L767.4,778.2z"/>
			<path class="st12" d="M765.8,775.5c0,0-1.1-0.4-4.6,0.5l-0.4-1.3c0,0,2.3-1,4.4-0.5L765.8,775.5z"/>
			<path class="st12" d="M674,785.3c0,0,2.4,0.8,3.8,2.7l1.1-0.6c0,0-0.9-1.6-3.9-2.7C674.5,785,674,785.3,674,785.3z"/>
			<path class="st12" d="M676.9,783.6c0,0,3,0.9,4,2.5l1.3-0.8c0,0-1.6-1.8-4.2-2.5C678,782.8,677.6,783.1,676.9,783.6z"/>
			<path class="st12" d="M679.3,781.7c0,0,2.9,0.4,4.6,1.9l0.9-1c0,0-0.9-1.5-4.5-1.9L679.3,781.7z"/>
			<path class="st12" d="M681.6,779.2c0,0,2.4,0.1,4.7,1.5l0.6-1.2c0,0-1.6-1.2-4.5-1.4L681.6,779.2z"/>
			<path class="st12" d="M683.2,776.4c0,0,1.1-0.4,4.6,0.5l0.4-1.3c0,0-2.3-1-4.4-0.5L683.2,776.4z"/>
			<path class="st2" d="M796.7,392.7c0,0,2.5,57.1,0,145.7c-2.5,88.6-17.9,189.8-18.6,205.7c-0.7,15.9-10.6,20.2-23.2,17.2
				c-12.6-3-19.4-1.3-23.9-7.2c-4.5-5.9,3.1-86.7,1.4-138.5c-1.7-51.8-0.5-125.7-7.8-144.9c-7.3-19.2-19.1-63.6-19.1-63.6
				L796.7,392.7z"/>
			<path class="st2" d="M803.2,181.6c0,0,8.9,2.1,16.2,23.3c7.2,21.2,21.2,92.5,19.5,99.8s-3.2,7.6-17.8,9.1
				c-14.6,1.5-23.3,0-23.3,0l-20.8-86L803.2,181.6z"/>
			<path class="st10" d="M725.6,92.6c-0.1-1.1-1.8-1.1-1.7,0c0.2,1.8,0.7,3.5,1.4,5.2c0.5,1,1.1,2.1,1.3,3.3c0.2,0.9-0.4,4-1.6,4.9
				c-0.2,0.1-0.4,0.2-0.4,0.5c0,0,0,0.1,0,0.1c-0.2,0.7,0.6,1.3,1.2,0.9c1.4-1,2.5-3.6,2.6-5.3C728.6,98.9,726,95.9,725.6,92.6z"/>
			<path class="st4" d="M763.6,171.5c-5.4,6.9-11.2,13.4-17.4,19.5c-3.2,3.1-6.5,6.2-9.9,9.1c-3.6,3.1-7.6,7-12.2,8.4
				c-6,1.7-9-2.7-12.3-6.9c-3-3.9-6-7.7-9-11.6c-6-7.7-11.9-15.4-17.9-23.1c-0.7-0.8-1.8,0.3-1.2,1.2c7,9,13.9,18,20.9,27
				c3.1,4,6,8.5,9.6,12.2c2.3,2.4,5,3.7,8.4,3.3c3.6-0.5,6.8-2.7,9.6-4.9c4-3.1,7.8-6.4,11.4-9.8c7.7-7.1,14.7-14.9,21.2-23.2
				C765.5,171.9,764.3,170.7,763.6,171.5z"/>
			<path class="st4" d="M806.4,185.5c-5.2,6-6.9,13.5-7.3,21.2c-0.5,10.1,0.5,20.4,0.9,30.5c0.8,22.9,1,45.9,0.8,68.8
				c0,1.1,1.7,1.1,1.7,0c0.2-21.3,0-42.6-0.6-63.9c-0.3-9.9-0.9-19.8-1.1-29.7c-0.1-9.1,0.7-18.6,6.8-25.8
				C808.3,185.8,807.2,184.6,806.4,185.5z"/>
			<path class="st4" d="M641.1,183.5c5.2,6,6.9,13.5,7.3,21.2c0.5,10.1-0.5,20.4-0.9,30.5c-0.8,22.9-1,45.9-0.8,68.8
				c0,1.1-1.7,1.1-1.7,0c-0.2-21.3,0-42.6,0.6-63.9c0.3-9.9,0.9-19.8,1.1-29.7c0.1-9.1-0.7-18.6-6.8-25.8
				C639.2,183.9,640.4,182.7,641.1,183.5z"/>
			<path class="st4" d="M785.4,235.2c-5.3,10.7-8.1,22.2-11.3,33.6c-3.5,12.4-8.3,24-14.6,35.2c-12.6,22.2-28.4,42.6-46,61
				c-0.7,0.8,0.4,2,1.2,1.2c17.4-18.1,32.9-38.2,45.5-60c6.1-10.6,11.1-21.6,14.6-33.4c3.7-12.4,6.4-25.1,12.2-36.8
				C787.3,235,785.9,234.2,785.4,235.2z"/>
			<path class="st4" d="M692.3,386.5c-3.4,4.3-7.7,7.4-12.9,9.1c-1,0.3-0.6,1.9,0.4,1.6c5.4-1.8,10.1-5,13.7-9.5
				C694.2,386.8,693,385.7,692.3,386.5z"/>
			<path class="st4" d="M785.3,415.4c-39.7,14.6-83.6,15.4-123.8,2.2c-1-0.3-1.5,1.3-0.4,1.6c40.4,13.2,84.7,12.5,124.7-2.2
				C786.7,416.7,786.3,415.1,785.3,415.4z"/>
			<path class="st4" d="M1173,466.4c-40.2,13.3-87.2,11.8-127-2.7c-1-0.4-1.5,1.2-0.5,1.6c40,14.6,87.5,16.1,127.9,2.7
				C1174.4,467.7,1174.1,466.1,1173,466.4z"/>
			<path class="st4" d="M752.9,437.8c-4.8,4.3-8.5,9.8-12.3,15l-13.7,18.7c-0.6,0.9,0.8,1.7,1.4,0.8c4.3-5.8,8.5-11.6,12.8-17.4
				c4-5.5,7.8-11.3,13-15.9C754.9,438.3,753.7,437.1,752.9,437.8z"/>
			<path class="st10" d="M715.7,120.7c0.5,1.5,4.8-1.9,8.4-1.7c3.6,0.2,7.7,3.2,8.2,2c0.5-1.2-4-5.3-8.5-5.3
				C719.3,115.8,715.3,119.4,715.7,120.7z"/>
		</g>
		<path class="st9" d="M756.3,71.9c0,0,3.7-10.5,2.6-17.5c-1.1-7-6.9-12.9-10.9-13.6c-3.8-0.6-5.3-8.5-17.5-9.9
			c-12.2-1.4-16.1,3.4-18.9,4.9s-8.5-1.5-15,2.2s-6.2,7.8-9,11.8s-4.5,14.8,0.5,21.1c5,6.3,5-10.9,12.2-14.2
			c7.2-3.3,37.1-0.9,40.1,3.1s8.3,13.5,11.3,12.9C754.6,72.3,756.3,71.9,756.3,71.9z"/>
	</g>
	<g>
		<g>
			<path class="st10" d="M844,748.8c0,0-3.1,25.6-1.6,29.1c1.5,3.6,12.6,7.3,17.6,5.4c5-1.9,8.2-31.6,8.2-31.6L844,748.8z"/>
			<path class="st13" d="M865,774.5c0,0-3.5,4.2-12.3,2.9c-8.7-1.2-10.5-5.3-10.5-5.3s-0.8-3.7-3.2-2.8c-2.4,0.9-10.1,12.2-13,14.5
				c-2.9,2.3-19.5,11.3-20.6,13.7c-1.1,2.5-0.7,9.5,0.7,10.3c14.7,8.4,40.6-0.2,51.1-0.8c10.6-0.6,10.3-9.5,10.1-20.5
				C867,775.7,865,774.5,865,774.5z"/>
			<path class="st3" d="M455.5,802.3c0,0-1.5,0.1-0.3,4.7c0.5,3.7,7.2,4.7,12.8,5.1c3.8,0.2,19.9-0.6,32-2.7
				c7.5-1.3,14.9-2.8,17.3-4.7c2-1.8,1.9-7.2-0.5-7.6C515.7,795.9,455.5,802.3,455.5,802.3z"/>
			<path class="st5" d="M515.1,774.7c0,0-2.1,3.1-10.6,1.9c-8.3-1.2-10.7-4.8-10.7-4.8s-2.2,10.1-12.8,13.9
				c-10.6,3.7-21.7,8.9-24.3,12.1c-2.6,3.2-0.8,7.1,0.7,7.6c18.4,5.8,37.5-1.3,51.3-2.8c10.5-1.1,6.8-5.9,6.6-16.4
				C515.2,775.9,515.1,774.7,515.1,774.7z"/>
			<path class="st10" d="M993.3,748.8c0,0,3.1,25.6,1.6,29.1c-1.5,3.6-12.6,7.3-17.6,5.4c-5-1.9-8.2-31.6-8.2-31.6L993.3,748.8z"/>
			<path class="st13" d="M972.3,774.5c0,0,3.5,4.2,12.3,2.9c8.7-1.2,10.5-5.3,10.5-5.3s0.8-3.7,3.2-2.8c2.4,0.9,10.1,12.2,13,14.5
				s19.5,11.3,20.6,13.7c1.1,2.5,0.8,9.6-0.7,10.3c-14.8,7.2-40.6-0.2-51.1-0.8c-10.6-0.6-10.3-9.5-10.1-20.5
				C970.3,775.7,972.3,774.5,972.3,774.5z"/>
			<path class="st6" d="M842.7,403.2c0,0-6.4,170.7-6.4,211.5c0,22.2-1.7,81.8-1.7,111.1s-8.9,31.8,10.6,35.4s36.5-3.4,37.3-10.9
				c0.8-7.5,15.6-93.6,18.3-126.1c2.7-32.5,11.8-90.7,14-107.5c4.1-31.3,19.6-86.8,19.6-86.8L842.7,403.2z"/>
			<path class="st10" d="M959.4,165l-40.5,36.2L876,166c0,0,16.3-14.1,18.7-26.1c0.7-3.5,1-6.8,1-9.8c0-7.1-1.4-12.1-1.4-12.7
				l44.4-0.8c0,0,0,5.9,0.8,14.2c0.2,2.5,0.6,5.3,1,8.2C942.3,151.5,959.4,165,959.4,165z"/>
			<path class="st5" d="M939.4,130.9c-7.2,6-14.9,13.5-23.5,13.6c-7.5,0.1-14.9-9.5-20.3-14.3c0-7.1-1.4-12.1-1.4-12.7l44.4-0.8
				C938.6,116.7,938.6,122.6,939.4,130.9z"/>
			<path class="st10" d="M944.5,111c-3.6,10.4-18.5,23.2-27.1,23.2c-5.7,0-23.3-10.4-27.5-23.9c-2.3-7.1-6.4-58-6.4-58
				s21.4-13.4,32.1-14.5c10.7-1.1,32.5,12,32.9,15.1C948.7,55.5,945.9,107,944.5,111z"/>
			<path class="st10" d="M885.2,69.9c0,0-6.2,0.9-4.2,11.4c2,10.5,6.7,15.4,6.7,15.4l-0.4-21.4L885.2,69.9z"/>
			<path class="st10" d="M947.3,70.9c0,0,6.3,0.6,4.7,11.2c-1.6,10.6-6.1,15.6-6.1,15.6l-0.4-21.4L947.3,70.9z"/>
			<path class="st1" d="M925.1,72c1.7-1.4,4.6-1.6,9-1.3c4.4,0.4,6.4,2,5.7,2.7c-0.7,0.7-12.6,1.2-13.9,0.3
				C924.6,72.9,924.7,72.3,925.1,72z"/>
			<path class="st1" d="M906.5,71.8c-1.8-1.2-4.8-1.2-9.1-0.4c-4.3,0.8-6.2,2.6-5.5,3.3c0.8,0.7,12.6,0,13.9-1
				C907.1,72.6,906.9,72.1,906.5,71.8z"/>
			<path class="st5" d="M907.5,114.7c0.6,1.7,3.6-1,8.7-0.4c5.1,0.6,8,1.8,8.9,1c0.3-1-2.5-3.9-8.9-4.2
				C909.7,110.7,907.1,113.9,907.5,114.7z"/>
			<path class="st1" d="M884.9,69.9c0,0,3.5-2.2,8.9-12.2c5.4-10,10.4-8.5,20.7-4.5c10.4,4,8.6,1.6,19.5,2.8
				c11,1.1,13.6,15.4,13.6,15.4s13.1-2.7,11.6-14c-1.4-11.3-4.3-13.5-8.9-17c-4.6-3.6-2.7-10.2-10.5-14.5c-5.3-2.9-10-1.6-17.7-1.1
				c-7.7,0.5-13.7-8.2-25.5-2.6c-11.9,5.6-17.1,14.9-16.4,21.2c0.7,6.4-3.7,13.9-1.5,20.1S884.9,69.9,884.9,69.9z"/>
			<path class="st5" d="M916.4,84.2c0.4-0.9-1-1.7-1.4-0.8c-1.3,3-3.6,6.9-3.8,10.3c-0.2,2.5,1.8,4.6,3.4,6.3
				c0.7,0.8,1.9-0.4,1.1-1.2c-2.1-2.2-3.2-4.3-2.2-7.3C914.3,89,915.3,86.6,916.4,84.2z"/>
			<path class="st6" d="M993.7,429.6c-5.3-0.5-52.3,13.4-72.2,14.1c-19.9,0.6-83.8-14.9-83.9-22.3c-0.1-7.4-2.2-86.5-3-102.3
				c-0.8-15.7-4.9-122.1-2.1-132.1c1.1-4,29.5-18.8,44.1-26.3c1-0.5,2-1,2.8-1.4c3.6-1.8,5.8-2.9,5.8-2.9s24.2,27.1,31.3,26.7
				s34.7-25.6,34.7-25.6s3.3,1.7,8.2,4.2c0.9,0.5,1.9,1,2.9,1.6c12.6,6.7,31.6,17.4,33.9,22c3.4,7-3.3,102.7,0.8,126.1
				C999.6,325.3,1005.7,430.6,993.7,429.6z"/>
			<path class="st6" d="M993,408.5c0,0,4.8,68.6,7.9,119c5.9,95.9,2.5,221.6,1.9,228.1c-0.8,9.9-35.7,12.9-42.2,11
				s-5.5-24.6-10.1-49c-4.6-24.4-33.7-222.3-33.7-222.3v-67.9c0,0,12.2-26,23.9-24.2C952.5,404.9,993,408.5,993,408.5z"/>
			<path class="st10" d="M817.4,289c0.1,2,3.1,47.3,6.2,55.9c3.5,9.7,58.9,70.8,68.8,78.5c9.8,7.7,16.9-7.9,17.1-11.1
				c0.2-3.3-51.1-78.7-51.5-85.4c-0.4-6.7-1.2-42.2-1.2-42.2L817.4,289z"/>
			<path class="st10" d="M1016.3,290.5c-0.2,2,2.1,39.6-6.6,55.1c-7.5,13.3-61.5,70.1-71.5,77.5c-10,7.5-16.8-8.3-16.9-11.5
				c-0.1-3.3,53-77.4,53.5-84.1c0.5-6.7,2.2-42.1,2.2-42.1L1016.3,290.5z"/>
			<path class="st6" d="M834.1,185c0,0-11.1,9.3-13.5,21c-1.6,7.5-16.2,79.9-12.3,84.4c3.9,4.5,59.4,7.3,59.4,7.3
				s-10.4-69.6-10.5-74C857.1,219.3,834.1,185,834.1,185z"/>
			<path class="st6" d="M993,181.7c0,0,18.7,13.2,22.8,36.5s7.7,69.5,1.6,74.5c-6.1,5-52,2.1-52,2.1L993,181.7z"/>
			<path class="st10" d="M921.3,411.6c0,0-13.4,6.2-17.8,11.5c-4.4,5.3-9.1,13.5-4.9,18.1c4.2,4.6,19.6,5.2,28.3,2.4
				c8.7-2.7,11.2-20.5,11.2-20.5L921.3,411.6z"/>
			<path class="st10" d="M908.2,409.5c0,0,12.8,8.3,17.2,13.6c4.4,5.3,9.1,13.5,4.9,18.1c-4.2,4.6-19.6,5.2-28.3,2.4
				c-8.7-2.7-12.1-22.3-12.1-22.3L908.2,409.5z"/>
			<path class="st7" d="M955.3,167c-6.1,5.2-12.3,10.1-18.6,14.9c-3.2,2.4-6.5,4.8-9.8,7.1c-3.2,2.3-6.8,5.1-11,5
				c-4-0.1-7.5-2.7-10.6-4.9c-3.3-2.3-6.5-4.8-9.5-7.5c-5.4-4.8-10.2-10.3-14.5-16.1c-0.6-0.8-2,0-1.4,0.8
				c4.8,6.5,10.2,12.5,16.3,17.8c5,4.3,11.6,10.5,18.3,11.4c7.6,1,14.9-6.2,20.5-10.3c7.3-5.4,14.4-11.1,21.4-17
				C957.3,167.5,956.1,166.3,955.3,167z"/>
			<path class="st7" d="M864.9,258.4c-0.3-9.4-0.3-18.9-1.6-28.2c-2.3-16.5-10.3-31.4-23-42.2c-0.8-0.7-1.9,0.5-1.1,1.1
				c13.2,11.4,21,27,22.9,44.2c2.1,18.5,1.7,37.4,2.3,56c0,1,1.7,1,1.6,0C865.6,279,865.3,268.7,864.9,258.4z"/>
			<path class="st7" d="M987.8,187.5c-9.7,11.9-12.4,29.4-14.9,44.1c-2.9,17.1-3.9,34.4-3.2,51.7c0,1,1.7,1,1.6,0
				c-0.7-16.6,0.2-33.3,2.9-49.8c1.3-7.9,2.9-15.7,5-23.4c2.1-7.7,4.6-15.3,9.7-21.5C989.6,187.8,988.5,186.7,987.8,187.5z"/>
			<path class="st7" d="M956.1,254.4c-8.7,42.1-22.7,83-41.8,121.5c-0.5,0.9,0.9,1.8,1.4,0.8c19.1-38.7,33.2-79.7,41.9-121.9
				C957.9,253.8,956.3,253.4,956.1,254.4z"/>
			<path class="st7" d="M889,443.6c-13.8-2.4-27.2-6.2-40.2-11.5c-1-0.4-1.4,1.2-0.4,1.6c13,5.3,26.4,9.1,40.2,11.5
				C889.6,445.4,890,443.8,889,443.6z"/>
			<path class="st7" d="M982.3,434.4c-14.4,5.6-29.8,7.8-45,10.4c-1,0.2-0.6,1.7,0.4,1.6c15.2-2.6,30.6-4.7,45-10.4
				C983.7,435.6,983.3,434,982.3,434.4z"/>
			<path class="st7" d="M942,471.7c-8,5.7-15.7,11.8-23.1,18.3c-0.8,0.7,0.4,1.8,1.1,1.1c7.3-6.4,14.9-12.4,22.8-18
				C943.7,472.5,942.9,471.1,942,471.7z"/>
			<path class="st5" d="M914.5,414.6c-7.5,4.7-13.3,11.4-16.9,19.6c-0.4,0.9,1,1.8,1.4,0.8c3.4-7.9,9-14.4,16.3-19
				C916.2,415.4,915.4,414,914.5,414.6z"/>
		</g>
	</g>
	<g>
		<path d="M704.9,90.7c-0.1-3.1,1.1-4.4,2.4-4.4c1.3-0.1,2.1,1.1,2.2,4.3s-0.9,4.3-2.1,4.4C706.1,95,705,93.9,704.9,90.7z"/>
	</g>
	<g>
		<path d="M736.8,90.5c0-3.2,1.1-4.1,2.4-4.1c1.3,0,2.2,0.9,2.2,4.1c0,3.2-1,4.4-2.3,4.4C737.9,94.9,736.9,93.7,736.8,90.5z"/>
	</g>
	<g>
		<path d="M508.4,117.2c-0.4-2.7,0.6-3.9,1.6-4.1c1.1-0.2,1.9,0.8,2.3,3.5s-0.4,3.9-1.5,4C509.8,120.8,508.8,119.9,508.4,117.2z"/>
	</g>
	<g>
		<path d="M534,114.8c0-2.9,1-3.8,2.2-3.8c1.2,0,2,0.8,2,3.7c0,2.9-0.9,4.1-2.1,4.1C534.9,118.9,534,117.7,534,114.8z"/>
	</g>
	<g>
		<path d="M897.6,83.6c-0.1-3.1,1.1-4.4,2.4-4.4c1.3-0.1,2.1,1.1,2.2,4.3c0.1,3.1-0.9,4.3-2.1,4.4C898.8,87.8,897.7,86.7,897.6,83.6
			z"/>
	</g>
	<g>
		<path d="M930,83.1c0-3.2,1.1-4.1,2.4-4.1c1.3,0,2.2,0.9,2.2,4.1c0,3.2-1,4.4-2.3,4.4C931,87.5,930,86.2,930,83.1z"/>
	</g>
	<g>
		<path d="M1146.2,102.9c-0.2-3,0.8-3.9,2-4c1.2-0.1,2.1,0.7,2.3,3.7c0.2,3-0.7,4.2-1.9,4.3S1146.4,105.9,1146.2,102.9z"/>
	</g>
	<g>
		<path d="M1122.1,104.5c-0.2-3,0.9-4.2,2-4.3s2,1,2.2,3.9c0.2,3-0.6,4.1-1.8,4.2C1123.4,108.4,1122.4,107.4,1122.1,104.5z"/>
	</g>
	<polygon class="st7" points="952.8,238.4 938,236.8 952.5,223.3 952.7,225.5 	"/>
	
		<rect x="938.3" y="223" transform="matrix(0.999 4.452136e-02 -4.452136e-02 0.999 11.1802 -41.8561)" class="st5" width="14" height="14.1"/>
	<g>
		<defs>
			
				<rect id="SVGID_1_" x="938.9" y="223.7" transform="matrix(0.999 4.452136e-02 -4.452136e-02 0.999 11.1802 -41.8561)" width="12.7" height="12.7"/>
		</defs>
		<clipPath id="SVGID_00000183246767077478333450000007944466402303414442_">
			<use xlink:href="#SVGID_1_"  style="overflow:visible;"/>
		</clipPath>
		<g style="clip-path:url(#SVGID_00000183246767077478333450000007944466402303414442_);">
			<path class="st15" d="M951.5,236.7c-4.4-0.2-8.8-0.4-13.1-0.6c0.2-4.2,0.4-8.5,0.6-12.7c4.4,0.2,8.8,0.4,13.1,0.6
				C951.9,228.2,951.7,232.5,951.5,236.7z M944.3,229.2c1.1-1,2.1-2,3.2-3.1c-0.8,0-1.6-0.1-2.4-0.1c-1.6,1.6-3.3,3.2-4.9,4.7
				c0,1-0.1,2-0.1,3c0.7,0,1.3,0.1,2,0.1c0-0.9,0.1-1.8,0.1-2.7c0.2-0.2,0.5-0.4,0.7-0.7c0.7,1.2,1.4,2.4,2.1,3.5
				c0.8,0,1.5,0.1,2.3,0.1C946.3,232.4,945.3,230.8,944.3,229.2z M940.3,229.8C940.3,229.8,940.3,229.8,940.3,229.8
				c0.7-0.7,1.4-1.3,2-1.9c0,0,0.1-0.1,0.1-0.1c0-0.6,0.1-1.2,0.1-1.8c0,0,0,0,0-0.1c-0.7,0-1.3-0.1-2-0.1
				C940.4,227.1,940.3,228.4,940.3,229.8z M949,234.2c0.7,0.1,1.4-0.5,1.5-1.3c0-0.8-0.6-1.4-1.3-1.5c-0.8,0-1.4,0.6-1.5,1.3
				C947.6,233.5,948.3,234.2,949,234.2z"/>
			<path class="st16" d="M944.3,229.2c1,1.6,2,3.3,3,4.9c-0.8,0-1.5-0.1-2.3-0.1c-0.7-1.2-1.4-2.3-2.1-3.5c-0.2,0.2-0.5,0.4-0.7,0.7
				c0,0.9-0.1,1.8-0.1,2.7c-0.7,0-1.3-0.1-2-0.1c0-1,0.1-2,0.1-3c1.6-1.6,3.3-3.2,4.9-4.7c0.8,0,1.6,0.1,2.4,0.1
				C946.4,227.1,945.4,228.1,944.3,229.2z"/>
			<path class="st16" d="M940.3,229.8c0.1-1.3,0.1-2.7,0.2-4c0.7,0,1.3,0.1,2,0.1c0,0,0,0,0,0.1c0,0.6-0.1,1.2-0.1,1.8
				c0,0.1,0,0.1-0.1,0.1C941.6,228.5,941,229.1,940.3,229.8C940.3,229.8,940.3,229.8,940.3,229.8z"/>
			<path class="st16" d="M949,234.2c-0.7,0-1.4-0.7-1.3-1.5c0.1-0.7,0.6-1.3,1.5-1.3c0.8,0,1.4,0.7,1.3,1.5
				C950.5,233.7,949.7,234.3,949,234.2z M948.4,232.8c0,0.4,0.3,0.7,0.6,0.7c0.4,0,0.7-0.3,0.7-0.7c0-0.4-0.3-0.7-0.6-0.7
				C948.8,232.1,948.4,232.4,948.4,232.8z"/>
			<path class="st15" d="M948.4,232.8c0-0.4,0.3-0.7,0.7-0.6c0.4,0,0.7,0.3,0.6,0.7c0,0.4-0.3,0.7-0.7,0.7
				C948.7,233.5,948.4,233.2,948.4,232.8z"/>
		</g>
	</g>
	<path class="st3" d="M585,810.9c0,0,2.8-14.4-14.1-15.1c0,0,1.7-1.4,2.7-1.9c0.9-0.5,2.5-1.2,2.5-1.2s10-1.1,14.8,5.3
		c3.2,4.2,2.5,11.4,2.5,11.4l-4,1.3L585,810.9z"/>
	<path class="st3" d="M478.5,808.2c0,0,5.2-13.7-11.4-16.8c0,0,1.7-0.9,2.8-1.4c0.9-0.4,2.7-1,2.7-1s9.9,0.4,13.7,7.3
		c2.5,4.6,0.8,11.6,0.8,11.6l-4.1,0.7L478.5,808.2z"/>
	<path class="st11" d="M1028,794.2c0,0-2.4,4.1,0.7,5.6c3.1,0.7,3.9,0.3,3.9,0.3s-0.1-2-0.7-2.8C1031,796.2,1028,794.2,1028,794.2z"
		/>
	<path class="st11" d="M1026.1,796.4c-1.1-1.2-2.4-0.9-3.5,0c-1.1,0.9,0.1,2.7,1.7,2.7C1026.4,799,1027.4,797.8,1026.1,796.4z"/>
	<path class="st11" d="M1020.2,794.2c0.4,1.2,1.4,1.4,2.4,1.1c1-0.3,0.8-1.9-0.4-2.4C1020.8,792.3,1019.8,792.8,1020.2,794.2z"/>
	<path class="st11" d="M1025.4,794.4c-0.4-0.7-1.3,0.2-0.9,0.6C1024.9,795.4,1026,795.3,1025.4,794.4z"/>
	<path class="st11" d="M977.9,801.4c-1.1-1.2-2.4-0.9-3.5,0c-1.1,0.9,0.1,2.7,1.7,2.7C978.1,804.1,979.1,802.9,977.9,801.4z"/>
	<path class="st11" d="M972,799.3c0.4,1.2,1.4,1.4,2.4,1.1s0.8-1.9-0.4-2.4C972.6,797.3,971.5,797.9,972,799.3z"/>
	<path class="st11" d="M977.2,799.5c-0.4-0.7-1.3,0.2-0.9,0.6C976.6,800.4,977.7,800.4,977.2,799.5z"/>
	<path class="st11" d="M1024.4,804.4c0.4,2.6,4.2,0.8,4.3-0.5c0.1-1.3-1-2.8-2.4-2.7C1024.9,801.2,1023.9,801.5,1024.4,804.4z"/>
	<path class="st11" d="M1015.2,803.3c0.3,2.1,3.3,0.6,3.4-0.4c0.1-1.1-0.8-2.2-1.9-2.2C1015.5,800.8,1014.8,801,1015.2,803.3z"/>
	<path class="st11" d="M1022.8,803.7c0.7,0.9,1.5,0,1-1c-0.5-1-0.9-0.5-1.3-0.1C1022.2,802.9,1022.8,803.7,1022.8,803.7z"/>
	<path class="st11" d="M1019.5,801.4c1,1.3,2.1,0,1.4-1.4c-0.7-1.4-1.3-0.7-1.8-0.2C1018.6,800.3,1019.5,801.4,1019.5,801.4z"/>
	<path class="st11" d="M1017.8,805.6c0.7,0.9,1.5,0,1-1c-0.5-1-0.9-0.5-1.3-0.1C1017.2,804.8,1017.8,805.6,1017.8,805.6z"/>
	<path class="st11" d="M1013.3,806.9c0,0-1.7,0.3-4.1,0s-3.5-0.7-3.5-0.7s-0.8-3.8,3.5-3.5C1012.5,803,1013.4,805,1013.3,806.9z"/>
	<path class="st11" d="M1011.5,802.1c0.3,0.6,1.8,0.5,1.7-0.4c-0.1-0.9-0.8-1-1.3-0.8C1011.1,801.1,1011.5,802.1,1011.5,802.1z"/>
	<path class="st11" d="M1032.7,802.6c0,0-2.8,2.6-8.2,3.1c-5.4,0.6-16.9,0.2-18.7,0.5c-5.7,1.1-18.4,1.8-18.3,1.8
		c0,0,15.6,2.6,23.2,2.9c5.2,0.2,10.3,0.1,15.1-1c4.9-1.1,4.8-1.3,5.5-1.8C1031.9,807.6,1032.8,806.1,1032.7,802.6z"/>
	<path class="st11" d="M809.3,794.1c0,0,2.4,4.1-0.7,5.6c-3.1,0.7-3.9,0.3-3.9,0.3s0.1-2,0.7-2.8
		C806.3,796.1,809.3,794.1,809.3,794.1z"/>
	<path class="st11" d="M811.2,796.3c1.1-1.2,2.4-0.9,3.5,0c1.1,0.9-0.1,2.7-1.7,2.7C810.9,798.9,809.9,797.7,811.2,796.3z"/>
	<path class="st11" d="M817.1,794.2c-0.4,1.2-1.4,1.4-2.4,1.1s-0.8-1.9,0.4-2.4C816.5,792.2,817.5,792.7,817.1,794.2z"/>
	<path class="st11" d="M811.9,794.3c0.4-0.7,1.3,0.2,0.9,0.6C812.4,795.3,811.3,795.3,811.9,794.3z"/>
	<path class="st11" d="M812.9,804.3c-0.4,2.6-4.2,0.8-4.3-0.5c-0.1-1.3,1-2.8,2.4-2.7S813.4,801.5,812.9,804.3z"/>
	<path class="st11" d="M822.1,803.2c-0.3,2.1-3.3,0.6-3.4-0.4c-0.1-1.1,0.8-2.2,1.9-2.2S822.5,801,822.1,803.2z"/>
	<path class="st11" d="M814.5,803.7c-0.7,0.9-1.5,0-1-1c0.5-1,0.9-0.5,1.3-0.1C815.1,802.9,814.5,803.7,814.5,803.7z"/>
	<path class="st11" d="M817.8,801.3c-1,1.3-2.1,0-1.4-1.4c0.7-1.4,1.3-0.7,1.8-0.2S817.8,801.3,817.8,801.3z"/>
	<path class="st11" d="M819.5,805.5c-0.7,0.9-1.5,0-1-1c0.5-1,0.9-0.5,1.3-0.1C820.1,804.7,819.5,805.5,819.5,805.5z"/>
	<path class="st11" d="M864.4,801c-0.3,2.1-3.3,0.6-3.4-0.4c-0.1-1.1,0.8-2.2,1.9-2.2C864,798.4,864.7,798.7,864.4,801z"/>
	<path class="st11" d="M860.1,799.1c-1,1.3-2.1,0-1.4-1.4s1.3-0.7,1.8-0.2S860.1,799.1,860.1,799.1z"/>
	<path class="st11" d="M861.7,803.2c-0.7,0.9-1.5,0-1-1c0.5-1,0.9-0.5,1.3-0.1C862.3,802.4,861.7,803.2,861.7,803.2z"/>
	<path class="st11" d="M825,807.3c0,0,1.7,0.5,4,0.4c2.4-0.1,3.5-0.4,3.5-0.4s1.2-3.7-3.2-3.8C826.1,803.5,825.1,805.4,825,807.3z"
		/>
	<path class="st11" d="M825.8,802c-0.3,0.6-1.8,0.5-1.7-0.4c0.1-0.9,0.8-1,1.3-0.8C826.2,801,825.8,802,825.8,802z"/>
	<path class="st11" d="M804.6,802.5c0,0,2.9,2.1,8.2,3.1c7.7,1.4,17.5,1.4,19.3,1.7c5.7,1.1,18.1,0.7,18.1,0.7c0,0-16.4,3.3-24,3.5
		c-5.2,0.2-9.4,0.1-14.2-1.1c-4.9-1.1-5.2-1.9-5.9-2.5C805.4,807.5,804.5,806,804.6,802.5z"/>
	<path d="M1085,802.6c0,0-2-15.3,14.9-15.3c0,0-1.6-1.4-2.6-2.1c-0.8-0.5-2.5-1.3-2.5-1.3s-8.3-1.3-13.7,3.9
		c-3.8,3.6-4.6,12.6-4.6,12.6l4.2,0.8L1085,802.6z"/>
	<path d="M1175,801.5c0,0-5-14.7,11.7-16.8c0,0-1.6-1-2.6-1.4c-0.9-0.4-2.9-1.1-2.9-1.1s-7.2-0.6-12,5.2c-3.3,4.1-3,13.1-3,13.1
		l4.3,0.3L1175,801.5z"/>
</g>
</svg>
