<?xml version="1.0" encoding="utf-8"?>
<!-- Generator: Adobe Illustrator 27.0.1, SVG Export Plug-In . SVG Version: 6.00 Build 0)  -->
<svg version="1.1" id="Lager_1" xmlns="http://www.w3.org/2000/svg" xmlns:xlink="http://www.w3.org/1999/xlink" x="0px" y="0px"
	 viewBox="0 0 1600 900" style="enable-background:new 0 0 1600 900;" xml:space="preserve">
<style type="text/css">
	.st0{fill:#500B00;}
	.st1{fill:#7D7B7B;}
	.st2{fill:#42210B;}
	.st3{fill:#454545;}
	.st4{fill:#A47265;}
	.st5{fill:#A07162;}
	.st6{fill:#7E725F;}
	.st7{fill:#926553;}
	.st8{fill:#939C93;}
	.st9{fill:#706650;}
	.st10{fill:#727B73;}
	.st11{fill:#FFFFFF;}
	.st12{font-family:'FoundersGrotesk-Bold';}
	.st13{font-size:37.7653px;}
	.st14{fill:#E1EBE3;}
	.st15{clip-path:url(#SVGID_00000160168493734706710240000016749286177974567077_);fill:#E1EBE3;}
	.st16{clip-path:url(#SVGID_00000160168493734706710240000016749286177974567077_);}
	.st17{fill:#48524A;}
	.st18{letter-spacing:-1;}
	.st19{letter-spacing:-2;}
	.st20{clip-path:url(#SVGID_00000005261427498352226760000009578101163496089992_);fill:#E1EBE3;}
	.st21{clip-path:url(#SVGID_00000005261427498352226760000009578101163496089992_);}
	.st22{clip-path:url(#SVGID_00000097464978116867803860000011706914079197032325_);fill:#E1EBE3;}
	.st23{clip-path:url(#SVGID_00000097464978116867803860000011706914079197032325_);}
	.st24{fill:#96672C;}
	.st25{fill:#F3F3F3;}
	.st26{fill:#013F4B;}
	.st27{fill:#6B410C;}
	.st28{fill:#002B33;}
	.st29{fill:#B7D8DC;}
</style>
<g>
	<ellipse class="st0" cx="653.8" cy="845.7" rx="361.3" ry="22.6"/>
	<ellipse class="st0" cx="1011.7" cy="863.5" rx="235.5" ry="17.5"/>
</g>
<g>
	<polygon class="st1" points="410.4,809.5 606,806.5 886,809.5 653.8,815.1 	"/>
	<polygon class="st2" points="886,810.5 605.9,807.5 410.4,810.5 410.4,808.5 605.9,805.5 886.1,808.5 	"/>
	<path class="st1" d="M568.1,815.9V420.1c0-15.7-12.8-28.5-28.5-28.5s-28.5,12.8-28.5,28.5v395.8H568.1"/>
	<path class="st2" d="M570,817.7h-60.7V420.1c0-16.7,13.6-30.3,30.3-30.3s30.3,13.6,30.3,30.3V817.7 M513,814h53.2V420.1
		c0-14.7-11.9-26.6-26.6-26.6S513,405.4,513,420.1V814"/>
	<path class="st3" d="M578.9,815.9V420.1c0-15.7-12.8-28.5-28.5-28.5c-15.7,0-28.5,12.8-28.5,28.5v395.8H578.9"/>
	<path class="st2" d="M580.7,817.7H520V420.1c0-16.7,13.6-30.3,30.3-30.3s30.3,13.6,30.3,30.3V817.7 M523.7,814H577V420.1
		c0-14.7-11.9-26.6-26.6-26.6c-14.7,0-26.6,11.9-26.6,26.6V814"/>
	<path class="st1" d="M570.4,429.6c0,11.6-7.5,21-16.7,21c-9.2,0-16.7-9.4-16.7-21s7.5-21,16.7-21
		C562.9,408.6,570.4,418,570.4,429.6"/>
	<path class="st2" d="M553.7,452.5c-10.2,0-18.6-10.3-18.6-22.9c0-12.6,8.3-22.9,18.6-22.9c10.2,0,18.6,10.3,18.6,22.9
		C572.2,442.2,563.9,452.5,553.7,452.5 M553.7,410.4c-8.2,0-14.8,8.6-14.8,19.2c0,10.6,6.7,19.2,14.8,19.2c8.2,0,14.8-8.6,14.8-19.2
		C568.5,419,561.8,410.4,553.7,410.4"/>
	<polyline class="st4" points="626.1,223 484.1,229.9 377.6,339.8 518.9,340.7 625.2,224.6 	"/>
	<path class="st5" d="M516.6,350.6L370.2,350l0.6,168l61.2-0.9l0.5-58.1l34.6,0.6l23.2-55.4l20.4,8.4c0.8-2.8,2-6,3.4-8.4l1.7-52"/>
	<path class="st6" d="M513.9,404.1c-1.5,2.4-2.6,5-3.4,7.7l3.4,1.5L513.9,404.1"/>
	<path class="st7" d="M600.2,618.3l-12.4,2.7l-8,18l-0.1,0.8l0.2,4.5l46.4,2.4l-26-28.8 M435.8,589.1l46.2,50.4l27.8,1.1l0.3-5.5
		l-6.9-28.9L435.8,589.1 M432.4,528.7l-53.4,0.5l56.2,60.5l11.8-42.7l-14.3-0.2l-0.7-17.4"/>
	<polyline class="st8" points="520,637.9 513,639.6 513,640 520,640.3 520,637.9 	"/>
	<path class="st9" d="M513,639.6l-1.7,0.4l1.7,0.1V639.6 M509.3,634.5v5.4l1.3,0.1L509.3,634.5"/>
	<polyline class="st10" points="558.3,628.9 523.7,637 523.7,640.5 577,642.9 577,637 558.3,628.9 	"/>
	<path class="st9" d="M523.7,637l-3.7,0.9v2.4l3.7,0.2V637 M577,637v5.9l3.7,0.2v-4.4L577,637"/>
	<polyline class="st11" points="670.2,435 633.2,499 530.4,439.6 567.4,375.6 670.2,435 	"/>
	<path class="st3" d="M633.9,501.5l-106-61.2l38.8-67.2l106,61.2L633.9,501.5 M532.9,439l99.6,57.5l35.1-60.8L568,378.2L532.9,439"
		/>
	<polyline class="st11" points="771.4,391.6 832.3,452.5 734.4,550.3 673.5,489.4 771.4,391.6 	"/>
	<path class="st3" d="M734.4,552.9l-63.5-63.5l100.5-100.5l63.5,63.5L734.4,552.9 M676.2,489.4l58.3,58.3l95.2-95.2l-58.3-58.3
		L676.2,489.4"/>
	<polyline class="st11" points="571.5,460.1 571.5,546.2 433.1,546.2 433.1,460.1 571.5,460.1 	"/>
	<path class="st3" d="M573.3,548.1H431.3v-89.8h142.1V548.1 M435,544.3h134.6v-82.4H435V544.3"/>
	<polyline class="st11" points="617.9,460.3 583.7,539.3 456.7,484.4 490.9,405.4 617.9,460.3 	"/>
	<g>
		<path d="M489.9,466.3c-6.4-2.7-9.5-9.4-6.7-16.1s9.8-9.3,16.1-6.7c6.4,2.7,9.5,9.4,6.7,16.1S496.3,469,489.9,466.3z M497.2,448.7
			c-3.2-1.3-6.3,0.2-7.9,4c-1.6,3.7-0.5,7,2.7,8.4c3.2,1.3,6.3-0.2,7.9-4C501.5,453.4,500.5,450.1,497.2,448.7z"/>
		<path d="M509.6,474l0.7-25.5l6.2,2.6l-0.6,16.9l0.1,0.1l11.5-12.4l5.9,2.4l-17.6,18.5L509.6,474z"/>
		<path d="M546.8,463.7l-0.4,25.6l-6.3-2.6l0.1-4.9l-8.6-3.6l-3.4,3.6l-6-2.5l17.9-18.3L546.8,463.7z M535.2,474.4l5.2,2.1l0.2-7.5
			l-0.1-0.1L535.2,474.4z M540.2,453.6l5,2.1l-2.1,5l-5-2.1L540.2,453.6z M546.7,456.3l5,2.1l-2.1,5l-5-2.1L546.7,456.3z"/>
		<path d="M557.2,468l8.7,3.6c7.3,3,10.1,9,7.2,15.9c-2.9,6.9-9.1,9.1-16.4,6.1l-8.7-3.6L557.2,468z M558.3,488.7
			c3.8,1.6,7.1,0.2,8.7-3.8c1.7-4,0.3-7.2-3.5-8.8l-2.3-1l-5.2,12.6L558.3,488.7z"/>
		<path d="M588.2,506.6l-17.3-7.2l9.1-22l17,7.1l-2,4.9l-11.2-4.6l-1.5,3.6l8.6,3.6l-2,4.8l-8.6-3.6l-1.6,3.8l11.5,4.8L588.2,506.6z
			"/>
		<path d="M604.8,513.5c-0.2-0.8,0.1-2.3,0.8-4.6c0.9-2.6,0-3.6-2-4.4l-3.9-1.6l-3,7.3l-5.8-2.4l9.1-22l11.1,4.6
			c5.7,2.4,7.4,6.2,5.6,10.5c-1.3,3.2-4.2,4.5-7,3.7c2.1,1.4,2.9,3.2,2.1,5.9c-1,3.4-1.3,4.4-1,5.5L604.8,513.5z M605.8,500.1
			c2.5,1,4,0.9,4.9-1.1c0.7-1.8-0.1-3.2-2.6-4.3l-4.2-1.8l-2.2,5.4L605.8,500.1z"/>
	</g>
	<path class="st3" d="M584.7,541.7l-130.4-56.4l35.6-82.5l130.4,56.4L584.7,541.7 M459.1,483.4l123.6,53.4l32.7-75.6l-123.6-53.4
		L459.1,483.4"/>
	<polyline class="st11" points="512,637.9 492.3,554.1 627,522.4 646.7,606.2 512,637.9 	"/>
	<path class="st3" d="M510.6,640.1l-20.6-87.5l138.3-32.5l20.6,87.5L510.6,640.1 M494.5,555.4l18.9,80.2l131.1-30.8l-18.9-80.2
		L494.5,555.4"/>
	<polyline class="st11" points="502.2,570.7 482.5,486.8 617.2,455.2 636.9,539 502.2,570.7 	"/>
	<path class="st3" d="M500.8,572.9l-20.6-87.5L618.6,453l20.6,87.5L500.8,572.9 M484.7,488.2l18.9,80.2l131.1-30.8l-18.9-80.2
		L484.7,488.2"/>
	<polyline class="st11" points="603.8,515 625.3,431.6 759.2,466.1 737.7,549.5 603.8,515 	"/>
	<path class="st3" d="M739.1,551.8l-137.6-35.5l22.4-87l137.6,35.5L739.1,551.8 M606,513.6l130.4,33.6l20.6-79.8l-130.4-33.6
		L606,513.6"/>
	<polyline class="st11" points="696.2,582.2 717.7,498.8 851.6,533.3 830.1,616.7 696.2,582.2 	"/>
	<path class="st3" d="M831.5,619l-137.6-35.5l22.4-87L853.9,532L831.5,619 M698.4,580.8l130.4,33.6l20.6-79.8L719,501L698.4,580.8"
		/>
	<polyline class="st11" points="522.6,505.2 544.1,421.8 678,456.3 656.5,539.7 522.6,505.2 	"/>
	<path class="st3" d="M657.9,542l-137.6-35.5l22.4-87L680.3,455L657.9,542 M524.8,503.8l130.4,33.6l20.6-79.8L545.4,424L524.8,503.8
		"/>
	<polyline class="st11" points="437.2,587.8 458.6,504.4 592.6,538.9 571.1,622.3 437.2,587.8 	"/>
	<path class="st3" d="M572.5,624.6l-137.6-35.5l22.4-87l137.6,35.5L572.5,624.6 M439.4,586.4L569.8,620l20.6-79.8L460,506.6
		L439.4,586.4"/>
	<polyline class="st11" points="694.8,516.4 716.3,433 850.2,467.5 828.7,550.9 694.8,516.4 	"/>
	<path class="st3" d="M830.1,553.2l-137.6-35.5l22.4-87l137.6,35.5L830.1,553.2 M697,515l130.4,33.6l20.6-79.8l-130.4-33.6L697,515"
		/>
	<polyline class="st11" points="502.2,575.3 532.3,494.6 662,543 631.9,623.7 502.2,575.3 	"/>
	<path class="st3" d="M632.9,626.1l-133.1-49.7l31.4-84.2l133.1,49.7L632.9,626.1 M504.6,574.2l126.1,47.1l28.8-77.2L533.4,497
		L504.6,574.2"/>
	<polyline class="st11" points="705.5,604.2 633.9,556.4 710.7,441.3 782.3,489.1 705.5,604.2 	"/>
	<path class="st3" d="M706,606.8l-74.7-49.9l78.9-118.1l74.7,49.9L706,606.8 M636.5,555.8l68.5,45.8l74.8-112l-68.5-45.8
		L636.5,555.8"/>
	<polyline class="st11" points="733.3,599.3 676.7,534.4 780.9,443.4 837.5,508.3 733.3,599.3 	"/>
	<path class="st3" d="M733.1,601.9l-59.1-67.7l107-93.4l59.1,67.7L733.1,601.9 M679.3,534.6l54.2,62.1l101.4-88.5L780.7,446
		L679.3,534.6"/>
	<polyline class="st11" points="648.1,622 582.3,566.5 671.5,460.8 737.3,516.3 648.1,622 	"/>
	<path class="st3" d="M648.3,624.7l-68.7-57.9l91.6-108.6l68.7,57.9L648.3,624.7 M584.9,566.3l63,53.1l86.8-102.9l-63-53.1
		L584.9,566.3"/>
	<polyline class="st11" points="684,579.8 609.5,622.8 540.3,503 614.9,460 684,579.8 	"/>
	<path class="st3" d="M608.8,625.4l-71-123l77.8-44.9l71,123L608.8,625.4 M542.8,503.7l67.3,116.6l71.4-41.2l-67.3-116.6
		L542.8,503.7"/>
	<polyline class="st11" points="724.7,581.2 650.1,624.2 580.9,504.4 655.5,461.4 724.7,581.2 	"/>
	<path class="st3" d="M649.4,626.8l-71-123l77.8-44.9l71,123L649.4,626.8 M583.4,505.1l67.3,116.6l71.4-41.2l-67.3-116.6
		L583.4,505.1"/>
	<polyline class="st11" points="679.5,632.4 636.5,557.8 756.3,488.7 799.3,563.2 679.5,632.4 	"/>
	<path class="st3" d="M678.8,635l-44.9-77.8l123-71l44.9,77.8L678.8,635 M639,558.5l41.2,71.4l116.6-67.3l-41.2-71.4L639,558.5"/>
	<polyline class="st11" points="680.3,631.3 673.6,545.5 811.5,534.6 818.3,620.4 680.3,631.3 	"/>
	<path class="st3" d="M678.6,633.3l-7.1-89.6l141.6-11.2l7.1,89.6L678.6,633.3 M675.6,547.2l6.5,82.1l134.2-10.6l-6.5-82.1
		L675.6,547.2"/>
	<polyline class="st11" points="609.2,568.4 579.9,636.2 470.9,589.1 500.3,521.3 609.2,568.4 	"/>
	<path class="st3" d="M580.9,638.7l-112.4-48.6l30.8-71.2l112.4,48.6L580.9,638.7 M473.4,588.1l105.6,45.6l27.9-64.4l-105.6-45.6
		L473.4,588.1"/>
	<g>
		<path d="M512.4,579.3l-2.3-11.3l-2.8,1.2l-2.9,6.6l-5.9-2.6l9.5-21.8l5.9,2.6l-3.9,8.8l11.7-5.4l6.7,2.9l-12.5,5.6l3.4,16.4
			L512.4,579.3z"/>
		<path d="M534.5,588.9c-0.2-0.8,0.1-2.3,0.9-4.6c0.9-2.6,0.1-3.6-1.9-4.5l-3.9-1.7l-3.2,7.2l-5.8-2.5l9.5-21.8l11,4.8
			c5.6,2.5,7.3,6.4,5.4,10.6c-1.4,3.2-4.3,4.4-7.1,3.6c2.1,1.4,2.8,3.3,1.9,5.9c-1.1,3.4-1.4,4.4-1,5.5L534.5,588.9z M535.8,575.5
			c2.5,1.1,4,1,4.9-1c0.8-1.8-0.1-3.2-2.6-4.3l-4.2-1.8l-2.3,5.3L535.8,575.5z"/>
		<path d="M558.2,573.3l-9.5,21.8l-5.9-2.6l9.5-21.8L558.2,573.3z"/>
		<path d="M555.7,585.2c2.9-6.7,9.9-9.2,16.2-6.4c6.4,2.8,8.6,7.9,6.7,13.6l-5.8-2.3c0.7-2.5-0.3-4.8-3.1-6c-3.4-1.5-6.4,0.1-8,3.8
			c-1.7,3.8-0.8,7.2,3,8.9c1.9,0.8,4.1,0.9,5.7-0.5l-4.8-2.1l1.8-4.2l10.4,4.5l-4.9,11.3l-5.1-2.2l1.1-2.4c-2.1,1.5-4.8,1.3-7.6,0.1
			C555.4,598.5,552.8,592,555.7,585.2z"/>
	</g>
	<polyline class="st11" points="699.5,633.2 638.5,591.5 705.5,493.5 766.5,535.2 699.5,633.2 	"/>
	<path class="st3" d="M700,635.8l-64.1-43.8l69.1-101l64.1,43.8L700,635.8 M641.1,591l57.9,39.6l64.9-94.9L706,496.1L641.1,591"/>
	<text transform="matrix(0.5631 -0.8264 0.8264 0.5631 687.4061 605.8453)" class="st12 st13">FRED</text>
	<path class="st7" d="M819,615.7l1,7l5.6-6l-5.9-1.4 M663.6,220.5H649l-12.5-0.7L521.6,345.3l1.1,51.7c4.6-2.8,32.6-5.6,34.6-5.1
		l10-16.3L670.2,435l-2.8,6.5l35.9,9.3l7.8-10.7l1.4,0.1l2.5-9.5l11.7,3l44.7-42.9l59.5,62.2l-3.2,6.7l22.6,7.8l-16.3,62.1l17.7,3.7
		l-18.8,76.5l81.7-87.6l1.4-176.7L801.8,221.5L663.6,220.5"/>
	<path class="st8" d="M535.2,393.9c-4.2,0.7-8,2.4-11.3,4.8l0,6.7C526.5,400.6,530.4,396.6,535.2,393.9"/>
	<path class="st9" d="M539.6,389.8c-5.8,0-11.2,1.6-15.8,4.4l0,4.5c3.3-2.4,7.1-4.1,11.3-4.8c3-1.7,6.3-3,9.8-3.6
		C543.3,389.9,541.5,389.8,539.6,389.8"/>
	<path class="st10" d="M550.4,393.5c-13.8,0-25.2,10.6-26.5,24.1l12.1,5.2c1.6-6.3,5.4-11.5,10.2-14.1l8.6-14.8
		C553.3,393.6,551.8,393.5,550.4,393.5"/>
	<path class="st9" d="M550.4,389.8c-1.8,0-3.6,0.2-5.4,0.5c-3.5,0.6-6.8,1.9-9.8,3.6c-4.7,2.8-8.7,6.8-11.3,11.6l0,12.1l0.1,0
		c1.3-13.5,12.7-24.1,26.5-24.1c1.5,0,2.9,0.1,4.3,0.4l2-3.4C554.6,390,552.5,389.8,550.4,389.8"/>
	<path class="st9" d="M546.1,408.7c-4.9,2.7-8.6,7.8-10.2,14.1l1.6,0.7L546.1,408.7"/>
	<path class="st14" d="M541.5,424.1L541,425l0.3,0.1L541.5,424.1 M568,378.2l-24,41.7l77.2,19.9l2.7-10.4l41.3,10.6l2.5-4.3
		L568,378.2"/>
	<polyline class="st10" points="566.7,373.1 556.7,390.4 554.7,393.8 546.1,408.7 537.6,423.5 541,425 541.5,424.1 542.7,419.5 
		544,419.8 568,378.2 667.6,435.7 665.2,439.9 668.9,440.9 672.7,434.3 566.7,373.1 	"/>
	<polyline class="st14" points="771.4,394.2 730.8,434.8 774.9,446.2 781.1,440.8 788.9,449.8 823.4,458.7 829.6,452.5 771.4,394.2 
			"/>
	<polyline class="st10" points="771.4,388.9 726.6,433.7 730.8,434.8 771.4,394.2 829.6,452.5 823.4,458.7 827.6,459.8 834.9,452.5 
		771.4,388.9 	"/>
	<polyline class="st14" points="523.8,421.6 523.7,446.7 534.5,451.2 540.3,428.8 523.8,421.6 	"/>
	<g>
		<defs>
			<polyline id="SVGID_1_" points="523.7,446.7 523.6,475.3 528.7,474.1 534.5,451.2 523.7,446.7 			"/>
		</defs>
		<clipPath id="SVGID_00000109718346117153126560000010931822458846686377_">
			<use xlink:href="#SVGID_1_"  style="overflow:visible;"/>
		</clipPath>
		
			<rect x="523.6" y="446.7" style="clip-path:url(#SVGID_00000109718346117153126560000010931822458846686377_);fill:#E1EBE3;" width="11" height="28.6"/>
		<g style="clip-path:url(#SVGID_00000109718346117153126560000010931822458846686377_);">
			<text transform="matrix(0.9235 0.3836 -0.3836 0.9235 478.0252 460.9095)"><tspan x="0" y="0" class="st17 st12 st13 st18">O</tspan><tspan x="25.1" y="0" class="st17 st12 st13 st19">V</tspan><tspan x="47.9" y="0" class="st17 st12 st13">ÄDER</tspan></text>
		</g>
	</g>
	<polyline class="st10" points="523.8,417.6 523.8,421.6 540.3,428.8 541.3,425.1 541,425 537.6,423.5 535.9,422.8 523.9,417.6 
		523.8,417.6 	"/>
	<path class="st14" d="M523.4,507.3l0,5.9l2-5.4L523.4,507.3 M527.6,478.2l-4.1,1l-0.1,15L527.6,478.2"/>
	<polyline class="st10" points="528.7,474.1 523.6,475.3 523.5,479.1 527.6,478.2 528.7,474.1 	"/>
	<polyline class="st14" points="626.6,433.8 624.8,440.7 680.3,455 678,463.8 687.9,472.2 700.7,452.9 626.6,433.8 	"/>
	<polyline class="st10" points="623.9,429.3 621.2,439.7 624.8,440.7 626.6,433.8 700.7,452.9 702.9,449.7 668.9,440.9 665.2,439.9 
		623.9,429.3 	"/>
	<polyline class="st14" points="835.8,531.1 830.1,553.2 814.5,549.1 819.5,612 827.4,614.1 829.5,611.9 849.4,534.6 835.8,531.1 	
		"/>
	<path class="st10" d="M819.5,612l0.3,3.9l4.7,1.2l2.9-3.1L819.5,612 M836.7,527.5l-0.9,3.6l13.6,3.5l-19.9,77.2l5.3-5.7l19.1-74.2
		L836.7,527.5"/>
	<polyline class="st14" points="545.4,424 524.8,503.8 526.7,504.3 531.2,492.2 545.8,497.7 615.6,457.4 626.3,476.1 656.2,458.8 
		662.1,469 671.3,458.1 674.8,461.2 675.8,457.6 545.4,424 	"/>
	<polyline class="st10" points="542.7,419.5 541.5,424.1 541.3,425.1 540.3,428.8 534.5,451.2 528.7,474.1 527.6,478.2 523.5,494.1 
		523.4,507.3 525.4,507.8 526.7,504.3 524.8,503.8 545.4,424 675.8,457.6 674.8,461.2 678,463.8 680.3,455 624.8,440.7 621.2,439.7 
		544,419.8 542.7,419.5 	"/>
	<path class="st14" d="M837.1,511.2l-24.6,21.4l0.7-0.1l1,12.7l13.2,3.4L837.1,511.2 M793.3,454.7l45,51.6l9.7-37.5L793.3,454.7
		 M717.6,435.2l-1.9,7.2l35.9,24l19.8-17.3L717.6,435.2"/>
	<path class="st10" d="M788.9,449.8l4.3,5l54.7,14.1l-9.7,37.5l1.9,2.1l-3.1,2.7l-9.7,37.5l-13.2-3.4l0.3,3.9l15.6,4l5.7-22l0.9-3.6
		l15.8-61.4l-24.9-6.4l-4.2-1.1L788.9,449.8 M714.9,430.7l-2.5,9.5l3.3,2.2l1.9-7.2l53.9,13.9l3.4-3l-44.1-11.4l-4.2-1.1
		L714.9,430.7"/>
	<polyline class="st14" points="533.4,497 524.3,521.6 536.5,534.9 563.2,546.5 537.8,502.3 541.7,500.1 533.4,497 	"/>
	<polyline class="st10" points="531.2,492.2 526.7,504.3 525.4,507.8 523.4,513.2 523.4,520.6 524.3,521.6 533.4,497 541.7,500.1 
		545.8,497.7 531.2,492.2 	"/>
	<polyline class="st14" points="711.2,443.9 690.7,474.6 717,496.7 748.8,469 711.2,443.9 	"/>
	<polyline class="st10" points="710.2,438.7 702.9,449.7 700.7,452.9 687.9,472.2 690.7,474.6 711.2,443.9 748.8,469 751.7,466.4 
		715.8,442.4 712.5,440.3 710.2,438.7 	"/>
	<polyline class="st14" points="780.7,446 719.9,499.2 725.8,504.1 757,486.1 785.1,534.8 806.3,533.1 834.9,508.1 780.7,446 	"/>
	<polyline class="st10" points="781.1,440.8 774.9,446.2 771.5,449.1 751.7,466.4 748.8,469 717,496.7 719.9,499.2 780.7,446 
		834.9,508.1 806.3,533.1 812.5,532.6 837.1,511.2 840.2,508.5 838.3,506.4 793.3,454.7 788.9,449.8 781.1,440.8 	"/>
	<polyline class="st14" points="671.7,463.4 664,472.5 688.6,515 704.8,491.3 671.7,463.4 	"/>
	<polyline class="st10" points="671.3,458.1 662.1,469 664,472.5 671.7,463.4 704.8,491.3 705,490.9 725,504.6 725.8,504.1 
		719.9,499.2 717,496.7 690.7,474.6 687.9,472.2 678,463.8 674.8,461.2 671.3,458.1 	"/>
	<polyline class="st14" points="614.2,462.5 542.8,503.7 569,548.9 611.7,567.4 598,599.2 602,606.1 613.3,618.5 636.8,604.9 
		578.4,503.7 623.1,477.9 614.2,462.5 	"/>
	<polyline class="st7" points="635.5,614.4 632.7,624.3 617.5,618.8 614.2,621.1 637.1,645.4 648.5,645.8 662.7,646 798.7,646.1 
		820.8,621.7 702.5,630.5 694.7,631.6 681.7,632.1 668.1,615.4 637.1,614.4 	"/>
	<polyline class="st14" points="632.8,611.5 621.7,617.9 630.8,621.3 634,612.6 632.8,611.5 	"/>
	<polyline class="st10" points="634,612.6 630.8,621.3 621.7,617.9 617.6,620.3 632.9,626.1 637,615.1 634,612.6 	"/>
	<polyline class="st14" points="638.6,608.1 636.2,609.6 642.6,615 638.6,608.1 	"/>
	<polyline class="st10" points="636.2,609.6 632.8,611.5 634,612.6 637,615.1 648,624.4 642.6,615 636.2,609.6 	"/>
	<path class="st10" d="M636.8,604.9l-23.5,13.5l2.6,2.8l1.7-1l4.2-2.4l11-6.4l3.4-2l2.5-1.4L636.8,604.9 M598,599.2l-0.8,1.8
		l4.8,5.2L598,599.2 M615.6,457.4l-69.7,40.3l-4.2,2.4l-3.9,2.3l25.5,44.1l5.7,2.5l-26.1-45.2l71.4-41.2l8.9,15.4l3.2-1.9
		L615.6,457.4"/>
	<polyline class="st14" points="654.8,463.9 583.4,505.1 650.8,621.7 666.1,612.8 665.8,612.4 635.9,591.9 645.7,577.6 633.9,557.2 
		676.5,532.6 686.2,518.4 654.8,463.9 	"/>
	<polyline class="st10" points="656.2,458.8 626.3,476.1 623.1,477.9 578.4,503.7 636.8,604.9 638.6,608.1 642.6,615 648,624.4 
		649.4,626.8 667.9,616.1 666.1,612.8 650.8,621.7 583.4,505.1 654.8,463.9 686.2,518.4 688.6,515 664,472.5 662.1,469 656.2,458.8 
			"/>
	<path class="st14" d="M672.9,617.3l5.1,8.9l-0.4-5.7L672.9,617.3 M671.7,539.6L639,558.5l9,15.7L671.7,539.6 M755.6,491.2
		l-27.2,15.7l40.7,27.8l-1,1.4l12.8-1L755.6,491.2"/>
	<path class="st10" d="M665.8,612.4l0.2,0.4l1.9,3.2l10.9,18.9l3.3-1.9l-3.5,0.3l-0.6-7.1l-5.1-8.9L665.8,612.4 M676.5,532.6
		l-42.6,24.6l11.8,20.4l2.3-3.4l-9-15.7l32.7-18.9L676.5,532.6 M757,486.1l-31.2,18l-0.7,0.4l3.4,2.3l27.2-15.7l25.4,43.9l4.1-0.3
		L757,486.1"/>
	<path class="st14" d="M681.6,623.2l0.5,6.1l7.6-0.6L681.6,623.2 M809.8,536.6l-44.3,3.5l-59.8,87.4l110.6-8.7L809.8,536.6"/>
	<path class="st10" d="M677.6,620.5l0.4,5.7l0.6,7.1l3.5-0.3l12.4-1l-4.9-3.3l-7.6,0.6l-0.5-6.1L677.6,620.5 M813.2,532.6l-0.7,0.1
		l-6.2,0.5l-21.2,1.7l-4.1,0.3l-12.8,1l-2.7,3.9l44.3-3.5l6.5,82.1l-110.6,8.7l-2.7,3.9l116.9-9.2l0.4-0.4l-0.5-5.8l-0.3-3.9
		l-5-62.9l-0.3-3.9L813.2,532.6"/>
	<polyline class="st14" points="542.7,541.6 580.2,582.4 582.7,583.5 582.2,584.7 594.4,597.9 606.8,569.4 542.7,541.6 	"/>
	<polyline class="st10" points="536.5,534.9 542.7,541.6 606.8,569.4 594.4,597.9 597.2,600.9 598,599.2 611.7,567.4 569,548.9 
		563.2,546.5 536.5,534.9 	"/>
	<g>
		<defs>
			<polyline id="SVGID_00000079445174245318652340000015915991403648624811_" points="580.2,582.4 582.2,584.7 582.7,583.5 
				580.2,582.4 			"/>
		</defs>
		<clipPath id="SVGID_00000009592252509217552380000003255617706202948286_">
			<use xlink:href="#SVGID_00000079445174245318652340000015915991403648624811_"  style="overflow:visible;"/>
		</clipPath>
		
			<rect x="580.2" y="582.4" style="clip-path:url(#SVGID_00000009592252509217552380000003255617706202948286_);fill:#E1EBE3;" width="2.5" height="2.2"/>
		<g style="clip-path:url(#SVGID_00000009592252509217552380000003255617706202948286_);">
			<text transform="matrix(0.9164 0.4003 -0.4003 0.9164 496.8263 572.5205)" class="st17 st12 st13">KRIG</text>
		</g>
	</g>
	<path class="st14" d="M688.4,604.3l-19.7-13.4l49.9-73.2l19.7,13.4L688.4,604.3 M706,496.1L641.1,591l57.9,39.6l64.9-94.9
		L706,496.1"/>
	<path class="st10" d="M699,630.6L641.1,591l64.9-94.9l57.9,39.6L699,630.6 M705,490.9l-0.3,0.4L688.6,515l-2.3,3.4l-9.7,14.2
		l-4.9,7.1l-23.6,34.5l-2.3,3.4l-9.8,14.4l29.9,20.5l7.1,4.9l4.7,3.2l3.9,2.7l8.1,5.5l4.9,3.3l5.4,3.7l3-4.4l2.7-3.9l59.8-87.4
		l2.7-3.9l1-1.4l-40.7-27.8l-3.4-2.3L705,490.9"/>
	<g>
		<defs>
			<polyline id="SVGID_00000049933311836252687850000010204652959349605511_" points="718.6,517.7 668.8,590.9 688.4,604.3 
				738.3,531.1 718.6,517.7 			"/>
		</defs>
		<clipPath id="SVGID_00000133521952207959197810000018259072149826553266_">
			<use xlink:href="#SVGID_00000049933311836252687850000010204652959349605511_"  style="overflow:visible;"/>
		</clipPath>
		
			<rect x="668.8" y="517.7" style="clip-path:url(#SVGID_00000133521952207959197810000018259072149826553266_);fill:#E1EBE3;" width="69.5" height="86.6"/>
		<g style="clip-path:url(#SVGID_00000133521952207959197810000018259072149826553266_);">
			<path class="st17" d="M688.4,604.3l-19.7-13.4l10.1-14.9l4.4,3l-6.5,9.6l3.8,2.6l4.9-7.2l4.3,2.9l-4.9,7.2l7.2,4.9L688.4,604.3z"
				/>
			<path class="st17" d="M708.6,574.7c-0.8,0-2.2-0.5-4.3-1.8c-2.4-1.4-3.5-0.7-4.7,1l-2.4,3.5l6.5,4.4l-3.6,5.2l-19.7-13.4l6.8-9.9
				c3.5-5.1,7.6-6,11.4-3.4c2.9,2,3.5,5,2.2,7.6c1.8-1.8,3.8-2.2,6.2-0.8c3.1,1.7,4.1,2.2,5.2,2.1L708.6,574.7z M695.6,571
				c1.5-2.2,1.7-3.8-0.1-5c-1.6-1.1-3.2-0.5-4.7,1.7l-2.6,3.8l4.8,3.3L695.6,571z"/>
			<path class="st17" d="M724.2,551.8l-10.5,15.5L694,553.9l10.4-15.2l4.4,3l-6.8,10l3.2,2.2l5.3-7.7l4.3,2.9l-5.3,7.7l3.4,2.3
				l7-10.3L724.2,551.8z"/>
			<path class="st17" d="M706.2,536.1l5.3-7.8c4.4-6.5,10.9-8,17-3.9c6.1,4.2,7.1,10.7,2.6,17.2l-5.3,7.8L706.2,536.1z M726.7,539.2
				c2.3-3.4,1.7-6.9-2-9.3c-3.6-2.4-7-1.8-9.3,1.6l-1.4,2.1l11.3,7.7L726.7,539.2z"/>
		</g>
	</g>
	<path class="st1" d="M804.2,213.7l-172.3-0.4l-151.6,8.2L362.6,341.9L362,525l116.6,124.3l154.5,6.3l18,0.1h151.5l120.5-129
		l0.7-183.1L804.2,213.7z M484.3,232.2l139.6-7.9L516.9,339H379.5L484.3,232.2z M372.6,352.6h141.5l-0.6,163.5H371.9L372.6,352.6z
		 M482.8,638.7L380.3,529.7h137.5l105.9,115.2L482.8,638.7z M913.1,522.3L798.5,645l-136.8-0.6l-14.1-0.1l-10.6,0L523.4,520.6
		l0.7-174.2l114-122l10.6,0l13.4-0.6l138,0.6l113.7,123.7L913.1,522.3z"/>
	<path class="st1" d="M768.8,815.9V420.1c0-15.7-12.8-28.5-28.5-28.5h0c-15.7,0-28.5,12.8-28.5,28.5v395.8H768.8z"/>
	<path class="st2" d="M770.6,817.7H710V420.1c0-16.7,13.6-30.3,30.3-30.3c33.4,0,30.3,7.4,30.3,30.3V817.7z M713.7,814h53.2V420.1
		c0-14.7-11.9-26.6-26.6-26.6c-14.7,0-26.6,11.9-26.6,26.6V814z"/>
	<path class="st3" d="M779.5,815.9V420.1c0-15.7-12.8-28.5-28.5-28.5h0c-15.7,0-28.5,12.8-28.5,28.5v395.8H779.5z"/>
	<path class="st2" d="M781.4,817.7h-60.7V420.1c0-16.7,13.6-30.3,30.3-30.3c16.7,0,30.3,13.6,30.3,30.3V817.7z M724.4,814h53.2
		V420.1c0-14.7-11.9-26.6-26.6-26.6c-14.7,0-26.6,11.9-26.6,26.6V814z"/>
	<ellipse class="st1" cx="754.3" cy="429.6" rx="16.7" ry="21"/>
	<path class="st2" d="M754.3,452.5c-10.2,0-18.6-10.3-18.6-22.9c0-12.6,8.3-22.9,18.6-22.9c10.2,0,18.6,10.3,18.6,22.9
		C772.9,442.2,764.5,452.5,754.3,452.5z M754.3,410.4c-8.2,0-14.8,8.6-14.8,19.2c0,10.6,6.7,19.2,14.8,19.2s14.8-8.6,14.8-19.2
		C769.2,419,762.5,410.4,754.3,410.4z"/>
	<polygon class="st3" points="884.2,843.4 653.8,849.1 653.8,817 884.2,811.3 	"/>
	<path class="st2" d="M886,845.3l-234.1,6.5v-36.7l234.1-5.7V845.3z M655.7,848.1l226.7-6.5v-28.4l-226.7,5.7V848.1z"/>
	<polygon class="st1" points="653.8,849.1 412.2,843.4 412.2,811.3 653.8,817 	"/>
	<path class="st2" d="M655.6,851.8l-245.3-6.5v-35.8l245.3,5.7V851.8z M414.1,841.5l237.8,6.5v-29.2l-237.8-5.7V841.5z"/>
	<polygon class="st1" points="608.4,814 509.1,811.7 504.5,809.9 509.3,809 523.7,809.3 607.3,808.5 	"/>
</g>
<g>
	<g>
		<g>
			<g>
				<path class="st24" d="M1066.4,799.5c0,0,0.3,27.3,2.7,30.9c2.4,3.6,15.5,5,20.5,1.7c5-3.3,3.9-35.1,3.9-35.1L1066.4,799.5z"/>
				<path class="st25" d="M1092.9,821.2c0,0-5.2,5.7-12.9,6.4c-7.6,0.7-11.8,0-11.8,0s-0.6-0.3-1.2,0.2c-3.4,2.3-10.5,9.9-17.3,14.8
					c-7.2,5.1-14.2,9.9-12.8,18.9c0.7,4.1,11.4,6.7,17.9,6.5c6.2-0.2,35.8-6.2,41.9-11.2s-1.2-29.1-2.9-35.1
					C1093.6,820.8,1092.9,821.2,1092.9,821.2z"/>
				<path class="st24" d="M976.5,799.5c0,0,0.3,27.3,2.7,30.9c2.4,3.6,15.5,5,20.5,1.7c5-3.3,3.9-35.1,3.9-35.1L976.5,799.5z"/>
				<path class="st25" d="M1003,821.2c0,0-5.2,5.7-12.9,6.4c-7.6,0.7-11.8,0-11.8,0s-1-0.3-1.5,0c-4.1,2.4-14,10.2-22,13.6
					c-9.1,3.9-21.6,9.3-20.7,14.1c0.7,4.1,1.2,7,3.3,7.8c3.6,1.4,6.9,3.1,21.5,2.5c15.9-0.7,43.2-4.1,48.2-7.3
					c4.8-3.1-0.6-29.3-2.5-36.7C1004.1,820.1,1003,821.2,1003,821.2z"/>
				<path class="st26" d="M926.3,485.7c0,0-10-0.8-9.6,2.6c4.9,49.3,19,62,19,62l5.2-56.5L926.3,485.7z"/>
				<path class="st24" d="M890.2,366.7c-0.2,1.8-14,52.7-13.9,64.8c0.1,12.2,8.2,94.7,9.6,99.7c1.4,5,5,5.1,12.5,3.6
					c4.4-0.9,11.1-49.5,11.9-82.4c0.8-32.9,10.2-80.5,10.2-80.5L890.2,366.7z"/>
				<path class="st26" d="M1026,588.3c1.4,2.5-39.9,89.4-41.2,106.1c-1.3,16.6,33.9,118.7,21.1,122.9c-12.7,4.2-34.9,6.3-38.5,2.5
					c-3.6-3.7-53.6-92-55.8-131.5c-2.2-39.5,37.7-124.8,37.7-124.8l80.1,7.5L1026,588.3z"/>
				<path class="st26" d="M1091.7,531.6c0,0,12.3,37.9,4.6,72.7c-7,31.6-24.5,74.8-23,95.2c3.2,44.9,35.9,113.3,23.8,117.6
					c-10.5,3.8-27.6,6.2-35.7,2.9c-7.7-3.2-53.5-84.5-59.4-119.7c-5.6-33.8,15.1-102.5,15.1-114.1c0-11.7-5.3-26.7-5.3-26.7
					L1091.7,531.6z"/>
				<path d="M922,130.6c-23.9,14-23.4,34.9-20.3,52.8c3.2,17.9,7.9,42.9,7.6,53.7c-0.3,10.8-8.5,33-3.2,49.3
					c5.3,16.3,4.8,28.1,15.2,29.7c10.4,1.5,125.7-29.3,125.7-29.3s-33.3-39.9-41.7-75.2c-7.3-30.3-13.6-54.5-17.6-64.9
					C979.4,125.2,945.9,116.6,922,130.6z"/>
				<path class="st24" d="M918.6,146c-5.5,7.7-9.4,9.9-10.7,24.7c-1.3,14.3,2.4,32.7,4.3,39.6c4.4,15.9,17.1,27.7,21.1,28.4
					c4,0.7,44-16.2,47.1-20.2c3.1-4,3.7-24.2,4-39.6s2.4-27-11.6-40.3C959.8,126.2,932.6,126.4,918.6,146z"/>
				<path class="st24" d="M925.2,282l38.1,40l67-63.3c0,0-32.5-10.4-37.9-15.2c-5.5-4.8-13.4-41.1-13.4-41.1l-41.3,26.1
					c0,0,1,2.2,2.4,5.4c1.6,3.6,3.6,8.6,5.2,13.1c1.3,3.6,2.2,7,2.4,9.3C948.2,263.7,925.2,282,925.2,282z"/>
				<path class="st27" d="M941.2,236.7c1.6,3.6,3.9,10.2,3.9,10.2s3.5-1.4,7.3-3.8c3.9-2.5,6.6-5,10.6-10.1c3.9-5,6.6-15.7,3.6-12.9
					c-4,3.8-7.3,6.2-10.6,8.4C945.4,235.8,941.2,236.7,941.2,236.7z"/>
				<path class="st11" d="M940.7,217.5c-0.9-2.8-4.9-1.2-9.1-0.5c-4.2,0.6-6,0.9-5.6,3.6c0.4,2.7,1.8,3,7.9,1.8
					C939.4,221.3,941.6,220.2,940.7,217.5z"/>
				<path d="M941.9,176.6c2.2-0.7,5.3-1,9,0.6c3.6,1.7,0.4,2.5-1,2.3c-1.4-0.2-9.7,0.8-10.2-0.5C939.1,177.7,941,176.9,941.9,176.6z
					"/>
				<path d="M921.1,180c-2.3-0.2-5.4,0.2-8.6,2.6c-3.2,2.4,0.1,2.6,1.5,2.1c1.3-0.5,9.6-1.3,9.9-2.7
					C924.1,180.5,922,180.1,921.1,180z"/>
				<path d="M948.4,154.9c0,0,2.7,7.2,11.3,13.1c8.6,5.9,17.1,13.6,16.4,20.5c-0.6,6.9,5.8,26.4,5.8,26.4s8.7-43.6,7.5-45.3
					c-1.2-1.7-8.8-23.7-9.1-25.5c-0.3-1.8-14.6-15.1-16.8-15.4c-2.2-0.3-20.8-0.4-22.9,0c-2.2,0.4-39.2,18.9-37.4,28.1
					c1.8,9.2,2.7,17.3,2.7,17.3s11.1-13,23.1-15.1C940.8,156.8,948.4,154.9,948.4,154.9z"/>
				<path class="st27" d="M926.1,201.8c0.4-3.1,1.3-6.2,1.7-9.3c0.2-1.2,2-1,1.8,0.2c-0.3,1.9-0.6,3.8-1.1,5.7
					c-0.8,3.4-1.5,6.3,1.8,7.8c1.1,0.5,0.4,2.2-0.6,1.7C927.7,206.9,925.6,206,926.1,201.8z"/>
				<path class="st26" d="M1000.5,247.8c0,0,44.8,9.6,52,12.9c7.2,3.2,13.6,91.7,18.2,122.7c4.6,31.1,39.2,137.8,34.6,152.2
					c-4.6,14.4-86.3,35.1-106.3,36.8c-19.9,1.7-55.2,3.3-61.1-3.2c-5.9-6.5-22.5-168.1-26.1-207.4c-3.6-39.2-12.6-62.7-5.3-71.3
					c7.3-8.7,38.1-27.6,38.1-27.6s14.7,31.8,21.8,31.1C973.6,293.3,1000.5,247.8,1000.5,247.8z"/>
				<path class="st26" d="M906.7,290.2c0,0-13.3,10-19.6,42.4c-7.8,40.4-14.1,62.7-13.3,68.3c0.8,5.6,50,7,50,7s0.8-56.5-2.2-65.4
					S906.7,290.2,906.7,290.2z"/>
				<path class="st26" d="M1078.6,469.2c-6.9,1-8.8,4.3-27.2,8.2c-18.4,3.9-25.6,4.5-27.6,7.5c-2,3,8,55.7,13.9,58.8
					c6,3.1,50-7.6,50.8-11.8C1091.1,519.3,1083,468.6,1078.6,469.2z"/>
				<path class="st28" d="M936.7,274.1c3.3,10.3,14,16.6,23.3,20.8c1.1,0.5,0.4,2.2-0.7,1.7c-9.7-4.5-20.8-11-24.3-21.8
					C934.7,273.8,936.4,273,936.7,274.1z"/>
				<path class="st28" d="M969.5,296.6c8.7-3.8,16.9-8.6,24.3-14.5c7.2-5.7,15.9-12.9,18-22.3c0.3-1.1,2.1-0.9,1.8,0.2
					c-2,9-9.4,15.7-16.2,21.5c-8.2,6.9-17.4,12.5-27.1,16.8C969.2,298.7,968.5,297,969.5,296.6z"/>
				<path class="st28" d="M1023.4,476.7c9.5,0.5,18-2,27.3-3.9c9-1.9,20.1-5.3,25.9-9.7c0.9-0.7,2.4,0.3,1.5,1
					c-6.9,5.7-15.3,7.7-23.9,9.8c-10.4,2.5-22.4,5.1-30.9,4.6C1022.2,478.5,1022.2,476.7,1023.4,476.7z"/>
				<path class="st28" d="M973.9,411.5c-2.4-18.9-2.3-29.4-3.7-48.4c-1.5-21.1-3.6-42.2-8.9-62.7c-0.3-1.1,1.5-1.4,1.8-0.3
					c9.5,36.7,7.4,66.5,11.7,103.9c4.4,38.2,11.9,76,18.8,113.8c3.9,21.3,4.8,24.9,8.7,46.1c0.2,1.1-1.6,1.4-1.8,0.3
					c-6.9-37.8-11-57.9-17.7-95.7C979.4,449.6,976.3,430.6,973.9,411.5z"/>
				<path class="st28" d="M911.6,297.9c0-1.2,1.8-1.4,1.8-0.2c-0.3,35.2,1.3,70.4,4.7,105.4c0.1,1.2-1.7,1.4-1.8,0.2
					C912.9,368.3,911.3,333.1,911.6,297.9z"/>
				<path class="st28" d="M960.9,330.5c0-0.4,0.4-0.7,0.8-0.8c2.8-0.6,4.5,3.2,2,4.8c-0.3,0.2-0.8,0.3-1.1,0
					c-0.7-0.6-1.4-1.3-1.5-2.2C960.8,331.7,960.8,331.1,960.9,330.5z"/>
				<path class="st28" d="M965.9,393.6c0-0.4,0.4-0.7,0.8-0.8c0.3,0,0.6-0.1,0.9-0.1c0,0,0,0,0,0c0.1,0,0.2,0,0.4-0.1
					c0.5-0.1,1,0.3,1,0.8c0,0.1,0,0.1,0,0.2c0.5,0.2,0.9,0.8,0.5,1.4c-0.1,0.1-0.1,0.2-0.2,0.3c0,0.3-0.1,0.6-0.3,0.8
					c-0.5,0.3-0.9,0.3-1.2,0.2c0,0,0,0-0.1,0c0,0-0.1,0-0.1-0.1c-0.1,0-0.1-0.1-0.2-0.1C966.5,395.6,966,394.7,965.9,393.6z"/>
				<path class="st28" d="M975.3,459c0-0.1,0.1-0.3,0.1-0.4c0.2-0.6,0.9-0.7,1.4-0.4c0.1,0,0.1,0.1,0.2,0.1c0.2,0,0.3,0,0.5,0.1
					c1.5,0.4,1.8,2.1,1.1,3.3c-0.3,0.4-0.7,0.5-1,0.3c-1,0.7-2.3-0.6-2.6-1.5C974.7,459.9,974.9,459.4,975.3,459z"/>
				<path class="st28" d="M988.8,535.6c-0.2-1.2,0.6-2.4,1.8-2.7c0.3-0.1,0.6,0.1,0.8,0.3c0.5,0.6,1.1,1.8,0.9,2.7
					c0,0.1,0,0.3,0,0.4c-0.4,1.5-2.2,1.3-3.1,0.4c-0.1,0-0.2-0.1-0.2-0.1C988.6,536.4,988.6,535.9,988.8,535.6z"/>
				<path class="st24" d="M1049,403.8c0,0-4.1,43.9-29.8,66c-11,9.5-93.6,61.3-99.6,60.5c-6-0.8-16.2-1.7-16.8-5.6
					c-0.6-3.9,77-60.8,83.6-75.8c6.6-15.1,23-46.6,23-46.6L1049,403.8z"/>
				<path class="st26" d="M1053,261.1c0,0,22.3,10,25.7,35.8c3.4,25.7-6.4,117.2-18.6,126.1c-12.2,9-61.9-3.4-64.1-5.5
					C993.7,415.4,1053,261.1,1053,261.1z"/>
				<path class="st28" d="M1011.9,322.6c5.6-19.9,9.1-42.6,28.9-51.6c1.2-0.5,2.2,1.2,1,1.7c-19.7,8.8-23.5,33.7-29,54.1
					c-7.1,26.3-11.3,53.2-12.7,80.4c-0.1,1.3-2.1,1.3-2,0C999.5,378.7,1004.1,350.2,1011.9,322.6z"/>
				<path class="st28" d="M1002,597.2c2.4,8.3,4.1,16.7,5.1,25.2c0.1,1.1-1.6,1.6-1.8,0.4c-1-8.5-2.7-16.9-5.1-25.2
					C999.9,596.5,1001.7,596.1,1002,597.2z"/>
			</g>
			<path class="st28" d="M947.3,571.5c46.6,7.8,98.4-1.8,139.8-24.6c1.1-0.6,1.9,1.1,0.8,1.7c-41.7,22.9-93.8,32.6-140.7,24.8
				C945.9,573.2,946.1,571.3,947.3,571.5z"/>
			<g>
				<path d="M921.3,191.3c-0.4-3.3-1.7-4.1-3-4c-1.3,0.1-2.1,1.2-1.8,4.5c0.4,3.3,1.6,4.5,2.9,4.3
					C920.8,196.1,921.6,194.6,921.3,191.3z"/>
			</g>
			<g>
				<path d="M948,188.3c-0.3-3.3-1.8-4.4-3.1-4.3c-1.3,0.1-2,1.5-1.7,4.7c0.3,3.3,1.5,4.4,2.8,4.3
					C947.4,192.9,948.3,191.6,948,188.3z"/>
			</g>
		</g>
		<path class="st24" d="M916.5,547.8c0,0,3.9-2.4,6.5-6.7c2.6-4.3-9.8-0.7-9.8-0.7L916.5,547.8z"/>
		<path d="M754.8,423.6c-0.5,0-4.2,1-3.9,6.6c0.3,5.9,3.3,6.2,5,6.1c1.7-0.1,3-2.5,4.4-2.6s46.7,0.7,50.8,0.9
			c4,0.2,10.4,1.7,11.5,6.3s16.1,78.9,17.9,86.5c1.8,7.6,1,14.7,16.5,15.2c0,0,0.3,2.4,3.3,2.6c3,0.2,30.4-1,35-1
			c4.7,0,30.2,1.4,34.5,1.8s8.9-2.6,8.5-7.1c-0.4-4.5-7.8-6.2-10.9-6.3c-3-0.1-22,0.6-30.2,0.5c-8.2-0.1-32.2-2-34.3-2.3
			c-2.1-0.3-4.4,1.7-4.9,3.3c0,0-4.3-0.2-5.4-0.9c-1.1-0.6-2.8,0.3-5.1-12.3S833,450,831,441.5s-6.2-13.3-18.2-14.6
			c-4.4-0.5-13.2-0.6-21.9-0.7c-14.9-0.2-30.4-0.1-31-0.2C759,425.9,757.4,423.6,754.8,423.6z"/>
		<path class="st24" d="M886.1,520.8c0,0-0.6,3.4-2.2,7.8c-1.6,4.4-6.8,2.9-7.1,13c0.1,6.3,3.5,7.9,8.5,8.2s13.5-1.3,15.4-3.1
			c4.2-4-2-10.2,2.3-26.1C904.2,504.8,886.1,520.8,886.1,520.8z"/>
		<path class="st24" d="M922.2,529.7c0,0-5.2,2.1-6.9,6.2c-1.6,4,1.7,11.6,1.7,11.6s-5.6,5-19.3,2.5s-8.5-20.8,8.6-28.8
			C923.4,513.1,922.2,529.7,922.2,529.7z"/>
	</g>
	<path class="st29" d="M936,160c0,0-0.4,3-1,4.3c-1.3,3.1-1.7,5.9,1.6,5.7c3.3-0.2,2.7-3.1,1-5.9C936.8,162.9,936,160,936,160z"/>
	<path class="st29" d="M917.6,205.1c0,0-0.5,2.9-1.2,4.3c-1.5,3-2,5.8,1.3,5.8c3.3-0.1,2.8-2.9,1.3-5.9
		C918.3,208,917.6,205.1,917.6,205.1z"/>
	<path class="st29" d="M962.3,190.1c0,0-0.6,2.9-1.2,4.3c-1.5,3-2,5.8,1.3,5.8s2.9-2.9,1.3-5.9C963,193,962.3,190.1,962.3,190.1z"/>
</g>
</svg>
