<?xml version="1.0" encoding="utf-8"?>
<!-- Generator: Adobe Illustrator 27.0.1, SVG Export Plug-In . SVG Version: 6.00 Build 0)  -->
<svg version="1.1" id="Lager_1" xmlns="http://www.w3.org/2000/svg" xmlns:xlink="http://www.w3.org/1999/xlink" x="0px" y="0px"
	 viewBox="0 0 1600 900" style="enable-background:new 0 0 1600 900;" xml:space="preserve">
<style type="text/css">
	.st0{fill:#500B00;}
	.st1{fill:#7D7B7B;}
	.st2{fill:#42210B;}
	.st3{fill:#454545;}
	.st4{fill:#A47265;}
	.st5{fill:#A07162;}
	.st6{fill:#926553;}
	.st7{fill:#939C93;}
	.st8{fill:#706650;}
	.st9{fill:#727B73;}
	.st10{fill:#FFFFFF;}
	.st11{font-family:'FoundersGrotesk-Bold';}
	.st12{font-size:37.7653px;}
	.st13{fill:#E1EBE3;}
	.st14{clip-path:url(#SVGID_00000119083388465043509660000012658895506565637541_);fill:#E1EBE3;}
	.st15{clip-path:url(#SVGID_00000119083388465043509660000012658895506565637541_);}
	.st16{fill:#48524A;}
	.st17{clip-path:url(#SVGID_00000173866079251878694040000000125045748704286140_);fill:#E1EBE3;}
	.st18{clip-path:url(#SVGID_00000173866079251878694040000000125045748704286140_);}
	.st19{fill:#96672C;}
	.st20{fill:#F3F3F3;}
	.st21{fill:#013F4B;}
	.st22{fill:#6B410C;}
	.st23{fill:#002B33;}
	.st24{fill:#B7D8DC;}
</style>
<g>
	<ellipse class="st0" cx="653.8" cy="845.7" rx="361.3" ry="22.6"/>
	<ellipse class="st0" cx="1011.7" cy="863.5" rx="235.5" ry="17.5"/>
</g>
<g>
	<polygon class="st1" points="410.4,809.5 606,806.5 886,809.5 653.8,815.1 	"/>
	<polygon class="st2" points="886,810.5 605.9,807.5 410.4,810.5 410.4,808.5 605.9,805.5 886.1,808.5 	"/>
	<path class="st1" d="M568.1,815.9V420.1c0-15.7-12.8-28.5-28.5-28.5s-28.5,12.8-28.5,28.5v395.8H568.1"/>
	<path class="st2" d="M570,817.7h-60.7V420.1c0-16.7,13.6-30.3,30.3-30.3s30.3,13.6,30.3,30.3V817.7 M513,814h53.2V420.1
		c0-14.7-11.9-26.6-26.6-26.6S513,405.4,513,420.1V814"/>
	<path class="st3" d="M578.9,815.9V420.1c0-15.7-12.8-28.5-28.5-28.5c-15.7,0-28.5,12.8-28.5,28.5v395.8H578.9"/>
	<path class="st2" d="M580.7,817.7H520V420.1c0-16.7,13.6-30.3,30.3-30.3s30.3,13.6,30.3,30.3V817.7 M523.7,814H577V420.1
		c0-14.7-11.9-26.6-26.6-26.6c-14.7,0-26.6,11.9-26.6,26.6V814"/>
	<path class="st1" d="M570.4,429.6c0,11.6-7.5,21-16.7,21c-9.2,0-16.7-9.4-16.7-21s7.5-21,16.7-21
		C562.9,408.6,570.4,418,570.4,429.6"/>
	<path class="st2" d="M553.7,452.5c-10.2,0-18.6-10.3-18.6-22.9c0-12.6,8.3-22.9,18.6-22.9c10.2,0,18.6,10.3,18.6,22.9
		C572.2,442.2,563.9,452.5,553.7,452.5 M553.7,410.4c-8.2,0-14.8,8.6-14.8,19.2c0,10.6,6.7,19.2,14.8,19.2c8.2,0,14.8-8.6,14.8-19.2
		C568.5,419,561.8,410.4,553.7,410.4"/>
	<polyline class="st4" points="628.8,221.8 483.5,228.8 372.5,341.9 518.6,343.9 625.9,224.7 	"/>
	<polyline class="st5" points="515.3,350.5 369.7,350.3 369.1,519 428.5,519.4 450,504.8 509.6,406.2 516.3,377.5 516.5,352.1 	"/>
	<path class="st6" d="M598.8,632.4l-19.8,1l0.7,11.7l46.1,0.7l-11.5-13.7l-14.7,0.8 M438.9,526.3l-65.2,1.2l107.8,114.3l29.8,0.4
		l-0.4-19.8l-70.4-95.2"/>
	<polyline class="st7" points="520,621.8 513,623.3 513,640 520,640.3 520,621.8 	"/>
	<polyline class="st8" points="513,623.3 509.3,624.1 509.3,639.9 513,640 513,623.3 	"/>
	<polyline class="st9" points="529.7,619.8 523.7,621 523.7,640.5 577,642.9 577,634.6 530.6,637.1 529.7,619.8 	"/>
	<path class="st8" d="M580.7,634.4l-3.7,0.2v8.2l3.7,0.2V634.4 M523.7,621l-3.7,0.8v18.5l3.7,0.2V621"/>
	<polyline class="st10" points="630.5,385.8 625.9,459.6 507.4,452.2 512,378.4 630.5,385.8 	"/>
	<path class="st3" d="M627.7,461.5l-122.2-7.6l4.8-77.5l122.2,7.6L627.7,461.5 M509.4,450.4l114.8,7.2l4.4-70.1l-114.8-7.2
		L509.4,450.4"/>
	<polyline class="st10" points="709.5,245.7 791.1,273.1 747.1,404.3 665.4,376.9 709.5,245.7 	"/>
	<path class="st3" d="M748.2,406.6L663.1,378l45.2-134.7l85.2,28.6L748.2,406.6 M667.8,375.7l78.1,26.2l42.9-127.6l-78.1-26.2
		L667.8,375.7"/>
	<polyline class="st10" points="553.3,452.2 591.6,529.3 467.7,590.9 429.4,513.8 553.3,452.2 	"/>
	<path class="st3" d="M594.1,530.2l-127.2,63.2l-40-80.4l127.2-63.2L594.1,530.2 M468.6,588.4l120.6-59.9l-36.7-73.8l-120.6,59.9
		L468.6,588.4"/>
	<polyline class="st10" points="521.9,404.5 533.2,489.9 396.1,508.1 384.7,422.7 521.9,404.5 	"/>
	<g>
		<path d="M415.3,475.5c-6.8,1-13-3.2-14-10.4c-1.1-7.2,3.6-13,10.4-14c6.8-1,13,3.2,14,10.4C426.8,468.8,422.1,474.5,415.3,475.5z
			 M412.5,456.7c-3.5,0.5-5.3,3.5-4.7,7.5c0.6,4,3.2,6.3,6.7,5.8s5.3-3.5,4.7-7.5C418.6,458.5,416,456.2,412.5,456.7z"/>
		<path d="M436.1,472l-12.5-22.2l6.7-1l8.1,14.8l0.2,0l3.5-16.5l6.3-0.9l-5.6,24.9L436.1,472z"/>
		<path d="M462.7,444l12.8,22.2l-6.8,1l-2.4-4.3l-9.2,1.4l-1.1,4.8l-6.4,0.9l5.9-24.9L462.7,444z M451.8,438.8l5.3-0.8l0.8,5.3
			l-5.3,0.8L451.8,438.8z M458.3,459.2l5.5-0.8l-3.7-6.6l-0.1,0L458.3,459.2z M458.8,437.7l5.3-0.8l0.8,5.3l-5.3,0.8L458.8,437.7z"
			/>
		<path d="M473.8,442.4l9.3-1.4c7.8-1.2,13.3,2.5,14.4,9.9c1.1,7.4-3.1,12.5-10.9,13.6l-9.3,1.4L473.8,442.4z M485.4,459.6
			c4.1-0.6,6.2-3.4,5.5-7.8c-0.6-4.3-3.4-6.4-7.5-5.8l-2.5,0.4l2,13.5L485.4,459.6z"/>
		<path d="M520.3,459.6l-18.5,2.7l-3.5-23.5l18.2-2.7l0.8,5.2l-12,1.8l0.6,3.8l9.2-1.4l0.8,5.2l-9.2,1.4l0.6,4.1l12.3-1.8
			L520.3,459.6z"/>
		<path d="M538.1,457c-0.6-0.6-1.1-2-1.6-4.4c-0.6-2.7-1.8-3.1-4-2.8l-4.2,0.6l1.2,7.8l-6.2,0.9l-3.5-23.5l11.9-1.8
			c6.1-0.9,9.5,1.5,10.2,6.1c0.5,3.4-1.3,6-4.1,6.8c2.5,0.1,4.1,1.3,4.8,4c0.9,3.5,1.1,4.5,2,5.2L538.1,457z M532,444.9
			c2.7-0.4,3.9-1.3,3.6-3.4c-0.3-1.9-1.8-2.7-4.5-2.3l-4.5,0.7l0.8,5.8L532,444.9z"/>
	</g>
	<path class="st3" d="M535.3,491.5l-140.8,18.7l-11.8-89.1l140.8-18.7L535.3,491.5 M397.7,506l133.5-17.7l-10.9-81.7l-133.5,17.7
		L397.7,506"/>
	<polyline class="st10" points="605.4,638.4 550.5,572.1 657,483.8 711.9,550.1 605.4,638.4 	"/>
	<path class="st3" d="M605.2,641l-57.3-69.2l109.4-90.7l57.3,69.2L605.2,641 M553.1,572.3l52.6,63.4l103.7-85.9l-52.6-63.4
		L553.1,572.3"/>
	<polyline class="st10" points="540.5,582.1 485.5,515.8 592.1,427.5 647,493.8 540.5,582.1 	"/>
	<path class="st3" d="M540.3,584.7l-57.3-69.2l109.4-90.7l57.3,69.2L540.3,584.7 M488.2,516l52.6,63.4l103.7-85.9l-52.6-63.4
		L488.2,516"/>
	<polyline class="st10" points="588.5,441.5 570.7,357.3 706,328.6 723.9,412.8 588.5,441.5 	"/>
	<path class="st3" d="M726.1,414.3l-139,29.5l-18.6-87.9l139-29.5L726.1,414.3 M590,439.3l131.7-27.9l-17.1-80.6l-131.7,27.9
		L590,439.3"/>
	<polyline class="st10" points="765,532.1 747.2,447.8 882.5,419.1 900.4,503.4 765,532.1 	"/>
	<path class="st3" d="M902.6,504.8l-139,29.5L745,446.4l139-29.5L902.6,504.8 M766.5,529.9L898.2,502l-17.1-80.6l-131.7,27.9
		L766.5,529.9"/>
	<polyline class="st10" points="529.6,514.3 511.7,430.1 647,401.4 664.9,485.6 529.6,514.3 	"/>
	<path class="st3" d="M667.1,487.1l-139,29.5l-18.6-87.9l139-29.5L667.1,487.1 M531,512.1l131.7-27.9l-17.1-80.6l-131.7,27.9
		L531,512.1"/>
	<polyline class="st10" points="489.9,626.3 472,542.1 607.3,513.4 625.2,597.6 489.9,626.3 	"/>
	<path class="st3" d="M627.4,599.1l-139,29.5l-18.6-87.9l139-29.5L627.4,599.1 M491.3,624.1L623,596.2l-17.1-80.6l-131.7,27.9
		L491.3,624.1"/>
	<polyline class="st10" points="722.3,444.9 704.5,360.6 839.8,331.9 857.7,416.1 722.3,444.9 	"/>
	<path class="st3" d="M859.9,417.6l-139,29.5l-18.6-87.9l139-29.5L859.9,417.6 M723.8,442.6l131.7-27.9l-17.1-80.6L706.7,362
		L723.8,442.6"/>
	<polyline class="st10" points="581.4,616.4 572.4,530.8 710,516.4 718.9,602 581.4,616.4 	"/>
	<path class="st3" d="M721,603.7l-141.3,14.8l-9.3-89.3l141.3-14.8L721,603.7 M583,614.4l133.9-14l-8.6-82l-133.9,14L583,614.4"/>
	<polyline class="st10" points="737.5,521.6 652,510.6 669.6,373.4 755,384.4 737.5,521.6 	"/>
	<path class="st3" d="M739.1,523.7L650,512.2L668,371.3l89.1,11.4L739.1,523.7 M654.1,509l81.7,10.5L753,386l-81.7-10.5L654.1,509"
		/>
	<polyline class="st10" points="760.2,504.8 680.6,471.9 733.4,344 813,377 760.2,504.8 	"/>
	<path class="st3" d="M761.2,507.2l-83-34.3l54.3-131.3l83,34.3L761.2,507.2 M683,470.9l76.2,31.5L810.6,378l-76.2-31.5L683,470.9"
		/>
	<polyline class="st10" points="694,563.1 610.3,542.7 643.2,408.3 726.8,428.7 694,563.1 	"/>
	<path class="st3" d="M695.4,565.4l-87.3-21.3l33.7-138l87.3,21.3L695.4,565.4 M612.6,541.3l80,19.6l31.9-130.8l-80-19.6
		L612.6,541.3"/>
	<polyline class="st10" points="707.4,509.3 659.8,581 544.5,504.5 592.1,432.8 707.4,509.3 	"/>
	<path class="st3" d="M660.3,583.6L541.9,505l49.7-74.8L710,508.8L660.3,583.6 M547.1,504l112.2,74.4l45.6-68.7l-112.2-74.4
		L547.1,504"/>
	<polyline class="st10" points="744.4,492.5 696.8,564.2 581.5,487.7 629.1,416 744.4,492.5 	"/>
	<path class="st3" d="M697.3,566.8l-118.4-78.6l49.7-74.8L747,491.9L697.3,566.8 M584.1,487.2l112.2,74.4l45.6-68.7l-112.2-74.4
		L584.1,487.2"/>
	<polyline class="st10" points="726.8,558.4 655,510.8 731.5,395.5 803.3,443.2 726.8,558.4 	"/>
	<path class="st3" d="M727.3,561l-74.8-49.7L731,393l74.8,49.7L727.3,561 M657.6,510.3l68.7,45.6l74.4-112.2L732,398.1L657.6,510.3"
		/>
	<polyline class="st10" points="746.1,635.5 701.8,561.6 820.5,490.5 864.8,564.3 746.1,635.5 	"/>
	<path class="st3" d="M745.5,638l-46.2-77l121.8-73.1l46.2,77L745.5,638 M704.4,562.2l42.4,70.7l115.5-69.2L819.8,493L704.4,562.2"
		/>
	<polyline class="st10" points="647,555 650.9,628.8 532.3,635.2 528.4,561.4 647,555 	"/>
	<path class="st3" d="M652.8,630.6l-122.3,6.5l-4.1-77.5l122.3-6.5L652.8,630.6 M534.1,633.2l114.8-6.1l-3.7-70.1l-114.8,6.1
		L534.1,633.2"/>
	<g>
		<path d="M565,607.9l-7.1-9.1l-2,2.4l0.4,7.2l-6.4,0.3l-1.2-23.8l6.4-0.3l0.5,9.6l8-10l7.4-0.4l-8.7,10.6l10.3,13.2L565,607.9z"/>
		<path d="M589.2,606.7c-0.5-0.6-0.9-2.1-1.2-4.5c-0.3-2.7-1.5-3.3-3.7-3.1l-4.3,0.2l0.4,7.9l-6.3,0.3l-1.2-23.8l12-0.6
			c6.1-0.3,9.3,2.4,9.6,7.1c0.2,3.5-1.9,5.8-4.8,6.4c2.5,0.4,4,1.7,4.4,4.4c0.5,3.5,0.7,4.6,1.5,5.4L589.2,606.7z M584.3,594.1
			c2.7-0.1,4-0.9,3.9-3.1c-0.1-1.9-1.5-2.9-4.2-2.7l-4.6,0.2l0.3,5.8L584.3,594.1z"/>
		<path d="M603.4,582.2l1.2,23.8l-6.4,0.3l-1.2-23.8L603.4,582.2z"/>
		<path d="M606.5,594c-0.4-7.3,4.8-12.6,11.7-12.9c7-0.3,11.2,3.3,12.1,9.2l-6.2,0.5c-0.5-2.6-2.4-4.2-5.4-4
			c-3.7,0.2-5.7,2.9-5.5,6.9c0.2,4.1,2.5,6.8,6.6,6.6c2.1-0.1,4.1-1.1,4.9-3l-5.2,0.3l-0.2-4.6l11.3-0.6l0.6,12.3l-5.6,0.3l-0.1-2.6
			c-1.2,2.3-3.7,3.3-6.7,3.4C612.1,606,606.9,601.3,606.5,594z"/>
	</g>
	<polyline class="st10" points="745,550.2 671.8,540 688.2,422.4 761.4,432.7 745,550.2 	"/>
	<path class="st3" d="M746.6,552.3l-76.9-10.7l16.9-121.3l76.9,10.7L746.6,552.3 M673.9,538.4l69.5,9.7l15.9-113.9l-69.5-9.7
		L673.9,538.4"/>
	<text transform="matrix(0.1364 -0.9906 0.9906 0.1364 722.0475 531.1003)" class="st11 st12">FRED</text>
	<path class="st6" d="M759.1,513.1l-8.9,13.4l-0.6,4.3l11.8-7.1L759.1,513.1 M662.7,220.2l-25.6-2.6L521.6,344.2l-1.3,36.5l58.1,5.8
		l-4.5-25.2l106-14.5l81.2,5.6l26.9,75.4l0.6,7.9l43.2,79.1l28.6,49.6l-113.6,65.3l-26.8-33.9l0.8,6.9l-69.6,6.5l-27.8,21.9
		l13.6,15.1l162.1,2.8l117.3-124.2l-0.2-177.2l-115-126.7l-136.8-0.6"/>
	<polyline class="st13" points="523.9,381 523.8,405.1 526.5,425.1 580.7,413.6 574.5,384.2 523.9,381 	"/>
	<polyline class="st9" points="523.9,377.3 523.9,381 574.5,384.2 573.7,380.4 523.9,377.3 	"/>
	<polyline class="st13" points="710.7,248.1 682.6,331.7 707.4,326.4 713.9,356.7 727.4,353.8 732.4,341.6 750.3,349 764.7,345.9 
		788.8,274.3 710.7,248.1 	"/>
	<polyline class="st9" points="708.3,243.4 678.3,332.6 682.6,331.7 710.7,248.1 788.8,274.3 764.7,345.9 768.9,345 793.5,272 
		708.3,243.4 	"/>
	<polyline class="st9" points="523.8,405.1 523.7,425.6 526.5,425.1 523.8,405.1 	"/>
	<polyline class="st13" points="523.5,494.6 523.4,520.6 530,527.9 565.1,520.4 551.7,511.5 528.1,516.5 523.5,494.6 	"/>
	<polyline class="st13" points="704.6,330.8 572.9,358.7 584.3,412.8 648.5,399.2 650.4,408.1 662.9,411.2 668,371.3 705.9,376.2 
		702.3,359.2 710.2,357.5 704.6,330.8 	"/>
	<polyline class="st9" points="707.4,326.4 682.6,331.7 678.3,332.6 568.5,355.9 573.7,380.4 574.5,384.2 580.7,413.6 584.3,412.8 
		572.9,358.7 704.6,330.8 710.2,357.5 713.9,356.7 707.4,326.4 	"/>
	<polyline class="st13" points="881.1,421.3 799.8,438.6 805.9,442.6 762,508.8 764.7,521.7 821.1,487.9 837.3,514.9 898.2,502 
		881.1,421.3 	"/>
	<path class="st9" d="M762,508.8l-2.9,4.3l2.3,10.7l3.4-2L762,508.8 M883.9,416.9l-88.5,18.8l4.3,2.9l81.3-17.2l17.1,80.6
		l-60.9,12.9l2,3.4l63.3-13.4L883.9,416.9"/>
	<polyline class="st13" points="645.6,403.6 523.7,429.4 523.6,477 531,512.1 547.4,508.7 541.9,505 591.6,430.2 609.5,442.1 
		628.6,413.4 638.4,419.9 641.8,406.1 646.4,407.2 645.6,403.6 	"/>
	<path class="st9" d="M523.6,477l-0.1,17.6l4.7,21.9l23.6-5l-4.3-2.9l-16.4,3.5L523.6,477 M648.5,399.2l-64.1,13.6l-3.6,0.8
		l-54.2,11.5l-2.7,0.6l0,3.8l121.9-25.8l0.8,3.6l4,1L648.5,399.2"/>
	<polyline class="st13" points="569.4,523.3 533,531 557.7,557.9 573.3,557.1 570.4,529.1 577.1,528.4 569.4,523.3 	"/>
	<polyline class="st9" points="565.1,520.4 530,527.9 533,531 569.4,523.3 565.1,520.4 	"/>
	<path class="st13" d="M725.7,358l-19,4l3.1,14.6l7.8,1L725.7,358 M838.4,334.1l-82,17.4l59.1,24.4L794,427.7l61.4-13L838.4,334.1"
		/>
	<path class="st9" d="M727.4,353.8l-13.5,2.9l-3.6,0.8l-8,1.7l3.6,17l3.9,0.5l-3.1-14.6l19-4L727.4,353.8 M841.2,329.7L768.9,345
		l-4.2,0.9l-14.4,3.1l6.1,2.5l82-17.4l17.1,80.6l-61.4,13l-1.7,4.2l67.6-14.3L841.2,329.7"/>
	<path class="st13" d="M675.6,560.5l-15.3,23.1l-10.3-6.8l1.6,30.5l65.3-6.8l-1.3-12.2l-15.5-25.8l-2.9,4.4l-2.2-1.5L675.6,560.5
		 M582,531.6l-7.6,0.8l2.6,24.5l39.9-2.1L582,531.6"/>
	<path class="st9" d="M715.6,588.2l1.3,12.2l-65.3,6.8l0.2,3.7l69.2-7.2l-0.8-7.9L715.6,588.2 M577.1,528.4l-6.8,0.7l2.9,28l3.7-0.2
		l-2.6-24.5l7.6-0.8L577.1,528.4"/>
	<polyline class="st13" points="671.2,375.5 666.5,412.1 699.9,420.3 716.1,381.2 671.2,375.5 	"/>
	<polyline class="st9" points="668,371.3 662.9,411.2 666.5,412.1 671.2,375.5 716.1,381.2 717.5,377.7 709.8,376.7 705.9,376.2 
		668,371.3 	"/>
	<polyline class="st13" points="734.5,346.5 703.6,421.1 711.1,423 731,393 788.6,431.2 810.6,378 734.5,346.5 	"/>
	<polyline class="st9" points="732.4,341.6 727.4,353.8 725.7,358 717.5,377.7 716.1,381.2 699.9,420.3 703.6,421.1 734.5,346.5 
		810.6,378 788.6,431.2 791.8,433.3 792.3,431.9 794,427.7 815.5,375.9 756.3,351.5 750.3,349 732.4,341.6 	"/>
	<path class="st13" d="M679.4,554.9l-1.6,2.4l8.1,2L679.4,554.9 M644.5,410.5l-2.8,11.5l40.9,27.1l4-28.4L644.5,410.5"/>
	<path class="st9" d="M677.8,557.3l-2.2,3.3l19.4,4.7l-9.1-6.1L677.8,557.3 M641.8,406.1l-3.4,13.9l3.3,2.2l2.8-11.5l42,10.3
		l0.1-0.5l24,3.3l0.5-0.7l-7.5-1.8l-3.7-0.9l-33.4-8.2l-3.6-0.9l-12.5-3.1l-4-1L641.8,406.1"/>
	<polyline class="st13" points="592.6,435.3 547.1,504 623.1,554.5 648.7,553.1 649.7,572.1 659.3,578.5 676.3,552.8 578.9,488.2 
		607.5,445.2 592.6,435.3 	"/>
	<polyline class="st13" points="709.1,548.9 702.4,559.1 712,553.3 711.7,550.7 709.1,548.9 	"/>
	<polyline class="st9" points="711.7,550.7 712,553.3 714,552.2 711.7,550.7 	"/>
	<path class="st9" d="M676.3,552.8l-17,25.6l-9.5-6.3l0.2,4.6l10.3,6.8l15.3-23.1l2.2-3.3l1.6-2.4L676.3,552.8 M591.6,430.2
		L541.9,505l5.4,3.6l4.3,2.9l13.4,8.9l4.3,2.9l7.7,5.1l4.9,3.2l34.9,23.1l6.2-0.3l-76-50.4l45.6-68.7l14.8,9.8l2.1-3.1L591.6,430.2"
		/>
	<polyline class="st13" points="629.6,418.5 584.1,487.2 696.2,561.6 706,546.9 705.6,546.6 669.7,541.6 672.1,524.4 652.4,511.3 
		679.7,470.3 682,453.3 629.6,418.5 	"/>
	<polyline class="st9" points="628.6,413.4 609.5,442.1 607.5,445.2 578.9,488.2 676.3,552.8 679.4,554.9 685.9,559.2 695,565.3 
		697.3,566.8 700.2,562.4 699.3,561 702.4,559.1 709.1,548.9 706,546.9 696.2,561.6 584.1,487.2 629.6,418.5 682,453.3 682.6,449.2 
		641.7,422.1 638.4,419.9 628.6,413.4 	"/>
	<path class="st13" d="M714.1,547.8l3.4,2.2l2.4-1.4L714.1,547.8 M678.5,478.8l-20.9,31.4l15.1,10L678.5,478.8 M732,398.1
		l-17.4,26.2l48.8,6.8L751.4,518l49.3-74.3L732,398.1"/>
	<path class="st9" d="M705.6,546.6l0.4,0.3l3.1,2.1l2.6,1.7l2.3,1.5l3.5-2.1l-3.4-2.2L705.6,546.6 M679.7,470.3l-27.2,41l19.7,13
		l0.6-4.1l-15.1-10l20.9-31.4L679.7,470.3 M731,393l-19.9,30l-0.5,0.7l4.1,0.6l17.4-26.2l68.7,45.6L751.4,518l-1.2,8.5l8.9-13.4
		l2.9-4.3l43.9-66.1l-6.1-4l-4.3-2.9l-3.7-2.4l-3.2-2.1L731,393"/>
	<polyline class="st13" points="819.8,493 748.9,535.5 746.6,552.3 725.7,549.4 704.4,562.2 746.8,632.9 862.2,563.7 819.8,493 	"/>
	<polyline class="st9" points="821.1,487.9 764.7,521.7 761.4,523.7 749.6,530.8 748.9,535.5 819.8,493 862.2,563.7 746.8,632.9 
		704.4,562.2 725.7,549.4 719.9,548.6 717.5,550 714,552.2 712,553.3 702.4,559.1 699.3,561 700.2,562.4 715.6,588.2 720.2,595.8 
		745.5,638 867.3,564.9 839.3,518.2 837.3,514.9 821.1,487.9 	"/>
	<polyline class="st13" points="645.2,557 560.9,561.5 580.6,582.9 629.9,580.4 631.2,605.1 602.3,606.5 622.5,628.5 648.9,627.1 
		645.2,557 	"/>
	<polyline class="st9" points="648.7,553.1 623.1,554.5 616.9,554.8 577,556.9 573.3,557.1 557.7,557.9 560.9,561.5 645.2,557 
		648.9,627.1 622.5,628.5 625.8,632 652.8,630.6 651.8,610.9 651.6,607.2 650,576.8 649.7,572.1 648.7,553.1 	"/>
	<g>
		<defs>
			<polyline id="SVGID_1_" points="629.9,580.4 580.6,582.9 602.3,606.5 631.2,605.1 629.9,580.4 			"/>
		</defs>
		<clipPath id="SVGID_00000102504057451950169840000001421082398448011168_">
			<use xlink:href="#SVGID_1_"  style="overflow:visible;"/>
		</clipPath>
		
			<rect x="580.6" y="580.4" style="clip-path:url(#SVGID_00000102504057451950169840000001421082398448011168_);fill:#E1EBE3;" width="50.6" height="26.1"/>
		<g style="clip-path:url(#SVGID_00000102504057451950169840000001421082398448011168_);">
			<text transform="matrix(0.9988 -4.937000e-02 4.937000e-02 0.9988 548.1254 608.7338)" class="st16 st11 st12">KRIG</text>
		</g>
	</g>
	<path class="st13" d="M722.2,529.3l-23.6-3.2l12.1-87.7l23.6,3.2L722.2,529.3 M689.8,424.5l-15.9,113.9l69.5,9.7l15.9-113.9
		L689.8,424.5"/>
	<path class="st9" d="M743.4,548.2l-69.5-9.7l15.9-113.9l69.5,9.7L743.4,548.2 M686.6,420.3l-0.1,0.5l-4,28.4l-0.6,4.1l-2.4,17
		l-1.2,8.5l-5.8,41.5l-0.6,4.1l-2.4,17.2l35.9,5l8.5,1.2l5.7,0.8l5.9,0.8l20.8,2.9l2.3-16.8l0.7-4.7l0.6-4.3l1.2-8.5l12.1-86.9
		l-48.8-6.8l-4.1-0.6L686.6,420.3"/>
	<g>
		<defs>
			<polyline id="SVGID_00000000197849227755424890000003322674065226918552_" points="710.7,438.3 698.7,526.1 722.2,529.3 
				734.3,441.6 710.7,438.3 			"/>
		</defs>
		<clipPath id="SVGID_00000142863747207614059290000012860522635913514942_">
			<use xlink:href="#SVGID_00000000197849227755424890000003322674065226918552_"  style="overflow:visible;"/>
		</clipPath>
		
			<rect x="698.7" y="438.3" style="clip-path:url(#SVGID_00000142863747207614059290000012860522635913514942_);fill:#E1EBE3;" width="35.7" height="91"/>
		<g style="clip-path:url(#SVGID_00000142863747207614059290000012860522635913514942_);">
			<path class="st16" d="M722.2,529.3l-23.6-3.2l2.5-17.8l5.2,0.7l-1.6,11.4l4.5,0.6l1.2-8.6l5.2,0.7l-1.2,8.6l8.6,1.2L722.2,529.3z
				"/>
			<path class="st16" d="M727.1,493.8c-0.7,0.4-2.2,0.5-4.7,0.3c-2.7-0.2-3.5,0.9-3.8,3l-0.6,4.2l7.8,1.1l-0.9,6.2l-23.6-3.2
				l1.6-11.9c0.8-6.1,4.1-8.7,8.7-8.1c3.4,0.5,5.4,2.9,5.4,5.8c0.8-2.4,2.4-3.6,5.2-3.5c3.6,0.1,4.6,0.2,5.6-0.5L727.1,493.8z
				 M713.8,496.2c0.4-2.7-0.1-4.1-2.3-4.4c-1.9-0.3-3.1,0.9-3.5,3.6l-0.6,4.5l5.8,0.8L713.8,496.2z"/>
			<path class="st16" d="M730.9,466.4l-2.6,18.6l-23.6-3.2l2.5-18.2l5.2,0.7l-1.6,12l3.9,0.5l1.3-9.2l5.2,0.7l-1.3,9.2l4.1,0.6
				l1.7-12.3L730.9,466.4z"/>
			<path class="st16" d="M707.7,460.3l1.3-9.3c1.1-7.8,6.2-12,13.5-11c7.4,1,11.1,6.4,10,14.3l-1.3,9.3L707.7,460.3z M727.5,454
				c0.6-4.1-1.6-6.9-5.9-7.5c-4.3-0.6-7.1,1.5-7.6,5.6l-0.3,2.5l13.5,1.9L727.5,454z"/>
		</g>
	</g>
	<path class="st1" d="M804.2,213.7l-172.3-0.4l-151.6,8.2L362.6,341.9L362,525l116.6,124.3l154.5,6.3l18,0.1h151.5l120.5-129
		l0.7-183.1L804.2,213.7z M484.3,232.2l139.6-7.9L516.9,339H379.5L484.3,232.2z M372.6,352.6h141.5l-0.6,163.5H371.9L372.6,352.6z
		 M482.8,638.7L380.3,529.7h137.5l105.9,115.2L482.8,638.7z M913.1,522.3L798.5,645l-136.8-0.6l-14.1-0.1l-10.6,0L523.4,520.6
		l0.7-174.2l114-122l10.6,0l13.4-0.6l138,0.6l113.7,123.7L913.1,522.3z"/>
	<path class="st1" d="M768.8,815.9V420.1c0-15.7-12.8-28.5-28.5-28.5h0c-15.7,0-28.5,12.8-28.5,28.5v395.8H768.8z"/>
	<path class="st2" d="M770.6,817.7H710V420.1c0-16.7,13.6-30.3,30.3-30.3c33.4,0,30.3,7.4,30.3,30.3V817.7z M713.7,814h53.2V420.1
		c0-14.7-11.9-26.6-26.6-26.6c-14.7,0-26.6,11.9-26.6,26.6V814z"/>
	<path class="st3" d="M779.5,815.9V420.1c0-15.7-12.8-28.5-28.5-28.5h0c-15.7,0-28.5,12.8-28.5,28.5v395.8H779.5z"/>
	<path class="st2" d="M781.4,817.7h-60.7V420.1c0-16.7,13.6-30.3,30.3-30.3c16.7,0,30.3,13.6,30.3,30.3V817.7z M724.4,814h53.2
		V420.1c0-14.7-11.9-26.6-26.6-26.6c-14.7,0-26.6,11.9-26.6,26.6V814z"/>
	<ellipse class="st1" cx="754.3" cy="429.6" rx="16.7" ry="21"/>
	<path class="st2" d="M754.3,452.5c-10.2,0-18.6-10.3-18.6-22.9c0-12.6,8.3-22.9,18.6-22.9c10.2,0,18.6,10.3,18.6,22.9
		C772.9,442.2,764.5,452.5,754.3,452.5z M754.3,410.4c-8.2,0-14.8,8.6-14.8,19.2c0,10.6,6.7,19.2,14.8,19.2s14.8-8.6,14.8-19.2
		C769.2,419,762.5,410.4,754.3,410.4z"/>
	<polygon class="st3" points="884.2,843.4 653.8,849.1 653.8,817 884.2,811.3 	"/>
	<path class="st2" d="M886,845.3l-234.1,6.5v-36.7l234.1-5.7V845.3z M655.7,848.1l226.7-6.5v-28.4l-226.7,5.7V848.1z"/>
	<polygon class="st1" points="653.8,849.1 412.2,843.4 412.2,811.3 653.8,817 	"/>
	<path class="st2" d="M655.6,851.8l-245.3-6.5v-35.8l245.3,5.7V851.8z M414.1,841.5l237.8,6.5v-29.2l-237.8-5.7V841.5z"/>
</g>
<polygon class="st1" points="608.4,814 509.1,811.7 504.5,809.9 509.3,809 523.7,809.3 607.3,808.5 "/>
<path class="st19" d="M914.7,445.6c0,0,5.7,0.6,9.6-5.7c3.9-6.3-7.5-2.8-8.8-1.9S914.7,445.6,914.7,445.6z"/>
<g>
	<g>
		<path class="st19" d="M1066.4,799.5c0,0,0.3,27.3,2.7,30.9c2.4,3.6,15.5,5,20.5,1.7c5-3.3,3.9-35.1,3.9-35.1L1066.4,799.5z"/>
		<path class="st20" d="M1092.9,821.2c0,0-5.2,5.7-12.9,6.4c-7.6,0.7-11.8,0-11.8,0s-0.6-0.3-1.2,0.2c-3.4,2.3-10.5,9.9-17.3,14.8
			c-7.2,5.1-14.2,9.9-12.8,18.9c0.7,4.1,11.4,6.7,17.9,6.5c6.2-0.2,35.8-6.2,41.9-11.2s-1.2-29.1-2.9-35.1
			C1093.6,820.8,1092.9,821.2,1092.9,821.2z"/>
		<path class="st19" d="M976.5,799.5c0,0,0.3,27.3,2.7,30.9c2.4,3.6,15.5,5,20.5,1.7c5-3.3,3.9-35.1,3.9-35.1L976.5,799.5z"/>
		<path class="st20" d="M1003,821.2c0,0-5.2,5.7-12.9,6.4c-7.6,0.7-11.8,0-11.8,0s-1-0.3-1.5,0c-4.1,2.4-14,10.2-22,13.6
			c-9.1,3.9-21.6,9.3-20.7,14.1c0.7,4.1,1.2,7,3.3,7.8c3.6,1.4,6.9,3.1,21.5,2.5c15.9-0.7,43.2-4.1,48.2-7.3
			c4.8-3.1-0.6-29.3-2.5-36.7C1004.1,820.1,1003,821.2,1003,821.2z"/>
		<path class="st21" d="M956.6,394.8c0,0-9.7-2.3-9.9,1.1c-2.6,49.5,9.3,64.1,9.3,64.1l13.8-55.1L956.6,394.8z"/>
		<path class="st19" d="M937.1,263c-0.5,1.8-18.7,49.5-20.6,61.5c-1.9,12-11.1,95-10.6,100.1c0.5,5.1,4.1,5.8,11.7,5.6
			c4.5-0.2,22-47.3,28.2-79.7s20.3-77.4,20.3-77.4L937.1,263z"/>
		<path class="st21" d="M1035.3,504.7c1.4,2.5-20.5,136.8-21.8,153.5c-1.3,16.6,5.2,154.9-7.5,159.1c-12.7,4.2-33.3,3.5-36.9-0.2
			c-3.6-3.7-16.9-123.5-19.1-163c-2.2-39.5,8.6-174.2,8.6-174.2l80.1,7.5L1035.3,504.7z"/>
		<path class="st21" d="M1114.4,472.5c0,0-3.7,127.7-6.4,170.7c-2.7,42.9-0.9,169-11,174c-10,5-24.5,5.1-32.4-0.2
			s-13.8-27.7-14.2-63.4c-0.4-35.7-20.5-230.5-20.4-242.1c0-11.7-5.3-26.7-5.3-26.7L1114.4,472.5z"/>
		<path d="M994.2,36.4C969.1,48,967.4,68.8,968.8,87c1.4,18.2,3.5,43.5,2.2,54.2c-1.3,10.7-11.8,32-8.1,48.7
			c3.7,16.7,2,28.5,12.2,31.1c10.2,2.6,128-16.6,128-16.6s-29.1-43.1-34-78.9c-4.2-30.9-8.1-55.6-11.1-66.3
			C1051.9,36.9,1019.4,24.9,994.2,36.4z"/>
		<path class="st19" d="M989.3,51.4C983,58.5,979,60.3,976.2,75c-2.7,14.1-0.9,32.8,0.4,39.9c2.8,16.2,14.2,29.3,18.2,30.4
			c4,1.1,45.3-11.8,48.9-15.4c3.5-3.7,6.1-23.8,7.9-39s5-26.6-7.6-41.3C1032.3,35.9,1005.2,33.4,989.3,51.4z"/>
		<path class="st19" d="M982.3,187.5l34,43.6l72.9-56.3c0,0-31.3-13.6-36.2-18.9c-4.9-5.3-9.2-42.2-9.2-42.2l-43.7,21.8
			c0,0,0.8,2.3,1.8,5.6c1.2,3.8,2.7,8.9,3.8,13.6c0.9,3.7,1.5,7.2,1.5,9.4C1007.1,171.5,982.3,187.5,982.3,187.5z"/>
		<path class="st22" d="M1002.8,144c1.2,3.8,2.9,10.6,2.9,10.6s3.6-1,7.7-3.1c4.1-2.1,7-4.3,11.6-9c4.4-4.6,8.1-15,4.9-12.4
			c-4.4,3.4-7.9,5.4-11.4,7.3C1007,143.5,1002.8,144,1002.8,144z"/>
		<path class="st10" d="M1004.2,124.8c-0.6-2.9-4.7-1.7-9-1.5c-4.3,0.2-6.1,0.3-6,3.1c0.1,2.8,1.5,3.2,7.7,2.6
			C1002.5,128.4,1004.8,127.6,1004.2,124.8z"/>
		<path d="M1009.4,84.2c2.2-0.5,5.4-0.5,8.9,1.5c3.5,2,0.2,2.6-1.2,2.2c-1.4-0.4-9.7-0.2-10.1-1.5
			C1006.5,85.1,1008.5,84.4,1009.4,84.2z"/>
		<path d="M988.4,85.5c-2.2-0.4-5.4-0.4-8.8,1.7c-3.4,2.1-0.1,2.6,1.3,2.2c1.4-0.4,9.7-0.4,10.1-1.7
			C991.3,86.3,989.3,85.7,988.4,85.5z"/>
		<path d="M1018.1,63.2c0,0,1.9,7.4,10,14.1c8,6.7,15.6,15.2,14.3,22c-1.3,6.8,3.1,26.8,3.1,26.8s13-42.5,12-44.3
			s-6.4-24.4-6.5-26.2c-0.1-1.8-13.1-16.5-15.2-17c-2.2-0.5-20.6-2.5-22.8-2.3c-2.2,0.2-40.9,14.9-40,24.2
			c0.9,9.3,0.9,17.5,0.9,17.5s12.4-11.8,24.5-12.7C1010.3,64.4,1018.1,63.2,1018.1,63.2z"/>
		<path class="st22" d="M991.2,107.7c0.7-3,1.9-6,2.7-9c0.3-1.1,2.1-0.8,1.8,0.4c-0.5,1.9-1,3.7-1.6,5.5c-1.1,3.3-2.2,6.1,1,8
			c1,0.6,0.2,2.2-0.8,1.6C992.3,113,990.3,111.8,991.2,107.7z"/>
		<path class="st21" d="M1062.4,162.1c0,0,42.8,16.4,49.4,20.7c6.6,4.3-0.6,92.7-0.7,124.1c-0.2,31.4,20.1,159.3,13.4,172.9
			c-6.7,13.5-90.7,21.5-110.6,20.2c-20-1.3-55.1-5.2-59.9-12.5c-4.8-7.3,1-186.8,3.4-226.1c2.4-39.3-2.9-63.9,5.6-71.3
			c8.5-7.5,41.9-21.5,41.9-21.5s9.6,33.6,16.8,34C1028.8,202.9,1062.4,162.1,1062.4,162.1z"/>
		<path class="st21" d="M963.1,189.7c0,0-14.4,8.4-24.5,39.8c-12.5,39.2-21.4,60.6-21.3,66.2c0.2,5.6,48.8,12.9,48.8,12.9
			s7.5-56.1,5.6-65.2C969.9,234.3,963.1,189.7,963.1,189.7z"/>
		<path class="st21" d="M1105.8,392.8c-7,0-9.4,2.9-28.2,4c-18.8,1.1-26,0.5-28.5,3.2c-2.4,2.7-0.6,56.2,4.8,60.2
			c5.4,4,50.5,0.1,52.1-3.9C1110.5,444.2,1110.2,392.8,1105.8,392.8z"/>
		<path class="st23" d="M995.3,178.4c1.7,10.7,11.3,18.5,19.9,24.1c1,0.6,0.1,2.2-0.9,1.6c-8.9-5.9-18.9-14.1-20.7-25.2
			C993.4,177.7,995.1,177.2,995.3,178.4z"/>
		<path class="st23" d="M1024.3,205.5c9.2-2.4,18-5.9,26.2-10.6c8-4.6,17.7-10.3,21.2-19.3c0.4-1.1,2.2-0.6,1.8,0.5
			c-3.4,8.6-11.7,14.1-19.3,18.7c-9.1,5.6-19.1,9.7-29.4,12.4C1023.7,207.6,1023.2,205.8,1024.3,205.5z"/>
		<path class="st23" d="M1048.7,396.5c9.3,1.9,18.1,0.8,27.6,0.3c9.2-0.5,20.7-2.2,27.1-5.6c1-0.5,2.4,0.6,1.3,1.2
			c-7.7,4.5-16.3,5.3-25.1,6c-10.7,0.9-22.9,1.6-31.2-0.1C1047.2,398.1,1047.6,396.3,1048.7,396.5z"/>
		<path class="st23" d="M1011.1,319.8c0.5-19,2.2-29.4,3.7-48.4c1.7-21.1,2.9-42.2,0.8-63.3c-0.1-1.2,1.7-1.2,1.8,0
			c3.8,37.7-2.8,66.9-4.3,104.5c-1.5,38.4,0.2,76.9,1.2,115.3c0.6,21.6,1.2,43.2,1.8,64.8c0,1.2-1.8,1.2-1.8,0
			c-1.1-38.4-2.3-76.8-3.2-115.2C1010.7,358.3,1010.5,339,1011.1,319.8z"/>
		<path class="st23" d="M966.9,198c0.2-1.1,2-1.1,1.8,0.1c-5.6,34.7-9.5,69.8-11.4,104.9c-0.1,1.2-1.9,1.1-1.8-0.1
			C957.4,267.8,961.2,232.8,966.9,198z"/>
		<path class="st23" d="M1010.6,237.7c0.1-0.4,0.5-0.6,0.9-0.7c2.9-0.1,3.9,3.8,1.2,5c-0.3,0.2-0.8,0.2-1.1-0.1
			c-0.6-0.7-1.2-1.5-1.2-2.4C1010.3,239,1010.4,238.3,1010.6,237.7z"/>
		<path class="st23" d="M1006,300.9c0.1-0.4,0.5-0.7,0.9-0.7c0.3,0,0.6,0,0.9,0c0,0,0,0,0,0c0.1,0,0.2,0,0.4,0
			c0.5,0,0.9,0.4,0.9,0.9c0,0.1,0,0.1,0,0.2c0.5,0.3,0.8,0.9,0.3,1.4c-0.1,0.1-0.2,0.2-0.3,0.2c0,0.3-0.2,0.6-0.4,0.7
			c-0.5,0.2-0.9,0.2-1.3,0c0,0,0,0-0.1,0c0,0-0.1-0.1-0.1-0.1c-0.1,0-0.1-0.1-0.2-0.1C1006.2,302.9,1005.8,302,1006,300.9z"/>
		<path class="st23" d="M1005.2,366.9c0.1-0.1,0.1-0.2,0.2-0.4c0.3-0.6,1-0.5,1.4-0.2c0,0,0.1,0.1,0.1,0.1c0.2,0,0.3,0.1,0.4,0.1
			c1.4,0.6,1.5,2.3,0.6,3.4c-0.3,0.4-0.7,0.4-1,0.2c-1.1,0.6-2.2-0.9-2.4-1.9C1004.5,367.7,1004.8,367.3,1005.2,366.9z"/>
		<path class="st23" d="M1006.9,444.7c0-1.2,0.9-2.3,2.2-2.4c0.3,0,0.6,0.2,0.8,0.4c0.4,0.7,0.8,1.9,0.5,2.8c0,0.1,0,0.3-0.1,0.4
			c-0.6,1.4-2.4,1-3.1-0.1c-0.1-0.1-0.2-0.1-0.2-0.2C1006.7,445.5,1006.7,445,1006.9,444.7z"/>
		<path class="st19" d="M1086.5,323.7c0,0-10.7,42.8-39.5,60.7c-12.3,7.7-101.6,45.1-107.4,43.4c-5.8-1.8-15.8-4.2-15.7-8.1
			c0-3.9,85.2-47.1,94-61c8.9-13.9,29.8-42.6,29.8-42.6L1086.5,323.7z"/>
		<path class="st21" d="M1112.2,183.2c0,0,20.5,13.3,20,39.3c-0.5,26-24.2,114.8-37.6,121.8c-13.4,7-60.6-12.7-62.6-15.2
			C1030.1,326.7,1112.2,183.2,1112.2,183.2z"/>
		<path class="st23" d="M1062.2,237.8c8.6-18.8,15.5-40.8,36.4-46.6c1.2-0.3,2,1.5,0.8,1.9c-20.8,5.7-28.3,29.7-36.9,49
			c-11.1,24.9-19.3,50.9-24.8,77.6c-0.3,1.3-2.2,1-2-0.3C1041.4,291.3,1050.3,263.8,1062.2,237.8z"/>
		<path class="st23" d="M1012.4,512c6.4,5.7,12.3,12,17.6,18.7c0.7,0.9-0.6,2.2-1.3,1.3c-5.3-6.7-11.2-13-17.6-18.7
			C1010.2,512.5,1011.5,511.2,1012.4,512z"/>
	</g>
	<path class="st23" d="M964.8,491.2c44.9,14.8,97.5,13.2,141.9-3c1.1-0.4,1.7,1.4,0.6,1.8c-44.7,16.3-97.7,17.9-142.9,3
		C963.2,492.6,963.7,490.8,964.8,491.2z"/>
	<g>
		<path d="M987.4,96.8c0-3.3-1.3-4.3-2.6-4.3c-1.3,0-2.2,1-2.2,4.3c0,3.3,1.2,4.6,2.5,4.6C986.5,101.5,987.5,100.1,987.4,96.8z"/>
	</g>
	<g>
		<path d="M1014.4,96.4c0-3.3-1.3-4.6-2.6-4.6s-2.1,1.2-2.1,4.6c0,3.3,1.1,4.5,2.4,4.5C1013.3,100.9,1014.4,99.7,1014.4,96.4z"/>
	</g>
</g>
<path class="st24" d="M1004.7,67.2c0,0-0.4,3-1,4.3c-1.4,3.1-1.7,5.9,1.5,5.7c3.3-0.2,2.7-3.1,1-5.9
	C1005.5,70.1,1004.7,67.2,1004.7,67.2z"/>
<path class="st24" d="M980.9,110.2c0,0-0.4,3-1,4.3c-1.4,3.1-1.7,5.9,1.5,5.7c3.3-0.2,2.7-3.1,1-5.9
	C981.7,113,980.9,110.2,980.9,110.2z"/>
<path class="st24" d="M1027.6,99.7c0,0-0.4,3-1,4.3c-1.4,3.1-1.7,5.9,1.5,5.7s2.7-3.1,1-5.9C1028.4,102.6,1027.6,99.7,1027.6,99.7z"
	/>
<path class="st19" d="M933.7,445.4c0,0,4.2-1.8,7.4-5.7c3.2-3.9-9.5-2.1-9.5-2.1L933.7,445.4z"/>
<path d="M754.8,423.6c-0.5,0-4.2,1-3.9,6.6c0.3,5.9,3.3,6.2,5,6.1c1.7-0.1,3-2.5,4.4-2.6s46.7,0.7,50.8,0.9
	c1.6,0.1,8.4,1.2,17.7,1.9c14.6,1.1,34.7,1.9,44.1,2.2c0,0,0.3,2.4,3.3,2.6c3,0.2,30.4-1,35-1c4.7,0,30.2,1.4,34.5,1.8
	c4.3,0.4,8.9-2.6,8.5-7.1c-0.4-4.5-7.8-6.2-10.9-6.3c-3-0.1-22,0.6-30.2,0.5c-8.2-0.1-32.2-2-34.3-2.3c-2.1-0.3-4.4,1.7-4.9,3.3
	c0,0-25.3-0.5-43.9-1.6c-7.6-0.4-13.2-1.5-17.1-1.9c-4.4-0.4-13.2-0.6-21.9-0.7c-14.9-0.2-30.4-0.1-31-0.2
	C759,425.9,757.4,423.6,754.8,423.6z"/>
<path class="st19" d="M907.3,417.2c0,0-1.1,3.3-3.4,7.4c-2.3,4.1-7.2,1.8-9,11.7c-0.9,6.3,2.2,8.3,7.1,9.4
	c4.9,1.1,13.6,0.8,15.7-0.7c4.8-3.3-0.4-10.4,6.2-25.4C927.6,404.2,907.3,417.2,907.3,417.2z"/>
<path class="st19" d="M941.9,427.3c0,0-6.1,1.5-7.3,5.6c-1.2,4.1,0.7,11.7,0.7,11.7s-6,4.5-19.4,0.9s-6.7-21.4,11-28
	C944.5,410.8,941.9,427.3,941.9,427.3z"/>
</svg>
