<?xml version="1.0" encoding="utf-8"?>
<!-- Generator: Adobe Illustrator 27.0.0, SVG Export Plug-In . SVG Version: 6.00 Build 0)  -->
<svg version="1.1" id="Lager_1" xmlns="http://www.w3.org/2000/svg" xmlns:xlink="http://www.w3.org/1999/xlink" x="0px" y="0px"
	 viewBox="0 0 155.9 100" style="enable-background:new 0 0 155.9 100;" xml:space="preserve">
<style type="text/css">
	.st0{fill:#FFFFFF;}
</style>
<g id="Lager_2_00000139294475005707584540000001810407056663234688_">
</g>
<g id="Lager_1_00000051353942137364688300000017048853900216659647_">
	<g>
		<circle class="st0" cx="66.9" cy="45.1" r="11.6"/>
		<path class="st0" d="M87.9,77.3c-0.7-2.8-2.7-6.6-4.7-10.2l-0.5-0.9c-2-3.8-5-5.7-8.8-5.7h-14c-3.8,0-6.8,1.9-8.8,5.7l-0.5,0.9
			c-2,3.6-3.9,7.4-4.7,10.2c-0.8,3-2.4,11.4-2.5,11.7c-0.5,2.4,1.1,4.8,3.5,5.2c0.3,0.1,0.6,0.1,0.9,0.1c2.1,0,4-1.5,4.4-3.6
			c0-0.1,1.7-8.5,2.4-11.2c0.3-1.1,1-2.7,1.8-4.3l-0.6,19.4c0,1.6,1.2,2.9,2.8,2.9h16.5c1.6,0,2.9-1.3,2.8-2.9l-0.6-19.4
			c0.8,1.6,1.6,3.3,1.8,4.3c0.7,2.7,2.4,11.1,2.4,11.2c0.5,2.4,2.8,4,5.2,3.5s4-2.8,3.5-5.2C90.3,88.7,88.6,80.3,87.9,77.3z"/>
		<circle class="st0" cx="92.4" cy="37.1" r="4.3"/>
		<circle class="st0" cx="85.1" cy="44.4" r="3"/>
	</g>
	<path class="st0" d="M105.7,8c-1.4-3.2-4.6-5.5-8.3-5.5c-2.4,0-4.7,1-6.3,2.6c-1.4-1.6-3.5-2.6-5.8-2.6c-3.3,0-6.2,2.1-7.3,5
		c-3.7,1.2-6.4,4.6-6.4,8.7c0,4.2,2.8,7.7,6.7,8.8c1.3,3.2,4.4,5.5,8.1,5.5c2.4,0,4.5-0.9,6.1-2.5c1.7,1.5,3.8,2.5,6.3,2.5
		c3.7,0,6.9-2.2,8.4-5.3c3.2-1.4,5.5-4.6,5.5-8.4C112.6,12.5,109.6,9,105.7,8z M82.9,20.3v1.1c0,0.2-0.1,0.3-0.3,0.3h-0.8
		c-0.2,0-0.3-0.1-0.3-0.3v-1.1c-0.7-0.1-1.2-0.4-1.6-0.6c-0.2-0.1-0.3-0.2-0.4-0.3c-0.1-0.1-0.1-0.3,0-0.4l0.5-0.6
		c0.1-0.1,0.3-0.2,0.4-0.1s0.3,0.2,0.4,0.3c0.4,0.2,0.9,0.5,1.5,0.5c0.7,0,1.3-0.4,1.3-1c0-1.4-4-1.1-4-3.7c0-1.1,0.8-2,2.1-2.2
		v-1.1c0-0.2,0.1-0.3,0.3-0.3h0.8c0.2,0,0.3,0.1,0.3,0.3V12c0.6,0.1,1.1,0.3,1.4,0.5c0.1,0.1,0.2,0.1,0.3,0.2
		c0.1,0.1,0.1,0.2,0.1,0.4l-0.4,0.7c-0.1,0.2-0.3,0.2-0.4,0.1c-0.1-0.1-0.2-0.1-0.3-0.2c-0.3-0.2-0.8-0.4-1.3-0.4
		c-0.8,0-1.3,0.4-1.3,1c0,1.5,4,1.1,4,3.6C85,19,84.2,20,82.9,20.3z M93.4,22.7v1.6c0,0.2-0.2,0.4-0.4,0.4h-1.1
		c-0.2,0-0.4-0.2-0.4-0.4v-1.6c-1-0.2-1.8-0.5-2.4-0.9c-0.2-0.1-0.4-0.3-0.6-0.4c-0.2-0.1-0.2-0.4-0.1-0.6l0.7-0.9
		c0.1-0.2,0.4-0.2,0.6-0.1c0.2,0.1,0.4,0.3,0.6,0.4c0.6,0.3,1.3,0.7,2.2,0.7c1,0,1.9-0.5,1.9-1.5c0-2.1-6-1.6-6-5.5
		c0-1.6,1.2-2.9,3.1-3.3V8.9c0-0.2,0.2-0.4,0.4-0.4H93c0.2,0,0.4,0.2,0.4,0.4v1.6c0.9,0.1,1.6,0.4,2.1,0.7c0.2,0.1,0.4,0.2,0.5,0.3
		c0.2,0.1,0.2,0.4,0.1,0.5l-0.5,1c-0.1,0.2-0.4,0.3-0.6,0.2c-0.1-0.1-0.3-0.2-0.4-0.3c-0.5-0.3-1.2-0.5-1.9-0.5c-1.1,0-2,0.5-2,1.4
		c0,2.2,6,1.6,6,5.4C96.6,20.9,95.5,22.4,93.4,22.7z M103.9,21.1v1.1c0,0.2-0.1,0.3-0.3,0.3h-0.8c-0.2,0-0.3-0.1-0.3-0.3v-1.1
		c-0.7-0.1-1.2-0.4-1.6-0.6c-0.2-0.1-0.3-0.2-0.4-0.3c-0.1-0.1-0.1-0.3,0-0.4l0.5-0.6c0.1-0.1,0.3-0.2,0.4-0.1s0.3,0.2,0.4,0.3
		c0.4,0.2,0.9,0.5,1.5,0.5c0.7,0,1.3-0.4,1.3-1c0-1.5-4.1-1.1-4.1-3.8c0-1.1,0.9-2,2.1-2.3v-1.1c0-0.2,0.1-0.3,0.3-0.3h0.8
		c0.2,0,0.3,0.1,0.3,0.3v1.1c0.6,0.1,1.1,0.3,1.4,0.5c0.1,0.1,0.2,0.2,0.3,0.2c0.1,0.1,0.1,0.2,0.1,0.4l-0.4,0.7
		c-0.1,0.2-0.3,0.2-0.4,0.1c-0.1-0.1-0.2-0.1-0.3-0.2c-0.4-0.2-0.8-0.4-1.3-0.4c-0.8,0-1.3,0.4-1.3,1c0,1.5,4.1,1.1,4.1,3.7
		C106,19.9,105.2,20.9,103.9,21.1z"/>
</g>
</svg>
