<?xml version="1.0" encoding="utf-8"?>
<!-- Generator: Adobe Illustrator 27.0.0, SVG Export Plug-In . SVG Version: 6.00 Build 0)  -->
<svg version="1.1" id="Lager_1" xmlns="http://www.w3.org/2000/svg" xmlns:xlink="http://www.w3.org/1999/xlink" x="0px" y="0px"
	 viewBox="0 0 1600 900" style="enable-background:new 0 0 1600 900;" xml:space="preserve">
<style type="text/css">
	.st0{fill:none;stroke:#000000;stroke-width:4;stroke-linecap:round;stroke-miterlimit:10;}
	.st1{fill:none;stroke:#000000;stroke-width:4;stroke-miterlimit:10;}
	.st2{fill:#161514;}
	.st3{fill:#684A30;}
	.st4{fill:#FFFFFF;}
	.st5{fill:#563C26;}
	.st6{fill:#D8D9E3;}
	.st7{fill:#BFBFC3;}
	.st8{fill:#D1D0D5;}
	.st9{fill:#E7E6EB;}
	.st10{fill:#667572;}
	.st11{fill:#7D829F;}
	.st12{fill:#303030;}
	.st13{fill:#A4A9CF;}
	.st14{fill:#AF7D55;}
	.st15{fill:#8D6F5C;}
	.st16{fill:#7C5F4F;}
	.st17{fill:#272425;}
	.st18{fill:#C49264;}
	.st19{fill:#9C7C6B;}
	.st20{fill:#262430;}
	.st21{fill:#33354C;}
	.st22{fill:#949494;}
	.st23{fill:#E0773C;}
	.st24{fill:#3E405D;}
	.st25{fill:#D4A572;}
	.st26{fill:#AFAFB1;}
	.st27{fill:#5A5A5C;}
	.st28{fill:#E0E0E6;}
	.st29{fill:#242922;}
	.st30{fill:#BDB399;}
	.st31{fill:#8C6846;}
	.st32{opacity:0.45;fill:#2B2D34;}
	.st33{fill:#F9F9F9;}
	.st34{fill:#343B5F;}
	.st35{opacity:0.25;fill:#2B2D34;}
	.st36{fill:#CCA06E;}
	.st37{fill:#3E4471;}
	.st38{fill:none;stroke:#272425;stroke-width:0.8215;stroke-miterlimit:10;}
	.st39{fill:#7D4F32;}
	.st40{fill:#A67147;}
	.st41{fill:#9C9C9C;}
	.st42{fill:#ECC990;}
	.st43{fill:#6B4D2E;}
	.st44{fill:none;}
	.st45{fill:#A27B52;}
	.st46{fill:#38281B;}
	.st47{fill:#E5E5E6;}
	.st48{fill:#414140;}
	.st49{fill:#4B3524;}
	.st50{fill:#CD6836;}
	.st51{fill:#373D62;}
	.st52{fill:#979797;}
	.st53{fill:#E6BC87;}
	.st54{fill:#DBB378;}
	.st55{fill:#858686;}
	.st56{fill:#A4A4A4;}
	.st57{fill:#CDCDCD;}
	.st58{fill:#3B3B3B;}
	.st59{opacity:0.35;}
	.st60{fill:#9A9D9D;}
	.st61{fill:#C7C7C7;}
	.st62{fill:#1D1D1D;}
	.st63{fill:#945414;}
	.st64{fill:#2B2D34;}
	.st65{fill:#573B1C;}
	.st66{fill:none;stroke:#000000;stroke-width:2;stroke-linejoin:round;stroke-miterlimit:10;}
</style>
<g>
	<g>
		<path d="M502.9,72c5-1.2,10.2-1.6,15.3-2.2c15.4-1.7,30.8-2.9,46.2-4c9.2-0.6,21.8-1.6,30.9-1.9c9-0.1,21.8,0.1,30.9,0.2
			c20.6,0.4,41.3,0.9,61.8,3c10.4,1.2,21,2.3,30.7,6.8c10.9,5,16.2,14,18,25.6c1.9,10.2,2.5,20.6,3.2,30.9c0.9,15.5,1.6,31,0.5,46.6
			c-0.7,10.6-4.4,22.2-13.6,28.4c-13.4,8.9-30.2,9.6-45.6,10.8c-30.9,1.4-61.9,0.7-92.8-0.1c0,0,2-1.6,2-1.6
			c-4.8,20.6-17.2,38.4-31.4,53.5c-17.7,18.9-39.4,34.1-61.8,47.1c5.7-5.9,14.2-14.4,18.8-20.9c17.8-23.8,27.5-53,30.2-82.4
			c-0.4,8.5-1.3,17-2.9,25.4c-3.2,16.9-9,33.2-17.4,48.2c-4.3,7.6-8.9,14.8-15,21.2c0,0-2.4-3.2-2.4-3.2c32-19.9,68.9-52,78-89.9
			c0,0,0.4-1.6,0.4-1.6s1.7,0.1,1.7,0.1c30.8,0.9,61.7,1.6,92.4,0.1c14.8-1.1,30.9-1.8,43.5-10c6.1-4.1,9.4-11,10.9-18.1
			c1.5-7.4,1.5-15.1,1.6-22.6c0-10.2-0.4-20.5-1-30.7c-0.5-7.7-1.1-15.3-2-23c-1-7.2-2.1-15.2-6-21.2c-9-12.6-25.8-13.7-40.3-15.5
			c-10.2-1-20.4-1.6-30.7-2.1c-41.1-1.7-82.2-1.1-123.3,0.8C524.8,70.3,511.6,70.5,502.9,72L502.9,72z"/>
	</g>
	<path class="st0" d="M545.8,214.4c0,0-38.1,0.9-52.6-4.4c-14.5-5.3-13.6-15.8-17.1-25.9s-0.9-76.3,0.9-89"/>
	<path class="st1" d="M546.4,219.1"/>
</g>
<g>
	<g>
		<g>
			<path class="st2" d="M1152.5,390l-30.9,7.8c-2.3-6.7-4.8-15.1-4.8-15.1s-7.5-0.3-8.1-1.5c-0.6-1.2,0.9-11.5,0.9-12.7
				c0-1.2-4-30.2-4-30.2s-2-0.7-2-3.1c0-2.4,6.9-22.2,28.4-28.1c21.5-5.9,42.3,2.7,47.7,22.2c5.4,19.5-4,42.6-4,42.6
				s7.8,24.8,8,25.7c0.2,0.8-6.7,2.3-17,6.5c-4.3,1.7-7.5,3.1-9.7,4.1L1152.5,390z"/>
			<path class="st3" d="M1108.6,380.9c0-0.1,0-0.1,0-0.2c0-0.1,0-0.3,0-0.4c0-0.1,0-0.2,0-0.3c0-0.2,0-0.3,0-0.5c0-0.1,0-0.2,0-0.3
				c0-0.2,0-0.4,0-0.6c0-0.1,0-0.2,0-0.3c0-0.3,0-0.6,0.1-0.9c0-0.1,0-0.1,0-0.2c0-0.4,0.1-0.8,0.1-1.2l0,0c0-0.4,0.1-0.8,0.1-1.2
				c0-0.1,0-0.1,0-0.2c0.3-2.7,0.6-5.4,0.6-5.9c0-1.2-4-30.2-4-30.2s13.5,4.9,15.3,6.8c1.4,1.5,5.6,16.7,6.9,27.7l4.4-1.1
				c0,0,0.3-3.2-1.2-8.9c-1-4.1,0.2-6.3,1-7.1c0.1-0.2,0.3-0.3,0.5-0.4c0.1,0,0.1-0.1,0.1-0.1c2.8-1.1,6.7,1.2,7.9,6.1
				c1.3,5,5.7,16.6,7.7,18.3c2,1.7,7.6,1.4,16.6-1.1c9-2.5,10.9-6.5,10.9-6.5s6.2,13.5,8.3,20c4.2,9.1-1.1,0.9-1.1,0.9
				c1.1,3.7-0.7-0.2,0.1,2.3c0,0.1-0.1-0.2,0,0c0,0,0,0,0,0c0.1,0.4,0.3,0.9,0.4,1.2c0,0.2,0.1,0.3,0.1,0.4c0,0,0,0.1,0,0.1
				c0,0.1,0,0.1,0.1,0.2c0,0.1,0,0.2,0.1,0.2c0,0,0,0,0,0c0,0.1,0.1,0.2,0.1,0.2c0,0.1,0,0.1,0,0.1c0.2,0.8-6.7,2.3-17,6.5
				c-10.4,4.2-14.3,6.2-14.3,6.2l-2.5-9.9c0,0-1.7-7.5-1.8-7.5c-1.6,0.6-21.9,16.2-23.8,12.4c-2-3.9-7.6-22.7-7.6-22.7
				s-7.5-0.3-8.1-1.5C1108.6,381.1,1108.6,381,1108.6,380.9"/>
			<path class="st4" d="M1125.3,382.9l-7.5,3.5l1.7,5.5C1119.5,391.9,1127,389.5,1125.3,382.9"/>
			<path class="st2" d="M1107.7,348.1c0,0-0.4,3.1,1.5,3.9c1.9,0.8,2.1,0.1,6.9,0.5c4.8,0.4,5.8,0.1,5.8,0.1s-2.4-3.3-4-3.8
				C1116.2,348.4,1108.7,347.7,1107.7,348.1"/>
			<path class="st5" d="M1142.5,367.4c0,0,0.7,5.1-1.4,8.3c0,0,2.6,8.1,3.6,14.1c0.9,5.9-1.7,7-1.7,7l5.3-3.8l0-13.4L1142.5,367.4z"
				/>
			<path class="st2" d="M1111.9,359.6c0.6,1.7,2.2,2.7,3.6,2.2s2.2-2.2,1.6-3.9c-0.6-1.7-2.2-2.7-3.6-2.2
				C1112,356.2,1111.3,357.9,1111.9,359.6z"/>
		</g>
		<path class="st6" d="M1131.9,771.4c-16.7,0-32.8,0.7-47.5,2c-17.1-8-41.8-15.2-72.4-21.2c0.8-1.4,1.4-2.9,1.5-4.4
			c1.4-16.5-41.7-33.7-96.4-38.4c-54.6-4.7-100.1,4.9-101.5,21.4c-0.1,0.7,0,1.4,0.1,2.2c-14.8-0.4-29.9-0.6-45.2-0.6
			c-163.5,0-300.1,22.7-332.8,52.9c-53.6,3.7-162.6,14.3-162.6,27.8c0,16.6,128.5,30.9,200.7,30.9c12.7,0,25-0.4,36.6-1.2
			c62.4,14.3,154.9,23.3,258.2,23.3c134.5,0,250.7-15.3,306-37.6c16.8,1.8,35.6,2.8,55.3,2.8c72.2,0,192.9,1.2,192.9-15.4
			S1204.1,771.4,1131.9,771.4z"/>
		<g>
			<g>
				<polygon class="st7" points="525.1,761.8 512.1,761.8 506.4,519.7 530.8,519.7 				"/>
				<polygon class="st8" points="521.5,761.8 508.5,761.8 502.8,519.7 527.2,519.7 				"/>
				<polygon class="st9" points="513,761 508.6,761 506,519.8 513.5,519.8 				"/>
			</g>
			<g>
				<polygon class="st7" points="1049.1,761.8 1036.1,761.8 1030.4,519.7 1054.8,519.7 				"/>
				<polygon class="st8" points="1045.5,761.8 1032.5,761.8 1026.8,519.7 1051.2,519.7 				"/>
				<polygon class="st9" points="1037,761 1032.6,761 1030,519.8 1037.5,519.8 				"/>
			</g>
		</g>
		<g>
			<ellipse class="st10" cx="417.4" cy="716.2" rx="11.3" ry="3.4"/>
			<rect x="409.7" y="657" class="st8" width="15.5" height="87.7"/>
			<rect x="420.9" y="657" class="st9" width="3.7" height="87.7"/>
			<path class="st11" d="M428.7,751.8c0,0-5.7,1.3-11.3,1.3c-5.5,0-11.3-1.3-11.3-1.3v-36c0,0,3.7,2.2,11.3,2.2
				c7.5,0,11.3-2.2,11.3-2.2V751.8z"/>
			<path class="st11" d="M525.1,764c-8.7-6.5-72.8-6.6-86.3-10.4c-11.9-3.3-13.3-9.7-13.3-9.7h-16.1c0,0-1.4,6.4-13.3,9.7
				c-13.5,3.7-77.6,3.9-86.3,10.4c-8.7,6.5-13.1,27.2-13.1,27.2l8.5,2.1c0,0,4.8-12.9,15.4-20.6c6.9-5,82.2,0.6,82.2,0.6l8.9,25.9
				h1.7h4.2l0,0h5.8l8.9-25.9c0,0,75.3-5.7,82.2-0.6c10.5,7.7,15.4,20.6,15.4,20.6l8.5-2.1C538.2,791.2,533.8,770.5,525.1,764z"/>
			<path class="st12" d="M430.4,800.1c0,7.2-5.8,13-13,13c-7.2,0-13-5.8-13-13c0-7.2,5.8-13,13-13
				C424.5,787.1,430.4,792.9,430.4,800.1z"/>
			<path class="st12" d="M313.5,800.1c0,7.2-5.8,13-13,13c-7.2,0-13-5.8-13-13c0-7.2,5.8-13,13-13
				C307.6,787.1,313.5,792.9,313.5,800.1z"/>
			
				<ellipse transform="matrix(1 -5.619379e-03 5.619379e-03 1 -4.4879 3.0126)" class="st12" cx="533.9" cy="800.1" rx="13" ry="13"/>
			<polygon class="st13" points="442.8,662.3 391.8,662.1 387.5,646.5 447.4,646.4 			"/>
			<path class="st11" d="M500.6,644.7c0,2.4-2.5,4.4-5.7,4.4h-145c-3.1,0-5.7-2-5.7-4.4l0,0c0-2.4,2.5-4.4,5.7-4.4h145
				C498.1,640.3,500.6,642.2,500.6,644.7L500.6,644.7z"/>
			<path class="st11" d="M302.8,464.8c-1.6,1.3-2.5,4.9-2.1,12.1c0.4,7.2,2.4,61.3,4.6,68.8c2.4,59.4,16.5,76.7,24.8,87.4
				c3.2,4.1,5.4,10,14.8,9.7c-1.6-4-4.3-19.9-4.2-28.3c-13.4-1.8-20.4-39.8-20-60.2c0.3-15.9-7.9-92.7-7.9-92.7
				S306.7,461.6,302.8,464.8z"/>
			<path class="st13" d="M317.4,562.9c1.5,7.4,26.8,1.8,29.1-4c5.9-15.1,4.1-26.8-0.7-47.9c-3.8-16.8-10.3-77.5-11.2-85.3
				c-2-17.7-4.3-19.5-11-19.5c-6.7,0-17.7,2.1-19,8.4c-1.3,6.3,4.7,60.2,7.8,81.3c0.7,4.9,1.2,9.2,1.2,12.1
				C313.5,523.7,316.7,559.7,317.4,562.9z"/>
			<path class="st13" d="M508.6,638c0,2.9-3,5.2-6.7,5.2H347.3c-3.7,0-6.7-2.3-6.7-5.2v-22.7c0-2.9,1.7-6.4,14.2-5.4
				c15.6,1.3,28.7,4.1,74.4,2.8c45.7-1.3,50.6-4.3,64.5-3.8c11.3,0.5,15,3.5,15,6.4V638z"/>
		</g>
		<g>
			<g>
				<path class="st14" d="M622,745.9c-0.2,0.6-1.8,17.4,0.3,21.5c2.1,4.1,8.4,4.8,19,6.3c10.6,1.5,8.9,1.6,26.3,5.8
					c17.4,4.3,28.3,1.8,34.3-0.5c6-2.4,6.9-5.6,6.9-5.6s0.4-10.4-4.4-15.2c-4.8-4.8-7-4.2-19.3-6.3c-12.3-2.1-31.5-17.3-31.5-17.3
					l-29.2,4.1L622,745.9z"/>
				<path class="st15" d="M669.4,771.5c-14.8-4.7-21-5.5-30.1-5.6c-5.5,0-12.8-2.5-18-4.5c0.1,2.5,0.4,4.7,1,5.9
					c2.1,4.1,8.4,4.8,19,6.3c10.6,1.5,8.9,1.6,26.3,5.8c17.4,4.3,28.3,1.8,34.3-0.5c6-2.4,6.9-5.6,6.9-5.6s0.1-3.2-0.6-6.8
					C700.2,772.4,682.4,775.6,669.4,771.5z"/>
				<g>
					<path class="st16" d="M686.4,766.7c-0.8,3.6,0.1,6.5,0.1,6.5s4.3-0.5,11.1-1.9c6.8-1.5,10.6-4.8,10.6-4.8
						c-0.6-3-1.7-6.2-3.8-8.4c-2-2-3.6-3.1-5.7-3.8C694.6,757.7,687,764.1,686.4,766.7z"/>
					<path class="st17" d="M689.3,777.8c-13.6,1-23.6-3.6-34.6-4.9c-10.9-1.3-20.7-0.4-20.9-0.4c2.2,0.4,4.7,0.7,7.5,1.1
						c10.6,1.5,8.9,1.6,26.3,5.8c17.4,4.3,28.3,1.8,34.3-0.5c6-2.4,6.9-5.6,6.9-5.6s0-0.6,0-1.5
						C704.8,774.1,697.8,777.2,689.3,777.8z"/>
				</g>
			</g>
			<polygon class="st14" points="653.7,743.3 658.1,743 656.4,712.1 618.6,714.2 622,745.9 			"/>
		</g>
		<g>
			<path class="st18" d="M607.6,736.1c0,0-0.7,15.7-1.2,20.2c-0.5,4.5-3.5,22.8-2.6,28.6c0.9,5.9,16.9,9.2,27,9.6
				c10.1,0.5,16.7-3.3,18.1-7.3c1.4-4-1.9-28.6-2.1-33.6c-0.2-4.9-1.9-17.6-1.9-17.6H607.6z"/>
			<path class="st15" d="M628.8,763.4c0,0-11,0-16,3.5c-4.9,3.5-5.2,10.8-5.2,10.8l18.9,9.6c0,0,9.3-0.9,11.7-1.9
				c2.3-0.9,11.1-6.2,11.1-6.2S647.1,763.6,628.8,763.4z"/>
			<path class="st19" d="M626.5,781.7c-13.8-0.8-20.4-6.4-22.2-8.3c-0.5,4.7-0.8,9.2-0.4,11.6c0.9,5.9,16.9,9.2,27,9.6
				c10.1,0.5,16.7-3.3,18.1-7.3c0.5-1.4,0.4-5.6,0.1-10.5C643.6,779.4,635.6,782.2,626.5,781.7z"/>
			<path class="st17" d="M626.5,787.3c-10.4-0.9-18.1-4.9-22.7-8.1c-0.1,2.3-0.1,4.4,0.1,5.7c0.9,5.9,16.9,9.2,27,9.6
				c10.1,0.5,16.7-3.3,18.1-7.3c0.3-0.9,0.4-2.9,0.3-5.4C645.4,784.6,637.9,788.3,626.5,787.3z"/>
		</g>
		<g>
			<g>
				<path class="st20" d="M420.6,534.3c0.3,12.4,19.6,42.8,47.1,63.6c25.8,19.4,39.1,17,45.6,27.8l31.8,134.9h28
					c0,0-14.1-142.7-29.6-164.1c-12.9-17.8-10.4-15.7-53.7-43.2l-7.2-17.9L420.6,534.3z"/>
			</g>
			<g>
				<path class="st21" d="M515,615.4c-12.2-17.5-24.2-28.8-67.5-56.3L436,541.5l-51.3-0.9v47.5h-15.4c0.4,3.3,1.7,7.2,4.8,12.4
					c5.5,9.1,20.5,15.6,54.9,15.6c4.8,0,41.6,11.9,48.1,22.8l23.5,121.7l26.6,0.4C527.2,761,527.6,633.5,515,615.4z"/>
			</g>
		</g>
		<path class="st22" d="M543.5,596.5c-19.3-0.7-49.9,12.5-49.9,12.5s-2.3,0.5-6.2,1.3c13.3,6.7,21.2,7.8,25.8,15.4l2.5,10.6
			c13.6-7.1,28.4-11.2,37.1-13.2C549.9,610.5,546.7,600.9,543.5,596.5z"/>
		<g>
			<path class="st21" d="M515,615.4c-12.2-17.5-24.2-28.8-67.5-56.3L436,541.5l-51.3-0.9v47.5h-15.4c0.4,3.3,1.7,7.2,4.8,12.4
				c5.5,9.1,20.5,15.6,54.9,15.6c4.8,0,41.6,11.9,48.1,22.8l21.1,122.9l31.6-2.2C529.8,759.7,527.6,633.5,515,615.4z"/>
		</g>
		<path class="st23" d="M470.9,425.8c0,0-0.7-11.7,12-19.6c8.1-5.1,16.9-6.9,20.4,2.9c2.9,8,13,49.6,18,64.3
			c5,14.7,7.7,24.4,2.3,33.5c-5.4,9.2-33.3,34.1-33.3,34.1l-12.5-1.3c0,0-10.2-6.4-10.2-24.8c0-10.9,15.9-6.9,13.3-27.9
			c-4.4-35.1-8.2-42-9.7-47.2C469.7,434.5,470.9,425.8,470.9,425.8z"/>
		<path class="st24" d="M446.8,395l-7.6,13c0,0,14.3,11.9,15.7,50c1.4,38.1,0,56.2,0,56.2l-3.3,22.9l24.6,0.9c0,0-7-6.2-8.5-21.7
			c-0.8-8.6,8-9.4,11.8-16.5c3-5.7,0.9-16.3,0.4-21c-3.1-27-8.4-34.7-9.4-43.6c-2.1-19.4,10.7-29.1,10.7-29.1L446.8,395z"/>
		<path class="st25" d="M451.3,427.4h19.2c1.4-14.1,10.7-21.2,10.7-21.2L446.8,395l-7.6,13c0,0,7.4,6.2,12.1,23.8V427.4z"/>
		<path class="st23" d="M470.4,427.4c-6.4,0.8-12.5,9.6-18.3,7.8c1.4,6.3,2.5,13.8,2.8,22.9c1.4,38.1,0,56.2,0,56.2l-3.3,22.9
			l24.6,0.9c0,0-7-6.2-8.5-21.7c-0.8-8.6,11.3,3.4,15-3.8c3-5.7,1.7-33.7,1.2-38.4C480.9,448.3,471.7,435.8,470.4,427.4z"/>
		<path class="st23" d="M459.9,446.1c-2.3-24.7-8.8-34-11.9-37.4c-3.1-3.4-25.5-6.7-46.2,18.1c-7.7,9.2-2.2,62.5-8.7,72.5
			c-19.1,29.8-24,87.8-24,87.8s10.5,14.3,23.8,21c13.3,6.7,0-10.5,16.4-25.5c16.4-15,38.4-48.8,48.4-57.7
			C468.9,502.8,459.9,446.1,459.9,446.1z"/>
		<path class="st21" d="M376.6,542.9c-5.6,23.2-7.4,44.3-7.4,44.3s10.5,14.3,23.8,21c13.3,6.7,29.8,4.2,46.2-10.8
			c10.4-9.5-6.9-33.4,3.5-46.8c0,0-31.3,0.3-41.5-1.2C394.9,548.5,376.6,542.9,376.6,542.9z"/>
		<path class="st26" d="M376.6,542.9l3.2-12.1c0,0,17.4,5.2,29.4,7.3c12,2.1,17.2,2,17.2,2v13.5
			C426.3,553.6,396.4,554.6,376.6,542.9z"/>
		<g>
			<rect x="866.8" y="529.5" class="st27" width="17.6" height="62.2"/>
			<g>
				<path class="st10" d="M864.4,686.7c0,2,5.3,3.6,11.9,3.6c6.6,0,11.9-1.6,11.9-3.6c0-2-5.3-3.6-11.9-3.6
					C869.7,683.1,864.4,684.7,864.4,686.7z"/>
				<rect x="868" y="624.3" class="st8" width="16.4" height="92.5"/>
				<path class="st11" d="M888.1,724.3c0,0-6.1,1.4-11.9,1.4c-5.8,0-11.9-1.4-11.9-1.4v-38c0,0,3.9,2.4,11.9,2.4
					c7.9,0,11.9-2.4,11.9-2.4V724.3z"/>
				<path class="st11" d="M989.7,737.1c-9.2-6.8-76.7-7-91-10.9c-12.5-3.4-14-10.2-14-10.2h-17c0,0-1.5,6.8-14,10.2
					c-14.3,3.9-81.8,4.1-91,10.9c-9.2,6.8-13.8,28.7-13.8,28.7l9,2.3c0,0,5.1-13.6,16.2-21.7c7.2-5.3,86.6,0.7,86.6,0.7l9.4,27.3
					h1.8h4.4l0,0h6.1l9.4-27.3c0,0,79.4-6,86.6-0.7c11.1,8.1,16.2,21.7,16.2,21.7l9-2.3C1003.5,765.8,998.9,744,989.7,737.1z"/>
				<path class="st12" d="M889.9,775.2c0,7.6-6.2,13.7-13.7,13.7c-7.6,0-13.7-6.2-13.7-13.7c0-7.6,6.2-13.7,13.7-13.7
					C883.7,761.5,889.9,767.6,889.9,775.2z"/>
				<path class="st12" d="M766.6,775.2c0,7.6-6.2,13.7-13.7,13.7c-7.6,0-13.7-6.2-13.7-13.7c0-7.6,6.2-13.7,13.7-13.7
					C760.4,761.5,766.6,767.6,766.6,775.2z"/>
				<path class="st12" d="M1012.7,775.2c0,7.6-6.2,13.7-13.7,13.7c-7.6,0-13.7-6.2-13.7-13.7c0-7.6,6.2-13.7,13.7-13.7
					C1006.6,761.5,1012.7,767.6,1012.7,775.2z"/>
				<polygon class="st13" points="903,629.9 849.1,629.7 844.6,613.2 907.8,613.1 				"/>
				<path class="st11" d="M963.9,611.3c0,2.6-2.7,4.6-6,4.6H805c-3.3,0-6-2.1-6-4.6l0,0c0-2.6,2.7-4.6,6-4.6h152.9
					C961.2,606.6,963.9,608.7,963.9,611.3L963.9,611.3z"/>
				<path class="st13" d="M978.9,604.2c0,3-3.1,5.5-7,5.5H787.6c-3.9,0-7-2.4-7-5.5v-23.9c0-3,1.8-6.8,15-5.7
					c16.4,1.4,35.2,2.6,85.3,2.7c48.3,0.1,67.7-4.4,82.3-3.8c11.9,0.5,15.8,3.7,15.8,6.7V604.2z"/>
			</g>
			<path class="st13" d="M978.9,537.6c0,10.6-8.6,19.2-19.2,19.2H803.6c-10.6,0-19.2-8.6-19.2-19.2V402c0-10.6,8.6-19.2,19.2-19.2
				h156.1c10.6,0,19.2,8.6,19.2,19.2V537.6z"/>
		</g>
		<polygon class="st26" points="395,494.1 388.4,508 412.3,518 417.4,502.6 		"/>
		<g>
			<g>
				<path class="st14" d="M1054.4,780.7c0.1,0.6,0.5,17.5-1.9,21.4c-2.4,4-8.7,4.2-19.4,4.9c-10.7,0.8-9,0.9-26.7,3.9
					c-17.7,3-28.4-0.2-34.2-3c-5.8-2.8-6.5-6.1-6.5-6.1s0.4-10.4,5.5-14.9c5.1-4.5,7.3-3.7,19.7-4.9s32.7-15,32.7-15l28.9,6.2
					L1054.4,780.7z"/>
				<path class="st19" d="M1005.3,802.8c15.1-3.6,21.4-4,30.4-3.4c5.5,0.4,12.9-1.5,18.3-3.2c-0.3,2.5-0.8,4.7-1.4,5.8
					c-2.4,4-8.7,4.2-19.4,4.9c-10.7,0.8-9,0.9-26.7,3.9c-17.7,3-28.4-0.2-34.2-3c-5.8-2.8-6.5-6.1-6.5-6.1s0.1-3.2,1.1-6.8
					C974.5,801.4,992,806,1005.3,802.8z"/>
				<g>
					<path class="st15" d="M988.6,796.8c0.5,3.6-0.6,6.5-0.6,6.5s-4.3-0.8-11-2.7c-6.7-1.9-10.3-5.5-10.3-5.5
						c0.8-2.9,2.1-6.1,4.4-8.1c2.2-1.9,3.8-2.8,5.9-3.4C981.1,787.2,988.3,794.2,988.6,796.8z"/>
					<path class="st17" d="M984.9,807.7c13.5,2,23.8-1.9,34.9-2.4c10.9-0.5,20.7,1.1,20.9,1.2c-2.2,0.2-4.8,0.4-7.6,0.6
						c-10.7,0.8-9,0.9-26.7,3.9c-17.7,3-28.4-0.2-34.2-3c-5.8-2.8-6.5-6.1-6.5-6.1s0-0.6,0.1-1.5
						C969.7,802.8,976.5,806.4,984.9,807.7z"/>
				</g>
			</g>
			<polygon class="st14" points="1023,775.8 1018.6,775.2 1022.6,744.5 1060,749.3 1054.4,780.7 			"/>
		</g>
		<polygon class="st28" points="1033.7,774.8 1059.8,778.6 1066.5,743.2 1040.4,739.3 		"/>
		<g>
			<g>
				<path class="st18" d="M1067.4,790.8c0.2,0.6,1.5,17.4-0.7,21.5c-2.2,4.1-8.4,4.6-19.1,6c-10.6,1.4-8.9,1.4-26.4,5.4
					c-17.5,4-28.4,1.4-34.3-1c-6-2.4-6.8-5.7-6.8-5.7s-0.2-10.4,4.6-15.1c4.9-4.8,7.1-4.1,19.4-6c12.3-1.9,31.8-16.9,31.8-16.9
					l29.2,4.6L1067.4,790.8z"/>
				<path class="st19" d="M1019.7,815.8c14.9-4.5,21.1-5.2,30.2-5.1c5.5,0.1,12.8-2.3,18-4.2c-0.2,2.5-0.5,4.7-1.1,5.9
					c-2.2,4.1-8.4,4.6-19.1,6c-10.6,1.4-8.9,1.4-26.4,5.4c-17.5,4-28.4,1.4-34.3-1c-6-2.4-6.8-5.7-6.8-5.7s-0.1-3.2,0.7-6.8
					C988.9,816.1,1006.6,819.7,1019.7,815.8z"/>
				<g>
					<path class="st15" d="M1002.7,810.7c0.7,3.6-0.2,6.5-0.2,6.5s-4.3-0.5-11.1-2.1c-6.8-1.6-10.6-4.9-10.6-4.9
						c0.6-2.9,1.8-6.2,3.9-8.3c2.1-2,3.6-3.1,5.7-3.7C994.7,801.6,1002.2,808.1,1002.7,810.7z"/>
					<path class="st17" d="M999.7,821.8c13.6,1.2,23.7-3.2,34.7-4.4c10.9-1.2,20.7-0.1,20.9,0c-2.2,0.3-4.7,0.6-7.6,1
						c-10.6,1.4-8.9,1.4-26.4,5.4c-17.5,4-28.4,1.4-34.3-1c-6-2.4-6.8-5.7-6.8-5.7s0-0.6,0-1.5C984.2,817.8,991.1,821,999.7,821.8z"
						/>
				</g>
			</g>
			<polygon class="st18" points="1035.8,787.7 1031.3,787.4 1033.6,756.6 1071.3,759.2 1067.4,790.8 			"/>
		</g>
		<g>
			<g>
				<path class="st14" d="M812.1,768.4c0.2,0.6,2.5,17.3,0.6,21.5c-2,4.2-8.2,5.1-18.7,7.1c-10.5,2-8.8,1.9-26,6.9
					c-17.2,5-28.2,3-34.3,0.9c-6.1-2.1-7.1-5.3-7.1-5.3s-0.8-10.4,3.7-15.4s6.9-4.5,19.1-7.1c12.2-2.6,30.8-18.7,30.8-18.7l29.4,2.9
					L812.1,768.4z"/>
				<path class="st15" d="M765.9,796.1c14.6-5.3,20.8-6.4,29.8-6.8c5.5-0.3,12.7-3,17.8-5.3c0,2.5-0.2,4.7-0.8,5.9
					c-2,4.2-8.2,5.1-18.7,7.1c-10.5,2-8.8,1.9-26,6.9s-28.2,3-34.3,0.9s-7.1-5.3-7.1-5.3s-0.3-3.2,0.3-6.8
					C735.1,798.2,753,800.7,765.9,796.1z"/>
				<g>
					<path class="st16" d="M748.7,792c0.9,3.6,0.2,6.5,0.2,6.5s-4.3-0.3-11.2-1.5c-6.9-1.2-10.8-4.3-10.8-4.3c0.4-3,1.4-6.3,3.4-8.5
						c1.9-2.1,3.5-3.3,5.5-4.1C740.1,783.3,748,789.4,748.7,792z"/>
					<path class="st17" d="M746.2,803.2c13.6,0.4,23.5-4.6,34.4-6.4c10.8-1.8,20.7-1.3,20.9-1.2c-2.2,0.5-4.7,0.9-7.5,1.4
						c-10.5,2-8.8,1.9-26,6.9s-28.2,3-34.3,0.9s-7.1-5.3-7.1-5.3s0-0.6-0.1-1.5C730.6,800.1,737.7,802.9,746.2,803.2z"/>
				</g>
			</g>
			<polygon class="st14" points="780.3,767.1 775.9,767.1 776.3,736.1 814.1,736.6 812.1,768.4 			"/>
		</g>
		<g>
			<g>
				<path class="st18" d="M870.1,770.5c0.2,0.6,2.5,17.3,0.6,21.5c-2,4.2-8.2,5.1-18.7,7.1c-10.5,2-8.8,1.9-26,6.9
					c-17.2,5-28.2,3-34.3,0.9s-7.1-5.3-7.1-5.3s-0.8-10.4,3.7-15.4c4.6-5,6.9-4.5,19.1-7.1c12.2-2.6,30.8-18.7,30.8-18.7l29.4,2.9
					L870.1,770.5z"/>
				<path class="st19" d="M823.9,798.1c14.6-5.3,20.8-6.4,29.8-6.8c5.5-0.3,12.7-3,17.8-5.3c0,2.5-0.2,4.7-0.8,5.9
					c-2,4.2-8.2,5.1-18.7,7.1c-10.5,2-8.8,1.9-26,6.9c-17.2,5-28.2,3-34.3,0.9c-6.1-2.1-7.1-5.3-7.1-5.3s-0.3-3.2,0.3-6.8
					C793.1,800.3,811,802.8,823.9,798.1z"/>
				<g>
					<path class="st15" d="M806.7,794.1c0.9,3.6,0.2,6.5,0.2,6.5s-4.3-0.3-11.2-1.5c-6.9-1.2-10.8-4.3-10.8-4.3
						c0.4-3,1.4-6.3,3.4-8.5c1.9-2.1,3.5-3.3,5.5-4.1C798.1,785.4,806,791.5,806.7,794.1z"/>
					<path class="st17" d="M804.3,805.3c13.6,0.4,23.5-4.6,34.4-6.4c10.8-1.8,20.7-1.3,20.9-1.2c-2.2,0.5-4.7,0.9-7.5,1.4
						c-10.5,2-8.8,1.9-26,6.9c-17.2,5-28.2,3-34.3,0.9c-6.1-2.1-7.1-5.3-7.1-5.3s0-0.6-0.1-1.5C788.6,802.2,795.7,805,804.3,805.3z"
						/>
				</g>
			</g>
			<polygon class="st18" points="838.4,769.2 833.9,769.2 834.3,738.2 872.1,738.7 870.1,770.5 			"/>
		</g>
		<path class="st20" d="M1214.4,550.5c-0.3,12.5,3.4,21,3,33.5c-0.2,7-0.3,20.9-2.5,27.5c-4.5,14-55,7.3-66.8,7.9
			c-4.8,0.2-47.4-1-50.6,14.6l-33.9,136.4l-45.9-7.7c0,0,12.7-132.7,40.6-164.5c14.6-16.6,36.1-15.5,84.2-26.3l11.2-20.3
			L1214.4,550.5z"/>
		<g>
			<path class="st21" d="M1228.5,551c1.1,15.6,6.1,48.2-4.9,60.6c-16.4,18.5-56.8,7.6-68.6,8.2c-4.8,0.2-38.6,3.6-59.4,8.2
				c-1.8,31.7-24.3,146.3-24.3,146.3l-40.9-0.7c0,0,2.1-162.4,25-185.1c13.1-13,42.8-14.2,93.2-21.3l7.5-16.2L1228.5,551z"/>
			<path class="st29" d="M1150.1,558.2c2,0.1,72.7-4.2,78.5-6.4c0.1-1.6,1.8-5.6,0.1-9.5c-6.5-0.5-73.8,5.2-76.3,5.8
				C1149.4,550,1148.6,556.9,1150.1,558.2z"/>
			<path class="st30" d="M1174.8,558l-4.4,0.4c0,0,0.3-7.2-0.5-11.4c0.8-0.3,3.1-0.4,4.5-0.4C1175.3,549.7,1175.2,553.8,1174.8,558z
				"/>
			<path class="st30" d="M1210.2,555.3l-4.4,0.4c0,0-0.3-8.3-1.1-12.5c0.8-0.3,3.1-0.4,4.5-0.4
				C1210.5,547,1210.2,555.3,1210.2,555.3z"/>
		</g>
		<path class="st26" d="M1060.7,627.8c9.7,5.7,24.2,12.4,33.2,16.4c0.8-6.5,1.4-12.1,1.7-16.2c4.7-1,10-2,15.5-2.9
			c-6.4-3.3-21.2-11.1-30.6-17c-12.4-7.7-25-19.5-25-19.5c-4.6,4.6-8.4,15-11.5,28.6C1048.3,620.2,1054.1,623.9,1060.7,627.8z"/>
		<g>
			<path class="st10" d="M1187.7,724.7c0,1.9-5.1,3.5-11.5,3.5c-6.3,0-11.5-1.6-11.5-3.5c0-1.9,5.1-3.5,11.5-3.5
				C1182.6,721.2,1187.7,722.8,1187.7,724.7z"/>
			<rect x="1168.3" y="664.3" class="st8" width="15.8" height="89.5"/>
			<rect x="1168.9" y="664.3" class="st9" width="3.8" height="89.5"/>
			<path class="st11" d="M1164.8,761.1c0,0,5.9,1.4,11.5,1.4c5.6,0,11.5-1.4,11.5-1.4v-36.8c0,0-3.8,2.3-11.5,2.3
				c-7.7,0-11.5-2.3-11.5-2.3V761.1z"/>
			<path class="st11" d="M1066.4,773.5c8.9-6.6,74.3-6.8,88.1-10.6c12.1-3.3,13.6-9.9,13.6-9.9h16.4c0,0,1.5,6.6,13.6,9.9
				c13.8,3.8,79.2,4,88.1,10.6c8.9,6.6,13.4,27.8,13.4,27.8l-8.7,2.2c0,0-4.9-13.2-15.7-21c-7-5.1-83.9,0.6-83.9,0.6l-9.1,26.5h-1.7
				h-4.2l0,0h-5.9l-9.1-26.5c0,0-76.9-5.8-83.9-0.6c-10.7,7.9-15.7,21-15.7,21l-8.7-2.2C1053,801.3,1057.5,780.1,1066.4,773.5z"/>
			<path class="st12" d="M1163,810.3c0,7.3,6,13.3,13.3,13.3c7.3,0,13.3-6,13.3-13.3c0-7.4-6-13.3-13.3-13.3
				C1169,797,1163,803,1163,810.3z"/>
			<path class="st12" d="M1282.4,810.3c0,7.3,6,13.3,13.3,13.3c7.4,0,13.3-6,13.3-13.3c0-7.4-6-13.3-13.3-13.3
				C1288.3,797,1282.4,803,1282.4,810.3z"/>
			<path class="st12" d="M1044.1,810.3c0,7.3,6,13.3,13.3,13.3c7.3,0,13.3-6,13.3-13.3c0-7.4-6-13.3-13.3-13.3
				C1050.1,797,1044.1,803,1044.1,810.3z"/>
			<polygon class="st13" points="1150.3,669.7 1202.5,669.5 1206.8,653.5 1145.7,653.4 			"/>
			<path class="st11" d="M1091.4,651.7c0,2.5,2.6,4.5,5.8,4.5h148c3.2,0,5.8-2,5.8-4.5l0,0c0-2.5-2.6-4.5-5.8-4.5h-148
				C1094,647.2,1091.4,649.2,1091.4,651.7L1091.4,651.7z"/>
			<path class="st11" d="M1293.3,468.1c1.6,1.3,2.6,5.1,2.1,12.4c-0.4,7.3-2.4,62.6-4.7,70.2c-2.4,60.6-16.9,78.3-25.3,89.2
				c-3.2,4.1-5.5,10.3-15.1,9.9c1.6-4.1,4.4-20.3,4.3-28.9c13.7-1.8,20.8-40.7,20.5-61.5c-0.3-16.3,8-94.6,8-94.6
				S1289.3,464.9,1293.3,468.1z"/>
			<path class="st13" d="M1278.4,568.3c-1.6,7.6-27.4,1.8-29.7-4.1c-6.1-15.4-4.2-27.3,0.8-48.9c3.9-17.2,10.5-79.1,11.4-87
				c2.1-18.1,4.4-19.9,11.2-19.9c6.8,0,18.1,2.2,19.4,8.6c1.3,6.4-4.8,61.4-8,83c-0.7,5.1-1.2,9.4-1.2,12.4
				C1282.4,528.2,1279.1,564.9,1278.4,568.3z"/>
			<path class="st13" d="M1083.2,644.9c0,2.9,3,5.3,6.8,5.3h157.9c3.8,0,6.8-2.4,6.8-5.3v-23.1c0-2.9-1.7-6.5-14.5-5.5
				c-15.9,1.3-29.2,4.2-75.9,2.8c-46.7-1.3-51.7-4.4-65.8-3.8c-11.5,0.5-15.3,3.6-15.3,6.5V644.9z"/>
		</g>
		<path class="st23" d="M613,411.3c0,0,69.9,21,97.7-10c0,0,6.8,167.9,6.8,171.9c0,0-112,6-127.8,1
			C589.7,574.3,584.4,436.8,613,411.3z"/>
		<path class="st21" d="M597.9,444.9c-11.3,49.2-8.2,129.4-8.2,129.4c15.8,5,127.8-1,127.8-1c0-2.7-3-78.3-5-128.4H597.9z"/>
		<path class="st21" d="M593.8,468.3c-6.3,47.7-4.1,106-4.1,106c15.8,5,127.8-1,127.8-1c0-2.3-2.2-57.7-4.1-105H593.8z"/>
		<path class="st23" d="M734.7,313.8c-5.1-10.1-32.7-19.7-32.7-19.7l-5.1,11.3L693,324c-9.6,5.6-25.9,27.6-25.9,27.6l-3.4-9
			c-1.1-6.8-11.8-9.6-11.8-9.6c-1.1-3.9,2.4-32.9,2.4-32.9c-13.3-19.4-50.4,16-50.4,16c-16.3,38.3-10.7,106.5-10.7,106.5
			c-4.5,18.6,7.9,46.8,7.9,46.8l24.8-5.1c-3.4-8.5,0.6-48.5,0.6-48.5c53,10.7,78.9-5.6,78.9-5.6c-0.8,10-1.4,27.6-1.6,36.2h4.3v11.2
			h-3.8l1.1,11.3h23.1l0.6-2.8C746,409.1,734.7,313.8,734.7,313.8z"/>
		<path class="st23" d="M651.6,299.7c0,0-3.3,33.2-4.6,37.3c0,0,6.5,17,18.3,26.6c0,0,32.3-28.1,29.7-49L651.6,299.7z"/>
		<path class="st31" d="M681.2,342.3c6.4-6.4,15.1-17.8,13.9-27.6l4.1-21.4l-43.9,7.7C658.1,314.5,668.7,333.3,681.2,342.3z"/>
		<path class="st26" d="M624.8,430.2c0,0,24.4,5.7,49.8,5.1c25.4-0.6,30.8-1.7,30.8-1.7l-0.3,15c0,0-15.2,1.8-36.5,1.4
			c-21.4-0.4-42.7-3.6-42.7-3.6L624.8,430.2z"/>
		<path class="st26" d="M624.8,396.1c0,0,24.4,5.7,49.8,5.1c25.4-0.6,30.8-1.7,30.8-1.7l-0.3,15c0,0-15.2,1.8-36.5,1.4
			c-21.4-0.4-42.7-3.6-42.7-3.6L624.8,396.1z"/>
		<path class="st32" d="M627.6,458.9l-4-90.1c0,0,3.2,17.2,16.2,24.8c13,7.6,22.4,8.4,22.4,8.4s-12.2,4.8-20.5,5.2
			c-8.4,0.4-5.9,47.4-1.8,64.9c4.1,17.5,9.1,25.1,9.1,25.1l-22,2.1L627.6,458.9z"/>
		<path class="st33" d="M604,499l3-2.5c7.4-4.7,23.5-8,23.5-8c-2.8-1.1-4.5-24.2-4.5-24.2l-24.8,5.1L604,499z"/>
		<path class="st34" d="M722.9,495.3l5.6-26.5h-21.9h-2.8l-1.7,25.9C707.7,497,722.9,495.3,722.9,495.3z"/>
		<g>
			<path class="st20" d="M661.5,734.5C660,704.6,684,568.9,684,568.9c-22.7-22.7-40.4,2.5-40.4,2.5l-8.8,27.8
				c-19.9,37.7-9.1,113.8-4.6,133.2L661.5,734.5z"/>
			<path class="st21" d="M647.2,736.1c-0.9-16.4-11-125.1-6.5-144.4c0,0,7.7-20.3,2.6-34.8c0,0-27.7-29.2-42.2-8.9
				c0,0-8.8,92.8,5.3,188H647.2z"/>
		</g>
		<path class="st23" d="M833.5,374.1c0,0-19.2,3.9-25.4,10.9c-7,8-9.1,38.7-9.1,38.7s-14.7,36.1-38.3,46.8c0,0,22.5,3.9,10.7,31
			c0,0,20.3-4.5,47.9-34.9l1.7,33.3c0,0,91.9,5.1,97.5-0.6c5.6-5.6,10.1-71,10.1-71s-11.3-33.3,7.9-51.3c0,0-15.4-7.1-30.3-13
			c-12.4-4.9-24.7-8.6-25.5-10.1C880.7,353.9,856,392.7,833.5,374.1z"/>
		<g>
			<path class="st26" d="M819.3,457.1c0,0,12.6,1.7,38.5,1.8c25.9,0.1,68.7-6.1,68.7-6.1l-1,10.5c0,0-32.6,9.6-66.9,8.8
				c-34.3-0.8-39.1-1.5-39.1-1.5L819.3,457.1z"/>
			<path class="st26" d="M820.4,487.9c0,0,30.3,3.3,58.1,2c27.8-1.4,44.5-7.5,44.5-7.5l-3.1,14.3l-99.2-1.9L820.4,487.9z"/>
		</g>
		<path class="st35" d="M928.4,432v-23c0,0-6,39-15.5,52c-9.5,13-43,34.8-43,34.8l25.9,1l29-26.8C924.8,469.8,926.6,452.8,928.4,432
			z"/>
		<path class="st23" d="M928.1,373.2c1.7,0.7,10.9,3.9,12.4,4.6c5.8,2.8,10.3,8.6,17.5,38c0,0,24.4,40.7,17.4,51.7
			c-17.1,27-51.3,30.4-51.3,30.4s-4-13-20.3-15.5c18.6-14.9,35.5-15.9,37.8-26.3c-6.8-11.8-16.9-31.1-16.9-31.1
			S895.8,389.2,928.1,373.2z"/>
		<path class="st36" d="M875.7,349.3c-20,29.4-35.1,22.4-35.1,22.4s3.5,6.7,4.1,14.6h9.6v1.8c10.1-3.8,22.3-12.9,26.4-34.3
			C880.7,353.9,877.9,352.9,875.7,349.3z"/>
		<path class="st37" d="M847.3,402.9c0,0-7.6-17.5-9.2-18.5c-1.6-0.9-6.4,0-6.4,0s-0.8-10.3,0-12.9c0.8-2.7,12.2,7.5,12.2,7.5
			L847.3,402.9z"/>
		<path class="st38" d="M880.7,353.9"/>
		<path class="st21" d="M836.5,587.4c0,0-6.2,15.1-8.6,37.1c-2.4,22-3.1,140.3-3.1,140.3s38.4,3.4,47.9,0c0,0,7.7-108.8,5.8-137.2
			c4.2-18,14.2-40.3,14.2-40.3H836.5z"/>
		<path class="st21" d="M772.7,591.6c0,0-10.5,11.2-12.7,37.1l7.4,133.5c0,0,38.3,6.2,47.9,2.8c0,0-0.8-102.1-4.9-134.3
			c11-20.2,17.9-37.9,17.9-37.9L772.7,591.6z"/>
		<path class="st26" d="M878.7,651.2c0.2-9.9,0.2-18.2-0.2-23.5c0.3-1.3,0.6-2.7,1-4H828c0,0.3-0.1,0.6-0.1,0.9
			c-0.5,4.9-1,14.6-1.3,26.7H878.7z"/>
		<path class="st26" d="M812.2,651.2c-0.5-8.3-1.1-15.4-1.8-20.7c1.3-2.3,2.5-4.6,3.6-6.9h-53.5c-0.2,1.6-0.4,3.2-0.5,4.9l1.3,22.6
			H812.2z"/>
		<g>
			<g>
				<path class="st14" d="M544.4,781.2c-0.2,0.5-1.7,16.4,0.3,20.3c2,3.9,7.9,4.5,17.9,6s8.4,1.5,24.9,5.5c16.5,4,26.8,1.7,32.5-0.5
					c5.7-2.2,6.5-5.3,6.5-5.3s0.4-9.8-4.2-14.4c-4.5-4.6-6.7-4-18.3-6s-29.8-16.4-29.8-16.4l-27.7,3.9L544.4,781.2z"/>
				<path class="st15" d="M589.2,805.4c-14-4.4-19.9-5.2-28.4-5.3c-5.2,0-12.1-2.3-17-4.3c0.1,2.4,0.4,4.5,1,5.6
					c2,3.9,7.9,4.5,17.9,6c10,1.4,8.4,1.5,24.9,5.5c16.5,4,26.8,1.7,32.5-0.5c5.7-2.2,6.5-5.3,6.5-5.3s0.1-3-0.5-6.5
					C618.3,806.2,601.5,809.3,589.2,805.4z"/>
				<g>
					<path class="st16" d="M605.3,800.9c-0.7,3.4,0.1,6.1,0.1,6.1s4.1-0.5,10.5-1.8c6.4-1.4,10.1-4.5,10.1-4.5
						c-0.5-2.8-1.6-5.9-3.6-7.9c-1.9-1.9-3.4-2.9-5.4-3.6C613,792.4,605.8,798.5,605.3,800.9z"/>
					<path class="st17" d="M608,811.4c-12.8,0.9-22.4-3.4-32.7-4.7c-10.3-1.3-19.6-0.4-19.8-0.3c2.1,0.3,4.5,0.7,7.1,1.1
						c10,1.4,8.4,1.5,24.9,5.5c16.5,4,26.8,1.7,32.5-0.5c5.7-2.2,6.5-5.3,6.5-5.3s0-0.5,0-1.4C622.7,807.9,616.1,810.8,608,811.4z"
						/>
				</g>
			</g>
			<polygon class="st14" points="574.3,778.7 578.5,778.5 576.9,749.3 541.2,751.2 544.4,781.2 			"/>
		</g>
		<g>
			<g>
				<path class="st18" d="M498.8,785.9c-0.2,0.5-1.7,16.4,0.3,20.3c2,3.9,7.9,4.5,17.9,6c10,1.4,8.4,1.5,24.9,5.5
					c16.5,4,26.8,1.7,32.5-0.5c5.7-2.2,6.5-5.3,6.5-5.3s0.4-9.8-4.2-14.4c-4.5-4.6-6.7-4-18.3-6c-11.6-2-29.8-16.4-29.8-16.4
					l-27.7,3.9L498.8,785.9z"/>
				<path class="st15" d="M543.6,810.2c-14-4.4-19.9-5.2-28.4-5.3c-5.2,0-12.1-2.3-17-4.3c0.1,2.4,0.4,4.5,1,5.6
					c2,3.9,7.9,4.5,17.9,6c10,1.4,8.4,1.5,24.9,5.5c16.5,4,26.8,1.7,32.5-0.5c5.7-2.2,6.5-5.3,6.5-5.3s0.1-3-0.5-6.5
					C572.7,810.9,555.9,814.1,543.6,810.2z"/>
				<g>
					<path class="st16" d="M559.7,805.6c-0.7,3.4,0.1,6.1,0.1,6.1s4.1-0.5,10.5-1.8c6.4-1.4,10.1-4.5,10.1-4.5
						c-0.5-2.8-1.6-5.9-3.6-7.9c-1.9-1.9-3.4-2.9-5.4-3.6C567.4,797.1,560.2,803.2,559.7,805.6z"/>
					<path class="st17" d="M562.4,816.1c-12.8,0.9-22.4-3.4-32.7-4.7c-10.3-1.3-19.6-0.4-19.8-0.3c2.1,0.3,4.5,0.7,7.1,1.1
						c10,1.4,8.4,1.5,24.9,5.5c16.5,4,26.8,1.7,32.5-0.5c5.7-2.2,6.5-5.3,6.5-5.3s0-0.5,0-1.4C577.1,812.6,570.5,815.5,562.4,816.1z
						"/>
				</g>
			</g>
			<polygon class="st18" points="528.7,783.4 532.9,783.2 531.3,754 495.6,755.9 498.8,785.9 			"/>
		</g>
		<g>
			<g>
				<polygon class="st7" points="1000.3,833.4 987.3,833.4 981.6,572.5 1006,572.5 				"/>
				<polygon class="st8" points="996.7,833.4 983.7,833.4 978,572.5 1002.4,572.5 				"/>
				<polygon class="st9" points="988.2,832.5 983.8,832.5 981.2,572.7 988.7,572.7 				"/>
			</g>
			<g>
				<polygon class="st7" points="574.5,833.4 561.4,833.4 555.8,572.5 580.1,572.5 				"/>
				<polygon class="st8" points="570.9,833.4 557.8,833.4 552.2,572.5 576.5,572.5 				"/>
				<polygon class="st9" points="562.3,832.5 557.9,832.5 555.3,572.7 562.8,572.7 				"/>
			</g>
		</g>
		<g>
			<path class="st39" d="M1131,535.5c-30.4-18.6-176.5-30.9-352.1-30.9c-176.6,0-323.3,12.1-352.6,30.9v18.1
				c29.3,20.1,176,42.8,352.6,42.8c175.6,0,321.7-22.5,352.1-42.5V535.5z"/>
			<path class="st40" d="M1131,533.4c0,20-157.7,46.5-352.3,46.5c-194.6,0-352.3-26.5-352.3-46.5c0-20,157.7-39.1,352.3-39.1
				C973.2,494.3,1131,513.4,1131,533.4z"/>
		</g>
		<path class="st34" d="M760.7,470.5c0,0-6.8,1.3-10.5,3.9c0,0,27.4-3,21.2,27.1C771.4,501.5,784,476.7,760.7,470.5z"/>
		<path class="st26" d="M440.8,491c0,0,19.9,1.7,35.5,0.9c15.6-0.8,23.7-2.6,23.7-2.6s-2.7,9.7-3.8,12.5c0,0-12.5,3.6-30.2,2.8
			c-17.8-0.8-22.1-2-22.1-2L440.8,491z"/>
		<path class="st41" d="M604,494.8c0.6-1,1.7-1.9,3-2.8l-3.2,1.1L604,494.8z"/>
		<path class="st42" d="M630.5,488.6c0,0-16.1,3.2-23.5,8L630.5,488.6z"/>
		<path class="st43" d="M927.5,597.4"/>
		<path class="st44" d="M966.3,496.1l12.1-1.1l-1.2,2.4c0.3,0,0.6,0.1,0.9,0.1c0,0,4.8-3.2-0.1-9.1c0,0-7.5-1.3-11.5,2.8
			c0,0-2.3,5.3-5.2,9.3C963.4,498.1,966.3,496.1,966.3,496.1z"/>
		<path class="st42" d="M961.2,511.9c0.1-0.1,0.1-0.2,0.2-0.3C961.3,511.7,961.2,511.8,961.2,511.9z"/>
		<g>
			<path class="st45" d="M630.5,488.6c0,0,13,8.8,8.1,15.6c0,0-0.4,7.9-6,4.5c0,0-3.8,3.4-6.8-0.8c0,0-4.9,3.8-7.1-0.4
				c0,0-4.1,4.9-6.8,0.8c0,0-10.4-5.2-7-11.6C604.8,496.7,613.8,488.3,630.5,488.6z"/>
			<path class="st45" d="M702.1,494.8c0,0-14.2,3.5-7,15.5c0,0,4.8,1.4,4.8-7.2c0,0,0.3,1,2.6,5.6c0,0,10.9,9.5,19.5-1.1
				c0,0,4.1,5.3,4.5-3.4c0,0-1.1-4.9-4.9-9L702.1,494.8z"/>
		</g>
		<g>
			<polygon class="st46" points="608.8,533.1 569.3,533.1 573.3,522.8 612.8,522.8 			"/>
			<polygon class="st33" points="574,531.8 577,524 610.8,524 607.9,531.8 			"/>
			<path class="st33" d="M574.6,527.8c0,0.5-0.5,1-1.2,1c-0.7,0-1.2-0.4-1.2-1c0-0.5,0.5-1,1.2-1C574,526.9,574.6,527.3,574.6,527.8
				z"/>
		</g>
		<path class="st42" d="M764.6,487.9c0,0,0.3,14,3.5,15.3l2.5-2L764.6,487.9z"/>
		<g>
			<path class="st47" d="M885.9,526c0,0.1,0,0.2,0.1,0.3l0-0.5C885.9,525.8,885.9,525.9,885.9,526z"/>
			<path class="st47" d="M905.6,525.9c0,0.1,0,0.2,0,0.3C905.6,526.1,905.6,526,905.6,525.9C905.6,526,905.6,525.9,905.6,525.9z"/>
		</g>
		<g>
			<path class="st47" d="M565.5,496.1c0,0.1,0,0.2,0,0.3C565.5,496.3,565.6,496.2,565.5,496.1C565.6,496.1,565.5,496.1,565.5,496.1z
				"/>
		</g>
		<path class="st48" d="M433.8,512c-1.6,0.7-3.3,1.5-4.8,2.3C430.4,513.6,432.1,512.9,433.8,512z"/>
		<g>
			<path class="st49" d="M1002.1,488.8c0,0-13.1,5-12.8,9.8c0,0,0.2,2,3.1,1.8c0,0-2.6,4.5,1.8,5.1c0,0-0.7,4.4,3.7,3.2l9.6-3.8
				l4.2-10.2C1011.7,494.6,1005.5,487.8,1002.1,488.8z"/>
			<path class="st3" d="M1026.3,492c-1.8,0.5-18.7-15.2-18.7-15.2c-2.6-2.2-9.5,2.9-11.5,4.2c-2,1.3-3.9,2.7-5.8,4.1
				c-2.2,1.6-2.4,2.8-3.1,5.4c-0.4,1.5-0.9,3-1.3,4.5c-0.6,1.9-1.2,3.8-1.8,5.7c-2.2,5.1,1.3,6.1,1.3,6.1c1.4-0.6,2.8-2.1,4.1-3.9
				c0.1-0.1,0.1-0.2,0.2-0.3c2.8-4.1,5-9.5,5-9.5c3.8-4.3,11.1-2.9,11.1-2.9c4.7,5.9,0.1,9.2,0.1,9.2c-0.3,0-0.6-0.1-0.9-0.1
				l-5.4,6.9c1.9,0.2,5.9,1.1,6.7,1.1c14.4,8,23.9-3.2,23.9-3.2l1.6-10.7L1026.3,492z"/>
			<path class="st3" d="M990.4,506c3.1,0.3,3.6-0.2,6.6,0.3c2.9,0.5,4.5,0.5,6.1,0.5l2.5-7.5C985.9,497.9,990.4,506,990.4,506z"/>
		</g>
		<path class="st50" d="M1148,410.4l-10.6,12.1c0,0-34,47.1-41.2,52.2c-8.2-0.4-66.7,17.6-66.7,17.6l-2.8,24.6
			c12.9,1.6,85.4-1.3,94.5-9.4c4.4-3.9,52.1-50.7,50.9-55.2C1172.1,452.2,1148,410.4,1148,410.4z"/>
		<path class="st51" d="M1097,474.1c-0.3,0.2-0.5,0.5-0.8,0.6c-8.2-0.4-66.7,17.6-66.7,17.6l-2.8,24.6c8.8,1.1,45.1,0.1,70.3-3.2
			V474.1z"/>
		<path class="st52" d="M1089.5,475.6l5.5,27c0,0,11-1.3,11.6-2.1c0.6-0.8,7.6-10.2,7.6-10.2l-15-18.3
			C1099.1,471.9,1096.2,474.7,1089.5,475.6z"/>
		<path class="st3" d="M1041.6,518.7c0,0-21-5.3-28.5-1.6c0,0-23.4,13.6-22.7,27.5l36-2.9c0,0,14.3,1.2,17.5-3.7L1041.6,518.7z"/>
		<g>
			<g>
				<g>
					<path class="st23" d="M1108.4,491.9c7.2-16.1,28.3-66,39.6-81.5c0.1-3.3,7-6,7-6s17.5-5.6,31.1-19c23.5,15.5,29.5,35.7,33.5,50
						c6.6,24.3,9.8,54.7,11,80.4c0.7,14.6,8.2,25.7-1.9,26.5c-1.5,0.1-11.9,0.8-15,1c-9.4,0.5-42.6,3.5-58.9,6.8
						c-6.4,3-8.7-0.7-5.4-15c2.1-9.4,2-18.3,0.6-36.2c-0.4-5.6-0.4-9.1-0.6-8.7c-3.9,9.4-19,27.2-23.8,30.2
						c-14.8,9.3-63.2,16.9-82.2,20.8c-1.6-8.1-4.9-25.3-4.9-25.3S1086.6,502.5,1108.4,491.9z"/>
					<path class="st21" d="M1230.2,508.2l-78.9,11.9c0.7,11.9-0.2,7.3-2,14.9c-3.3,14.4-1,18,5.4,15c16.3-3.3,49.6-6.3,58.9-6.8
						c3.1-0.2,13.5-0.8,15-1c10.1-0.8,2.6-11.9,1.9-26.5C1230.5,513.3,1230.3,510.8,1230.2,508.2z"/>
					<path class="st37" d="M1103.3,494.3c-23.4,10.1-64.8,21.5-64.8,21.5s3.3,17.2,4.9,25.3c19-3.9,67.4-11.5,82.2-20.8
						c2.5-1.6,7.8-7.2,12.9-13.6l-16.7-3.7L1103.3,494.3z"/>
					<path class="st37" d="M1146.3,413c10.3-1.3,30.6-11.3,41.5-26.4c-0.1-1.8-7.8-9.6-10.1-9.8c0,0,0.4,8.8-11.6,16.9
						c-6.7,4.5-7.9,4.2-16.1,6.8C1150.8,403.1,1146.7,410,1146.3,413z"/>
				</g>
			</g>
		</g>
		<g>
			<path class="st34" d="M901.6,482.4c0,0,20.3,1.1,22.5,16.3C924.1,498.7,916.8,489.4,901.6,482.4z"/>
			<g>
				<path class="st53" d="M881.3,501.2c0,0,3.4-14.8,20.3-18.8c0,0,21.4,5.1,22.5,16.3C924.9,506.2,873.4,514.5,881.3,501.2z"/>
				<g>
					<path class="st53" d="M750.2,474.5c0,0-14.7,9.8-15.4,16.2c0,0-0.8,12.8,3,12.8c0,0,4.9,0.8,8.3-0.8c0,0,8.6,2.6,11.3,0
						c0,0,4.1,3.4,7.1,0.4c0,0,5.3,2.3,7.5-3C772,500,778.3,470.7,750.2,474.5z"/>
					<path class="st54" d="M758.4,485c0,0,1.3,12,4.9,13.5c-1-0.4,0-7.5,0.4-8.3c1-2.5,2-4.5,1-7.3
						C764.6,482.9,762.7,488.6,758.4,485z"/>
				</g>
			</g>
		</g>
		<path class="st23" d="M521.3,473.2c-3.6-10.6-9.9-35.3-14.2-51.2c-12.6,3.7-14.9,23.6-12.3,35.2c1.4,5.5,8.2,11,8.2,16.5
			c1.8,17.1-12.4,25.4-27.8,31c-3.6,3-7.6,4.7-7.6,10.2c0,18.4,10.2,24.8,10.2,24.8l12.5,1.3c0,0,28-24.9,33.3-34.1
			C529,497.6,526.3,487.9,521.3,473.2z"/>
		<path class="st26" d="M498.4,495.4l2.4-9.6c0,0,8.9-2.6,14.2-3.1c5.4-0.4,9.3,0,9.3,0l1.8,8l-12.7,5.4L498.4,495.4z"/>
		<path class="st34" d="M526.1,490.7c0,0-9.5-0.5-12.7,0c-3.9,0.6-15.1,4.8-15.1,4.8c-1.7,1.9-1.1,2.8-3.4,9.2l-7.3,15.9l-20-3.2
			c0.9,16.4,10.1,22.2,10.1,22.2l12.5,1.3c0,0,28-24.9,33.3-34.1C526.3,502.1,526.8,496.1,526.1,490.7z"/>
		<path class="st32" d="M496.7,434.5c0,0-5.9,9.8-1.4,20.3c2.3,5.3,3.4,15.1,5.2,20.5c5,15.3-17.3,52.9-17.3,52.9
			c7.7,2.6,12.4-17.4,17.9-24.3c2.7-3.4,6.4-6.2,18.8-3.6c-7.7-5.6-14.9-1.7-14.5-2.1c2.7-3,7.2-6.2,15.6-5.9
			c-1.9-2.1-10.2-2.4-15.1,1.6c4.5-18.6-5.9-30-8.7-37.8C494.3,447.9,496.7,434.5,496.7,434.5z"/>
		<g>
			<path class="st42" d="M485.2,516.8c0,0,30.4,5.7,37.2,3.9c4.5-2,14.1-5.2,18.7-3.3c0,0,18.6,9,19.2,19.8c-0.9,2.3-9.7-0.3-17.4-1
				c-4.4-0.4-8.6,1.3-10.5,1c-6.3-1-4.6-3.3-8.3-3.1c-11.2,0.6-40.8,5.2-42.8,2.5L485.2,516.8z"/>
			<path class="st34" d="M485.2,516.8c-7,2.1-4.1,19.8-4.1,19.8c0.8,1,5.9,2,12.3,1.5c-0.1-7.4,2.5-13.8,5.8-19
				C494.2,516.8,492.1,514.7,485.2,516.8z"/>
			<path class="st32" d="M484.7,528.7c0.1-6.2,9.6-8.8,12-10.7c-6.7-3.4-45.5-6.4-50.1-9.6c-4.6-3.2-8.2-47-8.2-47
				s-2.6-26.3-13.2-35.2c-3.8-3.2-7.3-4.8-10.4-5.2v33.3h-18.1v25.6c0.8,11.1,4.2,40.3,18.6,55.2c9,9.2,70.8,6.5,76.3,3.1
				C490.7,535.8,484.6,533.2,484.7,528.7z"/>
			<path class="st23" d="M496.7,518c-11.5-10.7-45.5-6.4-50.1-9.6c-4.6-3.2-11.2-47-11.2-47s0.4-26.3-10.2-35.2
				c-3.8-3.2-7.3-4.8-10.4-5.2v33.3h-18.1v14c0.9,3.4,1.7,5.5,1.7,5.5s4.6,49.7,16.8,57.9c10.7,7.2,70.7,10.7,76.2,7.3
				c0.3-2.8-3-5.8-3-10.3C488.5,522.2,494.3,519.9,496.7,518z"/>
			<path class="st32" d="M415.3,512.9c8.2-1.4,15.1-2.7,23.3-2.7c-1.4,1.4-8.5,5.8-7.2,15.1c1.3-8.5,11.4-15.3,16-16.5
				c-0.3-0.1-0.6-0.2-0.8-0.4c-0.4-0.3-0.9-0.9-1.3-1.9C434.8,505.2,424.6,507.1,415.3,512.9z"/>
		</g>
		<g>
			<g>
				<polygon class="st55" points="630.1,535.5 569.7,526.8 505.3,548.1 506.1,552.5 563.2,560.4 595,544 				"/>
				<g>
					<g>
						<polygon class="st56" points="550.9,539.4 544.7,538.6 547.9,537.4 553.8,538.2 						"/>
						<polygon class="st56" points="564,535.9 571.1,536.9 567.1,538.5 560.1,537.5 						"/>
						<polygon class="st56" points="545.5,541.6 539,540.7 541.5,539.8 547.8,540.7 						"/>
						<polygon class="st56" points="539.4,544.1 532.4,543.1 535.7,541.9 542.5,542.8 						"/>
						<polygon class="st56" points="551.2,536.2 555.4,534.7 560.7,535.4 556.8,537 						"/>
						<polygon class="st56" points="536.4,545.3 532.5,546.9 525,545.8 529.1,544.3 						"/>
						<polygon class="st56" points="557,538.7 564.1,539.7 561.1,540.9 554.1,539.9 						"/>
						<polygon class="st56" points="546.4,546.7 542.5,548.3 535.8,547.3 539.6,545.8 						"/>
						<polygon class="st56" points="551.1,541.1 558,542.1 555.7,543 548.8,542.1 						"/>
						<polygon class="st56" points="545.7,543.3 552.6,544.3 549.5,545.5 542.6,544.5 						"/>
					</g>
					<g>
						<polygon class="st56" points="570.4,542.8 564.3,541.9 567.4,540.8 573.3,541.6 						"/>
						<polygon class="st56" points="583.5,539.3 590.6,540.3 586.7,541.8 579.6,540.8 						"/>
						<polygon class="st56" points="565,545 558.5,544 561,543.1 567.4,544 						"/>
						<polygon class="st56" points="558.9,547.5 551.9,546.5 555.2,545.2 562,546.2 						"/>
						<polygon class="st56" points="570.7,539.6 574.9,538 580.3,538.8 576.3,540.4 						"/>
						<polygon class="st56" points="555.9,548.7 552,550.2 544.5,549.2 548.6,547.7 						"/>
						<polygon class="st56" points="576.6,542.1 583.6,543.1 580.6,544.2 573.6,543.3 						"/>
						<polygon class="st56" points="565.9,550.1 562,551.7 555.3,550.7 559.1,549.1 						"/>
						<polygon class="st56" points="570.6,544.5 577.6,545.5 575.2,546.4 568.3,545.4 						"/>
						<polygon class="st56" points="565.2,546.7 572.1,547.6 569,548.9 562.2,547.9 						"/>
					</g>
				</g>
				<path class="st56" d="M560.6,564.5c0,0-54.8-8.3-55.7-8.8c-0.8-0.5-0.5-7.5,0.4-7.7c0.9-0.2,58.1,8.1,58.1,8.1L560.6,564.5z"/>
				<path class="st57" d="M645.1,453.8c1.4-0.3,2.6,0.8,2.4,2.2c-1.6,14.9-9.1,84.4-10.7,84.2c-1.8-0.2-76.3,24.3-76.3,24.3
					l5.3-92.5c0.1-0.9,0.7-1.7,1.6-1.9L645.1,453.8z"/>
			</g>
			<polygon class="st58" points="555.1,560.9 547.8,560.1 547.8,558.6 555.6,559.4 			"/>
			<polygon class="st58" points="540.1,557.3 535.7,556.7 535.6,558.5 540,559.1 			"/>
			<path class="st4" d="M606,500.1c-0.3,5.1,1.9,9.3,4.8,9.5c2.9,0.2,5.5-3.8,5.8-8.9c0.3-5.1-1.9-9.3-4.8-9.5
				C608.9,491.1,606.3,495,606,500.1z"/>
		</g>
		<path class="st26" d="M1224.2,456.3c0,0-12.7,6.9-34.8,15.7c-22.1,8.8-36.1,11.2-36.1,11.2l-3.9,7l0.6,8.7c0,0,24.2-7.3,43.4-13.2
			c19.2-5.9,33.7-11.1,33.7-11.1L1224.2,456.3z"/>
		<path class="st26" d="M1229.5,498.8c0,0-12.4,5.2-34.8,10.2c-22.4,5.1-43.8,5.6-43.8,5.6s0.2,7.7-0.2,10.9c0,0,26.1-1.3,49.3-5.3
			c23.2-4,30.6-6.7,30.6-6.7L1229.5,498.8z"/>
		<path class="st59" d="M1149.4,490.1l17.7-31.4c0,0-7.1,17.2-8.8,31.5c-1.7,14.4-7.5,19.9-7.5,19.9L1149.4,490.1z"/>
		<path class="st26" d="M1108.4,491.9c0,0,19.3,9.4,30.8,13.9c0,0-7.2,16.1-22.5,18.6l-19.1-27.8L1108.4,491.9z"/>
		<path class="st60" d="M844.2,382.8l7.6,49.2l19.6-56.3C871.4,375.7,860.7,387.6,844.2,382.8z"/>
		<path class="st37" d="M863.2,399.2c0,0,13.3-22.9,14.7-23.6c1.4-0.6,10.2-1.2,10.2-1.2s1.9-13.7,1.2-16.7
			c-0.8-3-14.1-7.9-14.1-7.9l4.7,6.5c0,0-4.3,10.2-6.9,15S863.2,399.2,863.2,399.2z"/>
		<path class="st26" d="M789.2,442.4c0,0,13.3,6,18.9,12.7s6.5,16.6,6.5,16.6l-6.5,6.3l-26.6-24.8L789.2,442.4z"/>
		<polygon class="st35" points="851.8,432 849.7,495.6 851.8,495.6 853.8,426.2 		"/>
		<path class="st34" d="M941.7,456.3c-2.4,10.3-19.2,11.3-37.8,26.3c16.3,2.5,20.3,15.5,20.3,15.5s34.2-3.4,51.3-30.4
			C954.8,454.2,941.7,456.3,941.7,456.3z"/>
		<path class="st26" d="M941.7,456.3l-5.1-9.2c0,0,11.2-1.5,24.2,0c13,1.5,13.9,4.3,13.9,4.3s4.8,11,0.8,16.3
			C975.4,467.6,960.8,457,941.7,456.3z"/>
		<path class="st34" d="M808.1,478c-8.2-16.7-22.5-23.2-26.6-24.8c-5.7,7.1-12.8,13.7-20.8,17.3c0,0,22.5,3.9,10.7,31
			C771.4,501.5,786.4,498.2,808.1,478z"/>
		<path class="st32" d="M819.3,466.6v-38.7c0,0-2.7,27.4-12.3,40.9s-13.4,21-13.4,21S810.3,477.1,819.3,466.6z"/>
		<path class="st61" d="M662.1,318.9c0,0,8.5,7.9,19.7,6.5c11.2-1.4,13.4-6.5,13.4-6.5s-5.7,24.5-8.9,37.8
			c-3.2,13.3-4.3,20.8-4.3,20.8L662.1,318.9z"/>
		<path class="st37" d="M692.3,331.7c0,0,5.5-11.7,6.9-12.8c1.3-1.1,6.3-1.2,6.3-1.2s3.7-13.4,2.5-19.8c-1.2-6.4-13.5-9.9-13.5-9.9
			s-3.1,14.7-2.2,16.1c0.9,1.4,3,14.8,3,14.8L692.3,331.7z"/>
		<path class="st37" d="M667.9,335.8c0,0-9.1-11.3-9.7-11.5c-0.6-0.2-9.3,0.8-9.3,0.8s-2.8-23.1-0.8-28.3c2-5.2,14.1-5.4,14.1-5.4
			l-5.3,12.8L667.9,335.8z"/>
		<g>
			<path class="st45" d="M700.2,261.8c0,0,10.5,49.6-15.8,58.6c0,0-17.3,1.5-30.1-20.3c0,0-12.8-7.5-4.5-16.5
				C649.8,283.6,661.1,241.5,700.2,261.8z"/>
			<path class="st62" d="M702.1,276.1c0,0,2.8-10.1,0-15.8c0,0,4.5-3.9-2.3-10.1c0,0-7.9-22.5-42.3-15.8c0,0-20.9,7.3-18,38.3
				c0,0-11.8,22.5,14.8,27.4c0,0-8.6-8.8-1.9-10.5c0,0,10.1-2.8,11.8-11.3c0,0,0-10.7,22-8.5c0,0,9-1.7,11.8-6.8
				C698.1,263.1,701.5,267,702.1,276.1z"/>
			<g>
				<path class="st31" d="M683.8,293.3c0.8-1.2,4.7,11.2,4.2,12.5c-0.6,1.3-8.5,1.8-9.1,0.4c-0.6-1.4,5.4-1.1,5.8-2
					C685.2,303.2,683,294.5,683.8,293.3z"/>
				<path class="st62" d="M692.2,291.5c0.1,1.8,1.4,3.2,2.8,3.1c1.4-0.1,2.4-1.7,2.3-3.5c-0.1-1.8-1.4-3.2-2.8-3.1
					S692,289.7,692.2,291.5z"/>
				<path class="st62" d="M670.9,294.3c0.3,1.8,1.6,3.1,3,2.9c1.4-0.2,2.3-1.8,2.1-3.6c-0.3-1.8-1.6-3.1-3-2.9
					S670.6,292.5,670.9,294.3z"/>
				<path class="st62" d="M676.7,283.3c0,0,1,1.7-1.2,2.6c-2.2,1-5,0.7-8.2,1.7c-3.2,1-3.9,1.2-3.9,1.2s1.1-2.2,2.8-3.8
					C667.9,283.4,675.2,281.6,676.7,283.3z"/>
				<path class="st62" d="M688.4,282.4c0,0-0.6,1.8,1.7,2.3c2.3,0.5,5-0.3,8.3,0.1c3.3,0.3,2.7,0.3,2.7,0.3s-0.2-1.8-2.2-3
					C697,280.9,689.4,280.6,688.4,282.4z"/>
				<path class="st4" d="M677.4,311.2c0,0,3.4-0.1,7.7-0.5c4.3-0.4,5.1-0.7,5.4-0.5s-2,4.5-6.5,5
					C679.4,315.6,677.6,311.8,677.4,311.2z"/>
			</g>
		</g>
		<polygon class="st26" points="407.7,519.7 404,507.7 441.8,495.2 445.3,506.4 		"/>
		<path class="st34" d="M728.5,468.8c0,0,8.6-27.1,9.2-59.9l-32.3,1.3l-1.9,66.9l8.7,5.3L728.5,468.8z"/>
		<path class="st34" d="M625.8,408.9l-33.1,1.6c0,0-4,28.3,6.3,53l28.7-6L625.8,408.9z"/>
		<polygon class="st26" points="738.4,396.1 705.9,397.2 705.4,410.2 737.7,408.9 		"/>
		<path class="st32" d="M705.4,410.2c0,0-0.5-14.3,3.3-32.7c3.8-18.4,8.8-37.3,8.8-37.3s-4.9,65.4-6,87.7
			c-1.1,22.3-7.9,38.3-7.9,38.3L705.4,410.2z"/>
		<path class="st60" d="M445,417.8c0,0,16.9,32,20.2,42.3c3.3,10.4,3.3,10.4,3.3,10.4s-0.6-34,2.4-44.7L445,417.8z"/>
		<polygon class="st26" points="625.8,408.9 624.8,396.1 592.3,398.4 592.6,410.6 		"/>
		<path class="st32" d="M682.1,377.5c0,0,0.5,40.7,0,53.8c-0.5,13,0,18.8,0,18.8l-1.9,45.4l-2.2,0.4l2.2-64.4v-59.7L682.1,377.5z"/>
		<path class="st25" d="M446.7,406.4l-1.8,11.4c0,0,5.2,12.4,15.2,13.2c10.1,0.8,10.7-5.2,10.7-5.2s-1-6.5-1.3-7.1
			c-0.3-0.5-16.9-9.8-16.9-9.8l-3.4-6.9L446.7,406.4z"/>
		<path class="st37" d="M458.3,444.1c0,0-10.8-12.6-11.6-12.3c-0.8,0.3-9.4,0.9-9.4,0c0-0.9-0.8-13.9,0-17c0.8-3.1,9.4-8.5,9.4-8.5
			l-1.8,11.4L458.3,444.1z"/>
		<path class="st37" d="M468.8,444.1c0,0,3.9-14.2,4.8-14.6c1-0.4,6.4-0.7,6.4-0.7s1.9-13.2,0.9-14.8c-0.9-1.6-6.5,0-6.5,0
			s-3.4,6-4.8,12.1C468.4,432.4,468.8,444.1,468.8,444.1z"/>
		<g>
			<path class="st53" d="M494,364.4c1.2,3.3-0.2,2.4,0.1,8.6c0.2,4,1.3,6.5,1.7,11.5c0.6,6.3-0.7,12.3-0.7,12.3s-1.7,15.6-9.2,19.2
				c-4.7,2.3-25.7-4-31.3-9.3c-2.4-2.2-3.6-5.2-4.4-8c-0.2-0.7-0.4-1.4-0.5-2.1c-5.3,7.4-26.1-17.2-8.3-17.8
				C441.4,378.8,475.3,317.2,494,364.4z"/>
			<path class="st63" d="M475.9,352.7c-2.8,5.2-7.9,12-12,14.6c-4,2.6-5.4,5.1-5,8.9c0.4,3.8-2.5,11.9-5.4,11.8
				c-3.4-0.2-4-6.9-12.2-9.2c-3.1-0.3-7.3,1.7-6.7,5.8c1.6,10.9,12.8,13.3,12.8,13.3s-0.1,10.1-2.6,12.8c-2.4,2.5-7.3,5.3-12,4.1
				c-7.2-1.8-12.2-3.2-20.9,3.1c-21,15.4-13.3,35-17.7,38.9c-7.3,6.4-19.7,2-17.6-1.5c3.1-1.2,4.3-0.1,8.3-3.9
				c4-3.8,3.6-23.7,7.6-31c6.2-11.2,11.2-13.3,17.6-21.4c6.4-8.1,14.5-33.1,17.4-46.2c2.9-13.1,12.4-21,19.9-19.2
				c9.1-7.2,19.8-7.1,34.1,4.1c14.3,11.2,12.7,20.8,12.2,26.7c-4-2.8-0.6-2.2-6.3-6C482,354.6,480.2,353.5,475.9,352.7z"/>
		</g>
		<g>
			<path class="st54" d="M484.3,384.6c0.8-1.2,5,11.8,4.3,13.1c-0.6,1.4-8.9,1.9-9.6,0.4s5.7-1.1,6.2-2.1
				C485.7,395,483.4,385.9,484.3,384.6z"/>
			<path class="st62" d="M489.6,383c0.3,1.9,1.8,3.3,3.3,3c1.5-0.2,2.4-2,2.1-3.9c-0.3-1.9-1.8-3.3-3.3-3
				C490.2,379.3,489.2,381.1,489.6,383z"/>
			<path class="st62" d="M471,386.2c0.4,1.9,1.9,3.2,3.4,2.9c1.5-0.3,2.3-2.1,1.9-4c-0.4-1.9-1.9-3.2-3.4-2.9
				C471.5,382.5,470.6,384.3,471,386.2z"/>
			<path class="st63" d="M475.3,373.6c0,0,1.5,1.8,1.1,2.6c-0.4,0.8-4.9,1.1-8.8,2.2c-3.8,1.2-4.8,1.6-4.8,1.6s0.5-2.6,2.8-3.9
				C467.8,374.9,473.8,372.8,475.3,373.6z"/>
			<path class="st63" d="M494.1,373c-1.7-0.4-3.5-0.8-5.4,0.1c0,0-0.1,1.2,0.9,1.9c1,0.7,3,0.6,4.7,0.9c0.1,0,0.2,0,0.3,0.1
				L494.1,373z"/>
		</g>
		<path class="st4" d="M476.3,405c0,0,5.6,0.2,9.2-0.5c3.6-0.7,3.6-0.7,3.6-0.7s-1.6,5.3-6.6,5.6C477.5,409.8,476.3,405,476.3,405z"
			/>
		<g>
			<path class="st34" d="M496.7,518c-10.8-10.1-44.1-9.2-51.4-11.5l-37.6,13.2c2.5,7.8,2.8,8.7,7.5,11.9
				c10.7,7.2,70.7,10.7,76.2,7.3c0.3-2.8-3-5.8-3-10.3C488.5,522.2,494.3,519.9,496.7,518z"/>
		</g>
		<path class="st32" d="M468.5,470.5c0,0,1.2,8.8,1.4,15.3c0.2,6.5-1.8,23.3-1.8,23.3l-2.2-0.3c0,0,2-18.4,1.8-24.7
			c-0.2-6.3-0.9-19.1-0.9-19.1L468.5,470.5z"/>
		<path class="st26" d="M476.3,491.9c-0.9,0-1.7,0.1-2.6,0.1v12.7c13.5-0.3,22.4-2.9,22.4-2.9c1.1-2.8,3.8-12.5,3.8-12.5
			S491.8,491.1,476.3,491.9z"/>
		<path class="st26" d="M477.1,638.9l0.6,3.3c12.9-4.4,31.2-10.2,42.2-11.8c-1.4-6.9-3-12.2-4.9-14.9c-3.1-4.5-6.2-8.6-9.9-12.6
			c-12.1,3.4-36.7,11-52,20.9C463.5,628,473.9,633.6,477.1,638.9z"/>
		<g>
			<path class="st64" d="M857.7,436.8c1.3,0,2.5-1,2.5-2.4c0-1.3-1-2.5-2.4-2.5c-1.3,0-2.5,1-2.5,2.4
				C855.3,435.7,856.3,436.8,857.7,436.8z"/>
			<path class="st64" d="M857,463.2c1.3,0,2.5-1,2.5-2.4s-1-2.5-2.4-2.5c-1.3,0-2.5,1-2.5,2.4C854.6,462,855.6,463.1,857,463.2z"/>
			<path class="st64" d="M856.2,489.5c1.3,0,2.5-1,2.5-2.4c0-1.3-1-2.5-2.4-2.5c-1.3,0-2.5,1-2.5,2.4
				C853.8,488.4,854.9,489.5,856.2,489.5z"/>
		</g>
		<g>
			<path class="st64" d="M687.2,373.1c1.3,0,2.5-1.1,2.5-2.4c0-1.3-1.1-2.5-2.4-2.5c-1.3,0-2.5,1.1-2.5,2.4S685.9,373.1,687.2,373.1
				z"/>
			<path class="st64" d="M686.9,399.5c1.3,0,2.5-1.1,2.5-2.4c0-1.3-1.1-2.5-2.4-2.5c-1.3,0-2.5,1.1-2.5,2.4S685.5,399.5,686.9,399.5
				z"/>
			<path class="st64" d="M686.5,425.8c1.3,0,2.5-1.1,2.5-2.4c0-1.3-1.1-2.5-2.4-2.5c-1.3,0-2.5,1.1-2.5,2.4S685.1,425.8,686.5,425.8
				z"/>
			<path class="st64" d="M686.1,452.2c1.3,0,2.5-1.1,2.5-2.4c0-1.3-1.1-2.5-2.4-2.5c-1.3,0-2.5,1.1-2.5,2.4S684.8,452.2,686.1,452.2
				z"/>
		</g>
		<g>
			<path class="st64" d="M464.2,477.2c1.3,0.1,2.5-1,2.5-2.3c0.1-1.3-1-2.5-2.3-2.5c-1.3-0.1-2.5,1-2.5,2.3
				C461.9,476,462.9,477.1,464.2,477.2z"/>
			<path class="st64" d="M463.2,503.5c1.3,0.1,2.5-1,2.5-2.3c0.1-1.3-1-2.5-2.3-2.5c-1.3-0.1-2.5,1-2.5,2.3
				C460.8,502.3,461.8,503.5,463.2,503.5z"/>
		</g>
	</g>
	<g>
		<path class="st53" d="M821.9,310.2c0,0-2.9,5.2-4.1,13.6c-0.4,3,0.2,1.5,0,5c-0.1,2,1.1,3.9,1.1,6c0,2.5-0.1,5.7,0.2,8.6
			c0.4,4.3,2.3,9,3.5,13.2c2.6,9.4,5.5,16.3,12.2,19.3c6.5,2.9,16.2,2,29.1-9.7c4.3-3.9,5.9-5.1,10.2-13.3
			c6.4,1.9,19.2-26.1,0.6-22.3C874.7,330.5,871.4,296.7,821.9,310.2z"/>
		<path class="st65" d="M882.5,306.9c-12-38.3-61.8-13.4-61.8-13.4c-19.3,4.4-2.7,37.7-2.7,37.7c0.3-9.4,8.5-18.7,8.5-18.7
			c3.7,3.6,32.1,2.9,32.1,2.9c10.2,7.6,3.7,18.4,3.7,18.4s8.2,5.8,7.4,13.9l1.8,0.4l2-8.8c2.3-5.1,7-8.8,7-8.8
			C887.7,316.3,882.5,306.9,882.5,306.9z"/>
		<path class="st54" d="M877,337.5c2.6-2,3.5,6.9-1.8,9.8C874.2,347.2,874.3,339.5,877,337.5z"/>
	</g>
	<path class="st4" d="M833.6,362.9c0,0,8.2-0.4,11.2-1.2c3-0.8,3-0.8,3-0.8s-1.3,6.5-6.4,7C836.4,368.4,833.6,365,833.6,362.9z"/>
	<g>
		<path class="st36" d="M835.3,343.6c-1.2-1-1.7,13.3-0.7,14.5c1,1.2,9.5-0.6,9.8-2.3c0.2-1.7-6.1,0.4-6.8-0.4
			C836.7,354.5,836.5,344.6,835.3,343.6z"/>
		<path class="st62" d="M828.7,343.6c0.2,2-0.9,3.8-2.5,4c-1.6,0.2-3-1.4-3.2-3.4c-0.2-2,0.9-3.8,2.5-4
			C827.1,340.1,828.5,341.6,828.7,343.6z"/>
		<path class="st62" d="M849.9,341.6c0.1,2-1.1,3.8-2.6,3.8c-1.6,0.1-2.9-1.5-3-3.5c-0.1-2,1.1-3.8,2.6-3.8
			C848.4,338,849.8,339.5,849.9,341.6z"/>
		<path class="st65" d="M841.3,330c0,0-1,2.2-0.4,2.9c0.6,0.7,5.3-0.3,9.5-0.2c4.2,0.1,5.3,0.3,5.3,0.3s-1.3-2.5-3.9-3.2
			C849.2,329.2,842.6,328.7,841.3,330z"/>
		<path class="st65" d="M827.3,333.3c0,0,0.4,1.2-0.4,2.2c-0.8,1-2.9,1.4-4.5,2.2c-1.6,0.8-3.4,2.2-3.4,2.2s0-3.3,0-3.6
			C819,336,823.1,332.5,827.3,333.3z"/>
	</g>
</g>
<g>
	<path class="st66" d="M-283.1,270.2c7.4,7.4,16.7-0.8,9.2-10.3C-280.9,253.1-287.2,266.1-283.1,270.2z"/>
	<path class="st66" d="M-249.9,252.9c11.7,0,13.4-9.2,13.4-14.8c0-5.6-5.6-10.6-12.8-10.6c-7.3,0-11.7,5.9-11.7,13.1
		S-256.9,252.9-249.9,252.9z"/>
	<path class="st66" d="M-219.5,221.9c17,0,23.1-12.5,23.1-23.1c0-10.6-12.8-16.5-24.3-16.5s-20.1,9.8-20.1,19.2
		C-240.7,211-235.1,221.9-219.5,221.9z"/>
	<g>
		<path d="M-197.5,202.7c1.7,1.8,3.6,3.3,5.5,4.6c1.8,1.5,3.8,2.7,6,3.6c8.8,3.5,19.3,1.5,26.2-4.9c3.5-3.3,6.6-7,10-10.4
			c-1.9,4.6-4.8,8.7-8.6,12c-5.6,5.1-13.3,7.8-20.9,7.1C-186.8,213.7-194.6,209.9-197.5,202.7L-197.5,202.7z"/>
	</g>
	<g>
		<path d="M-155.1,201.6c1.4,7.3,8.7,11.3,15.3,13c7,1.5,14.4,1.8,21.4,0.5c10.8-1.9,19.8-9.9,19.6-21.3c0.3-3.5-0.3-7.2-1.7-10.6
			c4.5,6.3,4.9,14.8,1,21.6c-3.7,6.8-11,10.9-18.5,12.3C-129.9,219.2-155.1,218-155.1,201.6L-155.1,201.6z"/>
	</g>
	<g>
		<path d="M-97.7,196.3c7.1,2.4,15.1,0.7,21.2-3.4c7.9-5.6,16.5-14.3,15.3-24.7c-0.7-5.7-4.4-10.8-9-14.2c-0.5-0.3-0.5-1-0.2-1.4
			c7.5-3.4,11.8-9.8,11.2-18.3c-0.4-8.3-7-13.1-14.9-13.6c0,0,0.1-2,0.1-2c4.2-0.2,6.3-4.8,7.2-8.5c0.5-2.1,0.8-4.3,0.9-6.4
			c0-6.4-4.7-11.9-9.2-16.2c-12.8-11.8-32.8-16.2-48.4-7.4c-3.9,2.1-7.4,4.9-10.6,8c5.8-6.9,13.6-12.2,22.6-14.1
			c13.5-2.6,27.7,2.9,37.7,12c4.9,4.6,9.9,10.6,9.8,17.8c-0.5,6.4-2.1,16.4-10.3,16.8c-1.3,0-1.3-2,0-2c9,0.5,16.4,6,16.9,15.5
			c0.9,8.4-4.1,17-12.1,20c0,0,0.2-1.8,0.2-1.8c7.7,5.6,12.4,15.8,8.6,25C-66.1,191-82.8,202.4-97.7,196.3L-97.7,196.3z"/>
	</g>
	<g>
		<path d="M-121.9,78.6c-1-3.3-3.2-6.1-5.9-8.4c-7.5-7.3-18.5-9.2-28.7-9.7c-11.1-0.3-19.9,5.3-22.7,16.2c-1.2,3.2-1.9,6.7-2.1,10.2
			c-2.5-16.4,8.2-29,24.9-28.4C-143.7,58.9-123.6,63.3-121.9,78.6L-121.9,78.6z"/>
	</g>
	<g>
		<path d="M-178.3,73c-5.9-2.1-12.1-4.5-18.4-4.7c-19.6,1.3-40.8,10.3-30.9,33.6c0.3,0.7-0.3,1.5-1,1.4c-3.9-0.4-8-0.4-11.8,0.4
			c-1.9,0.4-3.7,1-5,2.2c-4.1,4-6.1,10.2-5.4,15.8c0.5,3.8,2.4,7.3,5.2,10.1c0.5,0.5,0.3,1.3-0.3,1.6c-4.5,2.6-9.8,6.1-11.3,11.4
			c-0.6,4.2-0.2,8.8,1.2,12.7c4,11.1,16.3,9.8,25.6,6.8c-9.5,4.3-23.2,6.3-27.4-6.1c-1.5-4.1-1.8-8.5-1.4-12.8
			c0.1-0.7,0.2-1.5,0.5-2.1c2.1-5.5,7.2-8.9,12-11.7c0,0-0.3,1.6-0.3,1.6c-3-3-5.2-6.9-5.7-11.2c-0.8-6.4,1.4-13,6-17.6
			c1.6-1.5,3.9-2.2,6-2.7c4.1-0.8,8.3-0.8,12.4-0.4c0,0-1,1.4-1,1.4c-9.5-22.4,7.7-33.3,27.8-35.9C-193.3,65.6-185.5,69.6-178.3,73
			L-178.3,73z"/>
	</g>
	<g>
		<path d="M-239.3,165.6c0.8,1.9,1,3.7,1,5.7c0.4,4.5,1.4,9.4,4.5,12.9c0.3,0.9,0.9,1.7,1.4,2.6c-1.5-0.4-3.1-1-3.9-2.5
			c-1.5-2.1-2.4-4.5-3.1-6.9c-0.5-1.9-0.8-3.9-0.9-5.9C-240.6,169.4-240.4,167.4-239.3,165.6L-239.3,165.6z"/>
	</g>
</g>
<g>
	<path d="M537,142.9h4.3v2.8H537v6.7h-3.4v-6.7h-13.2v-3.3l12.4-15.2h4.2V142.9z M523.4,142.9h10.2v-12.5L523.4,142.9z"/>
	<path d="M554.4,159.1H551V135h3.3v3.7c0.8-2.2,3-4.2,6.3-4.2c5.2,0,8,4.1,8,9.2c0,5.2-2.8,9.2-8,9.2c-3.3,0-5.5-2-6.3-4.1V159.1z
		 M554.3,144.2c0,3.8,2.4,6.1,5.6,6.1c3.4,0,5.3-2.6,5.3-6.5s-1.9-6.5-5.3-6.5c-3.2,0-5.6,2.2-5.6,6V144.2z"/>
	<path d="M582.5,138.3c-1-0.5-1.6-0.7-2.7-0.7c-2.5,0-4.4,2.3-4.4,5.6v9.2h-3.3V135h3.3v3.6c0.6-2,2.4-4,5-4c1.1,0,1.9,0.3,2.5,0.8
		L582.5,138.3z"/>
	<path d="M592.5,152.9c-5.1,0-8.9-3.8-8.9-9.2c0-5.4,3.8-9.2,8.9-9.2c5.2,0,8.9,3.8,8.9,9.2C601.4,149.2,597.7,152.9,592.5,152.9z
		 M592.5,150.4c3.6,0,5.6-2.8,5.6-6.6c0-3.9-2-6.6-5.6-6.6c-3.5,0-5.5,2.7-5.5,6.6C587,147.6,589,150.4,592.5,150.4z"/>
	<path d="M612.8,134.5c5.1,0,7.9,3.4,8.2,7.6l-2.9,0.2c-0.3-3.1-2.1-5.2-5.4-5.2c-3.3,0-5.5,2.5-5.5,6.5s2.2,6.5,5.5,6.5
		c3.2,0,5.1-2.2,5.4-5.3l2.9,0.3c-0.4,4.2-3.1,7.6-8.2,7.6c-5.3,0-8.9-3.6-8.9-9.2C603.9,138.2,607.6,134.5,612.8,134.5z"/>
	<path d="M640.6,146.6c-0.9,4-3.8,6.3-8.1,6.3c-5.2,0-9-3.5-9-8.9c0-5.5,3.8-9.5,8.8-9.5c5.6,0,8.4,4,8.4,8.7v1.3h-13.9
		c0.2,3.4,2.6,5.8,5.7,5.8c2.9,0,4.6-1.4,5.4-4.1L640.6,146.6z M637.3,142.4c-0.1-2.8-1.7-5.4-5-5.4c-3.2,0-5,2.5-5.4,5.4H637.3z"/>
	<path d="M647.4,152.4h-3.3V135h3.3v3.1c0.8-2.1,3.2-3.6,5.8-3.6c4.6,0,6.4,3,6.4,7.1v10.8h-3.3v-10.5c0-2.9-1.4-4.8-4.2-4.8
		c-2.6,0-4.7,2.1-4.7,5.3V152.4z"/>
	<path d="M664.5,137.4h-2.6v-1.8l1.1-0.2c1.6-0.3,2-1.1,2.4-2.8l0.5-2.4h1.9v4.8h4.9v2.4h-4.9V148c0,1.6,0.6,2.3,2.2,2.3
		c1.1,0,2.3-0.5,3.3-1v2.2c-1.3,1-2.6,1.5-4.5,1.5c-2.5,0-4.2-1.2-4.2-4.6V137.4z"/>
	<path d="M681.8,145.7c0-2.3,0.8-3.8,2.9-5.5c1.9-1.5,4-2.9,4-5.9c0-2.6-1.6-4.7-4.9-4.7c-3.5,0-5.4,2.2-5.4,5.9
		c0,0.8,0.1,1.5,0.3,2.3l-3.4-0.2c-0.2-0.8-0.2-1.6-0.2-2.4c0-5.2,3.4-8.5,8.8-8.5c5.9,0,8.5,3.4,8.5,7.5c0,3.5-2.4,5.6-5.3,7.9
		c-1.5,1.2-2,2-2.1,3.6H681.8z M681.2,148.4h4v4h-4V148.4z"/>
</g>
<g>
	<path d="M476.2,184.2c-1.4-2.7-2-5.7-2.6-8.6c-0.4-2.2-1-4.4-1-6.6c-0.1-6.7-0.2-13.3-0.1-20c0.2-11.8,0.5-23.6,1.2-35.4
		c0.3-5.9,0.6-11.8,1.3-17.7c0.2-1.7,0.6-3.2,1.1-4.7c3.4-11,11.2-19.3,22.9-20.8c6.1-0.9,12.1,0.1,17.7,1.9
		c-5.8-0.9-11.8-1.1-17.3,0.4c-9.5,2.4-16.7,10.6-19.6,19.8c-0.4,1.3-0.8,2.7-0.9,3.9c-0.6,5.7-1,11.6-1.3,17.5
		c-0.9,18.3-1.6,36.7-1,55C476.7,173.9,475.6,179.1,476.2,184.2L476.2,184.2z"/>
</g>
</svg>
