<?xml version="1.0" encoding="utf-8"?>
<!-- Generator: Adobe Illustrator 27.0.1, SVG Export Plug-In . SVG Version: 6.00 Build 0)  -->
<svg version="1.1" id="Lager_1" xmlns="http://www.w3.org/2000/svg" xmlns:xlink="http://www.w3.org/1999/xlink" x="0px" y="0px"
	 viewBox="0 0 1600 900" style="enable-background:new 0 0 1600 900;" xml:space="preserve">
<style type="text/css">
	.st0{fill:#500B00;}
	.st1{fill:#F9F8F4;}
	.st2{fill:#7D7B7B;}
	.st3{fill:#A2A1A1;}
	.st4{fill:#F3F3F3;}
	.st5{fill:#96672C;}
	.st6{fill:#CECECE;}
	.st7{fill:#F28000;}
	.st8{fill:#106B7A;}
	.st9{fill:#013F4B;}
	.st10{fill:#D3A472;}
	.st11{fill:#FFFFFF;}
	.st12{fill:#454545;}
	.st13{fill:#E5BB86;}
	.st14{fill:#545454;}
	.st15{opacity:0.25;}
	.st16{fill:#B98A50;}
</style>
<g>
	<ellipse class="st0" cx="801.7" cy="858" rx="419.9" ry="33.8"/>
	<g>
		<g>
			<g>
				<rect x="480.5" y="17.3" class="st1" width="625" height="386"/>
			</g>
			<g>
				<rect x="469.5" y="13.9" width="647.1" height="9.8"/>
			</g>
			<g>
				<rect x="469.5" y="398.1" width="647.1" height="9.8"/>
			</g>
		</g>
		<g>
			<g>
				
					<rect x="869.4" y="532.8" transform="matrix(0.9999 -1.332719e-02 1.332719e-02 0.9999 -7.0824 12.2641)" class="st2" width="94.5" height="9.4"/>
			</g>
			<g>
				<g>
					<polygon class="st3" points="1091,431.7 942.6,433.7 923.5,542.2 1070.9,541.6 					"/>
				</g>
			</g>
			<g>
				<path class="st4" d="M1026.9,479.7c-0.1-7-3.9-12.7-10.9-12.6c-7,0.1-12.7,5.9-12.6,12.9c0.1,7,3.9,12.7,10.9,12.6
					C1021.3,492.5,1027,486.7,1026.9,479.7z"/>
			</g>
		</g>
		<g>
			<rect x="855.7" y="541.4" class="st5" width="235.3" height="8.3"/>
		</g>
		<g>
			<path class="st5" d="M853.2,863.8c-0.2,0-0.3,0-0.5,0c-2-0.2-3.4-2.1-3.2-4.1l38.6-312.5c0.2-2,2.1-3.4,4.1-3.2
				c2,0.2,3.4,2.1,3.2,4.1l-38.6,312.5C856.6,862.5,855,863.8,853.2,863.8z"/>
		</g>
		<g>
			<path class="st5" d="M1105.9,863.8c-1.8,0-3.4-1.4-3.6-3.2l-38.6-312.5c-0.2-2,1.2-3.9,3.2-4.1c2-0.2,3.9,1.2,4.1,3.2l38.6,312.5
				c0.2,2-1.2,3.9-3.2,4.1C1106.2,863.8,1106.1,863.8,1105.9,863.8z"/>
		</g>
		<g>
			<path class="st5" d="M1084.8,694.7H873.4c-2,0-3.7-1.6-3.7-3.7s1.6-3.7,3.7-3.7h211.4c2,0,3.7,1.6,3.7,3.7
				S1086.8,694.7,1084.8,694.7z"/>
		</g>
	</g>
</g>
<path class="st6" d="M628.9,68.2H512.1c-4.3,0-7.9-3.5-7.9-7.9l0,0c0-4.3,3.5-7.9,7.9-7.9h116.8c4.3,0,7.9,3.5,7.9,7.9l0,0
	C636.8,64.6,633.2,68.2,628.9,68.2z"/>
<path class="st6" d="M666.5,123.7h-127c-3.8,0-6.9-3.1-6.9-6.9l0,0c0-3.8,3.1-6.9,6.9-6.9h127c3.8,0,6.9,3.1,6.9,6.9l0,0
	C673.4,120.6,670.3,123.7,666.5,123.7z"/>
<path class="st6" d="M620.9,156.4h-82.5c-3.2,0-5.8-2.6-5.8-5.8v-2.1c0-3.2,2.6-5.8,5.8-5.8h82.5c3.2,0,5.8,2.6,5.8,5.8v2.1
	C626.8,153.8,624.1,156.4,620.9,156.4z"/>
<path class="st6" d="M656.5,187.1h-117c-3.8,0-6.9-3.1-6.9-6.9l0,0c0-3.8,3.1-6.9,6.9-6.9h117c3.8,0,6.9,3.1,6.9,6.9l0,0
	C663.4,184,660.3,187.1,656.5,187.1z"/>
<circle class="st7" cx="511.4" cy="116.5" r="7.2"/>
<circle class="st7" cx="511.4" cy="149.9" r="7.2"/>
<circle class="st7" cx="511.4" cy="180.6" r="7.2"/>
<g>
	<g>
		<path class="st7" d="M744.1,346.4c-1.5,0-2.9-0.7-3.8-2c-1.5-2.1-1-5,1.1-6.5l66.4-46.6c1.2-0.8,2.7-1.1,4.1-0.6l36.9,11.9
			l60.9-59.7c1.3-1.3,3.2-1.7,4.8-1.1l26.6,9.6l107.7-88c2-1.6,4.9-1.4,6.6,0.6c1.6,2,1.4,4.9-0.6,6.6L945,260.3
			c-1.3,1.1-3,1.4-4.6,0.8l-26.4-9.5l-60.8,59.7c-1.2,1.2-3.1,1.6-4.7,1.1l-37.4-12.1l-64.5,45.2C746,346.1,745,346.4,744.1,346.4z"
			/>
	</g>
	<g>
		<g>
			<path class="st8" d="M1011.5,237h-8.2c-2.6,0-4.7,2.1-4.7,4.7v122.8c0,2.6,2.1,4.7,4.7,4.7h8.2c2.6,0,4.7-2.1,4.7-4.7V241.7
				C1016.1,239.1,1014.1,237,1011.5,237z"/>
		</g>
		<g>
			<path class="st8" d="M986.1,248.1h-8.5c-2.5,0-4.5,2-4.5,4.5v112.2c0,2.5,2,4.5,4.5,4.5h8.5c2.5,0,4.5-2,4.5-4.5V252.5
				C990.5,250.1,988.5,248.1,986.1,248.1z"/>
		</g>
		<g>
			<path class="st8" d="M960.7,275.1h-9.6c-2.2,0-3.9,1.8-3.9,3.9v86.2c0,2.2,1.8,3.9,3.9,3.9h9.6c2.2,0,3.9-1.8,3.9-3.9v-86.2
				C964.6,276.9,962.9,275.1,960.7,275.1z"/>
		</g>
		<g>
			<path class="st8" d="M934.5,275.1h-9.6c-2.2,0-3.9,1.8-3.9,3.9v86.2c0,2.2,1.8,3.9,3.9,3.9h9.6c2.2,0,3.9-1.8,3.9-3.9v-86.2
				C938.4,276.9,936.7,275.1,934.5,275.1z"/>
		</g>
		<g>
			<path class="st8" d="M909.3,293.2h-10.4c-2,0-3.5,1.6-3.5,3.5v68.9c0,2,1.6,3.5,3.5,3.5h10.4c2,0,3.5-1.6,3.5-3.5v-68.9
				C912.8,294.8,911.2,293.2,909.3,293.2z"/>
		</g>
		<g>
			<path class="st8" d="M883.3,313.3h-11.4c-1.7,0-3,1.4-3,3v49.8c0,1.7,1.4,3,3,3h11.4c1.7,0,3-1.4,3-3v-49.8
				C886.3,314.6,885,313.3,883.3,313.3z"/>
		</g>
		<g>
			<path class="st8" d="M857.9,340.1h-13.1c-1.2,0-2.2,1-2.2,2.2V367c0,1.2,1,2.2,2.2,2.2h13.1c1.2,0,2.2-1,2.2-2.2v-24.7
				C860.1,341,859.1,340.1,857.9,340.1z"/>
		</g>
		<g>
			<path class="st8" d="M832.4,325.5h-12.1c-1.5,0-2.7,1.2-2.7,2.7v38.3c0,1.5,1.2,2.7,2.7,2.7h12.1c1.5,0,2.7-1.2,2.7-2.7v-38.3
				C835.1,326.7,833.9,325.5,832.4,325.5z"/>
		</g>
		<g>
			<path class="st8" d="M808.1,320.8h-11.8c-1.6,0-2.8,1.3-2.8,2.8v42.7c0,1.6,1.3,2.8,2.8,2.8h11.8c1.6,0,2.8-1.3,2.8-2.8v-42.7
				C810.9,322.1,809.7,320.8,808.1,320.8z"/>
		</g>
		<g>
			<path class="st8" d="M783.8,335.7h-12.8c-1.3,0-2.3,1-2.3,2.3v28.8c0,1.3,1,2.3,2.3,2.3h12.8c1.3,0,2.3-1,2.3-2.3V338
				C786.2,336.7,785.1,335.7,783.8,335.7z"/>
		</g>
	</g>
	<g>
		<g>
			<path class="st9" d="M1060.2,263.2c-12.8,0-23.2-10.4-23.2-23.2c0-12.8,10.4-23.2,23.2-23.2c12.8,0,23.2,10.4,23.2,23.2
				C1083.4,252.7,1073,263.2,1060.2,263.2z M1060.2,227.4c-6.9,0-12.5,5.6-12.5,12.5c0,6.9,5.6,12.5,12.5,12.5
				c6.9,0,12.5-5.6,12.5-12.5C1072.7,233,1067.1,227.4,1060.2,227.4z"/>
		</g>
		<g>
			<path class="st3" d="M1060.2,263.2c12.8,0,23.2-10.4,23.2-23.2c0-12.5-9.9-22.7-22.3-23.2v10.8c6.4,0.5,11.5,5.8,11.5,12.4
				c0,6.9-5.6,12.5-12.5,12.5c-2.7,0-5.2-0.9-7.2-2.3l-7.4,7.8C1049.6,261.2,1054.6,263.2,1060.2,263.2z"/>
		</g>
		<g>
			<path class="st8" d="M1061.1,216.7v10.8c6,0.5,10.8,5.2,11.4,11.2l9.4-6.8C1078.8,223.3,1070.7,217.1,1061.1,216.7z"/>
		</g>
	</g>
	<g>
		<path class="st6" d="M1078.1,276.3h-38.4c-1.2,0-2.2-1-2.2-2.2l0,0c0-1.2,1-2.2,2.2-2.2h38.4c1.2,0,2.2,1,2.2,2.2l0,0
			C1080.3,275.3,1079.3,276.3,1078.1,276.3z"/>
	</g>
	<g>
		<path class="st6" d="M1078.1,287.1h-38.4c-1.2,0-2.2-1-2.2-2.2l0,0c0-1.2,1-2.2,2.2-2.2h38.4c1.2,0,2.2,1,2.2,2.2l0,0
			C1080.3,286.1,1079.3,287.1,1078.1,287.1z"/>
	</g>
	<g>
		<g>
			<path class="st9" d="M1060.2,344.1c-12.8,0-23.2-10.4-23.2-23.2c0-12.8,10.4-23.2,23.2-23.2c12.8,0,23.2,10.4,23.2,23.2
				C1083.4,333.7,1073,344.1,1060.2,344.1z M1060.2,308.4c-6.9,0-12.5,5.6-12.5,12.5c0,6.9,5.6,12.5,12.5,12.5
				c6.9,0,12.5-5.6,12.5-12.5C1072.7,314,1067.1,308.4,1060.2,308.4z"/>
		</g>
		<g>
			<path class="st3" d="M1060.2,344.1c12.8,0,23.2-10.4,23.2-23.2c0-12.5-9.9-22.7-22.3-23.2v10.8c6.4,0.5,11.5,5.8,11.5,12.4
				c0,6.9-5.6,12.5-12.5,12.5c-2.7,0-5.2-0.9-7.2-2.3l-7.4,7.8C1049.6,342.2,1054.6,344.1,1060.2,344.1z"/>
		</g>
		<g>
			<path class="st8" d="M1061.1,297.7v10.8c6,0.5,10.8,5.2,11.4,11.2l9.4-6.8C1078.8,304.3,1070.7,298.1,1061.1,297.7z"/>
		</g>
	</g>
	<g>
		<path class="st6" d="M1078.1,357.2h-38.4c-1.2,0-2.2-1-2.2-2.2l0,0c0-1.2,1-2.2,2.2-2.2h38.4c1.2,0,2.2,1,2.2,2.2l0,0
			C1080.3,356.2,1079.3,357.2,1078.1,357.2z"/>
	</g>
	<g>
		<path class="st6" d="M1078.1,368h-38.4c-1.2,0-2.2-1-2.2-2.2v0c0-1.2,1-2.2,2.2-2.2h38.4c1.2,0,2.2,1,2.2,2.2v0
			C1080.3,367.1,1079.3,368,1078.1,368z"/>
	</g>
</g>
<path class="st6" d="M1052.5,60.3H737.4c-2.2,0-3.9-1.8-3.9-3.9l0,0c0-2.2,1.8-3.9,3.9-3.9h315.1c2.2,0,3.9,1.8,3.9,3.9l0,0
	C1056.5,58.5,1054.7,60.3,1052.5,60.3z"/>
<path class="st6" d="M1052.5,110.3H737.4c-2.2,0-3.9-1.8-3.9-3.9l0,0c0-2.2,1.8-3.9,3.9-3.9h315.1c2.2,0,3.9,1.8,3.9,3.9l0,0
	C1056.5,108.5,1054.7,110.3,1052.5,110.3z"/>
<path class="st6" d="M1052.5,135.3H737.4c-2.2,0-3.9-1.8-3.9-3.9l0,0c0-2.2,1.8-3.9,3.9-3.9h315.1c2.2,0,3.9,1.8,3.9,3.9l0,0
	C1056.5,133.6,1054.7,135.3,1052.5,135.3z"/>
<path class="st6" d="M899.3,85.3h-163c-1.6,0-2.8-1.3-2.8-2.8v-2.2c0-1.6,1.3-2.8,2.8-2.8h163c1.6,0,2.8,1.3,2.8,2.8v2.2
	C902.2,84,900.9,85.3,899.3,85.3z"/>
<path class="st6" d="M869.3,160.3h-133c-1.6,0-2.8-1.3-2.8-2.8v-2.2c0-1.6,1.3-2.8,2.8-2.8h133c1.6,0,2.8,1.3,2.8,2.8v2.2
	C872.2,159,870.9,160.3,869.3,160.3z"/>
<g>
	<g>
		<g>
			<g>
				<g>
					<g>
						<path class="st10" d="M810.5,329.8l31.2,1.7c0,0,23.3,8.4,23.3,11.6c0,3.2-6.4,24.9-6.4,24.9s-19.1-1.8-35.4-16.9
							c-1.3-1.2-17.8-0.8-17.8-0.8L810.5,329.8z"/>
					</g>
					<g>
						<polygon class="st11" points="813.4,327.8 823.3,328.4 818.6,354.5 807.2,354.4 						"/>
					</g>
					<g>
						<path class="st12" d="M705,219.7c5.9,0,36,95.4,36,95.4l78,9.9l-7.2,34c0,0-67.9,12.4-77.8,13.5c-10,1-16.9-0.7-21-7.8
							l-26.5-49.6L705,219.7z"/>
					</g>
					<g>
						<polygon class="st13" points="632.7,156.5 642,210.4 605.7,210.3 603.5,163 						"/>
					</g>
					<g>
						<path class="st11" d="M638,204.2c0,0,32.9,3.9,64.2,18.7c0,0-8.9,65.2-17.5,124.9l-1.1,69l-115.7-0.4l2.9-67.3l-24.5-127.7
							c0,0,41.2-14.7,54.2-15.4C613.4,205.1,638,204.2,638,204.2z"/>
					</g>
					<g>
						<polygon class="st11" points="600.9,203.2 605.2,199.4 626.4,204.8 640.9,198.5 648.3,203.7 651.4,209.2 625.3,212.3 
							601.5,209.4 						"/>
					</g>
					<g>
						<polygon class="st0" points="628.1,207.7 636.8,213.4 633.6,224 626.2,224.7 619.5,214.2 						"/>
					</g>
					<g>
						<g>
							<path class="st6" d="M696.7,821.4c0,0,0.5-21.6,2.4-65.4l-26.3-4.5c0,0-2.4,71.1-3.1,74.7c-0.7,3.6,10.1,9.5,10.1,9.5
								l12.7-4.7L696.7,821.4z"/>
						</g>
						<g>
							<path d="M728.3,842c-19.4-4.5-31.7-23.5-31.7-23.5C681.1,836.1,670,823,670,823c-7.1,19.6-4,34.8-4,34.8s5.9,0.6,17.2,1.3
								l0-4.4c0,0,7.8-0.3,19.5,5.4c3.6,0.1,7.4,0.3,11.4,0.4c31.5,0.8,37-2.2,38-5C753.1,852.6,747.7,846.5,728.3,842z"/>
						</g>
					</g>
					<g>
						<g>
							<path class="st6" d="M565.8,822.2c0,0,0.5-21.6,2.4-65.4l-26.3-4.5c0,0-2.4,71.1-3.1,74.7c-0.7,3.6,10.1,9.5,10.1,9.5
								l12.7-4.7L565.8,822.2z"/>
						</g>
						<g>
							<path d="M586,839.2c-17.5-9.6-20.2-17.5-20.2-17.5c-17.4,13.9-26.7,2.2-26.7,2.2c-7.1,19.6-4.2,27.8-2.7,29.2
								c1.6,1.4,4.5,6.2,15.9,6.9l3.2-3.2l7.4,4.5c0,0,23,6.9,32.7,6.9s12.4-4.3,13.3-7.1C610.6,856.3,603.1,848.6,586,839.2z"/>
						</g>
					</g>
					<g>
						<polygon class="st12" points="690.9,398.1 704.2,814 659.1,814 627,509.4 574.3,814.5 532,814 553.2,406.1 						"/>
					</g>
					<g>
						<path class="st10" d="M603.6,161.6c0,0,7,38.3,35.3,30.6l-1.9-10.7L603.6,161.6z"/>
					</g>
					<g>
						<path class="st14" d="M601.2,204.8L617.6,354l-12.4,115.7c0,0-55.6-1.8-71.5-12.4l19-93.6l-11-144.8
							C541.7,218.9,582.6,209.3,601.2,204.8z"/>
					</g>
					<g>
						<path class="st14" d="M648.3,205.5l-4.6,150.7l7.5,109.1c0,0,24.7,0,46.8-7.1l-7.1-95.4L705,219.7
							C705,219.7,681.6,210,648.3,205.5z"/>
					</g>
					<g>
						<polygon class="st0" points="633.6,224 645.4,376 632.6,395 618.1,376.9 626.9,223.3 						"/>
					</g>
					<g>
						<path class="st13" d="M595.6,409c0,0,10.3,1.7,23.9,8.1c5.2,2.4,19.3,3.7,17.5,7.1c-1.8,3.4-18.8-1-19.5,0
							c-0.7,1,3.8,9.6,3.8,9.6l-13.5-7.9L595.6,409z"/>
					</g>
					<g>
						<path class="st13" d="M580.2,398.4l25.2,15.7c0,0,17.7,19,16.2,21.9c-1.5,3-22.6,16.7-22.6,16.7s-7.4-14-16.5-29.6
							c-0.1-0.2-19.9-8.9-19.9-8.9L580.2,398.4z"/>
					</g>
					<g>
						<polygon class="st11" points="585.4,396.3 592.4,403.4 574.8,425.5 563.3,413.6 						"/>
					</g>
					<g>
						<path class="st12" d="M541.7,218.9c0,0-9.2,16.9-21.2,51.2c-8,22.8-26.4,84.2-25.6,91.9c0.8,7.6,69.8,63.6,69.8,63.6l23.8-30
							l-47.7-53.9l19.4-45.9C560.2,295.7,559.3,217.1,541.7,218.9z"/>
					</g>
					<g>
						<path class="st12" d="M617.6,353.6l-16.6-150.4c-5.4,1.3-13.4,3.8-20.1,6.5l22.9,65.4l-10.9,6.2L617.6,353.6z"/>
					</g>
					<g>
						<path class="st12" d="M648.3,203.7c0,0,12.2,2.6,19.7,5.2l-13.9,64.4l7.7,7.1l-17.7,73.3L648.3,203.7z"/>
					</g>
					<g>
						<g>
							<path class="st10" d="M657.4,137.5c0,0,0.1-10.5,6.2-4.4c3,3,1.8,15.4-6,17.4C657.6,150.6,655.7,145.3,657.4,137.5z"/>
						</g>
						<path class="st13" d="M645.7,99.9c-5.9-4.1-13-6.2-19.8-6.7c-11.8-1-22.7,2.7-29.8,12.5c-5.8,8-6.7,17.5-5.7,25.7
							c1.4,11.4,7.6,19.7,7.6,19.7c2.1,4.1,4.1,10.5,6.2,14.7c22.4,23.7,23.9,20.9,34.1,20.3c8.7-0.4,10.9-5.7,13.4-10.7
							c6.2-15.2,10.1-37.5,7.3-53.2C657.3,113,653.5,105.2,645.7,99.9z"/>
						<g>
							<path class="st12" d="M647.4,102.5c0,0,7.8,6.6,12.9,34.2c0,0,1.5-3.8,0-15c-0.6-4.5-3.6-20.3-7.7-21
								C648.5,99.8,647.4,102.5,647.4,102.5z"/>
						</g>
						<g>
							<path d="M620.9,143.6c-0.2-3.1,1-4.3,2.3-4.4c1.2-0.1,2,1.1,2.2,4.1s-0.8,4.2-2,4.3C622.1,147.7,621,146.6,620.9,143.6z"/>
						</g>
						<g>
							<path d="M645.6,142c-0.3-3.1,0.7-4.1,1.9-4.2c1.2-0.1,2.2,0.7,2.5,3.7c0.3,3.1-0.6,4.4-1.8,4.5
								C647.1,146.1,646,145,645.6,142z"/>
						</g>
						<g>
							<g class="st15">
								<path class="st11" d="M648,105.3L648,105.3C648.1,105.2,648.1,105.3,648,105.3z"/>
							</g>
						</g>
						<g>
							<path class="st16" d="M636.7,158.7c-0.1,0-0.2,0-0.3-0.1c-0.5-0.6-0.6-1.1-0.2-1.9c0.2-0.4,0.6-0.5,1-0.6
								c0.1,0,0.2,0,0.3-0.1l0.3-0.1c0.6-0.2,1.2-0.4,1.6-0.7c0.5-0.3,0.9-1,0.8-1.6c-0.1-0.3-0.3-0.6-0.5-0.9l0-0.1
								c-2-2.9-2.6-10.1-2.6-13.6c0-0.2,0.1-0.3,0.3-0.3c0.2,0,0.3,0.1,0.3,0.3c-0.1,3.4,1.7,10.6,3.6,13.4l0,0.1
								c0.2,0.3,0.5,0.7,0.6,1.1c0.2,0.9-0.4,1.7-1,2.2c-0.6,0.4-2.3,0.6-2.9,0.8l-0.3,0.1c-0.1,0-0.2,0.1-0.4,0.1
								c-0.3,0.1-0.5,0.1-0.6,0.3c-0.3,0.6-0.3,0.7,0.1,1.1c0.1,0.1,0.1,0.3,0,0.4C636.8,158.6,636.7,158.6,636.7,158.7z"/>
						</g>
						<g>
							<path class="st12" d="M644.6,92.5c-6.2-3.9-17.4-7.4-26.5-5.9c-9.1,1.5-9.7,5.1-17.6,11.2c-3.7,3.7-5.1,8.3-5.1,8.3
								s-6.2,8.9-6.3,16.1c0.1,11.2,1.3,16.1,6.1,26.3c1.7-0.2,5.3-0.4,7-0.6c-2.2-24.6,0.4-35.9,0.4-35.9s16.5-13.5,33.1-10.8
								c0.9,0.1,10.2,1.6,10.2,1.6s4.1,0.5,4.7-3.3C650.9,96.8,650.8,96.3,644.6,92.5z"/>
						</g>
						<g>
							<path class="st12" d="M641.9,132.7c1.1,0.8,4.3,0.1,5.5,0.1c2.8,0.1,4,1.7,6.7,2.2c0.7,0.1,1.1-0.4,1-1.1
								c-0.8-4.4-11.7-7.4-13.6-2.1C641.4,132.2,641.7,132.5,641.9,132.7L641.9,132.7z"/>
						</g>
						<g>
							<path class="st12" d="M627.6,133.4c-1,0.9-3.6,0.4-4.8,0.6c-2.8,0.5-6.3,2.7-8.8,3.6c-0.7,0.2-1.2-0.3-1.1-0.9
								c0.1-4.5,12.4-9.1,15-4.2C628,132.8,627.8,133.2,627.6,133.4L627.6,133.4z"/>
						</g>
					</g>
					<g>
						<g>
							<path class="st10" d="M831.1,331.5c0,0,9.5-3,23.9-3.5c5.5-0.2,18.1-5.2,18-1.6c0,3.6-18.6,9.2-18.7,10.4
								c0,0.2-0.4,1-0.9,1.5c-5.8,5.3-11.4,5.7-19.2,5.7l-3,0L831.1,331.5z"/>
						</g>
						<g>
							<path class="st5" d="M965.1,237.8L965.1,237.8c1,1,1.1,2.6,0.2,3.6L835.5,372.3c-0.9,0.9-2.5,0.9-3.6-0.2l0,0
								c-1-1-1.1-2.6-0.2-3.6l129.8-130.9C962.5,236.7,964.1,236.8,965.1,237.8z"/>
						</g>
						<g>
							<path class="st13" d="M855.9,344.9l11.5,5.3c1.8,0.7,3.8-0.1,4.6-1.9l0,0c0.7-1.8-0.1-3.8-1.9-4.6l-11.5-5.3
								c-1.8-0.7-3.8,0.1-4.6,1.9l0,0C853.2,342.1,854.1,344.1,855.9,344.9z"/>
						</g>
						<g>
							<path class="st13" d="M850.5,350.2l15.9,6.6c1.8,0.7,3.8-0.1,4.6-1.9l0,0c0.7-1.8-0.1-3.8-1.9-4.6l-15.9-6.6
								c-1.8-0.7-3.8,0.1-4.6,1.9l0,0C847.8,347.4,848.7,349.5,850.5,350.2z"/>
						</g>
						<g>
							<path class="st13" d="M845.4,355.7l18.1,7.3c1.8,0.7,3.8-0.1,4.6-1.9l0,0c0.7-1.8-0.1-3.8-1.9-4.6l-18.1-7.3
								c-1.8-0.7-3.8,0.1-4.6,1.9l0,0C842.7,352.9,843.6,355,845.4,355.7z"/>
						</g>
						<g>
							<path class="st13" d="M848,363.9l10.7,4.1c1.7,0.7,3.6-0.1,4.2-1.8l0.2-0.5c0.7-1.7-0.1-3.6-1.8-4.2l-10.7-4.1
								c-1.7-0.7-3.6,0.1-4.2,1.8l-0.2,0.5C845.5,361.4,846.3,363.3,848,363.9z"/>
						</g>
					</g>
					<g>
						<g>
							<path class="st6" d="M642.1,372.6l69.3,24.6c1.1,0.4,1.6,1.6,1.3,2.7l-34.8,97.7c-0.4,1.1-1.6,1.6-2.7,1.3l-69.3-24.6
								c-1.1-0.4-1.6-1.6-1.3-2.7l34.8-97.7C639.8,372.8,641,372.3,642.1,372.6z"/>
						</g>
						<g>
							<rect x="673.8" y="361.6" transform="matrix(0.3351 -0.9422 0.9422 0.3351 89.0226 893.0336)" width="6.8" height="43.7"/>
						</g>
						<g>
							<path d="M674.3,374.1l11.7,4.2c2.8,1,4.3,4.2,3.3,7l0,0c-1,2.8-4.2,4.3-7,3.3l-11.7-4.2c-2.8-1-4.3-4.2-3.3-7l0,0
								C668.3,374.6,671.4,373.1,674.3,374.1z"/>
						</g>
					</g>
					<g>
						<path class="st13" d="M617.4,429.6c0,0,26.8,24.8,25.1,27.4c-1.7,2.6-24.1-17-24.1-17s20.2,25.5,18.1,27.7
							c-2,2.2-25-23.3-25-23.3s14.5,28.1,12.2,29.5c-2.3,1.4-19.2-25.3-19.2-25.3s7.5,24.3,5.4,25.4c-2.1,1.2-11.1-21.2-11.1-21.2
							l-6.1-14.8L617.4,429.6z"/>
					</g>
				</g>
			</g>
		</g>
		<path class="st12" d="M621.7,168l2.1-2c0,0,5.1,0.5,7.8,0c2.7-0.5,6-2,6-2s4.6,1,6,1.1c1.4,0.1,4.2,0.2,5.1,0.7s0.4,1.4,0.4,1.4
			s1.4-2.6,0.7-4.5c-0.6-1.9-4.3-1.3-6-2.8s-5.5-3.4-5.5-3.4s-2.4,1-3.6,0.4c-1.3-0.7-3.3,2.8-6.2,3.6c-2.9,0.8-5.2,1.2-6.6,2.8
			C620.6,164.8,621.7,168,621.7,168z"/>
		<path d="M660.3,136.6c0-0.4,0.1-1.9-0.3-2.1c-0.4-0.2-2-0.3-2.3-0.3c-6.5-0.5-12.2-0.1-13.9,0.2c-1.7,0.2-2.6,0.4-3.3,1.5
			c-0.7,1.1-1.2,1.3-4,1.6c-2.1,0.2-2.5-1.4-3.9-1.8c-3.1-0.8-17.3,0.4-19.7,0.6c-2.4,0.2-2.7,0.8-3.1,1c-0.4,0.2-13.1,2.3-14.2,2.7
			c-1.1,0.4-2.3,2.5-2.3,2.5s2.7-2,5.9-1.1c0,0,6.8-0.2,10.5-0.9c0.8-0.1,2.4,2.9,2.6,4.7c0.1,1,0.6,2.5,1.2,3.6
			c0.4,0.8,0.8,1.3,1.7,1.9c2.7,1.5,13.6,0.4,14.9-0.6c1-0.8,2.2-2.9,3.4-5.6c0.8-1.8,1.6-4.3,4-4.5c1.2-0.1,2.1,1,3.5,3.4
			c1.4,2.3,1.2,3.8,3.7,5.2c2.5,1.4,10.9,0.1,12-1.9c0.7-1.2,1.1-4.3,1.6-6.4c0.3-1.3,0.6-2.1,1.1-2.8
			C659.9,137.1,660.2,137.2,660.3,136.6z M632.4,144c-0.8,2.5-1.8,5.4-3.4,5.9c-1.6,0.5-10.8,2.2-14.2,0.1c-1.4-0.9-2.1-6-2.1-6
			c-0.1-1.8,0-5.4,2.3-5.7c2.3-0.3,14.1-1.4,16.5-0.3C633.4,139,633.2,141.5,632.4,144z M656,146.9c-1.4,1.1-8.2,2.5-10.9,1.3
			c-2.6-1.2-2.8-7.6-2.8-7.6s-0.8-3.5,2-4c2.7-0.5,11-1,12-0.6c1,0.4,1.8,1.7,1.4,4.1C657.3,142.4,657.4,145.8,656,146.9z"/>
		<path class="st10" d="M638.2,180.4c0,0-1.9-1.9-2.9-2.6c-1.9-1.3,0.9-2,2.6,0c0,0,0.8-1.5,2.5-1.2
			C642.2,177,638.8,178.6,638.2,180.4z"/>
	</g>
	<g>
		<path class="st13" d="M603.4,148.6c0,0,0.2-12-11.2-10.1c-8.6,1.4-3.3,20.5,9.2,19C601.4,157.5,605.5,156,603.4,148.6z"/>
	</g>
</g>
<polygon class="st6" points="636.8,213.4 647.9,220.5 636.1,215.6 "/>
<polygon class="st6" points="619.5,214.2 603.4,225.5 620.9,216.5 "/>
</svg>
