<?xml version="1.0" encoding="utf-8"?>
<!-- Generator: Adobe Illustrator 27.0.1, SVG Export Plug-In . SVG Version: 6.00 Build 0)  -->
<svg version="1.1" id="Lager_1" xmlns="http://www.w3.org/2000/svg" xmlns:xlink="http://www.w3.org/1999/xlink" x="0px" y="0px"
	 viewBox="0 0 1600 900" style="enable-background:new 0 0 1600 900;" xml:space="preserve">
<style type="text/css">
	.st0{fill:#500B00;}
	.st1{fill:#F7F6F2;}
	.st2{fill:#7D7B7B;}
	.st3{fill:#A09F9F;}
	.st4{fill:#F1F1F1;}
	.st5{fill:#94672C;}
	.st6{fill:#CCCCCC;}
	.st7{fill:#F08000;}
	.st8{fill:#106B7A;}
	.st9{fill:#013F4B;}
	.st10{fill:#E3B984;}
	.st11{fill:#FFFFFF;}
	.st12{fill:#454545;}
	.st13{fill:#D1A272;}
	.st14{fill:#545454;}
	.st15{opacity:0.25;}
	.st16{fill:#B78850;}
</style>
<g>
	<ellipse class="st0" cx="801.7" cy="858" rx="419.9" ry="33.8"/>
	<g>
		<g>
			<g>
				<rect x="480.5" y="17.3" class="st1" width="625" height="386"/>
			</g>
			<g>
				<rect x="469.5" y="13.9" width="647.1" height="9.8"/>
			</g>
			<g>
				<rect x="469.5" y="398.1" width="647.1" height="9.8"/>
			</g>
		</g>
		<g>
			<g>
				
					<rect x="869.4" y="532.8" transform="matrix(0.9999 -1.332719e-02 1.332719e-02 0.9999 -7.0824 12.2641)" class="st2" width="94.5" height="9.4"/>
			</g>
			<g>
				<g>
					<polygon class="st3" points="1091,431.7 942.6,433.7 923.5,542.2 1070.9,541.6 					"/>
				</g>
			</g>
			<g>
				<path class="st4" d="M1026.9,479.7c-0.1-7-3.9-12.7-10.9-12.6c-7,0.1-12.7,5.9-12.6,12.9c0.1,7,3.9,12.7,10.9,12.6
					C1021.3,492.5,1027,486.7,1026.9,479.7z"/>
			</g>
		</g>
		<g>
			<rect x="855.7" y="541.4" class="st5" width="235.3" height="8.3"/>
		</g>
		<g>
			<path class="st5" d="M853.2,863.8c-0.2,0-0.3,0-0.5,0c-2-0.2-3.4-2.1-3.2-4.1l38.6-312.5c0.2-2,2.1-3.4,4.1-3.2
				c2,0.2,3.4,2.1,3.2,4.1l-38.6,312.5C856.6,862.5,855,863.8,853.2,863.8z"/>
		</g>
		<g>
			<path class="st5" d="M1105.9,863.8c-1.8,0-3.4-1.4-3.6-3.2l-38.6-312.5c-0.2-2,1.2-3.9,3.2-4.1c2-0.2,3.9,1.2,4.1,3.2l38.6,312.5
				c0.2,2-1.2,3.9-3.2,4.1C1106.2,863.8,1106.1,863.8,1105.9,863.8z"/>
		</g>
		<g>
			<path class="st5" d="M1084.8,694.7H873.4c-2,0-3.7-1.6-3.7-3.7s1.6-3.7,3.7-3.7h211.4c2,0,3.7,1.6,3.7,3.7
				S1086.8,694.7,1084.8,694.7z"/>
		</g>
	</g>
</g>
<path class="st6" d="M628.9,68.2H512.1c-4.3,0-7.9-3.5-7.9-7.9l0,0c0-4.3,3.5-7.9,7.9-7.9h116.8c4.3,0,7.9,3.5,7.9,7.9l0,0
	C636.8,64.6,633.2,68.2,628.9,68.2z"/>
<path class="st6" d="M666.5,123.7h-127c-3.8,0-6.9-3.1-6.9-6.9l0,0c0-3.8,3.1-6.9,6.9-6.9h127c3.8,0,6.9,3.1,6.9,6.9l0,0
	C673.4,120.6,670.3,123.7,666.5,123.7z"/>
<path class="st6" d="M620.9,156.4h-82.5c-3.2,0-5.8-2.6-5.8-5.8v-2.1c0-3.2,2.6-5.8,5.8-5.8h82.5c3.2,0,5.8,2.6,5.8,5.8v2.1
	C626.8,153.8,624.1,156.4,620.9,156.4z"/>
<path class="st6" d="M656.5,187.1h-117c-3.8,0-6.9-3.1-6.9-6.9l0,0c0-3.8,3.1-6.9,6.9-6.9h117c3.8,0,6.9,3.1,6.9,6.9l0,0
	C663.4,184,660.3,187.1,656.5,187.1z"/>
<circle class="st7" cx="511.4" cy="116.5" r="7.2"/>
<circle class="st7" cx="511.4" cy="149.9" r="7.2"/>
<circle class="st7" cx="511.4" cy="180.6" r="7.2"/>
<g>
	<g>
		<path class="st7" d="M744.1,346.4c-1.5,0-2.9-0.7-3.8-2c-1.5-2.1-1-5,1.1-6.5l66.4-46.6c1.2-0.8,2.7-1.1,4.1-0.6l36.9,11.9
			l60.9-59.7c1.3-1.3,3.2-1.7,4.8-1.1l26.6,9.6l107.7-88c2-1.6,4.9-1.4,6.6,0.6c1.6,2,1.4,4.9-0.6,6.6L945,260.3
			c-1.3,1.1-3,1.4-4.6,0.8l-26.4-9.5l-60.8,59.7c-1.2,1.2-3.1,1.6-4.7,1.1l-37.4-12.1l-64.5,45.2C746,346.1,745,346.4,744.1,346.4z"
			/>
	</g>
	<g>
		<g>
			<path class="st8" d="M1011.5,237h-8.2c-2.6,0-4.7,2.1-4.7,4.7v122.8c0,2.6,2.1,4.7,4.7,4.7h8.2c2.6,0,4.7-2.1,4.7-4.7V241.7
				C1016.1,239.1,1014.1,237,1011.5,237z"/>
		</g>
		<g>
			<path class="st8" d="M986.1,248.1h-8.5c-2.5,0-4.5,2-4.5,4.5v112.2c0,2.5,2,4.5,4.5,4.5h8.5c2.5,0,4.5-2,4.5-4.5V252.5
				C990.5,250.1,988.5,248.1,986.1,248.1z"/>
		</g>
		<g>
			<path class="st8" d="M960.7,275.1h-9.6c-2.2,0-3.9,1.8-3.9,3.9v86.2c0,2.2,1.8,3.9,3.9,3.9h9.6c2.2,0,3.9-1.8,3.9-3.9v-86.2
				C964.6,276.9,962.9,275.1,960.7,275.1z"/>
		</g>
		<g>
			<path class="st8" d="M934.5,275.1h-9.6c-2.2,0-3.9,1.8-3.9,3.9v86.2c0,2.2,1.8,3.9,3.9,3.9h9.6c2.2,0,3.9-1.8,3.9-3.9v-86.2
				C938.4,276.9,936.7,275.1,934.5,275.1z"/>
		</g>
		<g>
			<path class="st8" d="M909.3,293.2h-10.4c-2,0-3.5,1.6-3.5,3.5v68.9c0,2,1.6,3.5,3.5,3.5h10.4c2,0,3.5-1.6,3.5-3.5v-68.9
				C912.8,294.8,911.2,293.2,909.3,293.2z"/>
		</g>
		<g>
			<path class="st8" d="M883.3,313.3h-11.4c-1.7,0-3,1.4-3,3v49.8c0,1.7,1.4,3,3,3h11.4c1.7,0,3-1.4,3-3v-49.8
				C886.3,314.6,885,313.3,883.3,313.3z"/>
		</g>
		<g>
			<path class="st8" d="M857.9,340.1h-13.1c-1.2,0-2.2,1-2.2,2.2V367c0,1.2,1,2.2,2.2,2.2h13.1c1.2,0,2.2-1,2.2-2.2v-24.7
				C860.1,341,859.1,340.1,857.9,340.1z"/>
		</g>
		<g>
			<path class="st8" d="M832.4,325.5h-12.1c-1.5,0-2.7,1.2-2.7,2.7v38.3c0,1.5,1.2,2.7,2.7,2.7h12.1c1.5,0,2.7-1.2,2.7-2.7v-38.3
				C835.1,326.7,833.9,325.5,832.4,325.5z"/>
		</g>
		<g>
			<path class="st8" d="M808.1,320.8h-11.8c-1.6,0-2.8,1.3-2.8,2.8v42.7c0,1.6,1.3,2.8,2.8,2.8h11.8c1.6,0,2.8-1.3,2.8-2.8v-42.7
				C810.9,322.1,809.7,320.8,808.1,320.8z"/>
		</g>
		<g>
			<path class="st8" d="M783.8,335.7h-12.8c-1.3,0-2.3,1-2.3,2.3v28.8c0,1.3,1,2.3,2.3,2.3h12.8c1.3,0,2.3-1,2.3-2.3V338
				C786.2,336.7,785.1,335.7,783.8,335.7z"/>
		</g>
	</g>
	<g>
		<g>
			<path class="st9" d="M1060.2,263.2c-12.8,0-23.2-10.4-23.2-23.2c0-12.8,10.4-23.2,23.2-23.2c12.8,0,23.2,10.4,23.2,23.2
				C1083.4,252.7,1073,263.2,1060.2,263.2z M1060.2,227.4c-6.9,0-12.5,5.6-12.5,12.5c0,6.9,5.6,12.5,12.5,12.5
				c6.9,0,12.5-5.6,12.5-12.5C1072.7,233,1067.1,227.4,1060.2,227.4z"/>
		</g>
		<g>
			<path class="st3" d="M1060.2,263.2c12.8,0,23.2-10.4,23.2-23.2c0-12.5-9.9-22.7-22.3-23.2v10.8c6.4,0.5,11.5,5.8,11.5,12.4
				c0,6.9-5.6,12.5-12.5,12.5c-2.7,0-5.2-0.9-7.2-2.3l-7.4,7.8C1049.6,261.2,1054.6,263.2,1060.2,263.2z"/>
		</g>
		<g>
			<path class="st8" d="M1061.1,216.7v10.8c6,0.5,10.8,5.2,11.4,11.2l9.4-6.8C1078.8,223.3,1070.7,217.1,1061.1,216.7z"/>
		</g>
	</g>
	<g>
		<path class="st6" d="M1078.1,276.3h-38.4c-1.2,0-2.2-1-2.2-2.2l0,0c0-1.2,1-2.2,2.2-2.2h38.4c1.2,0,2.2,1,2.2,2.2l0,0
			C1080.3,275.3,1079.3,276.3,1078.1,276.3z"/>
	</g>
	<g>
		<path class="st6" d="M1078.1,287.1h-38.4c-1.2,0-2.2-1-2.2-2.2l0,0c0-1.2,1-2.2,2.2-2.2h38.4c1.2,0,2.2,1,2.2,2.2l0,0
			C1080.3,286.1,1079.3,287.1,1078.1,287.1z"/>
	</g>
	<g>
		<g>
			<path class="st9" d="M1060.2,344.1c-12.8,0-23.2-10.4-23.2-23.2c0-12.8,10.4-23.2,23.2-23.2c12.8,0,23.2,10.4,23.2,23.2
				C1083.4,333.7,1073,344.1,1060.2,344.1z M1060.2,308.4c-6.9,0-12.5,5.6-12.5,12.5c0,6.9,5.6,12.5,12.5,12.5
				c6.9,0,12.5-5.6,12.5-12.5C1072.7,314,1067.1,308.4,1060.2,308.4z"/>
		</g>
		<g>
			<path class="st3" d="M1060.2,344.1c12.8,0,23.2-10.4,23.2-23.2c0-12.5-9.9-22.7-22.3-23.2v10.8c6.4,0.5,11.5,5.8,11.5,12.4
				c0,6.9-5.6,12.5-12.5,12.5c-2.7,0-5.2-0.9-7.2-2.3l-7.4,7.8C1049.6,342.2,1054.6,344.1,1060.2,344.1z"/>
		</g>
		<g>
			<path class="st8" d="M1061.1,297.7v10.8c6,0.5,10.8,5.2,11.4,11.2l9.4-6.8C1078.8,304.3,1070.7,298.1,1061.1,297.7z"/>
		</g>
	</g>
	<g>
		<path class="st6" d="M1078.1,357.2h-38.4c-1.2,0-2.2-1-2.2-2.2l0,0c0-1.2,1-2.2,2.2-2.2h38.4c1.2,0,2.2,1,2.2,2.2l0,0
			C1080.3,356.2,1079.3,357.2,1078.1,357.2z"/>
	</g>
	<g>
		<path class="st6" d="M1078.1,368h-38.4c-1.2,0-2.2-1-2.2-2.2v0c0-1.2,1-2.2,2.2-2.2h38.4c1.2,0,2.2,1,2.2,2.2v0
			C1080.3,367.1,1079.3,368,1078.1,368z"/>
	</g>
</g>
<path class="st6" d="M1052.5,60.3H737.4c-2.2,0-3.9-1.8-3.9-3.9l0,0c0-2.2,1.8-3.9,3.9-3.9h315.1c2.2,0,3.9,1.8,3.9,3.9l0,0
	C1056.5,58.5,1054.7,60.3,1052.5,60.3z"/>
<path class="st6" d="M1052.5,110.3H737.4c-2.2,0-3.9-1.8-3.9-3.9l0,0c0-2.2,1.8-3.9,3.9-3.9h315.1c2.2,0,3.9,1.8,3.9,3.9l0,0
	C1056.5,108.5,1054.7,110.3,1052.5,110.3z"/>
<path class="st6" d="M1052.5,135.3H737.4c-2.2,0-3.9-1.8-3.9-3.9l0,0c0-2.2,1.8-3.9,3.9-3.9h315.1c2.2,0,3.9,1.8,3.9,3.9l0,0
	C1056.5,133.6,1054.7,135.3,1052.5,135.3z"/>
<path class="st6" d="M899.3,85.3h-163c-1.6,0-2.8-1.3-2.8-2.8v-2.2c0-1.6,1.3-2.8,2.8-2.8h163c1.6,0,2.8,1.3,2.8,2.8v2.2
	C902.2,84,900.9,85.3,899.3,85.3z"/>
<path class="st6" d="M869.3,160.3h-133c-1.6,0-2.8-1.3-2.8-2.8v-2.2c0-1.6,1.3-2.8,2.8-2.8h133c1.6,0,2.8,1.3,2.8,2.8v2.2
	C872.2,159,870.9,160.3,869.3,160.3z"/>
<g>
	<g>
		<g>
			<g>
				<g>
					<g>
						<polygon class="st10" points="632.7,156.5 642,210.4 605.7,210.3 603.5,163 						"/>
					</g>
					<g>
						<path class="st11" d="M638,204.2c0,0,32.9,3.9,64.2,18.7c0,0-8.9,65.2-17.5,124.9l-1.1,69l-115.7-0.4l2.9-67.3l-24.5-127.7
							c0,0,41.2-14.7,54.2-15.4C613.4,205.1,638,204.2,638,204.2z"/>
					</g>
					<g>
						<polygon class="st11" points="600.9,203.2 605.2,199.4 626.4,204.8 640.9,198.5 648.3,203.7 651.4,209.2 625.3,212.3 
							601.5,209.4 						"/>
					</g>
					<g>
						<polygon class="st0" points="628.1,207.7 636.8,213.4 633.6,224 626.2,224.7 619.5,214.2 						"/>
					</g>
					<g>
						<g>
							<path class="st6" d="M696.7,821.4c0,0,0.5-21.6,2.4-65.4l-26.3-4.5c0,0-2.4,71.1-3.1,74.7c-0.7,3.6,10.1,9.5,10.1,9.5
								l12.7-4.7L696.7,821.4z"/>
						</g>
						<g>
							<path d="M728.3,842c-19.4-4.5-31.7-23.5-31.7-23.5C681.1,836.1,670,823,670,823c-7.1,19.6-4,34.8-4,34.8s5.9,0.6,17.2,1.3
								l0-4.4c0,0,7.8-0.3,19.5,5.4c3.6,0.1,7.4,0.3,11.4,0.4c31.5,0.8,37-2.2,38-5C753.1,852.6,747.7,846.5,728.3,842z"/>
						</g>
					</g>
					<g>
						<g>
							<path class="st6" d="M565.8,822.2c0,0,0.5-21.6,2.4-65.4l-26.3-4.5c0,0-2.4,71.1-3.1,74.7c-0.7,3.6,10.1,9.5,10.1,9.5
								l12.7-4.7L565.8,822.2z"/>
						</g>
						<g>
							<path d="M586,839.2c-17.5-9.6-20.2-17.5-20.2-17.5c-17.4,13.9-26.7,2.2-26.7,2.2c-7.1,19.6-4.2,27.8-2.7,29.2
								c1.6,1.4,4.5,6.2,15.9,6.9l3.2-3.2l7.4,4.5c0,0,23,6.9,32.7,6.9s12.4-4.3,13.3-7.1C610.6,856.3,603.1,848.6,586,839.2z"/>
						</g>
					</g>
					<g>
						<polygon class="st12" points="690.9,398.1 704.2,814 659.1,814 627,509.4 574.3,814.5 532,814 553.2,406.1 						"/>
					</g>
					<g>
						<path class="st13" d="M602.6,164.3c0,0,9.4,40.7,36.9,31.4l-2-11.6L602.6,164.3z"/>
					</g>
					<g>
						<path class="st14" d="M601.2,204.8L617.6,354l-12.4,115.7c0,0-55.6-1.8-71.5-12.4l15-93.6l-2.7-90.4l-3.3-73.4
							C542.7,199.9,562.8,202.4,601.2,204.8z"/>
					</g>
					<g>
						<path class="st14" d="M648.3,205.5l-4.6,150.7l7.5,109.1c0,0,24.7,0,46.8-7.1l-4.1-95.4l9.3-93.8l2.8-70
							C706.1,198.9,677.8,203.2,648.3,205.5z"/>
					</g>
					<g>
						<polygon class="st0" points="633.6,224 645.4,376 632.6,395 618.1,376.9 626.9,223.3 						"/>
					</g>
					<g>
						<path class="st12" d="M617.6,353.6l-16.6-150.4c-9.4,0.4-10.3,0.4-21.3,0.2l24.2,71.7l-10.9,6.2L617.6,353.6z"/>
					</g>
					<g>
						<path class="st12" d="M648.3,203.7c0,0,9.1,0.5,20.9-0.1l-15.1,69.7l7.7,7.1l-17.7,73.3L648.3,203.7z"/>
					</g>
					<g>
						<g>
							<path class="st13" d="M656.4,139.6c0,0,0.1-10.5,6.2-4.4c3,3,1.8,15.4-6,17.4C656.5,152.6,654.6,147.3,656.4,139.6z"/>
						</g>
						<path class="st10" d="M644.9,101.9c-5.9-4.1-13-6.2-19.8-6.8c-11.8-1-22.7,2.6-29.9,12.3c-5.9,8-6.8,17.4-5.8,25.7
							c1.3,11.4,7.5,19.7,7.5,19.7c2.1,4.2,4,10.5,6.1,14.7c22.3,23.8,23.5,24,33.7,23.6c8.7-0.4,10.9-5.6,13.5-10.6
							c6.2-15.1,10.6-40.5,7.9-56.2C656.4,115.1,652.6,107.3,644.9,101.9z"/>
						<g>
							<path class="st12" d="M646.5,104.5c0,0,7.8,6.7,12.7,34.3c0,0,1.5-3.8,0.1-15c-0.6-4.5-3.5-20.3-7.6-21.1
								C647.7,101.9,646.5,104.5,646.5,104.5z"/>
						</g>
						<g>
							<path d="M619.3,145.8c-0.2-3.4,1.6-4.6,3-4.6c1.4-0.1,3.1,0.9,3.3,4.3c0.2,3.4-1.1,4.8-3.1,5
								C621,150.6,619.5,149.2,619.3,145.8z"/>
						</g>
						<g>
							<path d="M644.3,144.4c-0.3-3.4,1-4.5,2.4-4.6c1.4-0.1,3,0.8,3.4,4.2c0.3,3.4-1.3,4.8-2.6,4.9
								C646.1,149.1,644.7,147.8,644.3,144.4z"/>
						</g>
						<g>
							<g class="st15">
								<path class="st11" d="M647.1,107.4L647.1,107.4C647.2,107.3,647.2,107.3,647.1,107.4z"/>
							</g>
						</g>
						<g>
							<path class="st16" d="M635.5,160.6c-0.1,0-0.2,0-0.3-0.1c-0.5-0.6-0.6-1.1-0.2-1.9c0.2-0.4,0.6-0.5,1-0.6
								c0.1,0,0.2,0,0.3-0.1l0.3-0.1c0.6-0.2,1.2-0.4,1.7-0.7c0.5-0.3,0.9-1,0.8-1.6c-0.1-0.3-0.3-0.6-0.5-0.9l0-0.1
								c-2-2.9-2.6-10.1-2.5-13.6c0-0.2,0.1-0.3,0.3-0.3c0.2,0,0.3,0.1,0.3,0.3c-0.1,3.4,1.6,10.6,3.5,13.4l0,0.1
								c0.2,0.3,0.5,0.7,0.5,1.1c0.2,0.9-0.4,1.7-1,2.2c-0.6,0.4-2.3,0.6-2.9,0.8l-0.3,0.1c-0.1,0-0.2,0.1-0.4,0.1
								c-0.3,0.1-0.5,0.1-0.6,0.3c-0.3,0.6-0.3,0.7,0.1,1.1c0.1,0.1,0.1,0.3,0,0.4C635.7,160.6,635.6,160.6,635.5,160.6z"/>
						</g>
						<g>
							<path class="st12" d="M643.8,94.5c-6.2-3.9-17.4-7.5-26.5-6s-9.8,5.1-17.6,11.1c-3.7,3.7-5.1,8.3-5.1,8.3s-6.2,8.9-6.4,16
								c0,11.2,1.3,16.2,6,26.3c1.7-0.1,5.3-0.4,7-0.6c-2.1-24.6,0.6-35.9,0.6-35.9s16.5-13.4,33.2-10.7c0.9,0.2,10.2,1.6,10.2,1.6
								s4.1,0.5,4.7-3.2C650.1,98.8,650,98.4,643.8,94.5z"/>
						</g>
						<g>
							<path class="st12" d="M640.9,131.7c1.1,0.8,4.3,0.1,5.5,0.1c2.8,0.1,4,1.8,6.7,2.3c0.7,0.1,1.1-0.4,1-1.1
								c-0.8-4.5-11.6-7.5-13.6-2.2C640.4,131.2,640.7,131.5,640.9,131.7L640.9,131.7z"/>
						</g>
						<g>
							<path class="st12" d="M626.5,132.4c-1,0.9-3.6,0.4-4.8,0.6c-2.8,0.5-6.3,2.7-8.9,3.5c-0.7,0.2-1.2-0.3-1.1-0.9
								c0.2-4.5,12.4-9.1,15.1-4.1C627,131.8,626.8,132.1,626.5,132.4L626.5,132.4z"/>
						</g>
					</g>
				</g>
			</g>
		</g>
		<path class="st11" d="M634.9,164.4c-4,0.4-5.5,3-5,5.1c0.6,2.7,2.4,4.2,6.6,3.7c4.2-0.4,5.4-3,4.5-6
			C640.1,164.2,638.9,164.1,634.9,164.4z"/>
		<path class="st12" d="M621.5,170.9l2.1-2c0,0,4.1-0.5,6.8-1c2.7-0.5,6-1.9,6-1.9s4.6,1,6,1.1s3.2,1.2,4.1,1.8s0.4,1.4,0.4,1.4
			s1.4-2.6,0.8-4.5c-0.6-1.9-3.3-2.3-5-3.8c-1.7-1.5-5.5-3.5-5.5-3.5s-2.4,1-3.6,0.3c-1.3-0.7-3.3,2.8-6.2,3.5s-4.2,2.2-5.6,3.7
			S621.5,170.9,621.5,170.9z"/>
		<path d="M659.2,138.7c0-0.4,0.2-1.9-0.3-2.1c-0.4-0.2-2-0.3-2.3-0.4c-6.5-0.5-12.2-0.1-13.9,0.1c-1.7,0.2-2.6,0.4-3.3,1.5
			c-0.7,1.1-1.2,1.3-4,1.6c-2.1,0.2-2.5-1.4-3.9-1.8c-3.1-0.8-17.3,0.3-19.7,0.5c-2.4,0.2-2.7,0.8-3.1,1c-0.4,0.2-13.1,2.3-14.2,2.6
			c-1.1,0.4-2.3,2.5-2.3,2.5s2.7-1.9,5.9-1.1c0,0,6.8-0.2,10.5-0.8c0.8-0.1,2.4,3,2.6,4.7c0.1,1,0.6,2.5,1.1,3.6
			c0.4,0.8,0.8,1.3,1.7,1.9c2.7,1.5,13.6,0.5,14.9-0.5c1-0.8,2.2-2.9,3.4-5.6c0.8-1.8,1.6-4.3,4-4.5c1.2-0.1,2.1,1.1,3.5,3.4
			c1.4,2.3,1.2,3.8,3.7,5.2c2.5,1.4,10.9,0.1,12-1.9c0.7-1.2,1.2-4.3,1.7-6.4c0.3-1.3,0.6-2.1,1.2-2.7
			C658.9,139.2,659.2,139.3,659.2,138.7z M631.4,146c-0.8,2.5-1.8,5.4-3.4,5.9s-10.8,2.2-14.2,0.1c-1.4-0.9-2.1-6-2.1-6
			c-0.1-1.8,0-5.4,2.3-5.7c2.3-0.3,14.1-1.4,16.5-0.2C632.4,141,632.1,143.4,631.4,146z M654.9,148.9c-1.4,1.1-8.3,2.5-10.9,1.3
			c-2.6-1.2-2.8-7.6-2.8-7.6s-0.7-3.5,2-4c2.7-0.5,11-1,12.1-0.6c1,0.4,1.8,1.7,1.4,4.1C656.2,144.5,656.3,147.9,654.9,148.9z"/>
		<path class="st13" d="M637,184.4c0,0-1.9-1.9-2.9-2.6c-1.9-1.3,0.9-2,2.6,0c0,0,0.8-1.5,2.5-1.2C641,181,637.6,182.6,637,184.4z"
			/>
	</g>
	<g>
		<path class="st10" d="M602.3,150.4c0,0,0.2-12-11.2-10.1c-8.6,1.4-3.4,20.5,9.2,19C600.3,159.3,604.4,157.9,602.3,150.4z"/>
	</g>
</g>
<polygon class="st6" points="636.8,213.4 647.9,220.5 636.1,215.6 "/>
<polygon class="st6" points="619.5,214.2 603.4,225.5 620.9,216.5 "/>
<g>
	<g>
		<path class="st10" d="M565.1,130.8l18.9-14.3c0,0,5.2-20.1,21.7-26.7c2.1-0.8,9.1-3,11.2-1.9c1.8,1,0,0.4,0,0.4s3.1-0.6,3.7,1.5
			c0.5,1.1-1.4,2.2-1.4,2.2s1.6-0.4,2.1,1.3c0.5,1.6-2.2,3.1-2.2,3.1s1.9,0.8-0.9,3.3c-6.2,6-10.7,3.2-21.3,28.1
			c-0.5,1.6-1.8,2.5-2.6,3.3c-0.9,0.8-17.8,14.6-17.8,14.6L565.1,130.8z"/>
	</g>
	<g>
		<polygon class="st11" points="579.2,149.2 586.6,142.5 571.8,122.5 558.8,132.2 		"/>
	</g>
	<g>
		<path class="st12" d="M546,273.3c0,0-29.3-13.3-53.8-33.4c-18.7-15.3-19.7-19.8-21.2-35.4c-1-10.1,9-27.3,30.7-41.9
			c27.5-18.5,64.2-39.8,64.2-39.8l19.7,26.1l-58.1,48l15.2,3c0,0,3.5,3.3,5.5,9.3C554,227.1,561.7,264.6,546,273.3z"/>
	</g>
</g>
<g>
	<g>
		<path class="st10" d="M685.8,127.1l-19.5-14.9c0,0-7-18.6-23.9-23.5c-2.1-0.6-9.7-2.4-11.4-1.5c-1.8,1,0,0.4,0,0.4
			s-3.1-0.3-3.5,1.8c-0.4,1.2,1.6,2,1.6,2s-1.6-0.2-1.9,1.4c-0.3,1.6,2.4,2.8,2.4,2.8s-1.8,1,1.2,3.2c6.7,5.3,12.8,1.8,24.8,25.5
			c0.7,1.6,2,2.3,2.9,3s16.8,13.7,16.8,13.7L685.8,127.1z"/>
	</g>
	<g>
		<polygon class="st11" points="680.6,151.4 665.3,137.7 679.4,118.2 700.6,133.3 		"/>
	</g>
	<g>
		<path class="st12" d="M703.3,269c0,0,23.3-20.1,47.5-42.8c17.5-16.4,21.3-25.7,21.8-33.3c0.7-10-6-20-27.5-34.5
			c-27.5-18.5-60.6-40.3-60.6-40.3l-18.7,25.4l56.3,49.3l-15.9,6.3C706.1,198.9,693.6,230.5,703.3,269z"/>
	</g>
</g>
<g>
	<g>
		<g>
			<path class="st6" d="M615.2,879.1l3.2-11.9c0.2-1.2,1-2.1,2.1-2l110,2.4c1.1,0,2.1,1,2,2.1l-2.4,12.1c0,1.1-1,2.1-2.1,2
				l-110.7-2.6C616.1,881.2,615,880.1,615.2,879.1z"/>
		</g>
		<g>
			<polygon points="611.8,874.7 613.8,869.2 619.2,869.4 617.8,874.8 			"/>
		</g>
	</g>
	<path d="M614.7,871c0,0-3.2-0.4-3.3,0.4c-0.2,1.1,3.4,0.4,3.4,0.4S614.6,870.6,614.7,871z"/>
</g>
<path class="st13" d="M640.9,104.5c0,0,9,4.2,13.3,17.1C654.1,121.6,648.1,111,640.9,104.5z"/>
<path class="st13" d="M622.8,114c0,0,6.7-3.4,16.9,0C639.7,114,632.7,112.7,622.8,114z"/>
<path class="st13" d="M618.5,118.5c0,0,10.7-5.4,27,0C645.4,118.5,634.3,116.4,618.5,118.5z"/>
</svg>
