<?xml version="1.0" encoding="utf-8"?>
<!-- Generator: Adobe Illustrator 21.1.0, SVG Export Plug-In . SVG Version: 6.00 Build 0)  -->
<svg version="1.1" id="Lager_1" xmlns="http://www.w3.org/2000/svg" xmlns:xlink="http://www.w3.org/1999/xlink" x="0px" y="0px"
	 viewBox="0 0 145.5 46.5" style="enable-background:new 0 0 145.5 46.5;" xml:space="preserve">
<style type="text/css">
	.st0{fill:#1D1D1B;}
	.st1{fill:#1D1D1B;stroke:#1D1D1B;stroke-width:0.1032;stroke-miterlimit:10;}
	.st2{fill:#FFFFFF;stroke:#1D1D1B;stroke-width:1.2089;stroke-miterlimit:10;}
	.st3{fill:none;stroke:#1D1D1B;stroke-width:1.2089;stroke-linecap:round;stroke-miterlimit:10;}
</style>
<g>
	<path class="st0" d="M12.7,31c0.2,0.5,0.2,0.8,0.5,0.8s0.5-0.3,0.7-0.8s0.3-1.2,0.3-2c0-0.4,0-0.7-0.1-1l0.6-0.2l-0.6-8.2l-1.2-4.9
		c-0.6-4.3-1.9-4.8-4.4-6.1V7.4C9,7.1,9.3,6.7,9.6,6.2L9.5,6.4l0.6,0.2c0,0,1.5-0.2,0.7-0.5c-0.4-0.2-0.6-0.6-0.7-0.9h0.5
		c0,0,1.3-0.7,0.5-0.7c-0.4,0-0.7-0.3-0.8-0.5h0.4c0,0,1.3-0.7,0.5-0.7c-0.6,0-0.9-0.5-1.1-0.8C9.7,1,8.6,0,7.3,0
		C6.1,0,5.1,1,4.6,2.3l0,0c0,0-0.3,1-1.1,1C2.7,3.4,4,4,4,4h0.4C4.2,4.2,3.9,4.5,3.6,4.5C2.8,4.6,4.1,5.2,4.1,5.2h0.5
		C4.5,5.5,4.3,5.9,3.9,6.1C3.1,6.4,4.6,6.6,4.6,6.6l0.6-0.2L5.1,6.1c0.3,0.6,0.8,1.1,1.3,1.3v1c-2.6,1.3-4,1.7-4.6,6.1l-1.2,4.9
		L0,27.6l0.8,0.3c0,0.3-0.1,0.7-0.1,1c0,0.8,0.1,1.5,0.3,2s0.4,0.8,0.7,0.8s0.3-0.3,0.5-0.8s0-1.3,0-2.1c0-0.2,0-0.3,0-0.5l0,0v-0.4
		c0.1-0.4,0.1-0.7,0.1-1l0.2-1.6l-0.1,3.4h0.3h0.5L2.6,44.4h1.1c-1.8,0.4-3.1,1.1-3.1,1.7l6.6-1.2c-0.1-0.2-0.2-0.4-0.5-0.5h0.5
		V28.7l0,0h0.5v15.7h0.1c-0.2,0.1-0.4,0.3-0.5,0.5l6.6,1.2c0-0.6-1.3-1.3-3.1-1.7h1.7l-0.8-15.7H12l-0.1-3.4l0.3,2.9l0.2-0.1
		c0,0.1,0,0.3,0,0.4C12.7,29.7,12.6,30.5,12.7,31z"/>
</g>
<g>
	<path class="st1" d="M66.1,19l-1-4.7c0,0-1.1-3.3-3.3-5.4s-5-1.7-5-1.7l-0.9-0.6l-0.1,0.3l-0.5-0.3c-0.6-1.2-0.8-1.3-1.5-1.7
		c-0.1,0-0.2-0.1-0.2-0.1c-0.4-0.2-0.8-0.3-1.2-0.4c-1.5-0.7-2.8,0.2-3.3,0.9C48.6,6,48.8,7,50.3,8.1c0.1,0,0.9,1.2,1,1.3
		c0.2,0.1,0.3-0.2,0.6-0.2c0.5,0,1.2,0.3,1.5,0.3c0.4,0,0.6-0.4,0.9-0.4c0.2,0,0.4-0.1,0.6-0.1l0.3,0.3c0,0,0.7,2.7,1.1,3.4
		c0.5,1.2,1.4,2.4,1.6,2.4c0.1,0,0.4,0.6,0.6,1.3c-0.1,1-0.3,1.8-0.9,2.2c-1.6,1.2-6,3.7-6,3.7l0.1,0.1c-0.4,0-0.9,0.1-1.3,0.3
		c-0.9,0.4-1.3,0.7-1.6,1.4c-0.2,0.6,0.1,0.9,0.6,1.1s0.5,0.2,1,0.3c0.5,0.1,1.3-0.4,0.7-0.5c-0.5-0.1-0.7,0.2-1.1,0
		c0.1-0.5,1.1-1,1.1-1s1.3,0.1,2-0.1l0,0l0.5,0.5c0,0,2.6-1.1,4.4-1.9c-0.6,2.2-2.2,8.2-2.5,8.6s-0.4,2.8-0.4,3.3
		c0.1,0.5,0.3,8.9,0.3,8.9l0.3,0.1c-0.2,0.1-0.5,0.3-0.6,0.3c-0.4,0.1-2.3,0.3-3,0.4s-0.6,1.5-0.6,1.5s4.8,0,5.2,0s4-0.1,3.9-0.8
		c0-0.2-0.1-0.3-0.1-0.5l0.6,0.1c0,0-0.3-1.6-0.4-2.9c-0.1-0.8-0.7-4.1-1.4-4.9s0.5-3.3,0.5-3.3s5.5-7.9,5.3-10.4l0.7,0.1
		c0,0,0.2-0.5,0.4-0.8C66.2,22.1,66.1,19,66.1,19z"/>
	<g>
		<ellipse class="st2" cx="39.5" cy="43.7" rx="2.3" ry="2.2"/>
		<ellipse class="st2" cx="53" cy="43.7" rx="2.3" ry="2.2"/>
		<path class="st3" d="M39.5,44.1l-0.9-4.2L47,26c0,0,0.9-2.6,3-1.7c2.2,0.9,2.9,1.2,2.9,1.2"/>
		<line class="st3" x1="53" y1="43.7" x2="45.8" y2="28.6"/>
	</g>
</g>
<line class="st3" x1="40.5" y1="33" x2="50.1" y2="33"/>
<g>
	<path class="st1" d="M92.8,19l-1-4.7c0,0-1.1-3.3-3.3-5.4c-2.2-2.1-5-1.7-5-1.7l-0.9-0.6l-0.1,0.3L82,6.6c-0.6-1.2-0.8-1.3-1.5-1.7
		c-0.1,0-0.2-0.1-0.2-0.1c-0.4-0.2-0.8-0.3-1.2-0.4c-1.5-0.7-2.8,0.2-3.3,0.9C75.3,6,75.5,7,77,8.1c0.1,0,0.9,1.2,1,1.3
		c0.2,0.1,0.3-0.2,0.6-0.2c0.5,0,1.2,0.3,1.5,0.3c0.4,0,0.6-0.4,0.9-0.4c0.2,0,0.4-0.1,0.6-0.1l0.3,0.3c0,0,0.7,2.7,1.1,3.4
		c0.5,1.2,1.4,2.4,1.6,2.4c0.1,0,0.4,0.6,0.6,1.3c-0.1,1-0.3,1.8-0.9,2.2c-1.6,1.2-6,3.7-6,3.7l0.1,0.1c-0.4,0-0.9,0.1-1.3,0.3
		c-0.9,0.4-1.3,0.7-1.6,1.4s0.1,0.9,0.6,1.1c0.5,0.3,0.5,0.2,1,0.3c0.5,0.1,1.3-0.4,0.7-0.5c-0.5-0.1-0.7,0.2-1.1,0
		c0.1-0.5,1.1-1,1.1-1s1.3,0.1,2-0.1l0,0l0.5,0.5c0,0,2.6-1.1,4.4-1.9c-0.6,2.2-2.2,8.2-2.5,8.6s-0.4,2.8-0.4,3.3
		c0.1,0.5,0.3,8.9,0.3,8.9l0.3,0.1c-0.2,0.1-0.5,0.3-0.6,0.3c-0.4,0.1-2.3,0.3-3,0.4s-0.6,1.5-0.6,1.5s4.8,0,5.2,0s4-0.1,3.9-0.8
		c0-0.2-0.1-0.3-0.1-0.5l0.6,0.1c0,0-0.3-1.6-0.4-2.9c-0.1-0.8-0.7-4.1-1.4-4.9c-0.7-0.8,0.5-3.3,0.5-3.3s5.5-7.9,5.3-10.4l0.7,0.1
		c0,0,0.2-0.5,0.4-0.8C93,22.1,92.8,19,92.8,19z"/>
	<g>
		<ellipse class="st2" cx="66.3" cy="43.7" rx="2.3" ry="2.2"/>
		<ellipse class="st2" cx="79.7" cy="43.7" rx="2.3" ry="2.2"/>
		<path class="st3" d="M66.3,44.1l-0.9-4.2L73.8,26c0,0,0.9-2.6,3-1.7c2.2,0.9,2.9,1.2,2.9,1.2"/>
		<line class="st3" x1="79.7" y1="43.7" x2="72.5" y2="28.6"/>
	</g>
</g>
<line class="st3" x1="67.3" y1="33" x2="76.9" y2="33"/>
<g>
	<path class="st1" d="M119.3,19l-1-4.7c0,0-1.1-3.3-3.3-5.4c-2.2-2.1-5-1.7-5-1.7l-0.9-0.6L109,6.9l-0.5-0.3
		c-0.6-1.2-0.8-1.3-1.5-1.7c-0.1,0-0.2-0.1-0.2-0.1c-0.4-0.2-0.8-0.3-1.2-0.4c-1.5-0.7-2.8,0.2-3.3,0.9C101.8,6,102,7,103.5,8.1
		c0.1,0,0.9,1.2,1,1.3c0.2,0.1,0.3-0.2,0.6-0.2c0.5,0,1.2,0.3,1.5,0.3c0.4,0,0.6-0.4,0.9-0.4c0.2,0,0.4-0.1,0.6-0.1l0.3,0.3
		c0,0,0.7,2.7,1.1,3.4c0.5,1.2,1.4,2.4,1.6,2.4c0.1,0,0.4,0.6,0.6,1.3c-0.1,1-0.3,1.8-0.9,2.2c-1.6,1.2-6,3.7-6,3.7l0.1,0.1
		c-0.4,0-0.9,0.1-1.3,0.3c-0.9,0.4-1.3,0.7-1.6,1.4s0.1,0.9,0.6,1.1s0.5,0.2,1,0.3c0.5,0.1,1.3-0.4,0.7-0.5c-0.5-0.1-0.7,0.2-1.1,0
		c0.1-0.5,1.1-1,1.1-1s1.3,0.1,2-0.1l0,0l0.5,0.5c0,0,2.6-1.1,4.4-1.9c-0.6,2.2-2.2,8.2-2.5,8.6s-0.4,2.8-0.4,3.3
		c0.1,0.5,0.3,8.9,0.3,8.9l0.3,0.1c-0.2,0.1-0.5,0.3-0.6,0.3c-0.4,0.1-2.3,0.3-3,0.4c-0.8,0.2-0.6,1.5-0.6,1.5s4.8,0,5.2,0
		c0.4,0,4-0.1,3.9-0.8c0-0.2-0.1-0.3-0.1-0.5l0.6,0.1c0,0-0.3-1.6-0.4-2.9c-0.1-0.8-0.7-4.1-1.4-4.9c-0.7-0.8,0.5-3.3,0.5-3.3
		s5.5-7.9,5.3-10.4L119,23c0,0,0.2-0.5,0.4-0.8C119.4,22.1,119.3,19,119.3,19z"/>
	<g>
		<ellipse class="st2" cx="92.7" cy="43.7" rx="2.3" ry="2.2"/>
		<ellipse class="st2" cx="106.1" cy="43.7" rx="2.3" ry="2.2"/>
		<path class="st3" d="M92.7,44.1l-0.9-4.2l8.4-13.9c0,0,0.9-2.6,3-1.7c2.2,0.9,2.9,1.2,2.9,1.2"/>
		<line class="st3" x1="106.1" y1="43.7" x2="98.9" y2="28.6"/>
	</g>
</g>
<line class="st3" x1="93.7" y1="33" x2="103.3" y2="33"/>
<g>
	<path class="st1" d="M145.3,19l-1-4.7c0,0-1.1-3.3-3.3-5.4c-2.2-2.1-5-1.7-5-1.7l-0.9-0.6L135,6.9l-0.5-0.3
		c-0.6-1.2-0.8-1.3-1.5-1.7c-0.1,0-0.2-0.1-0.2-0.1c-0.4-0.2-0.8-0.3-1.2-0.4c-1.5-0.7-2.8,0.2-3.3,0.9C127.8,6,128,7,129.5,8.1
		c0.1,0,0.9,1.2,1,1.3c0.2,0.1,0.3-0.2,0.6-0.2c0.5,0,1.2,0.3,1.5,0.3c0.4,0,0.6-0.4,0.9-0.4c0.2,0,0.4-0.1,0.6-0.1l0.3,0.3
		c0,0,0.7,2.7,1.1,3.4c0.5,1.2,1.4,2.4,1.6,2.4c0.1,0,0.4,0.6,0.6,1.3c-0.1,1-0.3,1.8-0.9,2.2c-1.6,1.2-6,3.7-6,3.7l0.1,0.1
		c-0.4,0-0.9,0.1-1.3,0.3c-0.9,0.4-1.3,0.7-1.6,1.4s0.1,0.9,0.6,1.1s0.5,0.2,1,0.3c0.5,0.1,1.3-0.4,0.7-0.5c-0.5-0.1-0.7,0.2-1.1,0
		c0.1-0.5,1.1-1,1.1-1s1.3,0.1,2-0.1l0,0l0.5,0.5c0,0,2.6-1.1,4.4-1.9c-0.6,2.2-2.2,8.2-2.5,8.6s-0.4,2.8-0.4,3.3
		c0.1,0.5,0.3,8.9,0.3,8.9l0.3,0.1c-0.2,0.1-0.5,0.3-0.6,0.3c-0.4,0.1-2.3,0.3-3,0.4s-0.6,1.5-0.6,1.5s4.8,0,5.2,0
		c0.4,0,4-0.1,3.9-0.8c0-0.2-0.1-0.3-0.1-0.5l0.6,0.1c0,0-0.3-1.6-0.4-2.9c-0.1-0.8-0.7-4.1-1.4-4.9c-0.7-0.8,0.5-3.3,0.5-3.3
		s5.5-7.9,5.3-10.4L145,23c0,0,0.2-0.5,0.4-0.8C145.4,22.1,145.3,19,145.3,19z"/>
	<g>
		<ellipse class="st2" cx="118.7" cy="43.7" rx="2.3" ry="2.2"/>
		<ellipse class="st2" cx="132.1" cy="43.7" rx="2.3" ry="2.2"/>
		<path class="st3" d="M118.7,44.1l-0.9-4.2l8.4-13.9c0,0,0.9-2.6,3-1.7c2.2,0.9,2.9,1.2,2.9,1.2"/>
		<line class="st3" x1="132.1" y1="43.7" x2="124.9" y2="28.6"/>
	</g>
</g>
<line class="st3" x1="119.7" y1="33" x2="129.3" y2="33"/>
</svg>
