<?xml version="1.0" encoding="utf-8"?>
<!-- Generator: Adobe Illustrator 21.1.0, SVG Export Plug-In . SVG Version: 6.00 Build 0)  -->
<svg version="1.1" xmlns="http://www.w3.org/2000/svg" xmlns:xlink="http://www.w3.org/1999/xlink" x="0px" y="0px"
	 viewBox="0 0 93.1 46.7" style="enable-background:new 0 0 93.1 46.7;" xml:space="preserve">
<style type="text/css">
	.st0{stroke:#000000;stroke-width:0.1032;stroke-miterlimit:10;}
	.st1{fill:#FFFFFF;stroke:#000000;stroke-width:1.2089;stroke-miterlimit:10;}
	.st2{fill:none;stroke:#000000;stroke-width:1.2089;stroke-linecap:round;stroke-miterlimit:10;}
</style>
<g id="teckning">
	<g>
		<path d="M12.8,31.2c0.2,0.5,0.2,0.8,0.5,0.8c0.3,0,0.5-0.3,0.7-0.8c0.2-0.5,0.3-1.2,0.3-2c0-0.4,0-0.7-0.1-1l0.6-0.2l-0.6-8.2
			l-1.2-4.9c-0.6-4.3-1.9-4.8-4.4-6.1V7.5c0.5-0.3,0.8-0.7,1.1-1.2L9.8,6.5l0.6,0.2c0,0,1.5-0.2,0.7-0.5c-0.4-0.2-0.6-0.6-0.7-0.9
			l0.5,0c0,0,1.3-0.7,0.5-0.7c-0.4,0-0.7-0.3-0.8-0.5l0.4,0c0,0,1.3-0.7,0.5-0.7c-0.6,0-0.9-0.5-1.1-0.8C9.8,1.1,8.8,0,7.5,0
			C6.3,0,5.3,1,4.8,2.3l0,0c0,0-0.3,1-1.1,1C2.8,3.4,4.2,4.1,4.2,4.1l0.4,0C4.3,4.3,4.1,4.6,3.7,4.6C2.8,4.6,4.2,5.3,4.2,5.3l0.5,0
			C4.6,5.6,4.4,6,3.9,6.2C3.1,6.5,4.6,6.7,4.6,6.7l0.6-0.2L5.1,6.2c0.3,0.6,0.8,1.1,1.3,1.3v1c-2.6,1.3-4,1.7-4.6,6.1l-1.2,4.9
			L0,27.9l0.8,0.3c0,0.3-0.1,0.7-0.1,1c0,0.8,0.1,1.5,0.3,2c0.2,0.5,0.4,0.8,0.7,0.8c0.3,0,0.3-0.3,0.5-0.8c0.2-0.5,0-1.3,0-2.1
			c0-0.2,0-0.3,0-0.5l0,0l0-0.4c0.1-0.4,0.1-0.7,0.1-1l0.2-1.6l-0.1,3.4l0.3,0h0.5L2.7,44.9h1.1c-1.8,0.4-3.1,1.1-3.1,1.7l6.6-1.2
			c-0.1-0.2-0.2-0.4-0.5-0.5h0.5V29.2h0H8v15.7h0.1c-0.2,0.1-0.4,0.3-0.5,0.5l6.6,1.2c0-0.6-1.3-1.3-3.1-1.7h1.7l-0.8-15.7l0.3,0
			l-0.1-3.4l0.3,2.9l0.2-0.1c0,0.1,0,0.3,0,0.4C12.8,29.9,12.7,30.7,12.8,31.2z"/>
	</g>
	<g>
		<path class="st0" d="M66.2,19.2l-1-4.7c0,0-1.1-3.3-3.3-5.4c-2.2-2.1-5-1.7-5-1.7l-0.9-0.6l-0.1,0.3l-0.5-0.3
			c-0.6-1.2-0.8-1.3-1.5-1.7c-0.1,0-0.2-0.1-0.2-0.1c-0.4-0.2-0.8-0.3-1.2-0.4c-1.5-0.7-2.8,0.2-3.3,0.9c-0.5,0.7-0.3,1.7,1.2,2.8
			c0.1,0,0.9,1.2,1,1.3c0.2,0.1,0.3-0.2,0.6-0.2c0.5,0,1.2,0.3,1.5,0.3c0.4,0,0.6-0.4,0.9-0.4c0.2,0,0.4-0.1,0.6-0.1l0.3,0.3
			c0,0,0.7,2.7,1.1,3.4c0.5,1.2,1.4,2.4,1.6,2.4c0.1,0,0.4,0.6,0.6,1.3c-0.1,1-0.3,1.8-0.9,2.2c-1.6,1.2-6,3.7-6,3.7l0.1,0.1
			c-0.4,0-0.9,0.1-1.3,0.3c-0.9,0.4-1.3,0.7-1.6,1.4c-0.2,0.6,0.1,0.9,0.6,1.1c0.5,0.3,0.5,0.2,1,0.3c0.5,0.1,1.3-0.4,0.7-0.5
			c-0.5-0.1-0.7,0.2-1.1,0c0.1-0.5,1.1-1,1.1-1s1.3,0.1,2-0.1l0,0l0.5,0.5c0,0,2.6-1.1,4.4-1.9c-0.6,2.2-2.2,8.2-2.5,8.6
			c-0.3,0.4-0.4,2.8-0.4,3.3c0.1,0.5,0.3,8.9,0.3,8.9l0.3,0.1c-0.2,0.1-0.5,0.3-0.6,0.3c-0.4,0.1-2.3,0.3-3,0.4
			c-0.8,0.2-0.6,1.5-0.6,1.5s4.8,0,5.2,0c0.4,0,4-0.1,3.9-0.8c0-0.2-0.1-0.3-0.1-0.5l0.6,0.1c0,0-0.3-1.6-0.4-2.9
			c-0.1-0.8-0.7-4.1-1.4-4.9c-0.7-0.8,0.5-3.3,0.5-3.3s5.5-7.9,5.3-10.4l0.7,0.1c0,0,0.2-0.5,0.4-0.8C66.3,22.2,66.2,19.2,66.2,19.2
			z"/>
		<g>
			<ellipse class="st1" cx="39.6" cy="43.9" rx="2.3" ry="2.2"/>
			<ellipse class="st1" cx="53.1" cy="43.9" rx="2.3" ry="2.2"/>
			<path class="st2" d="M39.6,44.3L38.6,40l8.4-13.9c0,0,0.9-2.6,3-1.7c2.2,0.9,2.9,1.2,2.9,1.2"/>
			<line class="st2" x1="53.1" y1="43.9" x2="45.9" y2="28.8"/>
		</g>
	</g>
	<line class="st2" x1="40.6" y1="33.2" x2="50.2" y2="33.2"/>
	<g>
		<path class="st0" d="M92.9,19.2l-1-4.7c0,0-1.1-3.3-3.3-5.4c-2.2-2.1-5-1.7-5-1.7l-0.9-0.6l-0.1,0.3l-0.5-0.3
			c-0.6-1.2-0.8-1.3-1.5-1.7c-0.1,0-0.2-0.1-0.2-0.1c-0.4-0.2-0.8-0.3-1.2-0.4c-1.5-0.7-2.8,0.2-3.3,0.9c-0.5,0.7-0.3,1.7,1.2,2.8
			c0.1,0,0.9,1.2,1,1.3c0.2,0.1,0.3-0.2,0.6-0.2c0.5,0,1.2,0.3,1.5,0.3c0.4,0,0.6-0.4,0.9-0.4c0.2,0,0.4-0.1,0.6-0.1L82,9.5
			c0,0,0.7,2.7,1.1,3.4c0.5,1.2,1.4,2.4,1.6,2.4c0.1,0,0.4,0.6,0.6,1.3c-0.1,1-0.3,1.8-0.9,2.2c-1.6,1.2-6,3.7-6,3.7l0.1,0.1
			c-0.4,0-0.9,0.1-1.3,0.3c-0.9,0.4-1.3,0.7-1.6,1.4c-0.2,0.6,0.1,0.9,0.6,1.1c0.5,0.3,0.5,0.2,1,0.3c0.5,0.1,1.3-0.4,0.7-0.5
			c-0.5-0.1-0.7,0.2-1.1,0c0.1-0.5,1.1-1,1.1-1s1.3,0.1,2-0.1l0,0l0.5,0.5c0,0,2.6-1.1,4.4-1.9c-0.6,2.2-2.2,8.2-2.5,8.6
			c-0.3,0.4-0.4,2.8-0.4,3.3c0.1,0.5,0.3,8.9,0.3,8.9l0.3,0.1c-0.2,0.1-0.5,0.3-0.6,0.3c-0.4,0.1-2.3,0.3-3,0.4
			c-0.8,0.2-0.6,1.5-0.6,1.5s4.8,0,5.2,0c0.4,0,4-0.1,3.9-0.8c0-0.2-0.1-0.3-0.1-0.5l0.6,0.1c0,0-0.3-1.6-0.4-2.9
			c-0.1-0.8-0.7-4.1-1.4-4.9c-0.7-0.8,0.5-3.3,0.5-3.3s5.5-7.9,5.3-10.4l0.7,0.1c0,0,0.2-0.5,0.4-0.8C93.1,22.2,92.9,19.2,92.9,19.2
			z"/>
		<g>
			<ellipse class="st1" cx="66.4" cy="43.9" rx="2.3" ry="2.2"/>
			<ellipse class="st1" cx="79.8" cy="43.9" rx="2.3" ry="2.2"/>
			<path class="st2" d="M66.4,44.3L65.4,40l8.4-13.9c0,0,0.9-2.6,3-1.7c2.2,0.9,2.9,1.2,2.9,1.2"/>
			<line class="st2" x1="79.8" y1="43.9" x2="72.6" y2="28.8"/>
		</g>
	</g>
	<line class="st2" x1="67.4" y1="33.2" x2="77" y2="33.2"/>
</g>
<g id="text">
</g>
</svg>
