<?xml version="1.0" encoding="utf-8"?>
<!-- Generator: Adobe Illustrator 23.0.2, SVG Export Plug-In . SVG Version: 6.00 Build 0)  -->
<svg version="1.1" id="Layer_1" xmlns="http://www.w3.org/2000/svg" xmlns:xlink="http://www.w3.org/1999/xlink" x="0px" y="0px"
	 viewBox="0 0 490.1 606.6" style="enable-background:new 0 0 490.1 606.6;" xml:space="preserve">
<style type="text/css">
	.st0{fill:url(#SVGID_1_);}
	.st1{fill:url(#SVGID_2_);}
	.st2{fill:url(#SVGID_3_);}
	.st3{fill:url(#SVGID_4_);}
	.st4{fill:url(#SVGID_5_);}
	.st5{fill:url(#SVGID_6_);}
	.st6{fill:url(#SVGID_7_);}
	.st7{fill:url(#SVGID_8_);}
	.st8{fill:none;}
	.st9{fill:url(#SVGID_9_);}
	.st10{fill:url(#SVGID_10_);}
	.st11{fill:url(#SVGID_11_);}
	.st12{fill:none;stroke:#1D1D1C;stroke-miterlimit:10;}
	.st13{fill:#F6F6F6;fill-opacity:0;}
	.st14{opacity:0.1;fill:#F7F7F7;enable-background:new    ;}
	.st15{opacity:0.2;fill:#F8F8F8;enable-background:new    ;}
	.st16{opacity:0.3;fill:#F9F9F9;enable-background:new    ;}
	.st17{opacity:0.4;fill:#FAFAFA;enable-background:new    ;}
	.st18{opacity:0.5;fill:#FBFBFB;enable-background:new    ;}
	.st19{opacity:0.6;fill:#FBFBFB;enable-background:new    ;}
	.st20{opacity:0.7;fill:#FCFCFC;enable-background:new    ;}
	.st21{opacity:0.8;fill:#FDFDFD;enable-background:new    ;}
	.st22{opacity:0.9;fill:#FEFEFE;enable-background:new    ;}
	.st23{fill:#FFFFFF;}
	.st24{fill:url(#SVGID_12_);}
	.st25{opacity:0.65;fill:#FFFFFF;enable-background:new    ;}
	.st26{fill:#655735;}
	.st27{fill:url(#SVGID_13_);}
	.st28{fill:url(#SVGID_14_);}
	.st29{fill:url(#SVGID_15_);}
	.st30{fill:url(#SVGID_16_);}
	.st31{fill:url(#SVGID_17_);}
	.st32{fill:url(#SVGID_18_);}
</style>
<g id="Vrstva_1">
	<g>
		<g>
			<g>
				
					<linearGradient id="SVGID_1_" gradientUnits="userSpaceOnUse" x1="-78.8059" y1="310.534" x2="-63.4413" y2="310.534" gradientTransform="matrix(-1 0 0 1 281.4035 -245.2438)">
					<stop  offset="0" style="stop-color:#F2F2F2"/>
					<stop  offset="1" style="stop-color:#CCCCCC"/>
				</linearGradient>
				<path class="st0" d="M345.7,65.6c0.1-0.3,0.1-0.4,0.2-0.7c0,0.2,0.1,0.3,0.1,0.6C345.8,65.5,345.7,65.5,345.7,65.6z"/>
				
					<linearGradient id="SVGID_2_" gradientUnits="userSpaceOnUse" x1="-63.4965" y1="317.784" x2="-63.4965" y2="317.784" gradientTransform="matrix(-1 0 0 1 281.4035 -245.2438)">
					<stop  offset="0" style="stop-color:#F2F2F2"/>
					<stop  offset="1" style="stop-color:#CCCCCC"/>
				</linearGradient>
				<path class="st1" d="M344.9,72.9c0-0.5,0-1,0-1.4c0,0.6,0,1.3,0,2C344.9,73.2,344.9,73,344.9,72.9z"/>
				
					<linearGradient id="SVGID_3_" gradientUnits="userSpaceOnUse" x1="-63.4965" y1="315.7618" x2="-63.4965" y2="315.7618" gradientTransform="matrix(-1 0 0 1 281.4035 -245.2438)">
					<stop  offset="0" style="stop-color:#F2F2F2"/>
					<stop  offset="1" style="stop-color:#CCCCCC"/>
				</linearGradient>
				<path class="st2" d="M344.9,69.7C344.9,69.7,344.9,69.6,344.9,69.7c0,0.5,0,1,0,1.6C344.9,70.8,344.9,70.2,344.9,69.7z"/>
				
					<linearGradient id="SVGID_4_" gradientUnits="userSpaceOnUse" x1="-78.7675" y1="315.184" x2="-63.4436" y2="315.184" gradientTransform="matrix(-1 0 0 1 281.4035 -245.2438)">
					<stop  offset="0" style="stop-color:#F2F2F2"/>
					<stop  offset="1" style="stop-color:#CCCCCC"/>
				</linearGradient>
				<path class="st3" d="M345.6,71.7c-0.3-0.9-0.5-1.7-0.6-2.5c0.1-0.3,0.1-0.8,0.2-1.1c0.2,0.8,0.4,1.5,0.8,2.4
					C345.9,70.9,345.7,71.3,345.6,71.7z"/>
				
					<linearGradient id="SVGID_5_" gradientUnits="userSpaceOnUse" x1="-63.4965" y1="336.134" x2="-63.4965" y2="336.134" gradientTransform="matrix(-1 0 0 1 281.4035 -245.2438)">
					<stop  offset="0" style="stop-color:#F2F2F2"/>
					<stop  offset="1" style="stop-color:#CCCCCC"/>
				</linearGradient>
				<path class="st4" d="M344.9,91.3L344.9,91.3c0-0.3,0-0.7,0-0.9C344.9,90.8,344.9,91,344.9,91.3z"/>
				
					<linearGradient id="SVGID_6_" gradientUnits="userSpaceOnUse" x1="-77.831" y1="341.134" x2="-63.4252" y2="341.134" gradientTransform="matrix(-1 0 0 1 281.4035 -245.2438)">
					<stop  offset="0" style="stop-color:#F2F2F2"/>
					<stop  offset="1" style="stop-color:#CCCCCC"/>
				</linearGradient>
				<path class="st5" d="M345.8,96.2c-0.1-0.3-0.1-0.4-0.2-0.7c0.1,0.1,0.2,0.1,0.3,0.2C345.9,96,345.9,96.2,345.8,96.2z"/>
				
					<linearGradient id="SVGID_7_" gradientUnits="userSpaceOnUse" x1="-78.0187" y1="334.284" x2="-63.4231" y2="334.284" gradientTransform="matrix(-1 0 0 1 281.4035 -245.2438)">
					<stop  offset="0" style="stop-color:#F2F2F2"/>
					<stop  offset="1" style="stop-color:#CCCCCC"/>
				</linearGradient>
				<path class="st6" d="M344.9,87.5c0,1.2,0,2,0,3c0-0.8,0-1.5,0-2.5C344.8,87.7,344.9,87.6,344.9,87.5z"/>
				
					<linearGradient id="SVGID_8_" gradientUnits="userSpaceOnUse" x1="-77.8488" y1="336.534" x2="-63.4235" y2="336.534" gradientTransform="matrix(-1 0 0 1 281.4035 -245.2438)">
					<stop  offset="0" style="stop-color:#F2F2F2"/>
					<stop  offset="1" style="stop-color:#CCCCCC"/>
				</linearGradient>
				<path class="st7" d="M346,90.8c-0.5,0.9-0.8,1.5-0.9,2.3c-0.1-0.3-0.2-0.8-0.2-1.1c0.1-0.8,0.3-1.6,0.8-2.6
					C345.8,89.9,345.9,90.2,346,90.8z"/>
			</g>
		</g>
	</g>
</g>
<rect y="-47.8" class="st8" width="490.1" height="650"/>
<linearGradient id="SVGID_9_" gradientUnits="userSpaceOnUse" x1="338.9" y1="78.684" x2="475.7" y2="78.684" gradientTransform="matrix(1 0 0 1 0 0.7562)">
	<stop  offset="5.618000e-03" style="stop-color:#FCE171"/>
	<stop  offset="0.2528" style="stop-color:#FFFCE6"/>
	<stop  offset="0.3159" style="stop-color:#F8F1D5"/>
	<stop  offset="0.4412" style="stop-color:#E4D5A8"/>
	<stop  offset="0.5955" style="stop-color:#C9AD69"/>
	<stop  offset="0.8708" style="stop-color:#F2E6BB"/>
	<stop  offset="1" style="stop-color:#FFFCE6"/>
</linearGradient>
<circle class="st9" cx="407.3" cy="79.4" r="68.4"/>
<linearGradient id="SVGID_10_" gradientUnits="userSpaceOnUse" x1="360.2774" y1="31.6614" x2="454.3226" y2="125.7066" gradientTransform="matrix(1 0 0 1 0 0.7562)">
	<stop  offset="5.618000e-03" style="stop-color:#FCE171"/>
	<stop  offset="0.2528" style="stop-color:#FFFCE6"/>
	<stop  offset="0.3159" style="stop-color:#F8F1D5"/>
	<stop  offset="0.4412" style="stop-color:#E4D5A8"/>
	<stop  offset="0.5955" style="stop-color:#C9AD69"/>
	<stop  offset="0.8708" style="stop-color:#F2E6BB"/>
	<stop  offset="1" style="stop-color:#FFFCE6"/>
</linearGradient>
<circle class="st10" cx="407.3" cy="79.4" r="66.5"/>
<linearGradient id="SVGID_11_" gradientUnits="userSpaceOnUse" x1="348.1" y1="78.684" x2="466.5" y2="78.684" gradientTransform="matrix(1 0 0 1 0 0.7562)">
	<stop  offset="5.618000e-03" style="stop-color:#FCE171"/>
	<stop  offset="0.2528" style="stop-color:#FFFCE6"/>
	<stop  offset="0.3159" style="stop-color:#F8F1D5"/>
	<stop  offset="0.4412" style="stop-color:#E4D5A8"/>
	<stop  offset="0.5955" style="stop-color:#C9AD69"/>
	<stop  offset="0.8708" style="stop-color:#F2E6BB"/>
	<stop  offset="1" style="stop-color:#FFFCE6"/>
</linearGradient>
<circle class="st11" cx="407.3" cy="79.4" r="59.2"/>
<path class="st12" d="M439.7,29.8"/>
<path class="st12" d="M378.8,27.5"/>
<path class="st12" d="M353.2,55.3"/>
<path class="st12" d="M354,105.3"/>
<path class="st12" d="M380.9,132.5"/>
<path class="st12" d="M422,136.8"/>
<path class="st12" d="M448.8,121.6"/>
<g>
	<g>
		<g>
			<path class="st13" d="M342.3,65.3c0.1,0-0.4,2.4-0.7,6.3c-0.4,3.9-0.6,9.3,0.1,15.1c0.6,5.9,2,11.1,3.3,14.8
				c1.2,3.7,2.2,5.9,2.1,6c-0.1,0-1.3-2.1-2.7-5.8c-1.4-3.7-2.9-8.9-3.5-14.9c-0.7-6-0.4-11.4,0.2-15.3
				C341.5,67.6,342.2,65.3,342.3,65.3z"/>
			<path class="st14" d="M342.1,66.5c0.1,0-0.3,2.3-0.6,5.9c-0.3,3.7-0.5,8.7,0.2,14.3c0.6,5.6,1.9,10.5,3,14s2,5.6,1.9,5.7
				c-0.1,0-1.2-2-2.4-5.5c-1.3-3.5-2.6-8.5-3.2-14.1s-0.4-10.8,0.1-14.5C341.4,68.7,342,66.4,342.1,66.5z"/>
			<path class="st15" d="M341.8,67.6c0.1,0-0.2,2.1-0.5,5.6c-0.3,3.4-0.4,8.2,0.2,13.5c0.6,5.2,1.7,9.9,2.7,13.2s1.8,5.3,1.7,5.3
				c-0.1,0-1.1-1.9-2.2-5.2s-2.4-8-3-13.3s-0.4-10.1,0-13.6C341.2,69.7,341.7,67.6,341.8,67.6z"/>
		</g>
	</g>
	<g>
		<g>
			<path class="st13" d="M389.9,143.6c0-0.1,2.4,0.5,6.3,1.1s9.3,1.1,15.3,0.7c6-0.4,11.3-1.5,15.1-2.6c3.8-1.1,6.1-2,6.1-1.9
				s-2.2,1.2-5.9,2.4c-3.8,1.2-9.2,2.5-15.2,2.9c-6.1,0.4-11.6-0.2-15.5-0.9C392.2,144.5,389.9,143.7,389.9,143.6z"/>
			<path class="st14" d="M391.1,143.9c0-0.1,2.3,0.4,6,0.9s8.8,0.9,14.5,0.5s10.7-1.4,14.3-2.4c3.6-1,5.8-1.8,5.8-1.7
				s-2.1,1.1-5.6,2.2c-3.6,1.1-8.7,2.3-14.4,2.7c-5.7,0.4-10.9-0.1-14.6-0.8C393.3,144.7,391.1,144,391.1,143.9z"/>
			<path class="st15" d="M392.3,144.2c0-0.1,2.2,0.3,5.6,0.8c3.5,0.4,8.3,0.8,13.6,0.4c5.3-0.3,10.1-1.3,13.5-2.2s5.4-1.6,5.5-1.5
				c0,0.1-2,1-5.3,2c-3.4,1-8.2,2.1-13.6,2.4c-5.4,0.4-10.3-0.1-13.8-0.6C394.4,144.9,392.3,144.3,392.3,144.2z"/>
			<path class="st16" d="M393.5,144.5c0-0.1,2,0.3,5.3,0.6c3.3,0.4,7.8,0.6,12.8,0.3s9.5-1.2,12.6-2c3.2-0.8,5.1-1.4,5.2-1.3
				c0,0.1-1.9,0.9-5,1.8c-3.2,0.9-7.7,1.9-12.7,2.2s-9.6,0-12.9-0.5C395.4,145.1,393.5,144.5,393.5,144.5z"/>
			<path class="st17" d="M394.7,144.7c0-0.1,1.9,0.2,4.9,0.5s7.3,0.5,11.9,0.2c4.7-0.3,8.8-1.1,11.8-1.7c3-0.7,4.8-1.3,4.8-1.2
				s-1.7,0.8-4.7,1.6s-7.2,1.7-11.9,2c-4.7,0.3-9,0-12-0.4C396.5,145.3,394.7,144.8,394.7,144.7z"/>
			<path class="st18" d="M395.9,144.9c0-0.2,7,1.1,15.7,0.5c8.7-0.5,15.4-2.8,15.5-2.6c0,0.1-1.6,0.7-4.4,1.4s-6.7,1.5-11,1.7
				c-4.4,0.3-8.3,0.1-11.2-0.3C397.6,145.4,395.9,145,395.9,144.9z"/>
			<path class="st19" d="M397.1,145.1c0-0.2,6.5,0.9,14.5,0.4s14.3-2.4,14.3-2.2c0,0.1-1.5,0.6-4.1,1.3c-2.6,0.6-6.2,1.3-10.2,1.5
				c-4,0.3-7.7,0.1-10.3-0.2C398.7,145.5,397.1,145.2,397.1,145.1z"/>
			<path class="st20" d="M398.3,145.3c0-0.2,6,0.7,13.3,0.2s13.1-2.1,13.2-1.9c0.1,0.1-5.7,2-13.1,2.4
				C404.2,146.5,398.2,145.4,398.3,145.3z"/>
			<path class="st21" d="M399.5,145.4c0-0.1,5.4,0.5,12.1,0.1s11.9-1.8,12-1.6c0,0.1-5.2,1.7-11.9,2.1
				C404.9,146.4,399.4,145.5,399.5,145.4z"/>
			<path class="st22" d="M400.7,145.6c0-0.1,4.9,0.4,10.9,0s10.8-1.5,10.8-1.4s-4.7,1.4-10.8,1.8
				C405.6,146.4,400.7,145.7,400.7,145.6z"/>
			<path class="st23" d="M401.9,145.7c0-0.1,4.3,0.2,9.7-0.1c5.3-0.3,9.6-1.3,9.6-1.1c0,0.1-4.2,1.2-9.6,1.5
				S401.9,145.8,401.9,145.7z"/>
		</g>
	</g>
	<g>
		<g>
			<path class="st13" d="M432.7,18c-0.1,0.1-2.4-0.8-6.2-1.9c-3.8-1.1-9.3-2.3-15.4-2.6c-6.1-0.4-11.6,0.2-15.6,0.8
				s-6.4,1.3-6.4,1.2s2.3-1,6.3-1.8s9.6-1.4,15.7-1.1c6.2,0.3,11.7,1.6,15.5,2.9C430.5,16.8,432.8,17.9,432.7,18z"/>
			<path class="st14" d="M431.6,17.5c0,0.1-2.2-0.7-5.9-1.7c-3.6-1-8.8-2-14.6-2.4c-5.8-0.3-11,0.1-14.7,0.7s-6,1.1-6.1,1
				c0-0.1,2.2-0.9,6-1.6c3.7-0.7,9-1.3,14.9-0.9c5.8,0.3,11,1.5,14.7,2.6C429.5,16.4,431.6,17.4,431.6,17.5z"/>
			<path class="st15" d="M430.4,17.1c0,0.1-2.1-0.6-5.6-1.5c-3.4-0.9-8.3-1.8-13.7-2.1c-5.4-0.3-10.3,0.1-13.9,0.5
				c-3.5,0.5-5.7,1-5.7,0.9s2.1-0.8,5.6-1.4s8.5-1.1,14-0.8c5.5,0.3,10.4,1.4,13.8,2.4C428.4,16.1,430.5,17,430.4,17.1z"/>
			<path class="st16" d="M429.3,16.7c0,0.1-2-0.6-5.3-1.3c-3.2-0.8-7.8-1.6-12.9-1.9s-9.7,0-13,0.4s-5.3,0.8-5.4,0.7
				c0-0.1,2-0.7,5.3-1.2s8-0.9,13.1-0.6s9.7,1.2,13,2.1C427.4,15.7,429.3,16.6,429.3,16.7z"/>
			<path class="st17" d="M428.1,16.3c0,0.1-1.9-0.5-4.9-1.2s-7.3-1.4-12-1.7c-4.7-0.3-9.1,0-12.2,0.3s-5,0.7-5,0.6s1.9-0.6,5-1.1
				s7.5-0.8,12.2-0.5c4.8,0.3,9.1,1.1,12.1,1.9S428.1,16.2,428.1,16.3z"/>
			<path class="st18" d="M426.9,15.9c0,0.2-6.9-2.1-15.8-2.5c-8.8-0.5-15.9,0.9-16,0.7c0-0.1,1.7-0.5,4.6-0.9s6.9-0.7,11.4-0.4
				c4.4,0.3,8.4,1,11.3,1.7C425.2,15.2,426.9,15.8,426.9,15.9z"/>
			<path class="st19" d="M425.7,15.5c0,0.2-6.4-1.8-14.6-2.2c-8.2-0.5-14.7,0.7-14.7,0.5c0-0.1,1.6-0.4,4.3-0.8
				c2.7-0.3,6.4-0.5,10.5-0.3s7.8,0.9,10.4,1.5C424.2,14.9,425.7,15.5,425.7,15.5z"/>
			<path class="st20" d="M424.5,15.2c0,0.2-5.9-1.5-13.4-1.9c-7.5-0.5-13.5,0.5-13.5,0.3c0-0.1,6-1.3,13.6-0.9
				C418.7,13.2,424.6,15.1,424.5,15.2z"/>
			<path class="st21" d="M423.3,14.9c0,0.1-5.4-1.2-12.2-1.6c-6.8-0.4-12.3,0.3-12.3,0.2s5.5-1.1,12.3-0.7
				C418,13.2,423.4,14.8,423.3,14.9z"/>
			<path class="st22" d="M422.1,14.6c0,0.1-4.9-1-11-1.3c-6.1-0.4-11.1,0.2-11.1,0.1s4.9-0.9,11.1-0.5
				C417.3,13.2,422.2,14.5,422.1,14.6z"/>
			<path class="st23" d="M420.9,14.3c0,0.1-4.4-0.8-9.8-1.1c-5.4-0.3-9.8,0.1-9.8,0s4.4-0.7,9.9-0.3
				C416.6,13.2,420.9,14.2,420.9,14.3z"/>
		</g>
	</g>
</g>
<g>
	<g>
		<g>
			<path class="st13" d="M378.8,27.5c0,0.1-1.8,1.1-4.7,3.1c-2.8,2-6.6,5-10.2,8.9s-6.3,7.9-8,10.9c-1.8,3-2.6,5-2.7,4.9
				c-0.1,0,0.7-2.1,2.3-5.1c1.7-3.1,4.3-7.1,8-11.1c3.6-3.9,7.5-6.9,10.4-8.8C376.8,28.3,378.8,27.4,378.8,27.5z"/>
			<path class="st14" d="M377.9,28c0,0.1-1.7,1.1-4.4,3c-2.7,1.9-6.2,4.8-9.6,8.5s-6,7.4-7.7,10.2c-1.7,2.8-2.6,4.6-2.7,4.6
				s0.7-1.9,2.3-4.8c1.6-2.9,4.2-6.7,7.6-10.4c3.4-3.7,7-6.6,9.8-8.4C376,28.8,377.8,27.9,377.9,28z"/>
			<path class="st15" d="M376.9,28.5c0,0.1-1.6,1.1-4.1,2.9s-5.8,4.6-8.9,8c-3.2,3.5-5.6,6.9-7.3,9.6c-1.6,2.6-2.5,4.3-2.6,4.3
				s0.7-1.8,2.2-4.5s4-6.3,7.2-9.7c3.2-3.5,6.6-6.2,9.1-8C375.2,29.4,376.9,28.5,376.9,28.5z"/>
			<path class="st16" d="M376,29.1c0,0.1-1.5,1-3.8,2.8c-2.3,1.7-5.4,4.3-8.3,7.6c-3,3.2-5.3,6.5-6.9,8.9s-2.4,4-2.5,4
				s0.7-1.7,2.1-4.2c1.5-2.5,3.8-5.8,6.8-9.1c3-3.3,6.1-5.8,8.5-7.5C374.4,29.9,376,29,376,29.1z"/>
			<path class="st17" d="M375.1,29.7c0.1,0.1-5.6,3.7-11.2,9.8c-5.6,6-8.7,12.1-8.8,12c-0.1,0,0.6-1.6,2.1-3.9
				c1.4-2.3,3.6-5.4,6.4-8.4c2.8-3.1,5.7-5.5,7.9-7.1C373.6,30.4,375.1,29.6,375.1,29.7z"/>
			<path class="st18" d="M374.2,30.2c0.1,0.1-5.2,3.5-10.3,9.2c-5.2,5.6-8.2,11.1-8.3,11c0,0,0.6-1.4,2-3.6c1.3-2.1,3.4-5,6-7.8
				s5.3-5.1,7.3-6.6C372.9,31,374.2,30.2,374.2,30.2z"/>
			<path class="st19" d="M373.3,30.9c0.1,0.1-4.7,3.3-9.5,8.6c-4.8,5.2-7.6,10.2-7.8,10.1c-0.1,0,2.6-5.2,7.4-10.4
				C368.4,33.9,373.3,30.8,373.3,30.9z"/>
			<path class="st20" d="M372.5,31.5c0.1,0.1-4.2,3.2-8.6,7.9c-4.4,4.7-7.1,9.3-7.2,9.2c-0.1,0,2.5-4.7,6.9-9.5
				C368,34.3,372.4,31.4,372.5,31.5z"/>
			<path class="st21" d="M371.6,32.1c0.1,0.1-3.8,2.9-7.8,7.3c-4,4.3-6.5,8.4-6.6,8.3c-0.1,0,2.3-4.2,6.4-8.6
				C367.6,34.8,371.6,32,371.6,32.1z"/>
			<path class="st22" d="M370.8,32.8c0.1,0.1-3.3,2.7-6.9,6.6s-5.9,7.5-6,7.4c-0.1,0,2.2-3.7,5.8-7.7
				C367.2,35.2,370.7,32.7,370.8,32.8z"/>
			<path class="st23" d="M369.9,33.4c0.1,0.1-2.9,2.5-6.1,5.9c-3.2,3.5-5.3,6.6-5.4,6.6s2-3.3,5.2-6.8
				C366.8,35.7,369.9,33.4,369.9,33.4z"/>
		</g>
	</g>
	<g>
		<g>
			<path class="st13" d="M354,105.3c0.1,0,1.1,1.9,2.9,4.9c1.9,3,4.7,6.9,8.5,10.7s7.7,6.7,10.6,8.6c3,1.9,4.9,2.9,4.9,3
				s-2.1-0.8-5.1-2.6s-7-4.7-10.8-8.5s-6.7-7.9-8.4-10.9C354.7,107.3,353.9,105.3,354,105.3z"/>
			<path class="st14" d="M354.5,106.2c0.1,0,1,1.8,2.8,4.6s4.5,6.5,8.1,10.1s7.2,6.4,10,8.2s4.6,2.8,4.5,2.9c0,0.1-1.9-0.8-4.8-2.5
				c-2.8-1.8-6.6-4.5-10.2-8.1s-6.3-7.4-8-10.3C355.2,108.2,354.4,106.3,354.5,106.2z"/>
			<path class="st15" d="M355,107.2c0.1,0,1,1.7,2.7,4.3s4.3,6,7.7,9.4c3.3,3.4,6.8,6,9.3,7.8c2.6,1.8,4.3,2.7,4.2,2.8
				c0,0.1-1.8-0.8-4.5-2.4c-2.6-1.7-6.2-4.3-9.5-7.7c-3.4-3.4-6-6.9-7.6-9.6C355.7,109,354.9,107.2,355,107.2z"/>
			<path class="st16" d="M355.5,108.2c0.1,0,1,1.5,2.6,4c1.7,2.4,4.1,5.6,7.3,8.8c3.1,3.2,6.3,5.7,8.7,7.4c2.4,1.7,4,2.6,3.9,2.7
				c0,0.1-1.7-0.7-4.1-2.4c-2.5-1.6-5.7-4.1-8.9-7.3c-3.2-3.2-5.6-6.5-7.2-9C356.2,109.8,355.4,108.2,355.5,108.2z"/>
			<path class="st17" d="M356,109.1c0.1-0.1,3.5,5.9,9.4,11.8c5.9,6,11.8,9.3,11.7,9.5c0,0.1-1.5-0.7-3.8-2.3
				c-2.3-1.5-5.3-3.9-8.2-6.9c-3-3-5.3-6-6.8-8.3C356.7,110.7,356,109.1,356,109.1z"/>
			<path class="st18" d="M356.6,110c0.1-0.1,3.3,5.4,8.8,10.9c5.4,5.5,10.9,8.8,10.8,8.9c0,0-1.4-0.7-3.5-2.2
				c-2.1-1.4-4.9-3.6-7.6-6.4c-2.7-2.8-4.9-5.6-6.3-7.7C357.2,111.5,356.5,110.1,356.6,110z"/>
			<path class="st19" d="M357.1,111c0.1-0.1,3.2,4.9,8.2,10s10,8.2,9.9,8.3c0,0.1-5.1-2.9-10.2-8C359.9,116.1,357,111,357.1,111z"/>
			<path class="st20" d="M357.7,111.9c0.1-0.1,3,4.4,7.6,9.1c4.6,4.7,9.1,7.6,9,7.7c0,0.1-4.6-2.7-9.3-7.4
				C360.4,116.5,357.6,111.9,357.7,111.9z"/>
			<path class="st21" d="M358.3,112.8c0.1-0.1,2.8,4,7,8.2s8.2,7,8.1,7.1c0,0.1-4.2-2.5-8.4-6.8C360.8,117,358.2,112.8,358.3,112.8z
				"/>
			<path class="st22" d="M358.9,113.7c0.1-0.1,2.6,3.5,6.4,7.3s7.3,6.4,7.3,6.4c0,0.1-3.7-2.4-7.5-6.2S358.9,113.7,358.9,113.7z"/>
			<path class="st23" d="M359.6,114.5c0.1-0.1,2.4,3.1,5.7,6.5c3.3,3.4,6.5,5.7,6.4,5.8c0,0.1-3.2-2.2-6.6-5.6
				S359.5,114.6,359.6,114.5z"/>
		</g>
	</g>
	<g>
		<g>
			<path class="st13" d="M422,136.8c0-0.1,1.7-0.6,4.3-1.5c2.6-1,6.2-2.5,9.9-4.6c7.5-4.2,12.4-9.2,12.6-9.1
				c0.1,0.1-1.1,1.4-3.2,3.2c-2.1,1.9-5.2,4.3-9,6.4c-3.8,2.1-7.4,3.6-10.1,4.4C423.7,136.6,422,136.9,422,136.8z"/>
			<path class="st14" d="M422.8,136.6c-0.1-0.2,6.4-1.8,13.4-5.8c7.1-4,11.8-8.6,11.9-8.5s-1.1,1.3-3.1,3s-5,4-8.5,6
				c-3.6,2-7,3.4-9.5,4.2C424.5,136.3,422.9,136.7,422.8,136.6z"/>
			<path class="st15" d="M423.7,136.3c-0.1-0.2,6-1.8,12.6-5.6c6.7-3.7,11.2-8,11.3-7.9c0.1,0.1-1,1.2-2.9,2.8s-4.7,3.7-8.1,5.6
				c-3.3,1.9-6.6,3.2-8.9,4C425.2,136.1,423.7,136.4,423.7,136.3z"/>
			<path class="st16" d="M424.5,136.1c-0.1-0.2,5.6-1.8,11.8-5.3c6.2-3.5,10.5-7.5,10.6-7.3c0.1,0.1-4.1,4.3-10.4,7.8
				c-3.1,1.8-6.1,3-8.4,3.8C425.9,135.8,424.5,136.2,424.5,136.1z"/>
			<path class="st17" d="M425.3,135.8c-0.1-0.1,5.2-1.8,11-5.1s9.9-6.9,10-6.8c0.1,0.1-3.9,3.9-9.7,7.2
				C430.7,134.6,425.4,136,425.3,135.8z"/>
			<path class="st18" d="M426.2,135.6c-0.1-0.1,4.8-1.7,10.1-4.8c5.4-3,9.2-6.3,9.3-6.2c0.1,0.1-3.6,3.6-9.1,6.6
				C431.1,134.3,426.2,135.7,426.2,135.6z"/>
			<path class="st19" d="M427,135.3c0-0.1,4.4-1.6,9.3-4.5c5-2.8,8.6-5.8,8.6-5.7c0.1,0.1-3.4,3.2-8.4,6.1
				C431.5,134,427,135.4,427,135.3z"/>
			<path class="st20" d="M427.8,135c0-0.1,4-1.6,8.5-4.2c4.6-2.6,7.9-5.3,8-5.2s-3.2,2.9-7.8,5.5C431.9,133.8,427.8,135.1,427.8,135
				z"/>
			<path class="st21" d="M428.6,134.7c0-0.1,3.6-1.5,7.7-3.8s7.2-4.7,7.3-4.6c0.1,0.1-2.9,2.6-7.1,4.9
				C432.3,133.5,428.6,134.8,428.6,134.7z"/>
			<path class="st22" d="M429.4,134.4c0-0.1,3.2-1.4,6.9-3.5c3.7-2.1,6.5-4.2,6.6-4.1c0.1,0.1-2.7,2.3-6.4,4.4
				C432.7,133.3,429.4,134.4,429.4,134.4z"/>
			<path class="st23" d="M430.2,134c0-0.1,2.8-1.3,6.1-3.2c3.3-1.9,5.8-3.7,5.9-3.6c0,0.1-2.4,2-5.7,3.9
				C433.1,133,430.2,134.1,430.2,134z"/>
		</g>
	</g>
	<g>
		<g>
			<path class="st13" d="M463.5,60.6c-0.1,0-0.8-2.1-2.3-5.3c-1.5-3.2-3.9-7.6-7.2-11.9c-3.3-4.3-6.9-7.7-9.7-10
				c-2.8-2.3-4.6-3.5-4.5-3.6c0-0.1,2,1,4.8,3.2s6.5,5.6,9.9,10s5.7,8.8,7.1,12.1C463,58.4,463.5,60.6,463.5,60.6z"/>
			<path class="st14" d="M463.1,59.6c-0.1,0-0.8-1.9-2.3-5c-1.5-3-3.8-7.1-6.9-11.2s-6.5-7.3-9.1-9.5s-4.3-3.4-4.2-3.5
				c0-0.1,1.9,1,4.5,3.1c2.7,2.1,6.1,5.3,9.3,9.5c3.2,4.1,5.4,8.3,6.8,11.4C462.6,57.5,463.2,59.5,463.1,59.6z"/>
			<path class="st15" d="M462.7,58.5c-0.1,0-0.8-1.8-2.2-4.7c-1.4-2.8-3.6-6.7-6.6-10.5s-6.1-6.9-8.5-9s-4-3.2-3.9-3.3
				c0-0.1,1.7,1,4.2,3s5.7,5.1,8.7,9s5.2,7.8,6.5,10.7C462.2,56.6,462.8,58.5,462.7,58.5z"/>
			<path class="st16" d="M462.3,57.5c-0.1,0-0.8-1.7-2.1-4.3c-1.4-2.6-3.4-6.2-6.2-9.8c-2.8-3.6-5.7-6.5-7.9-8.5
				c-2.2-2-3.7-3.1-3.6-3.2c0-0.1,1.6,1,3.9,2.9s5.3,4.8,8.1,8.5c2.8,3.6,4.9,7.2,6.1,10C461.8,55.7,462.4,57.5,462.3,57.5z"/>
			<path class="st17" d="M461.9,56.5c-0.1,0-0.8-1.6-2.1-4c-1.3-2.5-3.3-5.8-5.9-9.1c-5.2-6.7-10.8-10.9-10.7-11
				c0,0,1.5,0.9,3.6,2.7c2.1,1.8,4.9,4.6,7.5,7.9c2.6,3.4,4.6,6.7,5.8,9.3C461.4,54.8,462,56.5,461.9,56.5z"/>
			<path class="st18" d="M461.5,55.5c-0.1,0.1-2.6-5.9-7.5-12.1c-4.8-6.3-9.9-10.2-9.8-10.3c0,0,1.3,0.9,3.3,2.6
				c1.9,1.7,4.5,4.3,6.9,7.4s4.3,6.2,5.4,8.6C461,53.9,461.5,55.5,461.5,55.5z"/>
			<path class="st19" d="M461,54.5c-0.1,0.1-2.5-5.4-7-11.1c-4.4-5.8-9.1-9.5-9-9.6c0,0,1.2,0.8,3,2.4s4.1,4,6.3,6.9
				C458.8,48.9,461.1,54.4,461,54.5z"/>
			<path class="st20" d="M460.5,53.5c-0.1,0.1-2.4-4.9-6.5-10.1c-4.1-5.3-8.3-8.8-8.2-8.9c0-0.1,4.4,3.3,8.5,8.6
				C458.5,48.4,460.6,53.5,460.5,53.5z"/>
			<path class="st21" d="M460.1,52.5c-0.1,0.1-2.3-4.4-6-9.2c-3.7-4.8-7.4-8.1-7.3-8.1c0-0.1,3.9,3.1,7.6,7.9
				C458.1,47.9,460.1,52.5,460.1,52.5z"/>
			<path class="st22" d="M459.5,51.5c-0.1,0.1-2.1-3.9-5.5-8.2c-3.3-4.3-6.6-7.3-6.5-7.4c0-0.1,3.4,2.8,6.8,7.2
				C457.7,47.5,459.6,51.5,459.5,51.5z"/>
			<path class="st23" d="M459,50.5c-0.1,0-2-3.4-5-7.2c-3-3.8-5.8-6.6-5.8-6.6c0-0.1,3,2.6,6,6.4C457.3,47,459.1,50.5,459,50.5z"/>
		</g>
	</g>
</g>
<radialGradient id="SVGID_12_" cx="407.3" cy="78.684" r="82.0204" gradientTransform="matrix(1 0 0 1 0 0.7562)" gradientUnits="userSpaceOnUse">
	<stop  offset="0" style="stop-color:#FFFFFF"/>
	<stop  offset="1" style="stop-color:#CECECE"/>
</radialGradient>
<path class="st24" d="M464.4,79.4c0,31.5-25.6,57.1-57.1,57.1s-57.1-25.6-57.1-57.1s25.6-57.1,57.1-57.1S464.4,47.9,464.4,79.4z"/>
<path class="st25" d="M407.4,127c-29.9,0-54.5-23-56.9-52.3c-0.1,1.6-0.2,3.2-0.2,4.8c0,31.5,25.6,57.1,57.1,57.1
	s57.1-25.6,57.1-57.1c0-1.6-0.1-3.2-0.2-4.8C461.9,104,437.3,127,407.4,127z"/>
<g>
	<g>
		<g>
			<g>
				<rect x="407" y="25.5" class="st26" width="0.5" height="9.2"/>
			</g>
			<g>
				<rect x="407.1" y="124.1" class="st26" width="0.5" height="9.2"/>
			</g>
		</g>
		<g>
			<g>
				<rect x="382.4" y="32.1" transform="matrix(0.866 -0.5 0.5 0.866 32.8984 196.247)" class="st26" width="0.5" height="9.2"/>
			</g>
			<g>
				<rect x="431.7" y="117.5" transform="matrix(0.866 -0.5 0.5 0.866 -3.1934 232.3363)" class="st26" width="0.5" height="9.2"/>
			</g>
		</g>
		<g>
			<g>
				<rect x="364.3" y="50.3" transform="matrix(0.5 -0.866 0.866 0.5 134.7623 343.1397)" class="st26" width="0.5" height="9.2"/>
			</g>
			<g>
				
					<rect x="449.7" y="99.6" transform="matrix(0.4999 -0.8661 0.8661 0.4999 134.7824 441.792)" class="st26" width="0.5" height="9.2"/>
			</g>
		</g>
		<g>
			<g>
				<rect x="353.4" y="79.2" class="st26" width="9.2" height="0.5"/>
			</g>
			<g>
				<rect x="452" y="79.2" class="st26" width="9.2" height="0.5"/>
			</g>
		</g>
		<g>
			<g>
				
					<rect x="360" y="103.9" transform="matrix(0.8653 -0.5013 0.5013 0.8653 -3.1073 196.8181)" class="st26" width="9.2" height="0.5"/>
			</g>
			<g>
				
					<rect x="445.4" y="54.5" transform="matrix(0.8659 -0.5003 0.5003 0.8659 32.9567 232.4789)" class="st26" width="9.2" height="0.5"/>
			</g>
		</g>
		<g>
			<g>
				
					<rect x="378" y="122" transform="matrix(0.5002 -0.8659 0.8659 0.5002 85.3696 392.4037)" class="st26" width="9.2" height="0.5"/>
			</g>
			<g>
				
					<rect x="427.4" y="36.5" transform="matrix(0.5012 -0.8653 0.8653 0.5012 183.6675 392.1872)" class="st26" width="9.2" height="0.5"/>
			</g>
		</g>
	</g>
	<g>
		<g>
			<rect x="407.2" y="25.5" class="st26" width="0.3" height="4.6"/>
		</g>
		<g>
			<rect x="407.2" y="128.7" class="st26" width="0.3" height="4.6"/>
		</g>
	</g>
	<g>
		<g>
			
				<rect x="401.8" y="25.8" transform="matrix(0.9945 -0.1047 0.1047 0.9945 -0.7371 42.239)" class="st26" width="0.3" height="4.6"/>
		</g>
		<g>
			
				<rect x="412.6" y="128.5" transform="matrix(0.9945 -0.1046 0.1046 0.9945 -11.4216 43.8913)" class="st26" width="0.3" height="4.6"/>
		</g>
	</g>
	<g>
		<g>
			
				<rect x="396.4" y="26.6" transform="matrix(0.9782 -0.2079 0.2079 0.9782 2.6472 83.0756)" class="st26" width="0.3" height="4.6"/>
		</g>
		<g>
			<polygon class="st26" points="418.4,132.2 417.4,127.7 417.7,127.6 418.7,132.1 			"/>
		</g>
	</g>
	<g>
		<g>
			<rect x="391.2" y="28" transform="matrix(0.9511 -0.309 0.309 0.9511 9.7752 122.4105)" class="st26" width="0.3" height="4.6"/>
		</g>
		<g>
			
				<rect x="423.1" y="126.2" transform="matrix(0.951 -0.3091 0.3091 0.951 -19.0035 137.1218)" class="st26" width="0.3" height="4.6"/>
		</g>
	</g>
	<g>
		<g>
			
				<rect x="386.2" y="30" transform="matrix(0.9135 -0.4068 0.4068 0.9135 20.2578 159.9688)" class="st26" width="0.3" height="4.6"/>
		</g>
		<g>
			<polygon class="st26" points="429.1,128.7 427.2,124.5 427.5,124.4 429.4,128.6 			"/>
		</g>
	</g>
	<g>
		<g>
			<rect x="381.4" y="32.4" transform="matrix(0.866 -0.5 0.5 0.866 33.7564 195.4323)" class="st26" width="0.3" height="4.6"/>
		</g>
		<g>
			<polygon class="st26" points="434.1,126.2 431.8,122.2 432.1,122.1 434.4,126 			"/>
		</g>
	</g>
	<g>
		<g>
			
				<rect x="376.8" y="35.5" transform="matrix(0.809 -0.5878 0.5878 0.809 49.7985 228.7815)" class="st26" width="0.3" height="4.6"/>
		</g>
		<g>
			<polygon class="st26" points="438.9,123.1 436.2,119.4 436.4,119.2 439.1,123 			"/>
		</g>
	</g>
	<g>
		<g>
			
				<rect x="372.6" y="38.9" transform="matrix(0.7431 -0.6692 0.6692 0.7431 68.2262 260.0259)" class="st26" width="0.3" height="4.6"/>
		</g>
		<g>
			
				<rect x="441.7" y="115.5" transform="matrix(0.743 -0.6693 0.6693 0.743 34.6924 326.0253)" class="st26" width="0.3" height="4.6"/>
		</g>
	</g>
	<g>
		<g>
			
				<rect x="368.8" y="42.6" transform="matrix(0.6691 -0.7432 0.7432 0.6691 88.7012 289.0868)" class="st26" width="0.3" height="4.6"/>
		</g>
		<g>
			
				<rect x="445.5" y="111.8" transform="matrix(0.6693 -0.743 0.743 0.6693 62.6441 368.8499)" class="st26" width="0.3" height="4.6"/>
		</g>
	</g>
	<g>
		<g>
			
				<rect x="365.4" y="46.8" transform="matrix(0.5877 -0.8091 0.8091 0.5877 110.9923 316.0396)" class="st26" width="0.3" height="4.6"/>
		</g>
		<g>
			
				<rect x="448.9" y="107.5" transform="matrix(0.5879 -0.8089 0.8089 0.5879 96.2013 408.5149)" class="st26" width="0.3" height="4.6"/>
		</g>
	</g>
	<g>
		<g>
			<rect x="362.4" y="51.4" transform="matrix(0.5 -0.866 0.866 0.5 134.7639 340.8615)" class="st26" width="0.3" height="4.6"/>
		</g>
		<g>
			<polygon class="st26" points="453.9,106.5 449.9,104.2 450.1,104 454,106.3 			"/>
		</g>
	</g>
	<g>
		<g>
			
				<rect x="360" y="56.1" transform="matrix(0.4067 -0.9136 0.9136 0.4067 160.3361 363.6502)" class="st26" width="0.3" height="4.6"/>
		</g>
		<g>
			
				<rect x="454.2" y="98.1" transform="matrix(0.407 -0.9134 0.9134 0.407 177.7037 474.6151)" class="st26" width="0.3" height="4.6"/>
		</g>
	</g>
	<g>
		<g>
			<polygon class="st26" points="360.3,64.3 356,62.9 356,62.7 360.4,64.1 			"/>
		</g>
		<g>
			
				<rect x="456.2" y="93.1" transform="matrix(0.3093 -0.951 0.951 0.3093 224.4277 499.8518)" class="st26" width="0.3" height="4.6"/>
		</g>
	</g>
	<g>
		<g>
			
				<rect x="356.6" y="66.4" transform="matrix(0.2079 -0.9782 0.9782 0.2079 215.3919 403.3873)" class="st26" width="0.3" height="4.6"/>
		</g>
		<g>
			<polygon class="st26" points="460,90.8 455.5,89.8 455.6,89.6 460,90.5 			"/>
		</g>
	</g>
	<g>
		<g>
			
				<rect x="355.9" y="71.8" transform="matrix(0.1044 -0.9945 0.9945 0.1044 245.0959 420.4607)" class="st26" width="0.3" height="4.6"/>
		</g>
		<g>
			
				<rect x="458.5" y="82.6" transform="matrix(0.1047 -0.9945 0.9945 0.1047 326.2299 532.0942)" class="st26" width="0.3" height="4.6"/>
		</g>
	</g>
	<g>
		<g>
			<rect x="353.4" y="79.3" class="st26" width="4.6" height="0.3"/>
		</g>
		<g>
			<rect x="456.6" y="79.3" class="st26" width="4.6" height="0.3"/>
		</g>
	</g>
	<g>
		<g>
			
				<rect x="353.6" y="84.7" transform="matrix(0.9944 -0.1059 0.1059 0.9944 -6.9888 38.1673)" class="st26" width="4.6" height="0.3"/>
		</g>
		<g>
			
				<rect x="456.3" y="73.9" transform="matrix(0.9945 -0.1048 0.1048 0.9945 -5.2393 48.4692)" class="st26" width="4.6" height="0.3"/>
		</g>
	</g>
	<g>
		<g>
			
				<rect x="354.5" y="90.1" transform="matrix(0.978 -0.2084 0.2084 0.978 -10.9819 76.3403)" class="st26" width="4.6" height="0.3"/>
		</g>
		<g>
			<polygon class="st26" points="455.6,69.3 455.5,69.1 460,68.1 460,68.4 			"/>
		</g>
	</g>
	<g>
		<g>
			
				<rect x="355.9" y="95.3" transform="matrix(0.9513 -0.3083 0.3083 0.9513 -11.9921 115.0866)" class="st26" width="4.6" height="0.3"/>
		</g>
		<g>
			
				<rect x="454.1" y="63.4" transform="matrix(0.9513 -0.3084 0.3084 0.9513 2.6338 143.8568)" class="st26" width="4.6" height="0.3"/>
		</g>
	</g>
	<g>
		<g>
			
				<rect x="357.8" y="100.3" transform="matrix(0.9133 -0.4072 0.4072 0.9133 -9.7111 155.338)" class="st26" width="4.6" height="0.3"/>
		</g>
		<g>
			
				<rect x="452.1" y="58.3" transform="matrix(0.9133 -0.4072 0.4072 0.9133 15.5636 190.0958)" class="st26" width="4.6" height="0.3"/>
		</g>
	</g>
	<g>
		<g>
			<rect x="360.3" y="105.2" transform="matrix(0.866 -0.5 0.5 0.866 -4.1164 195.4297)" class="st26" width="4.6" height="0.3"/>
		</g>
		<g>
			
				<rect x="449.7" y="53.5" transform="matrix(0.8658 -0.5004 0.5004 0.8658 33.7993 233.3876)" class="st26" width="4.6" height="0.3"/>
		</g>
	</g>
	<g>
		<g>
			
				<rect x="363.2" y="109.8" transform="matrix(0.8083 -0.5888 0.5888 0.8083 5.3552 236.2747)" class="st26" width="4.6" height="0.3"/>
		</g>
		<g>
			<polygon class="st26" points="447.3,50.6 447.1,50.4 450.8,47.7 451,47.9 			"/>
		</g>
	</g>
	<g>
		<g>
			
				<rect x="366.6" y="113.9" transform="matrix(0.7419 -0.6705 0.6705 0.7419 18.7096 276.802)" class="st26" width="4.6" height="0.3"/>
		</g>
		<g>
			
				<rect x="443.4" y="44.8" transform="matrix(0.7439 -0.6683 0.6683 0.7439 84.0894 309.3916)" class="st26" width="4.6" height="0.3"/>
		</g>
	</g>
	<g>
		<g>
			<polygon class="st26" points="371.3,119.6 371.1,119.5 374.2,116.1 374.4,116.2 			"/>
		</g>
		<g>
			<polygon class="st26" points="440.4,42.9 440.2,42.7 443.3,39.3 443.5,39.5 			"/>
		</g>
	</g>
	<g>
		<g>
			
				<rect x="374.7" y="121.1" transform="matrix(0.5886 -0.8084 0.8084 0.5886 57.0556 354.6618)" class="st26" width="4.6" height="0.3"/>
		</g>
		<g>
			
				<rect x="435.3" y="37.7" transform="matrix(0.5877 -0.8091 0.8091 0.5877 149.8191 369.6562)" class="st26" width="4.6" height="0.3"/>
		</g>
	</g>
	<g>
		<g>
			
				<rect x="379.3" y="124.1" transform="matrix(0.5013 -0.8653 0.8653 0.5013 82.8244 392.157)" class="st26" width="4.6" height="0.3"/>
		</g>
		<g>
			
				<rect x="430.9" y="34.8" transform="matrix(0.4999 -0.8661 0.8661 0.4999 186.3971 392.6099)" class="st26" width="4.6" height="0.3"/>
		</g>
	</g>
	<g>
		<g>
			
				<rect x="384" y="126.6" transform="matrix(0.4072 -0.9133 0.9133 0.4072 113.2524 427.8979)" class="st26" width="4.6" height="0.3"/>
		</g>
		<g>
			<polygon class="st26" points="427.5,34.5 427.2,34.4 429.1,30.2 429.4,30.3 			"/>
		</g>
	</g>
	<g>
		<g>
			
				<rect x="389.1" y="128.5" transform="matrix(0.3083 -0.9513 0.9513 0.3083 148.3677 461.3239)" class="st26" width="4.6" height="0.3"/>
		</g>
		<g>
			
				<rect x="421" y="30.3" transform="matrix(0.3092 -0.951 0.951 0.3092 263.4861 423.5414)" class="st26" width="4.6" height="0.3"/>
		</g>
	</g>
	<g>
		<g>
			<polygon class="st26" points="396.2,132.3 396,132.2 396.9,127.7 397.2,127.8 			"/>
		</g>
		<g>
			
				<rect x="415.7" y="28.9" transform="matrix(0.2089 -0.9779 0.9779 0.2089 302.2667 431.8264)" class="st26" width="4.6" height="0.3"/>
		</g>
	</g>
	<g>
		<g>
			
				<rect x="399.6" y="130.8" transform="matrix(0.1076 -0.9942 0.9942 0.1076 228.5233 516.4213)" class="st26" width="4.6" height="0.3"/>
		</g>
		<g>
			
				<rect x="410.4" y="28.1" transform="matrix(0.106 -0.9944 0.9944 0.106 340.9117 435.5865)" class="st26" width="4.6" height="0.3"/>
		</g>
	</g>
</g>
<g>
	
		<linearGradient id="SVGID_13_" gradientUnits="userSpaceOnUse" x1="391.3045" y1="49.484" x2="391.8485" y2="49.484" gradientTransform="matrix(1 0 0 1 0 0.7562)">
		<stop  offset="5.618000e-03" style="stop-color:#FCE171"/>
		<stop  offset="0.5955" style="stop-color:#C9AD69"/>
		<stop  offset="0.8708" style="stop-color:#F2E6BB"/>
	</linearGradient>
	<path class="st27" d="M391.3,50c0,0,0.2,0.2,0.5,0.4C391.7,50.3,391.5,50.1,391.3,50z"/>
	<path class="st26" d="M392.9,53.6c1.6-0.9-0.1-2.5-1-3.2c0.7,0.8,0.7,2.2,0,2c-0.9-0.2-2-3.5-2.4-4.9s-3.4-4.1-3.4-4.1s0.9,4,1.9,5
		s3.3,3.6,3,4.5c-0.2,0.7-1.4,0-1.8-1c0.2,1.2,0.7,3.4,2.3,2.5c0,0,1,2.7-0.2,2.3c0,0,2.3,1.6,1.3-0.9c0,0,12.1,22.5,13.4,23.9
		l1,0.3l0.2-1c-0.5-1.9-13.9-23.6-13.9-23.6c1.7,2.1,1.5-0.7,1.5-0.7C394.7,55.9,392.9,53.6,392.9,53.6z"/>
	
		<linearGradient id="SVGID_14_" gradientUnits="userSpaceOnUse" x1="389.1965" y1="50.834" x2="389.2828" y2="50.834" gradientTransform="matrix(1 0 0 1 0 0.7562)">
		<stop  offset="5.618000e-03" style="stop-color:#FCE171"/>
		<stop  offset="0.5955" style="stop-color:#C9AD69"/>
		<stop  offset="0.8708" style="stop-color:#F2E6BB"/>
	</linearGradient>
	<path class="st28" d="M389.3,51.9c-0.1-0.4-0.1-0.7-0.1-0.7C389.2,51.5,389.2,51.7,389.3,51.9z"/>
</g>
<path class="st26" d="M412,71.2c0,0,1.7,2.3-0.7,2.5c-2.3,0.2-0.3-2.9-0.3-2.9c0.9-2.3-1.5-1.9-1.5-1.9s1.5,0.3,0.5,2.2
	c-0.9,1.9-4.3-0.3-1.6-3.9c2.6-3.5-0.7-8.4-0.7-8.4s-1.4-2.9-1.4-4.5s2-3.5,0.6-4.3c-1.3-0.8-2.3-3.6-2.3-3.6s-0.5,2.9-1.7,3.9
	s1.1,2.5,1.4,4.1s-0.6,4.6-0.6,4.6s-2.5,5.4,0.7,8.4s0.3,5.8-1,4.1s0.1-2.3,0.1-2.3s-2.4,0.1-1.1,2.2c0,0,2.6,2.7,0.3,3
	c-2.3,0.2-1.1-2.3-1.1-2.3s-2.2,2.1,0.3,3.5c2.6,1.4,2.3-0.7,3.2,0.4c0.9,1.1,2.1,1,2.1,1s1.2-0.1,1.9-1.3c0.7-1.2,0.8,0.8,3.1-1
	C414.6,72.9,412,71.2,412,71.2z M405.5,68l-1.3-3.1c-1.4-1.7,0.7-7.5,0.7-7.5c1.3,1.9,0.1,4.4,0.1,4.4C406.6,63.5,405.5,68,405.5,68
	z M404.6,72.7c1.3,0.4,1.3-0.7,1.3-0.7C406.3,76.1,404.6,72.7,404.6,72.7z M407,76.2c0,0-1.5-0.6-1.5-1s0-0.4,0-0.4l1.3-0.9
	L407,76.2z M404.4,52.6c-1-1.1-0.7-1.8-0.7-1.8c0.5-1.4,0.9-1.9,0.9-1.9L404.4,52.6z M408.4,64.5l-0.8,3.3c0,0-1.8-4.2-0.5-6.2
	c0,0-1.6-2.2-0.7-4.3C406.4,57.2,409.4,62.6,408.4,64.5z M406.5,50.6c0,0,0.4,0.7-0.4,1.9l-0.8-3.6
	C405.3,48.9,405.8,49.3,406.5,50.6z M407.6,76.1l-0.2-2.2l1.4,0.6c0,0,0,0,0.1,0.4C409,75.2,407.6,76.1,407.6,76.1z M408,71.9
	c0,0,0.3,1.1,1.4,0.4C409.4,72.3,408.3,75.9,408,71.9z"/>
<linearGradient id="SVGID_15_" gradientUnits="userSpaceOnUse" x1="402.8" y1="78.684" x2="411.7541" y2="78.684" gradientTransform="matrix(1 0 0 1 0 0.7562)">
	<stop  offset="0" style="stop-color:#FFFCE6"/>
	<stop  offset="0.1693" style="stop-color:#FAF3D5"/>
	<stop  offset="0.3708" style="stop-color:#F2E6BB"/>
	<stop  offset="0.6854" style="stop-color:#F0D56C"/>
	<stop  offset="1" style="stop-color:#C9AD69"/>
</linearGradient>
<path class="st29" d="M411.8,79.4c0,2.5-2,4.5-4.5,4.5s-4.5-2-4.5-4.5s2-4.5,4.5-4.5C409.7,74.9,411.8,76.9,411.8,79.4z"/>
<linearGradient id="SVGID_16_" gradientUnits="userSpaceOnUse" x1="402.8" y1="78.684" x2="411.7541" y2="78.684" gradientTransform="matrix(1 0 0 1 0 0.7562)">
	<stop  offset="0" style="stop-color:#F2E6BB"/>
	<stop  offset="0.6854" style="stop-color:#F0D56C"/>
	<stop  offset="1" style="stop-color:#C9AD69"/>
</linearGradient>
<path class="st30" d="M411.8,79.4c0,2.5-2,4.5-4.5,4.5s-4.5-2-4.5-4.5s2-4.5,4.5-4.5C409.7,74.9,411.8,76.9,411.8,79.4z"/>
<linearGradient id="SVGID_17_" gradientUnits="userSpaceOnUse" x1="351.2079" y1="61.2879" x2="389.8924" y2="61.2879" gradientTransform="matrix(0.9996 3.160000e-02 -3.160000e-02 0.9996 5.0635 -15.393)">
	<stop  offset="0" style="stop-color:#FFFFFF"/>
	<stop  offset="1" style="stop-color:#FFFFFF"/>
</linearGradient>
<path class="st31" d="M386.3,47.5l-1.2-2.3c-2.2-4.1-4.3-8.2-6.5-12.3c-6.4,5.9-11.7,12.8-15.9,20.3l-2,3.8
	c-3.7,7.7-6.2,16-7.4,24.7c4.6-0.6,9.2-1.2,13.8-1.9l2.6-0.3c4.6-0.6,9.2-1.2,13.8-1.9c0.4-3.1,1.3-6.2,2.7-9l0.7-1.4
	c1.5-2.7,3.5-5.2,5.8-7.4C390.6,55.7,388.5,51.6,386.3,47.5z"/>
<linearGradient id="SVGID_18_" gradientUnits="userSpaceOnUse" x1="-10.8428" y1="199.8413" x2="10.6202" y2="199.8413" gradientTransform="matrix(-0.9998 -2.250000e-02 2.250000e-02 -0.9998 447.3584 299.2437)">
	<stop  offset="0" style="stop-color:#FFFFFF"/>
	<stop  offset="1" style="stop-color:#FFFFFF"/>
</linearGradient>
<path class="st32" d="M444.9,105l0.7,1.3c1.2,2.3,2.4,4.5,3.7,6.8c3.5-3.3,6.4-7.2,8.7-11.4l1.1-2.1c2-4.3,3.4-8.9,4-13.7
	c-2.6,0.4-5.1,0.7-7.7,1.1l-1.4,0.2c-2.6,0.4-5.1,0.7-7.7,1.1c-0.2,1.7-0.7,3.4-1.4,5l-0.4,0.8c-0.8,1.5-1.9,2.9-3.2,4.1
	C442.5,100.4,443.7,102.7,444.9,105z"/>
<g>
	<g>
		<path class="st13" d="M406.7,79.4c0,0,0.1,0,0.3,0.1c0.2,0,0.4,0,0.6-0.2s0.2-0.6,0-0.9c-0.3-0.3-0.8-0.3-1.2,0
			c-0.4,0.3-0.4,1,0,1.4s1.2,0.6,1.7,0.2c0.5-0.4,0.9-1.2,0.6-1.9c-0.2-0.7-1-1.3-1.8-1.3c-0.8-0.1-1.6,0.3-2.1,0.9
			c-0.5,0.6-0.7,1.5-0.6,2.2s0.5,1.4,1,1.8c0.5,0.5,1.1,0.8,1.7,0.9c1.2,0.3,2.2,0,2.8-0.3c0.6-0.3,0.9-0.6,1-0.5
			c0,0-0.2,0.4-0.8,0.8c-0.6,0.4-1.7,0.8-3.1,0.6c-0.7-0.1-1.4-0.4-2-0.9s-1.2-1.3-1.3-2.2c-0.2-0.9,0.1-2,0.7-2.8
			c0.3-0.4,0.7-0.8,1.2-1s1.1-0.3,1.6-0.3c1.1,0.1,2.2,0.9,2.5,2s-0.1,2.2-1,2.8s-2.1,0.3-2.7-0.4c-0.3-0.4-0.4-0.8-0.4-1.3
			c0-0.4,0.3-0.8,0.5-1.1c0.3-0.3,0.7-0.4,1.1-0.3c0.4,0,0.7,0.2,0.9,0.5c0.2,0.2,0.3,0.6,0.2,0.8c0,0.3-0.2,0.5-0.3,0.6
			c-0.3,0.3-0.7,0.2-0.9,0.1C406.7,79.5,406.6,79.4,406.7,79.4z"/>
		<path class="st14" d="M407.4,79.5c0,0,0.1-0.1,0.2-0.2c0.1-0.1,0.2-0.3,0.2-0.6s-0.3-0.6-0.7-0.6c-0.4-0.1-0.8,0.1-1,0.6
			c-0.2,0.4,0,1,0.5,1.3s1.2,0.3,1.7-0.2s0.7-1.2,0.4-1.9c-0.2-0.7-1-1.2-1.7-1.2c-0.8-0.1-1.6,0.3-2,0.8c-0.5,0.6-0.7,1.3-0.7,2
			s0.3,1.4,0.7,1.8c0.4,0.5,1,0.8,1.5,1c1.1,0.4,2,0.3,2.6,0.1s0.9-0.4,1-0.3c0,0-0.2,0.3-0.9,0.6c-0.6,0.3-1.7,0.5-2.9,0.1
			c-0.6-0.2-1.2-0.6-1.8-1.1c-0.5-0.6-0.9-1.4-1-2.2c-0.1-0.9,0.2-1.8,0.8-2.6c0.6-0.8,1.7-1.3,2.7-1.1c1,0.1,2,0.8,2.4,1.8
			s0.1,2.1-0.6,2.7c-0.7,0.7-1.8,0.7-2.5,0.2c-0.3-0.2-0.6-0.6-0.7-1s-0.1-0.8,0.1-1.1s0.4-0.6,0.7-0.7c0.3-0.1,0.6-0.2,0.9-0.1
			c0.6,0.1,0.9,0.7,0.9,1.1c0,0.4-0.2,0.7-0.4,0.8C407.5,79.6,407.4,79.6,407.4,79.5z"/>
		<path class="st15" d="M407.9,79c0,0,0-0.1-0.1-0.2c0-0.1-0.1-0.4-0.3-0.5c-0.2-0.2-0.6-0.2-0.9-0.1c-0.3,0.1-0.6,0.6-0.6,1
			c0,0.2,0.1,0.5,0.2,0.6c0.2,0.2,0.4,0.3,0.7,0.4c0.5,0.2,1.2,0,1.5-0.5c0.4-0.5,0.5-1.2,0.2-1.8s-1-1.1-1.7-1.1
			c-0.7-0.1-1.5,0.2-2,0.7s-0.8,1.2-0.8,1.9s0.2,1.3,0.5,1.8s0.8,0.9,1.3,1.1c0.9,0.5,1.9,0.6,2.5,0.5s0.9-0.2,1-0.1
			c0,0-0.3,0.3-0.9,0.4c-0.6,0.2-1.7,0.2-2.8-0.3c-0.5-0.3-1.1-0.7-1.5-1.2c-0.4-0.6-0.7-1.4-0.7-2.2s0.3-1.7,0.9-2.4s1.6-1.1,2.6-1
			s1.9,0.7,2.3,1.6c0.4,0.9,0.2,1.9-0.3,2.6c-0.3,0.3-0.7,0.6-1.1,0.7s-0.8,0.1-1.2,0c-0.4-0.1-0.7-0.4-0.9-0.7
			c-0.2-0.3-0.3-0.7-0.3-1c0-0.7,0.5-1.2,1-1.4s1,0,1.3,0.3s0.3,0.6,0.3,0.7C408,78.9,407.9,79,407.9,79z"/>
		<path class="st16" d="M407.7,78.2c0,0.1-0.3-0.3-0.8-0.3c-0.3,0-0.6,0.1-0.8,0.4c-0.2,0.3-0.3,0.7-0.1,1.1
			c0.2,0.4,0.7,0.7,1.2,0.7s1.1-0.3,1.3-0.8c0.3-0.5,0.3-1.2,0-1.8c-0.3-0.5-1-1-1.7-1c-0.7-0.1-1.4,0.2-1.9,0.7s-0.8,1.1-0.9,1.7
			c-0.1,0.6,0,1.2,0.3,1.8c0.2,0.5,0.6,0.9,1,1.2c0.8,0.6,1.7,0.8,2.2,0.8c0.6,0,0.9,0,0.9,0s-0.3,0.2-0.9,0.2s-1.6-0.1-2.5-0.7
			c-0.5-0.3-0.9-0.7-1.3-1.3c-0.3-0.6-0.5-1.3-0.4-2.1s0.4-1.6,1-2.2c0.6-0.6,1.5-1,2.4-0.9s1.7,0.6,2.2,1.4c0.4,0.8,0.4,1.7,0,2.4
			c-0.2,0.3-0.5,0.6-0.8,0.8s-0.7,0.3-1.1,0.2c-0.7-0.1-1.4-0.5-1.6-1.1s-0.1-1.2,0.2-1.6c0.3-0.4,0.8-0.5,1.1-0.5
			c0.3,0,0.6,0.2,0.7,0.3C407.7,78.1,407.7,78.2,407.7,78.2z"/>
		<path class="st17" d="M407.1,77.8c0,0.1-0.3,0-0.7,0.3c-0.2,0.2-0.4,0.4-0.4,0.8c0,0.3,0.1,0.7,0.4,1s0.8,0.4,1.3,0.3
			c0.5-0.1,0.9-0.5,1.1-1s0.1-1.2-0.2-1.7c-0.3-0.5-1-0.9-1.6-0.9c-0.7-0.1-1.3,0.1-1.8,0.6c-0.5,0.4-0.8,1-0.9,1.6
			c-0.3,1.2,0.2,2.3,0.9,2.9c0.7,0.7,1.4,0.9,1.9,1.1c0.5,0.1,0.8,0.1,0.8,0.2c0,0-0.3,0.1-0.9,0.1c-0.6-0.1-1.4-0.3-2.2-1
			c-0.4-0.3-0.8-0.8-1-1.4c-0.2-0.6-0.3-1.3-0.2-2c0.1-0.7,0.5-1.4,1.1-1.9s1.4-0.8,2.3-0.7s1.6,0.5,2.1,1.2s0.5,1.6,0.2,2.3
			c-0.1,0.3-0.4,0.6-0.6,0.9c-0.3,0.2-0.6,0.4-0.9,0.5c-0.7,0.1-1.3-0.1-1.7-0.5c-0.4-0.4-0.5-1-0.4-1.4s0.4-0.8,0.6-0.9
			c0.3-0.2,0.5-0.2,0.7-0.2C407,77.8,407.1,77.8,407.1,77.8z"/>
		<path class="st18" d="M406.3,78c0,0-0.2,0.2-0.4,0.7c-0.1,0.2-0.1,0.5,0,0.8s0.4,0.6,0.7,0.7c0.4,0.2,0.8,0.2,1.3,0
			c0.4-0.2,0.7-0.7,0.9-1.2c0.1-0.5,0-1.1-0.4-1.6c-0.4-0.4-0.9-0.8-1.6-0.8c-0.6-0.1-1.2,0.1-1.7,0.5s-0.8,0.9-1,1.4
			c-0.4,1.1-0.1,2.2,0.5,2.8c0.5,0.7,1.2,1.1,1.6,1.3c0.5,0.2,0.7,0.3,0.7,0.3s-0.3,0.1-0.8-0.1c-0.5-0.1-1.2-0.5-1.9-1.2
			c-0.6-0.7-1.1-2-0.7-3.3c0.2-0.6,0.6-1.2,1.1-1.7c0.6-0.5,1.4-0.7,2.1-0.6c0.8,0.1,1.5,0.5,2,1.1s0.6,1.4,0.4,2.1
			s-0.6,1.2-1.2,1.5s-1.2,0.2-1.7,0s-0.8-0.6-0.9-1s0-0.8,0.1-1C406,78.1,406.3,78,406.3,78z"/>
		<path class="st19" d="M405.8,78.6c0.1,0-0.1,0.3,0,0.7c0,0.2,0.2,0.5,0.4,0.7c0.2,0.2,0.5,0.4,0.9,0.4s0.8-0.1,1.1-0.4
			c0.3-0.3,0.6-0.7,0.6-1.2s-0.1-1-0.5-1.4s-0.9-0.7-1.5-0.7c-0.6-0.1-1.2,0.1-1.6,0.4s-0.8,0.8-1,1.2c-0.4,1-0.3,2,0.1,2.7
			s0.9,1.1,1.3,1.4c0.4,0.3,0.6,0.4,0.6,0.4s-0.3,0-0.7-0.2c-0.4-0.2-1.1-0.6-1.5-1.4c-0.5-0.8-0.7-1.9-0.2-3.1
			c0.2-0.6,0.6-1.1,1.2-1.5s1.3-0.6,2-0.5s1.4,0.4,1.8,0.9c0.5,0.5,0.7,1.2,0.6,1.8s-0.4,1.2-0.8,1.5c-0.4,0.4-1,0.5-1.5,0.4
			c-1-0.1-1.5-0.9-1.5-1.4C405.6,78.8,405.8,78.6,405.8,78.6z"/>
		<path class="st20" d="M405.7,79.4c0,0,0.1,0.2,0.4,0.5s0.9,0.6,1.5,0.4c0.7-0.1,1.3-1,1.2-1.9c0-0.5-0.2-0.9-0.6-1.3
			c-0.4-0.3-0.9-0.6-1.4-0.6c-0.5-0.1-1.1,0.1-1.5,0.3c-0.4,0.3-0.8,0.7-1,1.1c-0.5,0.8-0.5,1.8-0.2,2.5c0.2,0.7,0.6,1.2,0.9,1.5
			s0.5,0.4,0.5,0.5c0,0-0.3-0.1-0.6-0.3c-0.4-0.3-0.9-0.7-1.2-1.5c-0.3-0.8-0.3-1.8,0.2-2.8c0.3-0.5,0.6-1,1.2-1.3
			c0.5-0.3,1.2-0.5,1.8-0.4c0.7,0.1,1.3,0.4,1.7,0.8c0.5,0.4,0.7,1,0.7,1.6c0.1,1.2-0.8,2.1-1.6,2.3c-0.4,0.1-0.8,0-1.1-0.1
			c-0.3-0.1-0.5-0.3-0.7-0.5C405.7,79.6,405.7,79.4,405.7,79.4z"/>
		<path class="st21" d="M406.1,80.1c0,0,0.2,0.1,0.5,0.3c0.3,0.1,0.9,0.2,1.5-0.1c0.5-0.3,1-1.1,0.8-2c-0.2-0.8-1-1.6-2-1.7
			c-0.5-0.1-1,0-1.4,0.3c-0.4,0.2-0.7,0.5-1,0.9c-0.5,0.7-0.6,1.6-0.5,2.2c0.1,0.7,0.4,1.2,0.6,1.5S405,82,405,82s-0.2-0.1-0.5-0.4
			c-0.3-0.3-0.6-0.8-0.8-1.5c-0.2-0.7-0.1-1.7,0.5-2.5c0.3-0.4,0.6-0.8,1.1-1.1s1.1-0.4,1.7-0.3c1.2,0.1,2.2,1,2.4,2
			c0.2,1-0.4,2-1,2.3c-0.7,0.4-1.4,0.2-1.7,0C406.2,80.3,406.1,80.1,406.1,80.1z"/>
		<path class="st22" d="M406.7,80.5c0,0,0.2,0,0.5,0s0.8-0.2,1.2-0.6c0.4-0.4,0.6-1.2,0.3-1.9c-0.3-0.7-1-1.3-1.9-1.4
			c-0.9-0.1-1.7,0.3-2.2,0.9c-0.5,0.6-0.7,1.3-0.7,1.9c0,0.6,0.1,1.1,0.3,1.4c0.1,0.3,0.2,0.5,0.2,0.5s-0.2-0.1-0.4-0.4
			c-0.2-0.3-0.4-0.8-0.4-1.5s0.2-1.5,0.7-2.2s1.5-1.3,2.6-1.1c1,0.1,2,0.8,2.2,1.7c0.3,0.9,0,1.8-0.5,2.3s-1.1,0.6-1.4,0.6
			C406.9,80.6,406.7,80.5,406.7,80.5z"/>
		<path class="st23" d="M407.5,80.6c0,0,0.2-0.1,0.4-0.2c0.3-0.1,0.6-0.4,0.8-0.9c0.2-0.5,0.3-1.2-0.1-1.8c-0.3-0.6-1-1.1-1.8-1.2
			c-0.8-0.1-1.6,0.2-2.1,0.7s-0.8,1.1-0.9,1.6c-0.2,1.1,0.1,1.8,0.1,1.8s-0.1-0.1-0.2-0.5c-0.1-0.3-0.2-0.8-0.1-1.4
			c0.1-0.6,0.3-1.3,0.9-1.8c0.5-0.6,1.4-1,2.4-0.9c0.9,0.1,1.7,0.7,2.1,1.4s0.3,1.5,0,2.1c-0.3,0.5-0.7,0.8-1,0.9
			C407.7,80.6,407.5,80.6,407.5,80.6z"/>
	</g>
</g>
</svg>
